<svg xmlns="http://www.w3.org/2000/svg" xmlns:xlink="http://www.w3.org/1999/xlink" width="1919" height="326" viewBox="0 0 1919 326">
  <defs>
    <linearGradient id="linear-gradient" x1="-0.703" y1="-0.587" x2="-0.96" y2="1" gradientUnits="objectBoundingBox">
      <stop offset="0" stop-color="#f3525d"/>
      <stop offset="1" stop-color="#050f3c"/>
    </linearGradient>
    <clipPath id="clip-Plan_de_travail_19">
      <rect width="1919" height="326"/>
    </clipPath>
  </defs>
  <g id="Plan_de_travail_19" data-name="Plan de travail – 19" clip-path="url(#clip-Plan_de_travail_19)">
    <path id="Rectangle_22" data-name="Rectangle 22" d="M0,0H1919.324V325.522H0Z" transform="translate(-0.324 0.465)" fill="#081d82"/>
    <g id="Group_28854" data-name="Group 28854" transform="translate(-98.955 0.472)" opacity="0.162">
      <path id="Path_49" data-name="Path 49" d="M589.708,291.8c-2.439-14.36,8.2-28.2,23.741-31.15s30.424,6.041,33.314,20.325-7.709,28.494-23.674,31.528S592.148,306.16,589.708,291.8Z" transform="translate(850.523 -136.314)" fill="url(#linear-gradient)"/>
      <path id="Path_50" data-name="Path 50" d="M583.636,291.8c-1.959-14.436,9.126-27.9,24.719-30.32s30.176,7.1,32.582,21.459-8.632,28.229-24.675,30.7C600.219,316.128,585.6,306.234,583.636,291.8Z" transform="translate(782.382 -124.546)" fill="url(#linear-gradient)"/>
      <path id="Path_51" data-name="Path 51" d="M577.567,291.613c-1.483-14.5,10.028-27.574,25.694-29.456s29.892,8.117,31.81,22.567-9.554,27.89-25.655,29.815S579.049,306.095,577.567,291.613Z" transform="translate(713.972 -115.118)" fill="url(#linear-gradient)"/>
      <path id="Path_52" data-name="Path 52" d="M571.507,291.217c-1-14.536,10.93-27.222,26.629-28.569s29.578,9.138,31.021,23.636-10.474,27.561-26.615,28.948S572.5,305.753,571.507,291.217Z" transform="translate(645.355 -108.042)" fill="url(#linear-gradient)"/>
      <path id="Path_53" data-name="Path 53" d="M565.459,290.621c-.51-14.562,11.833-26.832,27.55-27.637s29.242,10.13,30.2,24.666-11.372,27.19-27.536,28.029S565.972,305.183,565.459,290.621Z" transform="translate(576.574 -103.306)" fill="url(#linear-gradient)"/>
      <path id="Path_54" data-name="Path 54" d="M559.432,289.846c-.04-14.575,12.7-26.417,28.449-26.693s28.876,11.127,29.352,25.687-12.262,26.783-28.459,27.072S559.46,304.4,559.432,289.846Z" transform="translate(507.715 -100.932)" fill="url(#linear-gradient)"/>
      <path id="Path_55" data-name="Path 55" d="M553.428,288.854c.458-14.563,13.586-25.966,29.323-25.7s28.5,12.082,28.473,26.657S598.083,316.179,581.9,315.9,552.979,303.416,553.428,288.854Z" transform="translate(438.804 -100.896)" fill="url(#linear-gradient)"/>
      <path id="Path_56" data-name="Path 56" d="M547.455,287.692c.944-14.548,14.446-25.484,30.177-24.7,15.717.8,28.073,13.062,27.572,27.625s-14.02,25.9-30.188,25.083S546.506,302.23,547.455,287.692Z" transform="translate(369.938 -103.224)" fill="url(#linear-gradient)"/>
      <path id="Path_57" data-name="Path 57" d="M541.515,286.32c1.431-14.5,15.292-24.982,31-23.661s27.637,14.007,26.657,28.545-14.883,25.41-31.021,24.038S540.084,300.818,541.515,286.32Z" transform="translate(301.151 -107.889)" fill="url(#linear-gradient)"/>
      <path id="Path_58" data-name="Path 58" d="M535.614,284.752c1.907-14.447,16.128-24.453,31.8-22.589S594.585,277.1,593.115,291.6s-15.719,24.894-31.822,22.969S533.706,299.19,535.614,284.752Z" transform="translate(232.513 -114.909)" fill="url(#linear-gradient)"/>
      <path id="Path_59" data-name="Path 59" d="M529.757,282.988c2.4-14.374,16.953-23.888,32.558-21.483s26.7,15.861,24.747,30.293-16.554,24.341-32.593,21.859S527.365,297.343,529.757,282.988Z" transform="translate(164.079 -124.266)" fill="url(#linear-gradient)"/>
      <path id="Path_60" data-name="Path 60" d="M523.95,281.037c2.864-14.283,17.76-23.3,33.292-20.362s26.192,16.763,23.76,31.136-17.374,23.75-33.351,20.73S521.085,295.311,523.95,281.037Z" transform="translate(95.919 -135.986)" fill="url(#linear-gradient)"/>
      <path id="Path_61" data-name="Path 61" d="M582.829,285.833c-1.957-14.435,8.693-27.839,23.774-30.18s29.244,7.237,31.648,21.61-8.22,28.154-23.738,30.545S584.784,300.269,582.829,285.833Z" transform="translate(773.062 -191.802)" fill="url(#linear-gradient)"/>
      <path id="Path_62" data-name="Path 62" d="M576.954,285.65c-1.481-14.486,9.615-27.524,24.747-29.348s28.947,8.242,30.861,22.677-9.126,27.857-24.707,29.723S578.435,300.149,576.954,285.65Z" transform="translate(706.899 -182.696)" fill="url(#linear-gradient)"/>
      <path id="Path_63" data-name="Path 63" d="M571.088,285.279c-1-14.538,10.51-27.19,25.679-28.494,15.171-1.284,28.633,9.225,30.064,23.725s-10.036,27.525-25.658,28.859S572.07,299.816,571.088,285.279Z" transform="translate(640.542 -175.856)" fill="url(#linear-gradient)"/>
      <path id="Path_64" data-name="Path 64" d="M565.237,284.714c-.514-14.562,11.405-26.807,26.613-27.6s28.285,10.194,29.242,24.73S610.145,309,594.505,309.809,565.748,299.276,565.237,284.714Z" transform="translate(574.021 -171.288)" fill="url(#linear-gradient)"/>
      <path id="Path_65" data-name="Path 65" d="M559.406,283.958c-.025-14.574,12.292-26.417,27.512-26.681s27.922,11.137,28.4,25.712c.471,14.548-11.846,26.769-27.5,27.046S559.43,298.532,559.406,283.958Z" transform="translate(507.417 -168.985)" fill="url(#linear-gradient)"/>
      <path id="Path_66" data-name="Path 66" d="M553.6,283.005c.461-14.563,13.162-25.978,28.369-25.724s27.55,12.082,27.525,26.657-12.715,26.353-28.37,26.09S553.139,297.56,553.6,283.005Z" transform="translate(440.784 -168.949)" fill="url(#linear-gradient)"/>
      <path id="Path_67" data-name="Path 67" d="M547.826,281.877c.933-14.548,14.023-25.523,29.22-24.757s27.125,13.014,26.627,27.576-13.6,25.914-29.231,25.122S546.876,296.413,547.826,281.877Z" transform="translate(374.175 -171.194)" fill="url(#linear-gradient)"/>
      <path id="Path_68" data-name="Path 68" d="M542.086,280.546c1.418-14.511,14.871-25.031,30.051-23.748s26.691,13.931,25.707,28.469-14.46,25.435-30.077,24.114S540.652,295.034,542.086,280.546Z" transform="translate(307.64 -175.705)" fill="url(#linear-gradient)"/>
      <path id="Path_69" data-name="Path 69" d="M536.382,279.022c1.919-14.448,15.719-24.5,30.85-22.7s26.244,14.839,24.773,29.323S576.7,310.566,561.13,308.722,534.478,293.454,536.382,279.022Z" transform="translate(241.247 -182.484)" fill="url(#linear-gradient)"/>
      <path id="Path_70" data-name="Path 70" d="M530.727,277.306c2.388-14.372,16.528-23.95,31.608-21.635s25.756,15.72,23.816,30.155-16.144,24.391-31.661,22S528.338,291.666,530.727,277.306Z" transform="translate(175.065 -191.532)" fill="url(#linear-gradient)"/>
      <path id="Path_71" data-name="Path 71" d="M576.333,279.692a27.07,27.07,0,0,1,53.728-6.444c1.918,14.435-8.717,27.789-23.774,29.6S577.816,294.177,576.333,279.692Z" transform="translate(699.838 -250.262)" fill="url(#linear-gradient)"/>
      <path id="Path_72" data-name="Path 72" d="M570.664,279.32a27.037,27.037,0,0,1,53.848-4.606c1.445,14.5-9.615,27.488-24.711,28.771S571.657,293.855,570.664,279.32Z" transform="translate(635.737 -243.647)" fill="url(#linear-gradient)"/>
      <path id="Path_73" data-name="Path 73" d="M565.014,278.813a27.024,27.024,0,0,1,53.953-2.782c.961,14.536-10.53,27.134-25.643,27.915S565.523,293.362,565.014,278.813Z" transform="translate(571.478 -239.265)" fill="url(#linear-gradient)"/>
      <path id="Path_74" data-name="Path 74" d="M559.381,278.082a27.019,27.019,0,0,1,54.006-.946c.473,14.562-11.409,26.771-26.541,27.034S559.406,292.657,559.381,278.082Z" transform="translate(507.129 -237.049)" fill="url(#linear-gradient)"/>
      <path id="Path_75" data-name="Path 75" d="M553.774,277.169a27.017,27.017,0,0,1,54,.894c-.012,14.562-12.294,26.355-27.425,26.1S553.313,291.732,553.774,277.169Z" transform="translate(442.754 -237.017)" fill="url(#linear-gradient)"/>
      <path id="Path_76" data-name="Path 76" d="M548.2,276.073a27.029,27.029,0,0,1,53.966,2.719c-.5,14.562-13.166,25.939-28.3,25.171S547.265,290.609,548.2,276.073Z" transform="translate(378.4 -239.181)" fill="url(#linear-gradient)"/>
      <path id="Path_77" data-name="Path 77" d="M542.656,274.76a27.044,27.044,0,0,1,53.868,4.569c-.985,14.536-14.038,25.458-29.13,24.177S541.225,289.259,542.656,274.76Z" transform="translate(314.133 -243.518)" fill="url(#linear-gradient)"/>
      <path id="Path_78" data-name="Path 78" d="M537.155,273.291a27.068,27.068,0,0,1,53.728,6.4c-1.466,14.5-14.883,24.982-29.94,23.183S535.249,287.727,537.155,273.291Z" transform="translate(249.991 -250.067)" fill="url(#linear-gradient)"/>
      <path id="Path_79" data-name="Path 79" d="M590.609,297.176c-2.444-14.359,8.566-28.266,24.573-31.3s31.269,5.878,34.16,20.15-8.083,28.582-24.525,31.7S593.047,311.536,590.609,297.176Z" transform="translate(860.934 -76.182)" fill="url(#linear-gradient)"/>
      <path id="Path_80" data-name="Path 80" d="M596.851,297c-2.932-14.271,7.647-28.545,23.565-32.143s31.508,4.8,34.858,18.965-7.136,28.859-23.489,32.534S599.763,311.257,596.851,297Z" transform="translate(930.749 -90.742)" fill="url(#linear-gradient)"/>
      <path id="Path_81" data-name="Path 81" d="M584.364,297.171c-1.967-14.436,9.5-27.954,25.568-30.445s31.025,6.96,33.43,21.326-9.017,28.293-25.534,30.835C601.327,321.448,586.318,311.608,584.364,297.171Z" transform="translate(790.77 -64.055)" fill="url(#linear-gradient)"/>
      <path id="Path_82" data-name="Path 82" d="M578.119,296.957c-1.482-14.484,10.412-27.613,26.54-29.55s30.737,8,32.655,22.452-9.926,27.965-26.5,29.941C594.248,321.8,579.6,311.462,578.119,296.957Z" transform="translate(720.333 -54.342)" fill="url(#linear-gradient)"/>
      <path id="Path_83" data-name="Path 83" d="M571.882,296.553c-1-14.536,11.321-27.248,27.485-28.633s30.427,9.049,31.874,23.561c1.43,14.486-10.85,27.6-27.457,29.022S572.879,311.088,571.882,296.553Z" transform="translate(649.675 -47.052)" fill="url(#linear-gradient)"/>
      <path id="Path_84" data-name="Path 84" d="M565.659,295.948c-.51-14.562,12.217-26.844,28.41-27.688,16.2-.818,30.089,10.094,31.046,24.63s-11.743,27.221-28.39,28.065C580.08,321.825,566.168,310.51,565.659,295.948Z" transform="translate(578.868 -42.181)" fill="url(#linear-gradient)"/>
      <path id="Path_85" data-name="Path 85" d="M559.454,295.141c-.023-14.574,13.1-26.429,29.306-26.707s29.732,11.1,30.2,25.662-12.642,26.808-29.294,27.1S559.482,309.709,559.454,295.141Z" transform="translate(507.965 -39.725)" fill="url(#linear-gradient)"/>
      <path id="Path_86" data-name="Path 86" d="M553.273,294.124c.464-14.562,13.975-25.951,30.179-25.687s29.358,12.1,29.331,26.671-13.527,26.367-30.176,26.076C565.939,320.92,552.813,308.687,553.273,294.124Z" transform="translate(437.028 -39.689)" fill="url(#linear-gradient)"/>
      <path id="Path_87" data-name="Path 87" d="M547.12,292.923c.948-14.538,14.833-25.458,31.025-24.658,16.2.83,28.931,13.1,28.433,27.664s-14.395,25.888-31.037,25.043S546.177,307.46,547.12,292.923Z" transform="translate(366.126 -42.089)" fill="url(#linear-gradient)"/>
      <path id="Path_88" data-name="Path 88" d="M541,291.505c1.419-14.5,15.678-24.945,31.843-23.573s28.5,14.058,27.513,28.607S585.1,321.912,568.486,320.5,539.571,306,541,291.505Z" transform="translate(295.311 -46.888)" fill="url(#linear-gradient)"/>
      <path id="Path_89" data-name="Path 89" d="M534.921,289.9c1.918-14.436,16.516-24.4,32.642-22.477s28.035,15.027,26.567,29.526-16.1,24.857-32.678,22.869C544.884,317.853,533.016,304.351,534.921,289.9Z" transform="translate(224.649 -54.12)" fill="url(#linear-gradient)"/>
      <path id="Path_90" data-name="Path 90" d="M528.885,288.1c2.4-14.372,17.337-23.825,33.406-21.356s27.549,15.984,25.591,30.432c-1.945,14.423-16.939,24.275-33.443,21.735S526.5,302.463,528.885,288.1Z" transform="translate(154.202 -63.773)" fill="url(#linear-gradient)"/>
      <path id="Path_91" data-name="Path 91" d="M522.9,286.088c2.878-14.286,18.146-23.208,34.149-20.188s27.028,16.915,24.6,31.288-17.759,23.688-34.2,20.577S520.033,300.359,522.9,286.088Z" transform="translate(84.03 -75.841)" fill="url(#linear-gradient)"/>
      <path id="Path_92" data-name="Path 92" d="M516.965,283.888c3.352-14.184,18.927-22.579,34.85-19s26.488,17.834,23.592,32.122c-2.915,14.262-18.559,23.059-34.912,19.4S513.628,298.046,516.965,283.888Z" transform="translate(14.203 -90.331)" fill="url(#linear-gradient)"/>
      <path id="Path_93" data-name="Path 93" d="M591.607,303.159c-2.443-14.359,8.99-28.342,25.506-31.476s32.221,5.687,35.1,19.973-8.492,28.671-25.458,31.881S594.046,317.52,591.607,303.159Z" transform="translate(872.5 -9.347)" fill="url(#linear-gradient)"/>
      <path id="Path_94" data-name="Path 94" d="M598.041,302.982c-2.924-14.271,8.06-28.633,24.5-32.345s32.432,4.581,35.782,18.765c3.363,14.159-7.549,28.947-24.425,32.735C617.033,325.95,600.957,317.254,598.041,302.982Z" transform="translate(944.554 -24.382)" fill="url(#linear-gradient)"/>
      <path id="Path_95" data-name="Path 95" d="M604.459,302.594c-3.4-14.172,7.124-28.91,23.458-33.175s32.631,3.449,36.466,17.494-6.611,29.2-23.376,33.579S607.849,316.74,604.459,302.594Z" transform="translate(1016.197 -41.904)" fill="url(#linear-gradient)"/>
      <path id="Path_96" data-name="Path 96" d="M585.168,303.143c-1.957-14.435,9.926-28.014,26.516-30.581s31.957,6.8,34.363,21.17-9.442,28.354-26.467,30.986S587.136,317.574,585.168,303.143Z" transform="translate(800.089 3.187)" fill="url(#linear-gradient)"/>
      <path id="Path_97" data-name="Path 97" d="M578.73,302.918c-1.481-14.5,10.836-27.662,27.488-29.664s31.683,7.891,33.6,22.339-10.364,28.015-27.448,30.055C595.283,327.711,580.2,317.4,578.73,302.918Z" transform="translate(727.402 13.21)" fill="url(#linear-gradient)"/>
      <path id="Path_98" data-name="Path 98" d="M572.3,302.488c-1-14.538,11.744-27.273,28.435-28.709s31.372,8.974,32.818,23.472-11.273,27.652-28.409,29.11S573.3,317.022,572.3,302.488Z" transform="translate(654.487 20.74)" fill="url(#linear-gradient)"/>
      <path id="Path_99" data-name="Path 99" d="M565.882,301.856c-.512-14.562,12.628-26.859,29.352-27.724s31.04,10.031,31.989,24.567-12.177,27.248-29.342,28.123S566.389,316.417,565.882,301.856Z" transform="translate(581.421 25.776)" fill="url(#linear-gradient)"/>
      <path id="Path_100" data-name="Path 100" d="M559.479,301.025c-.025-14.574,13.525-26.428,30.265-26.717s30.675,11.075,31.146,25.65-13.075,26.807-30.256,27.108S559.515,315.586,559.479,301.025Z" transform="translate(508.252 28.305)" fill="url(#linear-gradient)"/>
      <path id="Path_101" data-name="Path 101" d="M553.1,299.984c.461-14.575,14.395-25.952,31.124-25.675s30.3,12.106,30.276,26.681-13.95,26.356-31.126,26.079S552.639,314.534,553.1,299.984Z" transform="translate(435.06 28.339)" fill="url(#linear-gradient)"/>
      <path id="Path_102" data-name="Path 102" d="M546.748,298.742c.949-14.55,15.259-25.448,31.989-24.6s29.878,13.138,29.383,27.7-14.835,25.875-32,25C558.953,325.977,545.816,313.278,546.748,298.742Z" transform="translate(361.889 25.869)" fill="url(#linear-gradient)"/>
      <path id="Path_103" data-name="Path 103" d="M540.427,297.288c1.433-14.5,16.1-24.907,32.788-23.5s29.443,14.146,28.461,28.683-15.682,25.36-32.818,23.9S539.011,311.787,540.427,297.288Z" transform="translate(288.821 20.904)" fill="url(#linear-gradient)"/>
      <path id="Path_104" data-name="Path 104" d="M534.148,295.623c1.907-14.435,16.937-24.339,33.58-22.352s28.979,15.14,27.512,29.627-16.527,24.807-33.613,22.768S532.25,310.073,534.148,295.623Z" transform="translate(215.915 13.443)" fill="url(#linear-gradient)"/>
      <path id="Path_105" data-name="Path 105" d="M527.919,293.772c2.388-14.372,17.746-23.749,34.348-21.193s28.482,16.128,26.524,30.557S571.43,327.366,554.4,324.729C537.371,322.126,525.527,308.133,527.919,293.772Z" transform="translate(143.225 3.478)" fill="url(#linear-gradient)"/>
      <path id="Path_106" data-name="Path 106" d="M521.731,291.716c2.878-14.286,18.557-23.12,35.085-20.012s27.961,17.093,25.531,31.464-18.17,23.612-35.134,20.4S518.867,305.988,521.731,291.716Z" transform="translate(70.823 -8.989)" fill="url(#linear-gradient)"/>
      <path id="Path_107" data-name="Path 107" d="M515.6,289.455c3.332-14.171,19.34-22.476,35.769-18.793s27.437,18.047,24.525,32.321-18.969,22.981-35.843,19.193S512.255,303.625,515.6,289.455Z" transform="translate(-1.226 -23.958)" fill="url(#linear-gradient)"/>
      <path id="Path_108" data-name="Path 108" d="M509.53,286.982c3.824-14.059,20.114-21.786,36.454-17.531s26.865,18.981,23.48,33.15-19.764,22.313-36.521,17.947C516.169,316.179,505.719,301.027,509.53,286.982Z" transform="translate(-72.867 -41.42)" fill="url(#linear-gradient)"/>
      <path id="Path_109" data-name="Path 109" d="M592.609,309.146c-2.451-14.362,9.418-28.419,26.443-31.653s33.152,5.513,36.031,19.8-8.918,28.745-26.391,32.055C611.216,332.68,595.051,323.506,592.609,309.146Z" transform="translate(884.065 57.49)" fill="url(#linear-gradient)"/>
      <path id="Path_110" data-name="Path 110" d="M599.234,308.962c-2.932-14.271,8.48-28.721,25.419-32.545s33.366,4.366,36.728,18.539S653.4,324,636.023,327.917,602.141,323.224,599.234,308.962Z" transform="translate(958.358 41.984)" fill="url(#linear-gradient)"/>
      <path id="Path_111" data-name="Path 111" d="M605.843,308.579c-3.4-14.159,7.537-29,24.375-33.414,16.837-4.4,33.552,3.208,37.388,17.254s-7.024,29.312-24.3,33.829S609.229,322.736,605.843,308.579Z" transform="translate(1032.226 23.898)" fill="url(#linear-gradient)"/>
      <path id="Path_112" data-name="Path 112" d="M612.434,307.991c-3.865-14.034,6.591-29.25,23.317-34.247s33.712,2.026,38.011,15.933-6.063,29.55-23.227,34.673C633.4,329.473,616.308,322.023,612.434,307.991Z" transform="translate(1105.606 3.23)" fill="url(#linear-gradient)"/>
      <path id="Path_113" data-name="Path 113" d="M585.975,309.12c-1.955-14.435,10.35-28.079,27.457-30.734s32.9,6.646,35.3,21.018-9.848,28.43-27.4,31.138S587.942,323.543,585.975,309.12Z" transform="translate(809.409 70.414)" fill="url(#linear-gradient)"/>
      <path id="Path_114" data-name="Path 114" d="M579.345,308.879c-1.479-14.5,11.26-27.713,28.423-29.777s32.63,7.777,34.549,22.213-10.774,28.077-28.39,30.193S580.831,323.363,579.345,308.879Z" transform="translate(734.474 80.763)" fill="url(#linear-gradient)"/>
      <path id="Path_115" data-name="Path 115" d="M572.718,308.423c-.994-14.55,12.17-27.312,29.38-28.783s32.322,8.872,33.768,23.369-11.694,27.69-29.359,29.2S573.716,322.951,572.718,308.423Z" transform="translate(659.299 88.54)" fill="url(#linear-gradient)"/>
      <path id="Path_116" data-name="Path 116" d="M566.1,307.764C565.59,293.19,579.166,280.88,596.418,280s31.989,9.969,32.94,24.5-12.6,27.286-30.288,28.191S566.611,322.311,566.1,307.764Z" transform="translate(583.965 93.734)" fill="url(#linear-gradient)"/>
      <path id="Path_117" data-name="Path 117" d="M559.5,306.91c-.025-14.574,13.95-26.415,31.213-26.732,17.262-.289,31.621,11.063,32.093,25.626s-13.483,26.832-31.2,27.133S559.529,321.473,559.5,306.91Z" transform="translate(508.538 96.336)" fill="url(#linear-gradient)"/>
      <path id="Path_118" data-name="Path 118" d="M552.927,305.831c.461-14.562,14.821-25.927,32.083-25.65s31.248,12.129,31.236,26.693-14.384,26.367-32.094,26.064S552.479,320.392,552.927,305.831Z" transform="translate(433.078 96.37)" fill="url(#linear-gradient)"/>
      <path id="Path_119" data-name="Path 119" d="M546.379,304.547c.933-14.535,15.68-25.408,32.922-24.542s30.826,13.178,30.327,27.74S594.384,333.6,576.7,332.7,545.434,319.085,546.379,304.547Z" transform="translate(357.663 93.828)" fill="url(#linear-gradient)"/>
      <path id="Path_120" data-name="Path 120" d="M539.86,303.063c1.434-14.511,16.528-24.87,33.741-23.412s30.389,14.223,29.406,28.759-16.1,25.324-33.767,23.825S538.441,317.562,539.86,303.063Z" transform="translate(282.332 88.706)" fill="url(#linear-gradient)"/>
      <path id="Path_121" data-name="Path 121" d="M533.387,301.369c1.9-14.448,17.346-24.291,34.521-22.252s29.916,15.255,28.445,29.752-16.949,24.757-34.56,22.659S531.469,315.8,533.387,301.369Z" transform="translate(207.178 80.998)" fill="url(#linear-gradient)"/>
      <path id="Path_122" data-name="Path 122" d="M526.951,299.451c2.391-14.372,18.17-23.674,35.284-21.043s29.43,16.261,27.474,30.7-17.784,24.165-35.332,21.472S524.559,313.824,526.951,299.451Z" transform="translate(132.249 70.721)" fill="url(#linear-gradient)"/>
      <path id="Path_123" data-name="Path 123" d="M520.569,297.347c2.867-14.283,18.969-23.043,36.006-19.833s28.923,17.266,26.479,31.626-18.593,23.549-36.069,20.237C529.511,326.1,517.689,311.621,520.569,297.347Z" transform="translate(57.614 57.859)" fill="url(#linear-gradient)"/>
      <path id="Path_124" data-name="Path 124" d="M514.235,295.012c3.351-14.171,19.765-22.364,36.715-18.563s28.361,18.248,25.444,32.522-19.377,22.893-36.766,18.979C522.246,324.06,510.9,309.184,514.235,295.012Z" transform="translate(-16.657 42.423)" fill="url(#linear-gradient)"/>
      <path id="Path_125" data-name="Path 125" d="M507.969,292.493c3.823-14.056,20.526-21.672,37.376-17.293s27.785,19.219,24.4,33.39S549.583,330.8,532.3,326.3,504.156,306.534,507.969,292.493Z" transform="translate(-90.498 24.403)" fill="url(#linear-gradient)"/>
      <path id="Path_126" data-name="Path 126" d="M501.769,289.75c4.284-13.907,21.273-20.942,38-15.97s27.2,20.186,23.338,34.232-20.935,21.5-38.087,16.386S497.485,303.66,501.769,289.75Z" transform="translate(-163.844 3.8)" fill="url(#linear-gradient)"/>
      <path id="Path_127" data-name="Path 127" d="M593.606,315.127c-2.44-14.362,9.838-28.494,27.386-31.83s34.087,5.323,36.976,19.608-9.339,28.847-27.338,32.255S596.047,329.492,593.606,315.127Z" transform="translate(895.62 124.325)" fill="url(#linear-gradient)"/>
      <path id="Path_128" data-name="Path 128" d="M600.42,314.949c-2.911-14.272,8.906-28.809,26.368-32.746s34.3,4.152,37.649,18.323-8.4,29.148-26.292,33.175S603.348,329.208,600.42,314.949Z" transform="translate(972.152 108.346)" fill="url(#linear-gradient)"/>
      <path id="Path_129" data-name="Path 129" d="M607.224,314.576c-3.4-14.172,7.957-29.111,25.307-33.653s34.484,2.958,38.31,17-7.436,29.424-25.22,34.081S610.625,328.735,607.224,314.576Z" transform="translate(1048.245 89.702)" fill="url(#linear-gradient)"/>
      <path id="Path_130" data-name="Path 130" d="M614,313.981c-3.872-14.032,7.015-29.362,24.237-34.521,17.226-5.136,34.626,1.75,38.932,15.669,4.3,13.894-6.488,29.664-24.15,34.938S617.878,328.015,614,313.981Z" transform="translate(1123.841 68.398)" fill="url(#linear-gradient)"/>
      <path id="Path_131" data-name="Path 131" d="M620.756,313.173c-4.336-13.894,6.051-29.6,23.14-35.353s34.746.533,39.517,14.284-5.518,29.889-23.028,35.779S625.088,327.065,620.756,313.173Z" transform="translate(1198.865 44.438)" fill="url(#linear-gradient)"/>
      <path id="Path_132" data-name="Path 132" d="M586.786,315.079c-1.97-14.436,10.759-28.123,28.382-30.86s33.84,6.494,36.243,20.866-10.263,28.493-28.334,31.288S588.738,329.515,586.786,315.079Z" transform="translate(818.735 137.653)" fill="url(#linear-gradient)"/>
      <path id="Path_133" data-name="Path 133" d="M579.957,314.816c-1.466-14.486,11.694-27.74,29.38-29.867s33.564,7.639,35.5,22.088-11.212,28.123-29.344,30.305S581.438,329.315,579.957,314.816Z" transform="translate(741.534 148.325)" fill="url(#linear-gradient)"/>
      <path id="Path_134" data-name="Path 134" d="M573.138,314.359c-1-14.548,12.594-27.334,30.328-28.858s33.267,8.785,34.709,23.282-12.12,27.74-30.3,29.287S574.132,328.885,573.138,314.359Z" transform="translate(664.111 156.333)" fill="url(#linear-gradient)"/>
      <path id="Path_135" data-name="Path 135" d="M566.325,313.682c-.512-14.563,13.49-26.9,31.248-27.814s32.942,9.917,33.9,24.453-13.027,27.31-31.236,28.242S566.829,328.23,566.325,313.682Z" transform="translate(586.518 161.679)" fill="url(#linear-gradient)"/>
      <path id="Path_136" data-name="Path 136" d="M559.529,312.785c-.024-14.574,14.374-26.419,32.158-26.732s32.582,11.024,33.055,25.6c.474,14.55-13.926,26.847-32.159,27.16S559.566,327.346,559.529,312.785Z" transform="translate(508.824 164.377)" fill="url(#linear-gradient)"/>
      <path id="Path_137" data-name="Path 137" d="M552.755,311.68c.462-14.574,15.247-25.914,33.031-25.624s32.2,12.12,32.182,26.693-14.807,26.368-33.04,26.064S552.294,326.236,552.755,311.68Z" transform="translate(431.109 164.412)" fill="url(#linear-gradient)"/>
      <path id="Path_138" data-name="Path 138" d="M546.011,310.366c.948-14.55,16.1-25.384,33.865-24.491s31.784,13.215,31.282,27.777-15.68,25.839-33.887,24.925S545.06,324.889,546.011,310.366Z" transform="translate(353.427 161.785)" fill="url(#linear-gradient)"/>
      <path id="Path_139" data-name="Path 139" d="M539.294,308.833c1.419-14.5,16.937-24.818,34.685-23.325s31.334,14.3,30.351,28.838-16.539,25.3-34.722,23.75S537.861,323.332,539.294,308.833Z" transform="translate(275.849 156.497)" fill="url(#linear-gradient)"/>
      <path id="Path_140" data-name="Path 140" d="M532.615,307.09c1.917-14.448,17.784-24.226,35.47-22.126s30.873,15.356,29.406,29.856-17.375,24.718-35.509,22.553S530.71,321.527,532.615,307.09Z" transform="translate(198.435 148.561)" fill="url(#linear-gradient)"/>
      <path id="Path_141" data-name="Path 141" d="M525.983,305.138c2.391-14.387,18.6-23.612,36.219-20.9s30.363,16.394,28.421,30.846c-1.942,14.424-18.211,24.1-36.279,21.326S523.593,319.5,525.983,305.138Z" transform="translate(121.272 137.961)" fill="url(#linear-gradient)"/>
      <path id="Path_142" data-name="Path 142" d="M519.4,302.964c2.866-14.284,19.393-22.956,36.942-19.633s29.856,17.43,27.413,31.79-19.007,23.473-37,20.074S516.528,317.236,519.4,302.964Z" transform="translate(44.406 124.71)" fill="url(#linear-gradient)"/>
      <path id="Path_143" data-name="Path 143" d="M512.872,300.6c3.349-14.184,20.177-22.276,37.637-18.363S579.8,300.684,576.9,314.956s-19.814,22.819-37.709,18.793S509.536,314.755,512.872,300.6Z" transform="translate(-32.084 108.792)" fill="url(#linear-gradient)"/>
      <path id="Path_144" data-name="Path 144" d="M506.409,298c3.823-14.059,20.935-21.562,38.3-17.042s28.722,19.46,25.334,33.627-20.586,22.1-38.373,17.47S502.6,312.044,506.409,298Z" transform="translate(-108.129 90.22)" fill="url(#linear-gradient)"/>
      <path id="Path_145" data-name="Path 145" d="M500.01,295.195c4.3-13.907,21.682-20.817,38.92-15.693s28.123,20.449,24.258,34.5-21.349,21.383-39.009,16.128S495.726,309.1,500.01,295.195Z" transform="translate(-183.671 68.985)" fill="url(#linear-gradient)"/>
      <path id="Path_146" data-name="Path 146" d="M492.971,291.829c4.806-13.743,22.492-19.961,39.567-14.159s27.424,21.547,23.04,35.429-22.168,20.539-39.667,14.587S488.162,305.56,492.971,291.829Z" transform="translate(-267.149 42.197)" fill="url(#linear-gradient)"/>
      <path id="Path_147" data-name="Path 147" d="M594.608,321.107c-2.443-14.374,10.263-28.569,28.333-31.989s35.01,5.134,37.9,19.418-9.749,28.923-28.257,32.434S597.046,335.453,594.608,321.107Z" transform="translate(907.187 191.168)" fill="url(#linear-gradient)"/>
      <path id="Path_148" data-name="Path 148" d="M601.615,320.947c-2.926-14.274,9.317-28.9,27.29-32.962,17.984-4.04,35.233,3.939,38.584,18.111s-8.8,29.247-27.213,33.388S604.538,335.206,601.615,320.947Z" transform="translate(985.953 174.702)" fill="url(#linear-gradient)"/>
      <path id="Path_149" data-name="Path 149" d="M608.6,320.561c-3.4-14.158,8.384-29.211,26.244-33.88s35.393,2.706,39.229,16.751-7.845,29.552-26.141,34.333S612.005,334.72,608.6,320.561Z" transform="translate(1064.264 155.505)" fill="url(#linear-gradient)"/>
      <path id="Path_150" data-name="Path 150" d="M615.575,319.976c-3.875-14.034,7.411-29.488,25.158-34.788s35.546,1.459,39.845,15.379c4.3,13.894-6.891,29.8-25.058,35.226S619.435,334.008,615.575,319.976Z" transform="translate(1142.072 133.562)" fill="url(#linear-gradient)"/>
      <path id="Path_151" data-name="Path 151" d="M622.511,319.166c-4.333-13.907,6.466-29.739,24.05-35.655s35.67.213,40.442,13.97-5.927,30.029-23.954,36.1S626.847,333.055,622.511,319.166Z" transform="translate(1219.29 108.893)" fill="url(#linear-gradient)"/>
      <path id="Path_152" data-name="Path 152" d="M630.539,317.958c-4.87-13.716,5.339-29.989,22.741-36.635s35.754-1.26,41.062,12.3-4.8,30.281-22.613,37.076S635.423,331.658,630.539,317.958Z" transform="translate(1308.282 76.735)" fill="url(#linear-gradient)"/>
      <path id="Path_153" data-name="Path 153" d="M587.594,321.057c-1.969-14.436,11.185-28.191,29.323-31.012,18.159-2.8,34.788,6.343,37.187,20.715s-10.7,28.57-29.28,31.456S589.548,335.48,587.594,321.057Z" transform="translate(828.052 204.887)" fill="url(#linear-gradient)"/>
      <path id="Path_154" data-name="Path 154" d="M580.573,320.777c-1.482-14.5,12.105-27.79,30.315-29.979s34.521,7.525,36.442,21.975-11.621,28.191-30.279,30.419S582.056,335.262,580.573,320.777Z" transform="translate(748.604 215.876)" fill="url(#linear-gradient)"/>
      <path id="Path_155" data-name="Path 155" d="M573.556,320.3c-1-14.55,13.015-27.374,31.273-28.935s34.212,8.7,35.657,23.208c1.433,14.487-12.54,27.765-31.248,29.362S574.552,334.818,573.556,320.3Z" transform="translate(668.923 224.124)" fill="url(#linear-gradient)"/>
      <path id="Path_156" data-name="Path 156" d="M566.548,319.589c-.51-14.574,13.9-26.907,32.194-27.857s33.889,9.854,34.849,24.4c.948,14.528-13.453,27.324-32.194,28.293S567.059,334.139,566.548,319.589Z" transform="translate(589.074 229.635)" fill="url(#linear-gradient)"/>
      <path id="Path_157" data-name="Path 157" d="M559.555,318.669c-.037-14.574,14.783-26.416,33.09-26.744s33.528,11.012,34,25.572-14.346,26.859-33.091,27.19S559.576,333.232,559.555,318.669Z" transform="translate(509.122 232.407)" fill="url(#linear-gradient)"/>
      <path id="Path_158" data-name="Path 158" d="M552.583,317.526c.451-14.562,15.667-25.9,33.976-25.6s33.143,12.145,33.127,26.719S604.458,345,585.7,344.686,552.124,332.088,552.583,317.526Z" transform="translate(429.139 232.441)" fill="url(#linear-gradient)"/>
      <path id="Path_159" data-name="Path 159" d="M545.637,316.171c.948-14.535,16.528-25.348,34.824-24.429S613.176,305,612.683,319.558s-16.094,25.824-34.838,24.881S544.689,330.709,545.637,316.171Z" transform="translate(349.189 229.745)" fill="url(#linear-gradient)"/>
      <path id="Path_160" data-name="Path 160" d="M538.725,314.606c1.422-14.5,17.377-24.781,35.634-23.233s32.281,14.36,31.3,28.91S588.7,345.541,570,343.955,537.291,329.1,538.725,314.606Z" transform="translate(269.357 224.3)" fill="url(#linear-gradient)"/>
      <path id="Path_161" data-name="Path 161" d="M531.845,312.815c1.9-14.448,18.194-24.165,36.417-22s31.807,15.461,30.339,29.953-17.8,24.667-36.455,22.453S529.941,327.249,531.845,312.815Z" transform="translate(189.698 216.123)" fill="url(#linear-gradient)"/>
      <path id="Path_162" data-name="Path 162" d="M525.015,310.822c2.391-14.374,19.017-23.536,37.175-20.755,18.147,2.807,31.3,16.537,29.355,30.986-1.951,14.422-18.619,24.05-37.212,21.181S522.634,325.183,525.015,310.822Z" transform="translate(110.284 205.204)" fill="url(#linear-gradient)"/>
      <path id="Path_163" data-name="Path 163" d="M518.235,308.6c2.876-14.284,19.814-22.869,37.888-19.46s30.789,17.594,28.359,31.967S565.039,344.5,546.53,341,515.369,322.868,518.235,308.6Z" transform="translate(31.192 191.558)" fill="url(#linear-gradient)"/>
      <path id="Path_164" data-name="Path 164" d="M511.514,306.156c3.351-14.184,20.586-22.163,38.572-18.135s30.228,18.652,27.313,32.922-20.226,22.719-38.633,18.577S508.164,320.315,511.514,306.156Z" transform="translate(-47.512 175.17)" fill="url(#linear-gradient)"/>
      <path id="Path_165" data-name="Path 165" d="M504.852,303.508c3.809-14.047,21.346-21.447,39.22-16.794s29.64,19.7,26.265,33.868c-3.387,14.146-21.011,22-39.306,17.23S501.025,317.547,504.852,303.508Z" transform="translate(-125.765 156.035)" fill="url(#linear-gradient)"/>
      <path id="Path_166" data-name="Path 166" d="M498.259,300.643c4.285-13.919,22.095-20.691,39.831-15.417s29.043,20.715,25.182,34.762-21.758,21.269-39.929,15.861S493.963,314.551,498.259,300.643Z" transform="translate(-203.49 134.168)" fill="url(#linear-gradient)"/>
      <path id="Path_167" data-name="Path 167" d="M491,297.192c4.806-13.745,22.891-19.81,40.476-13.843s28.334,21.848,23.949,35.73-22.58,20.4-40.587,14.283S486.187,310.923,491,297.192Z" transform="translate(-289.388 106.583)" fill="url(#linear-gradient)"/>
      <path id="Path_168" data-name="Path 168" d="M483.631,293.361c5.344-13.542,23.7-18.865,41.1-12.182s27.574,22.993,22.659,36.688-23.4,19.481-41.211,12.634S478.3,306.9,483.631,293.361Z" transform="translate(-376.899 74.644)" fill="url(#linear-gradient)"/>
      <path id="Path_169" data-name="Path 169" d="M595.609,327.082c-2.44-14.362,10.686-28.619,29.267-32.157s35.958,4.958,38.834,19.243-10.176,29-29.19,32.61S598.049,341.442,595.609,327.082Z" transform="translate(918.753 258.001)" fill="url(#linear-gradient)"/>
      <path id="Path_170" data-name="Path 170" d="M602.8,326.931c-2.924-14.271,9.73-28.983,28.222-33.15s36.157,3.712,39.519,17.883-9.231,29.35-28.147,33.616S605.725,341.2,602.8,326.931Z" transform="translate(999.754 241.059)" fill="url(#linear-gradient)"/>
      <path id="Path_171" data-name="Path 171" d="M609.988,326.561c-3.4-14.171,8.8-29.312,27.165-34.121s36.33,2.454,40.155,16.5-8.264,29.652-27.078,34.572S613.376,340.708,609.988,326.561Z" transform="translate(1080.293 221.305)" fill="url(#linear-gradient)"/>
      <path id="Path_172" data-name="Path 172" d="M617.145,325.971c-3.873-14.044,7.835-29.6,26.067-35.062,18.244-5.437,36.479,1.182,40.778,15.1,4.3,13.894-7.312,29.941-25.983,35.5S621.02,340,617.145,325.971Z" transform="translate(1160.304 198.723)" fill="url(#linear-gradient)"/>
      <path id="Path_173" data-name="Path 173" d="M624.267,325.149c-4.332-13.894,6.876-29.866,24.974-35.957s36.578-.1,41.336,13.655-6.326,30.192-24.846,36.41C647.2,345.5,628.619,339.043,624.267,325.149Z" transform="translate(1239.714 173.33)" fill="url(#linear-gradient)"/>
      <path id="Path_174" data-name="Path 174" d="M631.361,324.126c-4.806-13.743,5.906-30.105,23.84-36.839s36.639-1.4,41.872,12.184-5.357,30.405-23.713,37.29S636.17,337.854,631.361,324.126Z" transform="translate(1318.455 145.12)" fill="url(#linear-gradient)"/>
      <path id="Path_175" data-name="Path 175" d="M639.557,322.638c-5.342-13.542,4.757-30.332,22.48-37.808s36.692-2.919,42.458,10.435-4.209,30.62-22.355,38.26S644.9,336.169,639.557,322.638Z" transform="translate(1409.114 108.758)" fill="url(#linear-gradient)"/>
      <path id="Path_176" data-name="Path 176" d="M588.4,327.019c-1.971-14.438,11.607-28.242,30.275-31.138s35.721,6.194,38.12,20.565-11.108,28.646-30.227,31.589S590.372,341.455,588.4,327.019Z" transform="translate(837.372 272.123)" fill="url(#linear-gradient)"/>
      <path id="Path_177" data-name="Path 177" d="M581.187,326.74c-1.483-14.5,12.529-27.84,31.262-30.092s35.454,7.413,37.376,21.848-12.044,28.257-31.212,30.545S582.668,341.225,581.187,326.74Z" transform="translate(755.673 283.425)" fill="url(#linear-gradient)"/>
      <path id="Path_178" data-name="Path 178" d="M573.974,326.229c-1-14.548,13.439-27.4,32.223-29.01s35.156,8.621,36.59,23.12S629.821,348.152,610.6,349.8,574.971,340.767,573.974,326.229Z" transform="translate(673.736 291.914)" fill="url(#linear-gradient)"/>
      <path id="Path_179" data-name="Path 179" d="M566.77,325.507c-.513-14.573,14.335-26.933,33.154-27.9s34.834,9.8,35.794,24.353-13.875,27.361-33.143,28.342S567.282,340.069,566.77,325.507Z" transform="translate(591.616 297.583)" fill="url(#linear-gradient)"/>
      <path id="Path_180" data-name="Path 180" d="M559.58,324.554c-.021-14.574,15.221-26.416,34.051-26.757s34.474,10.987,34.948,25.548-14.768,26.883-34.049,27.209S559.607,339.122,559.58,324.554Z" transform="translate(509.409 300.437)" fill="url(#linear-gradient)"/>
      <path id="Path_181" data-name="Path 181" d="M552.409,323.386c.458-14.562,16.09-25.888,34.936-25.591s34.088,12.157,34.073,26.732-15.657,26.355-34.936,26.027S551.962,337.949,552.409,323.386Z" transform="translate(427.157 300.471)" fill="url(#linear-gradient)"/>
      <path id="Path_182" data-name="Path 182" d="M545.265,322.006c.945-14.551,16.949-25.336,35.769-24.391,18.819.968,33.675,13.3,33.179,27.876-.5,14.549-16.528,25.8-35.782,24.831S544.329,336.534,545.265,322.006Z" transform="translate(344.953 297.692)" fill="url(#linear-gradient)"/>
      <path id="Path_183" data-name="Path 183" d="M538.153,320.378c1.427-14.5,17.8-24.734,36.576-23.144s33.23,14.436,32.246,28.971S589.6,351.44,570.372,349.8,536.734,334.878,538.153,320.378Z" transform="translate(262.865 292.103)" fill="url(#linear-gradient)"/>
      <path id="Path_184" data-name="Path 184" d="M531.082,318.545c1.9-14.45,18.619-24.114,37.351-21.886s32.756,15.555,31.288,30.053-18.222,24.63-37.4,22.339S529.165,332.987,531.082,318.545Z" transform="translate(180.962 283.684)" fill="url(#linear-gradient)"/>
      <path id="Path_185" data-name="Path 185" d="M524.051,316.494c2.391-14.374,19.44-23.458,38.108-20.59s32.247,16.661,30.3,31.11-19.043,24-38.16,21.059S521.659,330.862,524.051,316.494Z" transform="translate(99.304 272.452)" fill="url(#linear-gradient)"/>
      <path id="Path_186" data-name="Path 186" d="M517.071,314.22c2.866-14.272,20.226-22.78,38.82-19.268s31.722,17.77,29.294,32.143c-2.429,14.348-19.852,23.325-38.882,19.726S514.207,328.5,517.071,314.22Z" transform="translate(17.982 258.401)" fill="url(#linear-gradient)"/>
      <path id="Path_187" data-name="Path 187" d="M510.153,311.727c3.332-14.17,21-22.062,39.493-17.92s31.162,18.853,28.257,33.138c-2.912,14.262-20.649,22.629-39.578,18.375S506.8,325.9,510.153,311.727Z" transform="translate(-62.941 241.537)" fill="url(#linear-gradient)"/>
      <path id="Path_188" data-name="Path 188" d="M503.293,309.024c3.811-14.058,21.772-21.326,40.143-16.55s30.575,19.924,27.19,34.1-21.422,21.911-40.229,17S499.471,323.068,503.293,309.024Z" transform="translate(-143.399 221.852)" fill="url(#linear-gradient)"/>
      <path id="Path_189" data-name="Path 189" d="M496.5,306.092c4.285-13.92,22.5-20.565,40.751-15.141s29.965,20.994,26.1,35.038-22.168,21.143-40.85,15.581S492.217,320,496.5,306.092Z" transform="translate(-223.316 199.349)" fill="url(#linear-gradient)"/>
      <path id="Path_190" data-name="Path 190" d="M489.021,302.564c4.82-13.743,23.314-19.67,41.4-13.53s29.243,22.151,24.859,36.033-22.991,20.276-41.5,13.983S484.225,316.3,489.021,302.564Z" transform="translate(-311.635 170.96)" fill="url(#linear-gradient)"/>
      <path id="Path_191" data-name="Path 191" d="M482.875,299.412c5.232-13.581,23.95-18.892,41.884-12.158s28.619,23.108,23.814,36.839-23.652,19.52-42.011,12.61S477.625,312.98,482.875,299.412Z" transform="translate(-384.6 144.624)" fill="url(#linear-gradient)"/>
      <path id="Path_192" data-name="Path 192" d="M475.376,295.264c5.755-13.365,24.723-17.9,42.444-10.432s27.838,24.263,22.493,37.805-24.446,18.539-42.58,10.887S469.624,308.619,475.376,295.264Z" transform="translate(-473.749 108.762)" fill="url(#linear-gradient)"/>
    </g>
  </g>
</svg>
