<svg xmlns="http://www.w3.org/2000/svg" xmlns:xlink="http://www.w3.org/1999/xlink" width="71" height="69" viewBox="0 0 71 69">
  <defs>
    <clipPath id="clip-Plan_de_travail_23">
      <rect width="71" height="69"/>
    </clipPath>
  </defs>
  <g id="Plan_de_travail_23" data-name="Plan de travail – 23" clip-path="url(#clip-Plan_de_travail_23)">
    <g id="Groupe_454" data-name="Groupe 454" transform="translate(-1408.259 -615.769)">
      <g id="Groupe_228" data-name="Groupe 228" transform="translate(1422.259 626.879)">
        <g id="Groupe_227" data-name="Groupe 227">
          <path id="Tracé_1843" data-name="Tracé 1843" d="M1459.909,657.074c.653-.734,1.191-1.479,1.862-2.111a10.218,10.218,0,0,1,7.349-2.9,16.983,16.983,0,0,1,4.621.563,9.031,9.031,0,0,1,6.414,6.745,28.247,28.247,0,0,1,.855,7.729c.009,5.494-.016,10.987,0,16.48,0,.514-.143.649-.649.645q-4.245-.035-8.49,0c-.5,0-.606-.15-.6-.621q.024-7.84,0-15.681a14.107,14.107,0,0,0-.455-3.892A4.377,4.377,0,0,0,1466,660.62c-3.356.177-5.1,1.839-5.529,5.252a19.6,19.6,0,0,0-.15,2.452c0,5.083-.005,10.167.014,15.25,0,.507-.125.656-.643.652q-4.275-.038-8.551,0c-.457,0-.589-.12-.589-.582q.019-15.1,0-30.193c0-.5.163-.613.633-.61q4.061.03,8.121,0c.5,0,.627.157.616.629C1459.89,654.667,1459.909,655.871,1459.909,657.074Z" transform="translate(-1433.882 -637.226)" fill="#fefefe"/>
          <path id="Tracé_1844" data-name="Tracé 1844" d="M1433.3,669.114c0,4.979-.008,9.958.012,14.937,0,.554-.135.721-.708.715-2.829-.031-5.658-.024-8.487,0-.454,0-.59-.11-.589-.578q.02-15.122,0-30.243c0-.417.1-.566.544-.563,2.87.019,5.74.024,8.609,0,.551-.005.626.209.625.681Q1433.29,661.584,1433.3,669.114Z" transform="translate(-1422.781 -637.765)" fill="#fefefe"/>
          <path id="Tracé_1845" data-name="Tracé 1845" d="M1433.56,632.5a5.651,5.651,0,1,1-5.641-5.621A5.67,5.67,0,0,1,1433.56,632.5Z" transform="translate(-1422.259 -626.879)" fill="#fefefe"/>
        </g>
      </g>
    </g>
  </g>
</svg>
