<svg xmlns="http://www.w3.org/2000/svg" xmlns:xlink="http://www.w3.org/1999/xlink" width="292" height="134" viewBox="0 0 292 134">
  <defs>
    <clipPath id="clip-Plan_de_travail_2">
      <rect width="292" height="134"/>
    </clipPath>
  </defs>
  <g id="Plan_de_travail_2" data-name="Plan de travail – 2" clip-path="url(#clip-Plan_de_travail_2)">
    <rect width="292" height="134" fill="#fff"/>
    <g id="Groupe_408" data-name="Groupe 408" transform="translate(701.763 -249.449)">
      <g id="Group_28799" data-name="Group 28799" transform="translate(-684.708 306.966)">
        <g id="Group_28798" data-name="Group 28798" transform="translate(0 0)">
          <path id="Path_46" data-name="Path 46" d="M510.471,318.33c0,.274-.547.547-.821.547-.068,0-.136-.068-.2-.138l-3.012-6.914a2.1,2.1,0,0,0-1.368-1.368,50,50,0,0,0-8.35-1.095c-.2,4.037-.479,15.6-.615,19.234-.068,3.832-.274,16.631-.274,19.377,0,.683.274.821.753.889l3.422.617c.2,0,.342.409.342.821,0,.136,0,.2-.2.2-1.506-.07-5.27-.138-9.239-.138-3.628,0-6.982.068-8.488.138-.2,0-.2-.07-.2-.138,0-.342.136-.889.342-.889l3.49-.685c.479-.068.547-.274.547-.959.07-2.739-.2-16.289-.274-19.507,0-2.737-.274-15.468-.342-18.958a56.577,56.577,0,0,0-8.213,1.027,2.383,2.383,0,0,0-1.506,1.436l-3.148,6.844c-.068.138-.136.2-.274.2-.2,0-.823-.344-.823-.547l.685-10.06a.432.432,0,0,1,.478-.479c.549,0,1.848.068,4.655.2,2.875.068,7.192.2,13.62.2,6.229,0,10.54-.068,13.414-.2,2.875-.07,4.311-.138,4.794-.138.274,0,.409.138.409.479Z" transform="translate(-472.02 -307.782)" fill="#081d82"/>
          <path id="Path_47" data-name="Path 47" d="M535.627,308.135c2.4,0,4.243.068,5.749.136a.713.713,0,0,1,.547.274c2.2,7.391,9.239,31,11.986,39.422a1.44,1.44,0,0,0,.891.889l2.533.685c.2.068.344.409.344.889,0,.068-.07.138-.2.138-1.438,0-4.723-.138-8.145-.138-3.832,0-7.527.068-9.377.138-.2,0-.2-.07-.2-.138,0-.412.2-.889.411-.959l3.7-.615c.547-.068.615-.547.479-1.095-.753-2.259-3.286-8.83-4.037-11.157-3.08.07-11.019.274-14.583.547-.2,0-.411.2-.479.547-.412,1.984-1.712,7.529-2.122,9.988-.07.821.2,1.027.685,1.165l3.56.685c.2,0,.41.477.41.889,0,.138-.07.138-.2.138-1.71-.07-4.449-.138-7.192-.138-2.327,0-4.379.068-5.749.138-.136,0-.136-.07-.136-.2,0-.2.136-.821.342-.889l1.71-.547c.547-.136.891-.41,1.232-1.233,3.354-8.212,10.472-29.226,13.552-37.574.615-1.642,1.5-1.984,4.243-1.984Zm-3.7,5.406a23.7,23.7,0,0,0-.685,2.327c-1.712,5.681-3.9,13.62-5.194,18.343a.373.373,0,0,0,.342.479,128.065,128.065,0,0,0,13.415.615c-1.163-3.284-4.723-13.209-6.57-19.378-.2-.615-.479-1.436-.889-2.4Z" transform="translate(-481.163 -307.853)" fill="#081d82"/>
          <path id="Path_48" data-name="Path 48" d="M586.181,347.32c.2-.753.479-1.506.685-2.2,2.463-9.036,6.229-23.409,8.418-32.99.412-1.984.683-2.122,4.595-2.463a19.536,19.536,0,0,1,2.465-.2.6.6,0,0,1,.615.479c2.257,8.418,6.3,26.349,8.418,35.591a15.725,15.725,0,0,0,.615,1.916h.342c.2-.547.412-1.436.547-1.984,1.986-8.556,4.928-23.613,6.432-34.29q.1-1.13-.615-1.233l-3.216-.479c-.274-.068-.411-.615-.411-.959,0-.138,0-.2.136-.2h13.141a.182.182,0,0,1,.2.2c0,.342-.138.821-.341.889l-1.506.479a1.52,1.52,0,0,0-1.233,1.233c-1.916,6.708-9.445,31.21-11.986,37.642-.479,1.506-.889,1.644-6.023,1.78h-2.737a.732.732,0,0,1-.615-.479c-2.121-6.774-5.194-16.015-6.776-22.174-.274-.889-.615-2.463-1.027-3.9h-.411c-.412,1.506-.959,3.286-1.368,4.595-1.506,4.449-5.134,15.262-7.256,20.258-.615,1.436-.959,1.574-6.912,1.71h-2.122c-.344,0-.479-.136-.615-.547-1.986-6.706-6.776-27.368-9.447-39.286-.136-.479-.342-.821-.821-.889l-1.78-.342c-.2-.068-.411-.615-.411-.959a.182.182,0,0,1,.2-.2h18.684c.2,0,.2.068.2.274,0,.274-.2.821-.477.889l-3.422.479a.835.835,0,0,0-.683,1.027c1.095,7.391,3.969,24.845,5.612,34.016.138.547.342,1.506.479,2.327Z" transform="translate(-492.089 -307.889)" fill="#081d82"/>
        </g>
      </g>
      <g id="Group_28800" data-name="Group 28800" transform="translate(-683.359 261.711)">
        <path id="Path_49" data-name="Path 49" d="M589.408,262.257a1.838,1.838,0,1,1,2.1,1.291,1.752,1.752,0,0,1-2.1-1.29Z" transform="translate(-498.666 -252.443)" fill="#e3a437"/>
        <path id="Path_50" data-name="Path 50" d="M583.446,263.208a1.834,1.834,0,1,1,2.055,1.36A1.752,1.752,0,0,1,583.446,263.208Z" transform="translate(-497.381 -252.66)" fill="#e3a437"/>
        <path id="Path_51" data-name="Path 51" d="M577.464,263.958a1.832,1.832,0,1,1,2,1.43,1.75,1.75,0,0,1-2-1.43Z" transform="translate(-496.091 -252.833)" fill="#e3a437"/>
        <path id="Path_52" data-name="Path 52" d="M571.465,264.507a1.832,1.832,0,1,1,1.956,1.5,1.75,1.75,0,0,1-1.956-1.5Z" transform="translate(-494.799 -252.966)" fill="#e3a437"/>
        <path id="Path_53" data-name="Path 53" d="M565.454,264.852a1.83,1.83,0,1,1,1.9,1.562,1.748,1.748,0,0,1-1.9-1.562Z" transform="translate(-493.502 -253.052)" fill="#e3a437"/>
        <path id="Path_54" data-name="Path 54" d="M559.438,265a1.83,1.83,0,1,1,1.848,1.626A1.748,1.748,0,0,1,559.438,265Z" transform="translate(-492.203 -253.097)" fill="#e3a437"/>
        <path id="Path_55" data-name="Path 55" d="M553.416,264.753a1.83,1.83,0,1,1,1.794,1.681,1.832,1.832,0,0,1-1.794-1.681Z" transform="translate(-490.902 -252.913)" fill="#e3a437"/>
        <path id="Path_56" data-name="Path 56" d="M547.407,264.676a1.83,1.83,0,1,1,1.736,1.746,1.732,1.732,0,0,1-1.736-1.746Z" transform="translate(-489.607 -253.055)" fill="#e3a437"/>
        <path id="Path_57" data-name="Path 57" d="M541.4,264.025a1.83,1.83,0,1,1,1.677,1.808A1.834,1.834,0,0,1,541.4,264.025Z" transform="translate(-488.313 -252.78)" fill="#e3a437"/>
        <path id="Path_58" data-name="Path 58" d="M535.415,263.547a1.832,1.832,0,1,1,1.618,1.86,1.75,1.75,0,0,1-1.618-1.86Z" transform="translate(-487.02 -252.837)" fill="#e3a437"/>
        <path id="Path_59" data-name="Path 59" d="M529.444,262.491A1.834,1.834,0,1,1,531,264.408a1.838,1.838,0,0,1-1.555-1.917Z" transform="translate(-485.729 -252.475)" fill="#e3a437"/>
        <path id="Path_60" data-name="Path 60" d="M523.5,261.427A1.838,1.838,0,1,1,525,263.391,1.84,1.84,0,0,1,523.5,261.427Z" transform="translate(-484.442 -252.263)" fill="#e3a437"/>
        <path id="Path_61" data-name="Path 61" d="M582.62,257.329a1.77,1.77,0,1,1,2,1.37,1.7,1.7,0,0,1-2-1.37Z" transform="translate(-497.203 -251.346)" fill="#e3a437"/>
        <path id="Path_62" data-name="Path 62" d="M576.826,257.929a1.768,1.768,0,1,1,1.947,1.434,1.77,1.77,0,0,1-1.947-1.434Z" transform="translate(-495.938 -251.389)" fill="#e3a437"/>
        <path id="Path_63" data-name="Path 63" d="M571.03,258.458a1.766,1.766,0,1,1,1.9,1.5A1.768,1.768,0,0,1,571.03,258.458Z" transform="translate(-494.691 -251.516)" fill="#e3a437"/>
        <path id="Path_64" data-name="Path 64" d="M565.221,258.807a1.766,1.766,0,1,1,1.844,1.561A1.766,1.766,0,0,1,565.221,258.807Z" transform="translate(-493.443 -251.613)" fill="#e3a437"/>
        <path id="Path_65" data-name="Path 65" d="M559.409,259.056a1.764,1.764,0,1,1,1.8,1.626A1.714,1.714,0,0,1,559.409,259.056Z" transform="translate(-492.194 -251.766)" fill="#e3a437"/>
        <path id="Path_66" data-name="Path 66" d="M553.589,258.882a1.764,1.764,0,1,1,1.734,1.695,1.766,1.766,0,0,1-1.734-1.695Z" transform="translate(-490.939 -251.65)" fill="#e3a437"/>
        <path id="Path_67" data-name="Path 67" d="M547.775,258.747a1.764,1.764,0,1,1,1.676,1.742A1.714,1.714,0,0,1,547.775,258.747Z" transform="translate(-489.685 -251.725)" fill="#e3a437"/>
        <path id="Path_68" data-name="Path 68" d="M541.97,258.3a1.766,1.766,0,1,1,1.618,1.8A1.716,1.716,0,0,1,541.97,258.3Z" transform="translate(-488.435 -251.643)" fill="#e3a437"/>
        <path id="Path_69" data-name="Path 69" d="M536.177,257.533a1.768,1.768,0,1,1,1.558,1.846A1.77,1.77,0,0,1,536.177,257.533Z" transform="translate(-487.183 -251.392)" fill="#e3a437"/>
        <path id="Path_70" data-name="Path 70" d="M530.407,256.82a1.77,1.77,0,1,1,1.5,1.9,1.7,1.7,0,0,1-1.5-1.9Z" transform="translate(-485.943 -251.35)" fill="#e3a437"/>
        <path id="Path_71" data-name="Path 71" d="M576.217,252.153A1.706,1.706,0,1,1,578.1,253.6,1.684,1.684,0,0,1,576.217,252.153Z" transform="translate(-495.814 -250.197)" fill="#e3a437"/>
        <path id="Path_72" data-name="Path 72" d="M570.613,252.64a1.7,1.7,0,1,1,1.842,1.554,1.7,1.7,0,0,1-1.842-1.554Z" transform="translate(-494.604 -250.294)" fill="#e3a437"/>
        <path id="Path_73" data-name="Path 73" d="M565,252.985a1.7,1.7,0,1,1,1.784,1.566A1.682,1.682,0,0,1,565,252.985Z" transform="translate(-493.397 -250.4)" fill="#e3a437"/>
        <path id="Path_74" data-name="Path 74" d="M559.381,253.04a1.7,1.7,0,1,1,1.725,1.561A1.7,1.7,0,0,1,559.381,253.04Z" transform="translate(-492.186 -250.36)" fill="#e3a437"/>
        <path id="Path_75" data-name="Path 75" d="M553.761,252.98a1.7,1.7,0,1,1,1.672,1.617A1.7,1.7,0,0,1,553.761,252.98Z" transform="translate(-490.977 -250.366)" fill="#e3a437"/>
        <path id="Path_76" data-name="Path 76" d="M548.144,252.741a1.7,1.7,0,1,1,1.617,1.706A1.7,1.7,0,0,1,548.144,252.741Z" transform="translate(-489.765 -250.32)" fill="#e3a437"/>
        <path id="Path_77" data-name="Path 77" d="M542.539,252.366a1.7,1.7,0,1,1,1.555,1.841A1.7,1.7,0,0,1,542.539,252.366Z" transform="translate(-488.559 -250.298)" fill="#e3a437"/>
        <path id="Path_78" data-name="Path 78" d="M536.945,251.712a1.7,1.7,0,1,1,1.493,1.893A1.706,1.706,0,0,1,536.945,251.712Z" transform="translate(-487.351 -250.143)" fill="#e3a437"/>
        <path id="Path_79" data-name="Path 79" d="M590.326,267.518a1.9,1.9,0,1,1,2.156,1.28A1.784,1.784,0,0,1,590.326,267.518Z" transform="translate(-498.871 -253.62)" fill="#e3a437"/>
        <path id="Path_80" data-name="Path 80" d="M596.438,266.333a1.9,1.9,0,1,1,2.2,1.2A1.786,1.786,0,0,1,596.438,266.333Z" transform="translate(-500.192 -253.354)" fill="#e3a437"/>
        <path id="Path_81" data-name="Path 81" d="M584.186,268.5a1.9,1.9,0,1,1,2.107,1.354A1.782,1.782,0,0,1,584.186,268.5Z" transform="translate(-497.548 -253.843)" fill="#e3a437"/>
        <path id="Path_82" data-name="Path 82" d="M578.028,269.272a1.892,1.892,0,1,1,2.06,1.424,1.782,1.782,0,0,1-2.06-1.424Z" transform="translate(-496.216 -254.019)" fill="#e3a437"/>
        <path id="Path_83" data-name="Path 83" d="M571.848,269.836a1.892,1.892,0,1,1,2.01,1.492A1.78,1.78,0,0,1,571.848,269.836Z" transform="translate(-494.886 -254.158)" fill="#e3a437"/>
        <path id="Path_84" data-name="Path 84" d="M565.644,269.948a1.89,1.89,0,1,1,1.961,1.556A1.894,1.894,0,0,1,565.644,269.948Z" transform="translate(-493.535 -254.006)" fill="#e3a437"/>
        <path id="Path_85" data-name="Path 85" d="M559.463,270.339a1.89,1.89,0,1,1,1.9,1.624,1.78,1.78,0,0,1-1.9-1.624Z" transform="translate(-492.212 -254.294)" fill="#e3a437"/>
        <path id="Path_86" data-name="Path 86" d="M553.261,270.032a1.89,1.89,0,1,1,1.848,1.685,1.894,1.894,0,0,1-1.848-1.685Z" transform="translate(-490.868 -254.048)" fill="#e3a437"/>
        <path id="Path_87" data-name="Path 87" d="M547.073,269.767a1.89,1.89,0,1,1,1.79,1.746,1.894,1.894,0,0,1-1.79-1.746Z" transform="translate(-489.535 -254.001)" fill="#e3a437"/>
        <path id="Path_88" data-name="Path 88" d="M540.894,269.539a1.892,1.892,0,1,1,1.732,1.8A1.78,1.78,0,0,1,540.894,269.539Z" transform="translate(-488.202 -254.167)" fill="#e3a437"/>
        <path id="Path_89" data-name="Path 89" d="M534.726,268.608a1.894,1.894,0,1,1,1.672,1.856,1.9,1.9,0,0,1-1.672-1.856Z" transform="translate(-486.87 -253.779)" fill="#e3a437"/>
        <path id="Path_90" data-name="Path 90" d="M528.58,267.713a1.9,1.9,0,1,1,1.61,1.917A1.9,1.9,0,0,1,528.58,267.713Z" transform="translate(-485.543 -253.605)" fill="#e3a437"/>
        <path id="Path_91" data-name="Path 91" d="M522.46,266.607a1.9,1.9,0,1,1,1.546,1.978,1.9,1.9,0,0,1-1.546-1.978Z" transform="translate(-484.221 -253.378)" fill="#e3a437"/>
        <path id="Path_92" data-name="Path 92" d="M516.377,265.544a1.9,1.9,0,1,1,1.482,2.028,1.788,1.788,0,0,1-1.482-2.028Z" transform="translate(-482.91 -253.356)" fill="#e3a437"/>
        <path id="Path_93" data-name="Path 93" d="M591.347,273.368a1.968,1.968,0,1,1,2.213,1.271,1.82,1.82,0,0,1-2.213-1.271Z" transform="translate(-499.101 -254.93)" fill="#e3a437"/>
        <path id="Path_94" data-name="Path 94" d="M597.653,272.136a1.97,1.97,0,1,1,2.259,1.2A1.822,1.822,0,0,1,597.653,272.136Z" transform="translate(-500.463 -254.647)" fill="#e3a437"/>
        <path id="Path_95" data-name="Path 95" d="M603.928,270.7a1.976,1.976,0,1,1,2.3,1.117,1.824,1.824,0,0,1-2.3-1.117Z" transform="translate(-501.819 -254.323)" fill="#e3a437"/>
        <path id="Path_96" data-name="Path 96" d="M585.01,274.379a1.964,1.964,0,1,1,2.167,1.344,1.82,1.82,0,0,1-2.167-1.344Z" transform="translate(-497.733 -255.161)" fill="#e3a437"/>
        <path id="Path_97" data-name="Path 97" d="M578.652,275.178a1.962,1.962,0,1,1,2.119,1.416A1.818,1.818,0,0,1,578.652,275.178Z" transform="translate(-496.36 -255.347)" fill="#e3a437"/>
        <path id="Path_98" data-name="Path 98" d="M572.275,275.76a1.96,1.96,0,1,1,2.07,1.488,1.818,1.818,0,0,1-2.07-1.488Z" transform="translate(-494.984 -255.485)" fill="#e3a437"/>
        <path id="Path_99" data-name="Path 99" d="M565.888,276.127a1.958,1.958,0,1,1,2.016,1.556,1.816,1.816,0,0,1-2.016-1.556Z" transform="translate(-493.602 -255.579)" fill="#e3a437"/>
        <path id="Path_100" data-name="Path 100" d="M559.493,276.28a1.958,1.958,0,1,1,1.964,1.624A1.816,1.816,0,0,1,559.493,276.28Z" transform="translate(-492.222 -255.626)" fill="#e3a437"/>
        <path id="Path_101" data-name="Path 101" d="M553.1,276.218a1.958,1.958,0,1,1,1.908,1.688,1.816,1.816,0,0,1-1.908-1.688Z" transform="translate(-490.842 -255.628)" fill="#e3a437"/>
        <path id="Path_102" data-name="Path 102" d="M546.705,275.942a1.96,1.96,0,1,1,1.85,1.752,1.818,1.818,0,0,1-1.85-1.752Z" transform="translate(-489.463 -255.582)" fill="#e3a437"/>
        <path id="Path_103" data-name="Path 103" d="M540.328,275.448a1.96,1.96,0,1,1,1.8,1.814A1.818,1.818,0,0,1,540.328,275.448Z" transform="translate(-488.082 -255.489)" fill="#e3a437"/>
        <path id="Path_104" data-name="Path 104" d="M533.965,274.741a1.962,1.962,0,1,1,1.732,1.874A1.818,1.818,0,0,1,533.965,274.741Z" transform="translate(-486.706 -255.351)" fill="#e3a437"/>
        <path id="Path_105" data-name="Path 105" d="M527.623,273.82a1.964,1.964,0,1,1,1.668,1.93,1.82,1.82,0,0,1-1.668-1.93Z" transform="translate(-485.339 -255.167)" fill="#e3a437"/>
        <path id="Path_106" data-name="Path 106" d="M521.3,272.369a1.968,1.968,0,1,1,1.606,1.984A1.972,1.972,0,0,1,521.3,272.369Z" transform="translate(-483.976 -254.619)" fill="#e3a437"/>
        <path id="Path_107" data-name="Path 107" d="M515.022,271a1.97,1.97,0,1,1,1.54,2.035,1.976,1.976,0,0,1-1.54-2.035Z" transform="translate(-482.614 -254.34)" fill="#e3a437"/>
        <path id="Path_108" data-name="Path 108" d="M508.783,269.764a1.976,1.976,0,1,1,1.474,2.094,1.826,1.826,0,0,1-1.474-2.094Z" transform="translate(-481.272 -254.333)" fill="#e3a437"/>
        <path id="Path_109" data-name="Path 109" d="M592.37,279.218a2.038,2.038,0,1,1,2.273,1.258A1.858,1.858,0,0,1,592.37,279.218Z" transform="translate(-499.329 -256.239)" fill="#e3a437"/>
        <path id="Path_110" data-name="Path 110" d="M598.873,277.951a2.042,2.042,0,1,1,2.317,1.183A1.86,1.86,0,0,1,598.873,277.951Z" transform="translate(-500.738 -255.951)" fill="#e3a437"/>
        <path id="Path_111" data-name="Path 111" d="M605.342,276.462a2.048,2.048,0,1,1,2.361,1.1A1.864,1.864,0,0,1,605.342,276.462Z" transform="translate(-502.137 -255.618)" fill="#e3a437"/>
        <path id="Path_112" data-name="Path 112" d="M611.771,274.756a2.054,2.054,0,1,1,2.4,1.021,1.866,1.866,0,0,1-2.4-1.021Z" transform="translate(-503.526 -255.233)" fill="#e3a437"/>
        <path id="Path_113" data-name="Path 113" d="M585.835,280.264a2.036,2.036,0,1,1,2.227,1.336A1.858,1.858,0,0,1,585.835,280.264Z" transform="translate(-497.92 -256.48)" fill="#e3a437"/>
        <path id="Path_114" data-name="Path 114" d="M579.278,281.085a2.032,2.032,0,1,1,2.179,1.41,1.856,1.856,0,0,1-2.179-1.41Z" transform="translate(-496.503 -256.671)" fill="#e3a437"/>
        <path id="Path_115" data-name="Path 115" d="M572.7,281.685a2.032,2.032,0,1,1,2.13,1.482A1.854,1.854,0,0,1,572.7,281.685Z" transform="translate(-495.083 -256.822)" fill="#e3a437"/>
        <path id="Path_116" data-name="Path 116" d="M566.117,282.067a2.03,2.03,0,1,1,2.078,1.554,1.854,1.854,0,0,1-2.077-1.554Z" transform="translate(-493.658 -256.914)" fill="#e3a437"/>
        <path id="Path_117" data-name="Path 117" d="M559.5,281.847a2.03,2.03,0,1,1,2.027,1.638A2.036,2.036,0,0,1,559.5,281.847Z" transform="translate(-492.217 -256.585)" fill="#e3a437"/>
        <path id="Path_118" data-name="Path 118" d="M552.93,282.16a2.03,2.03,0,1,1,1.968,1.69,1.856,1.856,0,0,1-1.967-1.69Z" transform="translate(-490.809 -256.963)" fill="#e3a437"/>
        <path id="Path_119" data-name="Path 119" d="M546.343,281.874a2.03,2.03,0,1,1,1.91,1.756,1.854,1.854,0,0,1-1.91-1.756Z" transform="translate(-489.384 -256.915)" fill="#e3a437"/>
        <path id="Path_120" data-name="Path 120" d="M539.764,281.367a2.032,2.032,0,1,1,1.852,1.82A1.856,1.856,0,0,1,539.764,281.367Z" transform="translate(-487.963 -256.819)" fill="#e3a437"/>
        <path id="Path_121" data-name="Path 121" d="M533.2,280.637a2.032,2.032,0,1,1,1.8,1.88,1.856,1.856,0,0,1-1.8-1.88Z" transform="translate(-486.545 -256.677)" fill="#e3a437"/>
        <path id="Path_122" data-name="Path 122" d="M526.663,279.686a2.036,2.036,0,1,1,1.728,1.94,1.858,1.858,0,0,1-1.728-1.94Z" transform="translate(-485.132 -256.487)" fill="#e3a437"/>
        <path id="Path_123" data-name="Path 123" d="M520.151,278.13a2.038,2.038,0,1,1,1.664,2A2.044,2.044,0,0,1,520.151,278.13Z" transform="translate(-483.724 -255.863)" fill="#e3a437"/>
        <path id="Path_124" data-name="Path 124" d="M513.672,276.729a2.042,2.042,0,1,1,1.6,2.056A2.05,2.05,0,0,1,513.672,276.729Z" transform="translate(-482.322 -255.57)" fill="#e3a437"/>
        <path id="Path_125" data-name="Path 125" d="M507.233,275.113a2.048,2.048,0,1,1,1.535,2.1,2.053,2.053,0,0,1-1.535-2.1Z" transform="translate(-480.93 -255.234)" fill="#e3a437"/>
        <path id="Path_126" data-name="Path 126" d="M500.838,273.275a2.054,2.054,0,1,1,1.465,2.158,2.06,2.06,0,0,1-1.465-2.158Z" transform="translate(-479.548 -254.852)" fill="#e3a437"/>
        <path id="Path_127" data-name="Path 127" d="M593.391,285.072a2.111,2.111,0,1,1,2.333,1.249,1.9,1.9,0,0,1-2.333-1.249Z" transform="translate(-499.563 -257.552)" fill="#e3a437"/>
        <path id="Path_128" data-name="Path 128" d="M600.091,283.767a2.116,2.116,0,1,1,2.377,1.169A1.9,1.9,0,0,1,600.091,283.767Z" transform="translate(-501.013 -257.256)" fill="#e3a437"/>
        <path id="Path_129" data-name="Path 129" d="M606.758,282.236a2.122,2.122,0,1,1,2.419,1.087A1.9,1.9,0,0,1,606.758,282.236Z" transform="translate(-502.456 -256.909)" fill="#e3a437"/>
        <path id="Path_130" data-name="Path 130" d="M613.382,280.476a2.128,2.128,0,1,1,2.459,1,1.908,1.908,0,0,1-2.459-1Z" transform="translate(-503.89 -256.513)" fill="#e3a437"/>
        <path id="Path_131" data-name="Path 131" d="M619.955,278.483a2.134,2.134,0,1,1,2.5.917A1.91,1.91,0,0,1,619.955,278.483Z" transform="translate(-505.315 -256.066)" fill="#e3a437"/>
        <path id="Path_132" data-name="Path 132" d="M586.661,286.147a2.107,2.107,0,1,1,2.287,1.328A1.9,1.9,0,0,1,586.661,286.147Z" transform="translate(-498.107 -257.8)" fill="#e3a437"/>
        <path id="Path_133" data-name="Path 133" d="M579.908,287a2.106,2.106,0,1,1,2.239,1.4,1.9,1.9,0,0,1-2.24-1.4Z" transform="translate(-496.647 -258.005)" fill="#e3a437"/>
        <path id="Path_134" data-name="Path 134" d="M573.134,287.617a2.1,2.1,0,1,1,2.2,1.478,1.894,1.894,0,0,1-2.2-1.478Z" transform="translate(-495.182 -258.149)" fill="#e3a437"/>
        <path id="Path_135" data-name="Path 135" d="M566.348,288.007a2.1,2.1,0,1,1,2.138,1.552,1.894,1.894,0,0,1-2.138-1.552Z" transform="translate(-493.715 -258.247)" fill="#e3a437"/>
        <path id="Path_136" data-name="Path 136" d="M559.557,288.17a2.1,2.1,0,1,1,2.082,1.622,1.894,1.894,0,0,1-2.082-1.622Z" transform="translate(-492.246 -258.298)" fill="#e3a437"/>
        <path id="Path_137" data-name="Path 137" d="M552.764,288.1a2.1,2.1,0,1,1,2.028,1.692,1.894,1.894,0,0,1-2.028-1.692Z" transform="translate(-490.777 -258.299)" fill="#e3a437"/>
        <path id="Path_138" data-name="Path 138" d="M545.978,287.809a2.1,2.1,0,1,1,1.97,1.758,1.894,1.894,0,0,1-1.97-1.758Z" transform="translate(-489.309 -258.251)" fill="#e3a437"/>
        <path id="Path_139" data-name="Path 139" d="M539.2,287.287a2.1,2.1,0,1,1,1.91,1.824A1.894,1.894,0,0,1,539.2,287.287Z" transform="translate(-487.844 -258.15)" fill="#e3a437"/>
        <path id="Path_140" data-name="Path 140" d="M532.442,286.534a2.106,2.106,0,1,1,1.85,1.888,1.9,1.9,0,0,1-1.85-1.888Z" transform="translate(-486.382 -258.005)" fill="#e3a437"/>
        <path id="Path_141" data-name="Path 141" d="M525.7,285.553a2.107,2.107,0,1,1,1.786,1.95A1.9,1.9,0,0,1,525.7,285.553Z" transform="translate(-484.93 -257.805)" fill="#e3a437"/>
        <path id="Path_142" data-name="Path 142" d="M519,284.346a2.112,2.112,0,1,1,1.724,2.01,1.9,1.9,0,0,1-1.724-2.01Z" transform="translate(-483.474 -257.559)" fill="#e3a437"/>
        <path id="Path_143" data-name="Path 143" d="M512.328,282.909a2.115,2.115,0,1,1,1.658,2.068A1.9,1.9,0,0,1,512.328,282.909Z" transform="translate(-482.038 -257.262)" fill="#e3a437"/>
        <path id="Path_144" data-name="Path 144" d="M505.7,281.245a2.122,2.122,0,1,1,1.6,2.123A1.9,1.9,0,0,1,505.7,281.245Z" transform="translate(-480.607 -256.919)" fill="#e3a437"/>
        <path id="Path_145" data-name="Path 145" d="M499.1,278.888a2.128,2.128,0,1,1,1.522,2.177A2.136,2.136,0,0,1,499.1,278.888Z" transform="translate(-479.176 -256.062)" fill="#e3a437"/>
        <path id="Path_146" data-name="Path 146" d="M491.827,276.507a2.135,2.135,0,1,1,1.445,2.234A2.144,2.144,0,0,1,491.827,276.507Z" transform="translate(-477.6 -255.561)" fill="#e3a437"/>
        <path id="Path_147" data-name="Path 147" d="M594.417,290.939a2.2,2.2,0,1,1,2.4,1.239A1.938,1.938,0,0,1,594.417,290.939Z" transform="translate(-499.798 -258.878)" fill="#e3a437"/>
        <path id="Path_148" data-name="Path 148" d="M601.318,289.592a2.2,2.2,0,1,1,2.435,1.157,1.942,1.942,0,0,1-2.435-1.157Z" transform="translate(-501.289 -258.567)" fill="#e3a437"/>
        <path id="Path_149" data-name="Path 149" d="M608.174,288.006a2.2,2.2,0,1,1,2.477,1.073,1.944,1.944,0,0,1-2.477-1.073Z" transform="translate(-502.775 -258.203)" fill="#e3a437"/>
        <path id="Path_150" data-name="Path 150" d="M614.99,286.186a2.2,2.2,0,1,1,2.517.987,1.946,1.946,0,0,1-2.517-.987Z" transform="translate(-504.25 -257.786)" fill="#e3a437"/>
        <path id="Path_151" data-name="Path 151" d="M621.761,284.144a2.211,2.211,0,1,1,2.555.9,1.952,1.952,0,0,1-2.555-.9Z" transform="translate(-505.72 -257.335)" fill="#e3a437"/>
        <path id="Path_152" data-name="Path 152" d="M629.565,281.463a2.221,2.221,0,1,1,2.6.8,1.958,1.958,0,0,1-2.6-.8Z" transform="translate(-507.41 -256.733)" fill="#e3a437"/>
        <path id="Path_153" data-name="Path 153" d="M587.4,291.5a2.2,2.2,0,0,1,4.2-.641c.152.895-.673,1.782-1.844,1.962a1.92,1.92,0,0,1-2.351-1.32Z" transform="translate(-498.216 -258.591)" fill="#e3a437"/>
        <path id="Path_154" data-name="Path 154" d="M580.466,292.368a2.2,2.2,0,0,1,4.205-.5c.12.9-.733,1.758-1.908,1.9a1.918,1.918,0,0,1-2.3-1.4Z" transform="translate(-496.722 -258.788)" fill="#e3a437"/>
        <path id="Path_155" data-name="Path 155" d="M573.508,293a2.2,2.2,0,0,1,4.217-.358c.09.9-.8,1.732-1.97,1.83A1.916,1.916,0,0,1,573.508,293Z" transform="translate(-495.226 -258.939)" fill="#e3a437"/>
        <path id="Path_156" data-name="Path 156" d="M566.581,293.95a2.177,2.177,0,1,1,2.2,1.548A1.932,1.932,0,0,1,566.581,293.95Z" transform="translate(-493.773 -259.588)" fill="#e3a437"/>
        <path id="Path_157" data-name="Path 157" d="M559.591,294.116a2.175,2.175,0,1,1,2.142,1.622,1.932,1.932,0,0,1-2.142-1.622Z" transform="translate(-492.26 -259.638)" fill="#e3a437"/>
        <path id="Path_158" data-name="Path 158" d="M552.6,294.05a2.177,2.177,0,1,1,2.086,1.694A1.934,1.934,0,0,1,552.6,294.05Z" transform="translate(-490.748 -259.64)" fill="#e3a437"/>
        <path id="Path_159" data-name="Path 159" d="M545.614,293.747a2.177,2.177,0,1,1,2.03,1.762,1.934,1.934,0,0,1-2.03-1.762Z" transform="translate(-489.236 -259.588)" fill="#e3a437"/>
        <path id="Path_160" data-name="Path 160" d="M538.64,293.208a2.18,2.18,0,1,1,1.97,1.83C539.431,294.938,538.55,294.109,538.64,293.208Z" transform="translate(-487.728 -259.487)" fill="#e3a437"/>
        <path id="Path_161" data-name="Path 161" d="M531.682,292.434a2.181,2.181,0,1,1,1.91,1.9C532.418,294.192,531.563,293.335,531.682,292.434Z" transform="translate(-486.222 -259.334)" fill="#e3a437"/>
        <path id="Path_162" data-name="Path 162" d="M524.753,290.89a2.2,2.2,0,0,1,4.2.637,1.92,1.92,0,0,1-2.345,1.32C525.43,292.67,524.6,291.785,524.753,290.89Z" transform="translate(-484.728 -258.595)" fill="#e3a437"/>
        <path id="Path_163" data-name="Path 163" d="M517.856,290.19a2.2,2.2,0,1,1,1.782,2.02A1.921,1.921,0,0,1,517.856,290.19Z" transform="translate(-483.241 -258.886)" fill="#e3a437"/>
        <path id="Path_164" data-name="Path 164" d="M510.977,288.174a2.2,2.2,0,1,1,1.719,2.065,2.2,2.2,0,0,1-1.719-2.065Z" transform="translate(-481.744 -258.042)" fill="#e3a437"/>
        <path id="Path_165" data-name="Path 165" d="M504.157,286.986a2.2,2.2,0,1,1,1.65,2.139A1.946,1.946,0,0,1,504.157,286.986Z" transform="translate(-480.273 -258.213)" fill="#e3a437"/>
        <path id="Path_166" data-name="Path 166" d="M497.381,285.03a2.2,2.2,0,1,1,1.58,2.2,1.948,1.948,0,0,1-1.58-2.2Z" transform="translate(-478.812 -257.799)" fill="#e3a437"/>
        <path id="Path_167" data-name="Path 167" d="M489.883,282.051a2.211,2.211,0,1,1,1.5,2.254,2.222,2.222,0,0,1-1.5-2.254Z" transform="translate(-477.18 -256.754)" fill="#e3a437"/>
        <path id="Path_168" data-name="Path 168" d="M482.254,279.224a2.221,2.221,0,1,1,1.419,2.315,2.231,2.231,0,0,1-1.419-2.315Z" transform="translate(-475.531 -256.16)" fill="#e3a437"/>
        <path id="Path_169" data-name="Path 169" d="M595.335,296.2c-.154-.895.673-1.784,1.844-2a1.982,1.982,0,0,1,2.447,1.2c.182.889-.641,1.8-1.84,2.034A1.964,1.964,0,0,1,595.335,296.2Z" transform="translate(-499.923 -259.599)" fill="#e3a437"/>
        <path id="Path_170" data-name="Path 170" d="M602.413,294.824c-.184-.889.613-1.8,1.778-2.068a1.984,1.984,0,0,1,2.489,1.115c.212.883-.581,1.83-1.774,2.1a1.966,1.966,0,0,1-2.493-1.143Z" transform="translate(-501.447 -259.289)" fill="#e3a437"/>
        <path id="Path_171" data-name="Path 171" d="M609.455,293.2c-.214-.883.553-1.828,1.712-2.128A2,2,0,0,1,613.7,292.1c.242.875-.519,1.848-1.706,2.156A1.968,1.968,0,0,1,609.455,293.2Z" transform="translate(-502.96 -258.921)" fill="#e3a437"/>
        <path id="Path_172" data-name="Path 172" d="M616.428,291.3a2.293,2.293,0,0,1,4.211-1.245c.27.867-.461,1.866-1.636,2.213a1.972,1.972,0,0,1-2.575-.969Z" transform="translate(-504.441 -258.47)" fill="#e3a437"/>
        <path id="Path_173" data-name="Path 173" d="M623.368,289.2a2.3,2.3,0,0,1,4.177-1.4c.3.857-.4,1.882-1.566,2.269A1.976,1.976,0,0,1,623.368,289.2Z" transform="translate(-505.927 -257.999)" fill="#e3a437"/>
        <path id="Path_174" data-name="Path 174" d="M630.25,286.842a2.311,2.311,0,0,1,4.139-1.536c.33.847-.338,1.9-1.494,2.325A1.98,1.98,0,0,1,630.25,286.842Z" transform="translate(-507.403 -257.464)" fill="#e3a437"/>
        <path id="Path_175" data-name="Path 175" d="M638.176,283.805a2.321,2.321,0,0,1,4.091-1.706,2.31,2.31,0,0,1-4.091,1.706Z" transform="translate(-509.101 -256.786)" fill="#e3a437"/>
        <path id="Path_176" data-name="Path 176" d="M588.224,297.34c-.124-.9.731-1.76,1.908-1.942a1.98,1.98,0,0,1,2.4,1.282c.152.9-.7,1.786-1.9,1.97a1.962,1.962,0,0,1-2.4-1.31Z" transform="translate(-498.393 -259.863)" fill="#e3a437"/>
        <path id="Path_177" data-name="Path 177" d="M581.086,298.235c-.094-.9.8-1.736,1.97-1.876a1.978,1.978,0,0,1,2.355,1.362c.12.9-.759,1.762-1.966,1.9A1.96,1.96,0,0,1,581.086,298.235Z" transform="translate(-496.857 -260.073)" fill="#e3a437"/>
        <path id="Path_178" data-name="Path 178" d="M573.929,298.888c-.062-.907.847-1.708,2.03-1.808a1.976,1.976,0,0,1,2.305,1.442c.092.9-.817,1.734-2.028,1.838a1.957,1.957,0,0,1-2.307-1.472Z" transform="translate(-495.318 -260.228)" fill="#e3a437"/>
        <path id="Path_179" data-name="Path 179" d="M566.757,299.3c-.032-.909.9-1.68,2.09-1.74a1.976,1.976,0,0,1,2.255,1.518c.06.907-.875,1.706-2.088,1.768A1.958,1.958,0,0,1,566.757,299.3Z" transform="translate(-493.775 -260.331)" fill="#e3a437"/>
        <path id="Path_180" data-name="Path 180" d="M559.58,299.461a2.263,2.263,0,0,1,4.347-.076c.03.907-.931,1.676-2.145,1.7S559.582,300.367,559.58,299.461Z" transform="translate(-492.229 -260.372)" fill="#e3a437"/>
        <path id="Path_181" data-name="Path 181" d="M552.4,299.389a2.265,2.265,0,0,1,4.349.072c0,.907-.987,1.644-2.2,1.622S552.37,300.3,552.4,299.389Z" transform="translate(-490.683 -260.372)" fill="#e3a437"/>
        <path id="Path_182" data-name="Path 182" d="M545.225,299.089a1.975,1.975,0,0,1,2.253-1.52c1.187.06,2.122.829,2.09,1.738a1.958,1.958,0,0,1-2.255,1.548C546.1,300.795,545.165,300,545.225,299.089Z" transform="translate(-489.137 -260.332)" fill="#e3a437"/>
        <path id="Path_183" data-name="Path 183" d="M538.062,298.54a1.976,1.976,0,0,1,2.305-1.442c1.185.1,2.093.9,2.032,1.8a1.958,1.958,0,0,1-2.305,1.47C538.881,300.27,537.974,299.441,538.062,298.54Z" transform="translate(-487.595 -260.231)" fill="#e3a437"/>
        <path id="Path_184" data-name="Path 184" d="M530.917,297.746a1.978,1.978,0,0,1,2.353-1.364c1.181.138,2.064.969,1.972,1.874a1.96,1.96,0,0,1-2.357,1.4C531.678,299.506,530.8,298.645,530.917,297.746Z" transform="translate(-486.056 -260.076)" fill="#e3a437"/>
        <path id="Path_185" data-name="Path 185" d="M523.795,296.71a1.98,1.98,0,0,1,2.4-1.285c1.177.18,2.032,1.039,1.91,1.94a1.961,1.961,0,0,1-2.4,1.312C524.5,298.5,523.643,297.607,523.795,296.71Z" transform="translate(-484.521 -259.871)" fill="#e3a437"/>
        <path id="Path_186" data-name="Path 186" d="M516.7,295.431a1.981,1.981,0,0,1,2.445-1.2c1.171.22,2,1.109,1.846,2a1.963,1.963,0,0,1-2.449,1.231C517.344,297.241,516.522,296.322,516.7,295.431Z" transform="translate(-482.992 -259.609)" fill="#e3a437"/>
        <path id="Path_187" data-name="Path 187" d="M509.647,293.914a1.984,1.984,0,0,1,2.489-1.117c1.165.26,1.964,1.175,1.78,2.066a1.966,1.966,0,0,1-2.493,1.147C510.228,295.743,509.435,294.8,509.647,293.914Z" transform="translate(-481.471 -259.298)" fill="#e3a437"/>
        <path id="Path_188" data-name="Path 188" d="M502.633,292.152a2,2,0,0,1,2.529-1.033c1.157.3,1.926,1.243,1.712,2.125a1.968,1.968,0,0,1-2.535,1.061C503.155,294.01,502.392,293.027,502.633,292.152Z" transform="translate(-479.958 -258.932)" fill="#e3a437"/>
        <path id="Path_189" data-name="Path 189" d="M495.669,290.119a2.293,2.293,0,0,1,4.213,1.241,1.972,1.972,0,0,1-2.573.971C496.131,291.977,495.39,290.98,495.669,290.119Z" transform="translate(-478.458 -258.478)" fill="#e3a437"/>
        <path id="Path_190" data-name="Path 190" d="M487.971,287.6a2.3,2.3,0,0,1,4.175,1.4,1.976,1.976,0,0,1-2.615.871C488.367,289.478,487.669,288.451,487.971,287.6Z" transform="translate(-476.797 -257.95)" fill="#e3a437"/>
        <path id="Path_191" data-name="Path 191" d="M481.617,285.262a2.311,2.311,0,0,1,4.139,1.538,1.98,1.98,0,0,1-2.647.787C481.952,287.158,481.285,286.107,481.617,285.262Z" transform="translate(-475.424 -257.456)" fill="#e3a437"/>
        <path id="Path_192" data-name="Path 192" d="M473.852,282.1a2.321,2.321,0,0,1,4.091,1.706,1.986,1.986,0,0,1-2.683.679C474.115,284.007,473.488,282.93,473.852,282.1Z" transform="translate(-473.748 -256.788)" fill="#e3a437"/>
      </g>
      <g id="Group_28802" data-name="Group 28802" transform="translate(-684.551 358.137)">
        <g id="Group_28801" data-name="Group 28801" transform="translate(0 0)">
          <path id="Path_193" data-name="Path 193" d="M480.563,376.355c0,.06-.12.12-.178.12-.014,0-.03-.014-.044-.03l-.653-1.5a.454.454,0,0,0-.3-.3,10.811,10.811,0,0,0-1.812-.238c-.044.875-.1,3.386-.134,4.171-.014.831-.06,3.608-.06,4.2,0,.148.06.178.164.2l.743.134c.044,0,.074.09.074.178,0,.03,0,.044-.044.044-.328-.014-1.143-.03-2-.03-.787,0-1.514.016-1.842.03-.046,0-.046-.014-.046-.03,0-.074.03-.2.074-.2l.757-.148c.1-.016.118-.06.118-.2.016-.6-.044-3.534-.058-4.231,0-.6-.058-3.356-.074-4.113a12.21,12.21,0,0,0-1.782.224.511.511,0,0,0-.326.312l-.683,1.484c-.016.03-.03.044-.06.044s-.178-.074-.178-.12l.148-2.182a.1.1,0,0,1,.1-.1c.12,0,.4.014,1.009.046s1.56.044,2.955.044c1.35,0,2.287-.014,2.911-.044s.935-.03,1.039-.03c.058,0,.088.03.088.1Z" transform="translate(-472.227 -373.218)" fill="#f3525d"/>
          <path id="Path_194" data-name="Path 194" d="M488.979,380.045a.447.447,0,0,1-.3.416,21.443,21.443,0,0,1-3.936.12,4.958,4.958,0,0,0,.074,1.009,2.133,2.133,0,0,0,1.946,1.812,4.732,4.732,0,0,0,1-.1,5.635,5.635,0,0,0,1.085-.386c.03-.014.074.074.074.178,0,.044-.03.058-.06.09a7.946,7.946,0,0,1-1.706.743,4.022,4.022,0,0,1-1.306.148,2.851,2.851,0,0,1-3.252-3.058,3.776,3.776,0,0,1,3.564-3.935,2.837,2.837,0,0,1,2.821,2.954Zm-3.088-2.671c-.577,0-1.173.875-1.143,2.939a7.255,7.255,0,0,0,1.916-.09c.118-.058.2-.164.2-.475,0-.8-.178-2.4-.965-2.4Z" transform="translate(-474.465 -373.867)" fill="#f3525d"/>
          <path id="Path_195" data-name="Path 195" d="M492.053,381.089a3.892,3.892,0,0,1,1.5-3.074,4.4,4.4,0,0,1,2.851-.935,3.425,3.425,0,0,1,1.277.178c.044.014.074.06.074.134l.088,1.6c0,.044-.134.118-.178.118s-.044,0-.06-.03c-.222-.43-.46-.9-.667-1.263a.757.757,0,0,0-.268-.312.851.851,0,0,0-.519-.134c-.533,0-1.025.429-1.426,1.292a5.124,5.124,0,0,0-.445,2.2c0,1.738.9,2.553,2,2.553a3.632,3.632,0,0,0,.757-.088,3.935,3.935,0,0,0,.981-.342c.03-.014.074.044.074.134s-.014.1-.06.118a7.594,7.594,0,0,1-1.484.683,3.416,3.416,0,0,1-1.233.148c-1.812,0-3.252-.787-3.252-2.969Z" transform="translate(-476.501 -373.869)" fill="#f3525d"/>
          <path id="Path_196" data-name="Path 196" d="M503.182,372.989c.09-.014.118.044.118.134,0,.12-.164,4.994-.2,6.163,0,.134-.014.312-.03.489h.074a3.7,3.7,0,0,1,.15-.445c.416-1.157,1.544-3.132,3.073-3.132,1.2,0,1.782,1.2,1.782,3.132,0,1.306-.118,2.583-.164,3.088-.016.238.014.3.118.326l.713.148c.03,0,.074.09.074.178,0,.016-.014.03-.044.03-.268-.014-.907-.03-1.766-.03s-1.56.016-1.872.03c-.044,0-.044-.014-.044-.03,0-.058.016-.178.06-.178l.743-.134c.12-.014.148-.074.164-.2.044-.385.074-1.247.074-2.167,0-1.41-.2-2.8-.981-2.8-.831,0-1.678,1.47-2.034,3.252a12.851,12.851,0,0,0-.134,1.736c0,.134.058.164.164.178l.729.148c.03,0,.074.09.074.164,0,.03,0,.044-.044.044-.312-.014-1.069-.03-1.9-.03s-1.484.016-1.722.03c-.044,0-.044-.014-.044-.044s.044-.164.074-.164l.713-.164c.088-.014.1-.058.118-.178.016-.4-.014-3.5-.014-4.351,0-.653-.044-3.905-.06-4.455,0-.134-.03-.2-.164-.2l-.9-.044c-.046,0-.09-.088-.09-.178,0-.014,0-.044.044-.044Z" transform="translate(-478.203 -372.987)" fill="#f3525d"/>
          <path id="Path_197" data-name="Path 197" d="M519.061,374.145c.519,0,.919.014,1.247.03a.156.156,0,0,1,.12.06c.475,1.6,2,6.726,2.6,8.552a.312.312,0,0,0,.2.2l.549.148c.044.014.074.09.074.2,0,.016-.014.03-.044.03-.312,0-1.025-.03-1.768-.03-.831,0-1.632.016-2.034.03-.044,0-.044-.014-.044-.03,0-.088.044-.2.09-.2l.8-.134c.118-.014.134-.118.1-.238-.164-.491-.713-1.916-.875-2.419-.669.014-2.4.058-3.162.118-.044,0-.09.044-.1.118-.09.432-.372,1.632-.462,2.167-.014.178.044.222.148.252l.773.148c.044,0,.088.1.088.2,0,.03-.014.03-.044.03-.37-.014-.965-.03-1.558-.03-.505,0-.951.016-1.249.03-.03,0-.03-.014-.03-.044s.03-.178.074-.2l.37-.118c.12-.03.2-.088.268-.268.729-1.782,2.273-6.339,2.94-8.15.134-.356.326-.43.921-.43Zm-.8,1.173a5.1,5.1,0,0,0-.148.505c-.372,1.233-.845,2.955-1.129,3.979a.08.08,0,0,0,.074.1,27.671,27.671,0,0,0,2.911.134c-.252-.713-1.025-2.867-1.424-4.2a4.652,4.652,0,0,0-.2-.519Z" transform="translate(-481.327 -373.236)" fill="#f3525d"/>
          <path id="Path_198" data-name="Path 198" d="M532.268,376.49a.04.04,0,0,1,.032.011.041.041,0,0,1,.012.032c0,.074-.044.238-.09.252l-2.523.178c-.03.965-.074,2.539-.09,2.8-.014.475-.03,2.435-.03,2.8a.184.184,0,0,0,.18.2l1.306.134c.044,0,.074.12.074.2,0,.016-.016.03-.046.03-.757-.014-1.6-.03-2.419-.03s-1.514.016-1.946.03c-.03,0-.03-.014-.03-.03s.03-.178.074-.178l.8-.134c.1-.014.148-.074.148-.2,0-.563-.074-2.241-.088-2.955-.014-.6-.074-2.361-.074-2.627l-1.159.03c-.03,0-.044-.014-.044-.06a1,1,0,0,1,.058-.268.268.268,0,0,1,.268-.222h.891A3.42,3.42,0,0,1,531.253,373a2.828,2.828,0,0,1,1.189.2.094.094,0,0,1,.074.09l.09,1.6c0,.06-.134.148-.2.148-.014,0-.03-.014-.06-.058-.222-.416-.489-.951-.667-1.263a.74.74,0,0,0-.238-.282.691.691,0,0,0-.416-.134c-.743,0-1.307,1.113-1.336,3.162Z" transform="translate(-483.888 -372.984)" fill="#f3525d"/>
          <path id="Path_199" data-name="Path 199" d="M537.084,380.625c.03-.164.06-.3.074-.386.342-1.41,1.113-3.162,2.465-3.162a.827.827,0,0,1,.475.12.131.131,0,0,1,.044.1l.1,2.064c0,.058-.134.134-.164.134s-.03,0-.044-.03c-.178-.342-.416-.743-.6-1.025a.528.528,0,0,0-.416-.252c-.817,0-1.514,1.484-1.914,3.5a14.889,14.889,0,0,0-.15,1.752c0,.134.06.164.164.178l1.159.164c.03,0,.074.1.074.148s0,.044-.03.044c-.416-.014-1.276-.03-2.285-.03-.877,0-1.648.016-1.828.03-.028,0-.028-.014-.028-.03,0-.074.028-.164.074-.164l.741-.148a.17.17,0,0,0,.134-.2c0-.385-.03-2.227-.044-2.821-.016-.637-.03-2.168-.06-2.583,0-.134-.03-.224-.164-.238l-.667-.044c-.058,0-.088-.118-.088-.178,0-.03,0-.058.044-.058l2.881-.431c.118-.03.15.03.15.134,0,.224-.09,2.154-.15,2.969,0,.134-.014.312-.014.432Z" transform="translate(-485.56 -373.867)" fill="#f3525d"/>
          <path id="Path_200" data-name="Path 200" d="M545.547,376.34a.108.108,0,0,1,.134.12c-.03.6-.1,2.643-.12,3.37-.014.667-.044,2.315-.044,2.881,0,.134.03.164.134.2l.743.148c.03,0,.074.1.074.148s0,.044-.03.044c-.358-.014-1.055-.03-1.856-.03s-1.514.016-1.812.03c-.044,0-.044-.014-.044-.03,0-.06.03-.148.074-.164l.7-.164c.1-.03.164-.058.164-.2,0-.326-.044-2.108-.06-2.835-.014-.6-.058-2.183-.074-2.555-.016-.12-.03-.224-.164-.224l-.669-.03c-.044,0-.1-.1-.1-.2,0-.014,0-.03.03-.03Zm-1.083-2.7a.965.965,0,0,1,1.011.965,1.012,1.012,0,1,1-1.025-.973Z" transform="translate(-487.382 -373.13)" fill="#f3525d"/>
          <path id="Path_201" data-name="Path 201" d="M548.456,381.089a3.891,3.891,0,0,1,1.5-3.074,4.395,4.395,0,0,1,2.851-.935,3.423,3.423,0,0,1,1.277.178c.044.014.074.06.074.134l.088,1.6c0,.044-.134.118-.178.118s-.046,0-.06-.03c-.224-.43-.461-.9-.669-1.263a.749.749,0,0,0-.268-.312.849.849,0,0,0-.52-.134c-.535,0-1.025.43-1.424,1.292a5.112,5.112,0,0,0-.445,2.2c0,1.738.907,2.553,2,2.553a3.642,3.642,0,0,0,.757-.088,3.911,3.911,0,0,0,.979-.342c.03-.014.074.044.074.134s-.014.1-.058.118a7.588,7.588,0,0,1-1.486.683,3.415,3.415,0,0,1-1.233.148c-1.812,0-3.252-.787-3.252-2.969Z" transform="translate(-488.646 -373.869)" fill="#f3525d"/>
          <path id="Path_202" data-name="Path 202" d="M561.486,379.972a5.284,5.284,0,0,0-.134-.907c-.178-.683-.6-1.247-1.307-1.247a3.271,3.271,0,0,0-2.152.981c-.016.014-.03.03-.044.03-.044,0-.164-.178-.09-.252a4.581,4.581,0,0,1,3.474-1.5c2,0,2.3,1.678,2.3,3.176,0,.282-.03,1.129-.058,1.634-.03.667-.06,1.32-.06,1.558,0,.1.03.148.15.178l.623.148a.166.166,0,0,1,.088.15c0,.03-.014.044-.058.044-.18-.016-.787-.016-1.366-.016-.505,0-.817,0-1.069.016-.044,0-.074-.016-.074-.074-.016-.12-.044-.653-.044-.981,0-.074-.016-.3-.016-.416l-.044-.03c-.06.12-.134.252-.2.372a2.732,2.732,0,0,1-2.361,1.233,1.9,1.9,0,0,1-1.974-2,2.611,2.611,0,0,1,2.777-2.717,2.18,2.18,0,0,1,1.291.386,2.038,2.038,0,0,1,.3.238Zm-1.337,3.34c.579,0,1.113-.563,1.4-1.38a1.617,1.617,0,0,0,.1-.533,1.464,1.464,0,0,0-.134-.563,1.55,1.55,0,0,0-1.291-1.1c-.757,0-1.1.965-1.1,1.976s.415,1.6,1.011,1.6Z" transform="translate(-490.494 -373.867)" fill="#f3525d"/>
          <path id="Path_203" data-name="Path 203" d="M575.466,383.778c.044,0,.074.1.074.164,0,.016,0,.03-.028.03-.505-.014-1.025-.03-1.886-.03s-1.484.016-1.856.03c-.03,0-.044-.014-.044-.03s.03-.164.074-.164l.713-.164a.2.2,0,0,0,.178-.2c.03-.312.074-1.47.074-2.151,0-1.293-.178-2.8-1.009-2.8-.713,0-1.44,1.129-1.886,2.939a10.139,10.139,0,0,0-.222,2.02c0,.134.044.178.134.2l.727.164c.044,0,.074.1.074.164,0,.016-.014.03-.044.03-.579-.014-1.055-.03-1.856-.03s-1.366.016-1.812.03c-.03,0-.03-.014-.03-.03,0-.058.03-.164.074-.178l.757-.134c.088-.03.132-.074.132-.2,0-.445-.03-2.182-.03-2.835-.014-.505-.058-2.167-.074-2.555-.014-.134-.014-.224-.148-.238l-.653-.044c-.044,0-.088-.1-.088-.178,0-.03,0-.044.044-.044l2.881-.461c.09-.016.12.03.12.12-.016.2-.09,2.094-.12,2.895,0,.148-.014.342-.03.505l.074.014c.044-.148.1-.342.134-.416.416-1.32,1.544-3.118,3-3.118,1.189,0,1.8,1.113,1.8,3.176,0,1.1-.1,2.479-.164,3.1-.014.148.016.222.164.252Z" transform="translate(-492.596 -373.857)" fill="#f3525d"/>
          <path id="Path_204" data-name="Path 204" d="M586.144,382.639c.044-.164.1-.326.148-.475.535-1.96,1.35-5.076,1.826-7.156.09-.432.15-.461,1-.533a4.248,4.248,0,0,1,.535-.044.13.13,0,0,1,.134.1c.489,1.826,1.366,5.717,1.826,7.721a3.121,3.121,0,0,0,.134.416h.074c.044-.118.09-.312.12-.432.432-1.856,1.069-5.122,1.4-7.437q.022-.246-.134-.268l-.7-.1c-.06-.014-.088-.134-.088-.2,0-.03,0-.044.03-.044H595.3a.04.04,0,0,1,.034.01.041.041,0,0,1,.012.033c0,.074-.03.178-.074.2l-.326.1a.33.33,0,0,0-.268.268c-.416,1.454-2.05,6.77-2.6,8.165-.1.328-.2.356-1.306.388h-.6a.158.158,0,0,1-.134-.1c-.462-1.47-1.129-3.474-1.47-4.81-.06-.2-.134-.535-.224-.847h-.09c-.09.326-.2.713-.3,1-.326.965-1.113,3.31-1.572,4.395-.134.312-.2.342-1.5.372h-.461c-.074,0-.1-.03-.132-.12-.432-1.454-1.47-5.939-2.05-8.522-.03-.1-.074-.178-.178-.2l-.385-.074c-.044-.014-.09-.134-.09-.2a.04.04,0,0,1,.012-.033.04.04,0,0,1,.034-.011h4.053c.044,0,.044.014.044.06s-.044.178-.1.2l-.743.1a.182.182,0,0,0-.148.224c.238,1.6.861,5.394,1.219,7.379.028.118.072.326.1.505Z" transform="translate(-495.777 -373.24)" fill="#f3525d"/>
          <path id="Path_205" data-name="Path 205" d="M601.948,384.078a2.969,2.969,0,0,1-3.25-3.176,3.66,3.66,0,0,1,4-3.816,3.014,3.014,0,0,1,3.31,3.252,3.676,3.676,0,0,1-4.037,3.742Zm.462-.282c1.055,0,1.364-1.364,1.364-3.252,0-1.706-.416-3.176-1.424-3.176s-1.44,1.307-1.44,3.28c0,1.708.536,3.148,1.484,3.148Z" transform="translate(-499.466 -373.874)" fill="#f3525d"/>
          <path id="Path_206" data-name="Path 206" d="M622.145,383.777c.044.014.074.1.074.164s0,.044-.044.044c-.446-.014-.951-.03-1.782-.03s-1.47.016-1.826.03c-.044,0-.044-.014-.044-.03,0-.058.03-.164.074-.178l.669-.164c.09-.014.134-.074.148-.178.044-.386.044-1.692.044-2.108,0-1.454-.238-2.865-1.039-2.865-.965,0-1.544,1.708-1.752,3.088a16.956,16.956,0,0,0-.134,1.856c0,.12.044.164.164.2l.8.178c.044.014.074.1.074.164s0,.044-.03.044c-.475-.014-1.041-.03-1.886-.03s-1.424.016-1.812.03c-.044,0-.044-.014-.044-.044s.016-.148.074-.164l.637-.164c.12-.03.15-.074.164-.2.044-.342.03-1.484.03-2.02,0-1.514-.178-2.939-1.025-2.939-.891,0-1.514,1.544-1.782,3-.058.489-.134,1.41-.134,1.974a.154.154,0,0,0,.134.178l.683.164c.06.014.09.1.09.164s0,.044-.044.044c-.623-.014-1.039-.03-1.842-.03-.771,0-1.2.016-1.692.03-.044,0-.044-.014-.044-.03,0-.058.03-.164.074-.178l.669-.148a.174.174,0,0,0,.148-.2c0-.653-.03-2.257-.03-2.925-.014-.491-.044-2.108-.088-2.509-.016-.134-.03-.224-.164-.238l-.639-.03c-.044,0-.088-.09-.088-.178,0-.03,0-.044.06-.06l2.867-.4c.088-.014.1.03.1.1,0,.178-.074,1.886-.134,2.671,0,.12-.03.326-.03.475l.09.03c.044-.178.1-.37.134-.46.4-1.113,1.292-2.837,2.895-2.837,1.085,0,1.678,1.025,1.722,2.627v.432l.06.014c.03-.1.09-.312.134-.445.342-1,1.247-2.627,2.837-2.627,1.085,0,1.752,1.039,1.752,3.132,0,1.129-.134,2.747-.164,3.148,0,.164.03.2.148.238Z" transform="translate(-501.665 -373.871)" fill="#f3525d"/>
          <path id="Path_207" data-name="Path 207" d="M633.123,380.045a.447.447,0,0,1-.3.416,21.43,21.43,0,0,1-3.933.12,4.9,4.9,0,0,0,.074,1.009,2.134,2.134,0,0,0,1.944,1.812,4.749,4.749,0,0,0,1-.1,5.613,5.613,0,0,0,1.083-.385c.03-.014.074.074.074.178,0,.044-.03.058-.06.09a7.953,7.953,0,0,1-1.708.743,4.026,4.026,0,0,1-1.307.148,2.851,2.851,0,0,1-3.25-3.058,3.776,3.776,0,0,1,3.564-3.936,2.836,2.836,0,0,1,2.821,2.955Zm-3.088-2.671c-.579,0-1.173.875-1.143,2.939a7.254,7.254,0,0,0,1.916-.09c.12-.058.2-.164.2-.475,0-.8-.18-2.4-.965-2.4Z" transform="translate(-505.503 -373.867)" fill="#f3525d"/>
          <path id="Path_208" data-name="Path 208" d="M644.455,383.778c.044,0,.074.1.074.164,0,.016,0,.03-.03.03-.505-.014-1.025-.03-1.886-.03s-1.484.016-1.856.03c-.028,0-.044-.014-.044-.03s.03-.164.074-.164l.713-.164a.2.2,0,0,0,.178-.2c.03-.312.074-1.47.074-2.151,0-1.293-.178-2.8-1.009-2.8-.713,0-1.44,1.129-1.886,2.939a10.072,10.072,0,0,0-.224,2.02c0,.134.044.178.134.2l.727.164c.046,0,.074.1.074.164,0,.016-.016.03-.044.03-.579-.014-1.055-.03-1.856-.03s-1.364.016-1.812.03c-.03,0-.03-.014-.03-.03,0-.058.03-.164.074-.178l.757-.134a.175.175,0,0,0,.134-.2c0-.445-.03-2.182-.03-2.835-.014-.505-.06-2.167-.074-2.555-.016-.134-.016-.224-.15-.238l-.653-.044c-.044,0-.088-.1-.088-.178,0-.03,0-.044.044-.044l2.881-.461c.088-.016.118.03.118.12-.014.2-.088,2.094-.118,2.895,0,.148-.016.342-.03.505l.074.014c.044-.148.1-.342.134-.416.418-1.32,1.544-3.118,3-3.118,1.187,0,1.8,1.113,1.8,3.176,0,1.1-.1,2.479-.164,3.1-.014.148.014.222.164.252Z" transform="translate(-507.45 -373.857)" fill="#f3525d"/>
        </g>
      </g>
      <g id="Group_28803" data-name="Group 28803" transform="translate(-532.06 260.659)">
        <path id="Path_209" data-name="Path 209" d="M678.511,266.016a.18.18,0,0,1-.2.124c-.174,0-.743-.024-1.984-.074s-3.124-.05-5.951-.05c-.967,0-2.2.026-3.027.05-.074,0-.074-.024-.074-.05,0-.1.05-.272.124-.3l1.141-.248c.174-.05.274-.124.274-.4.024-.745-.026-5.779-.026-6.894-.026-.967-.074-5.6-.124-6.423,0-.3-.1-.4-.248-.445l-1.017-.2c-.05,0-.124-.174-.124-.348,0-.026,0-.05.05-.05.6,0,1.165.024,1.686.024h1.4c5.529,0,7.439-.074,7.737-.074a.132.132,0,0,1,.15.15l.174,3.248c0,.074-.224.2-.3.2-.026,0-.05,0-.076-.05-.348-.769-.7-1.512-1.065-2.305a.757.757,0,0,0-.621-.348,30.189,30.189,0,0,0-3.62-.4c-.248.026-.272.1-.272.274-.124,1.512-.274,5.456-.25,6.273,1.712.074,4.489.124,5.132.15.05,0,.05.024.05.05,0,.148-.124.421-.2.421-.967.1-3.422.224-4.71.348-.224.026-.3.074-.3.274-.026.819-.124,5.53-.124,6.225,0,.272.1.322.272.322a22.625,22.625,0,0,0,4.539-.422.843.843,0,0,0,.519-.373c.5-.669.943-1.365,1.365-2.058.024-.05.05-.05.074-.05.1.026.3.2.272.3Z" transform="translate(-666.723 -249.173)" fill="#081d82"/>
        <path id="Path_210" data-name="Path 210" d="M688.906,255.9c-.124,1.586-.148,3.57-.148,5.182,0,3.148.743,4.265,2.479,4.265.224,0,.545-.026.819-.05a6.063,6.063,0,0,0,1.314-.348c.074-.026.1.1.1.272a.18.18,0,0,1-.1.174,10.6,10.6,0,0,1-2.529.867c-.271.024-.643.05-1.2.05-2.727,0-4.415-1-4.439-4.595a52.064,52.064,0,0,1,.422-5.827l-2.132.074a.09.09,0,0,1-.1-.1,1.671,1.671,0,0,1,.074-.422.473.473,0,0,1,.5-.422h1.76c.074-.422.2-1.414.348-2.01.124-.471.371-.8,1.165-1.141a16.731,16.731,0,0,1,1.934-.743c.1,0,.15.074.124.224-.1.819-.3,2.8-.348,3.72l4.339.024c.024,0,.05.026.05.074,0,.174-.1.4-.174.4Z" transform="translate(-670.191 -249.277)" fill="#081d82"/>
        <path id="Path_211" data-name="Path 211" d="M701.257,248.766c.148-.026.2.074.2.224,0,.2-.272,8.332-.348,10.292,0,.224-.024.521-.05.819h.124a6.412,6.412,0,0,1,.248-.743c.7-1.934,2.579-5.232,5.132-5.232,2.01,0,2.976,2.008,2.976,5.232,0,2.182-.2,4.315-.272,5.158-.026.4.026.5.2.545l1.2.248c.05,0,.124.15.124.3,0,.026-.024.05-.074.05-.446-.024-1.512-.05-2.951-.05s-2.6.026-3.125.05c-.074,0-.074-.024-.074-.05,0-.1.024-.3.1-.3l1.24-.224c.2-.026.248-.124.272-.348.074-.645.126-2.084.126-3.62,0-2.355-.323-4.687-1.636-4.687-1.4,0-2.8,2.455-3.4,5.43a21.389,21.389,0,0,0-.224,2.9c0,.224.1.272.274.3l1.215.248c.05,0,.124.15.124.272,0,.05,0,.074-.074.074-.519-.024-1.786-.05-3.174-.05s-2.479.026-2.877.05c-.074,0-.074-.024-.074-.074,0-.1.074-.272.124-.272l1.2-.274c.15-.024.174-.1.2-.3.026-.669-.024-5.853-.024-7.266,0-1.091-.074-6.522-.1-7.439,0-.224-.05-.322-.272-.348l-1.512-.076c-.074,0-.15-.148-.15-.3,0-.024,0-.074.076-.074Z" transform="translate(-672.87 -248.762)" fill="#081d82"/>
        <path id="Path_212" data-name="Path 212" d="M720.694,254.358a.18.18,0,0,1,.224.2c-.048,1-.172,4.415-.2,5.629-.026,1.117-.074,3.87-.074,4.81,0,.224.05.272.224.322l1.24.248c.048,0,.124.174.124.248s0,.074-.048.074c-.6-.024-1.762-.05-3.1-.05s-2.529.026-3.025.05c-.074,0-.074-.024-.074-.05,0-.1.05-.248.124-.272l1.167-.274c.172-.05.272-.1.272-.322,0-.545-.074-3.522-.1-4.736-.024-1.017-.1-3.646-.124-4.265-.024-.2-.048-.372-.272-.372l-1.117-.05c-.074,0-.174-.174-.174-.322,0-.024,0-.05.05-.05Zm-1.81-4.513a1.612,1.612,0,0,1,1.686,1.612,1.795,1.795,0,1,1-1.71-1.614Z" transform="translate(-677.155 -248.998)" fill="#081d82"/>
        <path id="Path_213" data-name="Path 213" d="M731,267.285a4.958,4.958,0,0,1-5.432-5.308,6.113,6.113,0,0,1,6.67-6.373,5.036,5.036,0,0,1,5.53,5.432,6.139,6.139,0,0,1-6.746,6.249Zm.769-.471c1.76,0,2.281-2.281,2.281-5.432,0-2.851-.7-5.308-2.381-5.308-1.636,0-2.4,2.181-2.4,5.48,0,2.851.893,5.258,2.479,5.258Z" transform="translate(-679.273 -250.247)" fill="#081d82"/>
        <path id="Path_214" data-name="Path 214" d="M747.317,266.255c.024.545,0,1.117,0,1.488-.05,1.265-.05,2.779-.05,3.027s.05.272.224.3l1.688.274c.074.024.124.174.124.272,0,.05,0,.074-.048.074-1.091-.026-2.183-.05-3.472-.05-1.214,0-2.034.024-2.9.05-.048,0-.048-.026-.048-.05,0-.124.048-.3.124-.3l1.017-.224c.174-.026.248-.1.248-.322.05-.8-.05-4.711-.074-6.225,0-1.438-.074-6.644-.124-7.391,0-.248-.026-.348-.224-.372l-1.289-.024c-.124-.026-.2-.2-.2-.322,0-.05,0-.074.074-.1l5.034-.769c.124-.024.174.05.174.174,0,.5-.1,2.827-.124,3.819,0,.248-.05.471-.05.669l.148.024a4.928,4.928,0,0,1,.274-.719,5.763,5.763,0,0,1,4.81-3.967c2.2,0,3.272,2.182,3.272,4.737,0,3.6-1.786,6.944-5.7,6.944a4.038,4.038,0,0,1-2.355-.669,5.183,5.183,0,0,1-.472-.372Zm2.727.545c1.562,0,2.355-2.01,2.355-5.282,0-1.984-.545-4.041-1.81-4.041-1.412,0-2.727,2.7-3.248,5.256-.024.2-.05.471-.05.619a3.814,3.814,0,0,0,.05.571c.4,2.082,1.612,2.877,2.679,2.877Z" transform="translate(-682.87 -250.231)" fill="#081d82"/>
        <path id="Path_215" data-name="Path 215" d="M766.05,254.358a.182.182,0,0,1,.224.2c-.05,1-.174,4.415-.2,5.629-.026,1.117-.076,3.87-.076,4.81,0,.224.05.272.224.322l1.241.248c.05,0,.124.174.124.248s0,.074-.05.074c-.6-.024-1.76-.05-3.1-.05s-2.529.026-3.026.05c-.074,0-.074-.024-.074-.05,0-.1.05-.248.124-.272l1.165-.274c.174-.05.274-.1.274-.322,0-.545-.076-3.522-.1-4.736-.024-1.017-.1-3.646-.124-4.265-.024-.2-.05-.372-.274-.372l-1.117-.05c-.074,0-.172-.174-.172-.322,0-.024,0-.05.048-.05Zm-1.81-4.513a1.61,1.61,0,0,1,1.686,1.612,1.795,1.795,0,1,1-1.71-1.614Z" transform="translate(-686.924 -248.998)" fill="#081d82"/>
        <path id="Path_216" data-name="Path 216" d="M778.053,260.429a8.871,8.871,0,0,0-.224-1.512c-.3-1.141-1-2.084-2.182-2.084a5.461,5.461,0,0,0-3.6,1.636c-.026.024-.05.05-.076.05-.074,0-.272-.3-.148-.422a7.649,7.649,0,0,1,5.793-2.505c3.324,0,3.844,2.8,3.844,5.308,0,.471-.05,1.884-.1,2.727-.05,1.115-.1,2.2-.1,2.6,0,.174.05.248.248.3l1.041.248a.273.273,0,0,1,.15.248c0,.05-.024.074-.1.074-.3-.026-1.314-.026-2.281-.026-.843,0-1.364,0-1.786.026-.074,0-.124-.026-.124-.124-.024-.2-.074-1.091-.074-1.636,0-.124-.026-.5-.026-.693l-.074-.05a7.044,7.044,0,0,1-.348.619,4.563,4.563,0,0,1-3.941,2.058,3.176,3.176,0,0,1-3.3-3.324,4.363,4.363,0,0,1,4.637-4.537,3.644,3.644,0,0,1,2.157.645,3.477,3.477,0,0,1,.5.4Zm-2.231,5.58c.967,0,1.86-.941,2.331-2.305a2.721,2.721,0,0,0,.174-.893,2.463,2.463,0,0,0-.224-.943,2.6,2.6,0,0,0-2.158-1.834c-1.264,0-1.836,1.612-1.836,3.3,0,1.736.7,2.679,1.686,2.679Z" transform="translate(-688.983 -250.235)" fill="#081d82"/>
        <path id="Path_217" data-name="Path 217" d="M680.486,292.317c0,.1-.2.2-.3.2-.024,0-.05-.024-.074-.05l-1.091-2.505a.759.759,0,0,0-.5-.5,18.142,18.142,0,0,0-3.026-.4c-.074,1.464-.172,5.653-.224,6.968-.024,1.4-.1,6.025-.1,7.018,0,.248.1.3.274.322l1.24.224c.074,0,.124.15.124.3,0,.05,0,.074-.074.074-.545-.024-1.908-.05-3.346-.05-1.314,0-2.529.026-3.074.05-.074,0-.074-.024-.074-.05,0-.124.05-.322.124-.322l1.265-.248c.174-.024.2-.1.2-.348.026-1-.074-5.9-.1-7.068,0-1-.1-5.6-.124-6.87a20.586,20.586,0,0,0-2.976.372.863.863,0,0,0-.546.519l-1.141,2.481c-.024.05-.05.074-.1.074s-.3-.124-.3-.2l.248-3.646a.158.158,0,0,1,.174-.174c.2,0,.669.026,1.686.074s2.6.074,4.934.074c2.255,0,3.818-.026,4.86-.074s1.562-.05,1.736-.05c.1,0,.148.05.148.174Z" transform="translate(-666.558 -257.32)" fill="#081d82"/>
        <path id="Path_218" data-name="Path 218" d="M691.11,298.354a8.845,8.845,0,0,0-.224-1.512c-.3-1.141-1-2.082-2.181-2.082a5.459,5.459,0,0,0-3.6,1.636c-.026.024-.05.05-.076.05-.074,0-.272-.3-.148-.422a7.649,7.649,0,0,1,5.793-2.505c3.324,0,3.844,2.8,3.844,5.306,0,.471-.05,1.884-.1,2.727-.05,1.117-.1,2.2-.1,2.6,0,.174.05.248.248.3l1.041.248a.273.273,0,0,1,.15.248c0,.05-.026.074-.1.074-.3-.026-1.314-.026-2.281-.026-.843,0-1.364,0-1.786.026-.074,0-.124-.026-.124-.124-.024-.2-.074-1.091-.074-1.636,0-.124-.026-.5-.026-.7l-.074-.05c-.1.2-.224.421-.348.619a4.562,4.562,0,0,1-3.943,2.058,3.176,3.176,0,0,1-3.3-3.324,4.363,4.363,0,0,1,4.637-4.539,3.64,3.64,0,0,1,2.158.645,3.42,3.42,0,0,1,.5.4Zm-2.231,5.58c.967,0,1.86-.943,2.331-2.305a2.723,2.723,0,0,0,.174-.893,2.465,2.465,0,0,0-.224-.941A2.6,2.6,0,0,0,689,297.958c-1.264,0-1.836,1.612-1.836,3.3,0,1.736.7,2.679,1.686,2.679Z" transform="translate(-670.265 -258.398)" fill="#081d82"/>
        <path id="Path_219" data-name="Path 219" d="M714.442,304.728c.074,0,.124.174.124.274,0,.026,0,.05-.05.05-.843-.024-1.71-.05-3.148-.05s-2.479.026-3.1.05c-.05,0-.074-.024-.074-.05,0-.074.05-.274.124-.274l1.2-.272a.348.348,0,0,0,.3-.348c.05-.519.124-2.455.124-3.6,0-2.157-.3-4.663-1.686-4.663-1.2,0-2.4,1.886-3.148,4.91a16.892,16.892,0,0,0-.372,3.372c0,.224.074.3.224.322l1.215.272c.074,0,.124.174.124.274,0,.026-.024.05-.074.05-.967-.024-1.76-.05-3.1-.05s-2.281.026-3.026.05c-.05,0-.05-.024-.05-.05,0-.1.05-.274.124-.3l1.266-.224c.148-.05.224-.124.224-.348,0-.743-.05-3.646-.05-4.737-.024-.843-.1-3.62-.124-4.265-.024-.224-.024-.372-.248-.4l-1.091-.074c-.074,0-.148-.174-.148-.3,0-.05,0-.074.074-.074l4.81-.769c.15-.026.2.05.2.2-.024.348-.148,3.5-.2,4.834,0,.248-.026.571-.05.843l.124.026c.074-.248.174-.571.224-.7.7-2.2,2.579-5.208,5.008-5.208,1.984,0,3,1.86,3,5.306,0,1.836-.174,4.141-.274,5.182-.024.248.026.372.274.422Z" transform="translate(-673.756 -258.4)" fill="#081d82"/>
        <path id="Path_220" data-name="Path 220" d="M722.116,304.422c.3.026.571,0,.843,0a34.222,34.222,0,0,0,5.356-.645.815.815,0,0,0,.521-.4l1.065-1.86c.026-.05.05-.05.076-.05.1,0,.322.124.3.224l-.472,3.248c0,.1-.074.148-.224.148-.869,0-3-.05-5.677-.05-1.736,0-2.431.026-3.448.026-.348,0-.521-.15-.8-.745a2.737,2.737,0,0,1-.2-.6.362.362,0,0,1,.05-.174c2.107-2.629,5.332-6.447,6.447-7.991.148-.224.371-.471.521-.669v-.074a2.168,2.168,0,0,0-.571-.124,29.38,29.38,0,0,0-3.672-.445.454.454,0,0,0-.446.3l-1.338,2.429c-.026.05-.05.05-.076.05-.1,0-.348-.174-.322-.274l.371-2.877a.176.176,0,0,1,.174-.2c.52.026,2.058.074,3.944.074,2.181,0,4.415-.026,4.884-.026a.164.164,0,0,1,.174.124,4.666,4.666,0,0,1,.471,1.636,1,1,0,0,1-.224.7c-1.86,2.231-5.432,5.877-7.142,7.563-.15.174-.422.447-.619.645Z" transform="translate(-677.957 -258.44)" fill="#081d82"/>
        <path id="Path_221" data-name="Path 221" d="M742.493,298.354a8.809,8.809,0,0,0-.224-1.512c-.3-1.141-1-2.082-2.181-2.082a5.461,5.461,0,0,0-3.6,1.636c-.026.024-.05.05-.074.05-.074,0-.272-.3-.15-.422a7.651,7.651,0,0,1,5.793-2.505c3.324,0,3.844,2.8,3.844,5.306,0,.471-.05,1.884-.1,2.727-.05,1.117-.1,2.2-.1,2.6,0,.174.05.248.25.3l1.041.248a.273.273,0,0,1,.148.248c0,.05-.024.074-.1.074-.3-.026-1.314-.026-2.281-.026-.843,0-1.365,0-1.786.026-.074,0-.124-.026-.124-.124-.024-.2-.074-1.091-.074-1.636,0-.124-.026-.5-.026-.7l-.074-.05c-.1.2-.224.421-.348.619a4.563,4.563,0,0,1-3.942,2.058,3.176,3.176,0,0,1-3.292-3.316,4.363,4.363,0,0,1,4.637-4.539,3.641,3.641,0,0,1,2.157.645,3.5,3.5,0,0,1,.5.4Zm-2.231,5.58c.967,0,1.86-.943,2.331-2.305a2.732,2.732,0,0,0,.172-.893,2.449,2.449,0,0,0-.224-.941,2.6,2.6,0,0,0-2.157-1.836c-1.265,0-1.836,1.612-1.836,3.3,0,1.736.7,2.679,1.686,2.679Z" transform="translate(-681.327 -258.398)" fill="#081d82"/>
        <path id="Path_222" data-name="Path 222" d="M765.839,304.729c.074,0,.124.174.124.274,0,.026,0,.05-.05.05-.843-.024-1.71-.05-3.148-.05s-2.479.026-3.1.05c-.05,0-.074-.024-.074-.05,0-.074.05-.274.124-.274l1.2-.272a.348.348,0,0,0,.3-.348c.05-.519.124-2.455.124-3.6,0-2.157-.3-4.663-1.686-4.663-1.2,0-2.4,1.886-3.148,4.91a16.947,16.947,0,0,0-.374,3.372c0,.224.074.3.224.322l1.214.272c.074,0,.124.174.124.274,0,.026-.026.05-.074.05-.967-.024-1.76-.05-3.1-.05s-2.281.026-3.027.05c-.05,0-.05-.024-.05-.05,0-.1.05-.274.124-.3l1.257-.226c.15-.05.224-.124.224-.348,0-.743-.05-3.646-.05-4.737-.024-.843-.1-3.62-.124-4.265-.026-.224-.026-.372-.248-.4l-1.091-.074c-.074,0-.15-.174-.15-.3,0-.05,0-.074.074-.074l4.81-.769c.148-.026.2.05.2.2-.026.348-.15,3.5-.2,4.834,0,.248-.026.571-.05.843l.124.026c.074-.248.174-.571.224-.7.693-2.2,2.579-5.208,5.008-5.208,1.984,0,3,1.86,3,5.306,0,1.836-.174,4.141-.274,5.182-.024.248.024.372.274.421Z" transform="translate(-684.828 -258.401)" fill="#081d82"/>
        <path id="Path_223" data-name="Path 223" d="M775.563,292.283a.18.18,0,0,1,.224.2c-.05,1-.174,4.415-.2,5.629-.026,1.117-.076,3.868-.076,4.81,0,.224.05.272.224.322l1.24.248c.05,0,.124.174.124.248s0,.074-.048.074c-.6-.024-1.76-.05-3.1-.05s-2.529.026-3.026.05c-.074,0-.074-.024-.074-.05,0-.1.05-.248.126-.274l1.165-.272c.174-.05.274-.1.274-.322,0-.545-.076-3.522-.1-4.736-.026-1.017-.1-3.646-.124-4.265-.024-.2-.048-.372-.272-.372l-1.115-.05c-.074,0-.174-.174-.174-.322,0-.026,0-.05.05-.05Zm-1.81-4.513a1.61,1.61,0,0,1,1.686,1.612,1.795,1.795,0,1,1-1.71-1.612Z" transform="translate(-688.966 -257.164)" fill="#081d82"/>
        <path id="Path_224" data-name="Path 224" d="M787.568,298.354a8.857,8.857,0,0,0-.224-1.512c-.3-1.141-1-2.082-2.181-2.082a5.459,5.459,0,0,0-3.6,1.636c-.026.024-.05.05-.076.05-.074,0-.272-.3-.148-.422a7.649,7.649,0,0,1,5.793-2.505c3.324,0,3.844,2.8,3.844,5.306,0,.471-.05,1.884-.1,2.727-.05,1.117-.1,2.2-.1,2.6,0,.174.05.248.248.3l1.041.248a.273.273,0,0,1,.15.248c0,.05-.026.074-.1.074-.3-.026-1.314-.026-2.281-.026-.843,0-1.364,0-1.786.026-.074,0-.124-.026-.124-.124-.024-.2-.074-1.091-.074-1.636,0-.124-.026-.5-.026-.7l-.074-.05c-.1.2-.224.421-.348.619a4.562,4.562,0,0,1-3.943,2.058,3.176,3.176,0,0,1-3.3-3.324,4.363,4.363,0,0,1,4.636-4.539,3.638,3.638,0,0,1,2.157.645,3.429,3.429,0,0,1,.5.4Zm-2.232,5.58c.967,0,1.86-.943,2.331-2.305a2.727,2.727,0,0,0,.174-.893,2.462,2.462,0,0,0-.224-.941,2.6,2.6,0,0,0-2.158-1.836c-1.265,0-1.836,1.612-1.836,3.3,0,1.736.7,2.679,1.686,2.679Z" transform="translate(-691.033 -258.398)" fill="#081d82"/>
        <path id="Path_225" data-name="Path 225" d="M680.486,330.243c0,.1-.2.2-.3.2-.024,0-.05-.026-.074-.05l-1.091-2.505a.761.761,0,0,0-.5-.5,18.166,18.166,0,0,0-3.026-.4c-.074,1.464-.172,5.653-.224,6.968-.024,1.4-.1,6.025-.1,7.018,0,.248.1.3.274.322l1.24.224c.074,0,.124.148.124.3,0,.05,0,.074-.074.074-.545-.024-1.908-.05-3.346-.05-1.314,0-2.529.026-3.074.05-.074,0-.074-.024-.074-.05,0-.124.05-.322.124-.322l1.265-.25c.174-.024.2-.1.2-.348.026-1-.074-5.9-.1-7.068,0-1-.1-5.6-.124-6.87a20.623,20.623,0,0,0-2.977.372.863.863,0,0,0-.545.521l-1.141,2.479c-.024.05-.05.074-.1.074s-.3-.124-.3-.2l.248-3.646a.158.158,0,0,1,.174-.174c.2,0,.669.026,1.686.074s2.6.074,4.934.074c2.255,0,3.818-.024,4.86-.074s1.562-.05,1.736-.05c.1,0,.148.05.148.174Z" transform="translate(-666.558 -265.486)" fill="#081d82"/>
        <path id="Path_226" data-name="Path 226" d="M692.852,332.466c-.074,0-.15-.15-.15-.248,0-.05,0-.1.074-.124l4.415-.619c.124-.026.2.05.2.2-.026.917,0,4.71,0,5.7,0,1.165.074,3.941.124,4.595.026.224.074.348.3.4l.941.25c.074.024.124.224.124.3,0,.024,0,.05-.074.05-.643-.026-1.438-.026-2.4-.026-.843,0-1.636,0-2.131.026-.1,0-.15-.074-.15-.248,0-.3-.024-2.355,0-3.3v-.769H694c-.1.274-.148.5-.224.645-1,2.431-2.455,3.844-4.539,3.844-1.786,0-3.248-1.464-3.248-5.108a45.1,45.1,0,0,1,.348-5.058c.026-.3-.048-.422-.272-.422h-1.041c-.1,0-.2-.2-.2-.322,0-.05.026-.074.1-.074l4.395-.669c.15-.026.2.05.2.224-.024.8-.148,3.67-.148,4.86,0,3.4.472,4.884,1.636,4.884,1.486,0,2.727-2.555,3.1-5.9.074-.645.124-2.008.124-2.479,0-.322-.074-.471-.248-.5Z" transform="translate(-670.492 -266.569)" fill="#081d82"/>
        <path id="Path_227" data-name="Path 227" d="M717.98,342.655c.074,0,.124.174.124.272,0,.026,0,.05-.05.05-.843-.024-1.71-.05-3.148-.05s-2.479.026-3.1.05c-.05,0-.074-.024-.074-.05,0-.074.048-.272.124-.272l1.2-.274a.348.348,0,0,0,.3-.348c.05-.521.124-2.455.124-3.6,0-2.157-.3-4.663-1.686-4.663-1.2,0-2.4,1.884-3.148,4.908a16.892,16.892,0,0,0-.372,3.372c0,.224.074.3.224.322l1.215.274c.074,0,.124.174.124.272,0,.026-.024.05-.074.05-.967-.024-1.76-.05-3.1-.05s-2.281.026-3.025.05c-.05,0-.05-.024-.05-.05,0-.1.05-.272.124-.3l1.266-.224c.148-.05.224-.124.224-.348,0-.743-.05-3.646-.05-4.737-.024-.843-.1-3.62-.124-4.265-.024-.224-.024-.372-.248-.4l-1.091-.074c-.074,0-.148-.174-.148-.3,0-.05,0-.074.074-.074l4.81-.769c.15-.026.2.05.2.2-.024.348-.148,3.5-.2,4.834,0,.248-.026.571-.05.843l.124.024c.074-.248.174-.571.224-.7.7-2.2,2.579-5.208,5.008-5.208,1.984,0,3,1.86,3,5.308,0,1.834-.174,4.141-.274,5.182-.024.248.026.372.274.421Z" transform="translate(-674.517 -266.568)" fill="#081d82"/>
        <path id="Path_228" data-name="Path 228" d="M727.713,330.209a.18.18,0,0,1,.224.2c-.05,1-.174,4.415-.2,5.629-.026,1.117-.076,3.868-.076,4.81,0,.224.05.272.224.322l1.241.248c.05,0,.124.174.124.248s0,.074-.05.074c-.6-.024-1.76-.05-3.1-.05s-2.529.026-3.024.05c-.074,0-.074-.024-.074-.05,0-.1.05-.248.124-.272l1.165-.274c.174-.05.274-.1.274-.322,0-.545-.076-3.52-.1-4.736-.024-1.017-.1-3.646-.124-4.265-.024-.2-.05-.372-.274-.372l-1.117-.05c-.074,0-.172-.174-.172-.322,0-.024,0-.05.048-.05ZM725.9,325.7a1.612,1.612,0,0,1,1.686,1.612,1.794,1.794,0,1,1-1.71-1.614Z" transform="translate(-678.668 -265.33)" fill="#081d82"/>
        <path id="Path_229" data-name="Path 229" d="M732.768,335.318c0-1.91,2.529-3.87,6.125-3.87a6.215,6.215,0,0,1,2.256.3c.074.074.124.124.124.224l.224,2.529c0,.1-.224.248-.322.248-.05,0-.074,0-.1-.074-.372-.619-.719-1.241-1.091-1.884a1.7,1.7,0,0,0-.422-.422,3.2,3.2,0,0,0-1.586-.348,1.962,1.962,0,0,0-2.157,1.76c0,1,.669,1.512,2.5,2.181,2.331.8,3.546,1.612,3.546,3.2,0,2.355-2.579,3.967-6.592,3.967a8.489,8.489,0,0,1-2.231-.3.28.28,0,0,1-.174-.248l-.2-2.579c0-.124.25-.224.322-.224a.1.1,0,0,1,.1.05c.348.619.719,1.34,1.117,1.96a1.436,1.436,0,0,0,.448.422,3.43,3.43,0,0,0,1.562.372c1.486,0,2.679-.645,2.679-1.81,0-1.067-.719-1.588-2.729-2.257-2.455-.769-3.4-1.686-3.4-3.174Z" transform="translate(-680.796 -266.568)" fill="#081d82"/>
        <path id="Path_230" data-name="Path 230" d="M750.91,330.209a.18.18,0,0,1,.224.2c-.048,1-.174,4.415-.2,5.629-.026,1.117-.074,3.868-.074,4.81,0,.224.05.272.224.322l1.24.248c.048,0,.124.174.124.248s0,.074-.05.074c-.6-.024-1.76-.05-3.1-.05s-2.529.026-3.024.05c-.074,0-.074-.024-.074-.05,0-.1.05-.248.124-.272l1.167-.274c.174-.05.272-.1.272-.322,0-.545-.074-3.52-.1-4.736-.024-1.017-.1-3.646-.124-4.265-.024-.2-.048-.372-.274-.372l-1.115-.05c-.074,0-.174-.174-.174-.322,0-.024,0-.05.048-.05ZM749.1,325.7a1.612,1.612,0,0,1,1.686,1.612,1.684,1.684,0,0,1-1.71,1.71,1.668,1.668,0,1,1,0-3.324Z" transform="translate(-683.662 -265.33)" fill="#081d82"/>
        <path id="Path_231" data-name="Path 231" d="M762.914,336.28a8.857,8.857,0,0,0-.224-1.512c-.3-1.141-1-2.084-2.181-2.084a5.466,5.466,0,0,0-3.6,1.636c-.026.024-.05.05-.074.05-.074,0-.272-.3-.15-.422a7.65,7.65,0,0,1,5.793-2.505c3.324,0,3.844,2.8,3.844,5.308,0,.471-.05,1.884-.1,2.727-.05,1.117-.1,2.2-.1,2.6,0,.174.05.248.25.3l1.041.248a.274.274,0,0,1,.148.248c0,.05-.024.074-.1.074-.3-.026-1.314-.026-2.281-.026-.843,0-1.365,0-1.786.026-.074,0-.124-.026-.124-.124-.024-.2-.074-1.091-.074-1.636,0-.124-.026-.5-.026-.693l-.074-.05c-.1.2-.224.422-.348.619a4.563,4.563,0,0,1-3.941,2.058,3.176,3.176,0,0,1-3.3-3.324,4.363,4.363,0,0,1,4.639-4.537,3.643,3.643,0,0,1,2.158.643,3.486,3.486,0,0,1,.5.4Zm-2.233,5.579c.967,0,1.86-.941,2.331-2.305a2.719,2.719,0,0,0,.174-.893,2.449,2.449,0,0,0-.224-.943,2.6,2.6,0,0,0-2.158-1.834c-1.265,0-1.836,1.612-1.836,3.3,0,1.736.7,2.679,1.688,2.679Z" transform="translate(-685.722 -266.565)" fill="#081d82"/>
        <path id="Path_232" data-name="Path 232" d="M678.425,375.046c0,2.877-2.727,4.91-7.539,4.91a10.128,10.128,0,0,1-2.727-.273.292.292,0,0,1-.224-.248l-.372-3.372c-.024-.074.248-.248.322-.248s.074.024.1.074c.471.843.917,1.736,1.388,2.529a1.48,1.48,0,0,0,.6.571,3.092,3.092,0,0,0,1.686.4c2.132,0,3.746-1.041,3.746-2.653,0-1.488-1.067-2.381-3.62-3.348-2.629-1-3.943-2.2-3.943-4.091,0-2.6,3.074-5.01,7.192-5.01a6.682,6.682,0,0,1,2.455.348c.126.05.174.1.174.224l.3,3.224c0,.074-.224.224-.322.224-.05,0-.074,0-.1-.05-.471-.893-.941-1.786-1.438-2.653a1.039,1.039,0,0,0-.471-.448,2.678,2.678,0,0,0-1.341-.3,3.011,3.011,0,0,0-3.272,2.7c0,1.34.943,2.084,3.051,3.124,2.331,1.067,4.365,2.181,4.365,4.339Z" transform="translate(-666.781 -273.638)" fill="#081d82"/>
        <path id="Path_233" data-name="Path 233" d="M694.506,374.327a.747.747,0,0,1-.5.7,35.748,35.748,0,0,1-6.572.2,8.3,8.3,0,0,0,.124,1.686,3.564,3.564,0,0,0,3.248,3.024,7.912,7.912,0,0,0,1.662-.174,9.259,9.259,0,0,0,1.812-.645c.048-.026.124.124.124.3,0,.074-.048.1-.1.15a13.145,13.145,0,0,1-2.851,1.241,6.7,6.7,0,0,1-2.181.248c-3.125,0-5.432-1.464-5.432-5.108a6.3,6.3,0,0,1,5.951-6.57,4.739,4.739,0,0,1,4.71,4.934Zm-5.158-4.463c-.967,0-1.958,1.462-1.91,4.91a12.107,12.107,0,0,0,3.2-.15c.2-.1.348-.272.348-.8,0-1.339-.3-4-1.612-4Z" transform="translate(-670.286 -274.729)" fill="#081d82"/>
        <path id="Path_234" data-name="Path 234" d="M713.433,380.579c.074,0,.124.174.124.274,0,.026,0,.05-.05.05-.843-.024-1.71-.05-3.148-.05s-2.479.026-3.1.05c-.05,0-.074-.024-.074-.05,0-.074.048-.274.124-.274l1.2-.272a.348.348,0,0,0,.3-.348c.05-.519.126-2.455.126-3.6,0-2.157-.3-4.663-1.688-4.663-1.2,0-2.4,1.886-3.148,4.91a16.957,16.957,0,0,0-.374,3.372c0,.224.074.3.224.322l1.214.272c.074,0,.124.174.124.274,0,.026-.024.05-.074.05-.967-.024-1.76-.05-3.1-.05s-2.281.026-3.024.05c-.05,0-.05-.024-.05-.05,0-.1.05-.274.124-.3l1.265-.224c.148-.05.224-.124.224-.348,0-.743-.05-3.646-.05-4.736-.026-.843-.1-3.62-.124-4.265-.024-.224-.024-.372-.248-.4l-1.091-.074c-.074,0-.148-.174-.148-.3,0-.05,0-.074.074-.074l4.81-.769c.15-.026.2.05.2.2-.024.348-.148,3.5-.2,4.834,0,.248-.026.571-.05.843l.124.026c.074-.248.174-.571.224-.7.7-2.2,2.579-5.208,5.008-5.208,1.984,0,3,1.86,3,5.306,0,1.836-.174,4.141-.272,5.182-.026.248.024.372.272.422Z" transform="translate(-673.54 -274.73)" fill="#081d82"/>
        <path id="Path_235" data-name="Path 235" d="M729.652,374.327a.747.747,0,0,1-.5.7,35.748,35.748,0,0,1-6.572.2,8.18,8.18,0,0,0,.124,1.686,3.564,3.564,0,0,0,3.248,3.024,7.917,7.917,0,0,0,1.662-.174,9.257,9.257,0,0,0,1.81-.645c.05-.026.124.124.124.3,0,.074-.05.1-.1.15A13.186,13.186,0,0,1,726.6,380.8a6.709,6.709,0,0,1-2.182.248c-3.124,0-5.432-1.464-5.432-5.108a6.3,6.3,0,0,1,5.951-6.57,4.739,4.739,0,0,1,4.71,4.934Zm-5.158-4.463c-.967,0-1.958,1.462-1.91,4.91a12.106,12.106,0,0,0,3.2-.15c.2-.1.348-.272.348-.8,0-1.339-.3-4-1.612-4Z" transform="translate(-677.854 -274.729)" fill="#081d82"/>
        <path id="Path_236" data-name="Path 236" d="M734.786,373.685c0-2.5,2.4-4.315,5.993-4.315a23.965,23.965,0,0,1,2.429.15,4.038,4.038,0,0,0,.769.05l3.3-.026a.066.066,0,0,1,.074.074c0,.124-.05.322-.124.322l-2.505.4a3.056,3.056,0,0,1,1.167,2.479c0,2.6-2.355,3.893-5.158,4.315-.272.05-.769.148-1.241.272-1.041.248-1.538.5-1.538.819,0,.4.869.545,3.6.843,3.72.4,5.556,1,5.556,2.6,0,2.107-2.181,3.941-7.415,3.941-3.074,0-5.851-.693-5.851-2.4,0-1,.743-1.34,4.115-2.753a12.429,12.429,0,0,1-2.231-.719,1.161,1.161,0,0,1-.6-1.165.332.332,0,0,1,.224-.348c1.165-.4,2.158-.719,3.2-1.065a3.733,3.733,0,0,1-3.77-3.448Zm5.853,11.433c2.107,0,3.074-.943,3.1-2.058,0-1.414-1.81-1.836-4.794-2.381-.374-.05-.446-.074-.6.05a2.378,2.378,0,0,0-.967,1.984c0,1.438,1.388,2.4,3.224,2.4Zm-.3-8.39c1.265,0,2.034-.967,2.034-3.472,0-1.884-.545-3.446-1.91-3.446-1.562,0-2.131,1.412-2.131,3.6,0,1.958.867,3.322,1.984,3.322Z" transform="translate(-681.054 -274.73)" fill="#081d82"/>
        <path id="Path_237" data-name="Path 237" d="M759.249,374.206a8.833,8.833,0,0,0-.224-1.512c-.3-1.143-1-2.083-2.181-2.083a5.461,5.461,0,0,0-3.6,1.636c-.026.024-.05.05-.074.05-.074,0-.272-.3-.15-.422a7.653,7.653,0,0,1,5.793-2.505c3.324,0,3.844,2.8,3.844,5.306,0,.471-.05,1.884-.1,2.727-.05,1.117-.1,2.2-.1,2.6,0,.174.05.248.25.3l1.041.248a.274.274,0,0,1,.148.248c0,.05-.024.074-.1.074-.3-.026-1.314-.026-2.281-.026-.843,0-1.364,0-1.786.026-.074,0-.124-.026-.124-.124-.024-.2-.074-1.091-.074-1.636,0-.124-.026-.5-.026-.7l-.074-.05a7.092,7.092,0,0,1-.348.619,4.562,4.562,0,0,1-3.941,2.058,3.174,3.174,0,0,1-3.3-3.322,4.363,4.363,0,0,1,4.637-4.539,3.641,3.641,0,0,1,2.158.645,3.474,3.474,0,0,1,.5.4Zm-2.231,5.58c.967,0,1.86-.943,2.331-2.305a2.719,2.719,0,0,0,.172-.893,2.447,2.447,0,0,0-.224-.941,2.6,2.6,0,0,0-2.158-1.836c-1.265,0-1.836,1.612-1.836,3.3,0,1.736.7,2.679,1.688,2.679Z" transform="translate(-684.934 -274.732)" fill="#081d82"/>
        <path id="Path_238" data-name="Path 238" d="M772.754,362.542c.148-.026.2.026.2.2,0,.322-.174,5.208-.224,8.085-.026,1.786-.124,7.24-.124,7.711,0,.224.074.272.25.322l1.289.224c.074,0,.15.174.15.3,0,.026,0,.05-.05.05-.645-.024-1.836-.05-3.3-.05-1.364,0-2.429.026-2.95.05a.066.066,0,0,1-.074-.074c0-.074.05-.248.148-.272l1.214-.224c.174-.05.274-.1.274-.3.048-.7-.074-6.62-.074-7.489s-.124-6.149-.15-7.166c0-.224-.074-.348-.3-.348l-1.464-.074c-.1,0-.2-.174-.2-.3,0-.05,0-.1.074-.1Z" transform="translate(-688.27 -273.26)" fill="#081d82"/>
      </g>
    </g>
  </g>
</svg>
