<svg xmlns="http://www.w3.org/2000/svg" xmlns:xlink="http://www.w3.org/1999/xlink" width="472" height="472" viewBox="0 0 472 472">
  <defs>
    <clipPath id="clip-Plan_de_travail_31">
      <rect width="472" height="472"/>
    </clipPath>
  </defs>
  <g id="Plan_de_travail_31" data-name="Plan de travail – 31" clip-path="url(#clip-Plan_de_travail_31)">
    <g id="Groupe_477" data-name="Groupe 477" transform="translate(33.016 38.908)">
      <g id="Groupe_284" data-name="Groupe 284" transform="translate(0 0)">
        <g id="Groupe_280" data-name="Groupe 280" transform="translate(1.642 133.687)">
          <g id="Groupe_279" data-name="Groupe 279">
            <path id="Tracé_2361" data-name="Tracé 2361" d="M694.9,470.179c0,.811-1.621,1.621-2.434,1.621-.2,0-.4-.2-.606-.407l-8.919-20.469c-1.012-2.23-2.027-3.447-4.053-4.053-6.891-2.028-21.08-3.04-24.726-3.242-.608,11.957-1.419,46.208-1.826,56.95-.2,11.35-.808,49.251-.808,57.356,0,2.028.808,2.434,2.227,2.636l10.133,1.823c.608,0,1.015,1.217,1.015,2.434,0,.4,0,.606-.609.606-4.457-.2-15.605-.4-27.36-.4-10.745,0-20.676.2-25.133.4-.609,0-.609-.2-.609-.4,0-1.015.407-2.636,1.015-2.636l10.335-2.025c1.419-.2,1.621-.813,1.621-2.838.2-8.108-.606-48.238-.81-57.763,0-8.106-.811-45.8-1.013-56.139-3.447.2-17.429,1.215-24.322,3.04-2.028.606-3.24,1.823-4.457,4.255l-9.325,20.267c-.2.407-.4.609-.808.609-.611,0-2.434-1.013-2.434-1.621l2.025-29.792a1.281,1.281,0,0,1,1.419-1.419c1.621,0,5.475.2,13.785.606,8.513.2,21.28.609,40.332.609,18.444,0,31.213-.2,39.723-.609,8.512-.2,12.767-.4,14.186-.4.813,0,1.217.4,1.217,1.419Z" transform="translate(-580.994 -438.968)" fill="#081d82"/>
            <path id="Tracé_2362" data-name="Tracé 2362" d="M681.734,439.28c7.093,0,12.568.2,17.024.406a2.107,2.107,0,0,1,1.621.811c6.484,21.888,27.362,91.812,35.468,116.74a4.252,4.252,0,0,0,2.633,2.636l7.5,2.025c.606.2,1.01,1.217,1.01,2.636,0,.2-.2.4-.606.4-4.257,0-13.984-.4-24.12-.4-11.348,0-22.292.2-27.764.4-.611,0-.611-.2-.611-.4,0-1.217.611-2.636,1.217-2.838l10.947-1.823c1.621-.2,1.823-1.621,1.419-3.242-2.232-6.689-9.729-26.148-11.962-33.037-9.118.2-32.628.811-43.167,1.621-.609,0-1.215.606-1.417,1.621-1.217,5.878-5.068,22.292-6.285,29.59-.2,2.432.608,3.04,2.028,3.447L657.21,561.9c.609,0,1.217,1.419,1.217,2.636,0,.4-.2.4-.609.4-5.065-.2-13.174-.4-21.279-.4-6.891,0-12.971.2-17.024.4-.407,0-.407-.2-.407-.606,0-.611.407-2.434,1.013-2.636l5.068-1.621c1.621-.4,2.636-1.217,3.646-3.649,9.931-24.322,31.011-86.542,40.129-111.268,1.826-4.863,4.459-5.879,12.568-5.879ZM670.79,455.292a71.021,71.021,0,0,0-2.028,6.891c-5.068,16.823-11.552,40.332-15.4,54.319a1.107,1.107,0,0,0,1.015,1.419c9.32,1.215,31.006,2.025,39.726,1.823-3.45-9.729-13.987-39.117-19.459-57.359-.609-1.823-1.419-4.255-2.636-7.093Z" transform="translate(-520.405 -438.472)" fill="#081d82"/>
            <path id="Tracé_2363" data-name="Tracé 2363" d="M726.8,554.963c.608-2.23,1.417-4.462,2.028-6.487,7.3-26.754,18.444-69.313,24.928-97.69,1.214-5.876,2.025-6.28,13.578-7.3a58.277,58.277,0,0,1,7.3-.606,1.774,1.774,0,0,1,1.826,1.419c6.686,24.928,18.648,78.027,24.928,105.39a47.09,47.09,0,0,0,1.823,5.674h1.015c.606-1.621,1.217-4.255,1.621-5.876,5.879-25.335,14.593-69.924,19.05-101.541q.311-3.345-1.823-3.646l-9.522-1.419c-.813-.2-1.217-1.823-1.217-2.838,0-.4,0-.608.4-.608H851.65a.537.537,0,0,1,.606.608c0,1.015-.4,2.432-1.013,2.636l-4.457,1.416a4.494,4.494,0,0,0-3.651,3.649c-5.674,19.863-27.966,92.418-35.469,111.47-1.419,4.459-2.631,4.866-17.835,5.27h-8.105a2.169,2.169,0,0,1-1.826-1.419C773.62,543,764.5,515.641,759.835,497.4c-.808-2.634-1.823-7.3-3.038-11.55H755.58c-1.217,4.457-2.838,9.724-4.055,13.578-4.457,13.174-15.2,45.195-21.481,59.992-1.826,4.255-2.836,4.661-20.471,5.066h-6.283c-1.012,0-1.416-.4-1.823-1.621C695.59,543,681.4,481.8,673.5,446.53c-.407-1.419-1.013-2.432-2.432-2.636l-5.27-1.01c-.606-.2-1.217-1.823-1.217-2.838a.539.539,0,0,1,.611-.608h55.328c.606,0,.606.2.606.81,0,.813-.606,2.434-1.419,2.636L709.572,444.3a2.476,2.476,0,0,0-2.025,3.038c3.242,21.89,11.755,73.573,16.618,100.731.407,1.621,1.015,4.459,1.419,6.891Z" transform="translate(-448.121 -438.223)" fill="#081d82"/>
          </g>
        </g>
        <g id="Groupe_281" data-name="Groupe 281" transform="translate(5.675)">
          <path id="Tracé_2364" data-name="Tracé 2364" d="M686.355,402.025a5.443,5.443,0,1,1,6.228,3.822A5.138,5.138,0,0,1,686.355,402.025Z" transform="translate(-417.641 -373.316)" fill="#e3a437"/>
          <path id="Tracé_2365" data-name="Tracé 2365" d="M681,402.75a5.433,5.433,0,1,1,6.086,4.032A5.183,5.183,0,0,1,681,402.75Z" transform="translate(-426.125 -371.866)" fill="#e3a437"/>
          <path id="Tracé_2366" data-name="Tracé 2366" d="M675.618,403.293a5.426,5.426,0,1,1,5.94,4.234A5.178,5.178,0,0,1,675.618,403.293Z" transform="translate(-434.644 -370.705)" fill="#e3a437"/>
          <path id="Tracé_2367" data-name="Tracé 2367" d="M670.229,403.655a5.421,5.421,0,1,1,5.791,4.434A5.127,5.127,0,0,1,670.229,403.655Z" transform="translate(-443.19 -369.834)" fill="#e3a437"/>
          <path id="Tracé_2368" data-name="Tracé 2368" d="M664.833,403.839a5.419,5.419,0,1,1,5.638,4.625A5.176,5.176,0,0,1,664.833,403.839Z" transform="translate(-451.755 -369.251)" fill="#e3a437"/>
          <path id="Tracé_2369" data-name="Tracé 2369" d="M659.435,403.84a5.418,5.418,0,1,1,5.477,4.814A5.178,5.178,0,0,1,659.435,403.84Z" transform="translate(-460.331 -368.959)" fill="#e3a437"/>
          <path id="Tracé_2370" data-name="Tracé 2370" d="M654.04,403.661a5.417,5.417,0,1,1,5.312,4.993A5.174,5.174,0,0,1,654.04,403.661Z" transform="translate(-468.911 -368.954)" fill="#e3a437"/>
          <path id="Tracé_2371" data-name="Tracé 2371" d="M648.652,403.3a5.419,5.419,0,1,1,5.143,5.169A5.178,5.178,0,0,1,648.652,403.3Z" transform="translate(-477.488 -369.24)" fill="#e3a437"/>
          <path id="Tracé_2372" data-name="Tracé 2372" d="M643.276,402.761a5.429,5.429,0,0,1,10.755.9,5.421,5.421,0,0,1-10.755-.9Z" transform="translate(-486.053 -369.815)" fill="#e3a437"/>
          <path id="Tracé_2373" data-name="Tracé 2373" d="M637.916,402.04a5.435,5.435,0,0,1,10.729,1.264,5.426,5.426,0,0,1-10.729-1.264Z" transform="translate(-494.601 -370.679)" fill="#e3a437"/>
          <path id="Tracé_2374" data-name="Tracé 2374" d="M632.577,401.139a5.434,5.434,0,1,1,4.61,5.664A5.186,5.186,0,0,1,632.577,401.139Z" transform="translate(-503.123 -371.832)" fill="#e3a437"/>
          <path id="Tracé_2375" data-name="Tracé 2375" d="M627.265,400.056a5.44,5.44,0,1,1,4.421,5.819A5.19,5.19,0,0,1,627.265,400.056Z" transform="translate(-511.611 -373.274)" fill="#e3a437"/>
          <path id="Tracé_2376" data-name="Tracé 2376" d="M680.266,397.511a5.24,5.24,0,1,1,5.91,4.058A5.034,5.034,0,0,1,680.266,397.511Z" transform="translate(-427.286 -380.147)" fill="#e3a437"/>
          <path id="Tracé_2377" data-name="Tracé 2377" d="M675.064,398.036a5.235,5.235,0,1,1,5.765,4.255A5.081,5.081,0,0,1,675.064,398.036Z" transform="translate(-435.525 -379.025)" fill="#e3a437"/>
          <path id="Tracé_2378" data-name="Tracé 2378" d="M669.852,398.388a5.23,5.23,0,1,1,5.614,4.449A5.08,5.08,0,0,1,669.852,398.388Z" transform="translate(-443.79 -378.183)" fill="#e3a437"/>
          <path id="Tracé_2379" data-name="Tracé 2379" d="M664.633,398.566a5.232,5.232,0,0,1,10.421-.531,5.227,5.227,0,0,1-10.421.531Z" transform="translate(-452.073 -377.621)" fill="#e3a437"/>
          <path id="Tracé_2380" data-name="Tracé 2380" d="M659.413,398.567a5.225,5.225,0,1,1,5.3,4.814A5.076,5.076,0,0,1,659.413,398.567Z" transform="translate(-460.366 -377.337)" fill="#e3a437"/>
          <path id="Tracé_2381" data-name="Tracé 2381" d="M654.194,398.4a5.231,5.231,0,0,1,10.431.168,5.226,5.226,0,0,1-10.431-.168Z" transform="translate(-468.666 -377.334)" fill="#e3a437"/>
          <path id="Tracé_2382" data-name="Tracé 2382" d="M648.984,398.047a5.232,5.232,0,0,1,10.421.521,5.227,5.227,0,0,1-10.421-.521Z" transform="translate(-476.961 -377.609)" fill="#e3a437"/>
          <path id="Tracé_2383" data-name="Tracé 2383" d="M643.785,397.523a5.236,5.236,0,0,1,10.405.873,5.231,5.231,0,0,1-10.405-.873Z" transform="translate(-485.246 -378.165)" fill="#e3a437"/>
          <path id="Tracé_2384" data-name="Tracé 2384" d="M638.6,396.824a5.24,5.24,0,0,1,10.377,1.225,5.235,5.235,0,0,1-10.377-1.225Z" transform="translate(-493.513 -378.999)" fill="#e3a437"/>
          <path id="Tracé_2385" data-name="Tracé 2385" d="M633.439,395.953a5.246,5.246,0,0,1,10.341,1.575,5.241,5.241,0,0,1-10.341-1.575Z" transform="translate(-501.755 -380.114)" fill="#e3a437"/>
          <path id="Tracé_2386" data-name="Tracé 2386" d="M674.51,392.781a5.05,5.05,0,1,1,5.591,4.276A4.987,4.987,0,0,1,674.51,392.781Z" transform="translate(-436.406 -387.345)" fill="#e3a437"/>
          <path id="Tracé_2387" data-name="Tracé 2387" d="M669.475,393.121a5.047,5.047,0,0,1,10.051-.849,5.045,5.045,0,0,1-10.051.849Z" transform="translate(-444.389 -386.533)" fill="#e3a437"/>
          <path id="Tracé_2388" data-name="Tracé 2388" d="M664.434,393.293a5.044,5.044,0,0,1,10.066-.513,5.041,5.041,0,0,1-10.066.513Z" transform="translate(-452.39 -385.99)" fill="#e3a437"/>
          <path id="Tracé_2389" data-name="Tracé 2389" d="M659.39,393.3a5.043,5.043,0,0,1,10.076-.176,5.041,5.041,0,0,1-10.076.176Z" transform="translate(-460.403 -385.716)" fill="#e3a437"/>
          <path id="Tracé_2390" data-name="Tracé 2390" d="M654.35,393.127a5.043,5.043,0,0,1,10.077.166,5.041,5.041,0,0,1-10.077-.166Z" transform="translate(-468.42 -385.713)" fill="#e3a437"/>
          <path id="Tracé_2391" data-name="Tracé 2391" d="M649.316,392.792a5.045,5.045,0,0,1,10.069.5,5.043,5.043,0,0,1-10.069-.5Z" transform="translate(-476.433 -385.979)" fill="#e3a437"/>
          <path id="Tracé_2392" data-name="Tracé 2392" d="M644.294,392.285a5.047,5.047,0,0,1,10.05.844,5.045,5.045,0,0,1-10.05-.844Z" transform="translate(-484.437 -386.515)" fill="#e3a437"/>
          <path id="Tracé_2393" data-name="Tracé 2393" d="M639.289,391.612a5.05,5.05,0,0,1,10.022,1.181,5.048,5.048,0,0,1-10.022-1.181Z" transform="translate(-492.424 -387.32)" fill="#e3a437"/>
          <path id="Tracé_2394" data-name="Tracé 2394" d="M687.169,406.717c-.456-2.652,1.6-5.218,4.584-5.78s5.837,1.085,6.373,3.722-1.507,5.278-4.573,5.853S687.625,409.369,687.169,406.717Z" transform="translate(-416.344 -365.911)" fill="#e3a437"/>
          <path id="Tracé_2395" data-name="Tracé 2395" d="M692.666,405.788c-.546-2.636,1.427-5.27,4.4-5.936s5.879.888,6.5,3.5-1.331,5.327-4.382,6.006S693.21,408.422,692.666,405.788Z" transform="translate(-407.65 -367.704)" fill="#e3a437"/>
          <path id="Tracé_2396" data-name="Tracé 2396" d="M681.65,407.461c-.368-2.665,1.774-5.161,4.77-5.62s5.788,1.282,6.236,3.936-1.681,5.221-4.763,5.692S682.015,410.126,681.65,407.461Z" transform="translate(-425.082 -364.418)" fill="#e3a437"/>
          <path id="Tracé_2397" data-name="Tracé 2397" d="M676.114,408.021c-.275-2.678,1.945-5.1,4.951-5.456s5.736,1.479,6.1,4.143-1.854,5.164-4.946,5.529S676.391,410.7,676.114,408.021Z" transform="translate(-433.854 -363.222)" fill="#e3a437"/>
          <path id="Tracé_2398" data-name="Tracé 2398" d="M670.568,408.392c-.186-2.683,2.111-5.029,5.128-5.286s5.676,1.67,5.946,4.348-2.025,5.1-5.122,5.358S670.752,411.078,670.568,408.392Z" transform="translate(-442.651 -362.324)" fill="#e3a437"/>
          <path id="Tracé_2399" data-name="Tracé 2399" d="M665.013,408.58c-.1-2.688,2.279-4.954,5.3-5.109s5.615,1.862,5.793,4.545-2.193,5.027-5.3,5.185S665.109,411.268,665.013,408.58Z" transform="translate(-451.469 -361.724)" fill="#e3a437"/>
          <path id="Tracé_2400" data-name="Tracé 2400" d="M659.455,408.583c-.005-2.693,2.445-4.879,5.469-4.931s5.547,2.048,5.635,4.739-2.359,4.949-5.466,5S659.46,411.272,659.455,408.583Z" transform="translate(-460.299 -361.423)" fill="#e3a437"/>
          <path id="Tracé_2401" data-name="Tracé 2401" d="M653.9,408.4c.083-2.691,2.605-4.793,5.63-4.744s5.475,2.235,5.472,4.926-2.525,4.866-5.632,4.817S653.813,411.087,653.9,408.4Z" transform="translate(-469.132 -361.419)" fill="#e3a437"/>
          <path id="Tracé_2402" data-name="Tracé 2402" d="M648.354,408.027c.176-2.683,2.766-4.7,5.788-4.55s5.4,2.416,5.306,5.107-2.688,4.778-5.793,4.623S648.178,410.712,648.354,408.027Z" transform="translate(-477.962 -361.713)" fill="#e3a437"/>
          <path id="Tracé_2403" data-name="Tracé 2403" d="M642.818,407.472c.267-2.678,2.924-4.6,5.943-4.353s5.314,2.6,5.13,5.283-2.846,4.685-5.946,4.426S642.551,410.15,642.818,407.472Z" transform="translate(-486.781 -362.305)" fill="#e3a437"/>
          <path id="Tracé_2404" data-name="Tracé 2404" d="M637.3,406.731c.357-2.665,3.082-4.5,6.091-4.151s5.228,2.776,4.954,5.454-3,4.586-6.1,4.221S636.944,409.4,637.3,406.731Z" transform="translate(-495.58 -363.196)" fill="#e3a437"/>
          <path id="Tracé_2405" data-name="Tracé 2405" d="M631.8,405.8c.445-2.652,3.232-4.4,6.231-3.941s5.141,2.952,4.776,5.617-3.159,4.483-6.241,4.014S631.357,408.457,631.8,405.8Z" transform="translate(-504.352 -364.383)" fill="#e3a437"/>
          <path id="Tracé_2406" data-name="Tracé 2406" d="M626.331,404.692c.536-2.639,3.385-4.286,6.371-3.729s5.042,3.123,4.589,5.778-3.312,4.374-6.381,3.8S625.8,407.325,626.331,404.692Z" transform="translate(-513.091 -365.87)" fill="#e3a437"/>
          <path id="Tracé_2407" data-name="Tracé 2407" d="M620.891,403.391c.624-2.615,3.532-4.167,6.5-3.506s4.944,3.294,4.4,5.928-3.462,4.26-6.513,3.582S620.267,406.006,620.891,403.391Z" transform="translate(-521.788 -367.653)" fill="#e3a437"/>
          <path id="Tracé_2408" data-name="Tracé 2408" d="M688.073,411.934c-.456-2.654,1.678-5.234,4.76-5.814s6.011,1.051,6.549,3.69-1.588,5.291-4.75,5.886S688.529,414.583,688.073,411.934Z" transform="translate(-414.904 -357.683)" fill="#e3a437"/>
          <path id="Tracé_2409" data-name="Tracé 2409" d="M693.744,410.975c-.544-2.634,1.5-5.288,4.571-5.972s6.052.847,6.678,3.462-1.411,5.345-4.558,6.047S694.29,413.608,693.744,410.975Z" transform="translate(-405.931 -359.533)" fill="#e3a437"/>
          <path id="Tracé_2410" data-name="Tracé 2410" d="M699.388,409.826c-.634-2.616,1.328-5.337,4.374-6.127s6.088.637,6.8,3.232-1.232,5.389-4.361,6.2S700.02,412.439,699.388,409.826Z" transform="translate(-397.008 -361.692)" fill="#e3a437"/>
          <path id="Tracé_2411" data-name="Tracé 2411" d="M682.38,412.7c-.368-2.667,1.852-5.174,4.946-5.648s5.964,1.256,6.412,3.908-1.761,5.236-4.938,5.721S682.745,415.363,682.38,412.7Z" transform="translate(-423.921 -356.14)" fill="#e3a437"/>
          <path id="Tracé_2412" data-name="Tracé 2412" d="M676.668,413.276c-.277-2.678,2.023-5.107,5.127-5.477s5.912,1.455,6.27,4.123-1.932,5.172-5.12,5.552S676.942,415.951,676.668,413.276Z" transform="translate(-432.973 -354.905)" fill="#e3a437"/>
          <path id="Tracé_2413" data-name="Tracé 2413" d="M670.944,413.66c-.186-2.683,2.188-5.037,5.3-5.3s5.853,1.655,6.122,4.333-2.1,5.1-5.3,5.376S671.128,416.343,670.944,413.66Z" transform="translate(-442.052 -353.978)" fill="#e3a437"/>
          <path id="Tracé_2414" data-name="Tracé 2414" d="M665.213,413.853c-.1-2.691,2.356-4.962,5.477-5.12s5.79,1.852,5.969,4.537-2.271,5.029-5.474,5.192S665.306,416.539,665.213,413.853Z" transform="translate(-451.151 -353.358)" fill="#e3a437"/>
          <path id="Tracé_2415" data-name="Tracé 2415" d="M659.478,413.855c-.005-2.691,2.522-4.879,5.646-4.934s5.723,2.046,5.811,4.734-2.439,4.952-5.643,5.006S659.483,416.543,659.478,413.855Z" transform="translate(-460.263 -353.047)" fill="#e3a437"/>
          <path id="Tracé_2416" data-name="Tracé 2416" d="M653.746,413.664c.085-2.691,2.685-4.791,5.809-4.739s5.651,2.235,5.648,4.926-2.6,4.866-5.809,4.814S653.661,416.349,653.746,413.664Z" transform="translate(-469.378 -353.042)" fill="#e3a437"/>
          <path id="Tracé_2417" data-name="Tracé 2417" d="M648.022,413.283c.176-2.686,2.846-4.7,5.967-4.542s5.573,2.427,5.48,5.115-2.766,4.778-5.966,4.617S647.845,415.965,648.022,413.283Z" transform="translate(-478.489 -353.347)" fill="#e3a437"/>
          <path id="Tracé_2418" data-name="Tracé 2418" d="M642.308,412.709c.267-2.678,3-4.6,6.119-4.338s5.493,2.61,5.309,5.3-2.926,4.68-6.122,4.41S642.044,415.385,642.308,412.709Z" transform="translate(-487.589 -353.957)" fill="#e3a437"/>
          <path id="Tracé_2419" data-name="Tracé 2419" d="M636.613,411.946c.355-2.667,3.16-4.5,6.267-4.131s5.4,2.8,5.133,5.472-3.084,4.579-6.275,4.2S636.258,414.611,636.613,411.946Z" transform="translate(-496.668 -354.877)" fill="#e3a437"/>
          <path id="Tracé_2420" data-name="Tracé 2420" d="M630.94,410.99c.445-2.654,3.312-4.387,6.407-3.916s5.317,2.978,4.952,5.643-3.237,4.472-6.417,3.988S630.495,413.642,630.94,410.99Z" transform="translate(-505.72 -356.104)" fill="#e3a437"/>
          <path id="Tracé_2421" data-name="Tracé 2421" d="M625.293,409.841c.536-2.636,3.463-4.27,6.544-3.693s5.218,3.154,4.765,5.806-3.39,4.361-6.555,3.768S624.76,412.477,625.293,409.841Z" transform="translate(-514.736 -357.638)" fill="#e3a437"/>
          <path id="Tracé_2422" data-name="Tracé 2422" d="M619.679,408.5c.624-2.618,3.61-4.151,6.676-3.47s5.117,3.333,4.576,5.969-3.54,4.242-6.689,3.543S619.055,411.12,619.679,408.5Z" transform="translate(-523.709 -359.481)" fill="#e3a437"/>
          <path id="Tracé_2423" data-name="Tracé 2423" d="M614.1,406.975c.712-2.6,3.752-4.024,6.8-3.24s5.011,3.507,4.379,6.122-3.685,4.12-6.814,3.312S613.39,409.567,614.1,406.975Z" transform="translate(-532.629 -361.632)" fill="#e3a437"/>
          <path id="Tracé_2424" data-name="Tracé 2424" d="M688.976,417.148c-.456-2.652,1.759-5.244,4.936-5.842s6.184,1.018,6.723,3.654-1.663,5.309-4.923,5.92S689.435,419.8,688.976,417.148Z" transform="translate(-413.464 -349.453)" fill="#e3a437"/>
          <path id="Tracé_2425" data-name="Tracé 2425" d="M694.822,416.161c-.544-2.634,1.582-5.3,4.744-6.008s6.226.805,6.852,3.421-1.489,5.363-4.731,6.086S695.369,418.795,694.822,416.161Z" transform="translate(-404.212 -351.362)" fill="#e3a437"/>
          <path id="Tracé_2426" data-name="Tracé 2426" d="M700.64,414.978c-.635-2.616,1.406-5.356,4.548-6.169s6.262.59,6.977,3.185-1.31,5.412-4.535,6.246S701.272,417.594,700.64,414.978Z" transform="translate(-395.013 -353.59)" fill="#e3a437"/>
          <path id="Tracé_2427" data-name="Tracé 2427" d="M706.423,413.6c-.722-2.592,1.23-5.4,4.348-6.324s6.29.373,7.093,2.942-1.132,5.456-4.332,6.4S707.143,416.189,706.423,413.6Z" transform="translate(-385.874 -356.134)" fill="#e3a437"/>
          <path id="Tracé_2428" data-name="Tracé 2428" d="M683.107,417.939c-.365-2.665,1.932-5.185,5.122-5.674s6.14,1.228,6.588,3.882-1.839,5.249-5.112,5.749S683.475,420.6,683.107,417.939Z" transform="translate(-422.76 -347.862)" fill="#e3a437"/>
          <path id="Tracé_2429" data-name="Tracé 2429" d="M677.22,418.532c-.274-2.678,2.1-5.117,5.3-5.5s6.089,1.435,6.448,4.1-2.012,5.182-5.3,5.573S677.5,421.2,677.22,418.532Z" transform="translate(-432.093 -346.588)" fill="#e3a437"/>
          <path id="Tracé_2430" data-name="Tracé 2430" d="M671.32,418.927c-.187-2.686,2.271-5.042,5.482-5.317s6.029,1.639,6.3,4.317-2.181,5.112-5.474,5.392S671.506,421.61,671.32,418.927Z" transform="translate(-441.454 -345.632)" fill="#e3a437"/>
          <path id="Tracé_2431" data-name="Tracé 2431" d="M665.412,419.124c-.1-2.691,2.437-4.962,5.656-5.128s5.966,1.841,6.145,4.527-2.351,5.037-5.651,5.2S665.508,421.812,665.412,419.124Z" transform="translate(-450.835 -344.992)" fill="#e3a437"/>
          <path id="Tracé_2432" data-name="Tracé 2432" d="M659.5,419.124c0-2.691,2.6-4.876,5.822-4.933s5.9,2.041,5.99,4.731-2.52,4.954-5.822,5.011S659.5,421.815,659.5,419.124Z" transform="translate(-460.226 -344.671)" fill="#e3a437"/>
          <path id="Tracé_2433" data-name="Tracé 2433" d="M653.591,418.928c.085-2.688,2.766-4.788,5.985-4.734s5.829,2.237,5.827,4.928-2.683,4.866-5.985,4.812S653.506,421.616,653.591,418.928Z" transform="translate(-469.624 -344.666)" fill="#e3a437"/>
          <path id="Tracé_2434" data-name="Tracé 2434" d="M647.689,418.537c.176-2.686,2.926-4.693,6.143-4.532s5.751,2.432,5.658,5.122-2.843,4.773-6.145,4.607S647.513,421.219,647.689,418.537Z" transform="translate(-479.017 -344.979)" fill="#e3a437"/>
          <path id="Tracé_2435" data-name="Tracé 2435" d="M641.8,417.945c.267-2.678,3.082-4.589,6.3-4.322s5.669,2.626,5.485,5.309-3.006,4.677-6.3,4.4S641.533,420.623,641.8,417.945Z" transform="translate(-488.397 -345.61)" fill="#e3a437"/>
          <path id="Tracé_2436" data-name="Tracé 2436" d="M635.928,417.158c.357-2.667,3.24-4.483,6.443-4.107s5.581,2.815,5.309,5.493-3.164,4.571-6.451,4.182S635.573,419.823,635.928,417.158Z" transform="translate(-497.756 -346.558)" fill="#e3a437"/>
          <path id="Tracé_2437" data-name="Tracé 2437" d="M630.078,416.174c.448-2.654,3.392-4.371,6.585-3.887s5.49,3,5.125,5.669-3.317,4.462-6.593,3.962S629.633,418.826,630.078,416.174Z" transform="translate(-507.088 -347.825)" fill="#e3a437"/>
          <path id="Tracé_2438" data-name="Tracé 2438" d="M624.256,414.991c.536-2.636,3.543-4.252,6.72-3.659s5.394,3.185,4.938,5.84-3.468,4.345-6.728,3.737S623.722,417.628,624.256,414.991Z" transform="translate(-516.382 -349.408)" fill="#e3a437"/>
          <path id="Tracé_2439" data-name="Tracé 2439" d="M618.468,413.614c.624-2.618,3.685-4.131,6.847-3.429s5.293,3.369,4.75,6.005-3.618,4.226-6.863,3.5S617.844,416.23,618.468,413.614Z" transform="translate(-525.629 -351.309)" fill="#e3a437"/>
          <path id="Tracé_2440" data-name="Tracé 2440" d="M612.716,412.039c.712-2.595,3.83-4,6.971-3.193s5.187,3.551,4.555,6.166-3.763,4.1-6.987,3.268S612,414.631,612.716,412.039Z" transform="translate(-534.825 -353.527)" fill="#e3a437"/>
          <path id="Tracé_2441" data-name="Tracé 2441" d="M607.009,410.266c.8-2.569,3.967-3.866,7.088-2.95s5.076,3.727,4.356,6.322-3.908,3.967-7.106,3.025S606.208,412.835,607.009,410.266Z" transform="translate(-543.959 -356.064)" fill="#e3a437"/>
          <path id="Tracé_2442" data-name="Tracé 2442" d="M689.881,422.364c-.456-2.652,1.834-5.26,5.109-5.876s6.36.984,6.9,3.62-1.743,5.324-5.1,5.954S690.337,425.016,689.881,422.364Z" transform="translate(-412.023 -341.224)" fill="#e3a437"/>
          <path id="Tracé_2443" data-name="Tracé 2443" d="M695.9,421.349c-.544-2.634,1.663-5.319,4.918-6.047s6.4.767,7.026,3.385-1.564,5.381-4.9,6.125S696.447,423.983,695.9,421.349Z" transform="translate(-402.494 -343.193)" fill="#e3a437"/>
          <path id="Tracé_2444" data-name="Tracé 2444" d="M701.892,420.132c-.634-2.616,1.484-5.374,4.721-6.213s6.433.546,7.147,3.139-1.388,5.433-4.706,6.293S702.524,422.745,701.892,420.132Z" transform="translate(-393.017 -345.487)" fill="#e3a437"/>
          <path id="Tracé_2445" data-name="Tracé 2445" d="M707.847,418.713c-.723-2.592,1.308-5.423,4.522-6.373s6.461.324,7.264,2.89-1.209,5.48-4.5,6.453S708.569,421.3,707.847,418.713Z" transform="translate(-383.605 -348.11)" fill="#e3a437"/>
          <path id="Tracé_2446" data-name="Tracé 2446" d="M713.762,417.09c-.81-2.566,1.129-5.464,4.317-6.529s6.485.1,7.373,2.639-1.028,5.519-4.3,6.606S714.573,419.657,713.762,417.09Z" transform="translate(-374.262 -351.061)" fill="#e3a437"/>
          <path id="Tracé_2447" data-name="Tracé 2447" d="M683.837,423.176c-.365-2.667,2.01-5.195,5.3-5.7s6.314,1.2,6.762,3.851-1.916,5.262-5.288,5.777S684.2,425.841,683.837,423.176Z" transform="translate(-421.599 -339.583)" fill="#e3a437"/>
          <path id="Tracé_2448" data-name="Tracé 2448" d="M677.774,423.784c-.277-2.675,2.181-5.122,5.48-5.516s6.265,1.411,6.622,4.079-2.09,5.195-5.472,5.6S678.049,426.46,677.774,423.784Z" transform="translate(-431.212 -338.27)" fill="#e3a437"/>
          <path id="Tracé_2449" data-name="Tracé 2449" d="M671.7,424.191c-.186-2.685,2.349-5.047,5.659-5.327s6.207,1.621,6.477,4.3-2.264,5.12-5.654,5.407S671.884,426.874,671.7,424.191Z" transform="translate(-440.854 -337.283)" fill="#e3a437"/>
          <path id="Tracé_2450" data-name="Tracé 2450" d="M665.611,424.4c-.1-2.688,2.517-4.964,5.832-5.135s6.145,1.831,6.324,4.516-2.432,5.042-5.829,5.213S665.707,427.084,665.611,424.4Z" transform="translate(-450.517 -336.626)" fill="#e3a437"/>
          <path id="Tracé_2451" data-name="Tracé 2451" d="M659.523,424.4c-.005-2.691,2.68-4.876,6-4.936s6.078,2.038,6.166,4.726-2.6,4.957-6,5.016S659.528,427.086,659.523,424.4Z" transform="translate(-460.191 -336.295)" fill="#e3a437"/>
          <path id="Tracé_2452" data-name="Tracé 2452" d="M653.436,424.194c.085-2.688,2.846-4.786,6.163-4.731s6.006,2.24,6,4.931-2.76,4.866-6.163,4.809S653.351,426.882,653.436,424.194Z" transform="translate(-469.871 -336.29)" fill="#e3a437"/>
          <path id="Tracé_2453" data-name="Tracé 2453" d="M647.357,423.789c.176-2.685,3.007-4.687,6.321-4.521s5.928,2.44,5.835,5.13-2.924,4.77-6.322,4.6S647.181,426.472,647.357,423.789Z" transform="translate(-479.545 -336.613)" fill="#e3a437"/>
          <path id="Tracé_2454" data-name="Tracé 2454" d="M641.291,423.181c.267-2.675,3.162-4.581,6.472-4.3s5.847,2.639,5.664,5.322-3.084,4.669-6.477,4.384S641.024,425.858,641.291,423.181Z" transform="translate(-489.205 -337.263)" fill="#e3a437"/>
          <path id="Tracé_2455" data-name="Tracé 2455" d="M635.242,422.371c.357-2.667,3.318-4.472,6.619-4.084s5.76,2.833,5.485,5.511-3.242,4.563-6.627,4.164S634.887,425.039,635.242,422.371Z" transform="translate(-498.845 -338.24)" fill="#e3a437"/>
          <path id="Tracé_2456" data-name="Tracé 2456" d="M629.217,421.359c.445-2.655,3.468-4.359,6.759-3.859s5.664,3.027,5.3,5.695-3.4,4.452-6.767,3.936S628.769,424.011,629.217,421.359Z" transform="translate(-508.454 -339.546)" fill="#e3a437"/>
          <path id="Tracé_2457" data-name="Tracé 2457" d="M623.22,420.142c.534-2.636,3.618-4.237,6.894-3.626s5.568,3.219,5.115,5.871-3.548,4.333-6.9,3.706S622.684,422.779,623.22,420.142Z" transform="translate(-518.026 -341.178)" fill="#e3a437"/>
          <path id="Tracé_2458" data-name="Tracé 2458" d="M617.256,418.724c.624-2.616,3.763-4.112,7.021-3.387s5.467,3.405,4.923,6.042-3.7,4.211-7.033,3.468S616.632,421.34,617.256,418.724Z" transform="translate(-527.551 -343.137)" fill="#e3a437"/>
          <path id="Tracé_2459" data-name="Tracé 2459" d="M611.331,417.1c.712-2.595,3.908-3.98,7.145-3.146s5.358,3.595,4.726,6.21-3.84,4.081-7.16,3.224S610.619,419.7,611.331,417.1Z" transform="translate(-537.021 -345.424)" fill="#e3a437"/>
          <path id="Tracé_2460" data-name="Tracé 2460" d="M605.451,415.282c.8-2.569,4.045-3.846,7.261-2.9s5.247,3.776,4.527,6.368-3.986,3.947-7.28,2.976S604.65,417.848,605.451,415.282Z" transform="translate(-546.428 -348.038)" fill="#e3a437"/>
          <path id="Tracé_2461" data-name="Tracé 2461" d="M598.957,413.009c.9-2.535,4.2-3.682,7.383-2.613s5.115,3.978,4.3,6.542-4.138,3.791-7.4,2.693S598.06,415.547,598.957,413.009Z" transform="translate(-556.824 -351.336)" fill="#e3a437"/>
          <path id="Tracé_2462" data-name="Tracé 2462" d="M690.785,427.58c-.456-2.652,1.914-5.275,5.286-5.907s6.534.948,7.07,3.587-1.818,5.34-5.273,5.987S691.241,430.23,690.785,427.58Z" transform="translate(-410.583 -332.995)" fill="#e3a437"/>
          <path id="Tracé_2463" data-name="Tracé 2463" d="M696.979,426.536c-.544-2.634,1.74-5.335,5.094-6.083s6.573.725,7.2,3.343-1.644,5.4-5.079,6.166S697.526,429.17,696.979,426.536Z" transform="translate(-400.776 -335.022)" fill="#e3a437"/>
          <path id="Tracé_2464" data-name="Tracé 2464" d="M703.143,425.287c-.632-2.615,1.564-5.394,4.9-6.257s6.6.5,7.319,3.092-1.463,5.456-4.879,6.339S703.777,427.9,703.143,425.287Z" transform="translate(-391.023 -337.386)" fill="#e3a437"/>
          <path id="Tracé_2465" data-name="Tracé 2465" d="M709.271,423.827c-.722-2.592,1.383-5.444,4.692-6.422s6.635.272,7.435,2.838-1.284,5.506-4.674,6.505S709.994,426.417,709.271,423.827Z" transform="translate(-381.334 -340.087)" fill="#e3a437"/>
          <path id="Tracé_2466" data-name="Tracé 2466" d="M715.356,422.16c-.808-2.567,1.207-5.49,4.488-6.583s6.653.039,7.544,2.579-1.106,5.547-4.467,6.663S716.167,424.727,715.356,422.16Z" transform="translate(-371.718 -343.126)" fill="#e3a437"/>
          <path id="Tracé_2467" data-name="Tracé 2467" d="M722.378,419.957c-.911-2.53.995-5.534,4.242-6.762s6.671-.233,7.66,2.269-.893,5.591-4.221,6.845S723.287,422.49,722.378,419.957Z" transform="translate(-360.635 -347.083)" fill="#e3a437"/>
          <path id="Tracé_2468" data-name="Tracé 2468" d="M684.566,428.413c-.368-2.665,2.087-5.205,5.472-5.723s6.49,1.171,6.938,3.825-1.994,5.275-5.462,5.8S684.932,431.078,684.566,428.413Z" transform="translate(-420.438 -331.305)" fill="#e3a437"/>
          <path id="Tracé_2469" data-name="Tracé 2469" d="M678.327,429.039c-.275-2.675,2.258-5.13,5.658-5.534s6.438,1.388,6.8,4.055-2.17,5.205-5.651,5.617S678.6,431.714,678.327,429.039Z" transform="translate(-430.332 -329.953)" fill="#e3a437"/>
          <path id="Tracé_2470" data-name="Tracé 2470" d="M672.074,429.458c-.186-2.686,2.427-5.055,5.835-5.343s6.384,1.606,6.653,4.283-2.341,5.128-5.829,5.423S672.26,432.141,672.074,429.458Z" transform="translate(-440.255 -328.937)" fill="#e3a437"/>
          <path id="Tracé_2471" data-name="Tracé 2471" d="M665.812,429.666c-.1-2.688,2.595-4.967,6.008-5.143s6.321,1.821,6.5,4.506-2.509,5.047-6.005,5.223S665.907,432.354,665.812,429.666Z" transform="translate(-450.199 -328.26)" fill="#e3a437"/>
          <path id="Tracé_2472" data-name="Tracé 2472" d="M659.546,429.666c-.005-2.691,2.758-4.876,6.176-4.936s6.254,2.03,6.342,4.721-2.678,4.959-6.174,5.019S659.551,432.356,659.546,429.666Z" transform="translate(-460.155 -327.917)" fill="#e3a437"/>
          <path id="Tracé_2473" data-name="Tracé 2473" d="M653.282,429.461c.085-2.691,2.924-4.783,6.34-4.729s6.184,2.243,6.179,4.933-2.841,4.866-6.339,4.809S653.2,432.149,653.282,429.461Z" transform="translate(-470.115 -327.914)" fill="#e3a437"/>
          <path id="Tracé_2474" data-name="Tracé 2474" d="M647.026,429.044c.176-2.686,3.082-4.682,6.495-4.511s6.107,2.447,6.013,5.135-3,4.77-6.5,4.594S646.85,431.726,647.026,429.044Z" transform="translate(-480.071 -328.245)" fill="#e3a437"/>
          <path id="Tracé_2475" data-name="Tracé 2475" d="M640.783,428.42c.267-2.678,3.24-4.576,6.648-4.291s6.024,2.652,5.84,5.337-3.165,4.664-6.653,4.371S640.516,431.095,640.783,428.42Z" transform="translate(-490.013 -328.916)" fill="#e3a437"/>
          <path id="Tracé_2476" data-name="Tracé 2476" d="M634.556,427.585c.357-2.667,3.4-4.462,6.8-4.063s5.936,2.854,5.661,5.531-3.32,4.555-6.8,4.146S634.2,430.253,634.556,427.585Z" transform="translate(-499.933 -329.923)" fill="#e3a437"/>
          <path id="Tracé_2477" data-name="Tracé 2477" d="M628.355,426.544c.446-2.652,3.548-4.345,6.935-3.83s5.84,3.053,5.477,5.721-3.475,4.441-6.943,3.911S627.91,429.2,628.355,426.544Z" transform="translate(-509.821 -331.267)" fill="#e3a437"/>
          <path id="Tracé_2478" data-name="Tracé 2478" d="M622.183,425.3c.536-2.639,3.7-4.224,7.067-3.594s5.744,3.25,5.291,5.9-3.626,4.32-7.08,3.672S621.647,427.93,622.183,425.3Z" transform="translate(-519.671 -332.948)" fill="#e3a437"/>
          <path id="Tracé_2479" data-name="Tracé 2479" d="M616.044,423.835c.624-2.616,3.841-4.092,7.2-3.348s5.638,3.444,5.1,6.081-3.773,4.193-7.21,3.431S615.42,426.451,616.044,423.835Z" transform="translate(-529.473 -334.965)" fill="#e3a437"/>
          <path id="Tracé_2480" data-name="Tracé 2480" d="M609.946,422.172c.712-2.595,3.985-3.962,7.319-3.1s5.531,3.638,4.9,6.254-3.918,4.063-7.334,3.18S609.233,424.764,609.946,422.172Z" transform="translate(-539.218 -337.321)" fill="#e3a437"/>
          <path id="Tracé_2481" data-name="Tracé 2481" d="M603.893,420.3c.8-2.569,4.123-3.82,7.432-2.846s5.417,3.825,4.7,6.42-4.058,3.926-7.451,2.926S603.093,422.865,603.893,420.3Z" transform="translate(-548.897 -340.013)" fill="#e3a437"/>
          <path id="Tracé_2482" data-name="Tracé 2482" d="M597.208,417.961c.9-2.538,4.273-3.657,7.554-2.556s5.286,4.035,4.47,6.6-4.213,3.765-7.575,2.636S596.312,420.5,597.208,417.961Z" transform="translate(-559.594 -343.41)" fill="#e3a437"/>
          <path id="Tracé_2483" data-name="Tracé 2483" d="M590.4,415.293c1-2.5,4.423-3.486,7.668-2.253s5.146,4.247,4.229,6.775-4.366,3.6-7.691,2.333S589.41,417.789,590.4,415.293Z" transform="translate(-570.491 -347.342)" fill="#e3a437"/>
          <path id="Tracé_2484" data-name="Tracé 2484" d="M691.689,432.8c-.456-2.652,1.994-5.286,5.462-5.938s6.707.917,7.246,3.553-1.9,5.356-5.449,6.021S692.145,435.447,691.689,432.8Z" transform="translate(-409.144 -324.767)" fill="#e3a437"/>
          <path id="Tracé_2485" data-name="Tracé 2485" d="M698.058,431.727c-.544-2.636,1.818-5.353,5.267-6.122s6.746.684,7.372,3.3-1.722,5.418-5.252,6.2S698.6,434.361,698.058,431.727Z" transform="translate(-399.057 -326.852)" fill="#e3a437"/>
          <path id="Tracé_2486" data-name="Tracé 2486" d="M704.395,430.44c-.632-2.616,1.642-5.41,5.068-6.3s6.78.453,7.495,3.048-1.544,5.475-5.053,6.381S705.029,433.056,704.395,430.44Z" transform="translate(-389.027 -329.284)" fill="#e3a437"/>
          <path id="Tracé_2487" data-name="Tracé 2487" d="M710.7,428.942c-.723-2.592,1.46-5.464,4.864-6.472s6.806.218,7.608,2.789-1.365,5.526-4.848,6.555S711.419,431.534,710.7,428.942Z" transform="translate(-379.063 -332.064)" fill="#e3a437"/>
          <path id="Tracé_2488" data-name="Tracé 2488" d="M716.953,427.231c-.811-2.566,1.279-5.513,4.656-6.64s6.824-.018,7.715,2.522-1.181,5.573-4.638,6.723S717.761,429.794,716.953,427.231Z" transform="translate(-369.173 -335.191)" fill="#e3a437"/>
          <path id="Tracé_2489" data-name="Tracé 2489" d="M723.161,425.3c-.9-2.538,1.1-5.557,4.446-6.8s6.839-.259,7.813,2.25-1,5.612-4.423,6.883S724.059,427.84,723.161,425.3Z" transform="translate(-359.369 -338.664)" fill="#e3a437"/>
          <path id="Tracé_2490" data-name="Tracé 2490" d="M730.315,422.795c-1-2.5.888-5.6,4.2-6.982s6.847-.539,7.922,1.927-.785,5.656-4.172,7.065S731.312,425.294,730.315,422.795Z" transform="translate(-348.08 -343.141)" fill="#e3a437"/>
          <path id="Tracé_2491" data-name="Tracé 2491" d="M685.3,433.654c-.367-2.667,2.165-5.218,5.648-5.752s6.666,1.145,7.114,3.8-2.075,5.288-5.641,5.835S685.661,436.316,685.3,433.654Z" transform="translate(-419.277 -323.028)" fill="#e3a437"/>
          <path id="Tracé_2492" data-name="Tracé 2492" d="M678.88,434.295c-.277-2.678,2.339-5.141,5.832-5.555s6.616,1.367,6.974,4.035-2.248,5.216-5.824,5.638S679.155,436.97,678.88,434.295Z" transform="translate(-429.451 -321.636)" fill="#e3a437"/>
          <path id="Tracé_2493" data-name="Tracé 2493" d="M672.451,434.723c-.187-2.686,2.507-5.058,6.01-5.355s6.56,1.59,6.829,4.268-2.419,5.135-6.006,5.438S672.634,437.406,672.451,434.723Z" transform="translate(-439.655 -320.591)" fill="#e3a437"/>
          <path id="Tracé_2494" data-name="Tracé 2494" d="M666.01,434.936c-.093-2.688,2.675-4.97,6.187-5.148s6.5,1.81,6.676,4.5-2.587,5.05-6.182,5.234S666.106,437.627,666.01,434.936Z" transform="translate(-449.882 -319.892)" fill="#e3a437"/>
          <path id="Tracé_2495" data-name="Tracé 2495" d="M659.568,434.937c-.005-2.691,2.841-4.879,6.355-4.939s6.43,2.028,6.518,4.718-2.755,4.959-6.352,5.021S659.573,437.628,659.568,434.937Z" transform="translate(-460.12 -319.541)" fill="#e3a437"/>
          <path id="Tracé_2496" data-name="Tracé 2496" d="M653.127,434.725c.086-2.691,3-4.781,6.516-4.724s6.363,2.243,6.358,4.933-2.919,4.866-6.516,4.806S653.042,437.413,653.127,434.725Z" transform="translate(-470.362 -319.536)" fill="#e3a437"/>
          <path id="Tracé_2497" data-name="Tracé 2497" d="M646.694,434.3c.176-2.686,3.162-4.677,6.673-4.5s6.283,2.455,6.189,5.146-3.084,4.765-6.676,4.584S646.518,436.982,646.694,434.3Z" transform="translate(-480.598 -319.879)" fill="#e3a437"/>
          <path id="Tracé_2498" data-name="Tracé 2498" d="M640.273,433.654c.267-2.678,3.32-4.565,6.826-4.273s6.2,2.665,6.016,5.35-3.242,4.659-6.832,4.359S640.009,436.332,640.273,433.654Z" transform="translate(-490.821 -320.568)" fill="#e3a437"/>
          <path id="Tracé_2499" data-name="Tracé 2499" d="M633.871,432.8c.357-2.667,3.475-4.454,6.972-4.043s6.111,2.875,5.837,5.552-3.4,4.545-6.976,4.123S633.516,435.466,633.871,432.8Z" transform="translate(-501.021 -321.605)" fill="#e3a437"/>
          <path id="Tracé_2500" data-name="Tracé 2500" d="M627.493,431.731c.446-2.654,3.628-4.333,7.111-3.8s6.016,3.079,5.653,5.747-3.556,4.428-7.119,3.884S627.048,434.383,627.493,431.731Z" transform="translate(-511.189 -322.988)" fill="#e3a437"/>
          <path id="Tracé_2501" data-name="Tracé 2501" d="M621.145,430.446c.536-2.636,3.776-4.206,7.243-3.558s5.918,3.281,5.464,5.933-3.7,4.307-7.254,3.644S620.611,433.082,621.145,430.446Z" transform="translate(-521.317 -324.717)" fill="#e3a437"/>
          <path id="Tracé_2502" data-name="Tracé 2502" d="M614.833,428.949c.624-2.618,3.921-4.076,7.37-3.31s5.814,3.481,5.27,6.117-3.851,4.177-7.383,3.392S614.208,431.564,614.833,428.949Z" transform="translate(-531.394 -326.794)" fill="#e3a437"/>
          <path id="Tracé_2503" data-name="Tracé 2503" d="M608.561,427.237c.712-2.595,4.063-3.939,7.492-3.056s5.7,3.68,5.07,6.3-4,4.045-7.5,3.139S607.848,429.829,608.561,427.237Z" transform="translate(-541.414 -329.217)" fill="#e3a437"/>
          <path id="Tracé_2504" data-name="Tracé 2504" d="M602.335,425.311c.8-2.569,4.2-3.8,7.6-2.794s5.591,3.874,4.871,6.466-4.136,3.905-7.621,2.877S601.535,427.878,602.335,425.311Z" transform="translate(-551.366 -331.987)" fill="#e3a437"/>
          <path id="Tracé_2505" data-name="Tracé 2505" d="M595.461,422.913c.9-2.538,4.348-3.631,7.723-2.5s5.456,4.089,4.638,6.653-4.289,3.742-7.743,2.579S594.565,425.448,595.461,422.913Z" transform="translate(-562.363 -335.483)" fill="#e3a437"/>
          <path id="Tracé_2506" data-name="Tracé 2506" d="M589.784,420.712c.979-2.507,4.47-3.488,7.816-2.245s5.34,4.265,4.444,6.8-4.413,3.6-7.839,2.328S588.808,423.219,589.784,420.712Z" transform="translate(-571.45 -338.725)" fill="#e3a437"/>
          <path id="Tracé_2507" data-name="Tracé 2507" d="M582.856,417.74c1.075-2.465,4.612-3.3,7.919-1.927s5.192,4.483,4.2,6.982-4.56,3.423-7.945,2.01S581.781,420.2,582.856,417.74Z" transform="translate(-582.551 -343.141)" fill="#e3a437"/>
        </g>
        <g id="Groupe_283" data-name="Groupe 283" transform="translate(0 285.181)">
          <g id="Groupe_282" data-name="Groupe 282">
            <path id="Tracé_2508" data-name="Tracé 2508" d="M605.076,505.21c0,.176-.35.352-.526.352-.044,0-.088-.044-.132-.088l-1.937-4.441a1.346,1.346,0,0,0-.878-.881,32.11,32.11,0,0,0-5.366-.7c-.13,2.595-.308,10.027-.4,12.361-.044,2.463-.173,10.687-.173,12.443,0,.44.173.531.482.572l2.2.4c.135,0,.22.264.22.531,0,.086,0,.13-.132.13-.966-.044-3.387-.088-5.936-.088-2.331,0-4.485.044-5.454.088-.132,0-.132-.044-.132-.088,0-.22.088-.572.22-.572l2.243-.438c.308-.044.352-.179.352-.617.041-1.758-.132-10.467-.179-12.537,0-1.756-.174-9.939-.22-12.182a36.314,36.314,0,0,0-5.275.66,1.531,1.531,0,0,0-.968.925l-2.023,4.4c-.044.088-.088.132-.176.132-.132,0-.528-.22-.528-.352l.44-6.464a.277.277,0,0,1,.308-.308c.35,0,1.189.042,2.991.13,1.847.047,4.617.132,8.753.132,4,0,6.772-.042,8.619-.132,1.849-.042,2.771-.088,3.079-.088.176,0,.264.088.264.308Z" transform="translate(-580.36 -495.924)" fill="#f3525d"/>
            <path id="Tracé_2509" data-name="Tracé 2509" d="M608.576,509.933a1.323,1.323,0,0,1-.878,1.233c-1.629.528-9.59.528-11.656.352a14.569,14.569,0,0,0,.22,2.991c.748,3.3,3.211,5.366,5.762,5.366a14.205,14.205,0,0,0,2.945-.308,16.752,16.752,0,0,0,3.214-1.142c.088-.046.22.22.22.526,0,.135-.091.176-.179.264a23.19,23.19,0,0,1-5.058,2.2,11.863,11.863,0,0,1-3.869.44c-5.542,0-9.633-2.595-9.633-9.059,0-5.938,4.312-11.656,10.556-11.656,5.9,0,8.357,5.058,8.357,8.753Zm-9.147-7.914c-1.714,0-3.475,2.595-3.387,8.706a21.4,21.4,0,0,0,5.671-.264c.355-.176.619-.482.619-1.409,0-2.372-.528-7.078-2.859-7.078Z" transform="translate(-565.57 -491.632)" fill="#f3525d"/>
            <path id="Tracé_2510" data-name="Tracé 2510" d="M598.153,513.014a11.537,11.537,0,0,1,4.444-9.105,13,13,0,0,1,8.445-2.771,10.13,10.13,0,0,1,3.784.528c.132.044.217.174.217.394l.264,4.752c0,.132-.4.352-.528.352-.088,0-.129,0-.174-.088-.66-1.274-1.365-2.683-1.981-3.74a2.285,2.285,0,0,0-.79-.924,2.546,2.546,0,0,0-1.541-.394c-1.582,0-3.035,1.274-4.221,3.825a15.158,15.158,0,0,0-1.321,6.511c0,5.143,2.683,7.564,5.894,7.564a10.649,10.649,0,0,0,2.243-.264,11.789,11.789,0,0,0,2.9-1.01c.088-.047.22.13.22.394,0,.176-.044.308-.176.352a22.472,22.472,0,0,1-4.4,2.023,10.071,10.071,0,0,1-3.649.44c-5.366,0-9.634-2.333-9.634-8.8Z" transform="translate(-552.075 -491.632)" fill="#f3525d"/>
            <path id="Tracé_2511" data-name="Tracé 2511" d="M614.769,497.475c.262-.047.35.132.35.394,0,.352-.484,14.779-.616,18.252,0,.4-.044.927-.085,1.453h.218a12.063,12.063,0,0,1,.44-1.318c1.23-3.431,4.573-9.281,9.1-9.281,3.563,0,5.278,3.563,5.278,9.281,0,3.869-.35,7.652-.482,9.147-.047.7.044.88.352.966l2.111.44c.086,0,.22.267.22.528,0,.044-.044.088-.135.088-.79-.044-2.68-.088-5.231-.088-2.595,0-4.617.044-5.542.088-.132,0-.132-.044-.132-.088,0-.176.044-.528.176-.528l2.2-.394c.352-.047.44-.22.484-.619.132-1.142.22-3.69.22-6.42,0-4.177-.572-8.313-2.9-8.313-2.463,0-4.97,4.356-6.024,9.634a38.081,38.081,0,0,0-.4,5.146c0,.393.179.484.484.526l2.157.44c.085,0,.22.267.22.487,0,.085,0,.13-.135.13-.922-.044-3.167-.088-5.63-.088-2.416,0-4.4.044-5.1.088-.129,0-.129-.044-.129-.13,0-.179.129-.487.22-.487l2.111-.482c.264-.044.305-.179.352-.531.041-1.186-.047-10.377-.047-12.884,0-1.935-.132-11.568-.173-13.194,0-.4-.088-.572-.487-.616l-2.68-.132c-.135,0-.264-.264-.264-.528,0-.044,0-.132.13-.132Z" transform="translate(-540.764 -497.467)" fill="#f3525d"/>
            <path id="Tracé_2512" data-name="Tracé 2512" d="M631.864,498.506c1.536,0,2.724.044,3.69.085a.453.453,0,0,1,.355.179c1.406,4.749,5.935,19.922,7.7,25.332a.938.938,0,0,0,.57.572l1.626.438c.135.044.22.264.22.572,0,.044-.042.088-.13.088-.925,0-3.035-.088-5.234-.088-2.463,0-4.838.044-6.026.088-.132,0-.132-.044-.132-.088,0-.262.132-.572.264-.614l2.378-.4c.349-.044.393-.352.305-.7-.484-1.453-2.111-5.674-2.595-7.171-1.979.044-7.08.179-9.367.352-.132,0-.264.132-.308.352-.264,1.277-1.1,4.837-1.365,6.42-.042.531.132.66.44.751l2.287.438c.135,0,.264.311.264.572,0,.088-.044.088-.129.088-1.1-.044-2.862-.088-4.62-.088-1.5,0-2.812.044-3.693.088-.088,0-.088-.044-.088-.13,0-.135.088-.531.22-.572l1.1-.355c.352-.086.572-.262.793-.792,2.155-5.275,6.728-18.778,8.707-24.144.4-1.054.968-1.274,2.727-1.274Zm-2.375,3.473a14.511,14.511,0,0,0-.44,1.5c-1.1,3.649-2.509,8.751-3.343,11.786a.24.24,0,0,0,.22.308,82.944,82.944,0,0,0,8.618.4c-.746-2.111-3.032-8.489-4.221-12.446-.132-.4-.308-.924-.572-1.541Z" transform="translate(-520.09 -495.816)" fill="#f3525d"/>
            <path id="Tracé_2513" data-name="Tracé 2513" d="M646.436,507.85c.091,0,.135.041.135.129,0,.22-.135.7-.264.751l-7.477.526c-.088,2.859-.22,7.52-.267,8.269-.041,1.406-.085,7.212-.085,8.266.044.4.22.531.526.572l3.872.4c.132,0,.22.352.22.572,0,.044-.044.088-.13.088-2.245-.044-4.752-.088-7.171-.088-2.507,0-4.485.044-5.762.088-.088,0-.088-.044-.088-.088,0-.132.088-.528.22-.528l2.375-.394c.308-.047.44-.22.44-.572,0-1.673-.22-6.64-.262-8.753-.047-1.761-.22-6.992-.22-7.785l-3.434.088c-.088,0-.13-.044-.13-.176a2.99,2.99,0,0,1,.174-.792.792.792,0,0,1,.792-.658h2.639c.264-5.19,3.343-10.291,10.908-10.291a8.372,8.372,0,0,1,3.519.572.276.276,0,0,1,.22.262l.262,4.75c0,.176-.394.44-.573.44-.041,0-.088-.044-.173-.173-.66-1.233-1.453-2.815-1.981-3.74a2.226,2.226,0,0,0-.7-.836,2.055,2.055,0,0,0-1.233-.394c-2.2,0-3.869,3.3-3.957,9.367Z" transform="translate(-503.141 -497.463)" fill="#f3525d"/>
            <path id="Tracé_2514" data-name="Tracé 2514" d="M644.691,511.647c.088-.482.176-.875.22-1.142,1.013-4.177,3.3-9.367,7.3-9.367a2.441,2.441,0,0,1,1.406.352.394.394,0,0,1,.135.308l.305,6.112c0,.176-.393.4-.482.4-.044,0-.088,0-.132-.088-.528-1.01-1.233-2.2-1.761-3.035a1.559,1.559,0,0,0-1.23-.748c-2.419,0-4.486,4.4-5.674,10.382a44.235,44.235,0,0,0-.44,5.19c0,.393.179.484.484.526l3.431.487c.088,0,.22.306.22.44,0,.085,0,.13-.088.13-1.233-.044-3.784-.088-6.772-.088-2.595,0-4.884.044-5.41.088-.088,0-.088-.044-.088-.088,0-.22.088-.482.22-.482l2.2-.44a.5.5,0,0,0,.394-.572c0-1.142-.088-6.6-.13-8.359-.047-1.888-.088-6.42-.179-7.65,0-.4-.085-.66-.482-.7l-1.981-.132c-.173,0-.262-.352-.262-.528,0-.085,0-.174.129-.174l8.533-1.277c.352-.088.44.088.44.4,0,.66-.261,6.378-.44,8.795,0,.4-.041.924-.041,1.274Z" transform="translate(-492.076 -491.632)" fill="#f3525d"/>
            <path id="Tracé_2515" data-name="Tracé 2515" d="M652.255,506.052a.32.32,0,0,1,.394.352c-.086,1.758-.306,7.829-.35,9.983-.044,1.981-.132,6.86-.132,8.533,0,.393.088.484.4.572l2.2.44c.088,0,.22.306.22.44,0,.086,0,.13-.09.13-1.054-.044-3.12-.088-5.5-.088-2.416,0-4.483.044-5.363.088-.132,0-.132-.044-.132-.088,0-.176.088-.44.22-.482l2.067-.487c.308-.086.484-.174.484-.572,0-.966-.132-6.244-.176-8.4-.044-1.8-.176-6.466-.22-7.564-.044-.352-.088-.66-.484-.66l-1.979-.088c-.132,0-.308-.308-.308-.57,0-.047,0-.091.088-.091Zm-3.211-8a2.856,2.856,0,0,1,2.991,2.859A2.984,2.984,0,0,1,649,503.939a2.957,2.957,0,1,1,0-5.891Z" transform="translate(-479.985 -496.545)" fill="#f3525d"/>
            <path id="Tracé_2516" data-name="Tracé 2516" d="M648.765,513.014a11.529,11.529,0,0,1,4.444-9.105,13,13,0,0,1,8.442-2.771,10.121,10.121,0,0,1,3.784.528c.132.044.218.174.218.394l.267,4.752c0,.132-.4.352-.528.352-.09,0-.132,0-.176-.088-.66-1.274-1.364-2.683-1.978-3.74a2.313,2.313,0,0,0-.793-.924,2.541,2.541,0,0,0-1.541-.394c-1.582,0-3.035,1.274-4.221,3.825a15.157,15.157,0,0,0-1.318,6.511c0,5.143,2.683,7.564,5.892,7.564a10.648,10.648,0,0,0,2.242-.264,11.715,11.715,0,0,0,2.9-1.01c.088-.047.22.13.22.394,0,.176-.041.308-.176.352a22.363,22.363,0,0,1-4.4,2.023,10.088,10.088,0,0,1-3.651.44c-5.366,0-9.631-2.333-9.631-8.8Z" transform="translate(-471.618 -491.632)" fill="#f3525d"/>
            <path id="Tracé_2517" data-name="Tracé 2517" d="M669.6,509.713a15.99,15.99,0,0,0-.4-2.683c-.528-2.02-1.758-3.693-3.871-3.693s-4.089.925-6.376,2.9c-.044.044-.091.088-.132.088-.132,0-.484-.526-.264-.746a13.568,13.568,0,0,1,10.292-4.444c5.891,0,6.819,4.97,6.819,9.413,0,.834-.091,3.341-.179,4.837-.088,1.976-.173,3.913-.173,4.618,0,.306.085.44.438.526l1.849.44a.489.489,0,0,1,.262.44c0,.088-.041.132-.174.132-.528-.044-2.333-.044-4.048-.044-1.5,0-2.419,0-3.165.044-.135,0-.22-.044-.22-.22-.047-.352-.135-1.935-.135-2.9,0-.22-.044-.88-.044-1.233l-.129-.088c-.179.352-.4.749-.619,1.1a8.089,8.089,0,0,1-6.992,3.649,5.634,5.634,0,0,1-5.85-5.894c0-3.957,2.553-8.049,8.225-8.049a6.465,6.465,0,0,1,3.827,1.142,6.032,6.032,0,0,1,.878.707Zm-3.957,9.9c1.714,0,3.3-1.673,4.131-4.089a4.765,4.765,0,0,0,.308-1.585,4.34,4.34,0,0,0-.394-1.67c-.575-1.494-1.937-3.255-3.827-3.255-2.243,0-3.253,2.856-3.253,5.85,0,3.077,1.23,4.749,2.989,4.749Z" transform="translate(-459.338 -491.632)" fill="#f3525d"/>
            <path id="Tracé_2518" data-name="Tracé 2518" d="M690.877,521.024c.132,0,.22.306.22.482,0,.044,0,.088-.088.088-1.5-.044-3.035-.088-5.586-.088-2.507,0-4.4.044-5.5.088-.088,0-.129-.044-.129-.088,0-.132.086-.482.217-.482l2.111-.487a.613.613,0,0,0,.528-.614c.088-.924.22-4.356.22-6.378,0-3.828-.528-8.266-2.991-8.266-2.111,0-4.268,3.343-5.586,8.706a29.991,29.991,0,0,0-.658,5.98c0,.4.129.531.394.572l2.157.487c.132,0,.217.306.217.482,0,.044-.044.088-.132.088-1.714-.044-3.121-.088-5.5-.088s-4.043.044-5.363.088c-.088,0-.088-.044-.088-.088,0-.176.088-.482.22-.528l2.242-.394c.261-.088.394-.22.394-.619,0-1.315-.086-6.464-.086-8.4-.047-1.5-.176-6.42-.22-7.564-.047-.4-.047-.66-.44-.7l-1.934-.132c-.135,0-.267-.308-.267-.528,0-.085,0-.132.132-.132l8.533-1.362c.266-.044.352.088.352.352-.044.616-.264,6.2-.352,8.575,0,.44-.042,1.013-.088,1.5l.22.044c.135-.44.308-1.013.4-1.233,1.233-3.913,4.576-9.235,8.885-9.235,3.517,0,5.322,3.3,5.322,9.414,0,3.253-.311,7.344-.484,9.188-.044.44.044.66.484.751Z" transform="translate(-445.438 -491.637)" fill="#f3525d"/>
            <path id="Tracé_2519" data-name="Tracé 2519" d="M692,523.61c.132-.484.308-.969.44-1.406,1.582-5.806,4-15.043,5.41-21.2.264-1.274.44-1.362,2.947-1.582a12.588,12.588,0,0,1,1.582-.132.384.384,0,0,1,.4.308c1.453,5.41,4.048,16.934,5.41,22.869a10.081,10.081,0,0,0,.4,1.233h.22c.132-.352.264-.922.352-1.277,1.274-5.5,3.167-15.17,4.133-22.033.044-.484-.085-.748-.4-.792l-2.064-.308c-.179-.041-.267-.4-.267-.614,0-.088,0-.135.088-.135h8.445a.119.119,0,0,1,.132.135c0,.217-.088.526-.22.572l-.966.305a.973.973,0,0,0-.792.792c-1.23,4.312-6.07,20.057-7.7,24.188-.308.969-.57,1.059-3.869,1.145h-1.759a.471.471,0,0,1-.4-.305c-1.362-4.356-3.343-10.294-4.353-14.251-.179-.572-.4-1.585-.661-2.507h-.264c-.264.966-.616,2.111-.88,2.947-.969,2.856-3.3,9.807-4.659,13.018-.4.922-.619,1.013-4.444,1.1h-1.365c-.22,0-.308-.085-.4-.352-1.274-4.309-4.353-17.592-6.068-25.244-.088-.308-.22-.528-.528-.572l-1.142-.22c-.132-.041-.267-.4-.267-.614a.121.121,0,0,1,.135-.135h12.006c.132,0,.132.047.132.179,0,.173-.132.528-.308.57l-2.2.308a.539.539,0,0,0-.441.66c.7,4.75,2.551,15.963,3.6,21.86.091.349.22.966.311,1.494Z" transform="translate(-424.358 -495.763)" fill="#f3525d"/>
            <path id="Tracé_2520" data-name="Tracé 2520" d="M703.477,521.853c-6.2,0-9.633-3.781-9.633-9.411,0-5.894,3.7-11.3,11.832-11.3,6.9,0,9.807,4.4,9.807,9.634,0,5.8-3.913,11.081-11.964,11.081Zm1.362-.834c3.123,0,4.045-4.048,4.045-9.634,0-5.058-1.23-9.411-4.219-9.411-2.906,0-4.268,3.869-4.268,9.719,0,5.058,1.582,9.325,4.4,9.325Z" transform="translate(-399.958 -491.632)" fill="#f3525d"/>
            <path id="Tracé_2521" data-name="Tracé 2521" d="M742.173,520.972c.13.047.22.308.22.487,0,.085,0,.13-.132.13-1.321-.044-2.815-.088-5.278-.088s-4.356.044-5.41.088c-.132,0-.132-.044-.132-.088,0-.176.088-.482.22-.528l1.979-.482c.264-.044.4-.22.44-.531.129-1.142.129-5.011.129-6.244,0-4.309-.7-8.489-3.076-8.489-2.859,0-4.576,5.058-5.19,9.149a49.873,49.873,0,0,0-.4,5.5c0,.352.135.484.484.572l2.375.526c.132.047.22.308.22.487,0,.085,0,.13-.088.13-1.406-.044-3.077-.088-5.586-.088s-4.221.044-5.363.088c-.132,0-.132-.044-.132-.13,0-.135.042-.44.22-.487l1.888-.482c.352-.091.44-.22.487-.573.129-1.013.086-4.4.086-5.982,0-4.485-.526-8.709-3.035-8.709-2.639,0-4.483,4.576-5.275,8.885-.176,1.45-.4,4.177-.4,5.848a.458.458,0,0,0,.4.531l2.022.482c.176.047.264.308.264.487,0,.085,0,.13-.132.13-1.849-.044-3.082-.088-5.456-.088-2.284,0-3.561.044-5.011.088-.132,0-.132-.044-.132-.088,0-.176.086-.482.22-.528l1.979-.44c.261-.086.44-.174.44-.572,0-1.935-.088-6.684-.088-8.663-.044-1.453-.132-6.244-.264-7.432-.044-.4-.088-.658-.484-.7l-1.891-.088c-.132,0-.267-.264-.267-.526,0-.088,0-.135.179-.179l8.486-1.186c.267-.044.308.088.308.308,0,.528-.22,5.586-.393,7.917,0,.352-.088.966-.088,1.406l.261.088c.132-.528.308-1.1.4-1.362,1.186-3.3,3.825-8.4,8.575-8.4,3.209,0,4.97,3.035,5.1,7.785V510.2l.176.042c.088-.308.264-.922.4-1.318,1.01-2.947,3.693-7.785,8.4-7.785,3.209,0,5.189,3.076,5.189,9.281,0,3.341-.4,8.134-.484,9.32,0,.487.085.619.44.707Z" transform="translate(-385.359 -491.632)" fill="#f3525d"/>
            <path id="Tracé_2522" data-name="Tracé 2522" d="M737.917,509.933a1.323,1.323,0,0,1-.878,1.233c-1.629.528-9.59.528-11.656.352a14.566,14.566,0,0,0,.22,2.991c.748,3.3,3.211,5.366,5.759,5.366a14.213,14.213,0,0,0,2.947-.308,16.671,16.671,0,0,0,3.211-1.142c.091-.046.22.22.22.526,0,.135-.088.176-.176.264a23.244,23.244,0,0,1-5.058,2.2,11.862,11.862,0,0,1-3.869.44c-5.542,0-9.633-2.595-9.633-9.059,0-5.938,4.312-11.656,10.555-11.656,5.9,0,8.357,5.058,8.357,8.753Zm-9.149-7.914c-1.714,0-3.473,2.595-3.385,8.706a21.4,21.4,0,0,0,5.671-.264c.355-.176.619-.482.619-1.409,0-2.372-.531-7.078-2.859-7.078Z" transform="translate(-359.959 -491.632)" fill="#f3525d"/>
            <path id="Tracé_2523" data-name="Tracé 2523" d="M752.778,521.024c.132,0,.22.306.22.482,0,.044,0,.088-.088.088-1.494-.044-3.035-.088-5.583-.088-2.509,0-4.4.044-5.5.088-.091,0-.132-.044-.132-.088,0-.132.086-.482.22-.482l2.108-.487a.611.611,0,0,0,.528-.614c.091-.924.22-4.356.22-6.378,0-3.828-.528-8.266-2.991-8.266-2.108,0-4.265,3.343-5.583,8.706a29.8,29.8,0,0,0-.661,5.98c0,.4.132.531.394.572l2.157.487c.132,0,.217.306.217.482,0,.044-.041.088-.132.088-1.715-.044-3.121-.088-5.5-.088s-4.043.044-5.363.088c-.088,0-.088-.044-.088-.088,0-.176.088-.482.22-.528l2.243-.394c.264-.088.394-.22.394-.619,0-1.315-.086-6.464-.086-8.4-.044-1.5-.176-6.42-.22-7.564-.044-.4-.044-.66-.44-.7l-1.935-.132c-.132,0-.264-.308-.264-.528,0-.085,0-.132.132-.132l8.53-1.362c.267-.044.352.088.352.352-.042.616-.262,6.2-.352,8.575,0,.44-.041,1.013-.088,1.5l.22.044c.135-.44.308-1.013.4-1.233,1.23-3.913,4.573-9.235,8.882-9.235,3.52,0,5.322,3.3,5.322,9.414,0,3.253-.308,7.344-.484,9.188-.044.44.044.66.484.751Z" transform="translate(-347.03 -491.637)" fill="#f3525d"/>
          </g>
        </g>
      </g>
      <g id="Groupe_285" data-name="Groupe 285" transform="translate(93.701 338.79)">
        <path id="Tracé_2524" data-name="Tracé 2524" d="M644.4,547.117c0,7.378-6.992,12.588-19.33,12.588a26.086,26.086,0,0,1-6.992-.7.752.752,0,0,1-.572-.637l-.956-8.647c-.062-.192.637-.635.829-.635.127,0,.191.062.254.189,1.21,2.162,2.354,4.452,3.561,6.485a3.762,3.762,0,0,0,1.525,1.463,7.924,7.924,0,0,0,4.325,1.018c5.467,0,9.6-2.673,9.6-6.8,0-3.817-2.735-6.106-9.284-8.585-6.738-2.543-10.108-5.658-10.108-10.488,0-6.679,7.883-12.845,18.438-12.845a17.237,17.237,0,0,1,6.3.888c.316.129.443.256.443.572l.761,8.266c0,.192-.57.572-.824.572-.129,0-.191,0-.256-.127-1.207-2.287-2.414-4.576-3.685-6.8a2.659,2.659,0,0,0-1.21-1.145,6.856,6.856,0,0,0-3.431-.764c-4.516,0-8.4,2.926-8.4,6.933,0,3.431,2.416,5.34,7.821,8.012,5.98,2.732,11.19,5.594,11.19,11.123Z" transform="translate(-616.543 -516.012)" fill="#081d82"/>
        <path id="Tracé_2525" data-name="Tracé 2525" d="M656.53,536.192a1.908,1.908,0,0,1-1.271,1.779c-2.352.764-13.86.764-16.849.51a21.152,21.152,0,0,0,.316,4.325c1.083,4.765,4.643,7.756,8.331,7.756a20.585,20.585,0,0,0,4.26-.445,23.88,23.88,0,0,0,4.641-1.655c.13-.062.319.318.319.764,0,.189-.127.254-.254.383a33.878,33.878,0,0,1-7.313,3.177,17.159,17.159,0,0,1-5.594.635c-8.013,0-13.925-3.75-13.925-13.1,0-8.585,6.231-16.849,15.258-16.849,8.52,0,12.081,7.311,12.081,12.651ZM643.3,524.749c-2.478,0-5.021,3.75-4.895,12.588a31.138,31.138,0,0,0,8.2-.381c.51-.256.891-.7.891-2.036,0-3.434-.764-10.235-4.133-10.235Z" transform="translate(-596.436 -509.728)" fill="#081d82"/>
        <path id="Tracé_2526" data-name="Tracé 2526" d="M678.02,552.22c.192,0,.318.445.318.7,0,.062,0,.127-.127.127-2.162-.065-4.387-.127-8.075-.127-3.623,0-6.358.062-7.948.127-.127,0-.192-.065-.192-.127,0-.189.127-.7.319-.7l3.051-.7a.891.891,0,0,0,.764-.891c.127-1.336.318-6.3.318-9.217,0-5.534-.764-11.957-4.325-11.957-3.051,0-6.169,4.835-8.075,12.591a43.572,43.572,0,0,0-.953,8.647c0,.57.192.761.572.826l3.115.7c.192,0,.318.445.318.7,0,.062-.065.127-.189.127-2.481-.065-4.516-.127-7.95-.127s-5.85.062-7.756.127c-.127,0-.127-.065-.127-.127,0-.256.127-.7.316-.764l3.242-.572c.383-.127.575-.318.575-.888,0-1.909-.129-9.349-.129-12.146-.062-2.162-.251-9.281-.316-10.936-.062-.57-.062-.953-.637-1.015l-2.8-.192c-.189,0-.381-.445-.381-.761,0-.13,0-.194.192-.194l12.332-1.968c.383-.065.51.127.51.508-.065.891-.383,8.966-.51,12.4,0,.637-.062,1.466-.124,2.162l.316.062c.192-.634.445-1.46.572-1.779,1.782-5.658,6.611-13.35,12.842-13.35,5.086,0,7.694,4.768,7.694,13.606,0,4.7-.445,10.615-.7,13.285-.067.639.062.955.7,1.082Z" transform="translate(-577.736 -509.736)" fill="#081d82"/>
        <path id="Tracé_2527" data-name="Tracé 2527" d="M683.838,536.192a1.908,1.908,0,0,1-1.272,1.779c-2.351.764-13.863.764-16.848.51a21.132,21.132,0,0,0,.316,4.325c1.082,4.765,4.643,7.756,8.331,7.756a20.557,20.557,0,0,0,4.257-.445,23.757,23.757,0,0,0,4.641-1.655c.13-.062.319.318.319.764,0,.189-.125.254-.251.383a33.991,33.991,0,0,1-7.313,3.177,17.167,17.167,0,0,1-5.6.635c-8.01,0-13.925-3.75-13.925-13.1,0-8.585,6.234-16.849,15.261-16.849,8.52,0,12.081,7.311,12.081,12.651Zm-13.225-11.444c-2.478,0-5.024,3.75-4.895,12.588a31.145,31.145,0,0,0,8.2-.381c.508-.256.891-.7.891-2.036,0-3.434-.764-10.235-4.133-10.235Z" transform="translate(-553.029 -509.728)" fill="#081d82"/>
        <path id="Tracé_2528" data-name="Tracé 2528" d="M670.454,534.538c0-6.42,6.169-11.061,15.385-11.061a61.355,61.355,0,0,1,6.233.381,10.287,10.287,0,0,0,1.968.127l8.458-.062a.168.168,0,0,1,.192.189c0,.319-.127.826-.318.826l-6.42,1.018a7.828,7.828,0,0,1,2.986,6.357c0,6.676-6.039,9.983-13.223,11.063-.7.127-1.971.383-3.18.7-2.67.637-3.941,1.271-3.941,2.1,0,1.018,2.224,1.4,9.219,2.162,9.538,1.018,14.241,2.543,14.241,6.676,0,5.4-5.594,10.11-19.011,10.11-7.883,0-15-1.782-15-6.169,0-2.543,1.909-3.431,10.556-7.057a31.834,31.834,0,0,1-5.721-1.844,2.973,2.973,0,0,1-1.528-2.989.849.849,0,0,1,.575-.891c2.986-1.015,5.529-1.844,8.2-2.732-5.788-.51-9.667-4.325-9.667-8.838Zm15.007,29.313c5.4,0,7.883-2.416,7.945-5.278,0-3.623-4.641-4.705-12.27-6.1-.953-.127-1.145-.189-1.525.127a6.1,6.1,0,0,0-2.481,5.089c0,3.688,3.561,6.166,8.266,6.166Zm-.764-21.489c3.242,0,5.213-2.481,5.213-8.9,0-4.832-1.4-8.839-4.895-8.839-4.006,0-5.469,3.626-5.469,9.222,0,5.021,2.224,8.52,5.089,8.52Z" transform="translate(-534.681 -509.728)" fill="#081d82"/>
        <path id="Tracé_2529" data-name="Tracé 2529" d="M700.981,535.874a22.528,22.528,0,0,0-.572-3.877c-.764-2.926-2.543-5.343-5.6-5.343s-5.912,1.336-9.217,4.2c-.065.065-.127.127-.192.127-.192,0-.7-.761-.381-1.08a19.619,19.619,0,0,1,14.878-6.42c8.518,0,9.854,7.184,9.854,13.606,0,1.207-.127,4.832-.254,6.992-.127,2.861-.256,5.658-.256,6.676,0,.446.129.637.637.764l2.672.635a.7.7,0,0,1,.378.637c0,.127-.062.189-.251.189-.764-.062-3.372-.062-5.85-.062-2.162,0-3.5,0-4.579.062-.192,0-.318-.062-.318-.319-.062-.508-.189-2.8-.189-4.2,0-.318-.065-1.272-.065-1.779l-.192-.127c-.251.508-.57,1.08-.888,1.588a11.694,11.694,0,0,1-10.11,5.278,8.139,8.139,0,0,1-8.455-8.52c0-5.721,3.685-11.633,11.887-11.633a9.345,9.345,0,0,1,5.534,1.652,8.944,8.944,0,0,1,1.269,1.015Zm-5.723,14.305c2.481,0,4.77-2.414,5.979-5.912a7.065,7.065,0,0,0,.443-2.289,6.309,6.309,0,0,0-.572-2.416c-.829-2.16-2.8-4.705-5.532-4.705-3.242,0-4.7,4.133-4.7,8.458,0,4.452,1.779,6.865,4.322,6.865Z" transform="translate(-512.431 -509.728)" fill="#081d82"/>
        <path id="Tracé_2530" data-name="Tracé 2530" d="M707.887,518.184c.383-.065.513.062.513.508,0,.826-.445,13.352-.575,20.725-.062,4.581-.316,18.568-.316,19.775,0,.572.189.7.634.826l3.3.572c.194,0,.383.445.383.764,0,.062,0,.127-.127.127-1.655-.065-4.706-.127-8.458-.127-3.5,0-6.231.062-7.567.127a.169.169,0,0,1-.189-.192c0-.192.127-.637.383-.7l3.115-.572c.446-.127.7-.254.7-.764.13-1.779-.189-16.973-.189-19.2,0-2.287-.319-15.769-.381-18.374,0-.572-.192-.891-.764-.891L694.6,520.6c-.254,0-.508-.445-.508-.764,0-.127,0-.254.189-.254Z" transform="translate(-493.264 -518.168)" fill="#081d82"/>
      </g>
    </g>
  </g>
</svg>
