<svg xmlns="http://www.w3.org/2000/svg" xmlns:xlink="http://www.w3.org/1999/xlink" width="472" height="472" viewBox="0 0 472 472">
  <defs>
    <clipPath id="clip-Plan_de_travail_31">
      <rect width="472" height="472"/>
    </clipPath>
  </defs>
  <g id="Plan_de_travail_31" data-name="Plan de travail – 31" clip-path="url(#clip-Plan_de_travail_31)">
    <g id="Groupe_475" data-name="Groupe 475" transform="translate(33.016 38.908)">
      <g id="Groupe_268" data-name="Groupe 268" transform="translate(0 0)">
        <g id="Groupe_264" data-name="Groupe 264" transform="translate(1.642 133.687)">
          <g id="Groupe_263" data-name="Groupe 263">
            <path id="Tracé_2019" data-name="Tracé 2019" d="M687.153,228.606c0,.813-1.621,1.621-2.434,1.621-.2,0-.4-.2-.606-.4l-8.919-20.469c-1.013-2.232-2.028-3.447-4.053-4.055-6.891-2.025-21.08-3.038-24.726-3.242-.609,11.959-1.419,46.21-1.826,56.952-.2,11.348-.808,49.248-.808,57.356,0,2.025.808,2.434,2.227,2.636l10.134,1.823c.609,0,1.015,1.215,1.015,2.432,0,.4,0,.609-.609.609-4.457-.2-15.605-.407-27.36-.407-10.745,0-20.676.2-25.133.407-.609,0-.609-.2-.609-.407,0-1.013.407-2.634,1.015-2.634L614.8,318.8c1.419-.2,1.621-.813,1.621-2.838.2-8.108-.606-48.238-.811-57.763,0-8.108-.811-45.8-1.012-56.142-3.447.2-17.429,1.217-24.322,3.04-2.028.609-3.24,1.823-4.457,4.257l-9.326,20.267c-.2.4-.4.606-.808.606-.611,0-2.434-1.01-2.434-1.621l2.025-29.792a1.281,1.281,0,0,1,1.419-1.417c1.621,0,5.475.2,13.785.606,8.512.2,21.28.606,40.332.606,18.444,0,31.213-.2,39.723-.606,8.512-.2,12.767-.4,14.186-.4.813,0,1.217.4,1.217,1.419Z" transform="translate(-573.249 -197.398)" fill="#081d82"/>
            <path id="Tracé_2020" data-name="Tracé 2020" d="M673.989,197.71c7.093,0,12.568.2,17.024.4a2.109,2.109,0,0,1,1.621.813c6.485,21.888,27.363,91.812,35.469,116.74a4.264,4.264,0,0,0,2.634,2.636l7.5,2.025c.606.2,1.01,1.215,1.01,2.634,0,.2-.2.407-.606.407-4.257,0-13.984-.407-24.12-.407-11.348,0-22.292.2-27.764.407-.611,0-.611-.2-.611-.407,0-1.215.611-2.634,1.217-2.836l10.946-1.823c1.621-.2,1.823-1.621,1.419-3.242-2.232-6.689-9.73-26.148-11.962-33.037-9.118.2-32.627.808-43.167,1.621-.609,0-1.214.606-1.417,1.621-1.217,5.876-5.068,22.292-6.285,29.587-.2,2.434.609,3.04,2.028,3.449l10.537,2.025c.609,0,1.217,1.419,1.217,2.634,0,.407-.2.407-.609.407-5.065-.2-13.174-.407-21.279-.407-6.891,0-12.972.2-17.024.407-.407,0-.407-.2-.407-.609,0-.609.407-2.432,1.013-2.634l5.068-1.621c1.621-.406,2.636-1.217,3.646-3.651,9.931-24.32,31.011-86.539,40.13-111.266,1.826-4.863,4.459-5.879,12.568-5.879Zm-10.944,16.012a71.027,71.027,0,0,0-2.028,6.891c-5.068,16.823-11.553,40.332-15.4,54.316a1.106,1.106,0,0,0,1.015,1.419c9.32,1.217,31.006,2.028,39.726,1.823-3.447-9.727-13.987-39.115-19.459-57.356-.606-1.823-1.419-4.257-2.636-7.093Z" transform="translate(-512.66 -196.902)" fill="#081d82"/>
            <path id="Tracé_2021" data-name="Tracé 2021" d="M719.056,313.394c.609-2.232,1.417-4.462,2.028-6.487,7.3-26.754,18.444-69.315,24.928-97.69,1.217-5.876,2.025-6.283,13.577-7.3a58.364,58.364,0,0,1,7.3-.609,1.776,1.776,0,0,1,1.826,1.419c6.687,24.928,18.648,78.03,24.928,105.392a47.1,47.1,0,0,0,1.823,5.674h1.016c.606-1.621,1.217-4.257,1.621-5.879,5.879-25.335,14.593-69.924,19.052-101.541q.307-3.341-1.826-3.646l-9.522-1.419c-.813-.2-1.217-1.823-1.217-2.836,0-.407,0-.611.4-.611H843.9a.538.538,0,0,1,.606.611c0,1.013-.4,2.429-1.013,2.634l-4.457,1.419a4.491,4.491,0,0,0-3.651,3.646c-5.674,19.863-27.966,92.421-35.468,111.47-1.419,4.462-2.631,4.866-17.835,5.27h-8.106a2.165,2.165,0,0,1-1.826-1.417c-6.28-20.065-15.4-47.427-20.065-65.667-.808-2.634-1.823-7.3-3.038-11.553h-1.217c-1.217,4.46-2.838,9.727-4.055,13.578-4.457,13.174-15.2,45.2-21.479,59.993-1.828,4.257-2.838,4.661-20.474,5.065h-6.283c-1.013,0-1.417-.4-1.823-1.621-5.876-19.86-20.065-81.067-27.969-116.334-.407-1.419-1.012-2.432-2.432-2.636l-5.27-1.013c-.606-.2-1.217-1.823-1.217-2.836a.54.54,0,0,1,.611-.611h55.329c.606,0,.606.2.606.813,0,.811-.606,2.432-1.419,2.634l-10.133,1.419a2.478,2.478,0,0,0-2.025,3.04c3.242,21.888,11.755,73.57,16.618,100.731.406,1.621,1.015,4.457,1.419,6.891Z" transform="translate(-440.376 -196.654)" fill="#081d82"/>
          </g>
        </g>
        <g id="Groupe_265" data-name="Groupe 265" transform="translate(5.675)">
          <path id="Tracé_2022" data-name="Tracé 2022" d="M678.61,160.455a5.443,5.443,0,1,1,6.228,3.822A5.191,5.191,0,0,1,678.61,160.455Z" transform="translate(-409.895 -131.746)" fill="#e3a437"/>
          <path id="Tracé_2023" data-name="Tracé 2023" d="M673.25,161.18a5.433,5.433,0,1,1,6.086,4.03A5.183,5.183,0,0,1,673.25,161.18Z" transform="translate(-418.38 -130.296)" fill="#e3a437"/>
          <path id="Tracé_2024" data-name="Tracé 2024" d="M667.873,161.725a5.426,5.426,0,1,1,5.941,4.234A5.13,5.13,0,0,1,667.873,161.725Z" transform="translate(-426.899 -129.136)" fill="#e3a437"/>
          <path id="Tracé_2025" data-name="Tracé 2025" d="M662.484,162.085a5.421,5.421,0,1,1,5.791,4.434A5.179,5.179,0,0,1,662.484,162.085Z" transform="translate(-435.445 -128.263)" fill="#e3a437"/>
          <path id="Tracé_2026" data-name="Tracé 2026" d="M657.088,162.266a5.419,5.419,0,1,1,5.638,4.628A5.174,5.174,0,0,1,657.088,162.266Z" transform="translate(-444.01 -127.681)" fill="#e3a437"/>
          <path id="Tracé_2027" data-name="Tracé 2027" d="M651.69,162.27a5.418,5.418,0,1,1,5.477,4.812A5.125,5.125,0,0,1,651.69,162.27Z" transform="translate(-452.586 -127.389)" fill="#e3a437"/>
          <path id="Tracé_2028" data-name="Tracé 2028" d="M646.3,162.093a5.417,5.417,0,1,1,5.311,4.993A5.178,5.178,0,0,1,646.3,162.093Z" transform="translate(-461.166 -127.386)" fill="#e3a437"/>
          <path id="Tracé_2029" data-name="Tracé 2029" d="M640.907,161.732a5.419,5.419,0,1,1,5.143,5.169A5.178,5.178,0,0,1,640.907,161.732Z" transform="translate(-469.743 -127.67)" fill="#e3a437"/>
          <path id="Tracé_2030" data-name="Tracé 2030" d="M635.531,161.192a5.421,5.421,0,1,1,4.967,5.34A5.179,5.179,0,0,1,635.531,161.192Z" transform="translate(-478.308 -128.246)" fill="#e3a437"/>
          <path id="Tracé_2031" data-name="Tracé 2031" d="M630.17,160.47a5.427,5.427,0,1,1,4.791,5.506A5.183,5.183,0,0,1,630.17,160.47Z" transform="translate(-486.856 -129.109)" fill="#e3a437"/>
          <path id="Tracé_2032" data-name="Tracé 2032" d="M624.832,159.569a5.434,5.434,0,1,1,4.61,5.664A5.186,5.186,0,0,1,624.832,159.569Z" transform="translate(-495.378 -130.262)" fill="#e3a437"/>
          <path id="Tracé_2033" data-name="Tracé 2033" d="M619.52,158.486a5.44,5.44,0,1,1,4.42,5.816A5.136,5.136,0,0,1,619.52,158.486Z" transform="translate(-503.866 -131.704)" fill="#e3a437"/>
          <path id="Tracé_2034" data-name="Tracé 2034" d="M672.521,155.941a5.245,5.245,0,0,1,10.338-1.582,5.24,5.24,0,0,1-10.338,1.582Z" transform="translate(-419.541 -138.577)" fill="#e3a437"/>
          <path id="Tracé_2035" data-name="Tracé 2035" d="M667.319,156.466a5.234,5.234,0,1,1,5.765,4.255A5.079,5.079,0,0,1,667.319,156.466Z" transform="translate(-427.78 -137.455)" fill="#e3a437"/>
          <path id="Tracé_2036" data-name="Tracé 2036" d="M662.107,156.818a5.23,5.23,0,1,1,5.615,4.447A5.08,5.08,0,0,1,662.107,156.818Z" transform="translate(-436.044 -136.613)" fill="#e3a437"/>
          <path id="Tracé_2037" data-name="Tracé 2037" d="M656.888,157a5.232,5.232,0,0,1,10.421-.531,5.227,5.227,0,0,1-10.421.531Z" transform="translate(-444.328 -136.05)" fill="#e3a437"/>
          <path id="Tracé_2038" data-name="Tracé 2038" d="M651.668,157a5.225,5.225,0,1,1,5.3,4.814A5.027,5.027,0,0,1,651.668,157Z" transform="translate(-452.621 -135.768)" fill="#e3a437"/>
          <path id="Tracé_2039" data-name="Tracé 2039" d="M646.449,156.823a5.231,5.231,0,0,1,10.431.171,5.226,5.226,0,0,1-10.431-.171Z" transform="translate(-460.921 -135.763)" fill="#e3a437"/>
          <path id="Tracé_2040" data-name="Tracé 2040" d="M641.239,156.475A5.232,5.232,0,0,1,651.66,157a5.227,5.227,0,0,1-10.421-.523Z" transform="translate(-469.215 -136.039)" fill="#e3a437"/>
          <path id="Tracé_2041" data-name="Tracé 2041" d="M636.04,155.953a5.231,5.231,0,1,1,4.793,5.324A5.081,5.081,0,0,1,636.04,155.953Z" transform="translate(-477.501 -136.595)" fill="#e3a437"/>
          <path id="Tracé_2042" data-name="Tracé 2042" d="M630.856,155.255a5.24,5.24,0,0,1,10.377,1.222,5.235,5.235,0,0,1-10.377-1.222Z" transform="translate(-485.768 -137.43)" fill="#e3a437"/>
          <path id="Tracé_2043" data-name="Tracé 2043" d="M625.694,154.383a5.246,5.246,0,0,1,10.341,1.574,5.241,5.241,0,0,1-10.341-1.574Z" transform="translate(-494.01 -138.544)" fill="#e3a437"/>
          <path id="Tracé_2044" data-name="Tracé 2044" d="M666.766,151.211a5.05,5.05,0,1,1,5.591,4.276A4.987,4.987,0,0,1,666.766,151.211Z" transform="translate(-428.661 -145.775)" fill="#e3a437"/>
          <path id="Tracé_2045" data-name="Tracé 2045" d="M661.73,151.551a5.045,5.045,0,1,1,5.438,4.462A4.986,4.986,0,0,1,661.73,151.551Z" transform="translate(-436.644 -144.963)" fill="#e3a437"/>
          <path id="Tracé_2046" data-name="Tracé 2046" d="M656.689,151.723a5.044,5.044,0,0,1,10.066-.513,5.041,5.041,0,0,1-10.066.513Z" transform="translate(-444.645 -144.42)" fill="#e3a437"/>
          <path id="Tracé_2047" data-name="Tracé 2047" d="M651.645,151.723a5.043,5.043,0,0,1,10.076-.174,5.041,5.041,0,0,1-10.076.174Z" transform="translate(-452.658 -144.146)" fill="#e3a437"/>
          <path id="Tracé_2048" data-name="Tracé 2048" d="M646.6,151.557a5.043,5.043,0,0,1,10.076.166,5.041,5.041,0,0,1-10.076-.166Z" transform="translate(-460.674 -144.143)" fill="#e3a437"/>
          <path id="Tracé_2049" data-name="Tracé 2049" d="M641.571,151.22a5.043,5.043,0,1,1,4.788,5.151A4.982,4.982,0,0,1,641.571,151.22Z" transform="translate(-468.688 -144.409)" fill="#e3a437"/>
          <path id="Tracé_2050" data-name="Tracé 2050" d="M636.549,150.715a5.047,5.047,0,0,1,10.051.842,5.045,5.045,0,0,1-10.051-.842Z" transform="translate(-476.692 -144.945)" fill="#e3a437"/>
          <path id="Tracé_2051" data-name="Tracé 2051" d="M631.543,150.039a5.05,5.05,0,0,1,10.022,1.183,5.048,5.048,0,0,1-10.022-1.183Z" transform="translate(-484.679 -145.751)" fill="#e3a437"/>
          <path id="Tracé_2052" data-name="Tracé 2052" d="M679.424,165.148c-.456-2.652,1.6-5.221,4.584-5.78s5.837,1.085,6.373,3.721-1.508,5.278-4.574,5.853S679.88,167.8,679.424,165.148Z" transform="translate(-408.599 -124.342)" fill="#e3a437"/>
          <path id="Tracé_2053" data-name="Tracé 2053" d="M684.921,164.218c-.546-2.636,1.427-5.273,4.4-5.936s5.878.886,6.5,3.5-1.331,5.324-4.382,6.005S685.465,166.852,684.921,164.218Z" transform="translate(-399.904 -126.134)" fill="#e3a437"/>
          <path id="Tracé_2054" data-name="Tracé 2054" d="M673.905,165.892c-.368-2.665,1.774-5.161,4.77-5.622s5.788,1.284,6.236,3.936-1.681,5.223-4.762,5.695S674.27,168.557,673.905,165.892Z" transform="translate(-417.336 -122.849)" fill="#e3a437"/>
          <path id="Tracé_2055" data-name="Tracé 2055" d="M668.369,166.452c-.274-2.678,1.945-5.1,4.951-5.459s5.736,1.479,6.1,4.146-1.854,5.164-4.946,5.529S668.646,169.127,668.369,166.452Z" transform="translate(-426.108 -121.653)" fill="#e3a437"/>
          <path id="Tracé_2056" data-name="Tracé 2056" d="M662.823,166.823c-.186-2.683,2.11-5.032,5.128-5.285s5.676,1.67,5.945,4.348-2.025,5.1-5.122,5.358S663.006,169.506,662.823,166.823Z" transform="translate(-434.906 -120.755)" fill="#e3a437"/>
          <path id="Tracé_2057" data-name="Tracé 2057" d="M657.268,167.009c-.1-2.688,2.279-4.957,5.3-5.109s5.615,1.859,5.793,4.545-2.193,5.027-5.3,5.185S657.364,169.7,657.268,167.009Z" transform="translate(-443.724 -120.154)" fill="#e3a437"/>
          <path id="Tracé_2058" data-name="Tracé 2058" d="M651.71,167.011c-.005-2.691,2.445-4.876,5.469-4.928s5.547,2.048,5.635,4.737-2.359,4.949-5.467,5S651.715,169.7,651.71,167.011Z" transform="translate(-452.554 -119.852)" fill="#e3a437"/>
          <path id="Tracé_2059" data-name="Tracé 2059" d="M646.157,166.829c.083-2.691,2.605-4.794,5.63-4.744s5.475,2.235,5.472,4.926-2.525,4.866-5.633,4.814S646.068,169.517,646.157,166.829Z" transform="translate(-461.387 -119.849)" fill="#e3a437"/>
          <path id="Tracé_2060" data-name="Tracé 2060" d="M640.609,166.457c.176-2.686,2.766-4.7,5.788-4.55s5.4,2.416,5.306,5.107-2.688,4.778-5.793,4.623S640.432,169.142,640.609,166.457Z" transform="translate(-470.217 -120.143)" fill="#e3a437"/>
          <path id="Tracé_2061" data-name="Tracé 2061" d="M635.073,165.9c.267-2.678,2.924-4.6,5.943-4.353s5.314,2.6,5.13,5.283-2.846,4.685-5.946,4.426S634.806,168.577,635.073,165.9Z" transform="translate(-479.035 -120.735)" fill="#e3a437"/>
          <path id="Tracé_2062" data-name="Tracé 2062" d="M629.554,165.161c.357-2.667,3.082-4.5,6.091-4.151s5.229,2.776,4.954,5.454-3,4.586-6.1,4.221S629.2,167.828,629.554,165.161Z" transform="translate(-487.835 -121.626)" fill="#e3a437"/>
          <path id="Tracé_2063" data-name="Tracé 2063" d="M624.057,164.233c.445-2.654,3.232-4.4,6.231-3.942s5.14,2.95,4.775,5.617-3.159,4.483-6.241,4.014S623.612,166.887,624.057,164.233Z" transform="translate(-496.607 -122.813)" fill="#e3a437"/>
          <path id="Tracé_2064" data-name="Tracé 2064" d="M618.586,163.122c.536-2.639,3.385-4.286,6.371-3.729s5.042,3.123,4.589,5.778-3.312,4.371-6.381,3.8S618.05,165.755,618.586,163.122Z" transform="translate(-505.346 -124.299)" fill="#e3a437"/>
          <path id="Tracé_2065" data-name="Tracé 2065" d="M613.146,161.822c.624-2.618,3.532-4.167,6.5-3.509s4.944,3.294,4.4,5.93-3.462,4.26-6.513,3.582S612.522,164.437,613.146,161.822Z" transform="translate(-514.043 -126.084)" fill="#e3a437"/>
          <path id="Tracé_2066" data-name="Tracé 2066" d="M680.328,170.362c-.456-2.652,1.678-5.231,4.76-5.811s6.01,1.051,6.549,3.688-1.588,5.293-4.749,5.886S680.783,173.013,680.328,170.362Z" transform="translate(-407.159 -116.113)" fill="#e3a437"/>
          <path id="Tracé_2067" data-name="Tracé 2067" d="M686,169.4c-.544-2.636,1.5-5.288,4.571-5.972s6.052.844,6.679,3.462-1.411,5.345-4.558,6.047S686.545,172.039,686,169.4Z" transform="translate(-398.186 -117.963)" fill="#e3a437"/>
          <path id="Tracé_2068" data-name="Tracé 2068" d="M691.643,168.253c-.634-2.616,1.329-5.335,4.374-6.125s6.088.637,6.8,3.232-1.233,5.389-4.361,6.2S692.275,170.869,691.643,168.253Z" transform="translate(-389.263 -120.121)" fill="#e3a437"/>
          <path id="Tracé_2069" data-name="Tracé 2069" d="M674.634,171.129c-.368-2.665,1.852-5.172,4.946-5.646s5.964,1.253,6.412,3.908-1.761,5.236-4.938,5.721S675,173.793,674.634,171.129Z" transform="translate(-416.175 -114.57)" fill="#e3a437"/>
          <path id="Tracé_2070" data-name="Tracé 2070" d="M668.923,171.7c-.277-2.675,2.023-5.107,5.127-5.475s5.912,1.455,6.27,4.123-1.932,5.172-5.12,5.55S669.2,174.379,668.923,171.7Z" transform="translate(-425.227 -113.334)" fill="#e3a437"/>
          <path id="Tracé_2071" data-name="Tracé 2071" d="M663.2,172.09c-.187-2.686,2.188-5.037,5.3-5.3s5.853,1.655,6.122,4.333-2.1,5.1-5.3,5.374S663.383,174.773,663.2,172.09Z" transform="translate(-434.307 -112.408)" fill="#e3a437"/>
          <path id="Tracé_2072" data-name="Tracé 2072" d="M657.468,172.281c-.1-2.688,2.356-4.959,5.477-5.117s5.791,1.852,5.969,4.535-2.271,5.032-5.475,5.195S657.561,174.969,657.468,172.281Z" transform="translate(-443.406 -111.788)" fill="#e3a437"/>
          <path id="Tracé_2073" data-name="Tracé 2073" d="M651.733,172.282c-.005-2.691,2.522-4.876,5.646-4.931s5.723,2.043,5.811,4.734-2.44,4.951-5.643,5.006S651.738,174.973,651.733,172.282Z" transform="translate(-452.518 -111.476)" fill="#e3a437"/>
          <path id="Tracé_2074" data-name="Tracé 2074" d="M646,172.093c.085-2.688,2.685-4.788,5.809-4.739s5.651,2.237,5.648,4.928-2.6,4.866-5.809,4.814S645.916,174.781,646,172.093Z" transform="translate(-461.633 -111.473)" fill="#e3a437"/>
          <path id="Tracé_2075" data-name="Tracé 2075" d="M640.276,171.713c.176-2.686,2.846-4.7,5.967-4.542s5.573,2.424,5.48,5.115-2.766,4.775-5.967,4.615S640.1,174.4,640.276,171.713Z" transform="translate(-470.744 -111.777)" fill="#e3a437"/>
          <path id="Tracé_2076" data-name="Tracé 2076" d="M634.563,171.138c.267-2.675,3-4.6,6.119-4.338s5.493,2.613,5.309,5.3-2.926,4.682-6.122,4.413S634.3,173.816,634.563,171.138Z" transform="translate(-479.844 -112.388)" fill="#e3a437"/>
          <path id="Tracé_2077" data-name="Tracé 2077" d="M628.868,170.374c.355-2.667,3.159-4.493,6.267-4.128s5.4,2.8,5.133,5.472-3.084,4.579-6.275,4.2S628.513,173.041,628.868,170.374Z" transform="translate(-488.923 -113.307)" fill="#e3a437"/>
          <path id="Tracé_2078" data-name="Tracé 2078" d="M623.2,169.417c.445-2.652,3.312-4.384,6.407-3.913s5.317,2.976,4.952,5.643-3.237,4.472-6.417,3.988S622.75,172.072,623.2,169.417Z" transform="translate(-497.975 -114.534)" fill="#e3a437"/>
          <path id="Tracé_2079" data-name="Tracé 2079" d="M617.548,168.272c.536-2.639,3.462-4.27,6.544-3.7s5.218,3.157,4.765,5.809-3.39,4.361-6.555,3.768S617.015,170.908,617.548,168.272Z" transform="translate(-506.991 -116.069)" fill="#e3a437"/>
          <path id="Tracé_2080" data-name="Tracé 2080" d="M611.934,166.932c.624-2.616,3.61-4.149,6.676-3.468s5.117,3.333,4.576,5.967-3.54,4.244-6.689,3.543S611.31,169.55,611.934,166.932Z" transform="translate(-515.964 -117.911)" fill="#e3a437"/>
          <path id="Tracé_2081" data-name="Tracé 2081" d="M606.357,165.4c.712-2.595,3.752-4.022,6.8-3.237s5.011,3.506,4.379,6.122-3.685,4.12-6.814,3.312S605.645,168,606.357,165.4Z" transform="translate(-524.884 -120.062)" fill="#e3a437"/>
          <path id="Tracé_2082" data-name="Tracé 2082" d="M681.231,175.578c-.456-2.652,1.759-5.247,4.936-5.842s6.184,1.018,6.723,3.654-1.662,5.309-4.923,5.92S681.69,178.23,681.231,175.578Z" transform="translate(-405.719 -107.883)" fill="#e3a437"/>
          <path id="Tracé_2083" data-name="Tracé 2083" d="M687.077,174.592c-.544-2.636,1.582-5.3,4.744-6.008s6.226.805,6.852,3.421-1.489,5.363-4.731,6.086S687.624,177.225,687.077,174.592Z" transform="translate(-396.467 -109.793)" fill="#e3a437"/>
          <path id="Tracé_2084" data-name="Tracé 2084" d="M692.9,173.408c-.634-2.616,1.406-5.355,4.547-6.169s6.262.59,6.977,3.185-1.31,5.412-4.535,6.246S693.527,176.021,692.9,173.408Z" transform="translate(-387.268 -112.02)" fill="#e3a437"/>
          <path id="Tracé_2085" data-name="Tracé 2085" d="M698.678,172.029c-.723-2.592,1.23-5.4,4.348-6.324s6.29.373,7.093,2.942-1.132,5.456-4.333,6.4S699.4,174.619,698.678,172.029Z" transform="translate(-378.129 -114.564)" fill="#e3a437"/>
          <path id="Tracé_2086" data-name="Tracé 2086" d="M675.362,176.369c-.365-2.667,1.932-5.185,5.122-5.674s6.14,1.228,6.588,3.882-1.839,5.247-5.112,5.749S675.73,179.031,675.362,176.369Z" transform="translate(-415.015 -106.292)" fill="#e3a437"/>
          <path id="Tracé_2087" data-name="Tracé 2087" d="M669.475,176.959c-.274-2.675,2.1-5.115,5.3-5.5s6.089,1.435,6.448,4.1-2.012,5.182-5.3,5.573S669.752,179.634,669.475,176.959Z" transform="translate(-424.348 -105.018)" fill="#e3a437"/>
          <path id="Tracé_2088" data-name="Tracé 2088" d="M663.575,177.355c-.186-2.683,2.271-5.04,5.483-5.314s6.029,1.639,6.3,4.317-2.18,5.112-5.474,5.392S663.762,180.04,663.575,177.355Z" transform="translate(-433.709 -104.062)" fill="#e3a437"/>
          <path id="Tracé_2089" data-name="Tracé 2089" d="M657.667,177.554c-.1-2.691,2.437-4.962,5.656-5.128s5.967,1.841,6.145,4.527-2.351,5.037-5.651,5.2S657.763,180.24,657.667,177.554Z" transform="translate(-443.09 -103.422)" fill="#e3a437"/>
          <path id="Tracé_2090" data-name="Tracé 2090" d="M651.756,177.554c0-2.691,2.6-4.876,5.822-4.933s5.9,2.041,5.99,4.731-2.52,4.954-5.822,5.008S651.759,180.245,651.756,177.554Z" transform="translate(-452.481 -103.1)" fill="#e3a437"/>
          <path id="Tracé_2091" data-name="Tracé 2091" d="M645.846,177.358c.086-2.688,2.766-4.788,5.985-4.734s5.83,2.237,5.827,4.928-2.683,4.866-5.985,4.812S645.761,180.046,645.846,177.358Z" transform="translate(-461.879 -103.096)" fill="#e3a437"/>
          <path id="Tracé_2092" data-name="Tracé 2092" d="M639.944,176.964c.176-2.683,2.926-4.69,6.143-4.529s5.752,2.432,5.658,5.12-2.843,4.775-6.145,4.61S639.768,179.649,639.944,176.964Z" transform="translate(-471.272 -103.409)" fill="#e3a437"/>
          <path id="Tracé_2093" data-name="Tracé 2093" d="M634.055,176.376c.267-2.678,3.081-4.592,6.3-4.322s5.669,2.626,5.485,5.309-3.007,4.674-6.3,4.4S633.789,179.051,634.055,176.376Z" transform="translate(-480.652 -104.041)" fill="#e3a437"/>
          <path id="Tracé_2094" data-name="Tracé 2094" d="M628.183,175.589c.357-2.667,3.24-4.485,6.443-4.107s5.581,2.815,5.309,5.49-3.165,4.573-6.451,4.185S627.828,178.254,628.183,175.589Z" transform="translate(-490.011 -104.989)" fill="#e3a437"/>
          <path id="Tracé_2095" data-name="Tracé 2095" d="M622.333,174.6c.448-2.654,3.392-4.371,6.585-3.887s5.49,3,5.125,5.669-3.317,4.462-6.593,3.962S621.888,177.256,622.333,174.6Z" transform="translate(-499.342 -106.255)" fill="#e3a437"/>
          <path id="Tracé_2096" data-name="Tracé 2096" d="M616.511,173.421c.536-2.636,3.54-4.252,6.72-3.659s5.394,3.185,4.938,5.84-3.468,4.346-6.728,3.737S615.977,176.058,616.511,173.421Z" transform="translate(-508.636 -107.838)" fill="#e3a437"/>
          <path id="Tracé_2097" data-name="Tracé 2097" d="M610.723,172.044c.624-2.618,3.685-4.131,6.847-3.429s5.293,3.369,4.75,6-3.618,4.229-6.863,3.506S610.1,174.66,610.723,172.044Z" transform="translate(-517.884 -109.739)" fill="#e3a437"/>
          <path id="Tracé_2098" data-name="Tracé 2098" d="M604.971,170.47c.712-2.595,3.83-4,6.972-3.193s5.187,3.55,4.555,6.166-3.763,4.1-6.987,3.268S604.259,173.062,604.971,170.47Z" transform="translate(-527.08 -111.958)" fill="#e3a437"/>
          <path id="Tracé_2099" data-name="Tracé 2099" d="M599.264,168.7c.8-2.569,3.967-3.869,7.088-2.95s5.076,3.727,4.356,6.319-3.908,3.97-7.106,3.027S598.463,171.266,599.264,168.7Z" transform="translate(-536.214 -114.494)" fill="#e3a437"/>
          <path id="Tracé_2100" data-name="Tracé 2100" d="M682.136,180.794c-.456-2.652,1.833-5.26,5.109-5.876s6.361.984,6.9,3.62-1.743,5.324-5.1,5.954S682.592,183.444,682.136,180.794Z" transform="translate(-404.278 -99.654)" fill="#e3a437"/>
          <path id="Tracé_2101" data-name="Tracé 2101" d="M688.156,179.779c-.544-2.636,1.663-5.319,4.918-6.047s6.4.767,7.026,3.382-1.564,5.384-4.9,6.127S688.7,182.413,688.156,179.779Z" transform="translate(-394.749 -101.623)" fill="#e3a437"/>
          <path id="Tracé_2102" data-name="Tracé 2102" d="M694.147,178.562c-.635-2.616,1.484-5.374,4.721-6.213s6.433.544,7.148,3.139-1.388,5.433-4.706,6.293S694.779,181.175,694.147,178.562Z" transform="translate(-385.272 -103.917)" fill="#e3a437"/>
          <path id="Tracé_2103" data-name="Tracé 2103" d="M700.1,177.143c-.723-2.592,1.308-5.423,4.522-6.373s6.461.321,7.264,2.89-1.209,5.48-4.5,6.454S700.824,179.733,700.1,177.143Z" transform="translate(-375.859 -106.541)" fill="#e3a437"/>
          <path id="Tracé_2104" data-name="Tracé 2104" d="M706.017,175.52c-.811-2.566,1.129-5.464,4.317-6.529s6.484.1,7.373,2.639-1.028,5.519-4.3,6.606S706.828,178.086,706.017,175.52Z" transform="translate(-366.517 -109.491)" fill="#e3a437"/>
          <path id="Tracé_2105" data-name="Tracé 2105" d="M676.092,181.607c-.365-2.667,2.01-5.195,5.3-5.7s6.313,1.2,6.762,3.853-1.916,5.262-5.288,5.778S676.457,184.272,676.092,181.607Z" transform="translate(-413.854 -98.014)" fill="#e3a437"/>
          <path id="Tracé_2106" data-name="Tracé 2106" d="M670.029,182.215c-.277-2.675,2.181-5.122,5.48-5.516s6.264,1.411,6.622,4.079-2.09,5.195-5.472,5.6S670.3,184.89,670.029,182.215Z" transform="translate(-423.467 -96.701)" fill="#e3a437"/>
          <path id="Tracé_2107" data-name="Tracé 2107" d="M663.952,182.622c-.186-2.686,2.349-5.047,5.659-5.33s6.207,1.624,6.477,4.3-2.263,5.12-5.653,5.407S664.138,185.305,663.952,182.622Z" transform="translate(-433.109 -95.715)" fill="#e3a437"/>
          <path id="Tracé_2108" data-name="Tracé 2108" d="M657.867,182.825c-.1-2.688,2.517-4.964,5.832-5.135s6.145,1.831,6.324,4.516-2.432,5.042-5.829,5.213S657.962,185.514,657.867,182.825Z" transform="translate(-442.772 -95.056)" fill="#e3a437"/>
          <path id="Tracé_2109" data-name="Tracé 2109" d="M651.778,182.826c-.005-2.691,2.68-4.876,6-4.936s6.078,2.038,6.166,4.726-2.6,4.957-6,5.016S651.783,185.516,651.778,182.826Z" transform="translate(-452.446 -94.724)" fill="#e3a437"/>
          <path id="Tracé_2110" data-name="Tracé 2110" d="M645.691,182.624c.085-2.691,2.846-4.786,6.163-4.731s6.005,2.24,6,4.931-2.761,4.866-6.164,4.809S645.606,185.312,645.691,182.624Z" transform="translate(-462.126 -94.72)" fill="#e3a437"/>
          <path id="Tracé_2111" data-name="Tracé 2111" d="M639.612,182.22c.176-2.686,3.007-4.687,6.321-4.522s5.928,2.44,5.835,5.13-2.924,4.77-6.322,4.6S639.436,184.9,639.612,182.22Z" transform="translate(-471.799 -95.043)" fill="#e3a437"/>
          <path id="Tracé_2112" data-name="Tracé 2112" d="M633.546,181.611c.267-2.678,3.162-4.581,6.472-4.3s5.848,2.639,5.663,5.322-3.084,4.669-6.477,4.384S633.279,184.286,633.546,181.611Z" transform="translate(-481.46 -95.693)" fill="#e3a437"/>
          <path id="Tracé_2113" data-name="Tracé 2113" d="M627.5,180.8c.357-2.667,3.317-4.475,6.619-4.084s5.759,2.833,5.485,5.511-3.242,4.563-6.627,4.164S627.142,183.466,627.5,180.8Z" transform="translate(-491.1 -96.67)" fill="#e3a437"/>
          <path id="Tracé_2114" data-name="Tracé 2114" d="M621.472,179.789c.446-2.654,3.468-4.358,6.759-3.859s5.664,3.027,5.3,5.695-3.4,4.449-6.767,3.936S621.024,182.441,621.472,179.789Z" transform="translate(-500.709 -97.976)" fill="#e3a437"/>
          <path id="Tracé_2115" data-name="Tracé 2115" d="M615.475,178.572c.533-2.636,3.618-4.237,6.894-3.625s5.568,3.219,5.115,5.871-3.548,4.333-6.9,3.706S614.939,181.209,615.475,178.572Z" transform="translate(-510.281 -99.608)" fill="#e3a437"/>
          <path id="Tracé_2116" data-name="Tracé 2116" d="M609.511,177.155c.624-2.616,3.763-4.112,7.021-3.39s5.467,3.408,4.923,6.044-3.7,4.211-7.034,3.468S608.887,179.771,609.511,177.155Z" transform="translate(-519.806 -101.568)" fill="#e3a437"/>
          <path id="Tracé_2117" data-name="Tracé 2117" d="M603.586,175.534c.712-2.595,3.908-3.98,7.145-3.146s5.358,3.592,4.726,6.21-3.841,4.081-7.161,3.224S602.874,178.129,603.586,175.534Z" transform="translate(-529.276 -103.854)" fill="#e3a437"/>
          <path id="Tracé_2118" data-name="Tracé 2118" d="M597.706,173.709c.8-2.569,4.045-3.843,7.261-2.9s5.247,3.773,4.527,6.368-3.985,3.947-7.28,2.976S596.905,176.278,597.706,173.709Z" transform="translate(-538.683 -106.468)" fill="#e3a437"/>
          <path id="Tracé_2119" data-name="Tracé 2119" d="M591.212,171.44c.9-2.538,4.2-3.685,7.383-2.613s5.115,3.978,4.3,6.542-4.138,3.791-7.4,2.693S590.316,173.975,591.212,171.44Z" transform="translate(-549.079 -109.767)" fill="#e3a437"/>
          <path id="Tracé_2120" data-name="Tracé 2120" d="M683.041,186.009c-.456-2.649,1.914-5.273,5.286-5.907s6.534.95,7.07,3.587-1.818,5.34-5.272,5.99S683.5,188.661,683.041,186.009Z" transform="translate(-402.838 -91.426)" fill="#e3a437"/>
          <path id="Tracé_2121" data-name="Tracé 2121" d="M689.234,184.967c-.544-2.634,1.741-5.335,5.094-6.083s6.573.725,7.2,3.343-1.644,5.4-5.078,6.163S689.781,187.6,689.234,184.967Z" transform="translate(-393.03 -93.452)" fill="#e3a437"/>
          <path id="Tracé_2122" data-name="Tracé 2122" d="M695.4,183.715c-.632-2.613,1.564-5.392,4.9-6.254s6.6.5,7.318,3.092-1.463,5.456-4.879,6.337S696.032,186.33,695.4,183.715Z" transform="translate(-383.278 -95.816)" fill="#e3a437"/>
          <path id="Tracé_2123" data-name="Tracé 2123" d="M701.526,182.257c-.723-2.592,1.383-5.444,4.692-6.422s6.635.269,7.435,2.838-1.285,5.506-4.674,6.505S702.249,184.847,701.526,182.257Z" transform="translate(-373.589 -98.517)" fill="#e3a437"/>
          <path id="Tracé_2124" data-name="Tracé 2124" d="M707.611,180.59c-.808-2.566,1.207-5.49,4.488-6.583s6.653.039,7.544,2.579-1.106,5.545-4.467,6.663S708.422,183.154,707.611,180.59Z" transform="translate(-363.973 -101.556)" fill="#e3a437"/>
          <path id="Tracé_2125" data-name="Tracé 2125" d="M714.633,178.388c-.912-2.533.995-5.537,4.242-6.762s6.671-.233,7.66,2.269-.893,5.589-4.221,6.845S715.542,180.921,714.633,178.388Z" transform="translate(-352.89 -105.514)" fill="#e3a437"/>
          <path id="Tracé_2126" data-name="Tracé 2126" d="M676.821,186.843c-.368-2.665,2.087-5.205,5.472-5.723s6.49,1.171,6.938,3.822-1.994,5.278-5.462,5.806S677.187,189.508,676.821,186.843Z" transform="translate(-412.693 -89.735)" fill="#e3a437"/>
          <path id="Tracé_2127" data-name="Tracé 2127" d="M670.581,187.47c-.274-2.675,2.258-5.133,5.659-5.537s6.438,1.391,6.8,4.058-2.17,5.205-5.651,5.617S670.859,190.145,670.581,187.47Z" transform="translate(-422.587 -88.384)" fill="#e3a437"/>
          <path id="Tracé_2128" data-name="Tracé 2128" d="M664.329,187.886c-.187-2.683,2.427-5.052,5.834-5.34s6.384,1.606,6.653,4.283-2.341,5.128-5.83,5.423S664.515,190.569,664.329,187.886Z" transform="translate(-432.51 -87.367)" fill="#e3a437"/>
          <path id="Tracé_2129" data-name="Tracé 2129" d="M658.067,188.1c-.1-2.688,2.595-4.967,6.008-5.143s6.321,1.82,6.5,4.506-2.509,5.047-6.005,5.223S658.162,190.785,658.067,188.1Z" transform="translate(-442.454 -86.69)" fill="#e3a437"/>
          <path id="Tracé_2130" data-name="Tracé 2130" d="M651.8,188.1c-.005-2.691,2.758-4.879,6.176-4.939s6.254,2.033,6.342,4.724-2.678,4.959-6.174,5.019S651.806,190.788,651.8,188.1Z" transform="translate(-452.41 -86.348)" fill="#e3a437"/>
          <path id="Tracé_2131" data-name="Tracé 2131" d="M645.537,187.89c.085-2.691,2.924-4.783,6.339-4.729s6.184,2.243,6.179,4.933-2.841,4.866-6.34,4.809S645.452,190.579,645.537,187.89Z" transform="translate(-462.37 -86.344)" fill="#e3a437"/>
          <path id="Tracé_2132" data-name="Tracé 2132" d="M639.281,187.472c.176-2.683,3.082-4.68,6.495-4.511s6.107,2.447,6.013,5.138-3,4.768-6.5,4.594S639.1,190.158,639.281,187.472Z" transform="translate(-472.326 -86.677)" fill="#e3a437"/>
          <path id="Tracé_2133" data-name="Tracé 2133" d="M633.037,186.849c.264-2.678,3.24-4.576,6.648-4.291s6.023,2.652,5.84,5.337-3.165,4.664-6.653,4.371S632.771,189.525,633.037,186.849Z" transform="translate(-482.268 -87.346)" fill="#e3a437"/>
          <path id="Tracé_2134" data-name="Tracé 2134" d="M626.812,186.015c.357-2.667,3.4-4.462,6.8-4.063s5.935,2.854,5.661,5.532-3.32,4.555-6.8,4.143S626.457,188.683,626.812,186.015Z" transform="translate(-492.188 -88.353)" fill="#e3a437"/>
          <path id="Tracé_2135" data-name="Tracé 2135" d="M620.61,184.974c.445-2.652,3.548-4.346,6.935-3.83s5.84,3.053,5.477,5.721-3.475,4.439-6.943,3.91S620.165,187.626,620.61,184.974Z" transform="translate(-502.077 -89.697)" fill="#e3a437"/>
          <path id="Tracé_2136" data-name="Tracé 2136" d="M614.438,183.726c.536-2.639,3.7-4.224,7.067-3.594s5.744,3.25,5.291,5.9-3.626,4.322-7.08,3.675S613.9,186.36,614.438,183.726Z" transform="translate(-511.926 -91.378)" fill="#e3a437"/>
          <path id="Tracé_2137" data-name="Tracé 2137" d="M608.3,182.266c.624-2.618,3.84-4.092,7.2-3.348s5.638,3.444,5.1,6.081-3.773,4.193-7.21,3.429S607.675,184.881,608.3,182.266Z" transform="translate(-521.727 -93.395)" fill="#e3a437"/>
          <path id="Tracé_2138" data-name="Tracé 2138" d="M602.2,180.6c.712-2.595,3.985-3.96,7.318-3.1s5.532,3.636,4.9,6.252-3.918,4.063-7.334,3.183S601.489,183.194,602.2,180.6Z" transform="translate(-531.472 -95.751)" fill="#e3a437"/>
          <path id="Tracé_2139" data-name="Tracé 2139" d="M596.148,178.726c.8-2.569,4.123-3.82,7.432-2.846s5.418,3.825,4.7,6.417-4.061,3.926-7.451,2.929S595.348,181.292,596.148,178.726Z" transform="translate(-541.152 -98.443)" fill="#e3a437"/>
          <path id="Tracé_2140" data-name="Tracé 2140" d="M589.463,176.391c.9-2.538,4.273-3.657,7.554-2.556s5.286,4.035,4.47,6.6-4.213,3.765-7.575,2.636S588.567,178.927,589.463,176.391Z" transform="translate(-551.849 -101.839)" fill="#e3a437"/>
          <path id="Tracé_2141" data-name="Tracé 2141" d="M582.66,173.72c1-2.5,4.423-3.483,7.668-2.25s5.146,4.247,4.229,6.775-4.366,3.6-7.691,2.333S581.665,176.219,582.66,173.72Z" transform="translate(-562.746 -105.772)" fill="#e3a437"/>
          <path id="Tracé_2142" data-name="Tracé 2142" d="M683.945,191.225c-.456-2.652,1.994-5.286,5.462-5.938s6.707.917,7.246,3.553-1.9,5.355-5.449,6.021S684.4,193.877,683.945,191.225Z" transform="translate(-401.399 -83.197)" fill="#e3a437"/>
          <path id="Tracé_2143" data-name="Tracé 2143" d="M690.313,190.155c-.544-2.634,1.818-5.35,5.267-6.122s6.746.686,7.373,3.3-1.722,5.418-5.252,6.2S690.859,192.789,690.313,190.155Z" transform="translate(-391.312 -85.283)" fill="#e3a437"/>
          <path id="Tracé_2144" data-name="Tracé 2144" d="M696.65,188.871c-.632-2.616,1.642-5.412,5.068-6.3s6.78.453,7.495,3.048S707.669,191.1,704.16,192,697.284,191.484,696.65,188.871Z" transform="translate(-381.282 -87.715)" fill="#e3a437"/>
          <path id="Tracé_2145" data-name="Tracé 2145" d="M702.951,187.372c-.723-2.592,1.461-5.464,4.863-6.472s6.805.217,7.608,2.786-1.365,5.529-4.848,6.557S703.673,189.964,702.951,187.372Z" transform="translate(-371.318 -90.494)" fill="#e3a437"/>
          <path id="Tracé_2146" data-name="Tracé 2146" d="M709.208,185.66c-.811-2.566,1.279-5.516,4.656-6.64s6.824-.018,7.715,2.522-1.181,5.573-4.638,6.723S710.016,188.224,709.208,185.66Z" transform="translate(-361.428 -93.62)" fill="#e3a437"/>
          <path id="Tracé_2147" data-name="Tracé 2147" d="M715.416,183.735c-.9-2.538,1.1-5.557,4.447-6.8s6.839-.259,7.813,2.25-1,5.612-4.423,6.883S716.314,186.27,715.416,183.735Z" transform="translate(-351.624 -97.094)" fill="#e3a437"/>
          <path id="Tracé_2148" data-name="Tracé 2148" d="M722.57,181.225c-1-2.5.888-5.6,4.2-6.982s6.847-.539,7.922,1.927-.785,5.653-4.172,7.065S723.567,183.721,722.57,181.225Z" transform="translate(-340.334 -101.571)" fill="#e3a437"/>
          <path id="Tracé_2149" data-name="Tracé 2149" d="M677.551,192.082c-.367-2.665,2.165-5.216,5.648-5.749s6.666,1.142,7.114,3.8-2.074,5.288-5.64,5.835S677.916,194.747,677.551,192.082Z" transform="translate(-411.532 -81.458)" fill="#e3a437"/>
          <path id="Tracé_2150" data-name="Tracé 2150" d="M671.135,192.725c-.277-2.678,2.338-5.141,5.832-5.555s6.617,1.367,6.974,4.035-2.248,5.213-5.824,5.638S671.41,195.4,671.135,192.725Z" transform="translate(-421.706 -80.066)" fill="#e3a437"/>
          <path id="Tracé_2151" data-name="Tracé 2151" d="M664.706,193.153c-.187-2.686,2.507-5.058,6.011-5.355s6.56,1.59,6.829,4.268-2.419,5.135-6.005,5.438S664.89,195.836,664.706,193.153Z" transform="translate(-431.91 -79.021)" fill="#e3a437"/>
          <path id="Tracé_2152" data-name="Tracé 2152" d="M658.265,193.368c-.093-2.688,2.675-4.97,6.187-5.151s6.5,1.813,6.676,4.5-2.587,5.052-6.181,5.234S658.361,196.056,658.265,193.368Z" transform="translate(-442.137 -78.323)" fill="#e3a437"/>
          <path id="Tracé_2153" data-name="Tracé 2153" d="M651.823,193.367c-.005-2.691,2.841-4.879,6.355-4.939s6.43,2.028,6.518,4.716-2.755,4.962-6.352,5.024S651.828,196.058,651.823,193.367Z" transform="translate(-452.375 -77.971)" fill="#e3a437"/>
          <path id="Tracé_2154" data-name="Tracé 2154" d="M645.382,193.154c.085-2.688,3-4.778,6.516-4.724s6.363,2.245,6.358,4.936-2.919,4.866-6.516,4.806S645.3,195.842,645.382,193.154Z" transform="translate(-462.617 -77.968)" fill="#e3a437"/>
          <path id="Tracé_2155" data-name="Tracé 2155" d="M638.949,192.727c.176-2.686,3.162-4.677,6.674-4.5s6.283,2.455,6.189,5.146-3.084,4.765-6.676,4.584S638.773,195.409,638.949,192.727Z" transform="translate(-472.853 -78.309)" fill="#e3a437"/>
          <path id="Tracé_2156" data-name="Tracé 2156" d="M632.528,192.084c.266-2.678,3.32-4.566,6.826-4.273s6.2,2.665,6.016,5.35-3.242,4.659-6.832,4.356S632.261,194.762,632.528,192.084Z" transform="translate(-483.076 -78.998)" fill="#e3a437"/>
          <path id="Tracé_2157" data-name="Tracé 2157" d="M626.126,191.231c.357-2.667,3.475-4.454,6.971-4.042s6.112,2.875,5.837,5.55-3.4,4.547-6.977,4.125S625.771,193.9,626.126,191.231Z" transform="translate(-493.276 -80.035)" fill="#e3a437"/>
          <path id="Tracé_2158" data-name="Tracé 2158" d="M619.748,190.161c.445-2.654,3.628-4.333,7.111-3.8s6.016,3.079,5.653,5.744-3.555,4.431-7.119,3.887S619.3,192.813,619.748,190.161Z" transform="translate(-503.444 -81.417)" fill="#e3a437"/>
          <path id="Tracé_2159" data-name="Tracé 2159" d="M613.4,188.876c.536-2.636,3.776-4.206,7.243-3.558s5.917,3.281,5.464,5.933-3.7,4.307-7.254,3.641S612.866,191.512,613.4,188.876Z" transform="translate(-513.571 -83.147)" fill="#e3a437"/>
          <path id="Tracé_2160" data-name="Tracé 2160" d="M607.088,187.379c.624-2.618,3.921-4.076,7.37-3.31s5.814,3.481,5.27,6.117-3.851,4.177-7.383,3.392S606.464,189.994,607.088,187.379Z" transform="translate(-523.649 -85.224)" fill="#e3a437"/>
          <path id="Tracé_2161" data-name="Tracé 2161" d="M600.815,185.667c.712-2.595,4.063-3.939,7.492-3.056s5.7,3.68,5.071,6.3-4,4.045-7.505,3.139S600.1,188.259,600.815,185.667Z" transform="translate(-533.669 -87.647)" fill="#e3a437"/>
          <path id="Tracé_2162" data-name="Tracé 2162" d="M594.59,183.74c.8-2.569,4.2-3.8,7.6-2.794s5.591,3.874,4.871,6.469-4.136,3.905-7.621,2.877S593.79,186.309,594.59,183.74Z" transform="translate(-543.621 -90.418)" fill="#e3a437"/>
          <path id="Tracé_2163" data-name="Tracé 2163" d="M587.716,181.344c.9-2.538,4.348-3.631,7.722-2.5s5.457,4.089,4.638,6.655-4.289,3.742-7.743,2.579S586.82,183.879,587.716,181.344Z" transform="translate(-554.618 -93.913)" fill="#e3a437"/>
          <path id="Tracé_2164" data-name="Tracé 2164" d="M582.039,179.142c.979-2.507,4.47-3.488,7.816-2.245s5.34,4.265,4.444,6.8-4.413,3.6-7.839,2.328S581.063,181.646,582.039,179.142Z" transform="translate(-563.705 -97.155)" fill="#e3a437"/>
          <path id="Tracé_2165" data-name="Tracé 2165" d="M575.111,176.17c1.075-2.468,4.612-3.3,7.919-1.927s5.192,4.483,4.2,6.982-4.561,3.424-7.945,2.01S574.036,178.635,575.111,176.17Z" transform="translate(-574.806 -101.571)" fill="#e3a437"/>
        </g>
        <g id="Groupe_267" data-name="Groupe 267" transform="translate(0 285.181)">
          <g id="Groupe_266" data-name="Groupe 266">
            <path id="Tracé_2166" data-name="Tracé 2166" d="M597.331,263.642c0,.176-.35.35-.526.35-.044,0-.088-.041-.132-.086l-1.937-4.444a1.346,1.346,0,0,0-.878-.88,32.355,32.355,0,0,0-5.366-.7c-.129,2.595-.308,10.027-.4,12.358-.044,2.465-.174,10.688-.174,12.446,0,.44.174.528.482.572l2.2.4c.135,0,.22.264.22.528,0,.085,0,.132-.132.132-.966-.047-3.387-.088-5.936-.088-2.331,0-4.485.041-5.454.088-.132,0-.132-.047-.132-.088,0-.22.088-.572.22-.572l2.243-.44c.308-.041.352-.176.352-.614.042-1.761-.132-10.468-.179-12.537,0-1.758-.173-9.939-.22-12.182a36.32,36.32,0,0,0-5.275.66,1.527,1.527,0,0,0-.968.922l-2.023,4.4c-.044.088-.088.13-.176.13-.132,0-.528-.22-.528-.35l.44-6.466a.278.278,0,0,1,.308-.308c.35,0,1.189.044,2.991.132,1.846.047,4.617.132,8.753.132,4,0,6.772-.044,8.619-.132,1.849-.041,2.771-.088,3.079-.088.176,0,.264.088.264.308Z" transform="translate(-572.615 -254.355)" fill="#f3525d"/>
            <path id="Tracé_2167" data-name="Tracé 2167" d="M600.831,268.363a1.325,1.325,0,0,1-.878,1.233c-1.629.528-9.59.528-11.656.35a14.621,14.621,0,0,0,.22,2.994c.748,3.3,3.211,5.366,5.762,5.366a14.217,14.217,0,0,0,2.944-.308,16.607,16.607,0,0,0,3.214-1.145c.088-.044.22.22.22.526,0,.135-.09.179-.179.267a23.248,23.248,0,0,1-5.058,2.2,11.856,11.856,0,0,1-3.869.44c-5.542,0-9.633-2.595-9.633-9.059,0-5.938,4.312-11.656,10.555-11.656,5.9,0,8.357,5.058,8.357,8.751Zm-9.147-7.917c-1.714,0-3.475,2.595-3.387,8.709a21.425,21.425,0,0,0,5.674-.264c.352-.176.616-.482.616-1.409,0-2.375-.528-7.078-2.859-7.078Z" transform="translate(-557.825 -250.062)" fill="#f3525d"/>
            <path id="Tracé_2168" data-name="Tracé 2168" d="M590.408,271.442a11.528,11.528,0,0,1,4.444-9.1,13,13,0,0,1,8.445-2.771,10.131,10.131,0,0,1,3.784.528c.132.041.217.174.217.394l.264,4.752c0,.132-.4.352-.528.352-.088,0-.13,0-.174-.088-.66-1.277-1.365-2.685-1.981-3.739a2.25,2.25,0,0,0-.79-.924,2.546,2.546,0,0,0-1.541-.4c-1.583,0-3.035,1.277-4.222,3.828a15.161,15.161,0,0,0-1.321,6.51c0,5.143,2.683,7.562,5.894,7.562a10.8,10.8,0,0,0,2.243-.262,11.782,11.782,0,0,0,2.9-1.013c.088-.044.22.132.22.4,0,.176-.044.308-.176.35a22.447,22.447,0,0,1-4.4,2.025,10.07,10.07,0,0,1-3.649.44c-5.366,0-9.633-2.333-9.633-8.8Z" transform="translate(-544.33 -250.062)" fill="#f3525d"/>
            <path id="Tracé_2169" data-name="Tracé 2169" d="M607.024,255.9c.262-.047.35.13.35.394,0,.352-.484,14.779-.616,18.252,0,.4-.041.924-.085,1.45h.217a12.15,12.15,0,0,1,.44-1.315c1.23-3.434,4.573-9.282,9.1-9.282,3.563,0,5.28,3.563,5.28,9.282,0,3.869-.352,7.652-.484,9.147-.047.7.044.88.352.966l2.111.44c.086,0,.22.264.22.528,0,.041-.044.088-.135.088-.79-.047-2.68-.088-5.231-.088-2.595,0-4.617.041-5.542.088-.132,0-.132-.047-.132-.088,0-.179.044-.528.176-.528l2.2-.4c.352-.044.44-.22.484-.616.132-1.142.22-3.693.22-6.42,0-4.18-.572-8.313-2.9-8.313-2.463,0-4.97,4.353-6.024,9.631a38.154,38.154,0,0,0-.4,5.148c0,.394.179.482.484.526l2.157.44c.086,0,.22.264.22.484,0,.085,0,.132-.135.132-.922-.047-3.167-.088-5.63-.088-2.416,0-4.4.041-5.1.088-.132,0-.132-.047-.132-.132,0-.176.132-.484.22-.484l2.111-.484c.264-.041.305-.176.352-.528.041-1.186-.047-10.379-.047-12.884,0-1.937-.129-11.568-.173-13.194,0-.4-.088-.572-.487-.616l-2.68-.132c-.135,0-.264-.264-.264-.528,0-.044,0-.132.129-.132Z" transform="translate(-533.019 -255.897)" fill="#f3525d"/>
            <path id="Tracé_2170" data-name="Tracé 2170" d="M624.119,256.936c1.536,0,2.724.041,3.69.085a.459.459,0,0,1,.355.176c1.406,4.75,5.936,19.925,7.7,25.332a.924.924,0,0,0,.572.572l1.624.44c.135.044.22.264.22.572,0,.041-.041.088-.13.088-.924,0-3.035-.088-5.234-.088-2.463,0-4.838.041-6.026.088-.132,0-.132-.047-.132-.088,0-.264.132-.572.264-.614l2.377-.4c.349-.042.394-.352.306-.7-.484-1.453-2.111-5.677-2.595-7.171-1.978.044-7.08.179-9.367.352-.132,0-.264.132-.308.352-.264,1.277-1.1,4.838-1.365,6.42-.041.528.132.66.44.748l2.287.44c.135,0,.267.308.267.572,0,.088-.047.088-.132.088-1.1-.047-2.862-.088-4.617-.088-1.5,0-2.815.041-3.7.088-.088,0-.088-.047-.088-.132,0-.135.088-.528.22-.57l1.1-.355c.352-.086.572-.264.793-.792,2.154-5.275,6.728-18.778,8.706-24.144.4-1.054.968-1.274,2.727-1.274Zm-2.375,3.473a14.148,14.148,0,0,0-.44,1.5c-1.1,3.649-2.51,8.751-3.343,11.783a.241.241,0,0,0,.22.311,83.7,83.7,0,0,0,8.619.4c-.746-2.113-3.032-8.489-4.221-12.449-.132-.394-.308-.922-.572-1.538Z" transform="translate(-512.345 -254.246)" fill="#f3525d"/>
            <path id="Tracé_2171" data-name="Tracé 2171" d="M638.691,266.277a.118.118,0,0,1,.135.132c0,.22-.135.7-.264.748l-7.476.526c-.088,2.862-.22,7.523-.267,8.271-.041,1.406-.086,7.212-.086,8.266a.546.546,0,0,0,.526.572l3.872.4c.132,0,.22.352.22.572,0,.041-.044.088-.13.088-2.245-.047-4.752-.088-7.171-.088-2.507,0-4.485.041-5.759.088-.091,0-.091-.047-.091-.088,0-.132.091-.528.22-.528l2.375-.4c.308-.044.44-.22.44-.57,0-1.673-.22-6.643-.262-8.753-.047-1.761-.22-6.992-.22-7.785l-3.434.088c-.088,0-.129-.044-.129-.176a2.971,2.971,0,0,1,.173-.793.8.8,0,0,1,.792-.66h2.639c.264-5.19,3.343-10.289,10.908-10.289a8.427,8.427,0,0,1,3.519.57.282.282,0,0,1,.22.264l.261,4.75c0,.176-.394.44-.572.44-.041,0-.088-.044-.173-.176-.66-1.23-1.453-2.815-1.981-3.737a2.206,2.206,0,0,0-.7-.836,2.058,2.058,0,0,0-1.233-.4c-2.2,0-3.869,3.3-3.957,9.369Z" transform="translate(-495.396 -255.893)" fill="#f3525d"/>
            <path id="Tracé_2172" data-name="Tracé 2172" d="M636.946,270.077c.088-.482.176-.878.22-1.142,1.013-4.18,3.3-9.367,7.3-9.367a2.441,2.441,0,0,1,1.406.35.4.4,0,0,1,.135.308l.306,6.114c0,.176-.394.4-.481.4-.044,0-.089,0-.132-.088-.528-1.013-1.232-2.2-1.761-3.035a1.56,1.56,0,0,0-1.23-.748c-2.419,0-4.485,4.4-5.674,10.382a44.12,44.12,0,0,0-.44,5.19c0,.394.179.482.484.526l3.431.484c.088,0,.22.306.22.44,0,.085,0,.132-.088.132-1.233-.047-3.783-.088-6.772-.088-2.595,0-4.884.041-5.41.088-.088,0-.088-.047-.088-.088,0-.22.088-.484.22-.484l2.2-.44a.506.506,0,0,0,.4-.57c0-1.145-.091-6.6-.132-8.359-.047-1.888-.088-6.42-.179-7.65,0-.4-.086-.66-.482-.7l-1.981-.132c-.174,0-.262-.352-.262-.528,0-.088,0-.176.13-.176l8.533-1.274c.352-.088.44.086.44.394,0,.66-.262,6.378-.44,8.8,0,.4-.042.922-.042,1.274Z" transform="translate(-484.331 -250.062)" fill="#f3525d"/>
            <path id="Tracé_2173" data-name="Tracé 2173" d="M644.51,264.482a.318.318,0,0,1,.394.35c-.085,1.761-.305,7.831-.349,9.986-.044,1.978-.132,6.86-.132,8.533,0,.394.088.482.4.57l2.2.44c.088,0,.22.306.22.44,0,.085,0,.132-.088.132-1.056-.047-3.123-.088-5.5-.088-2.416,0-4.483.041-5.363.088-.132,0-.132-.047-.132-.088,0-.179.088-.44.22-.484l2.067-.484c.308-.085.484-.176.484-.572,0-.966-.132-6.244-.176-8.4-.044-1.8-.176-6.466-.22-7.564-.044-.355-.088-.66-.484-.66l-1.979-.088c-.132,0-.308-.308-.308-.572,0-.044,0-.088.088-.088Zm-3.211-8a2.855,2.855,0,0,1,2.991,2.856,2.984,2.984,0,0,1-3.035,3.035,2.957,2.957,0,1,1,0-5.892Z" transform="translate(-472.239 -254.975)" fill="#f3525d"/>
            <path id="Tracé_2174" data-name="Tracé 2174" d="M641.02,271.442a11.52,11.52,0,0,1,4.444-9.1,13,13,0,0,1,8.442-2.771,10.12,10.12,0,0,1,3.784.528c.132.041.218.174.218.394l.267,4.752c0,.132-.4.352-.528.352-.088,0-.132,0-.176-.088-.661-1.277-1.365-2.685-1.979-3.739a2.278,2.278,0,0,0-.792-.924,2.542,2.542,0,0,0-1.541-.4c-1.582,0-3.035,1.277-4.221,3.828a15.159,15.159,0,0,0-1.318,6.51c0,5.143,2.683,7.562,5.892,7.562a10.8,10.8,0,0,0,2.243-.262,11.7,11.7,0,0,0,2.9-1.013c.091-.044.22.132.22.4,0,.176-.041.308-.176.35a22.322,22.322,0,0,1-4.4,2.025,10.081,10.081,0,0,1-3.649.44c-5.368,0-9.633-2.333-9.633-8.8Z" transform="translate(-463.873 -250.062)" fill="#f3525d"/>
            <path id="Tracé_2175" data-name="Tracé 2175" d="M661.854,268.143a15.982,15.982,0,0,0-.4-2.683c-.528-2.02-1.758-3.693-3.871-3.693s-4.089.924-6.376,2.9c-.044.047-.091.088-.132.088-.132,0-.484-.526-.264-.746a13.567,13.567,0,0,1,10.291-4.441c5.891,0,6.819,4.967,6.819,9.411,0,.837-.091,3.341-.179,4.838-.088,1.979-.173,3.913-.173,4.62,0,.306.085.44.438.526l1.849.44a.486.486,0,0,1,.262.44c0,.088-.042.129-.174.129-.528-.041-2.333-.041-4.048-.041-1.5,0-2.419,0-3.165.041-.135,0-.22-.041-.22-.22-.047-.35-.135-1.935-.135-2.9,0-.22-.044-.878-.044-1.23l-.13-.088c-.179.35-.4.748-.619,1.1a8.08,8.08,0,0,1-6.992,3.651,5.634,5.634,0,0,1-5.85-5.894c0-3.957,2.554-8.049,8.225-8.049a6.466,6.466,0,0,1,3.828,1.142,6.2,6.2,0,0,1,.88.707Zm-3.957,9.9c1.714,0,3.3-1.671,4.13-4.089a4.737,4.737,0,0,0,.308-1.582,4.356,4.356,0,0,0-.394-1.673c-.575-1.494-1.937-3.253-3.825-3.253-2.245,0-3.255,2.857-3.255,5.848,0,3.079,1.23,4.75,2.988,4.75Z" transform="translate(-451.593 -250.062)" fill="#f3525d"/>
            <path id="Tracé_2176" data-name="Tracé 2176" d="M683.13,279.452c.132,0,.22.306.22.484,0,.041,0,.088-.088.088-1.494-.047-3.035-.088-5.586-.088-2.507,0-4.4.041-5.5.088-.088,0-.129-.047-.129-.088,0-.132.085-.484.217-.484l2.111-.484a.616.616,0,0,0,.528-.616c.088-.922.22-4.353.22-6.376,0-3.828-.528-8.269-2.991-8.269-2.111,0-4.268,3.343-5.583,8.709a29.789,29.789,0,0,0-.66,5.98c0,.4.129.528.393.572l2.157.484c.132,0,.218.306.218.484,0,.041-.044.088-.132.088-1.714-.047-3.121-.088-5.5-.088s-4.042.041-5.363.088c-.088,0-.088-.047-.088-.088,0-.179.088-.484.22-.528l2.242-.4c.262-.088.394-.22.394-.616,0-1.318-.086-6.464-.086-8.4-.047-1.5-.176-6.422-.22-7.564-.047-.4-.047-.66-.44-.7l-1.935-.132c-.135,0-.264-.308-.264-.528,0-.088,0-.132.13-.132l8.533-1.362c.267-.044.352.088.352.35-.044.619-.264,6.2-.352,8.577,0,.44-.041,1.01-.088,1.5l.22.044c.135-.44.308-1.013.4-1.233,1.233-3.916,4.576-9.235,8.885-9.235,3.517,0,5.322,3.3,5.322,9.411,0,3.255-.308,7.344-.484,9.191-.044.44.044.66.484.748Z" transform="translate(-437.691 -250.067)" fill="#f3525d"/>
            <path id="Tracé_2177" data-name="Tracé 2177" d="M684.251,282.04c.132-.484.308-.969.44-1.406,1.582-5.809,4-15.043,5.41-21.2.264-1.274.441-1.362,2.947-1.582a12.584,12.584,0,0,1,1.583-.132.384.384,0,0,1,.4.308c1.453,5.41,4.048,16.931,5.41,22.869a10.218,10.218,0,0,0,.4,1.233h.22c.132-.352.264-.924.352-1.277,1.274-5.5,3.167-15.173,4.133-22.033.044-.487-.085-.748-.393-.792l-2.067-.308c-.179-.044-.267-.4-.267-.614,0-.091,0-.135.088-.135h8.445a.118.118,0,0,1,.132.135c0,.218-.088.526-.22.57l-.966.308a.973.973,0,0,0-.793.79c-1.23,4.312-6.07,20.057-7.7,24.19-.311.968-.572,1.057-3.871,1.142h-1.759a.467.467,0,0,1-.4-.306c-1.362-4.353-3.343-10.291-4.353-14.251-.179-.57-.4-1.582-.661-2.5H690.5c-.264.966-.616,2.111-.88,2.944-.969,2.859-3.3,9.807-4.659,13.021-.4.922-.619,1.01-4.444,1.1H679.15c-.22,0-.308-.085-.4-.35-1.274-4.309-4.354-17.592-6.068-25.244-.088-.311-.22-.528-.528-.572l-1.142-.22c-.132-.044-.267-.4-.267-.614a.119.119,0,0,1,.135-.135h12.006c.132,0,.132.044.132.176,0,.176-.132.528-.308.572l-2.2.308a.537.537,0,0,0-.44.66c.7,4.75,2.551,15.963,3.6,21.857.091.352.22.966.311,1.5Z" transform="translate(-416.613 -254.193)" fill="#f3525d"/>
            <path id="Tracé_2178" data-name="Tracé 2178" d="M695.732,280.283c-6.2,0-9.633-3.781-9.633-9.411,0-5.9,3.7-11.3,11.832-11.3,6.9,0,9.807,4.4,9.807,9.631,0,5.8-3.913,11.084-11.964,11.084Zm1.362-.836c3.123,0,4.045-4.045,4.045-9.631,0-5.06-1.23-9.411-4.219-9.411-2.9,0-4.268,3.869-4.268,9.719,0,5.058,1.582,9.323,4.4,9.323Z" transform="translate(-392.214 -250.062)" fill="#f3525d"/>
            <path id="Tracé_2179" data-name="Tracé 2179" d="M734.428,279.4c.129.044.22.308.22.484,0,.085,0,.132-.132.132-1.321-.047-2.815-.088-5.278-.088s-4.356.041-5.41.088c-.132,0-.132-.047-.132-.088,0-.179.088-.484.22-.528l1.979-.484c.264-.041.4-.22.44-.528.129-1.142.129-5.011.129-6.244,0-4.309-.7-8.489-3.076-8.489-2.859,0-4.576,5.058-5.19,9.149a49.821,49.821,0,0,0-.4,5.5c0,.352.135.482.484.572l2.375.526c.132.044.22.308.22.484,0,.085,0,.132-.088.132-1.406-.047-3.076-.088-5.586-.088s-4.221.041-5.363.088c-.132,0-.132-.047-.132-.132,0-.135.042-.44.22-.484l1.888-.484c.352-.088.44-.22.487-.572.13-1.01.085-4.4.085-5.979,0-4.485-.526-8.709-3.035-8.709-2.639,0-4.483,4.573-5.275,8.883-.176,1.453-.4,4.18-.4,5.85a.455.455,0,0,0,.4.528l2.023.484c.176.044.264.308.264.484,0,.085,0,.132-.132.132-1.849-.047-3.079-.088-5.454-.088-2.287,0-3.561.041-5.014.088-.132,0-.132-.047-.132-.088,0-.179.086-.484.22-.528l1.978-.44a.51.51,0,0,0,.44-.572c0-1.935-.088-6.684-.088-8.665-.044-1.45-.132-6.244-.264-7.432-.044-.394-.088-.658-.484-.7l-1.89-.088c-.132,0-.267-.264-.267-.528,0-.088,0-.132.179-.176l8.486-1.186c.267-.044.308.086.308.306,0,.528-.22,5.589-.394,7.919,0,.352-.088.966-.088,1.406l.262.088c.132-.528.308-1.1.4-1.362,1.186-3.3,3.825-8.4,8.574-8.4,3.209,0,4.97,3.033,5.1,7.782v1.279l.176.041c.088-.308.264-.922.4-1.321,1.01-2.945,3.693-7.782,8.4-7.782,3.209,0,5.19,3.077,5.19,9.281,0,3.341-.4,8.134-.484,9.32,0,.487.085.616.44.707Z" transform="translate(-377.614 -250.062)" fill="#f3525d"/>
            <path id="Tracé_2180" data-name="Tracé 2180" d="M730.172,268.363a1.325,1.325,0,0,1-.878,1.233c-1.629.528-9.59.528-11.656.35a14.579,14.579,0,0,0,.22,2.994c.748,3.3,3.211,5.366,5.759,5.366a14.225,14.225,0,0,0,2.947-.308,16.525,16.525,0,0,0,3.211-1.145c.091-.044.22.22.22.526,0,.135-.088.179-.176.267a23.369,23.369,0,0,1-5.058,2.2,11.857,11.857,0,0,1-3.869.44c-5.542,0-9.634-2.595-9.634-9.059,0-5.938,4.312-11.656,10.556-11.656,5.9,0,8.357,5.058,8.357,8.751Zm-9.147-7.917c-1.717,0-3.475,2.595-3.387,8.709a21.393,21.393,0,0,0,5.671-.264c.355-.176.619-.482.619-1.409,0-2.375-.528-7.078-2.859-7.078Z" transform="translate(-352.214 -250.062)" fill="#f3525d"/>
            <path id="Tracé_2181" data-name="Tracé 2181" d="M745.033,279.452c.132,0,.22.306.22.484,0,.041,0,.088-.088.088-1.494-.047-3.035-.088-5.583-.088-2.51,0-4.4.041-5.5.088-.091,0-.132-.047-.132-.088,0-.132.085-.484.22-.484l2.108-.484a.613.613,0,0,0,.528-.616c.091-.922.22-4.353.22-6.376,0-3.828-.528-8.269-2.991-8.269-2.108,0-4.265,3.343-5.583,8.709a29.78,29.78,0,0,0-.66,5.98c0,.4.132.528.394.572l2.157.484c.132,0,.218.306.218.484,0,.041-.042.088-.129.088-1.717-.047-3.123-.088-5.5-.088s-4.042.041-5.363.088c-.088,0-.088-.047-.088-.088,0-.179.088-.484.22-.528l2.243-.4c.264-.088.4-.22.4-.616,0-1.318-.088-6.464-.088-8.4-.044-1.5-.176-6.422-.22-7.564-.044-.4-.044-.66-.44-.7l-1.935-.132c-.132,0-.264-.308-.264-.528,0-.088,0-.132.132-.132l8.533-1.362c.264-.044.35.088.35.35-.042.619-.262,6.2-.35,8.577,0,.44-.044,1.01-.091,1.5l.22.044c.135-.44.308-1.013.4-1.233,1.23-3.916,4.573-9.235,8.883-9.235,3.519,0,5.322,3.3,5.322,9.411,0,3.255-.308,7.344-.484,9.191-.044.44.044.66.484.748Z" transform="translate(-339.285 -250.067)" fill="#f3525d"/>
          </g>
        </g>
      </g>
      <g id="Groupe_269" data-name="Groupe 269" transform="translate(73.231 340.965)">
        <path id="Tracé_2182" data-name="Tracé 2182" d="M636.625,287.792c0,.256-.51.51-.764.51-.065,0-.127-.065-.189-.127l-2.8-6.422a1.949,1.949,0,0,0-1.272-1.272,46.435,46.435,0,0,0-7.756-1.015c-.192,3.75-.445,14.494-.575,17.864-.062,3.561-.251,15.45-.251,17.993,0,.634.251.764.7.829l3.183.57c.189,0,.316.383.316.764,0,.127,0,.189-.189.189-1.4-.062-4.9-.124-8.585-.124-3.372,0-6.487.062-7.885.124-.189,0-.189-.062-.189-.124,0-.318.127-.829.318-.829l3.242-.634c.446-.062.508-.254.508-.891.065-2.543-.189-15.131-.254-18.12,0-2.543-.254-14.37-.316-17.61a52.375,52.375,0,0,0-7.632.953,2.2,2.2,0,0,0-1.4,1.334l-2.927,6.358c-.062.127-.124.192-.251.192-.192,0-.764-.316-.764-.51l.634-9.344a.4.4,0,0,1,.446-.445c.51,0,1.717.065,4.325.189,2.67.065,6.676.192,12.651.192,5.788,0,9.794-.065,12.462-.192,2.67-.062,4.006-.124,4.452-.124.254,0,.381.124.381.443Z" transform="translate(-600.893 -276.54)" fill="#081d82"/>
        <path id="Tracé_2183" data-name="Tracé 2183" d="M633.172,294.305a22.849,22.849,0,0,0-.57-3.879c-.764-2.924-2.546-5.34-5.6-5.34s-5.912,1.336-9.216,4.2c-.065.062-.127.127-.189.127-.194,0-.7-.761-.383-1.08a19.625,19.625,0,0,1,14.878-6.422c8.517,0,9.854,7.186,9.854,13.606,0,1.209-.127,4.835-.254,6.995-.127,2.862-.254,5.658-.254,6.676,0,.445.127.637.637.764l2.67.634a.7.7,0,0,1,.378.637c0,.127-.062.189-.251.189-.764-.062-3.372-.062-5.85-.062-2.162,0-3.5,0-4.578.062-.192,0-.319-.062-.319-.318-.062-.508-.189-2.8-.189-4.2,0-.318-.062-1.272-.062-1.782l-.192-.124c-.254.508-.572,1.08-.891,1.587a11.7,11.7,0,0,1-10.11,5.278,8.142,8.142,0,0,1-8.455-8.52c0-5.721,3.688-11.633,11.889-11.633a9.344,9.344,0,0,1,5.531,1.65,9.11,9.11,0,0,1,1.271,1.018Zm-5.723,14.305c2.481,0,4.77-2.416,5.98-5.912a7,7,0,0,0,.446-2.289,6.278,6.278,0,0,0-.575-2.419c-.826-2.16-2.8-4.7-5.532-4.7-3.242,0-4.7,4.133-4.7,8.458,0,4.449,1.779,6.865,4.322,6.865Z" transform="translate(-579.698 -270.335)" fill="#081d82"/>
        <path id="Tracé_2184" data-name="Tracé 2184" d="M663.941,310.651c.192,0,.319.445.319.7,0,.062,0,.124-.127.124-2.162-.062-4.387-.124-8.074-.124-3.625,0-6.358.062-7.948.124-.127,0-.192-.062-.192-.124,0-.192.127-.7.318-.7l3.051-.7a.893.893,0,0,0,.764-.891c.127-1.336.319-6.3.319-9.219,0-5.532-.764-11.954-4.325-11.954-3.053,0-6.168,4.832-8.074,12.588a43.419,43.419,0,0,0-.953,8.647c0,.572.192.764.57.829l3.118.7c.192,0,.318.445.318.7,0,.062-.065.124-.192.124-2.481-.062-4.514-.124-7.948-.124s-5.85.062-7.756.124c-.127,0-.127-.062-.127-.124,0-.256.127-.7.316-.764l3.242-.572c.383-.127.575-.319.575-.891,0-1.906-.129-9.346-.129-12.143-.062-2.162-.254-9.282-.316-10.936-.062-.572-.062-.953-.637-1.015l-2.8-.194c-.189,0-.383-.445-.383-.761,0-.127,0-.192.194-.192l12.332-1.971c.383-.062.51.127.51.51-.065.888-.383,8.965-.51,12.4,0,.637-.062,1.463-.127,2.162l.316.062c.194-.634.445-1.461.575-1.779,1.782-5.658,6.611-13.352,12.842-13.352,5.086,0,7.694,4.768,7.694,13.606,0,4.705-.445,10.618-.7,13.288-.065.637.065.953.7,1.083Z" transform="translate(-559.595 -270.342)" fill="#081d82"/>
        <path id="Tracé_2185" data-name="Tracé 2185" d="M648.8,309.557c.764.067,1.463,0,2.162,0,1.909-.062,9.919-.634,13.733-1.65a2.1,2.1,0,0,0,1.337-1.018l2.732-4.77c.065-.127.127-.127.189-.127.257,0,.829.318.764.572l-1.207,8.328c0,.256-.192.381-.573.381-2.227,0-7.694-.124-14.559-.124-4.452,0-6.231.062-8.839.062-.891,0-1.336-.381-2.033-1.906a7.117,7.117,0,0,1-.51-1.525.933.933,0,0,1,.127-.445c5.4-6.741,13.668-16.532,16.533-20.474.38-.572.953-1.207,1.336-1.717v-.192a5.567,5.567,0,0,0-1.466-.319,75.093,75.093,0,0,0-9.408-1.142,1.165,1.165,0,0,0-1.145.764l-3.434,6.228c-.065.129-.127.129-.192.129-.254,0-.888-.445-.826-.7l.953-7.373a.456.456,0,0,1,.445-.51c1.336.065,5.278.192,10.11.192,5.6,0,11.32-.065,12.524-.065a.421.421,0,0,1,.445.318,11.923,11.923,0,0,1,1.209,4.2,2.576,2.576,0,0,1-.572,1.782c-4.768,5.721-13.925,15.067-18.312,19.392-.381.445-1.08,1.145-1.588,1.652Z" transform="translate(-535.548 -270.14)" fill="#081d82"/>
        <path id="Tracé_2186" data-name="Tracé 2186" d="M673.1,294.305a22.6,22.6,0,0,0-.572-3.879c-.764-2.924-2.543-5.34-5.6-5.34s-5.912,1.336-9.217,4.2c-.065.062-.127.127-.192.127-.192,0-.7-.761-.381-1.08a19.621,19.621,0,0,1,14.878-6.422c8.517,0,9.854,7.186,9.854,13.606,0,1.209-.127,4.835-.254,6.995-.127,2.862-.256,5.658-.256,6.676,0,.445.13.637.637.764l2.672.634a.7.7,0,0,1,.378.637c0,.127-.062.189-.251.189-.764-.062-3.372-.062-5.85-.062-2.162,0-3.5,0-4.578.062-.192,0-.319-.062-.319-.318-.062-.508-.189-2.8-.189-4.2,0-.318-.065-1.272-.065-1.782l-.192-.124a18,18,0,0,1-.891,1.587,11.691,11.691,0,0,1-10.107,5.278,8.141,8.141,0,0,1-8.455-8.52c0-5.721,3.685-11.633,11.886-11.633a9.354,9.354,0,0,1,5.534,1.65,8.937,8.937,0,0,1,1.269,1.018Zm-5.723,14.305c2.481,0,4.77-2.416,5.98-5.912a7.08,7.08,0,0,0,.443-2.289,6.322,6.322,0,0,0-.572-2.419c-.829-2.16-2.8-4.7-5.532-4.7-3.242,0-4.7,4.133-4.7,8.458,0,4.449,1.779,6.865,4.322,6.865Z" transform="translate(-516.224 -270.335)" fill="#081d82"/>
        <path id="Tracé_2187" data-name="Tracé 2187" d="M703.869,310.651c.192,0,.318.445.318.7,0,.062,0,.124-.127.124-2.162-.062-4.39-.124-8.075-.124-3.626,0-6.358.062-7.95.124-.127,0-.189-.062-.189-.124,0-.192.127-.7.319-.7l3.051-.7a.9.9,0,0,0,.764-.891c.127-1.336.318-6.3.318-9.219,0-5.532-.764-11.954-4.324-11.954-3.053,0-6.169,4.832-8.075,12.588a43.244,43.244,0,0,0-.953,8.647c0,.572.192.764.57.829l3.115.7c.194,0,.319.445.319.7,0,.062-.062.124-.189.124-2.481-.062-4.514-.124-7.948-.124s-5.85.062-7.756.124c-.127,0-.127-.062-.127-.124,0-.256.127-.7.316-.764l3.242-.572c.381-.127.575-.319.575-.891,0-1.906-.129-9.346-.129-12.143-.065-2.162-.254-9.282-.316-10.936-.065-.572-.065-.953-.637-1.015l-2.8-.194c-.191,0-.383-.445-.383-.761,0-.127,0-.192.192-.192l12.334-1.971c.38-.062.508.127.508.51-.062.888-.381,8.965-.508,12.4,0,.637-.062,1.463-.127,2.162l.316.062c.191-.634.445-1.461.575-1.779,1.779-5.658,6.611-13.352,12.842-13.352,5.086,0,7.694,4.768,7.694,13.606,0,4.705-.446,10.618-.7,13.288-.065.637.062.953.7,1.083Z" transform="translate(-496.122 -270.342)" fill="#081d82"/>
        <path id="Tracé_2188" data-name="Tracé 2188" d="M694.408,289.009a.465.465,0,0,1,.572.51c-.127,2.543-.445,11.317-.51,14.432-.062,2.859-.189,9.919-.189,12.335,0,.57.127.7.572.826l3.177.634c.127,0,.319.445.319.637,0,.127,0,.189-.127.189-1.525-.062-4.517-.124-7.948-.124-3.5,0-6.487.062-7.756.124-.192,0-.192-.062-.192-.124,0-.256.127-.637.319-.7l2.986-.7c.446-.127.7-.256.7-.829,0-1.4-.192-9.028-.256-12.143-.062-2.608-.254-9.346-.316-10.936-.062-.508-.129-.953-.7-.953l-2.859-.127c-.192,0-.445-.445-.445-.826,0-.065,0-.127.127-.127Zm-4.641-11.571a4.131,4.131,0,0,1,4.322,4.13,4.317,4.317,0,0,1-4.39,4.39c-2.224,0-4.641-1.59-4.641-4.2a4.483,4.483,0,0,1,4.641-4.325Z" transform="translate(-472.348 -277.438)" fill="#081d82"/>
        <path id="Tracé_2189" data-name="Tracé 2189" d="M708.119,294.305a22.843,22.843,0,0,0-.572-3.879c-.764-2.924-2.545-5.34-5.6-5.34s-5.912,1.336-9.219,4.2c-.062.062-.127.127-.189.127-.191,0-.7-.761-.383-1.08a19.627,19.627,0,0,1,14.88-6.422c8.517,0,9.851,7.186,9.851,13.606,0,1.209-.127,4.835-.251,6.995-.127,2.862-.256,5.658-.256,6.676,0,.445.13.637.637.764l2.67.634a.7.7,0,0,1,.381.637c0,.127-.065.189-.254.189-.764-.062-3.372-.062-5.85-.062-2.162,0-3.5,0-4.576.062-.192,0-.319-.062-.319-.318-.065-.508-.192-2.8-.192-4.2,0-.318-.062-1.272-.062-1.782l-.192-.124c-.254.508-.572,1.08-.891,1.587a11.7,11.7,0,0,1-10.108,5.278,8.143,8.143,0,0,1-8.458-8.52c0-5.721,3.688-11.633,11.889-11.633a9.361,9.361,0,0,1,5.534,1.65,9.251,9.251,0,0,1,1.269,1.018ZM702.4,308.611c2.481,0,4.768-2.416,5.977-5.912a7.014,7.014,0,0,0,.445-2.289,6.28,6.28,0,0,0-.575-2.419c-.826-2.16-2.8-4.7-5.529-4.7-3.242,0-4.706,4.133-4.706,8.458,0,4.449,1.782,6.865,4.322,6.865Z" transform="translate(-460.561 -270.335)" fill="#081d82"/>
      </g>
    </g>
  </g>
</svg>
