<svg xmlns="http://www.w3.org/2000/svg" xmlns:xlink="http://www.w3.org/1999/xlink" width="678" height="81" viewBox="0 0 678 81">
  <defs>
    <clipPath id="clip-Plan_de_travail_4">
      <rect width="678" height="81"/>
    </clipPath>
  </defs>
  <g id="Plan_de_travail_4" data-name="Plan de travail – 4" clip-path="url(#clip-Plan_de_travail_4)">
    <rect width="678" height="81" fill="#fff"/>
    <g id="Groupe_422" data-name="Groupe 422" transform="translate(-497.182 -344.754)">
      <g id="Groupe_296" data-name="Groupe 296" transform="translate(513.182 355.754)">
        <path id="Tracé_2561" data-name="Tracé 2561" d="M551.732,367.774c0,.272-.547.549-.824.549-.067,0-.137-.07-.2-.137l-3.017-6.929a2.107,2.107,0,0,0-1.373-1.373,49.89,49.89,0,0,0-8.369-1.1c-.2,4.046-.479,15.637-.616,19.274-.067,3.841-.275,16.668-.275,19.414,0,.686.275.821.754.891l3.429.616c.2,0,.342.412.342.824,0,.137,0,.2-.2.2-1.508-.067-5.281-.137-9.257-.137-3.637,0-7,.07-8.509.137-.2,0-.2-.067-.2-.137,0-.342.137-.891.342-.891l3.5-.686c.482-.067.549-.275.549-.958.07-2.746-.207-16.326-.275-19.551,0-2.743-.275-15.5-.342-19a56.246,56.246,0,0,0-8.232,1.028,2.389,2.389,0,0,0-1.51,1.44l-3.155,6.859c-.07.137-.137.207-.275.207-.2,0-.824-.345-.824-.549l.687-10.086a.431.431,0,0,1,.479-.476c.549,0,1.855.067,4.665.2,2.883.067,7.2.2,13.65.2,6.242,0,10.566-.067,13.446-.2,2.88-.067,4.32-.137,4.8-.137.277,0,.412.137.412.479Z" transform="translate(-513.182 -353.289)" fill="#e3a639"/>
        <path id="Tracé_2562" data-name="Tracé 2562" d="M556.641,374.98a2.063,2.063,0,0,1-1.37,1.922c-2.541.824-14.956.824-18.178.549a22.331,22.331,0,0,0,.345,4.665c1.163,5.144,5,8.369,8.983,8.369a21.979,21.979,0,0,0,4.6-.482,26.067,26.067,0,0,0,5.007-1.785c.137-.067.342.345.342.826,0,.2-.137.272-.275.409a36.392,36.392,0,0,1-7.887,3.432,18.662,18.662,0,0,1-6.038.684c-8.644,0-15.023-4.046-15.023-14.132,0-9.257,6.724-18.176,16.466-18.176,9.193,0,13.031,7.887,13.031,13.651Zm-14.267-12.348c-2.676,0-5.419,4.049-5.281,13.583a33.364,33.364,0,0,0,8.848-.412c.549-.275.958-.754.958-2.2,0-3.7-.821-11.042-4.458-11.042Z" transform="translate(-489.56 -346.435)" fill="#e3a639"/>
        <path id="Tracé_2563" data-name="Tracé 2563" d="M539.884,379.782a17.983,17.983,0,0,1,6.929-14.2,20.286,20.286,0,0,1,13.169-4.32,15.733,15.733,0,0,1,5.9.824c.2.07.342.275.342.619l.412,7.408c0,.2-.616.546-.824.546-.135,0-.2,0-.272-.137-1.031-1.987-2.126-4.183-3.09-5.831a3.489,3.489,0,0,0-1.233-1.44,3.937,3.937,0,0,0-2.4-.619c-2.468,0-4.732,1.992-6.584,5.971a23.655,23.655,0,0,0-2.057,10.151c0,8.024,4.183,11.8,9.19,11.8a16.675,16.675,0,0,0,3.5-.412,17.975,17.975,0,0,0,4.525-1.577c.137-.067.344.2.344.619,0,.272-.07.476-.275.549a35.351,35.351,0,0,1-6.859,3.155,15.834,15.834,0,0,1-5.693.684c-8.369,0-15.024-3.634-15.024-13.718Z" transform="translate(-468.006 -346.435)" fill="#e3a639"/>
        <path id="Tracé_2564" data-name="Tracé 2564" d="M565.377,355.765c.412-.07.547.207.547.616,0,.549-.754,23.05-.958,28.467,0,.619-.067,1.44-.137,2.264h.342a18.09,18.09,0,0,1,.687-2.059c1.922-5.349,7.133-14.471,14.2-14.471,5.556,0,8.232,5.556,8.232,14.471,0,6.041-.549,11.938-.754,14.27-.07,1.1.067,1.373.549,1.51l3.292.686c.135,0,.342.409.342.821,0,.07-.07.137-.207.137-1.233-.067-4.18-.137-8.162-.137-4.046,0-7.2.07-8.644.137-.2,0-.2-.067-.2-.137,0-.272.067-.821.275-.821l3.429-.619c.549-.067.686-.342.754-.958.2-1.785.345-5.763.345-10.016,0-6.517-.894-12.964-4.528-12.964-3.841,0-7.75,6.792-9.4,15.023a59.235,59.235,0,0,0-.616,8.024c0,.619.272.754.754.824l3.359.686c.14,0,.344.409.344.754,0,.137,0,.2-.2.2-1.44-.067-4.94-.137-8.781-.137-3.774,0-6.861.07-7.957.137-.207,0-.207-.067-.207-.2,0-.275.207-.754.345-.754l3.292-.756c.412-.067.479-.275.549-.821.067-1.855-.07-16.189-.07-20.1,0-3.018-.2-18.038-.272-20.579,0-.616-.14-.891-.756-.958l-4.183-.2c-.2,0-.415-.414-.415-.826,0-.067,0-.2.21-.2Z" transform="translate(-449.947 -355.754)" fill="#e3a639"/>
        <path id="Tracé_2565" data-name="Tracé 2565" d="M591.27,357.312c2.4,0,4.253.07,5.763.137a.712.712,0,0,1,.549.277c2.194,7.408,9.26,31.072,12,39.509a1.427,1.427,0,0,0,.894.891l2.536.686c.2.07.342.412.342.891,0,.07-.067.137-.2.137-1.44,0-4.733-.137-8.162-.137-3.841,0-7.545.07-9.4.137-.207,0-.207-.067-.207-.137,0-.412.207-.891.412-.958l3.707-.619c.546-.067.614-.549.476-1.1-.754-2.264-3.29-8.848-4.046-11.179-3.088.067-11.042.272-14.609.549-.207,0-.415.2-.482.549-.412,1.987-1.715,7.545-2.127,10.014-.067.821.2,1.031.686,1.166l3.567.686c.2,0,.409.479.409.891,0,.137-.067.137-.2.137-1.712-.067-4.458-.137-7.2-.137-2.331,0-4.388.07-5.761.137-.137,0-.137-.067-.137-.2,0-.2.137-.824.345-.891l1.715-.549c.549-.137.891-.414,1.235-1.236,3.36-8.232,10.493-29.29,13.581-37.656.616-1.647,1.507-1.992,4.253-1.992Zm-3.7,5.419c-.342,1.031-.549,1.717-.686,2.334-1.715,5.691-3.909,13.648-5.212,18.383a.371.371,0,0,0,.344.479,128.694,128.694,0,0,0,13.443.619c-1.168-3.292-4.732-13.239-6.587-19.411-.2-.619-.479-1.443-.891-2.4Z" transform="translate(-416.928 -353.118)" fill="#e3a639"/>
        <path id="Tracé_2566" data-name="Tracé 2566" d="M613.376,371.944a.186.186,0,0,1,.207.207c0,.342-.207,1.1-.415,1.166l-11.661.824c-.135,4.46-.342,11.731-.412,12.9-.067,2.194-.137,11.247-.137,12.9a.854.854,0,0,0,.824.891l6.038.616c.2,0,.342.549.342.891,0,.07-.067.137-.2.137-3.5-.067-7.408-.137-11.179-.137-3.914,0-7,.07-8.988.137-.137,0-.137-.067-.137-.137,0-.2.137-.821.345-.821l3.7-.619c.479-.067.686-.342.686-.891,0-2.608-.345-10.358-.415-13.651-.067-2.746-.342-10.907-.342-12.14l-5.351.137c-.137,0-.2-.07-.2-.277a4.482,4.482,0,0,1,.275-1.233,1.234,1.234,0,0,1,1.236-1.028H591.7c.409-8.095,5.212-16.052,17.01-16.052a13.026,13.026,0,0,1,5.486.894.432.432,0,0,1,.345.409l.412,7.408c0,.275-.616.686-.894.686-.067,0-.135-.07-.272-.275-1.031-1.922-2.264-4.391-3.088-5.831a3.432,3.432,0,0,0-1.1-1.3,3.206,3.206,0,0,0-1.922-.619c-3.427,0-6.035,5.147-6.173,14.612Z" transform="translate(-389.857 -355.747)" fill="#e3a639"/>
        <path id="Tracé_2567" data-name="Tracé 2567" d="M610.241,377.656c.137-.754.275-1.37.342-1.782,1.58-6.517,5.144-14.612,11.386-14.612a3.84,3.84,0,0,1,2.2.549.621.621,0,0,1,.2.479l.482,9.535c0,.275-.619.619-.756.619-.067,0-.135,0-.2-.137-.821-1.577-1.922-3.429-2.743-4.735a2.444,2.444,0,0,0-1.922-1.163c-3.771,0-7,6.856-8.848,16.186a69.288,69.288,0,0,0-.686,8.094c0,.619.275.754.754.824l5.352.754c.137,0,.342.482.342.686,0,.137,0,.2-.135.2-1.922-.067-5.9-.137-10.566-.137-4.046,0-7.613.07-8.436.137-.137,0-.137-.067-.137-.137,0-.342.137-.754.342-.754l3.432-.686a.79.79,0,0,0,.616-.891c0-1.785-.137-10.288-.207-13.034-.067-2.948-.137-10.014-.275-11.933,0-.619-.135-1.031-.754-1.1l-3.085-.207c-.277,0-.415-.549-.415-.821,0-.137,0-.277.207-.277l13.309-1.987c.547-.14.686.137.686.616,0,1.028-.414,9.946-.686,13.718,0,.619-.07,1.44-.07,1.989Z" transform="translate(-372.185 -346.435)" fill="#e3a639"/>
        <path id="Tracé_2568" data-name="Tracé 2568" d="M621.587,369.107a.5.5,0,0,1,.616.549c-.137,2.743-.482,12.21-.549,15.572-.067,3.085-.2,10.7-.2,13.306,0,.619.137.754.616.891l3.429.686c.137,0,.344.482.344.686,0,.137,0,.2-.137.2-1.647-.067-4.872-.137-8.576-.137-3.771,0-7,.07-8.369.137-.2,0-.2-.067-.2-.137,0-.272.137-.686.344-.754l3.222-.754c.482-.137.754-.275.754-.891,0-1.51-.2-9.742-.272-13.1-.07-2.813-.277-10.086-.345-11.8-.07-.549-.137-1.031-.754-1.031l-3.088-.137c-.2,0-.482-.482-.482-.891,0-.067,0-.137.137-.137Zm-5.01-12.482a4.454,4.454,0,0,1,4.665,4.458,4.656,4.656,0,0,1-4.732,4.732c-2.4,0-5.007-1.715-5.007-4.528a4.835,4.835,0,0,1,5.007-4.662Z" transform="translate(-352.874 -354.28)" fill="#e3a639"/>
        <path id="Tracé_2569" data-name="Tracé 2569" d="M615.832,379.782a17.983,17.983,0,0,1,6.929-14.2,20.289,20.289,0,0,1,13.171-4.32,15.737,15.737,0,0,1,5.9.824c.2.07.342.275.342.619l.412,7.408c0,.2-.616.546-.821.546-.137,0-.207,0-.275-.137-1.031-1.987-2.127-4.183-3.088-5.831a3.528,3.528,0,0,0-1.233-1.44,3.95,3.95,0,0,0-2.4-.619c-2.469,0-4.732,1.992-6.584,5.971a23.657,23.657,0,0,0-2.057,10.151c0,8.024,4.183,11.8,9.19,11.8a16.655,16.655,0,0,0,3.5-.412,18.039,18.039,0,0,0,4.528-1.577c.135-.067.345.2.345.619,0,.272-.073.476-.277.549a35.274,35.274,0,0,1-6.859,3.155,15.825,15.825,0,0,1-5.693.684c-8.366,0-15.023-3.634-15.023-13.718Z" transform="translate(-339.512 -346.435)" fill="#e3a639"/>
        <path id="Tracé_2570" data-name="Tracé 2570" d="M647.865,374.638a24.583,24.583,0,0,0-.616-4.183c-.824-3.155-2.746-5.763-6.035-5.763s-6.38,1.44-9.949,4.528c-.067.07-.135.137-.2.137-.207,0-.754-.821-.412-1.166a21.168,21.168,0,0,1,16.052-6.929c9.193,0,10.633,7.75,10.633,14.682,0,1.3-.14,5.211-.277,7.543-.135,3.088-.272,6.105-.272,7.2,0,.479.137.686.687.824l2.88.686a.747.747,0,0,1,.409.686c0,.135-.067.2-.272.2-.824-.07-3.637-.07-6.312-.07-2.331,0-3.771,0-4.937.07-.207,0-.345-.07-.345-.342-.067-.549-.2-3.018-.2-4.53,0-.342-.067-1.37-.067-1.919l-.21-.137c-.272.549-.614,1.166-.958,1.715a12.618,12.618,0,0,1-10.907,5.693c-4.458,0-9.12-2.948-9.12-9.193,0-6.172,3.976-12.552,12.824-12.552a10.078,10.078,0,0,1,5.968,1.782,9.652,9.652,0,0,1,1.373,1.1Zm-6.175,15.435c2.678,0,5.147-2.608,6.45-6.38a7.6,7.6,0,0,0,.482-2.468,6.851,6.851,0,0,0-.619-2.608c-.891-2.331-3.018-5.077-5.968-5.077-3.5,0-5.074,4.458-5.074,9.125,0,4.8,1.917,7.408,4.662,7.408Z" transform="translate(-319.896 -346.435)" fill="#e3a639"/>
        <path id="Tracé_2571" data-name="Tracé 2571" d="M680.535,392.275c.2,0,.345.482.345.754,0,.07,0,.137-.14.137-2.331-.067-4.73-.137-8.708-.137-3.911,0-6.862.07-8.576.137-.135,0-.2-.067-.2-.137,0-.2.137-.754.342-.754l3.295-.754a.968.968,0,0,0,.824-.961c.135-1.44.339-6.792.339-9.946,0-5.968-.821-12.9-4.662-12.9-3.295,0-6.654,5.217-8.711,13.583a46.86,46.86,0,0,0-1.031,9.33c0,.616.207.821.616.891l3.362.754c.207,0,.342.482.342.754,0,.07-.067.137-.2.137-2.676-.067-4.87-.137-8.574-.137s-6.31.07-8.369.137c-.137,0-.137-.067-.137-.137,0-.272.137-.754.342-.821l3.5-.619c.415-.137.619-.342.619-.958,0-2.059-.137-10.084-.137-13.1-.067-2.334-.277-10.016-.344-11.8-.067-.619-.067-1.031-.686-1.1l-3.018-.207c-.2,0-.409-.479-.409-.821,0-.137,0-.2.2-.2l13.306-2.129c.415-.07.549.137.549.549-.067.961-.412,9.672-.549,13.376,0,.686-.067,1.577-.137,2.334l.342.067c.21-.686.482-1.577.619-1.922,1.922-6.1,7.133-14.4,13.855-14.4,5.489,0,8.3,5.147,8.3,14.682,0,5.074-.476,11.454-.754,14.334-.067.686.067,1.031.754,1.166Z" transform="translate(-297.697 -346.444)" fill="#e3a639"/>
        <path id="Tracé_2572" data-name="Tracé 2572" d="M681.5,396.462c.207-.754.482-1.507.686-2.194,2.469-9.055,6.242-23.46,8.436-33.062.412-1.989.686-2.127,4.6-2.471a19.591,19.591,0,0,1,2.469-.2.6.6,0,0,1,.619.476c2.261,8.439,6.307,26.413,8.434,35.67a15.913,15.913,0,0,0,.619,1.922h.344c.2-.549.409-1.44.547-1.989,1.989-8.576,4.939-23.664,6.447-34.367.07-.754-.135-1.163-.616-1.236l-3.222-.476c-.275-.07-.415-.619-.415-.961,0-.14,0-.207.14-.207H723.76a.182.182,0,0,1,.2.207c0,.342-.137.824-.344.891l-1.51.479a1.527,1.527,0,0,0-1.233,1.236c-1.922,6.722-9.465,31.28-12.006,37.729-.476,1.507-.891,1.645-6.035,1.782h-2.743a.735.735,0,0,1-.619-.482c-2.124-6.789-5.211-16.049-6.789-22.224-.275-.891-.619-2.468-1.028-3.909h-.412c-.412,1.51-.961,3.292-1.373,4.6-1.51,4.458-5.144,15.3-7.271,20.3-.616,1.44-.961,1.577-6.929,1.715h-2.127c-.342,0-.479-.137-.616-.549-1.989-6.722-6.791-27.438-9.467-39.371-.137-.482-.342-.826-.821-.894l-1.785-.342c-.207-.07-.412-.619-.412-.961a.182.182,0,0,1,.2-.207h18.727c.207,0,.207.067.207.277,0,.272-.207.821-.479.891l-3.432.476a.844.844,0,0,0-.686,1.031c1.1,7.408,3.979,24.9,5.626,34.09.137.549.342,1.513.479,2.334Z" transform="translate(-264.034 -353.032)" fill="#e3a639"/>
        <path id="Tracé_2573" data-name="Tracé 2573" d="M698.5,393.57c-9.669,0-15.023-5.9-15.023-14.679,0-9.193,5.763-17.629,18.456-17.629,10.767,0,15.3,6.859,15.3,15.023,0,9.055-6.105,17.285-18.657,17.285Zm2.127-1.3c4.872,0,6.312-6.312,6.312-15.023,0-7.887-1.922-14.679-6.584-14.679-4.53,0-6.657,6.038-6.657,15.161,0,7.887,2.471,14.541,6.862,14.541Z" transform="translate(-225.065 -346.435)" fill="#e3a639"/>
        <path id="Tracé_2574" data-name="Tracé 2574" d="M758.31,392.2c.2.067.342.479.342.754,0,.137,0,.2-.2.2-2.059-.067-4.391-.137-8.232-.137s-6.792.07-8.436.137c-.207,0-.207-.067-.207-.137,0-.272.137-.754.342-.821l3.09-.756c.409-.067.614-.345.686-.821.2-1.785.2-7.823.2-9.742,0-6.722-1.1-13.239-4.8-13.239-4.458,0-7.136,7.887-8.094,14.267a78.239,78.239,0,0,0-.619,8.576c0,.547.21.754.756.891l3.7.824c.207.067.344.479.344.754,0,.137,0,.2-.137.2-2.2-.067-4.8-.137-8.711-.137s-6.587.07-8.372.137c-.2,0-.2-.067-.2-.2,0-.2.067-.686.344-.754l2.95-.756c.547-.135.684-.345.754-.891.2-1.58.137-6.859.137-9.327,0-7-.824-13.583-4.735-13.583-4.113,0-7,7.133-8.232,13.855-.272,2.264-.616,6.517-.616,9.125a.707.707,0,0,0,.616.821l3.155.756c.277.067.412.479.412.754,0,.137,0,.2-.2.2-2.88-.067-4.8-.137-8.506-.137-3.567,0-5.556.07-7.82.137-.2,0-.2-.067-.2-.137,0-.272.135-.754.344-.821l3.085-.686c.409-.137.687-.275.687-.891,0-3.018-.137-10.428-.137-13.516-.07-2.264-.207-9.739-.412-11.591-.07-.616-.137-1.028-.754-1.1l-2.95-.135c-.2,0-.412-.415-.412-.824,0-.14,0-.207.275-.277l13.239-1.849c.409-.07.479.137.479.479,0,.821-.342,8.711-.616,12.348,0,.549-.137,1.507-.137,2.194l.412.137c.2-.824.482-1.715.616-2.127,1.852-5.144,5.968-13.1,13.376-13.1,5.007,0,7.752,4.732,7.957,12.14v1.992l.275.067c.137-.482.412-1.44.616-2.059,1.577-4.6,5.763-12.14,13.1-12.14,5.009,0,8.094,4.8,8.094,14.471,0,5.217-.616,12.692-.754,14.544,0,.754.137.961.686,1.1Z" transform="translate(-201.745 -346.435)" fill="#e3a639"/>
        <path id="Tracé_2575" data-name="Tracé 2575" d="M750.734,374.98a2.062,2.062,0,0,1-1.373,1.922c-2.538.824-14.953.824-18.178.549a22.7,22.7,0,0,0,.344,4.665c1.166,5.144,5.007,8.369,8.985,8.369a21.933,21.933,0,0,0,4.6-.482,26.026,26.026,0,0,0,5.01-1.785c.135-.067.342.345.342.826,0,.2-.137.272-.275.409a36.363,36.363,0,0,1-7.89,3.432,18.63,18.63,0,0,1-6.035.684c-8.644,0-15.023-4.046-15.023-14.132,0-9.257,6.724-18.176,16.463-18.176,9.193,0,13.034,7.887,13.034,13.651Zm-14.27-12.348c-2.673,0-5.416,4.049-5.281,13.583a33.385,33.385,0,0,0,8.851-.412c.549-.275.958-.754.958-2.2,0-3.7-.824-11.042-4.458-11.042Z" transform="translate(-161.182 -346.435)" fill="#e3a639"/>
        <path id="Tracé_2576" data-name="Tracé 2576" d="M773.432,392.275c.2,0,.345.482.345.754,0,.07,0,.137-.14.137-2.331-.067-4.732-.137-8.708-.137-3.914,0-6.862.07-8.576.137-.137,0-.2-.067-.2-.137,0-.2.137-.754.342-.754l3.292-.754a.963.963,0,0,0,.824-.961c.137-1.44.342-6.792.342-9.946,0-5.968-.824-12.9-4.662-12.9-3.295,0-6.654,5.217-8.714,13.583a46.878,46.878,0,0,0-1.031,9.33c0,.616.21.821.619.891l3.362.754c.2,0,.342.482.342.754,0,.07-.067.137-.2.137-2.676-.067-4.872-.137-8.576-.137s-6.31.07-8.366.137c-.137,0-.137-.067-.137-.137,0-.272.137-.754.342-.821l3.5-.619c.412-.137.616-.342.616-.958,0-2.059-.137-10.084-.137-13.1-.067-2.334-.275-10.016-.342-11.8-.07-.619-.07-1.031-.686-1.1l-3.018-.207c-.207,0-.412-.479-.412-.821,0-.137,0-.2.2-.2l13.309-2.129c.412-.07.549.137.549.549-.07.961-.412,9.672-.549,13.376,0,.686-.07,1.577-.137,2.334l.342.067c.207-.686.482-1.577.616-1.922,1.922-6.1,7.136-14.4,13.858-14.4,5.489,0,8.3,5.147,8.3,14.682,0,5.074-.479,11.454-.754,14.334-.07.686.067,1.031.754,1.166Z" transform="translate(-140.533 -346.444)" fill="#e3a639"/>
      </g>
    </g>
  </g>
</svg>
