<?xml version="1.0" encoding="utf-8"?>
<!-- Generator: Adobe Illustrator 23.0.1, SVG Export Plug-In . SVG Version: 6.00 Build 0)  -->
<svg version="1.1" id="Calque_1" xmlns="http://www.w3.org/2000/svg" xmlns:xlink="http://www.w3.org/1999/xlink" x="0px" y="0px"
	 viewBox="0 0 1200 600" style="enable-background:new 0 0 1200 600;" xml:space="preserve">
<style type="text/css">
	.st0{fill:#6A53A3;}
	.st1{fill:#C0B7DB;}
</style>
<path class="st0" d="M369.5,519c-0.9-0.6-2-0.6-3-0.8c-8.1-1.7-14.1-6.7-18.4-14.3c-2.8-4.9-3.8-10.2-3.8-15.8c0-20,0-40,0-60
	c0-1,0-2,0-3c0-2.9,0.1-2.3-2-3c-12-3.5-23.2-9-33.7-16.4c-16.7-11.7-29.8-27.2-39.8-46c-6.4-12.2-10.8-25.1-13.2-38.8
	c-1.3-7.3-2.1-14.7-2.1-22.2c0-36-0.1-72.1,0-108.1c0-10.9,4.6-19.7,13-25.4c14.7-10,32.1-3.6,39.7,11.3c2.5,4.8,3.6,9.9,3.6,15.4
	c0,35,0,69.9,0,104.9c0,14.6,3.9,27.9,11.6,39.9c6.4,9.9,14.7,17.2,24.8,22.2c10.4,5.1,21.4,7.1,32.8,5.9c19.1-2,34.2-11.9,45.5-29
	c5.8-8.9,9.4-18.7,11-29.4c0.6-4.1,0.8-8.3,0.8-12.5c0-16.3,0.3-32.6-0.1-48.9c-0.3-13.1,8.4-27.7,22.6-30.9
	c18-4.1,31,9.8,33.1,24.5c0.2,1.7,0.4,3.4,0.4,5.1c0,18,0.1,36,0,54c-0.2,29.3-8.9,55.5-25.2,78.6c-10.6,15-23.8,27-39.3,35.8
	c-7.9,4.5-16.1,8-24.8,10.4c-0.4,0.1-0.9,0.3-1.3,0.4c-0.9,0.1-1.2,0.7-1.1,1.6c0,0.5,0,1,0,1.5c0,20.8,0,41.6,0,62.3
	c0,7.7-2.3,14.5-6.9,20.2c-4.5,5.6-10.3,8.7-16.9,10.1c-0.5,0.1-1,0-1.5,0.5C373.4,519,371.5,519,369.5,519z"/>
<path class="st0" d="M9.5,279.3c0.6-1.2,0.6-2.6,0.7-3.9c0.9-14.3,4-28,9.1-41.1c2.6-6.8,5.7-13.4,9.4-19.6
	c10.3-17.2,23.1-31.6,39.2-42.4c12.5-8.4,25.8-14.6,40.2-17.9c7.2-1.6,14.4-2.6,21.7-2.9c18.1-0.7,35.6,2.1,52.5,9
	c14.5,5.9,27.2,14.8,38,26.9c4.9,5.6,8.4,12,9.6,19.8c0.8,5,0.5,9.9-1.2,14.6c-1,2.7-2.2,5.3-3.9,7.5c-5.2,6.9-11.6,11.7-19.8,13
	c-4.8,0.8-9.4-0.2-13.8-2.3c-4.6-2.3-8.8-5.4-12.8-8.8c-6-5.2-12.4-9.8-19.5-13c-10.7-4.8-21.8-6.7-33.3-5.1
	c-23.3,3.3-40.2,17.2-51.5,39.5c-3.5,6.9-6.2,14.2-7.3,22.1c-1.5,10.4-1.5,20.8,1.7,30.9c6.8,21.4,19,37.7,37.7,47.7
	c7.5,4,15.5,6,23.8,6c9.1,0.1,18-1.1,26.5-4.4c7.3-2.9,13.6-7.4,19.6-12.8c3.2-3,6.6-5.7,10.2-8.1c4.3-2.8,8.8-4.8,13.8-5.1
	c4.9-0.3,9.5,1,13.8,3.5c4.9,2.9,9.2,6.6,12.2,11.9c4.4,7.9,5.1,16.3,2.4,24.9c-1.8,5.8-4.7,10.9-8.6,15.2
	c-8.9,9.9-19.1,17.9-30.6,23.7c-11.4,5.8-23.3,9.7-35.8,11.5c-29.5,4.2-57.3-1.2-83.2-17.7c-16.1-10.2-29.2-23.8-39.7-40.5
	c-8.9-14.1-14.9-29.4-18.2-46.1c-1.1-5.6-1.9-11.3-2.2-17c-0.1-1.4-0.1-2.8-0.7-4.1C9.5,289.2,9.5,284.3,9.5,279.3z"/>
<path class="st1" d="M1190.2,280.6c0.1,0,0.2,0,0.3,0c0,36.2,0,72.4,0,108.5l-0.2,0c0,0-0.2,0-0.2,0c0-0.4-0.1-0.8-0.1-1.3
	c0-34.2,0-68.4,0-102.7C1190.1,283.7,1190.2,282.1,1190.2,280.6z"/>
<path class="st0" d="M1190.2,280.6c0,1.6-0.1,3.1-0.1,4.7c0,34.2,0,68.4,0,102.7c0,0.4,0,0.8,0.1,1.3c-0.6,8.8-4.1,16-10.5,21.4
	c-5.5,4.8-11.8,7.2-18.9,7.1c-7.6-0.2-13.9-3.3-19.1-9.4c-2.9-3.5-5-7.4-6.2-11.9c-0.1-0.3-0.2-0.7-0.3-1c0-0.1-0.1-0.1-0.2-0.2
	c-0.7,0.1-1.1,0.7-1.7,1.2c-9.3,7.4-19.3,13.4-30.2,17.7c-9.2,3.7-18.7,6-28.5,6.7c-17.9,1.3-35.2-1.6-51.9-8.7
	c-14.9-6.4-28.1-15.6-39.8-27.5c-17.7-18.1-29.4-40-35.7-65.6c-1.9-7.8-2.9-15.8-3.4-23.9c-1-17.8,0.8-35.3,6.3-52.1
	c6.5-20.2,16.7-37.9,30.7-52.8c11.5-12.2,24.6-21.8,39.5-28.5c11.4-5.2,23.3-8.5,35.6-9.6c14.8-1.3,29.4-0.1,43.8,4.1
	c14.1,4.2,27,11.1,38.9,20.2c18.1,13.9,31.4,32.3,40.8,54.1c5,11.6,8.1,23.7,9.8,36.3C1189.8,271.3,1190.2,275.9,1190.2,280.6z
	 M1067.1,212.8c-34.2-0.5-67.4,30.3-67.4,73.4c0,40.8,31.2,73.7,67.3,73.6c37.4-0.2,67-32.5,67.1-73.4
	C1134.1,242.5,1101.9,212.5,1067.1,212.8z"/>
<path class="st0" d="M603.4,286.1c-0.1-26.9,6.9-51.5,20.5-73.7c10.2-16.6,22.9-30.5,38.6-40.9c12.5-8.3,25.9-14.5,40.4-17.5
	c11.6-2.4,23.3-3,35.2-2c15.6,1.4,30.3,6.1,44.3,13.7c15.2,8.3,28.2,19.7,39.2,33.9c12.2,15.7,20.4,33.5,25.1,53.4
	c1.9,8.1,3,16.4,3.4,24.8c1,17.9-1,35.4-6.3,52.3c-4.4,14-10.6,27-18.9,38.6c-11,15.4-24.3,27.9-40.1,36.9
	c-11.7,6.6-23.9,11.4-36.9,13.7c-9.5,1.6-19.2,2.2-28.8,1.5c-11.6-0.8-22.9-3.3-33.9-7.7c-6.4-2.6-12.6-5.9-18.6-9.6
	c-16.4-10.1-29.8-23.8-40.7-40.6c-9.7-15.1-16.4-31.6-19.9-49.7C604.1,304.2,603.4,295.2,603.4,286.1z M727,212.8
	c-37.6-0.2-67.6,34.1-67.5,73.1c0.1,40.4,30.4,73.8,67.3,73.8c38.1,0.1,67.3-34.4,67.3-73.5C794.2,245.1,763.3,212.4,727,212.8z"/>
<path class="st0" d="M582.1,315.7c0,23.1,0,46.2,0,69.4c0,5.4-0.3,10.8-1,16.1c-0.9,7.7-4.6,13.7-10.1,18.2
	c-6.5,5.4-14,6.7-21.9,5.1c-9-1.8-15.7-7.2-20.1-16.1c-1.3-2.6-1.7-5.3-2.1-8.1c-0.5-4.5-0.9-9-0.9-13.6c0-46-0.1-92.1,0.1-138.1
	c0.1-13.9-2.7-26.7-9.2-38.5c-9.1-16.5-22.4-27-39.8-30.5c-16.9-3.4-32.7,0-46.8,11.2c-11,8.7-17.8,20.6-21.8,34.5
	c-2.1,7.2-2.9,14.7-2.9,22.2c0,13.5,0,27,0,40.4c0,4.6-0.5,9.1-2.3,13.3c-4.3,10.1-11.5,16-21.6,17.4c-12.4,1.8-24.5-5.4-29.8-17.7
	c-1.6-3.6-2.4-7.5-2.4-11.5c0-15.2-0.3-30.4,0.1-45.5c0.8-35.7,12.7-66.4,36-91.5c11.4-12.3,24.8-21.3,39.8-27.4
	c10.2-4.1,20.7-6.6,31.6-7.4c17.1-1.3,33.7,0.8,49.8,7.4c13.2,5.4,25,13.2,35.6,23.4c19.6,18.9,31.7,42.7,37.4,70.5
	c2,9.7,2.6,19.5,2.6,29.4C582,270.6,582.1,293.2,582.1,315.7z"/>
<path class="st0" d="M865.1,287.3c0-33.3,0.1-66.7-0.1-100c-0.1-13.3,8.6-26.5,21-30.3c16-4.8,31.9,6.1,34.8,24
	c0.3,1.8,0.5,3.6,0.5,5.5c0,67.2,0,134.5,0,201.7c0,12.6-6.7,23.7-17.3,28.3c-16.6,7.3-35.3-3.7-38.4-22.9c-0.3-2-0.5-4.1-0.5-6.1
	C865.1,354.1,865.1,320.7,865.1,287.3z"/>
<path class="st0" d="M893.2,66.4c16.9-0.2,30.9,14.9,30.9,33.7c0,18.6-13.9,33.7-31.1,33.6c-17.6-0.1-30.8-15.8-30.7-33.8
	C862.4,80.9,876.8,66,893.2,66.4z"/>
</svg>
