<svg xmlns="http://www.w3.org/2000/svg" xmlns:xlink="http://www.w3.org/1999/xlink" width="471" height="649" viewBox="0 0 471 649">
  <defs>
    <filter id="Rectangle_22" x="28" y="21" width="416" height="601" filterUnits="userSpaceOnUse">
      <feOffset dy="3" input="SourceAlpha"/>
      <feGaussianBlur stdDeviation="3" result="blur"/>
      <feFlood flood-opacity="0.161"/>
      <feComposite operator="in" in2="blur"/>
      <feComposite in="SourceGraphic"/>
    </filter>
    <clipPath id="clip-Plan_de_travail_12">
      <rect width="471" height="649"/>
    </clipPath>
  </defs>
  <g id="Plan_de_travail_12" data-name="Plan de travail – 12" clip-path="url(#clip-Plan_de_travail_12)">
    <rect width="471" height="649" fill="#fff"/>
    <g id="Groupe_433" data-name="Groupe 433" transform="translate(-896 -5544.619)">
      <g transform="matrix(1, 0, 0, 1, 896, 5544.62)" filter="url(#Rectangle_22)">
        <g id="Rectangle_22-2" data-name="Rectangle 22" transform="translate(37 27)" fill="#fff" stroke="#d5d5d5" stroke-width="1">
          <rect width="398" height="583" rx="14" stroke="none"/>
          <rect x="0.5" y="0.5" width="397" height="582" rx="13.5" fill="none"/>
        </g>
      </g>
      <g id="Groupe_278" data-name="Groupe 278" transform="translate(994 5729.012)">
        <g id="Groupe_276" data-name="Groupe 276" transform="translate(0 0)">
          <g id="Groupe_272" data-name="Groupe 272" transform="translate(1.117 90.965)">
            <g id="Groupe_271" data-name="Groupe 271">
              <path id="Tracé_2190" data-name="Tracé 2190" d="M395.176,223.35c0,.553-1.1,1.1-1.655,1.1-.137,0-.275-.137-.412-.275l-6.069-13.928a4.226,4.226,0,0,0-2.758-2.759c-4.689-1.378-14.344-2.069-16.824-2.206-.414,8.136-.966,31.443-1.242,38.75-.137,7.723-.552,33.511-.552,39.029,0,1.378.552,1.655,1.517,1.792l6.9,1.242c.414,0,.689.826.689,1.655,0,.275,0,.412-.412.412-3.034-.137-10.618-.275-18.617-.275-7.311,0-14.069.137-17.1.275-.414,0-.414-.137-.414-.275,0-.689.275-1.792.691-1.792l7.033-1.38c.966-.137,1.1-.552,1.1-1.93.137-5.517-.412-32.823-.552-39.3,0-5.517-.552-31.168-.689-38.2-2.345.137-11.861.828-16.55,2.069a4.787,4.787,0,0,0-3.033,2.9l-6.345,13.79c-.137.275-.275.412-.55.412-.416,0-1.656-.687-1.656-1.1l1.378-20.271a.873.873,0,0,1,.966-.966c1.1,0,3.723.139,9.378.414,5.794.137,14.481.412,27.445.412,12.55,0,21.237-.137,27.029-.412,5.792-.137,8.687-.275,9.653-.275.552,0,.828.275.828.964Z" transform="translate(-317.674 -202.113)" fill="#081d82"/>
              <path id="Tracé_2191" data-name="Tracé 2191" d="M398.4,202.426c4.826,0,8.55.137,11.584.275a1.43,1.43,0,0,1,1.1.553c4.412,14.893,18.618,62.472,24.132,79.434a2.9,2.9,0,0,0,1.794,1.792l5.1,1.38c.412.137.687.826.687,1.792,0,.137-.138.275-.412.275-2.9,0-9.517-.275-16.412-.275-7.723,0-15.168.137-18.891.275-.416,0-.416-.137-.416-.275,0-.828.416-1.792.828-1.931l7.448-1.241c1.1-.137,1.24-1.1.964-2.206-1.517-4.552-6.618-17.79-8.137-22.477-6.2.137-22.2.55-29.372,1.1-.414,0-.826.412-.966,1.1-.826,4-3.448,15.168-4.275,20.132-.137,1.656.414,2.069,1.38,2.345l7.17,1.38c.414,0,.828.964.828,1.792,0,.275-.138.275-.414.275-3.447-.137-8.964-.275-14.479-.275-4.689,0-8.826.137-11.584.275-.279,0-.279-.137-.279-.412,0-.414.279-1.655.691-1.794l3.448-1.1c1.1-.275,1.794-.826,2.481-2.483,6.758-16.546,21.1-58.886,27.305-75.71,1.241-3.307,3.034-4,8.551-4Zm-7.448,10.9a48.061,48.061,0,0,0-1.378,4.689c-3.448,11.447-7.861,27.443-10.481,36.958a.752.752,0,0,0,.691.966,258.653,258.653,0,0,0,27.029,1.241c-2.345-6.62-9.515-26.615-13.239-39.027-.414-1.241-.966-2.9-1.794-4.826Z" transform="translate(-288.628 -201.874)" fill="#081d82"/>
              <path id="Tracé_2192" data-name="Tracé 2192" d="M443.6,281.191c.416-1.519.966-3.036,1.381-4.414,4.964-18.2,12.55-47.164,16.962-66.472.826-4,1.378-4.275,9.239-4.964a39.349,39.349,0,0,1,4.964-.414,1.208,1.208,0,0,1,1.242.966c4.55,16.962,12.687,53.094,16.962,71.71a31.975,31.975,0,0,0,1.24,3.863h.691c.412-1.1.828-2.9,1.1-4,4-17.239,9.929-47.578,12.962-69.092q.209-2.273-1.241-2.481l-6.481-.966c-.552-.137-.826-1.242-.826-1.929,0-.277,0-.416.275-.416h26.477a.367.367,0,0,1,.414.416c0,.687-.277,1.653-.689,1.792l-3.034.966a3.054,3.054,0,0,0-2.483,2.481c-3.861,13.515-19.031,62.886-24.134,75.848-.966,3.036-1.792,3.311-12.135,3.586h-5.517a1.472,1.472,0,0,1-1.24-.966c-4.273-13.653-10.481-32.269-13.653-44.68-.55-1.794-1.241-4.964-2.069-7.861h-.826c-.828,3.034-1.931,6.618-2.759,9.239-3.033,8.964-10.342,30.752-14.617,40.821-1.242,2.9-1.93,3.172-13.929,3.447H427.6c-.689,0-.966-.275-1.24-1.1-4-13.515-13.653-55.161-19.032-79.159-.275-.964-.687-1.653-1.653-1.792l-3.586-.689c-.414-.137-.828-1.242-.828-1.929a.367.367,0,0,1,.414-.416h37.649c.412,0,.412.139.412.553,0,.55-.412,1.655-.966,1.792l-6.9.966a1.686,1.686,0,0,0-1.378,2.069c2.206,14.893,8,50.059,11.307,68.539.277,1.1.689,3.034.966,4.691Z" transform="translate(-253.975 -201.756)" fill="#081d82"/>
            </g>
          </g>
          <g id="Groupe_273" data-name="Groupe 273" transform="translate(3.86)">
            <path id="Tracé_2193" data-name="Tracé 2193" d="M423.014,163.3a3.7,3.7,0,1,1,4.238,2.6A3.533,3.533,0,0,1,423.014,163.3Z" transform="translate(-240.172 -143.764)" fill="#e3a437"/>
            <path id="Tracé_2194" data-name="Tracé 2194" d="M417.661,164.084a3.7,3.7,0,1,1,4.141,2.744A3.528,3.528,0,0,1,417.661,164.084Z" transform="translate(-244.24 -143.069)" fill="#e3a437"/>
            <path id="Tracé_2195" data-name="Tracé 2195" d="M412.29,164.687a3.692,3.692,0,1,1,4.042,2.881A3.523,3.523,0,0,1,412.29,164.687Z" transform="translate(-248.324 -142.512)" fill="#e3a437"/>
            <path id="Tracé_2196" data-name="Tracé 2196" d="M406.905,165.11a3.689,3.689,0,1,1,3.94,3.015A3.489,3.489,0,0,1,406.905,165.11Z" transform="translate(-252.421 -142.095)" fill="#e3a437"/>
            <path id="Tracé_2197" data-name="Tracé 2197" d="M401.512,165.35a3.687,3.687,0,1,1,3.836,3.147A3.523,3.523,0,0,1,401.512,165.35Z" transform="translate(-256.527 -141.816)" fill="#e3a437"/>
            <path id="Tracé_2198" data-name="Tracé 2198" d="M396.115,165.411a3.687,3.687,0,1,1,3.727,3.274A3.522,3.522,0,0,1,396.115,165.411Z" transform="translate(-260.638 -141.675)" fill="#e3a437"/>
            <path id="Tracé_2199" data-name="Tracé 2199" d="M390.72,165.289a3.686,3.686,0,1,1,3.614,3.4A3.522,3.522,0,0,1,390.72,165.289Z" transform="translate(-264.751 -141.673)" fill="#e3a437"/>
            <path id="Tracé_2200" data-name="Tracé 2200" d="M385.329,164.987a3.693,3.693,0,0,1,7.332.366,3.687,3.687,0,0,1-7.332-.366Z" transform="translate(-268.863 -141.81)" fill="#e3a437"/>
            <path id="Tracé_2201" data-name="Tracé 2201" d="M379.948,164.5a3.7,3.7,0,0,1,7.32.615,3.69,3.69,0,0,1-7.32-.615Z" transform="translate(-272.97 -142.086)" fill="#e3a437"/>
            <path id="Tracé_2202" data-name="Tracé 2202" d="M374.583,163.839a3.7,3.7,0,0,1,7.3.862,3.693,3.693,0,0,1-7.3-.862Z" transform="translate(-277.067 -142.5)" fill="#e3a437"/>
            <path id="Tracé_2203" data-name="Tracé 2203" d="M369.238,162.995a3.7,3.7,0,1,1,3.137,3.854A3.529,3.529,0,0,1,369.238,162.995Z" transform="translate(-281.152 -143.053)" fill="#e3a437"/>
            <path id="Tracé_2204" data-name="Tracé 2204" d="M363.917,161.968a3.7,3.7,0,1,1,3.008,3.959A3.532,3.532,0,0,1,363.917,161.968Z" transform="translate(-285.222 -143.744)" fill="#e3a437"/>
            <path id="Tracé_2205" data-name="Tracé 2205" d="M416.932,158.854a3.565,3.565,0,1,1,4.021,2.761A3.426,3.426,0,0,1,416.932,158.854Z" transform="translate(-244.796 -147.039)" fill="#e3a437"/>
            <path id="Tracé_2206" data-name="Tracé 2206" d="M411.736,159.439a3.561,3.561,0,1,1,3.922,2.9A3.458,3.458,0,0,1,411.736,159.439Z" transform="translate(-248.746 -146.501)" fill="#e3a437"/>
            <path id="Tracé_2207" data-name="Tracé 2207" d="M406.528,159.847a3.559,3.559,0,1,1,3.82,3.025A3.421,3.421,0,0,1,406.528,159.847Z" transform="translate(-252.708 -146.098)" fill="#e3a437"/>
            <path id="Tracé_2208" data-name="Tracé 2208" d="M401.312,160.08a3.56,3.56,0,0,1,7.091-.361,3.557,3.557,0,0,1-7.091.361Z" transform="translate(-256.679 -145.828)" fill="#e3a437"/>
            <path id="Tracé_2209" data-name="Tracé 2209" d="M396.093,160.138a3.555,3.555,0,1,1,3.605,3.276A3.419,3.419,0,0,1,396.093,160.138Z" transform="translate(-260.655 -145.692)" fill="#e3a437"/>
            <path id="Tracé_2210" data-name="Tracé 2210" d="M390.874,160.022a3.556,3.556,0,1,1,3.494,3.4A3.423,3.423,0,0,1,390.874,160.022Z" transform="translate(-264.634 -145.69)" fill="#e3a437"/>
            <path id="Tracé_2211" data-name="Tracé 2211" d="M385.661,159.729a3.56,3.56,0,0,1,7.091.354,3.557,3.557,0,0,1-7.091-.354Z" transform="translate(-268.61 -145.823)" fill="#e3a437"/>
            <path id="Tracé_2212" data-name="Tracé 2212" d="M380.458,159.26a3.563,3.563,0,0,1,7.08.594,3.559,3.559,0,0,1-7.08-.594Z" transform="translate(-272.582 -146.088)" fill="#e3a437"/>
            <path id="Tracé_2213" data-name="Tracé 2213" d="M375.269,158.619a3.565,3.565,0,0,1,7.061.832,3.562,3.562,0,0,1-7.061-.832Z" transform="translate(-276.545 -146.489)" fill="#e3a437"/>
            <path id="Tracé_2214" data-name="Tracé 2214" d="M370.1,157.8a3.57,3.57,0,0,1,7.036,1.071A3.566,3.566,0,0,1,370.1,157.8Z" transform="translate(-280.497 -147.023)" fill="#e3a437"/>
            <path id="Tracé_2215" data-name="Tracé 2215" d="M411.182,154.189A3.437,3.437,0,0,1,418,153.38a3.436,3.436,0,0,1-6.821.809Z" transform="translate(-249.168 -150.49)" fill="#e3a437"/>
            <path id="Tracé_2216" data-name="Tracé 2216" d="M406.151,154.584a3.433,3.433,0,1,1,3.7,3.034A3.391,3.391,0,0,1,406.151,154.584Z" transform="translate(-252.995 -150.1)" fill="#e3a437"/>
            <path id="Tracé_2217" data-name="Tracé 2217" d="M401.113,154.809a3.43,3.43,0,1,1,3.593,3.159A3.39,3.39,0,0,1,401.113,154.809Z" transform="translate(-256.831 -149.84)" fill="#e3a437"/>
            <path id="Tracé_2218" data-name="Tracé 2218" d="M396.07,154.867a3.431,3.431,0,0,1,6.856-.118,3.43,3.43,0,0,1-6.856.118Z" transform="translate(-260.672 -149.709)" fill="#e3a437"/>
            <path id="Tracé_2219" data-name="Tracé 2219" d="M391.029,154.754a3.431,3.431,0,0,1,6.856.111,3.43,3.43,0,0,1-6.856-.111Z" transform="translate(-264.515 -149.707)" fill="#e3a437"/>
            <path id="Tracé_2220" data-name="Tracé 2220" d="M385.993,154.471a3.432,3.432,0,0,1,6.849.342,3.43,3.43,0,0,1-6.849-.342Z" transform="translate(-268.357 -149.835)" fill="#e3a437"/>
            <path id="Tracé_2221" data-name="Tracé 2221" d="M380.967,154.02a3.434,3.434,0,0,1,6.839.573,3.433,3.433,0,0,1-6.839-.573Z" transform="translate(-272.194 -150.092)" fill="#e3a437"/>
            <path id="Tracé_2222" data-name="Tracé 2222" d="M375.954,153.4a3.437,3.437,0,0,1,6.821.8,3.436,3.436,0,0,1-6.821-.8Z" transform="translate(-276.024 -150.478)" fill="#e3a437"/>
            <path id="Tracé_2223" data-name="Tracé 2223" d="M423.829,167.98a3.824,3.824,0,1,1,4.344,2.581A3.595,3.595,0,0,1,423.829,167.98Z" transform="translate(-239.55 -140.215)" fill="#e3a437"/>
            <path id="Tracé_2224" data-name="Tracé 2224" d="M429.317,166.987a3.831,3.831,0,1,1,4.433,2.432A3.6,3.6,0,0,1,429.317,166.987Z" transform="translate(-235.382 -141.074)" fill="#e3a437"/>
            <path id="Tracé_2225" data-name="Tracé 2225" d="M418.317,168.786a3.818,3.818,0,1,1,4.248,2.728A3.589,3.589,0,0,1,418.317,168.786Z" transform="translate(-243.739 -139.498)" fill="#e3a437"/>
            <path id="Tracé_2226" data-name="Tracé 2226" d="M412.787,169.408a3.814,3.814,0,1,1,4.151,2.87A3.589,3.589,0,0,1,412.787,169.408Z" transform="translate(-247.945 -138.925)" fill="#e3a437"/>
            <path id="Tracé_2227" data-name="Tracé 2227" d="M407.244,169.843a3.81,3.81,0,1,1,4.049,3.008A3.587,3.587,0,0,1,407.244,169.843Z" transform="translate(-252.162 -138.495)" fill="#e3a437"/>
            <path id="Tracé_2228" data-name="Tracé 2228" d="M401.692,170.091a3.808,3.808,0,1,1,3.943,3.142A3.587,3.587,0,0,1,401.692,170.091Z" transform="translate(-256.389 -138.207)" fill="#e3a437"/>
            <path id="Tracé_2229" data-name="Tracé 2229" d="M396.135,170.152a3.815,3.815,0,0,1,7.556-.13,3.808,3.808,0,0,1-7.556.13Z" transform="translate(-260.623 -138.063)" fill="#e3a437"/>
            <path id="Tracé_2230" data-name="Tracé 2230" d="M390.58,170.027a3.815,3.815,0,0,1,7.556.123,3.807,3.807,0,0,1-7.556-.123Z" transform="translate(-264.858 -138.061)" fill="#e3a437"/>
            <path id="Tracé_2231" data-name="Tracé 2231" d="M385.031,169.717a3.808,3.808,0,1,1,3.607,3.522A3.587,3.587,0,0,1,385.031,169.717Z" transform="translate(-269.09 -138.202)" fill="#e3a437"/>
            <path id="Tracé_2232" data-name="Tracé 2232" d="M379.491,169.219a3.817,3.817,0,0,1,7.535.633,3.81,3.81,0,0,1-7.535-.633Z" transform="translate(-273.318 -138.486)" fill="#e3a437"/>
            <path id="Tracé_2233" data-name="Tracé 2233" d="M373.967,168.535a3.821,3.821,0,0,1,7.515.886,3.813,3.813,0,0,1-7.515-.886Z" transform="translate(-277.536 -138.912)" fill="#e3a437"/>
            <path id="Tracé_2234" data-name="Tracé 2234" d="M368.463,167.667a3.825,3.825,0,0,1,7.489,1.138,3.818,3.818,0,0,1-7.489-1.138Z" transform="translate(-281.742 -139.482)" fill="#e3a437"/>
            <path id="Tracé_2235" data-name="Tracé 2235" d="M362.984,166.61A3.831,3.831,0,0,1,370.441,168a3.824,3.824,0,0,1-7.457-1.394Z" transform="translate(-285.931 -140.195)" fill="#e3a437"/>
            <path id="Tracé_2236" data-name="Tracé 2236" d="M357.534,165.368a3.839,3.839,0,0,1,7.418,1.648,3.831,3.831,0,0,1-7.418-1.648Z" transform="translate(-290.1 -141.05)" fill="#e3a437"/>
            <path id="Tracé_2237" data-name="Tracé 2237" d="M424.733,173.184a3.974,3.974,0,0,1,7.7-1.445c.365,1.792-1.08,3.6-3.232,4.005S425.043,174.986,424.733,173.184Z" transform="translate(-238.86 -136.269)" fill="#e3a437"/>
            <path id="Tracé_2238" data-name="Tracé 2238" d="M430.4,172.159a3.982,3.982,0,0,1,7.655-1.707c.425,1.78-.96,3.639-3.1,4.115S430.768,173.951,430.4,172.159Z" transform="translate(-234.558 -137.157)" fill="#e3a437"/>
            <path id="Tracé_2239" data-name="Tracé 2239" d="M436.03,170.943a3.99,3.99,0,0,1,7.605-1.97c.486,1.766-.839,3.669-2.967,4.218S436.46,172.721,436.03,170.943Z" transform="translate(-230.281 -138.191)" fill="#e3a437"/>
            <path id="Tracé_2240" data-name="Tracé 2240" d="M419.047,174.016a3.967,3.967,0,0,1,7.727-1.184c.3,1.8-1.2,3.563-3.359,3.894S419.3,175.829,419.047,174.016Z" transform="translate(-243.183 -135.53)" fill="#e3a437"/>
            <path id="Tracé_2241" data-name="Tracé 2241" d="M413.341,174.656a3.962,3.962,0,0,1,7.755-.922c.243,1.815-1.314,3.521-3.484,3.778S413.527,176.476,413.341,174.656Z" transform="translate(-247.522 -134.938)" fill="#e3a437"/>
            <path id="Tracé_2242" data-name="Tracé 2242" d="M407.62,175.1a3.959,3.959,0,0,1,7.776-.659c.183,1.822-1.431,3.475-3.605,3.658S407.747,176.929,407.62,175.1Z" transform="translate(-251.876 -134.494)" fill="#e3a437"/>
            <path id="Tracé_2243" data-name="Tracé 2243" d="M401.892,175.359a3.956,3.956,0,0,1,7.788-.4c.122,1.826-1.545,3.424-3.725,3.533S401.955,177.188,401.892,175.359Z" transform="translate(-256.237 -134.197)" fill="#e3a437"/>
            <path id="Tracé_2244" data-name="Tracé 2244" d="M396.158,175.423a3.955,3.955,0,0,1,7.8-.136c.06,1.831-1.66,3.369-3.84,3.408S396.162,177.252,396.158,175.423Z" transform="translate(-260.605 -134.047)" fill="#e3a437"/>
            <path id="Tracé_2245" data-name="Tracé 2245" d="M390.426,175.294a3.955,3.955,0,0,1,7.8.127c0,1.831-1.771,3.311-3.952,3.276S390.368,177.123,390.426,175.294Z" transform="translate(-264.975 -134.045)" fill="#e3a437"/>
            <path id="Tracé_2246" data-name="Tracé 2246" d="M384.7,174.972a3.956,3.956,0,0,1,7.788.389c-.062,1.829-1.882,3.251-4.06,3.142S384.579,176.8,384.7,174.972Z" transform="translate(-269.343 -134.19)" fill="#e3a437"/>
            <path id="Tracé_2247" data-name="Tracé 2247" d="M378.982,174.461a3.959,3.959,0,0,1,7.776.652c-.123,1.826-1.991,3.184-4.166,3S378.8,176.281,378.982,174.461Z" transform="translate(-273.706 -134.484)" fill="#e3a437"/>
            <path id="Tracé_2248" data-name="Tracé 2248" d="M373.282,173.756a3.963,3.963,0,0,1,7.757.913c-.187,1.822-2.1,3.117-4.27,2.86S373.04,175.569,373.282,173.756Z" transform="translate(-278.058 -134.925)" fill="#e3a437"/>
            <path id="Tracé_2249" data-name="Tracé 2249" d="M367.6,172.859a3.967,3.967,0,0,1,7.729,1.175c-.247,1.813-2.2,3.043-4.366,2.714S367.3,174.663,367.6,172.859Z" transform="translate(-282.397 -135.513)" fill="#e3a437"/>
            <path id="Tracé_2250" data-name="Tracé 2250" d="M361.947,171.769a3.974,3.974,0,0,1,7.7,1.438c-.308,1.8-2.307,2.967-4.46,2.566S361.584,173.562,361.947,171.769Z" transform="translate(-286.72 -136.248)" fill="#e3a437"/>
            <path id="Tracé_2251" data-name="Tracé 2251" d="M356.323,170.488a3.982,3.982,0,0,1,7.656,1.7c-.37,1.792-2.409,2.886-4.551,2.411S355.9,172.268,356.323,170.488Z" transform="translate(-291.021 -137.131)" fill="#e3a437"/>
            <path id="Tracé_2252" data-name="Tracé 2252" d="M350.735,169.015a3.99,3.99,0,0,1,7.607,1.961c-.43,1.78-2.507,2.8-4.636,2.254S350.251,170.779,350.735,169.015Z" transform="translate(-295.298 -138.162)" fill="#e3a437"/>
            <path id="Tracé_2253" data-name="Tracé 2253" d="M425.638,178.387c-.31-1.8,1.2-3.57,3.359-3.977s4.208.693,4.574,2.486-1.133,3.612-3.352,4.028S425.948,180.19,425.638,178.387Z" transform="translate(-238.17 -132.324)" fill="#e3a437"/>
            <path id="Tracé_2254" data-name="Tracé 2254" d="M431.475,177.331c-.37-1.792,1.077-3.607,3.228-4.088s4.236.548,4.662,2.33-1.013,3.649-3.219,4.141S431.847,179.123,431.475,177.331Z" transform="translate(-233.734 -133.24)" fill="#e3a437"/>
            <path id="Tracé_2255" data-name="Tracé 2255" d="M437.283,176.08c-.432-1.78.957-3.644,3.094-4.2s4.261.4,4.747,2.167-.892,3.683-3.085,4.25S437.713,177.858,437.283,176.08Z" transform="translate(-229.324 -134.307)" fill="#e3a437"/>
            <path id="Tracé_2256" data-name="Tracé 2256" d="M443.054,174.628c-.49-1.764.839-3.676,2.96-4.3s4.28.255,4.826,2-.77,3.711-2.948,4.354S443.546,176.39,443.054,174.628Z" transform="translate(-224.944 -135.527)" fill="#e3a437"/>
            <path id="Tracé_2257" data-name="Tracé 2257" d="M419.775,179.244c-.248-1.813,1.315-3.526,3.485-3.861s4.178.835,4.483,2.641-1.251,3.572-3.48,3.912S420.025,181.057,419.775,179.244Z" transform="translate(-242.627 -131.562)" fill="#e3a437"/>
            <path id="Tracé_2258" data-name="Tracé 2258" d="M413.893,179.9c-.187-1.822,1.429-3.482,3.609-3.741s4.143.976,4.388,2.791-1.369,3.526-3.605,3.792S414.082,181.724,413.893,179.9Z" transform="translate(-247.1 -130.951)" fill="#e3a437"/>
            <path id="Tracé_2259" data-name="Tracé 2259" d="M408,180.364c-.127-1.827,1.545-3.431,3.73-3.616s4.1,1.115,4.285,2.936-1.484,3.48-3.725,3.669S408.124,182.19,408,180.364Z" transform="translate(-251.588 -130.492)" fill="#e3a437"/>
            <path id="Tracé_2260" data-name="Tracé 2260" d="M402.091,180.628c-.065-1.829,1.658-3.376,3.848-3.489s4.06,1.253,4.181,3.08-1.6,3.427-3.845,3.54S402.156,182.457,402.091,180.628Z" transform="translate(-256.085 -130.186)" fill="#e3a437"/>
            <path id="Tracé_2261" data-name="Tracé 2261" d="M396.181,180.694c0-1.831,1.769-3.32,3.961-3.359s4.014,1.389,4.074,3.219-1.713,3.371-3.959,3.41S396.183,182.523,396.181,180.694Z" transform="translate(-260.588 -130.032)" fill="#e3a437"/>
            <path id="Tracé_2262" data-name="Tracé 2262" d="M390.271,180.561c.058-1.831,1.882-3.258,4.072-3.223s3.967,1.522,3.965,3.353-1.826,3.313-4.072,3.274S390.212,182.388,390.271,180.561Z" transform="translate(-265.093 -130.029)" fill="#e3a437"/>
            <path id="Tracé_2263" data-name="Tracé 2263" d="M384.367,180.23c.12-1.827,1.991-3.193,4.18-3.084s3.914,1.655,3.85,3.485-1.935,3.248-4.181,3.135S384.247,182.056,384.367,180.23Z" transform="translate(-269.596 -130.18)" fill="#e3a437"/>
            <path id="Tracé_2264" data-name="Tracé 2264" d="M378.474,179.7c.182-1.822,2.1-3.122,4.284-2.941s3.857,1.787,3.732,3.614-2.046,3.181-4.287,2.992S378.292,181.523,378.474,179.7Z" transform="translate(-274.092 -130.482)" fill="#e3a437"/>
            <path id="Tracé_2265" data-name="Tracé 2265" d="M372.6,178.975c.243-1.815,2.2-3.05,4.384-2.795s3.8,1.915,3.612,3.737-2.153,3.11-4.389,2.846S372.355,180.788,372.6,178.975Z" transform="translate(-278.58 -130.937)" fill="#e3a437"/>
            <path id="Tracé_2266" data-name="Tracé 2266" d="M366.74,178.051c.3-1.806,2.308-2.974,4.481-2.645s3.736,2.044,3.487,3.857-2.257,3.036-4.486,2.7S366.437,179.855,366.74,178.051Z" transform="translate(-283.053 -131.544)" fill="#e3a437"/>
            <path id="Tracé_2267" data-name="Tracé 2267" d="M360.911,176.928c.365-1.794,2.409-2.893,4.573-2.49s3.67,2.169,3.36,3.974-2.359,2.957-4.578,2.543S360.546,178.722,360.911,176.928Z" transform="translate(-287.509 -132.303)" fill="#e3a437"/>
            <path id="Tracé_2268" data-name="Tracé 2268" d="M355.113,175.608c.425-1.78,2.508-2.811,4.659-2.333s3.6,2.292,3.232,4.086-2.462,2.876-4.67,2.386S354.688,177.388,355.113,175.608Z" transform="translate(-291.942 -133.214)" fill="#e3a437"/>
            <path id="Tracé_2269" data-name="Tracé 2269" d="M349.351,174.09c.485-1.766,2.606-2.722,4.744-2.171s3.529,2.414,3.1,4.194-2.562,2.791-4.754,2.224S348.866,175.856,349.351,174.09Z" transform="translate(-296.35 -134.277)" fill="#e3a437"/>
            <path id="Tracé_2270" data-name="Tracé 2270" d="M343.63,172.374c.544-1.748,2.7-2.631,4.825-2.005s3.454,2.536,2.964,4.3-2.659,2.7-4.835,2.058S343.087,174.122,343.63,172.374Z" transform="translate(-300.73 -135.493)" fill="#e3a437"/>
            <path id="Tracé_2271" data-name="Tracé 2271" d="M426.543,183.59c-.31-1.8,1.248-3.579,3.477-4s4.328.67,4.692,2.463-1.186,3.623-3.47,4.053S426.853,185.394,426.543,183.59Z" transform="translate(-237.479 -128.38)" fill="#e3a437"/>
            <path id="Tracé_2272" data-name="Tracé 2272" d="M432.554,182.5c-.37-1.794,1.131-3.619,3.346-4.115s4.354.52,4.781,2.3-1.064,3.662-3.337,4.167S432.926,184.295,432.554,182.5Z" transform="translate(-232.911 -129.323)" fill="#e3a437"/>
            <path id="Tracé_2273" data-name="Tracé 2273" d="M438.535,181.214c-.43-1.78,1.011-3.656,3.214-4.227s4.377.372,4.863,2.137-.945,3.7-3.2,4.28S438.967,182.994,438.535,181.214Z" transform="translate(-228.368 -130.423)" fill="#e3a437"/>
            <path id="Tracé_2274" data-name="Tracé 2274" d="M444.48,179.721c-.492-1.764.89-3.69,3.077-4.337s4.4.22,4.943,1.968-.823,3.727-3.064,4.389S444.972,181.485,444.48,179.721Z" transform="translate(-223.855 -131.681)" fill="#e3a437"/>
            <path id="Tracé_2275" data-name="Tracé 2275" d="M450.383,178.025c-.552-1.746.768-3.72,2.937-4.442s4.412.065,5.017,1.794-.7,3.755-2.923,4.5S450.935,179.769,450.383,178.025Z" transform="translate(-219.376 -133.095)" fill="#e3a437"/>
            <path id="Tracé_2276" data-name="Tracé 2276" d="M420.5,184.471c-.248-1.813,1.367-3.533,3.605-3.877s4.3.816,4.6,2.62-1.3,3.581-3.6,3.931S420.753,186.285,420.5,184.471Z" transform="translate(-242.07 -127.593)" fill="#e3a437"/>
            <path id="Tracé_2277" data-name="Tracé 2277" d="M414.447,185.151c-.189-1.822,1.484-3.487,3.729-3.753s4.262.96,4.506,2.775-1.422,3.533-3.723,3.806S414.634,186.971,414.447,185.151Z" transform="translate(-246.678 -126.963)" fill="#e3a437"/>
            <path id="Tracé_2278" data-name="Tracé 2278" d="M408.374,185.625c-.127-1.826,1.6-3.434,3.85-3.625s4.224,1.1,4.405,2.925-1.538,3.485-3.845,3.679S408.5,187.45,408.374,185.625Z" transform="translate(-251.301 -126.49)" fill="#e3a437"/>
            <path id="Tracé_2279" data-name="Tracé 2279" d="M402.291,185.9c-.065-1.829,1.713-3.378,3.968-3.494s4.181,1.248,4.3,3.073-1.655,3.431-3.966,3.549S402.356,187.725,402.291,185.9Z" transform="translate(-255.933 -126.175)" fill="#e3a437"/>
            <path id="Tracé_2280" data-name="Tracé 2280" d="M396.2,185.964c0-1.833,1.824-3.32,4.083-3.359s4.136,1.385,4.2,3.216-1.767,3.373-4.081,3.411S396.207,187.793,396.2,185.964Z" transform="translate(-260.571 -126.015)" fill="#e3a437"/>
            <path id="Tracé_2281" data-name="Tracé 2281" d="M390.116,185.827c.058-1.829,1.936-3.255,4.194-3.219s4.086,1.524,4.085,3.355-1.878,3.311-4.194,3.274S390.057,187.656,390.116,185.827Z" transform="translate(-265.211 -126.014)" fill="#e3a437"/>
            <path id="Tracé_2282" data-name="Tracé 2282" d="M384.034,185.486c.12-1.827,2.046-3.188,4.3-3.077s4.033,1.662,3.97,3.491-1.989,3.246-4.3,3.131S383.915,187.312,384.034,185.486Z" transform="translate(-269.849 -126.169)" fill="#e3a437"/>
            <path id="Tracé_2283" data-name="Tracé 2283" d="M377.965,184.943c.182-1.822,2.152-3.119,4.4-2.93s3.979,1.8,3.854,3.621-2.1,3.179-4.407,2.985S377.783,186.763,377.965,184.943Z" transform="translate(-274.48 -126.48)" fill="#e3a437"/>
            <path id="Tracé_2284" data-name="Tracé 2284" d="M371.911,184.194c.243-1.815,2.257-3.043,4.5-2.779s3.917,1.928,3.732,3.75-2.206,3.1-4.509,2.833S371.67,186.009,371.911,184.194Z" transform="translate(-279.101 -126.949)" fill="#e3a437"/>
            <path id="Tracé_2285" data-name="Tracé 2285" d="M365.88,183.243c.3-1.806,2.359-2.966,4.6-2.626s3.854,2.062,3.607,3.875-2.312,3.029-4.606,2.68S365.575,185.048,365.88,183.243Z" transform="translate(-283.708 -127.575)" fill="#e3a437"/>
            <path id="Tracé_2286" data-name="Tracé 2286" d="M359.875,182.089c.363-1.8,2.462-2.885,4.691-2.469s3.788,2.19,3.48,3.995-2.414,2.95-4.7,2.522S359.51,183.881,359.875,182.089Z" transform="translate(-288.297 -128.357)" fill="#e3a437"/>
            <path id="Tracé_2287" data-name="Tracé 2287" d="M353.9,180.729c.425-1.78,2.56-2.8,4.777-2.3s3.72,2.317,3.35,4.111-2.515,2.865-4.786,2.359S353.478,182.51,353.9,180.729Z" transform="translate(-292.863 -129.296)" fill="#e3a437"/>
            <path id="Tracé_2288" data-name="Tracé 2288" d="M347.967,179.166c.485-1.766,2.657-2.707,4.862-2.139s3.646,2.444,3.216,4.224-2.613,2.777-4.872,2.194S347.482,180.931,347.967,179.166Z" transform="translate(-297.403 -130.392)" fill="#e3a437"/>
            <path id="Tracé_2289" data-name="Tracé 2289" d="M342.075,177.4c.544-1.748,2.752-2.615,4.941-1.972s3.57,2.569,3.08,4.333-2.712,2.685-4.953,2.026S341.53,179.147,342.075,177.4Z" transform="translate(-301.913 -131.646)" fill="#e3a437"/>
            <path id="Tracé_2290" data-name="Tracé 2290" d="M335.566,175.193c.61-1.727,2.856-2.507,5.024-1.78s3.48,2.707,2.925,4.451-2.816,2.58-5.038,1.833S334.956,176.918,335.566,175.193Z" transform="translate(-306.897 -133.227)" fill="#e3a437"/>
            <path id="Tracé_2291" data-name="Tracé 2291" d="M427.448,188.793c-.31-1.8,1.3-3.588,3.6-4.019s4.446.647,4.811,2.44-1.237,3.633-3.588,4.074S427.758,190.6,427.448,188.793Z" transform="translate(-236.789 -124.434)" fill="#e3a437"/>
            <path id="Tracé_2292" data-name="Tracé 2292" d="M433.634,187.677c-.37-1.794,1.184-3.632,3.466-4.141s4.472.493,4.9,2.275-1.119,3.674-3.455,4.2S434.005,189.469,433.634,187.677Z" transform="translate(-232.087 -125.406)" fill="#e3a437"/>
            <path id="Tracé_2293" data-name="Tracé 2293" d="M439.788,186.35c-.432-1.78,1.064-3.67,3.332-4.257s4.493.34,4.98,2.106-1,3.711-3.32,4.312S440.22,188.128,439.788,186.35Z" transform="translate(-227.412 -126.539)" fill="#e3a437"/>
            <path id="Tracé_2294" data-name="Tracé 2294" d="M445.906,184.814c-.492-1.762.941-3.7,3.193-4.37s4.513.185,5.059,1.933-.874,3.744-3.181,4.425S446.4,186.577,445.906,184.814Z" transform="translate(-222.766 -127.834)" fill="#e3a437"/>
            <path id="Tracé_2295" data-name="Tracé 2295" d="M451.979,183.068c-.55-1.746.821-3.736,3.054-4.479s4.527.026,5.133,1.755-.752,3.774-3.04,4.536S452.531,184.814,451.979,183.068Z" transform="translate(-218.157 -129.291)" fill="#e3a437"/>
            <path id="Tracé_2296" data-name="Tracé 2296" d="M458.984,180.776c-.618-1.723.678-3.767,2.888-4.6s4.539-.159,5.212,1.544-.608,3.8-2.872,4.657S459.6,182.5,458.984,180.776Z" transform="translate(-212.844 -131.188)" fill="#e3a437"/>
            <path id="Tracé_2297" data-name="Tracé 2297" d="M421.235,189.7c-.25-1.813,1.42-3.542,3.723-3.894s4.416.8,4.721,2.6-1.357,3.589-3.716,3.951S421.483,191.513,421.235,189.7Z" transform="translate(-241.513 -123.624)" fill="#e3a437"/>
            <path id="Tracé_2298" data-name="Tracé 2298" d="M415,190.4c-.187-1.82,1.537-3.491,3.848-3.766s4.382.944,4.627,2.759-1.477,3.542-3.845,3.822S415.189,192.219,415,190.4Z" transform="translate(-246.257 -122.976)" fill="#e3a437"/>
            <path id="Tracé_2299" data-name="Tracé 2299" d="M408.751,190.887c-.127-1.827,1.651-3.438,3.97-3.635s4.344,1.093,4.527,2.915-1.593,3.491-3.966,3.69S408.878,192.712,408.751,190.887Z" transform="translate(-251.013 -122.489)" fill="#e3a437"/>
            <path id="Tracé_2300" data-name="Tracé 2300" d="M402.491,191.164c-.065-1.829,1.766-3.38,4.088-3.5s4.3,1.239,4.423,3.066-1.707,3.433-4.086,3.554S402.556,192.993,402.491,191.164Z" transform="translate(-255.78 -122.164)" fill="#e3a437"/>
            <path id="Tracé_2301" data-name="Tracé 2301" d="M396.226,191.235c0-1.831,1.877-3.32,4.2-3.36s4.255,1.383,4.315,3.212-1.822,3.374-4.2,3.415S396.229,193.064,396.226,191.235Z" transform="translate(-260.553 -122)" fill="#e3a437"/>
            <path id="Tracé_2302" data-name="Tracé 2302" d="M389.962,191.093c.058-1.829,1.989-3.255,4.314-3.216s4.206,1.524,4.2,3.355-1.933,3.311-4.314,3.272S389.9,192.922,389.962,191.093Z" transform="translate(-265.328 -121.998)" fill="#e3a437"/>
            <path id="Tracé_2303" data-name="Tracé 2303" d="M383.7,190.744c.12-1.827,2.1-3.186,4.419-3.07s4.155,1.665,4.092,3.5-2.044,3.244-4.423,3.124S383.584,192.569,383.7,190.744Z" transform="translate(-270.101 -122.157)" fill="#e3a437"/>
            <path id="Tracé_2304" data-name="Tracé 2304" d="M377.456,190.184c.18-1.822,2.2-3.114,4.523-2.918s4.1,1.8,3.974,3.63-2.153,3.174-4.527,2.974S377.275,192.006,377.456,190.184Z" transform="translate(-274.867 -122.478)" fill="#e3a437"/>
            <path id="Tracé_2305" data-name="Tracé 2305" d="M371.226,189.415c.243-1.817,2.312-3.038,4.624-2.765s4.039,1.942,3.852,3.762-2.261,3.1-4.629,2.821S370.984,191.228,371.226,189.415Z" transform="translate(-279.623 -122.961)" fill="#e3a437"/>
            <path id="Tracé_2306" data-name="Tracé 2306" d="M365.018,188.437c.3-1.806,2.414-2.957,4.719-2.608s3.974,2.077,3.727,3.892-2.365,3.022-4.724,2.663S364.715,190.241,365.018,188.437Z" transform="translate(-284.364 -123.606)" fill="#e3a437"/>
            <path id="Tracé_2307" data-name="Tracé 2307" d="M358.838,187.248c.365-1.8,2.515-2.872,4.809-2.444s3.908,2.211,3.6,4.016-2.467,2.939-4.818,2.5S358.474,189.04,358.838,187.248Z" transform="translate(-289.086 -124.411)" fill="#e3a437"/>
            <path id="Tracé_2308" data-name="Tracé 2308" d="M352.691,185.851c.425-1.782,2.613-2.786,4.9-2.28s3.836,2.345,3.468,4.137-2.569,2.855-4.906,2.335S352.267,187.63,352.691,185.851Z" transform="translate(-293.784 -125.379)" fill="#e3a437"/>
            <path id="Tracé_2309" data-name="Tracé 2309" d="M346.583,184.243c.485-1.766,2.712-2.694,4.98-2.109s3.764,2.474,3.334,4.254-2.666,2.765-4.99,2.164S346.1,186.007,346.583,184.243Z" transform="translate(-298.456 -126.508)" fill="#e3a437"/>
            <path id="Tracé_2310" data-name="Tracé 2310" d="M340.518,182.426c.544-1.748,2.805-2.6,5.057-1.937s3.686,2.6,3.2,4.368-2.763,2.671-5.07,1.991S339.974,184.174,340.518,182.426Z" transform="translate(-303.096 -127.799)" fill="#e3a437"/>
            <path id="Tracé_2311" data-name="Tracé 2311" d="M333.819,180.154c.611-1.725,2.907-2.488,5.14-1.739s3.6,2.745,3.041,4.49-2.869,2.564-5.154,1.794S333.21,181.88,333.819,180.154Z" transform="translate(-308.225 -129.427)" fill="#e3a437"/>
            <path id="Tracé_2312" data-name="Tracé 2312" d="M327,177.548c.678-1.7,3.01-2.372,5.218-1.531s3.5,2.888,2.878,4.61-2.971,2.446-5.233,1.586S326.323,179.248,327,177.548Z" transform="translate(-313.449 -131.312)" fill="#e3a437"/>
            <path id="Tracé_2313" data-name="Tracé 2313" d="M428.352,194c-.31-1.806,1.357-3.6,3.716-4.042s4.564.624,4.93,2.418-1.292,3.644-3.707,4.1S428.662,195.8,428.352,194Z" transform="translate(-236.099 -120.49)" fill="#e3a437"/>
            <path id="Tracé_2314" data-name="Tracé 2314" d="M434.713,192.849c-.37-1.794,1.237-3.642,3.584-4.166s4.59.467,5.017,2.247-1.172,3.688-3.574,4.224S435.085,194.641,434.713,192.849Z" transform="translate(-231.263 -121.489)" fill="#e3a437"/>
            <path id="Tracé_2315" data-name="Tracé 2315" d="M441.041,191.486c-.43-1.78,1.117-3.683,3.448-4.287s4.613.308,5.1,2.074-1.05,3.725-3.438,4.344S441.473,193.264,441.041,191.486Z" transform="translate(-226.455 -122.655)" fill="#e3a437"/>
            <path id="Tracé_2316" data-name="Tracé 2316" d="M447.332,189.908c-.492-1.764.994-3.72,3.309-4.405s4.631.15,5.175,1.9-.927,3.76-3.3,4.46S447.823,191.67,447.332,189.908Z" transform="translate(-221.678 -123.988)" fill="#e3a437"/>
            <path id="Tracé_2317" data-name="Tracé 2317" d="M453.576,188.113c-.55-1.746.872-3.752,3.17-4.516s4.643-.014,5.249,1.715-.8,3.792-3.156,4.574S454.128,189.86,453.576,188.113Z" transform="translate(-216.937 -125.487)" fill="#e3a437"/>
            <path id="Tracé_2318" data-name="Tracé 2318" d="M459.772,186.1c-.61-1.727.749-3.781,3.025-4.627s4.654-.176,5.316,1.531-.678,3.818-3.01,4.684S460.382,187.83,459.772,186.1Z" transform="translate(-212.237 -127.152)" fill="#e3a437"/>
            <path id="Tracé_2319" data-name="Tracé 2319" d="M466.91,183.5c-.678-1.7.6-3.81,2.855-4.749s4.659-.368,5.39,1.311-.536,3.847-2.839,4.807S467.588,185.2,466.91,183.5Z" transform="translate(-206.824 -129.298)" fill="#e3a437"/>
            <path id="Tracé_2320" data-name="Tracé 2320" d="M421.965,194.929c-.25-1.815,1.473-3.549,3.843-3.914s4.536.779,4.84,2.583-1.411,3.6-3.838,3.97S422.213,196.743,421.965,194.929Z" transform="translate(-240.957 -119.656)" fill="#e3a437"/>
            <path id="Tracé_2321" data-name="Tracé 2321" d="M415.554,195.645c-.189-1.82,1.589-3.5,3.968-3.78s4.5.93,4.745,2.745-1.53,3.549-3.963,3.838S415.741,197.467,415.554,195.645Z" transform="translate(-245.834 -118.989)" fill="#e3a437"/>
            <path id="Tracé_2322" data-name="Tracé 2322" d="M409.128,196.147c-.127-1.826,1.706-3.441,4.09-3.644s4.463,1.082,4.647,2.9-1.646,3.5-4.086,3.7S409.253,197.973,409.128,196.147Z" transform="translate(-250.726 -118.488)" fill="#e3a437"/>
            <path id="Tracé_2323" data-name="Tracé 2323" d="M402.69,196.434c-.065-1.831,1.82-3.383,4.21-3.5s4.423,1.232,4.543,3.059-1.76,3.436-4.206,3.561S402.755,198.263,402.69,196.434Z" transform="translate(-255.629 -118.153)" fill="#e3a437"/>
            <path id="Tracé_2324" data-name="Tracé 2324" d="M396.248,196.505c0-1.833,1.933-3.32,4.322-3.362s4.377,1.38,4.437,3.211-1.875,3.376-4.322,3.417S396.252,198.335,396.248,196.505Z" transform="translate(-260.537 -117.985)" fill="#e3a437"/>
            <path id="Tracé_2325" data-name="Tracé 2325" d="M389.807,196.36c.058-1.831,2.042-3.253,4.433-3.214s4.328,1.526,4.326,3.357-1.986,3.311-4.433,3.27S389.748,198.189,389.807,196.36Z" transform="translate(-265.447 -117.982)" fill="#e3a437"/>
            <path id="Tracé_2326" data-name="Tracé 2326" d="M383.371,196c.12-1.826,2.151-3.181,4.541-3.063s4.275,1.672,4.211,3.5-2.1,3.242-4.543,3.119S383.252,197.827,383.371,196Z" transform="translate(-270.354 -118.147)" fill="#e3a437"/>
            <path id="Tracé_2327" data-name="Tracé 2327" d="M376.947,195.424c.181-1.82,2.259-3.107,4.643-2.907s4.218,1.813,4.1,3.641-2.208,3.17-4.648,2.966S376.766,197.246,376.947,195.424Z" transform="translate(-275.255 -118.477)" fill="#e3a437"/>
            <path id="Tracé_2328" data-name="Tracé 2328" d="M370.541,194.634c.243-1.815,2.365-3.029,4.743-2.749s4.159,1.954,3.972,3.776-2.314,3.094-4.747,2.807S370.3,196.447,370.541,194.634Z" transform="translate(-280.145 -118.973)" fill="#e3a437"/>
            <path id="Tracé_2329" data-name="Tracé 2329" d="M364.157,193.629c.3-1.806,2.469-2.948,4.839-2.589s4.093,2.1,3.847,3.91-2.419,3.015-4.844,2.645S363.854,195.433,364.157,193.629Z" transform="translate(-285.019 -119.637)" fill="#e3a437"/>
            <path id="Tracé_2330" data-name="Tracé 2330" d="M357.8,192.407c.365-1.794,2.569-2.862,4.929-2.421s4.026,2.233,3.718,4.037-2.52,2.93-4.936,2.479S357.439,194.2,357.8,192.407Z" transform="translate(-289.874 -120.466)" fill="#e3a437"/>
            <path id="Tracé_2331" data-name="Tracé 2331" d="M351.481,190.971c.425-1.781,2.668-2.772,5.015-2.252s3.956,2.368,3.586,4.162-2.62,2.844-5.024,2.308S351.056,192.75,351.481,190.971Z" transform="translate(-294.706 -121.461)" fill="#e3a437"/>
            <path id="Tracé_2332" data-name="Tracé 2332" d="M345.2,189.319c.485-1.766,2.763-2.68,5.1-2.077s3.882,2.5,3.452,4.284-2.719,2.751-5.106,2.134S344.714,191.082,345.2,189.319Z" transform="translate(-299.509 -122.623)" fill="#e3a437"/>
            <path id="Tracé_2333" data-name="Tracé 2333" d="M338.962,187.452c.544-1.748,2.858-2.583,5.173-1.9s3.8,2.636,3.315,4.4-2.816,2.657-5.186,1.958S338.417,189.2,338.962,187.452Z" transform="translate(-304.28 -123.951)" fill="#e3a437"/>
            <path id="Tracé_2334" data-name="Tracé 2334" d="M332.074,185.117c.61-1.725,2.959-2.47,5.255-1.7s3.713,2.782,3.156,4.527-2.918,2.546-5.269,1.757S331.464,186.842,332.074,185.117Z" transform="translate(-309.552 -125.627)" fill="#e3a437"/>
            <path id="Tracé_2335" data-name="Tracé 2335" d="M326.384,182.968c.666-1.706,3.041-2.374,5.318-1.528s3.633,2.9,3.024,4.629-3,2.451-5.334,1.584S325.72,184.674,326.384,182.968Z" transform="translate(-313.909 -127.182)" fill="#e3a437"/>
            <path id="Tracé_2336" data-name="Tracé 2336" d="M319.437,180.059c.733-1.679,3.14-2.25,5.39-1.311s3.533,3.048,2.855,4.749-3.1,2.329-5.406,1.369S318.708,181.737,319.437,180.059Z" transform="translate(-319.231 -129.298)" fill="#e3a437"/>
          </g>
          <g id="Groupe_275" data-name="Groupe 275" transform="translate(0 194.046)">
            <g id="Groupe_274" data-name="Groupe 274">
              <path id="Tracé_2337" data-name="Tracé 2337" d="M333.857,266.191c0,.122-.24.24-.358.24-.03,0-.06-.028-.092-.058l-1.316-3.024a.922.922,0,0,0-.6-.6,21.6,21.6,0,0,0-3.649-.478c-.09,1.766-.21,6.823-.27,8.409-.03,1.676-.12,7.272-.12,8.469,0,.3.12.359.329.389l1.5.27c.09,0,.15.18.15.359,0,.058,0,.09-.09.09-.657-.032-2.3-.06-4.039-.06-1.588,0-3.054.028-3.713.06-.088,0-.088-.032-.088-.06,0-.15.06-.389.15-.389l1.526-.3c.21-.03.238-.12.238-.418.03-1.2-.088-7.122-.12-8.53,0-1.2-.118-6.763-.15-8.289a24.22,24.22,0,0,0-3.589.449,1.035,1.035,0,0,0-.659.627l-1.376,2.992c-.03.062-.06.09-.122.09-.088,0-.358-.15-.358-.24l.3-4.4a.188.188,0,0,1,.208-.21c.24,0,.809.03,2.037.09,1.256.032,3.142.09,5.956.09,2.721,0,4.608-.03,5.864-.09,1.258-.03,1.885-.06,2.1-.06.118,0,.18.06.18.21Z" transform="translate(-317.04 -259.873)" fill="#f3525d"/>
              <path id="Tracé_2338" data-name="Tracé 2338" d="M339.213,270.269a.9.9,0,0,1-.6.837c-1.108.361-6.525.361-7.931.24a9.9,9.9,0,0,0,.15,2.035,4.3,4.3,0,0,0,3.919,3.653,9.677,9.677,0,0,0,2.005-.21,11.242,11.242,0,0,0,2.185-.779c.062-.03.15.15.15.358,0,.092-.06.122-.12.181a15.9,15.9,0,0,1-3.441,1.494,8.018,8.018,0,0,1-2.633.3c-3.771,0-6.555-1.766-6.555-6.164,0-4.04,2.934-7.931,7.182-7.931a5.717,5.717,0,0,1,5.686,5.956Zm-6.224-5.387c-1.168,0-2.365,1.766-2.3,5.926a14.567,14.567,0,0,0,3.859-.18c.241-.12.421-.33.421-.959,0-1.616-.361-4.816-1.945-4.816Z" transform="translate(-309.95 -257.815)" fill="#f3525d"/>
              <path id="Tracé_2339" data-name="Tracé 2339" d="M334.833,272.364a7.841,7.841,0,0,1,3.024-6.194,8.839,8.839,0,0,1,5.746-1.887,6.892,6.892,0,0,1,2.574.359c.09.03.148.12.148.27l.18,3.233c0,.09-.27.24-.359.24-.06,0-.09,0-.118-.062-.449-.867-.93-1.826-1.348-2.543a1.523,1.523,0,0,0-.539-.629,1.715,1.715,0,0,0-1.047-.27c-1.078,0-2.065.867-2.872,2.6a10.31,10.31,0,0,0-.9,4.428c0,3.5,1.825,5.147,4.009,5.147a7.351,7.351,0,0,0,1.528-.178,8.091,8.091,0,0,0,1.975-.689c.06-.03.15.09.15.268,0,.122-.03.211-.122.24a15.107,15.107,0,0,1-2.992,1.376,6.812,6.812,0,0,1-2.483.3c-3.651,0-6.555-1.586-6.555-5.984Z" transform="translate(-303.48 -257.815)" fill="#f3525d"/>
              <path id="Tracé_2340" data-name="Tracé 2340" d="M348.411,260.617c.18-.03.24.09.24.27,0,.238-.33,10.056-.419,12.419,0,.27-.03.629-.058.987h.148a7.623,7.623,0,0,1,.3-.9c.837-2.335,3.112-6.315,6.194-6.315,2.425,0,3.591,2.425,3.591,6.315,0,2.633-.238,5.207-.328,6.225-.032.478.028.6.24.657l1.436.3c.058,0,.15.18.15.359,0,.028-.032.06-.092.06-.537-.032-1.824-.06-3.559-.06-1.766,0-3.144.028-3.771.06-.09,0-.09-.032-.09-.06,0-.122.03-.359.12-.359l1.5-.27c.24-.03.3-.15.329-.419.09-.777.15-2.513.15-4.37,0-2.842-.389-5.656-1.975-5.656-1.678,0-3.382,2.964-4.1,6.555a25.977,25.977,0,0,0-.27,3.5c0,.27.12.33.329.359l1.468.3c.058,0,.15.18.15.33,0,.058,0,.09-.092.09-.629-.032-2.155-.06-3.831-.06-1.646,0-2.992.028-3.471.06-.088,0-.088-.032-.088-.09,0-.12.088-.33.148-.33l1.438-.329c.178-.03.208-.12.24-.359.028-.807-.032-7.062-.032-8.768,0-1.316-.09-7.87-.118-8.976,0-.271-.06-.389-.331-.421l-1.824-.088c-.092,0-.18-.18-.18-.361,0-.028,0-.088.088-.088Z" transform="translate(-298.058 -260.612)" fill="#f3525d"/>
              <path id="Tracé_2341" data-name="Tracé 2341" d="M364.2,261.652c1.047,0,1.855.028,2.513.058a.315.315,0,0,1,.241.12c.957,3.232,4.039,13.556,5.237,17.237a.63.63,0,0,0,.388.389l1.107.3c.092.03.15.18.15.389,0,.028-.028.06-.09.06-.627,0-2.063-.06-3.559-.06-1.676,0-3.292.028-4.1.06-.09,0-.09-.032-.09-.06,0-.18.09-.389.18-.419l1.618-.27c.238-.03.268-.24.208-.478-.329-.988-1.436-3.862-1.766-4.879-1.346.03-4.819.12-6.374.24-.09,0-.18.09-.211.238-.178.87-.745,3.293-.927,4.37-.03.359.09.449.3.509l1.556.3c.092,0,.18.21.18.389,0,.06-.03.06-.088.06-.749-.032-1.947-.06-3.144-.06-1.018,0-1.915.028-2.513.06-.062,0-.062-.032-.062-.09,0-.092.062-.359.15-.389l.749-.24c.24-.06.389-.18.539-.539,1.466-3.591,4.576-12.777,5.924-16.428.27-.719.659-.867,1.855-.867Zm-1.616,2.361a9.823,9.823,0,0,0-.3,1.018c-.749,2.485-1.708,5.954-2.275,8.019a.162.162,0,0,0,.148.21,56.062,56.062,0,0,0,5.866.271c-.508-1.438-2.063-5.778-2.872-8.47-.09-.268-.21-.627-.389-1.048Z" transform="translate(-288.148 -259.82)" fill="#f3525d"/>
              <path id="Tracé_2342" data-name="Tracé 2342" d="M377.523,267.677a.081.081,0,0,1,.092.09c0,.15-.092.478-.18.509l-5.087.358c-.06,1.947-.15,5.117-.181,5.628-.028.957-.058,4.907-.058,5.625a.372.372,0,0,0,.358.389l2.634.27c.09,0,.15.24.15.389,0,.028-.03.06-.09.06-1.526-.032-3.232-.06-4.878-.06-1.706,0-3.054.028-3.921.06-.06,0-.06-.032-.06-.06,0-.09.06-.359.15-.359l1.616-.27c.21-.03.3-.15.3-.389,0-1.137-.15-4.518-.18-5.954-.03-1.2-.15-4.759-.15-5.3l-2.335.06c-.06,0-.088-.032-.088-.12a2,2,0,0,1,.118-.539.541.541,0,0,1,.539-.449h1.8c.18-3.531,2.275-7,7.422-7a5.683,5.683,0,0,1,2.393.389.19.19,0,0,1,.15.18l.18,3.232c0,.12-.268.3-.389.3-.028,0-.06-.03-.118-.12-.449-.837-.989-1.915-1.348-2.543a1.5,1.5,0,0,0-.477-.569,1.4,1.4,0,0,0-.839-.27c-1.5,0-2.633,2.245-2.692,6.374Z" transform="translate(-280.021 -260.61)" fill="#f3525d"/>
              <path id="Tracé_2343" data-name="Tracé 2343" d="M378.561,271.437c.06-.331.12-.6.15-.779.689-2.844,2.243-6.375,4.967-6.375a1.66,1.66,0,0,1,.957.24.273.273,0,0,1,.092.21l.208,4.16c0,.12-.268.27-.328.27-.03,0-.062,0-.09-.06-.359-.689-.839-1.5-1.2-2.065a1.061,1.061,0,0,0-.837-.509c-1.646,0-3.052,2.992-3.861,7.064a30.023,30.023,0,0,0-.3,3.529c0,.27.122.33.33.36l2.335.329c.06,0,.15.208.15.3,0,.058,0,.09-.06.09-.839-.032-2.574-.06-4.61-.06-1.766,0-3.322.028-3.679.06-.062,0-.062-.032-.062-.06,0-.15.062-.329.15-.329l1.5-.3a.344.344,0,0,0,.268-.389c0-.777-.06-4.488-.088-5.685-.032-1.288-.062-4.372-.122-5.207,0-.27-.058-.449-.328-.481l-1.348-.088c-.118,0-.18-.24-.18-.359,0-.06,0-.12.09-.12l5.806-.867c.24-.06.3.058.3.268,0,.449-.178,4.34-.3,5.986,0,.27-.028.627-.028.869Z" transform="translate(-274.717 -257.815)" fill="#f3525d"/>
              <path id="Tracé_2344" data-name="Tracé 2344" d="M386.138,266.638a.218.218,0,0,1,.268.24c-.058,1.2-.208,5.329-.24,6.795-.028,1.346-.088,4.668-.088,5.8,0,.27.06.33.27.389l1.5.3c.06,0,.15.208.15.3,0,.058,0,.09-.062.09-.717-.032-2.123-.06-3.741-.06-1.644,0-3.05.028-3.649.06-.09,0-.09-.032-.09-.06,0-.122.058-.3.15-.329l1.406-.329c.21-.06.33-.12.33-.389,0-.657-.09-4.248-.12-5.714-.03-1.228-.12-4.4-.15-5.147-.03-.241-.06-.449-.329-.449l-1.346-.06c-.09,0-.21-.21-.21-.389,0-.03,0-.06.06-.06Zm-2.185-5.445a1.944,1.944,0,0,1,2.035,1.944,2.031,2.031,0,0,1-2.065,2.065,2.012,2.012,0,1,1,0-4.009Z" transform="translate(-268.92 -260.17)" fill="#f3525d"/>
              <path id="Tracé_2345" data-name="Tracé 2345" d="M385.445,272.364a7.845,7.845,0,0,1,3.022-6.194,8.843,8.843,0,0,1,5.746-1.887,6.886,6.886,0,0,1,2.574.359c.09.03.148.12.148.27l.182,3.233c0,.09-.271.24-.36.24-.062,0-.09,0-.12-.062-.449-.867-.929-1.826-1.348-2.543a1.533,1.533,0,0,0-.537-.629,1.721,1.721,0,0,0-1.048-.27c-1.077,0-2.065.867-2.872,2.6a10.309,10.309,0,0,0-.9,4.428c0,3.5,1.827,5.147,4.011,5.147a7.348,7.348,0,0,0,1.526-.178,8.066,8.066,0,0,0,1.975-.689c.06-.03.15.09.15.268,0,.122-.03.211-.12.24a15.135,15.135,0,0,1-2.994,1.376,6.812,6.812,0,0,1-2.483.3c-3.651,0-6.553-1.586-6.553-5.984Z" transform="translate(-264.909 -257.815)" fill="#f3525d"/>
              <path id="Tracé_2346" data-name="Tracé 2346" d="M402.09,270.119a10.669,10.669,0,0,0-.271-1.826c-.358-1.376-1.195-2.513-2.633-2.513a6.6,6.6,0,0,0-4.34,1.974c-.028.032-.06.06-.088.06-.09,0-.33-.358-.18-.507a9.233,9.233,0,0,1,7-3.024c4.009,0,4.638,3.382,4.638,6.405,0,.567-.06,2.273-.12,3.292-.06,1.346-.118,2.663-.118,3.142,0,.21.058.3.3.36l1.258.3a.33.33,0,0,1,.178.3c0,.062-.03.09-.118.09-.359-.028-1.588-.028-2.754-.028-1.018,0-1.646,0-2.153.028-.092,0-.15-.028-.15-.15-.032-.238-.092-1.316-.092-1.974,0-.15-.03-.6-.03-.837l-.09-.062c-.12.24-.27.509-.419.749a5.5,5.5,0,0,1-4.758,2.483,3.831,3.831,0,0,1-3.98-4.009,5.267,5.267,0,0,1,5.6-5.477,4.389,4.389,0,0,1,2.6.777,4.008,4.008,0,0,1,.6.479Zm-2.694,6.733c1.167,0,2.245-1.137,2.812-2.782a3.274,3.274,0,0,0,.21-1.077,3,3,0,0,0-.268-1.138,3.131,3.131,0,0,0-2.6-2.215c-1.526,0-2.215,1.945-2.215,3.981,0,2.1.839,3.232,2.035,3.232Z" transform="translate(-259.022 -257.815)" fill="#f3525d"/>
              <path id="Tracé_2347" data-name="Tracé 2347" d="M419.362,277.813c.088,0,.15.208.15.33,0,.028,0,.06-.062.06-1.017-.032-2.063-.06-3.8-.06-1.707,0-2.994.028-3.741.06-.06,0-.09-.032-.09-.06,0-.09.06-.33.148-.33l1.438-.329a.42.42,0,0,0,.36-.419c.06-.627.15-2.962.15-4.34,0-2.6-.359-5.625-2.035-5.625-1.436,0-2.9,2.275-3.8,5.924a20.563,20.563,0,0,0-.449,4.07c0,.27.09.36.27.389l1.468.329c.09,0,.148.208.148.33,0,.028-.03.06-.09.06-1.167-.032-2.123-.06-3.741-.06s-2.752.028-3.649.06c-.062,0-.062-.032-.062-.06,0-.122.062-.33.15-.359l1.528-.27c.178-.06.268-.15.268-.419,0-.9-.058-4.4-.058-5.714-.032-1.019-.122-4.37-.15-5.147-.032-.27-.032-.449-.3-.481l-1.316-.088c-.092,0-.182-.211-.182-.359,0-.06,0-.09.09-.09l5.806-.929c.182-.028.24.062.24.24-.03.419-.18,4.22-.24,5.836,0,.3-.03.687-.06,1.019l.15.028c.092-.3.21-.687.27-.837.839-2.664,3.114-6.285,6.046-6.285,2.393,0,3.619,2.245,3.619,6.405,0,2.215-.21,5-.328,6.254-.032.3.03.449.328.509Z" transform="translate(-252.358 -257.817)" fill="#f3525d"/>
              <path id="Tracé_2348" data-name="Tracé 2348" d="M424.362,278.742c.09-.328.21-.659.3-.957,1.077-3.951,2.724-10.234,3.681-14.425.18-.867.3-.927,2-1.077a8.278,8.278,0,0,1,1.078-.09.262.262,0,0,1,.27.21c.988,3.681,2.754,11.521,3.681,15.561a6.979,6.979,0,0,0,.27.839h.15c.09-.24.18-.629.24-.87.867-3.739,2.155-10.322,2.812-14.99.03-.331-.06-.509-.27-.539l-1.406-.21c-.12-.03-.18-.27-.18-.419,0-.06,0-.09.06-.09H442.8a.079.079,0,0,1,.09.09c0,.15-.062.359-.15.389l-.657.208a.667.667,0,0,0-.539.539c-.839,2.934-4.13,13.647-5.239,16.46-.21.659-.388.719-2.633.777h-1.2a.318.318,0,0,1-.268-.208c-.927-2.964-2.275-7-2.964-9.7-.12-.389-.27-1.077-.448-1.706h-.18c-.18.657-.419,1.438-.6,2.005-.659,1.945-2.243,6.673-3.172,8.858-.27.629-.419.689-3.022.747h-.929c-.15,0-.21-.058-.27-.238-.867-2.934-2.962-11.97-4.129-17.179-.06-.21-.15-.359-.359-.388l-.777-.15c-.09-.03-.181-.27-.181-.419a.081.081,0,0,1,.092-.09h8.169c.088,0,.088.03.088.12,0,.12-.088.359-.208.389l-1.5.21a.364.364,0,0,0-.3.449c.478,3.232,1.736,10.862,2.453,14.872.06.24.15.657.21,1.017Z" transform="translate(-242.253 -259.795)" fill="#f3525d"/>
              <path id="Tracé_2349" data-name="Tracé 2349" d="M437.076,278.378c-4.219,0-6.553-2.573-6.553-6.4,0-4.012,2.513-7.693,8.051-7.693,4.7,0,6.673,2.994,6.673,6.555,0,3.949-2.664,7.54-8.141,7.54Zm.929-.567c2.125,0,2.752-2.752,2.752-6.555,0-3.441-.837-6.4-2.872-6.4-1.975,0-2.9,2.633-2.9,6.613,0,3.441,1.077,6.344,2.992,6.344Z" transform="translate(-230.555 -257.815)" fill="#f3525d"/>
              <path id="Tracé_2350" data-name="Tracé 2350" d="M466.343,277.781c.088.03.148.21.148.33,0,.058,0,.09-.088.09-.9-.032-1.915-.06-3.591-.06s-2.964.028-3.681.06c-.09,0-.09-.032-.09-.06,0-.122.06-.329.15-.359l1.346-.329c.18-.03.27-.15.3-.359.088-.777.088-3.411.088-4.248,0-2.932-.477-5.778-2.093-5.778-1.945,0-3.114,3.443-3.531,6.227a33.9,33.9,0,0,0-.27,3.741c0,.238.09.328.329.388l1.616.359c.09.03.15.21.15.33,0,.058,0,.09-.06.09-.957-.032-2.1-.06-3.8-.06s-2.872.028-3.651.06c-.088,0-.088-.032-.088-.09,0-.092.028-.3.15-.33l1.284-.329c.24-.06.3-.15.331-.389.088-.687.058-2.992.058-4.069,0-3.054-.358-5.928-2.065-5.928-1.8,0-3.052,3.114-3.589,6.046-.122.989-.271,2.842-.271,3.981a.311.311,0,0,0,.271.359l1.376.329c.118.03.18.21.18.33,0,.058,0,.09-.09.09-1.258-.032-2.1-.06-3.713-.06-1.554,0-2.423.028-3.41.06-.09,0-.09-.032-.09-.06,0-.122.058-.329.15-.359l1.346-.3c.178-.06.3-.12.3-.389,0-1.316-.062-4.548-.062-5.9-.028-.987-.088-4.248-.178-5.057-.03-.268-.06-.449-.329-.478l-1.286-.062c-.09,0-.181-.178-.181-.358,0-.06,0-.09.122-.12l5.774-.807c.181-.032.21.058.21.208,0,.359-.15,3.8-.268,5.388,0,.238-.06.657-.06.957l.178.06c.09-.359.21-.749.27-.927.807-2.247,2.6-5.718,5.836-5.718,2.183,0,3.381,2.065,3.471,5.3v.869l.12.03c.06-.21.18-.627.268-.9.689-2,2.514-5.3,5.718-5.3,2.183,0,3.529,2.1,3.529,6.315,0,2.273-.27,5.536-.328,6.344,0,.329.058.419.3.479Z" transform="translate(-223.556 -257.815)" fill="#f3525d"/>
              <path id="Tracé_2351" data-name="Tracé 2351" d="M468.554,270.269a.9.9,0,0,1-.6.837c-1.108.361-6.525.361-7.931.24a9.9,9.9,0,0,0,.15,2.035,4.3,4.3,0,0,0,3.919,3.653,9.689,9.689,0,0,0,2.005-.21,11.241,11.241,0,0,0,2.185-.779c.06-.03.15.15.15.358,0,.092-.06.122-.12.181a15.9,15.9,0,0,1-3.441,1.494,8.017,8.017,0,0,1-2.633.3c-3.771,0-6.555-1.766-6.555-6.164,0-4.04,2.934-7.931,7.182-7.931a5.718,5.718,0,0,1,5.686,5.956Zm-6.225-5.387c-1.167,0-2.363,1.766-2.3,5.926a14.567,14.567,0,0,0,3.859-.18c.241-.12.419-.33.419-.959,0-1.616-.359-4.816-1.944-4.816Z" transform="translate(-211.38 -257.815)" fill="#f3525d"/>
              <path id="Tracé_2352" data-name="Tracé 2352" d="M481.264,277.813c.09,0,.15.208.15.33,0,.028,0,.06-.06.06-1.017-.032-2.065-.06-3.8-.06-1.708,0-3,.028-3.743.06-.06,0-.088-.032-.088-.06,0-.09.058-.33.15-.33l1.434-.329a.418.418,0,0,0,.359-.419c.06-.627.15-2.962.15-4.34,0-2.6-.359-5.625-2.035-5.625-1.436,0-2.9,2.275-3.8,5.924a20.3,20.3,0,0,0-.449,4.07c0,.27.09.36.268.389l1.468.329c.09,0,.148.208.148.33,0,.028-.028.06-.09.06-1.166-.032-2.123-.06-3.741-.06s-2.751.028-3.649.06c-.06,0-.06-.032-.06-.06,0-.122.06-.33.15-.359l1.526-.27c.18-.06.268-.15.268-.419,0-.9-.058-4.4-.058-5.714-.03-1.019-.12-4.37-.15-5.147-.03-.27-.03-.449-.3-.481L464,265.663c-.092,0-.18-.211-.18-.359,0-.06,0-.09.088-.09l5.806-.929c.181-.028.24.062.24.24-.03.419-.178,4.22-.24,5.836,0,.3-.028.687-.06,1.019l.15.028c.092-.3.21-.687.27-.837.839-2.664,3.114-6.285,6.046-6.285,2.393,0,3.621,2.245,3.621,6.405,0,2.215-.21,5-.33,6.254-.03.3.03.449.33.509Z" transform="translate(-205.182 -257.817)" fill="#f3525d"/>
            </g>
          </g>
        </g>
        <g id="Groupe_277" data-name="Groupe 277" transform="translate(56.838 230.527)">
          <path id="Tracé_2353" data-name="Tracé 2353" d="M368.894,309.571c-.042.13-.13.217-.345.217-.3,0-1.3-.042-3.461-.13-2.162-.042-5.452-.086-10.384-.086-1.688,0-3.85.044-5.277.086-.13,0-.13-.042-.13-.086,0-.173.088-.476.217-.52l1.989-.432c.3-.085.478-.217.478-.691.042-1.3-.044-10.081-.044-12.026-.042-1.688-.13-9.778-.217-11.207,0-.52-.173-.691-.432-.777l-1.774-.347c-.086,0-.217-.3-.217-.6,0-.046,0-.088.088-.088,1.038,0,2.032.042,2.941.042h2.423c9.647,0,12.978-.129,13.5-.129a.231.231,0,0,1,.261.261l.3,5.665c0,.132-.389.347-.52.347-.042,0-.085,0-.129-.086-.606-1.341-1.211-2.64-1.861-4.023a1.312,1.312,0,0,0-1.082-.606,52.526,52.526,0,0,0-6.317-.693c-.432.044-.474.173-.474.476-.217,2.64-.478,9.517-.433,10.946,2.985.129,7.831.217,8.957.259.086,0,.086.044.086.086,0,.261-.217.735-.347.735-1.688.174-5.97.391-8.22.606-.388.044-.52.13-.52.476-.042,1.429-.215,9.647-.215,10.858,0,.478.173.564.476.564a39.541,39.541,0,0,0,7.917-.735,1.481,1.481,0,0,0,.909-.648c.865-1.168,1.642-2.381,2.379-3.591.044-.086.086-.086.129-.086.174.042.52.345.478.518Z" transform="translate(-349.296 -280.19)" fill="#081d82"/>
          <path id="Tracé_2354" data-name="Tracé 2354" d="M371.425,291.467c-.217,2.768-.261,6.229-.261,9.041,0,5.494,1.3,7.443,4.326,7.443.389,0,.952-.044,1.427-.088a10.663,10.663,0,0,0,2.294-.606c.129-.042.171.174.171.478a.312.312,0,0,1-.171.3,18.531,18.531,0,0,1-4.412,1.514c-.477.042-1.126.086-2.078.086-4.759,0-7.7-1.73-7.743-8a90.73,90.73,0,0,1,.735-10.167l-3.722.129a.157.157,0,0,1-.173-.171,2.919,2.919,0,0,1,.13-.735.824.824,0,0,1,.865-.737h3.071c.129-.735.345-2.467.606-3.5.215-.823.648-1.387,2.032-1.991a29.364,29.364,0,0,1,3.374-1.3c.174,0,.261.13.217.389-.173,1.429-.52,4.888-.6,6.49l7.57.044c.044,0,.086.042.086.129,0,.3-.173.693-.3.693Z" transform="translate(-339.752 -279.909)" fill="#081d82"/>
          <path id="Tracé_2355" data-name="Tracé 2355" d="M380.887,281.322c.259-.044.347.13.347.389,0,.345-.476,14.535-.606,17.954,0,.388-.044.907-.086,1.427h.217a10.8,10.8,0,0,1,.432-1.3c1.211-3.374,4.5-9.129,8.955-9.129,3.5,0,5.191,3.5,5.191,9.129,0,3.806-.345,7.526-.474,9-.044.693.042.867.345.952l2.077.432c.085,0,.215.261.215.52,0,.044-.044.086-.13.086-.779-.042-2.64-.086-5.147-.086-2.553,0-4.544.044-5.45.086-.13,0-.13-.042-.13-.086,0-.173.042-.52.173-.52l2.164-.388c.345-.044.432-.217.474-.606.13-1.126.217-3.633.217-6.315,0-4.111-.562-8.178-2.855-8.178-2.423,0-4.888,4.284-5.928,9.475a37.761,37.761,0,0,0-.389,5.061c0,.389.175.478.478.52l2.12.432c.086,0,.215.261.215.478,0,.086,0,.129-.129.129-.909-.042-3.115-.086-5.538-.086-2.379,0-4.326.044-5.018.086-.13,0-.13-.042-.13-.129,0-.174.13-.478.217-.478l2.078-.474c.257-.042.3-.174.345-.52.044-1.168-.042-10.21-.042-12.675,0-1.9-.13-11.378-.175-12.98,0-.389-.086-.562-.476-.6l-2.638-.132c-.132,0-.261-.259-.261-.516,0-.046,0-.132.129-.132Z" transform="translate(-332.342 -281.315)" fill="#081d82"/>
          <path id="Tracé_2356" data-name="Tracé 2356" d="M395.574,290.028a.316.316,0,0,1,.389.347c-.086,1.73-.3,7.7-.347,9.82-.042,1.945-.129,6.749-.129,8.391,0,.389.086.477.389.564l2.162.432c.086,0,.217.3.217.433,0,.086,0,.129-.086.129-1.038-.042-3.073-.086-5.408-.086-2.379,0-4.414.044-5.277.086-.13,0-.13-.042-.13-.086,0-.173.086-.432.217-.476l2.032-.476c.3-.085.477-.173.477-.562,0-.952-.13-6.143-.174-8.262-.042-1.774-.173-6.359-.215-7.441-.042-.345-.088-.648-.478-.648l-1.945-.086c-.13,0-.3-.3-.3-.562,0-.044,0-.086.086-.086Zm-3.158-7.875a2.812,2.812,0,0,1,2.941,2.812,2.937,2.937,0,0,1-2.987,2.987,2.91,2.91,0,1,1,0-5.8Z" transform="translate(-320.589 -280.677)" fill="#081d82"/>
          <path id="Tracé_2357" data-name="Tracé 2357" d="M404.051,307c-6.1,0-9.475-3.722-9.475-9.258,0-5.8,3.635-11.119,11.639-11.119,6.791,0,9.647,4.326,9.647,9.475,0,5.709-3.85,10.9-11.767,10.9Zm1.341-.823c3.071,0,3.981-3.979,3.981-9.473,0-4.976-1.212-9.258-4.153-9.258-2.855,0-4.2,3.806-4.2,9.561,0,4.974,1.556,9.17,4.326,9.17Z" transform="translate(-314.788 -277.271)" fill="#081d82"/>
          <path id="Tracé_2358" data-name="Tracé 2358" d="M416.33,305.228c.042.952,0,1.947,0,2.6-.086,2.2-.086,4.846-.086,5.278,0,.388.086.474.389.52l2.941.474c.13.042.217.3.217.478,0,.085,0,.129-.086.129-1.9-.044-3.808-.086-6.056-.086-2.122,0-3.547.042-5.061.086-.088,0-.088-.044-.088-.086,0-.217.088-.52.217-.52l1.774-.389c.3-.042.432-.173.432-.562.088-1.383-.086-8.22-.13-10.858,0-2.509-.13-11.595-.217-12.892,0-.435-.042-.606-.388-.65l-2.25-.042c-.217-.042-.347-.345-.347-.562,0-.086,0-.132.13-.174l8.782-1.341c.217-.042.3.086.3.3,0,.865-.173,4.932-.215,6.662,0,.432-.088.821-.088,1.166l.259.044a8.429,8.429,0,0,1,.478-1.255c1.122-2.724,3.892-6.921,8.391-6.921,3.852,0,5.713,3.806,5.713,8.264,0,6.271-3.117,12.113-9.952,12.113a7.051,7.051,0,0,1-4.109-1.168,8.753,8.753,0,0,1-.823-.65Zm4.758.952c2.726,0,4.111-3.5,4.111-9.216,0-3.459-.952-7.05-3.159-7.05-2.465,0-4.758,4.715-5.667,9.172-.042.347-.084.821-.084,1.082a6.7,6.7,0,0,0,.084.994c.693,3.635,2.812,5.018,4.673,5.018Z" transform="translate(-304.871 -277.274)" fill="#081d82"/>
          <path id="Tracé_2359" data-name="Tracé 2359" d="M430.811,290.028a.315.315,0,0,1,.389.347c-.086,1.73-.3,7.7-.345,9.82-.044,1.945-.13,6.749-.13,8.391,0,.389.086.477.389.564l2.164.432c.085,0,.217.3.217.433,0,.086,0,.129-.088.129-1.038-.042-3.071-.086-5.408-.086-2.379,0-4.412.044-5.277.086-.13,0-.13-.042-.13-.086,0-.173.086-.432.217-.476l2.032-.476c.3-.085.478-.173.478-.562,0-.952-.129-6.143-.174-8.262-.042-1.774-.171-6.359-.215-7.441-.042-.345-.088-.648-.476-.648l-1.947-.086c-.13,0-.3-.3-.3-.562,0-.044,0-.086.086-.086Zm-3.158-7.875a2.812,2.812,0,0,1,2.941,2.812,2.937,2.937,0,0,1-2.985,2.987,2.91,2.91,0,1,1,0-5.8Z" transform="translate(-293.736 -280.677)" fill="#081d82"/>
          <path id="Tracé_2360" data-name="Tracé 2360" d="M442.509,295.057a15.553,15.553,0,0,0-.389-2.638c-.52-1.991-1.73-3.633-3.808-3.633s-4.023.907-6.273,2.855c-.042.042-.085.086-.129.086-.13,0-.476-.518-.259-.735a13.345,13.345,0,0,1,10.123-4.37c5.8,0,6.7,4.89,6.7,9.258,0,.823-.086,3.288-.173,4.758-.086,1.949-.174,3.852-.174,4.543,0,.3.088.435.434.52l1.818.432a.482.482,0,0,1,.257.435c0,.085-.042.129-.173.129-.518-.044-2.293-.044-3.979-.044-1.471,0-2.381,0-3.115.044-.13,0-.217-.044-.217-.217-.042-.347-.129-1.9-.129-2.855,0-.217-.044-.867-.044-1.212l-.13-.086c-.173.347-.389.735-.606,1.082A7.955,7.955,0,0,1,435.371,307a5.541,5.541,0,0,1-5.755-5.8c0-3.892,2.509-7.917,8.09-7.917a6.364,6.364,0,0,1,3.766,1.124,6.2,6.2,0,0,1,.863.693Zm-3.894,9.736c1.688,0,3.246-1.644,4.067-4.023a4.76,4.76,0,0,0,.3-1.558,4.3,4.3,0,0,0-.389-1.646c-.564-1.47-1.9-3.2-3.764-3.2-2.206,0-3.2,2.811-3.2,5.753,0,3.029,1.211,4.673,2.939,4.673Z" transform="translate(-288.085 -277.271)" fill="#081d82"/>
        </g>
      </g>
      <text id="August_17th_2022" data-name="August 17th, 2022" transform="translate(1026 5676.363)" fill="#f3525d" font-size="25" font-family="Raleway" font-weight="700"><tspan x="0" y="0">August 17th, 2022</tspan></text>
      <text id="Deadline_to_apply" data-name="Deadline to apply" transform="translate(1048 5627.363)" fill="#050f3c" font-size="20" font-family="Raleway" font-weight="700"><tspan x="0" y="0">Deadline to apply</tspan></text>
    </g>
  </g>
</svg>
