<svg xmlns="http://www.w3.org/2000/svg" xmlns:xlink="http://www.w3.org/1999/xlink" width="301" height="231" viewBox="0 0 301 231">
  <defs>
    <clipPath id="clip-Plan_de_travail_8">
      <rect width="301" height="231"/>
    </clipPath>
  </defs>
  <g id="Plan_de_travail_8" data-name="Plan de travail – 8" clip-path="url(#clip-Plan_de_travail_8)">
    <g id="Groupe_345" data-name="Groupe 345" transform="translate(-232.075 -1912)">
      <g id="Groupe_338" data-name="Groupe 338" transform="translate(348.485 1969.339)">
        <g id="Groupe_334" data-name="Groupe 334" transform="translate(0 72.768)">
          <ellipse id="Ellipse_19" data-name="Ellipse 19" cx="17.156" cy="17.156" rx="17.156" ry="17.156" transform="translate(11.032)" fill="#f3525d"/>
          <path id="Tracé_2583" data-name="Tracé 2583" d="M209.055,472.713a28.188,28.188,0,0,1,56.375-.054v.054" transform="translate(-209.055 -407.526)" fill="#f3525d"/>
        </g>
        <rect id="Rectangle_41" data-name="Rectangle 41" width="77.157" height="137.955" rx="12" transform="translate(61.308 0)" fill="none" stroke="#081d82" stroke-miterlimit="10" stroke-width="2.907"/>
        <g id="Groupe_335" data-name="Groupe 335" transform="translate(65.424 33.917)">
          <path id="Tracé_2588" data-name="Tracé 2588" d="M309.331,380.038l8.721-8.714s-6.275-1.728-10.881,2.879-3.192,11.191-2.2,12.589l-16.6,16.6s-6.868-3.529-12.449,2.052a11.407,11.407,0,0,0-3.031,11.031l8.716-8.716,7.807,7.737-8.716,8.717a10.88,10.88,0,0,0,10.875-2.881,11.105,11.105,0,0,0,2.19-12.611l16.6-16.583a11.159,11.159,0,0,0,15.484-13.083l-8.785,8.783Z" transform="translate(-272.501 -370.965)" fill="#e3a437"/>
          <path id="Tracé_2589" data-name="Tracé 2589" d="M306.208,389.846a2.843,2.843,0,0,1-.035,4.027L295.592,404.4a2.872,2.872,0,0,1-4.044.034,2.841,2.841,0,0,1,.032-4.028l10.581-10.531A2.876,2.876,0,0,1,306.208,389.846Z" transform="translate(-271.934 -370.403)" fill="#e3a437"/>
          <path id="Tracé_2590" data-name="Tracé 2590" d="M292.448,403.46a1.549,1.549,0,0,0,2.178-.02l10.581-10.531a1.528,1.528,0,0,0,.02-2.166,1.55,1.55,0,0,0-2.181.017l-10.579,10.531A1.527,1.527,0,0,0,292.448,403.46Z" transform="translate(-271.894 -370.363)" fill="#e3a437"/>
          <path id="Tracé_2591" data-name="Tracé 2591" d="M291.8,414.53l-10.351-10.256-8.949,8.95a9.5,9.5,0,0,0,.352,2.169l8.717-8.714,7.808,7.737-8.717,8.715a9.163,9.163,0,0,0,2.135.4Z" transform="translate(-272.502 -369.928)" fill="#e3a437"/>
          <path id="Tracé_2592" data-name="Tracé 2592" d="M305.917,379.974l10.345,10.254,8.953-8.955a9.777,9.777,0,0,0-.352-2.17l-8.719,8.712-7.8-7.731,8.715-8.721a9.218,9.218,0,0,0-2.134-.4Z" transform="translate(-271.461 -370.966)" fill="#e3a437"/>
        </g>
        <g id="Groupe_337" data-name="Groupe 337" transform="translate(69.477 33.847)">
          <path id="Tracé_2593" data-name="Tracé 2593" d="M283.112,382.8l5.255,3.468,20.93,21.985,2.611-2.714-20.923-21.984-3.234-5.576-6.66-7.082-4.658,4.843Z" transform="translate(-276.433 -370.898)" fill="#3dc9a5"/>
          <path id="Tracé_2594" data-name="Tracé 2594" d="M288.367,386.2l20.93,21.985,1.562-1.621-31.915-33.506-2.511,2.613,6.68,7.061Z" transform="translate(-276.433 -370.83)" fill="#3dc9a5"/>
          <path id="Tracé_2595" data-name="Tracé 2595" d="M336.592,438.863l4.471-4.649a6.654,6.654,0,0,0,.039-9.086l-17.349-18.394c-1.255-1.324-3.032-1.257-4.564-1.893-1.868-.781-5.658-5.994-5.658-5.994a4.662,4.662,0,0,0-6.813-.037l-3.518,3.661a5.24,5.24,0,0,0-.034,7.158s4.929,4.026,5.655,5.993c.593,1.615.51,3.481,1.762,4.806l17.352,18.393A5.918,5.918,0,0,0,336.592,438.863Z" transform="translate(-275.643 -370.074)" fill="#3dc9a5"/>
          <g id="Groupe_336" data-name="Groupe 336" transform="translate(35.732 37.517)">
            <path id="Tracé_2596" data-name="Tracé 2596" d="M319.125,409.665a1.447,1.447,0,0,1,0-1.976h0a1.285,1.285,0,0,1,1.879,0l18.836,19.777a1.439,1.439,0,0,1,0,1.973h0a1.28,1.28,0,0,1-1.878,0Z" transform="translate(-310.847 -407.281)" fill="#3dc9a5"/>
            <path id="Tracé_2597" data-name="Tracé 2597" d="M316.576,412.339a1.441,1.441,0,0,1,0-1.972h0a1.286,1.286,0,0,1,1.881,0l18.837,19.773a1.45,1.45,0,0,1,0,1.975h0a1.281,1.281,0,0,1-1.879,0Z" transform="translate(-310.927 -407.198)" fill="#3dc9a5"/>
            <path id="Tracé_2598" data-name="Tracé 2598" d="M314.024,415.018a1.448,1.448,0,0,1,0-1.975h0a1.284,1.284,0,0,1,1.88,0l18.834,19.774a1.441,1.441,0,0,1,0,1.973h0a1.282,1.282,0,0,1-1.879,0Z" transform="translate(-311.006 -407.114)" fill="#3dc9a5"/>
            <path id="Tracé_2599" data-name="Tracé 2599" d="M311.476,417.7a1.443,1.443,0,0,1,0-1.974h0a1.284,1.284,0,0,1,1.878,0l18.836,19.773a1.449,1.449,0,0,1,0,1.978h0a1.288,1.288,0,0,1-1.88,0Z" transform="translate(-311.086 -407.031)" fill="#3dc9a5"/>
          </g>
        </g>
      </g>
      <g id="Groupe_344" data-name="Groupe 344" transform="translate(279.075 1948.823)">
        <g id="Groupe_343" data-name="Groupe 343" transform="translate(0)">
          <rect id="Rectangle_42" data-name="Rectangle 42" width="9.28" height="36.09" rx="4.64" transform="translate(18.045 20.819) rotate(-45)" fill="#e3a639"/>
          <rect id="Rectangle_43" data-name="Rectangle 43" width="9.28" height="36.09" rx="4.64" transform="translate(0 60.838) rotate(-90)" fill="#e3a639"/>
          <rect id="Rectangle_44" data-name="Rectangle 44" width="9.28" height="36.09" rx="4.64" transform="translate(59.807 0)" fill="#e3a639"/>
        </g>
        <path id="Tracé_2602" data-name="Tracé 2602" d="M195.545,361.064c-8.633.11-17.941,5.59-17.966,17.355,0,6.677,2.665,10.823,5.017,14.486a25.93,25.93,0,0,0,2.249,2.92,11.231,11.231,0,0,1,2.92,5.1,16,16,0,0,1,.386,2.551,9.108,9.108,0,0,1-.356,2.211c-.255,1.015-.475,1.893.055,2.572a1.459,1.459,0,0,0,.323.306.368.368,0,0,0,.1.2l1.079,2.287a1.811,1.811,0,0,0,.39.552,1.422,1.422,0,0,0-.085,2.186,1.353,1.353,0,0,0-.175.671,1.268,1.268,0,0,0,1.21,1.315,6.046,6.046,0,0,0,10.61,0,1.267,1.267,0,0,0,1.21-1.315,1.362,1.362,0,0,0-.174-.671,1.381,1.381,0,0,0,.472-1.057,1.364,1.364,0,0,0-.561-1.125,1.9,1.9,0,0,0,.395-.556l1.078-2.287a.315.315,0,0,0,.115-.2v0a1.458,1.458,0,0,0,.306-.293c.53-.679.309-1.557.055-2.572a9.1,9.1,0,0,1-.356-2.173,16.241,16.241,0,0,1,.4-2.64,11.274,11.274,0,0,1,2.912-5.05,25.46,25.46,0,0,0,2.245-2.916c2.352-3.658,5.016-7.8,5.016-14.5C214.072,366.326,204.365,360.954,195.545,361.064Zm5.755,53.7H190.69c-.1,0-.209-.131-.209-.314s.111-.31.209-.31H201.3c.1,0,.208.132.208.31S201.4,414.767,201.3,414.767Zm.259-1.689H190.427c-.114,0-.242-.144-.242-.352s.128-.353.242-.353H201.56c.119,0,.246.145.246.353S201.679,413.078,201.56,413.078Zm-2.7,4.05a5.483,5.483,0,0,1-2.87.785,4.74,4.74,0,0,1-4.185-2.144h8.374A3.815,3.815,0,0,1,198.865,417.127Zm3.62-8.094-.747,1.587a1.159,1.159,0,0,1-1.065.611h-9.354a1.172,1.172,0,0,1-1.065-.611l-.747-1.582c.089,0,.186.008.288.017h.009c.284.025.6.038.95.038h.179c1.324.042,3.1.064,5.008.064h.031c.01,0,.019.005.03.005s.017-.005.027-.005h.024c2.58,0,4.3-.017,5.457-.068.089,0,.175,0,.259-.009.11,0,.217-.009.318-.017C202.231,409.054,202.362,409.041,202.485,409.033Zm-6.931-7.25a7.162,7.162,0,0,1-.929-.769,5.949,5.949,0,0,1,.942-.9l0,0-.014,1.671Zm.055-6.588a11.449,11.449,0,0,1-1.354-.8,8.065,8.065,0,0,1,1.367-.748h0l-.013,1.548Zm.047-5.368a4.926,4.926,0,0,1-1.015-.6,4.184,4.184,0,0,1,1.027-.853l0,0-.013,1.458Zm.637-4.767c.072.162.148.31.216.445a2.9,2.9,0,0,1,.314.764,1.868,1.868,0,0,1-.516.465Zm.053,6.209h0a5.818,5.818,0,0,1,.713.39,2.454,2.454,0,0,1-.707.5Zm.114,13.231-.007-.832h0a7.371,7.371,0,0,1,.645.53c-.162.089-.395.2-.637.3Zm-.055-6.34-.011-1.385h0a2.846,2.846,0,0,1,.8.62,4.752,4.752,0,0,1-.79.764Zm-.9,9.048h0a2.525,2.525,0,0,1-.853-.726,3.409,3.409,0,0,1,.861-.493h0Zm13.047-14.847a24.95,24.95,0,0,1-2.165,2.81,12.235,12.235,0,0,0-3.124,5.458,16.718,16.718,0,0,0-.428,2.844,10.011,10.011,0,0,0,.386,2.458c.191.76.356,1.417.128,1.711-.119.153-.421.327-1.168.407l-.153.013h-.038c-.224.009-.479.017-.755.03H197.35a5.475,5.475,0,0,1-.861-.343l-.018-2.165h0c1.091-.454,1.744-.743,1.744-1.316,0-.526-.576-.989-1.772-1.845l-.026-2.982c1.183-.946,1.8-1.485,1.8-2.032,0-.645-.679-1.15-1.83-1.79h0l-.02-2.318h0c.963-.479,1.741-.984,1.741-1.732,0-.564-.666-.891-1.768-1.412l-.019-2.208h0c.853-.569,1.493-1.031,1.493-1.622a2.8,2.8,0,0,0-.407-1.265A7.954,7.954,0,0,1,196.5,381a.5.5,0,1,0-1,0,10.686,10.686,0,0,0,.22,2.288l-.033,3.871c-.043.03-.089.059-.128.085-1.036.679-1.935,1.269-1.935,2.024,0,.645.768,1.061,2.029,1.664h0l-.014,1.6h0c-.14.068-.267.128-.377.178-1.159.543-2.072.976-2.072,1.711,0,.585.654.963,2.02,1.689.12.064.251.136.4.212h0l-.022,2.494h0c-1.273,1.014-1.99,1.621-1.99,2.211,0,.548.632,1.031,1.952,1.969l0,0-.017,1.883c-1.141.484-1.829.861-1.884,1.472s.616,1.235,1.392,1.727h-4.283c-.275-.013-.53-.021-.755-.03h-.038l-.153-.013c-.748-.08-1.049-.254-1.168-.407-.229-.293-.064-.951.128-1.711a9.841,9.841,0,0,0,.386-2.5,16.928,16.928,0,0,0-.416-2.751,12.179,12.179,0,0,0-3.133-5.513,23.87,23.87,0,0,1-2.164-2.81c-2.279-3.544-4.86-7.559-4.86-13.938.025-11.09,8.82-16.255,16.978-16.362h.263c8.3,0,17.27,5.089,17.589,16.358C213.41,384.806,210.829,388.822,208.554,392.361Z" transform="translate(-126.908 -310.463)" fill="#f3525d" stroke="#f3525d" stroke-width="3"/>
      </g>
    </g>
  </g>
</svg>
