<svg xmlns="http://www.w3.org/2000/svg" xmlns:xlink="http://www.w3.org/1999/xlink" width="471" height="649" viewBox="0 0 471 649">
  <defs>
    <filter id="Rectangle_20" x="33" y="21" width="416" height="601" filterUnits="userSpaceOnUse">
      <feOffset dy="3" input="SourceAlpha"/>
      <feGaussianBlur stdDeviation="3" result="blur"/>
      <feFlood flood-opacity="0.161"/>
      <feComposite operator="in" in2="blur"/>
      <feComposite in="SourceGraphic"/>
    </filter>
    <clipPath id="clip-Plan_de_travail_12">
      <rect width="471" height="649"/>
    </clipPath>
  </defs>
  <g id="Plan_de_travail_12" data-name="Plan de travail – 12" clip-path="url(#clip-Plan_de_travail_12)">
    <g id="Groupe_449" data-name="Groupe 449" transform="translate(-63 -5544.619)">
      <g transform="matrix(1, 0, 0, 1, 63, 5544.62)" filter="url(#Rectangle_20)">
        <g id="Rectangle_20-2" data-name="Rectangle 20" transform="translate(42 27)" fill="#fff" stroke="#d5d5d5" stroke-width="1">
          <rect width="398" height="583" rx="14" stroke="none"/>
          <rect x="0.5" y="0.5" width="397" height="582" rx="13.5" fill="none"/>
        </g>
      </g>
      <g id="Groupe_262" data-name="Groupe 262" transform="translate(166 5733.012)">
        <g id="Groupe_260" data-name="Groupe 260" transform="translate(0 0)">
          <g id="Groupe_256" data-name="Groupe 256" transform="translate(1.117 90.967)">
            <g id="Groupe_255" data-name="Groupe 255">
              <path id="Tracé_1849" data-name="Tracé 1849" d="M399.774,453.087c0,.553-1.1,1.1-1.656,1.1-.137,0-.275-.138-.412-.275l-6.069-13.928a4.23,4.23,0,0,0-2.758-2.759c-4.689-1.378-14.343-2.067-16.824-2.2-.414,8.136-.966,31.441-1.242,38.75-.137,7.723-.55,33.51-.55,39.027,0,1.378.55,1.656,1.515,1.794l6.9,1.24c.414,0,.691.828.691,1.655,0,.277,0,.414-.414.414-3.033-.138-10.618-.277-18.617-.277-7.311,0-14.068.139-17.1.277-.414,0-.414-.138-.414-.277,0-.689.277-1.792.691-1.792l7.033-1.378c.966-.137,1.1-.553,1.1-1.931.137-5.517-.412-32.823-.552-39.3,0-5.517-.552-31.166-.689-38.2-2.345.137-11.859.826-16.55,2.067a4.8,4.8,0,0,0-3.033,2.9l-6.345,13.79c-.137.275-.275.412-.55.412-.416,0-1.656-.687-1.656-1.1l1.378-20.269a.872.872,0,0,1,.966-.966c1.1,0,3.725.137,9.38.412,5.792.137,14.479.412,27.443.412,12.55,0,21.238-.137,27.029-.412,5.792-.137,8.687-.275,9.653-.275.553,0,.828.275.828.966Z" transform="translate(-322.27 -431.852)" fill="#081d82"/>
              <path id="Tracé_1850" data-name="Tracé 1850" d="M403,432.164c4.826,0,8.551.138,11.584.275a1.435,1.435,0,0,1,1.1.553c4.412,14.893,18.618,62.472,24.134,79.434a2.9,2.9,0,0,0,1.792,1.794l5.1,1.378c.412.137.687.828.687,1.792,0,.139-.137.277-.412.277-2.9,0-9.515-.277-16.412-.277-7.722,0-15.168.139-18.891.277-.416,0-.416-.137-.416-.277,0-.826.416-1.792.828-1.93l7.448-1.241c1.1-.137,1.24-1.1.966-2.206-1.519-4.552-6.62-17.792-8.139-22.479-6.2.137-22.2.55-29.372,1.1-.414,0-.826.412-.964,1.1-.828,4-3.448,15.168-4.277,20.134-.137,1.655.414,2.067,1.38,2.345l7.17,1.378c.414,0,.828.966.828,1.792,0,.277-.137.277-.414.277-3.447-.137-8.964-.277-14.479-.277-4.689,0-8.826.139-11.584.277-.277,0-.277-.137-.277-.414,0-.414.277-1.655.689-1.792l3.448-1.1c1.1-.275,1.794-.828,2.481-2.483,6.758-16.548,21.1-58.886,27.305-75.71,1.242-3.309,3.034-4,8.551-4Zm-7.447,10.9a48.285,48.285,0,0,0-1.38,4.689c-3.448,11.447-7.861,27.443-10.481,36.96a.752.752,0,0,0,.691.964,258.674,258.674,0,0,0,27.031,1.242c-2.347-6.62-9.517-26.616-13.24-39.029-.412-1.241-.966-2.9-1.794-4.826Z" transform="translate(-293.224 -431.614)" fill="#081d82"/>
              <path id="Tracé_1851" data-name="Tracé 1851" d="M448.193,510.929c.414-1.519.964-3.036,1.38-4.414,4.964-18.2,12.55-47.164,16.962-66.471.826-4,1.378-4.273,9.239-4.964a39.654,39.654,0,0,1,4.964-.412,1.207,1.207,0,0,1,1.242.964c4.55,16.962,12.689,53.094,16.962,71.712a32.065,32.065,0,0,0,1.241,3.861h.691c.412-1.1.828-2.9,1.1-4,4-17.24,9.929-47.578,12.962-69.092.141-1.517-.275-2.344-1.241-2.483l-6.479-.964c-.553-.139-.828-1.244-.828-1.931,0-.275,0-.416.275-.416h26.479a.367.367,0,0,1,.412.416c0,.687-.275,1.653-.689,1.792l-3.033.966a3.059,3.059,0,0,0-2.485,2.481c-3.861,13.515-19.029,62.886-24.134,75.848-.966,3.036-1.79,3.311-12.135,3.588h-5.515a1.475,1.475,0,0,1-1.242-.966c-4.273-13.653-10.481-32.271-13.653-44.681-.55-1.792-1.241-4.964-2.067-7.861h-.828c-.828,3.034-1.931,6.618-2.759,9.239-3.033,8.964-10.342,30.754-14.615,40.823-1.244,2.9-1.931,3.17-13.931,3.447h-4.275c-.689,0-.964-.277-1.241-1.1-4-13.515-13.653-55.163-19.031-79.159-.277-.966-.689-1.655-1.655-1.794l-3.586-.687c-.412-.139-.828-1.244-.828-1.931a.368.368,0,0,1,.416-.416h37.647c.412,0,.412.141.412.553,0,.55-.412,1.655-.966,1.794l-6.9.964a1.687,1.687,0,0,0-1.378,2.069c2.206,14.893,8,50.059,11.307,68.54.277,1.1.691,3.033.966,4.689Z" transform="translate(-258.57 -431.495)" fill="#081d82"/>
            </g>
          </g>
          <g id="Groupe_257" data-name="Groupe 257" transform="translate(3.86)">
            <path id="Tracé_1852" data-name="Tracé 1852" d="M427.61,393.037a3.7,3.7,0,1,1,4.236,2.6A3.532,3.532,0,0,1,427.61,393.037Z" transform="translate(-244.767 -373.502)" fill="#e3a437"/>
            <path id="Tracé_1853" data-name="Tracé 1853" d="M422.256,393.822a3.7,3.7,0,1,1,4.143,2.744A3.529,3.529,0,0,1,422.256,393.822Z" transform="translate(-248.835 -372.807)" fill="#e3a437"/>
            <path id="Tracé_1854" data-name="Tracé 1854" d="M416.885,394.425a3.693,3.693,0,1,1,4.044,2.881A3.525,3.525,0,0,1,416.885,394.425Z" transform="translate(-252.92 -372.25)" fill="#e3a437"/>
            <path id="Tracé_1855" data-name="Tracé 1855" d="M411.5,394.848a3.7,3.7,0,0,1,7.32-.62,3.69,3.69,0,0,1-7.32.62Z" transform="translate(-257.016 -371.833)" fill="#e3a437"/>
            <path id="Tracé_1856" data-name="Tracé 1856" d="M406.108,395.088a3.687,3.687,0,1,1,3.834,3.147A3.522,3.522,0,0,1,406.108,395.088Z" transform="translate(-261.122 -371.554)" fill="#e3a437"/>
            <path id="Tracé_1857" data-name="Tracé 1857" d="M400.711,395.149a3.691,3.691,0,0,1,7.337-.127,3.686,3.686,0,0,1-7.337.127Z" transform="translate(-265.233 -371.414)" fill="#e3a437"/>
            <path id="Tracé_1858" data-name="Tracé 1858" d="M395.315,395.027a3.687,3.687,0,1,1,3.616,3.4A3.522,3.522,0,0,1,395.315,395.027Z" transform="translate(-269.347 -371.412)" fill="#e3a437"/>
            <path id="Tracé_1859" data-name="Tracé 1859" d="M389.925,394.725a3.693,3.693,0,0,1,7.332.366,3.687,3.687,0,0,1-7.332-.366Z" transform="translate(-273.458 -371.548)" fill="#e3a437"/>
            <path id="Tracé_1860" data-name="Tracé 1860" d="M384.544,394.241a3.69,3.69,0,1,1,3.382,3.633A3.524,3.524,0,0,1,384.544,394.241Z" transform="translate(-277.565 -371.824)" fill="#e3a437"/>
            <path id="Tracé_1861" data-name="Tracé 1861" d="M379.179,393.577a3.693,3.693,0,1,1,3.26,3.746A3.525,3.525,0,0,1,379.179,393.577Z" transform="translate(-281.662 -372.238)" fill="#e3a437"/>
            <path id="Tracé_1862" data-name="Tracé 1862" d="M373.834,392.733a3.7,3.7,0,1,1,3.135,3.854A3.528,3.528,0,0,1,373.834,392.733Z" transform="translate(-285.747 -372.791)" fill="#e3a437"/>
            <path id="Tracé_1863" data-name="Tracé 1863" d="M368.512,391.706a3.708,3.708,0,0,1,7.244,1.353,3.7,3.7,0,0,1-7.244-1.353Z" transform="translate(-289.817 -373.482)" fill="#e3a437"/>
            <path id="Tracé_1864" data-name="Tracé 1864" d="M421.527,388.592a3.57,3.57,0,0,1,7.036-1.077,3.566,3.566,0,0,1-7.036,1.077Z" transform="translate(-249.392 -376.777)" fill="#e3a437"/>
            <path id="Tracé_1865" data-name="Tracé 1865" d="M416.332,389.177a3.561,3.561,0,1,1,3.922,2.9A3.458,3.458,0,0,1,416.332,389.177Z" transform="translate(-253.341 -376.239)" fill="#e3a437"/>
            <path id="Tracé_1866" data-name="Tracé 1866" d="M411.124,389.585a3.559,3.559,0,1,1,3.82,3.025A3.456,3.456,0,0,1,411.124,389.585Z" transform="translate(-257.303 -375.836)" fill="#e3a437"/>
            <path id="Tracé_1867" data-name="Tracé 1867" d="M405.908,389.818a3.56,3.56,0,0,1,7.091-.361,3.557,3.557,0,0,1-7.091.361Z" transform="translate(-261.274 -375.566)" fill="#e3a437"/>
            <path id="Tracé_1868" data-name="Tracé 1868" d="M400.688,389.876a3.56,3.56,0,0,1,7.1-.122,3.556,3.556,0,0,1-7.1.122Z" transform="translate(-265.251 -375.43)" fill="#e3a437"/>
            <path id="Tracé_1869" data-name="Tracé 1869" d="M395.47,389.76a3.556,3.556,0,1,1,3.494,3.394A3.454,3.454,0,0,1,395.47,389.76Z" transform="translate(-269.229 -375.429)" fill="#e3a437"/>
            <path id="Tracé_1870" data-name="Tracé 1870" d="M390.257,389.467a3.557,3.557,0,1,1,3.378,3.51A3.455,3.455,0,0,1,390.257,389.467Z" transform="translate(-273.205 -375.561)" fill="#e3a437"/>
            <path id="Tracé_1871" data-name="Tracé 1871" d="M385.054,389a3.562,3.562,0,0,1,7.078.594,3.558,3.558,0,0,1-7.078-.594Z" transform="translate(-277.177 -375.827)" fill="#e3a437"/>
            <path id="Tracé_1872" data-name="Tracé 1872" d="M379.865,388.357a3.562,3.562,0,1,1,3.14,3.73A3.456,3.456,0,0,1,379.865,388.357Z" transform="translate(-281.141 -376.227)" fill="#e3a437"/>
            <path id="Tracé_1873" data-name="Tracé 1873" d="M374.7,387.538a3.566,3.566,0,1,1,3.017,3.836A3.46,3.46,0,0,1,374.7,387.538Z" transform="translate(-285.092 -376.761)" fill="#e3a437"/>
            <path id="Tracé_1874" data-name="Tracé 1874" d="M415.779,383.927a3.437,3.437,0,0,1,6.819-.809,3.435,3.435,0,0,1-6.819.809Z" transform="translate(-253.764 -380.228)" fill="#e3a437"/>
            <path id="Tracé_1875" data-name="Tracé 1875" d="M410.747,384.323a3.432,3.432,0,1,1,3.7,3.034A3.389,3.389,0,0,1,410.747,384.323Z" transform="translate(-257.591 -379.838)" fill="#e3a437"/>
            <path id="Tracé_1876" data-name="Tracé 1876" d="M405.708,384.547a3.431,3.431,0,1,1,3.595,3.159A3.391,3.391,0,0,1,405.708,384.547Z" transform="translate(-261.427 -379.578)" fill="#e3a437"/>
            <path id="Tracé_1877" data-name="Tracé 1877" d="M400.666,384.6a3.431,3.431,0,0,1,6.856-.118,3.43,3.43,0,0,1-6.856.118Z" transform="translate(-265.268 -379.447)" fill="#e3a437"/>
            <path id="Tracé_1878" data-name="Tracé 1878" d="M395.625,384.49a3.431,3.431,0,0,1,6.856.113,3.43,3.43,0,0,1-6.856-.113Z" transform="translate(-269.111 -379.445)" fill="#e3a437"/>
            <path id="Tracé_1879" data-name="Tracé 1879" d="M390.589,384.209a3.43,3.43,0,1,1,3.258,3.5A3.355,3.355,0,0,1,390.589,384.209Z" transform="translate(-272.952 -379.573)" fill="#e3a437"/>
            <path id="Tracé_1880" data-name="Tracé 1880" d="M385.563,383.756a3.433,3.433,0,0,1,6.837.574,3.432,3.432,0,0,1-6.837-.574Z" transform="translate(-276.79 -379.83)" fill="#e3a437"/>
            <path id="Tracé_1881" data-name="Tracé 1881" d="M380.55,383.136a3.437,3.437,0,0,1,6.821.8,3.436,3.436,0,0,1-6.821-.8Z" transform="translate(-280.619 -380.216)" fill="#e3a437"/>
            <path id="Tracé_1882" data-name="Tracé 1882" d="M428.425,397.718a3.824,3.824,0,1,1,4.342,2.582A3.557,3.557,0,0,1,428.425,397.718Z" transform="translate(-244.146 -369.953)" fill="#e3a437"/>
            <path id="Tracé_1883" data-name="Tracé 1883" d="M433.913,396.725a3.831,3.831,0,1,1,4.433,2.432A3.6,3.6,0,0,1,433.913,396.725Z" transform="translate(-239.978 -370.812)" fill="#e3a437"/>
            <path id="Tracé_1884" data-name="Tracé 1884" d="M422.913,398.524a3.818,3.818,0,1,1,4.248,2.728A3.589,3.589,0,0,1,422.913,398.524Z" transform="translate(-248.334 -369.236)" fill="#e3a437"/>
            <path id="Tracé_1885" data-name="Tracé 1885" d="M417.383,399.146a3.814,3.814,0,1,1,4.151,2.869A3.589,3.589,0,0,1,417.383,399.146Z" transform="translate(-252.54 -368.663)" fill="#e3a437"/>
            <path id="Tracé_1886" data-name="Tracé 1886" d="M411.839,399.581a3.811,3.811,0,1,1,4.049,3.008A3.59,3.59,0,0,1,411.839,399.581Z" transform="translate(-256.758 -368.233)" fill="#e3a437"/>
            <path id="Tracé_1887" data-name="Tracé 1887" d="M406.287,399.829a3.808,3.808,0,1,1,3.944,3.142A3.587,3.587,0,0,1,406.287,399.829Z" transform="translate(-260.985 -367.945)" fill="#e3a437"/>
            <path id="Tracé_1888" data-name="Tracé 1888" d="M400.731,399.89a3.808,3.808,0,1,1,3.834,3.272A3.587,3.587,0,0,1,400.731,399.89Z" transform="translate(-265.218 -367.801)" fill="#e3a437"/>
            <path id="Tracé_1889" data-name="Tracé 1889" d="M395.176,399.765a3.807,3.807,0,1,1,3.723,3.4A3.587,3.587,0,0,1,395.176,399.765Z" transform="translate(-269.453 -367.799)" fill="#e3a437"/>
            <path id="Tracé_1890" data-name="Tracé 1890" d="M389.626,399.455a3.815,3.815,0,0,1,7.549.377,3.808,3.808,0,0,1-7.549-.377Z" transform="translate(-273.686 -367.94)" fill="#e3a437"/>
            <path id="Tracé_1891" data-name="Tracé 1891" d="M384.087,398.957a3.81,3.81,0,1,1,3.489,3.644A3.587,3.587,0,0,1,384.087,398.957Z" transform="translate(-277.913 -368.224)" fill="#e3a437"/>
            <path id="Tracé_1892" data-name="Tracé 1892" d="M378.563,398.273a3.813,3.813,0,1,1,3.367,3.76A3.589,3.589,0,0,1,378.563,398.273Z" transform="translate(-282.132 -368.65)" fill="#e3a437"/>
            <path id="Tracé_1893" data-name="Tracé 1893" d="M373.058,397.405a3.826,3.826,0,0,1,7.491,1.138,3.819,3.819,0,0,1-7.491-1.138Z" transform="translate(-286.338 -369.22)" fill="#e3a437"/>
            <path id="Tracé_1894" data-name="Tracé 1894" d="M367.579,396.348a3.833,3.833,0,0,1,7.459,1.394,3.825,3.825,0,0,1-7.459-1.394Z" transform="translate(-290.527 -369.933)" fill="#e3a437"/>
            <path id="Tracé_1895" data-name="Tracé 1895" d="M362.13,395.106a3.831,3.831,0,1,1,2.987,4.083A3.6,3.6,0,0,1,362.13,395.106Z" transform="translate(-294.696 -370.788)" fill="#e3a437"/>
            <path id="Tracé_1896" data-name="Tracé 1896" d="M429.329,402.922a3.973,3.973,0,0,1,7.693-1.445c.366,1.792-1.078,3.6-3.232,4.005S429.639,404.725,429.329,402.922Z" transform="translate(-243.455 -366.008)" fill="#e3a437"/>
            <path id="Tracé_1897" data-name="Tracé 1897" d="M434.992,401.9a3.981,3.981,0,0,1,7.653-1.707c.426,1.78-.959,3.637-3.1,4.115S435.362,403.689,434.992,401.9Z" transform="translate(-239.154 -366.895)" fill="#e3a437"/>
            <path id="Tracé_1898" data-name="Tracé 1898" d="M440.625,400.682a3.991,3.991,0,0,1,7.607-1.97c.486,1.764-.839,3.669-2.967,4.219S441.057,402.46,440.625,400.682Z" transform="translate(-234.877 -367.93)" fill="#e3a437"/>
            <path id="Tracé_1899" data-name="Tracé 1899" d="M423.642,403.754a3.968,3.968,0,0,1,7.729-1.184c.3,1.8-1.2,3.563-3.359,3.894S423.892,405.565,423.642,403.754Z" transform="translate(-247.778 -365.268)" fill="#e3a437"/>
            <path id="Tracé_1900" data-name="Tracé 1900" d="M417.937,404.394a3.962,3.962,0,0,1,7.755-.922c.243,1.815-1.314,3.521-3.485,3.778S418.123,406.214,417.937,404.394Z" transform="translate(-252.117 -364.676)" fill="#e3a437"/>
            <path id="Tracé_1901" data-name="Tracé 1901" d="M412.216,404.841a3.959,3.959,0,0,1,7.776-.659c.183,1.822-1.431,3.475-3.607,3.658S412.343,406.667,412.216,404.841Z" transform="translate(-256.471 -364.232)" fill="#e3a437"/>
            <path id="Tracé_1902" data-name="Tracé 1902" d="M406.487,405.1a3.957,3.957,0,0,1,7.79-.4c.12,1.825-1.547,3.422-3.725,3.533S406.552,406.926,406.487,405.1Z" transform="translate(-260.833 -363.935)" fill="#e3a437"/>
            <path id="Tracé_1903" data-name="Tracé 1903" d="M400.754,405.161a3.955,3.955,0,0,1,7.8-.136c.06,1.831-1.66,3.369-3.841,3.406S400.758,406.99,400.754,405.161Z" transform="translate(-265.201 -363.785)" fill="#e3a437"/>
            <path id="Tracé_1904" data-name="Tracé 1904" d="M395.021,405.032a3.956,3.956,0,0,1,7.8.127c0,1.831-1.773,3.311-3.952,3.276S394.962,406.861,395.021,405.032Z" transform="translate(-269.571 -363.783)" fill="#e3a437"/>
            <path id="Tracé_1905" data-name="Tracé 1905" d="M389.295,404.711a3.956,3.956,0,0,1,7.788.389c-.063,1.829-1.882,3.251-4.062,3.142S389.175,406.537,389.295,404.711Z" transform="translate(-273.938 -363.929)" fill="#e3a437"/>
            <path id="Tracé_1906" data-name="Tracé 1906" d="M383.578,404.2a3.959,3.959,0,0,1,7.776.652c-.125,1.826-1.991,3.184-4.167,3S383.4,406.019,383.578,404.2Z" transform="translate(-278.301 -364.222)" fill="#e3a437"/>
            <path id="Tracé_1907" data-name="Tracé 1907" d="M377.878,403.494a3.962,3.962,0,0,1,7.755.913c-.187,1.822-2.1,3.115-4.268,2.86S377.635,405.307,377.878,403.494Z" transform="translate(-282.653 -364.663)" fill="#e3a437"/>
            <path id="Tracé_1908" data-name="Tracé 1908" d="M372.2,402.6a3.967,3.967,0,0,1,7.729,1.175c-.248,1.813-2.2,3.043-4.366,2.714S371.893,404.4,372.2,402.6Z" transform="translate(-286.993 -365.251)" fill="#e3a437"/>
            <path id="Tracé_1909" data-name="Tracé 1909" d="M366.543,401.507a3.974,3.974,0,0,1,7.695,1.438c-.308,1.8-2.308,2.967-4.46,2.566S366.179,403.3,366.543,401.507Z" transform="translate(-291.315 -365.986)" fill="#e3a437"/>
            <path id="Tracé_1910" data-name="Tracé 1910" d="M360.919,400.227a3.981,3.981,0,0,1,7.655,1.7c-.368,1.792-2.409,2.886-4.55,2.411S360.494,402.006,360.919,400.227Z" transform="translate(-295.617 -366.87)" fill="#e3a437"/>
            <path id="Tracé_1911" data-name="Tracé 1911" d="M355.33,398.753a3.991,3.991,0,0,1,7.609,1.961c-.43,1.78-2.509,2.8-4.636,2.254S354.846,400.517,355.33,398.753Z" transform="translate(-299.894 -367.901)" fill="#e3a437"/>
            <path id="Tracé_1912" data-name="Tracé 1912" d="M430.234,408.124c-.31-1.8,1.195-3.568,3.359-3.975s4.208.693,4.574,2.486-1.133,3.612-3.352,4.028S430.544,409.928,430.234,408.124Z" transform="translate(-242.765 -362.062)" fill="#e3a437"/>
            <path id="Tracé_1913" data-name="Tracé 1913" d="M436.071,407.069c-.372-1.792,1.077-3.609,3.228-4.088s4.234.548,4.663,2.33-1.013,3.647-3.219,4.141S436.441,408.861,436.071,407.069Z" transform="translate(-238.33 -362.978)" fill="#e3a437"/>
            <path id="Tracé_1914" data-name="Tracé 1914" d="M441.878,405.816c-.432-1.778.957-3.642,3.1-4.2s4.259.4,4.745,2.167-.892,3.683-3.084,4.25S442.31,407.6,441.878,405.816Z" transform="translate(-233.92 -364.046)" fill="#e3a437"/>
            <path id="Tracé_1915" data-name="Tracé 1915" d="M447.65,404.366c-.492-1.764.837-3.676,2.96-4.3s4.28.254,4.826,2-.772,3.713-2.95,4.356S448.142,406.128,447.65,404.366Z" transform="translate(-229.539 -365.265)" fill="#e3a437"/>
            <path id="Tracé_1916" data-name="Tracé 1916" d="M424.371,408.982c-.248-1.813,1.313-3.528,3.486-3.861s4.176.835,4.481,2.641-1.249,3.572-3.478,3.912S424.62,410.8,424.371,408.982Z" transform="translate(-247.222 -361.3)" fill="#e3a437"/>
            <path id="Tracé_1917" data-name="Tracé 1917" d="M418.49,409.642c-.189-1.822,1.429-3.482,3.609-3.741s4.143.976,4.386,2.791-1.367,3.526-3.6,3.792S418.678,411.462,418.49,409.642Z" transform="translate(-251.696 -360.689)" fill="#e3a437"/>
            <path id="Tracé_1918" data-name="Tracé 1918" d="M412.593,410.1c-.127-1.827,1.544-3.431,3.73-3.616s4.1,1.115,4.285,2.936-1.485,3.48-3.727,3.669S412.72,411.928,412.593,410.1Z" transform="translate(-256.183 -360.23)" fill="#e3a437"/>
            <path id="Tracé_1919" data-name="Tracé 1919" d="M406.687,410.366c-.065-1.831,1.658-3.376,3.847-3.489s4.062,1.253,4.183,3.08-1.6,3.427-3.845,3.54S406.752,412.195,406.687,410.366Z" transform="translate(-260.68 -359.924)" fill="#e3a437"/>
            <path id="Tracé_1920" data-name="Tracé 1920" d="M400.776,410.432c0-1.831,1.771-3.32,3.961-3.359s4.016,1.389,4.076,3.219-1.713,3.371-3.961,3.41S400.78,412.261,400.776,410.432Z" transform="translate(-265.184 -359.77)" fill="#e3a437"/>
            <path id="Tracé_1921" data-name="Tracé 1921" d="M394.867,410.3c.058-1.831,1.88-3.258,4.072-3.223s3.966,1.522,3.965,3.353-1.826,3.313-4.074,3.274S394.808,412.126,394.867,410.3Z" transform="translate(-269.688 -359.767)" fill="#e3a437"/>
            <path id="Tracé_1922" data-name="Tracé 1922" d="M388.963,409.968c.12-1.827,1.989-3.193,4.18-3.084s3.914,1.655,3.85,3.485-1.937,3.247-4.181,3.135S388.843,411.794,388.963,409.968Z" transform="translate(-274.191 -359.918)" fill="#e3a437"/>
            <path id="Tracé_1923" data-name="Tracé 1923" d="M383.069,409.439c.182-1.822,2.1-3.122,4.284-2.941s3.859,1.787,3.734,3.614-2.046,3.181-4.287,2.992S382.889,411.261,383.069,409.439Z" transform="translate(-278.688 -360.22)" fill="#e3a437"/>
            <path id="Tracé_1924" data-name="Tracé 1924" d="M377.193,408.713c.241-1.815,2.2-3.05,4.382-2.795s3.8,1.915,3.612,3.737-2.152,3.11-4.388,2.846S376.949,410.526,377.193,408.713Z" transform="translate(-283.175 -360.675)" fill="#e3a437"/>
            <path id="Tracé_1925" data-name="Tracé 1925" d="M371.336,407.789c.3-1.806,2.307-2.974,4.479-2.645s3.736,2.044,3.489,3.857-2.257,3.036-4.486,2.7S371.033,409.593,371.336,407.789Z" transform="translate(-287.648 -361.282)" fill="#e3a437"/>
            <path id="Tracé_1926" data-name="Tracé 1926" d="M365.507,406.666c.365-1.794,2.409-2.893,4.573-2.49s3.669,2.169,3.36,3.973-2.361,2.957-4.58,2.543S365.142,408.46,365.507,406.666Z" transform="translate(-292.104 -362.041)" fill="#e3a437"/>
            <path id="Tracé_1927" data-name="Tracé 1927" d="M359.708,405.346c.425-1.781,2.509-2.811,4.661-2.333s3.6,2.292,3.232,4.086-2.462,2.876-4.67,2.384S359.283,407.126,359.708,405.346Z" transform="translate(-296.538 -362.952)" fill="#e3a437"/>
            <path id="Tracé_1928" data-name="Tracé 1928" d="M353.947,403.828c.485-1.766,2.6-2.722,4.743-2.171s3.528,2.414,3.1,4.194-2.56,2.791-4.754,2.224S353.461,405.592,353.947,403.828Z" transform="translate(-300.946 -364.015)" fill="#e3a437"/>
            <path id="Tracé_1929" data-name="Tracé 1929" d="M348.226,402.112c.544-1.748,2.7-2.631,4.825-2.007s3.452,2.537,2.962,4.3-2.657,2.7-4.835,2.058S347.682,403.86,348.226,402.112Z" transform="translate(-305.325 -365.232)" fill="#e3a437"/>
            <path id="Tracé_1930" data-name="Tracé 1930" d="M431.138,413.328c-.31-1.8,1.249-3.579,3.478-4s4.326.67,4.692,2.463-1.186,3.623-3.47,4.053S431.448,415.132,431.138,413.328Z" transform="translate(-242.075 -358.118)" fill="#e3a437"/>
            <path id="Tracé_1931" data-name="Tracé 1931" d="M437.15,412.241c-.372-1.792,1.13-3.619,3.346-4.115s4.354.522,4.781,2.3-1.066,3.662-3.337,4.167S437.521,414.033,437.15,412.241Z" transform="translate(-237.506 -359.061)" fill="#e3a437"/>
            <path id="Tracé_1932" data-name="Tracé 1932" d="M443.131,410.952c-.432-1.78,1.01-3.656,3.212-4.227s4.379.372,4.865,2.136-.944,3.7-3.2,4.282S443.563,412.732,443.131,410.952Z" transform="translate(-232.963 -360.161)" fill="#e3a437"/>
            <path id="Tracé_1933" data-name="Tracé 1933" d="M449.076,409.459c-.492-1.764.89-3.69,3.077-4.337s4.4.22,4.943,1.966-.823,3.729-3.064,4.391S449.568,411.221,449.076,409.459Z" transform="translate(-228.45 -361.419)" fill="#e3a437"/>
            <path id="Tracé_1934" data-name="Tracé 1934" d="M454.979,407.761c-.552-1.746.767-3.718,2.937-4.441s4.411.065,5.017,1.794-.7,3.755-2.925,4.5S455.529,409.507,454.979,407.761Z" transform="translate(-223.971 -362.833)" fill="#e3a437"/>
            <path id="Tracé_1935" data-name="Tracé 1935" d="M425.1,414.21c-.25-1.815,1.366-3.533,3.6-3.877s4.3.816,4.6,2.62-1.3,3.581-3.6,3.931S425.349,416.023,425.1,414.21Z" transform="translate(-246.665 -357.331)" fill="#e3a437"/>
            <path id="Tracé_1936" data-name="Tracé 1936" d="M419.042,414.888c-.187-1.82,1.484-3.485,3.73-3.753s4.261.962,4.506,2.777-1.422,3.533-3.725,3.806S419.231,416.71,419.042,414.888Z" transform="translate(-251.274 -356.702)" fill="#e3a437"/>
            <path id="Tracé_1937" data-name="Tracé 1937" d="M412.97,415.363c-.127-1.826,1.6-3.434,3.85-3.625s4.222,1.1,4.405,2.925-1.538,3.485-3.847,3.679S413.095,417.188,412.97,415.363Z" transform="translate(-255.896 -356.228)" fill="#e3a437"/>
            <path id="Tracé_1938" data-name="Tracé 1938" d="M406.887,415.634c-.065-1.829,1.711-3.378,3.966-3.494s4.181,1.248,4.3,3.073-1.653,3.431-3.965,3.547S406.95,417.463,406.887,415.634Z" transform="translate(-260.528 -355.913)" fill="#e3a437"/>
            <path id="Tracé_1939" data-name="Tracé 1939" d="M400.8,415.7c0-1.833,1.824-3.32,4.081-3.359s4.137,1.385,4.2,3.216-1.766,3.373-4.081,3.411S400.8,417.531,400.8,415.7Z" transform="translate(-265.166 -355.754)" fill="#e3a437"/>
            <path id="Tracé_1940" data-name="Tracé 1940" d="M394.712,415.565c.058-1.829,1.935-3.255,4.194-3.219s4.086,1.524,4.085,3.355-1.88,3.311-4.194,3.274S394.653,417.394,394.712,415.565Z" transform="translate(-269.806 -355.752)" fill="#e3a437"/>
            <path id="Tracé_1941" data-name="Tracé 1941" d="M388.63,415.224c.12-1.827,2.044-3.189,4.3-3.077s4.035,1.662,3.972,3.491-1.989,3.246-4.3,3.129S388.511,417.05,388.63,415.224Z" transform="translate(-274.444 -355.907)" fill="#e3a437"/>
            <path id="Tracé_1942" data-name="Tracé 1942" d="M382.561,414.681c.181-1.822,2.152-3.119,4.4-2.93s3.977,1.8,3.854,3.621-2.1,3.179-4.407,2.985S382.379,416.5,382.561,414.681Z" transform="translate(-279.075 -356.218)" fill="#e3a437"/>
            <path id="Tracé_1943" data-name="Tracé 1943" d="M376.507,413.932c.241-1.815,2.257-3.043,4.5-2.779s3.919,1.928,3.732,3.75-2.2,3.1-4.508,2.833S376.264,415.747,376.507,413.932Z" transform="translate(-283.697 -356.687)" fill="#e3a437"/>
            <path id="Tracé_1944" data-name="Tracé 1944" d="M370.475,412.981c.3-1.806,2.361-2.966,4.6-2.626s3.855,2.06,3.609,3.875-2.312,3.029-4.606,2.678S370.172,414.786,370.475,412.981Z" transform="translate(-288.304 -357.313)" fill="#e3a437"/>
            <path id="Tracé_1945" data-name="Tracé 1945" d="M364.47,411.827c.365-1.8,2.463-2.885,4.691-2.469s3.789,2.19,3.48,3.995-2.414,2.95-4.7,2.522S364.107,413.619,364.47,411.827Z" transform="translate(-292.893 -358.095)" fill="#e3a437"/>
            <path id="Tracé_1946" data-name="Tracé 1946" d="M358.5,410.467c.425-1.78,2.562-2.8,4.779-2.3s3.72,2.317,3.35,4.111-2.515,2.865-4.788,2.359S358.073,412.248,358.5,410.467Z" transform="translate(-297.459 -359.034)" fill="#e3a437"/>
            <path id="Tracé_1947" data-name="Tracé 1947" d="M352.563,408.9c.485-1.766,2.657-2.707,4.862-2.139s3.646,2.444,3.216,4.224-2.615,2.777-4.872,2.194S352.078,410.669,352.563,408.9Z" transform="translate(-301.998 -360.13)" fill="#e3a437"/>
            <path id="Tracé_1948" data-name="Tracé 1948" d="M346.669,407.139c.544-1.748,2.754-2.617,4.941-1.972s3.57,2.569,3.08,4.333-2.71,2.685-4.951,2.026S346.127,408.885,346.669,407.139Z" transform="translate(-306.509 -361.384)" fill="#e3a437"/>
            <path id="Tracé_1949" data-name="Tracé 1949" d="M340.162,404.93c.61-1.725,2.855-2.506,5.024-1.778s3.48,2.707,2.923,4.451-2.814,2.58-5.036,1.833S339.551,406.656,340.162,404.93Z" transform="translate(-311.492 -362.965)" fill="#e3a437"/>
            <path id="Tracé_1950" data-name="Tracé 1950" d="M432.044,418.531c-.312-1.8,1.3-3.589,3.595-4.019s4.446.647,4.812,2.44-1.239,3.633-3.588,4.074S432.352,420.334,432.044,418.531Z" transform="translate(-241.384 -354.172)" fill="#e3a437"/>
            <path id="Tracé_1951" data-name="Tracé 1951" d="M438.23,417.415c-.372-1.794,1.182-3.632,3.464-4.141s4.472.493,4.9,2.275-1.117,3.674-3.456,4.2S438.6,419.207,438.23,417.415Z" transform="translate(-236.682 -355.144)" fill="#e3a437"/>
            <path id="Tracé_1952" data-name="Tracé 1952" d="M444.384,416.088c-.432-1.78,1.063-3.67,3.33-4.257s4.5.34,4.981,2.106-1,3.711-3.32,4.312S444.816,417.866,444.384,416.088Z" transform="translate(-232.007 -356.277)" fill="#e3a437"/>
            <path id="Tracé_1953" data-name="Tracé 1953" d="M450.5,414.552c-.492-1.762.941-3.7,3.193-4.37s4.513.185,5.059,1.933-.876,3.744-3.181,4.425S450.992,416.315,450.5,414.552Z" transform="translate(-227.362 -357.572)" fill="#e3a437"/>
            <path id="Tracé_1954" data-name="Tracé 1954" d="M456.576,412.806c-.552-1.746.819-3.736,3.054-4.479s4.527.026,5.133,1.755-.752,3.774-3.041,4.534S457.126,414.553,456.576,412.806Z" transform="translate(-222.752 -359.029)" fill="#e3a437"/>
            <path id="Tracé_1955" data-name="Tracé 1955" d="M463.58,410.514c-.62-1.723.677-3.767,2.886-4.6s4.541-.159,5.214,1.544-.61,3.8-2.872,4.657S464.2,412.235,463.58,410.514Z" transform="translate(-217.439 -360.927)" fill="#e3a437"/>
            <path id="Tracé_1956" data-name="Tracé 1956" d="M425.83,419.438c-.248-1.813,1.42-3.542,3.725-3.894s4.416.8,4.721,2.6-1.357,3.589-3.718,3.951S426.08,421.251,425.83,419.438Z" transform="translate(-246.109 -353.363)" fill="#e3a437"/>
            <path id="Tracé_1957" data-name="Tracé 1957" d="M419.6,420.135c-.189-1.82,1.537-3.491,3.848-3.766s4.382.944,4.626,2.759-1.475,3.542-3.843,3.822S419.783,421.956,419.6,420.135Z" transform="translate(-250.852 -352.714)" fill="#e3a437"/>
            <path id="Tracé_1958" data-name="Tracé 1958" d="M413.346,420.625c-.125-1.827,1.653-3.438,3.972-3.635s4.344,1.093,4.525,2.915-1.591,3.489-3.967,3.69S413.473,422.45,413.346,420.625Z" transform="translate(-255.609 -352.227)" fill="#e3a437"/>
            <path id="Tracé_1959" data-name="Tracé 1959" d="M407.086,420.9c-.063-1.829,1.767-3.38,4.088-3.5s4.3,1.239,4.425,3.064-1.707,3.434-4.086,3.556S407.151,422.731,407.086,420.9Z" transform="translate(-260.376 -351.902)" fill="#e3a437"/>
            <path id="Tracé_1960" data-name="Tracé 1960" d="M400.821,420.971c0-1.831,1.878-3.318,4.2-3.359s4.257,1.383,4.317,3.212-1.822,3.374-4.2,3.415S400.825,422.8,400.821,420.971Z" transform="translate(-265.149 -351.738)" fill="#e3a437"/>
            <path id="Tracé_1961" data-name="Tracé 1961" d="M394.557,420.832c.058-1.829,1.989-3.255,4.314-3.218s4.208,1.526,4.206,3.357-1.933,3.311-4.314,3.272S394.5,422.661,394.557,420.832Z" transform="translate(-269.924 -351.737)" fill="#e3a437"/>
            <path id="Tracé_1962" data-name="Tracé 1962" d="M388.3,420.482c.12-1.827,2.1-3.186,4.421-3.07s4.153,1.665,4.092,3.494-2.044,3.246-4.423,3.126S388.179,422.307,388.3,420.482Z" transform="translate(-274.697 -351.895)" fill="#e3a437"/>
            <path id="Tracé_1963" data-name="Tracé 1963" d="M382.052,419.922c.182-1.822,2.206-3.114,4.525-2.92s4.1,1.8,3.972,3.632-2.152,3.174-4.527,2.974S381.87,421.744,382.052,419.922Z" transform="translate(-279.463 -352.217)" fill="#e3a437"/>
            <path id="Tracé_1964" data-name="Tracé 1964" d="M375.822,419.153c.241-1.817,2.31-3.038,4.624-2.765s4.037,1.942,3.852,3.762-2.261,3.1-4.629,2.821S375.579,420.966,375.822,419.153Z" transform="translate(-284.219 -352.699)" fill="#e3a437"/>
            <path id="Tracé_1965" data-name="Tracé 1965" d="M369.615,418.175c.3-1.806,2.412-2.957,4.717-2.608s3.975,2.077,3.727,3.892-2.363,3.022-4.724,2.661S369.31,419.979,369.615,418.175Z" transform="translate(-288.959 -353.344)" fill="#e3a437"/>
            <path id="Tracé_1966" data-name="Tracé 1966" d="M363.434,416.986c.363-1.8,2.515-2.872,4.809-2.444s3.908,2.21,3.6,4.016-2.469,2.939-4.818,2.5S363.07,418.778,363.434,416.986Z" transform="translate(-293.681 -354.149)" fill="#e3a437"/>
            <path id="Tracé_1967" data-name="Tracé 1967" d="M357.287,415.589c.425-1.782,2.613-2.786,4.9-2.28s3.838,2.344,3.47,4.137-2.569,2.855-4.906,2.335S356.863,417.368,357.287,415.589Z" transform="translate(-298.38 -355.117)" fill="#e3a437"/>
            <path id="Tracé_1968" data-name="Tracé 1968" d="M351.179,413.981c.485-1.766,2.71-2.694,4.978-2.111s3.764,2.476,3.334,4.255-2.666,2.765-4.988,2.164S350.694,415.745,351.179,413.981Z" transform="translate(-303.051 -356.246)" fill="#e3a437"/>
            <path id="Tracé_1969" data-name="Tracé 1969" d="M345.114,412.164c.544-1.748,2.805-2.6,5.057-1.937s3.686,2.6,3.2,4.368-2.763,2.671-5.07,1.991S344.57,413.912,345.114,412.164Z" transform="translate(-307.692 -357.537)" fill="#e3a437"/>
            <path id="Tracé_1970" data-name="Tracé 1970" d="M338.415,409.892c.61-1.725,2.908-2.488,5.138-1.739s3.6,2.745,3.041,4.49-2.867,2.564-5.152,1.794S337.806,411.617,338.415,409.892Z" transform="translate(-312.82 -359.165)" fill="#e3a437"/>
            <path id="Tracé_1971" data-name="Tracé 1971" d="M331.6,407.286c.677-1.7,3.008-2.372,5.218-1.531s3.5,2.888,2.876,4.61-2.971,2.446-5.232,1.586S330.919,408.984,331.6,407.286Z" transform="translate(-318.044 -361.05)" fill="#e3a437"/>
            <path id="Tracé_1972" data-name="Tracé 1972" d="M432.948,423.735c-.31-1.806,1.355-3.6,3.714-4.042s4.566.624,4.93,2.418-1.292,3.644-3.706,4.1S433.258,425.538,432.948,423.735Z" transform="translate(-240.694 -350.228)" fill="#e3a437"/>
            <path id="Tracé_1973" data-name="Tracé 1973" d="M439.309,422.587c-.37-1.794,1.235-3.642,3.584-4.166s4.59.467,5.017,2.247-1.172,3.688-3.573,4.222S439.679,424.379,439.309,422.587Z" transform="translate(-235.858 -351.227)" fill="#e3a437"/>
            <path id="Tracé_1974" data-name="Tracé 1974" d="M445.637,421.223c-.432-1.778,1.115-3.681,3.448-4.285s4.613.308,5.1,2.074-1.048,3.725-3.436,4.344S446.069,423,445.637,421.223Z" transform="translate(-231.05 -352.394)" fill="#e3a437"/>
            <path id="Tracé_1975" data-name="Tracé 1975" d="M451.927,419.646c-.492-1.764,1-3.72,3.311-4.405s4.629.15,5.175,1.9-.927,3.76-3.3,4.46S452.418,421.409,451.927,419.646Z" transform="translate(-226.274 -353.726)" fill="#e3a437"/>
            <path id="Tracé_1976" data-name="Tracé 1976" d="M458.172,417.852c-.552-1.746.872-3.751,3.17-4.518s4.643-.012,5.247,1.716-.8,3.792-3.154,4.574S458.724,419.6,458.172,417.852Z" transform="translate(-221.533 -355.225)" fill="#e3a437"/>
            <path id="Tracé_1977" data-name="Tracé 1977" d="M464.368,415.843c-.61-1.727.749-3.781,3.026-4.627s4.654-.176,5.316,1.531-.678,3.818-3.01,4.684S464.978,417.568,464.368,415.843Z" transform="translate(-216.832 -356.89)" fill="#e3a437"/>
            <path id="Tracé_1978" data-name="Tracé 1978" d="M471.506,413.235c-.678-1.7.6-3.811,2.855-4.749s4.657-.368,5.389,1.311-.534,3.847-2.837,4.807S472.184,414.935,471.506,413.235Z" transform="translate(-211.42 -359.036)" fill="#e3a437"/>
            <path id="Tracé_1979" data-name="Tracé 1979" d="M426.559,424.668c-.248-1.815,1.473-3.549,3.843-3.914s4.536.779,4.84,2.583-1.411,3.6-3.836,3.97S426.81,426.481,426.559,424.668Z" transform="translate(-245.553 -349.394)" fill="#e3a437"/>
            <path id="Tracé_1980" data-name="Tracé 1980" d="M420.149,425.383c-.187-1.82,1.591-3.5,3.97-3.78s4.5.93,4.745,2.745-1.529,3.549-3.965,3.838S420.337,427.2,420.149,425.383Z" transform="translate(-250.43 -348.727)" fill="#e3a437"/>
            <path id="Tracé_1981" data-name="Tracé 1981" d="M413.723,425.885c-.127-1.827,1.706-3.441,4.092-3.644s4.463,1.082,4.645,2.9-1.646,3.494-4.086,3.7S413.85,427.711,413.723,425.885Z" transform="translate(-255.322 -348.226)" fill="#e3a437"/>
            <path id="Tracé_1982" data-name="Tracé 1982" d="M407.286,426.172c-.065-1.831,1.82-3.383,4.208-3.5s4.423,1.232,4.544,3.059-1.76,3.436-4.206,3.561S407.351,428,407.286,426.172Z" transform="translate(-260.224 -347.891)" fill="#e3a437"/>
            <path id="Tracé_1983" data-name="Tracé 1983" d="M400.844,426.242c0-1.831,1.931-3.318,4.322-3.36s4.377,1.38,4.437,3.211-1.875,3.376-4.322,3.417S400.848,428.073,400.844,426.242Z" transform="translate(-265.132 -347.723)" fill="#e3a437"/>
            <path id="Tracé_1984" data-name="Tracé 1984" d="M394.4,426.1c.058-1.831,2.042-3.253,4.433-3.214s4.328,1.526,4.326,3.357-1.988,3.311-4.435,3.27S394.344,427.927,394.4,426.1Z" transform="translate(-270.042 -347.72)" fill="#e3a437"/>
            <path id="Tracé_1985" data-name="Tracé 1985" d="M387.966,425.738c.12-1.827,2.153-3.181,4.541-3.063s4.277,1.672,4.213,3.5-2.1,3.242-4.544,3.119S387.848,427.565,387.966,425.738Z" transform="translate(-274.95 -347.885)" fill="#e3a437"/>
            <path id="Tracé_1986" data-name="Tracé 1986" d="M381.543,425.162c.181-1.822,2.259-3.107,4.643-2.908s4.218,1.813,4.093,3.641-2.206,3.17-4.647,2.966S381.362,426.984,381.543,425.162Z" transform="translate(-279.85 -348.215)" fill="#e3a437"/>
            <path id="Tracé_1987" data-name="Tracé 1987" d="M375.137,424.373c.241-1.815,2.365-3.029,4.743-2.751s4.157,1.956,3.972,3.778-2.314,3.092-4.749,2.805S374.9,426.186,375.137,424.373Z" transform="translate(-284.74 -348.712)" fill="#e3a437"/>
            <path id="Tracé_1988" data-name="Tracé 1988" d="M368.753,423.367c.3-1.806,2.467-2.948,4.837-2.589s4.1,2.1,3.847,3.91-2.418,3.013-4.844,2.643S368.45,425.172,368.753,423.367Z" transform="translate(-289.615 -349.375)" fill="#e3a437"/>
            <path id="Tracé_1989" data-name="Tracé 1989" d="M362.4,422.145c.365-1.794,2.567-2.862,4.929-2.421s4.026,2.233,3.718,4.037-2.522,2.93-4.936,2.479S362.033,423.939,362.4,422.145Z" transform="translate(-294.47 -350.204)" fill="#e3a437"/>
            <path id="Tracé_1990" data-name="Tracé 1990" d="M356.077,420.709c.425-1.781,2.666-2.773,5.015-2.252s3.956,2.368,3.586,4.162-2.622,2.844-5.024,2.308S355.652,422.489,356.077,420.709Z" transform="translate(-299.301 -351.199)" fill="#e3a437"/>
            <path id="Tracé_1991" data-name="Tracé 1991" d="M349.795,419.057c.485-1.766,2.763-2.68,5.1-2.078s3.882,2.5,3.452,4.282-2.719,2.752-5.106,2.136S349.31,420.82,349.795,419.057Z" transform="translate(-304.104 -352.361)" fill="#e3a437"/>
            <path id="Tracé_1992" data-name="Tracé 1992" d="M343.558,417.19c.544-1.748,2.856-2.583,5.173-1.9s3.8,2.636,3.315,4.4-2.816,2.657-5.188,1.958S343.013,418.936,343.558,417.19Z" transform="translate(-308.875 -353.689)" fill="#e3a437"/>
            <path id="Tracé_1993" data-name="Tracé 1993" d="M336.669,414.855c.611-1.725,2.959-2.47,5.255-1.7s3.713,2.782,3.158,4.527-2.92,2.546-5.269,1.757S336.059,416.58,336.669,414.855Z" transform="translate(-314.148 -355.365)" fill="#e3a437"/>
            <path id="Tracé_1994" data-name="Tracé 1994" d="M330.981,412.706c.664-1.706,3.041-2.374,5.318-1.528s3.633,2.9,3.022,4.629-3,2.451-5.332,1.584S330.316,414.412,330.981,412.706Z" transform="translate(-318.504 -356.92)" fill="#e3a437"/>
            <path id="Tracé_1995" data-name="Tracé 1995" d="M324.034,409.8c.731-1.679,3.14-2.25,5.39-1.311s3.531,3.048,2.855,4.749-3.1,2.329-5.408,1.367S323.3,411.475,324.034,409.8Z" transform="translate(-323.826 -359.036)" fill="#e3a437"/>
          </g>
          <g id="Groupe_259" data-name="Groupe 259" transform="translate(0 194.048)">
            <g id="Groupe_258" data-name="Groupe 258">
              <path id="Tracé_1996" data-name="Tracé 1996" d="M338.453,495.931c0,.12-.238.238-.358.238-.03,0-.06-.028-.09-.058l-1.318-3.024a.909.909,0,0,0-.6-.6,21.85,21.85,0,0,0-3.651-.479c-.088,1.766-.21,6.823-.27,8.41-.03,1.676-.118,7.27-.118,8.467,0,.3.118.359.328.389l1.5.27c.092,0,.15.18.15.359,0,.06,0,.09-.09.09-.657-.03-2.3-.06-4.039-.06-1.586,0-3.052.03-3.711.06-.09,0-.09-.03-.09-.06,0-.15.06-.389.15-.389l1.526-.3c.21-.028.24-.12.24-.418.028-1.2-.09-7.122-.122-8.53,0-1.2-.118-6.763-.15-8.289a24.714,24.714,0,0,0-3.589.449,1.039,1.039,0,0,0-.659.627l-1.376,2.994c-.03.06-.06.088-.12.088-.09,0-.359-.15-.359-.238l.3-4.4a.19.19,0,0,1,.21-.211c.238,0,.809.03,2.035.09,1.256.032,3.142.09,5.956.09,2.723,0,4.608-.03,5.864-.09,1.258-.028,1.885-.06,2.1-.06.12,0,.18.06.18.21Z" transform="translate(-321.636 -489.612)" fill="#f3525d"/>
              <path id="Tracé_1997" data-name="Tracé 1997" d="M343.809,500.006a.9.9,0,0,1-.6.839c-1.108.359-6.525.359-7.931.238a9.92,9.92,0,0,0,.15,2.037,4.3,4.3,0,0,0,3.921,3.651,9.674,9.674,0,0,0,2-.21,11.3,11.3,0,0,0,2.187-.779c.06-.03.15.15.15.359,0,.09-.062.12-.122.18a15.811,15.811,0,0,1-3.441,1.5,8.065,8.065,0,0,1-2.633.3c-3.771,0-6.555-1.766-6.555-6.164,0-4.04,2.934-7.931,7.182-7.931a5.717,5.717,0,0,1,5.686,5.956Zm-6.224-5.387c-1.167,0-2.365,1.766-2.3,5.926a14.582,14.582,0,0,0,3.861-.18c.24-.12.419-.328.419-.959,0-1.616-.36-4.816-1.945-4.816Z" transform="translate(-314.545 -487.554)" fill="#f3525d"/>
              <path id="Tracé_1998" data-name="Tracé 1998" d="M339.429,502.1a7.848,7.848,0,0,1,3.024-6.2,8.848,8.848,0,0,1,5.746-1.885,6.891,6.891,0,0,1,2.574.36c.09.028.148.118.148.268l.18,3.233c0,.09-.27.24-.36.24-.06,0-.088,0-.118-.06-.449-.869-.929-1.827-1.348-2.544a1.542,1.542,0,0,0-.537-.629,1.733,1.733,0,0,0-1.048-.27c-1.077,0-2.065.869-2.872,2.6a10.314,10.314,0,0,0-.9,4.43c0,3.5,1.826,5.147,4.011,5.147a7.356,7.356,0,0,0,1.526-.18,8.023,8.023,0,0,0,1.975-.689c.06-.03.15.09.15.269,0,.12-.03.21-.12.238a15.168,15.168,0,0,1-2.994,1.378,6.853,6.853,0,0,1-2.483.3c-3.651,0-6.555-1.588-6.555-5.986Z" transform="translate(-308.076 -487.554)" fill="#f3525d"/>
              <path id="Tracé_1999" data-name="Tracé 1999" d="M353.009,490.356c.178-.032.238.088.238.268,0,.24-.329,10.056-.419,12.419,0,.27-.028.629-.058.987h.148a8.319,8.319,0,0,1,.3-.9c.837-2.337,3.112-6.315,6.194-6.315,2.425,0,3.593,2.425,3.593,6.315,0,2.633-.24,5.207-.33,6.224-.032.478.03.6.24.657l1.436.3c.058,0,.15.18.15.359,0,.03-.03.06-.092.06-.538-.03-1.824-.06-3.56-.06-1.766,0-3.142.03-3.771.06-.09,0-.09-.03-.09-.06,0-.12.03-.359.12-.359l1.5-.27c.24-.03.3-.148.33-.419.09-.777.15-2.513.15-4.368,0-2.844-.389-5.656-1.975-5.656-1.676,0-3.381,2.962-4.1,6.553a25.953,25.953,0,0,0-.271,3.5c0,.268.122.328.33.358l1.468.3c.058,0,.15.18.15.329,0,.06,0,.09-.092.09-.627-.03-2.155-.06-3.831-.06-1.644,0-2.992.03-3.47.06-.09,0-.09-.03-.09-.09,0-.12.09-.329.15-.329l1.436-.33c.18-.028.208-.12.24-.359.028-.807-.032-7.062-.032-8.766,0-1.316-.09-7.871-.118-8.978,0-.27-.06-.389-.331-.419l-1.824-.09c-.092,0-.18-.18-.18-.359,0-.03,0-.09.088-.09Z" transform="translate(-302.654 -490.351)" fill="#f3525d"/>
              <path id="Tracé_2000" data-name="Tracé 2000" d="M368.8,491.39c1.045,0,1.854.028,2.511.058a.312.312,0,0,1,.241.12c.957,3.232,4.039,13.558,5.237,17.239a.63.63,0,0,0,.389.388l1.1.3c.092.03.15.18.15.389,0,.03-.028.06-.088.06-.629,0-2.065-.06-3.561-.06-1.676,0-3.292.03-4.1.06-.09,0-.09-.03-.09-.06,0-.18.09-.389.18-.418l1.618-.271c.238-.028.268-.238.208-.478-.33-.989-1.436-3.862-1.766-4.879-1.346.03-4.818.122-6.373.24-.09,0-.18.09-.21.24-.18.869-.747,3.292-.929,4.368-.028.359.09.449.3.509l1.556.3c.092,0,.181.21.181.389,0,.06-.032.06-.09.06-.749-.03-1.947-.06-3.142-.06-1.02,0-1.915.03-2.514.06-.06,0-.06-.03-.06-.09,0-.09.06-.359.15-.388l.747-.242c.24-.058.389-.18.539-.539,1.466-3.591,4.578-12.777,5.924-16.428.271-.717.659-.867,1.855-.867Zm-1.616,2.363a9.824,9.824,0,0,0-.3,1.019c-.749,2.483-1.707,5.954-2.275,8.019a.163.163,0,0,0,.15.21,55.938,55.938,0,0,0,5.864.27c-.508-1.436-2.063-5.776-2.872-8.47-.09-.268-.21-.627-.389-1.047Z" transform="translate(-292.743 -489.559)" fill="#f3525d"/>
              <path id="Tracé_2001" data-name="Tracé 2001" d="M382.119,497.415a.08.08,0,0,1,.092.09c0,.15-.092.479-.18.509l-5.087.358c-.06,1.947-.15,5.119-.182,5.628-.028.957-.058,4.908-.058,5.625.03.271.15.359.358.389l2.634.27c.09,0,.15.24.15.389,0,.03-.03.06-.088.06-1.528-.03-3.233-.06-4.879-.06-1.706,0-3.052.03-3.921.06-.06,0-.06-.03-.06-.06,0-.09.06-.359.15-.359l1.616-.27c.21-.03.3-.148.3-.388,0-1.138-.15-4.52-.178-5.956-.032-1.2-.15-4.758-.15-5.3l-2.337.06c-.06,0-.088-.03-.088-.12a2,2,0,0,1,.118-.539.54.54,0,0,1,.539-.449h1.8c.18-3.531,2.275-7,7.422-7a5.733,5.733,0,0,1,2.395.388.192.192,0,0,1,.15.18l.178,3.232c0,.12-.268.3-.389.3-.028,0-.06-.03-.118-.12-.449-.837-.989-1.914-1.348-2.543a1.5,1.5,0,0,0-.478-.569,1.4,1.4,0,0,0-.839-.268c-1.5,0-2.633,2.243-2.692,6.374Z" transform="translate(-284.617 -490.349)" fill="#f3525d"/>
              <path id="Tracé_2002" data-name="Tracé 2002" d="M383.156,501.174c.06-.329.12-.6.15-.779.689-2.842,2.245-6.374,4.967-6.374a1.661,1.661,0,0,1,.957.238.274.274,0,0,1,.092.211l.208,4.159c0,.12-.268.27-.328.27-.03,0-.06,0-.09-.06-.359-.689-.839-1.5-1.2-2.065a1.061,1.061,0,0,0-.837-.509c-1.646,0-3.052,2.992-3.861,7.064a30.063,30.063,0,0,0-.3,3.531c0,.268.122.328.329.358l2.335.33c.06,0,.15.21.15.3,0,.06,0,.09-.06.09-.839-.03-2.574-.06-4.608-.06-1.766,0-3.323.03-3.681.06-.06,0-.06-.03-.06-.06,0-.15.06-.33.15-.33l1.5-.3a.343.343,0,0,0,.27-.388c0-.779-.062-4.49-.09-5.686-.032-1.286-.06-4.37-.122-5.207,0-.27-.058-.449-.328-.479l-1.348-.09c-.118,0-.178-.24-.178-.359,0-.058,0-.12.088-.12l5.806-.867c.24-.06.3.058.3.27,0,.448-.178,4.338-.3,5.984,0,.27-.028.627-.028.869Z" transform="translate(-279.312 -487.554)" fill="#f3525d"/>
              <path id="Tracé_2003" data-name="Tracé 2003" d="M390.734,496.378a.216.216,0,0,1,.268.238c-.058,1.2-.208,5.329-.238,6.795-.03,1.348-.09,4.668-.09,5.806,0,.268.06.328.27.388l1.5.3c.06,0,.15.21.15.3,0,.06,0,.09-.06.09-.719-.03-2.125-.06-3.743-.06-1.644,0-3.05.03-3.649.06-.09,0-.09-.03-.09-.06,0-.12.06-.3.15-.33l1.406-.33c.21-.058.329-.118.329-.389,0-.657-.09-4.248-.12-5.714-.03-1.226-.12-4.4-.15-5.147-.03-.241-.06-.449-.329-.449l-1.346-.06c-.09,0-.21-.21-.21-.389,0-.03,0-.06.06-.06Zm-2.185-5.447a1.943,1.943,0,0,1,2.035,1.944,2.031,2.031,0,0,1-2.065,2.065,2.012,2.012,0,1,1,0-4.009Z" transform="translate(-273.516 -489.909)" fill="#f3525d"/>
              <path id="Tracé_2004" data-name="Tracé 2004" d="M390.041,502.1a7.842,7.842,0,0,1,3.024-6.2,8.843,8.843,0,0,1,5.744-1.885,6.884,6.884,0,0,1,2.574.36c.09.028.148.118.148.268l.182,3.233c0,.09-.271.24-.36.24-.06,0-.09,0-.12-.06-.449-.869-.929-1.827-1.346-2.544a1.562,1.562,0,0,0-.539-.629,1.73,1.73,0,0,0-1.048-.27c-1.077,0-2.065.869-2.872,2.6a10.313,10.313,0,0,0-.9,4.43c0,3.5,1.826,5.147,4.009,5.147a7.356,7.356,0,0,0,1.526-.18,7.971,7.971,0,0,0,1.975-.689c.06-.03.15.09.15.269,0,.12-.028.21-.12.238a15.1,15.1,0,0,1-2.992,1.378,6.864,6.864,0,0,1-2.484.3c-3.651,0-6.553-1.588-6.553-5.986Z" transform="translate(-269.505 -487.554)" fill="#f3525d"/>
              <path id="Tracé_2005" data-name="Tracé 2005" d="M406.686,499.856a10.868,10.868,0,0,0-.27-1.826c-.359-1.374-1.2-2.513-2.634-2.513a6.6,6.6,0,0,0-4.338,1.973c-.03.032-.062.062-.09.062-.09,0-.329-.36-.18-.509a9.237,9.237,0,0,1,7-3.022c4.009,0,4.64,3.382,4.64,6.4,0,.569-.062,2.273-.122,3.293-.06,1.344-.118,2.661-.118,3.142,0,.208.058.3.3.358l1.258.3a.331.331,0,0,1,.178.3c0,.06-.028.09-.118.09-.359-.03-1.588-.03-2.754-.03-1.018,0-1.646,0-2.153.03-.092,0-.15-.03-.15-.15-.032-.24-.092-1.318-.092-1.975,0-.15-.03-.6-.03-.837l-.088-.06c-.122.238-.271.509-.421.747a5.5,5.5,0,0,1-4.758,2.485,3.834,3.834,0,0,1-3.981-4.011,5.267,5.267,0,0,1,5.6-5.477,4.4,4.4,0,0,1,2.6.777,4.217,4.217,0,0,1,.6.481Zm-2.693,6.733c1.167,0,2.243-1.137,2.811-2.782a3.231,3.231,0,0,0,.21-1.077,2.954,2.954,0,0,0-.268-1.137,3.128,3.128,0,0,0-2.6-2.215c-1.528,0-2.215,1.944-2.215,3.979,0,2.1.837,3.232,2.033,3.232Z" transform="translate(-263.618 -487.554)" fill="#f3525d"/>
              <path id="Tracé_2006" data-name="Tracé 2006" d="M423.958,507.55c.09,0,.15.21.15.33,0,.03,0,.06-.06.06-1.019-.03-2.065-.06-3.8-.06-1.706,0-2.994.03-3.741.06-.06,0-.088-.03-.088-.06,0-.09.058-.33.148-.33l1.436-.33a.418.418,0,0,0,.359-.418c.06-.629.15-2.964.15-4.34,0-2.6-.359-5.626-2.035-5.626-1.436,0-2.9,2.275-3.8,5.926a20.258,20.258,0,0,0-.449,4.069c0,.271.088.359.268.389l1.468.33c.09,0,.148.21.148.33,0,.03-.03.06-.09.06-1.167-.03-2.123-.06-3.741-.06s-2.751.03-3.649.06c-.06,0-.06-.03-.06-.06,0-.12.06-.33.15-.359l1.526-.27c.178-.06.268-.148.268-.419,0-.9-.058-4.4-.058-5.714-.032-1.019-.12-4.368-.15-5.147-.032-.27-.032-.449-.3-.479l-1.316-.09c-.092,0-.182-.21-.182-.359,0-.058,0-.09.09-.09l5.806-.927c.182-.03.24.06.24.238-.03.421-.18,4.22-.24,5.836,0,.3-.028.689-.06,1.019l.15.03c.092-.3.21-.689.27-.839.839-2.664,3.114-6.284,6.046-6.284,2.393,0,3.621,2.243,3.621,6.4,0,2.215-.21,5-.329,6.254-.03.3.03.449.329.509Z" transform="translate(-256.954 -487.556)" fill="#f3525d"/>
              <path id="Tracé_2007" data-name="Tracé 2007" d="M428.958,508.482c.09-.33.21-.659.3-.957,1.077-3.951,2.724-10.236,3.681-14.426.18-.867.3-.927,2.005-1.077a8.559,8.559,0,0,1,1.077-.09.261.261,0,0,1,.27.21c.989,3.681,2.754,11.521,3.681,15.561a6.886,6.886,0,0,0,.27.839h.15c.09-.24.18-.629.24-.869.867-3.739,2.155-10.324,2.812-14.992.03-.331-.058-.509-.268-.539l-1.406-.21c-.122-.03-.181-.268-.181-.418,0-.06,0-.092.06-.092h5.746a.081.081,0,0,1,.09.092c0,.15-.06.358-.15.388l-.657.21a.662.662,0,0,0-.539.537c-.837,2.934-4.13,13.647-5.239,16.46-.21.659-.388.719-2.633.779h-1.2a.32.32,0,0,1-.27-.21c-.927-2.962-2.275-7-2.962-9.7-.122-.388-.271-1.077-.449-1.7h-.18c-.18.657-.419,1.436-.6,2-.659,1.945-2.243,6.673-3.17,8.86-.271.627-.421.687-3.024.747h-.929c-.15,0-.21-.06-.27-.24-.867-2.932-2.962-11.97-4.129-17.177-.06-.21-.15-.36-.359-.389l-.777-.15c-.09-.03-.181-.268-.181-.418a.082.082,0,0,1,.092-.092h8.169c.09,0,.09.032.09.12,0,.122-.09.36-.21.389l-1.5.21a.366.366,0,0,0-.3.449c.478,3.232,1.736,10.862,2.453,14.874.062.238.15.657.211,1.017Z" transform="translate(-246.849 -489.534)" fill="#f3525d"/>
              <path id="Tracé_2008" data-name="Tracé 2008" d="M441.674,508.117c-4.22,0-6.555-2.573-6.555-6.4,0-4.011,2.515-7.692,8.051-7.692,4.7,0,6.673,2.992,6.673,6.553,0,3.951-2.663,7.542-8.141,7.542Zm.927-.569c2.125,0,2.753-2.752,2.753-6.553,0-3.441-.837-6.4-2.871-6.4-1.975,0-2.9,2.633-2.9,6.613,0,3.441,1.077,6.344,2.992,6.344Z" transform="translate(-235.151 -487.554)" fill="#f3525d"/>
              <path id="Tracé_2009" data-name="Tracé 2009" d="M470.939,507.518c.088.03.15.21.15.329,0,.06,0,.09-.09.09-.9-.03-1.915-.06-3.591-.06s-2.964.03-3.681.06c-.09,0-.09-.03-.09-.06,0-.12.06-.33.15-.359l1.346-.33c.18-.028.27-.15.3-.359.088-.777.088-3.41.088-4.248,0-2.932-.478-5.776-2.093-5.776-1.945,0-3.114,3.441-3.531,6.225a33.89,33.89,0,0,0-.27,3.741c0,.24.092.329.33.389l1.616.358c.09.03.15.21.15.329,0,.06,0,.09-.06.09-.957-.03-2.093-.06-3.8-.06s-2.872.03-3.649.06c-.09,0-.09-.03-.09-.09,0-.09.028-.3.15-.329l1.285-.33c.24-.06.3-.15.331-.388.088-.689.058-2.994.058-4.07,0-3.052-.358-5.926-2.065-5.926-1.8,0-3.05,3.112-3.589,6.044-.12.988-.27,2.844-.27,3.981a.31.31,0,0,0,.27.359l1.376.33c.12.03.18.21.18.329,0,.06,0,.09-.09.09-1.258-.03-2.1-.06-3.711-.06-1.556,0-2.423.03-3.411.06-.09,0-.09-.03-.09-.06,0-.12.058-.33.15-.359l1.346-.3c.178-.058.3-.118.3-.389,0-1.316-.06-4.548-.06-5.9-.03-.987-.09-4.248-.18-5.057-.03-.268-.06-.449-.33-.478l-1.286-.06c-.09,0-.181-.18-.181-.358,0-.062,0-.092.122-.122l5.774-.807c.182-.03.21.058.21.208,0,.359-.15,3.8-.268,5.388,0,.24-.06.657-.06.957l.178.06c.09-.359.21-.749.271-.927.807-2.247,2.6-5.716,5.834-5.716,2.183,0,3.381,2.065,3.471,5.3v.869l.12.028c.06-.21.18-.627.27-.9.687-2.005,2.513-5.3,5.716-5.3,2.183,0,3.531,2.093,3.531,6.315,0,2.273-.271,5.535-.33,6.342,0,.331.058.421.3.481Z" transform="translate(-228.152 -487.554)" fill="#f3525d"/>
              <path id="Tracé_2010" data-name="Tracé 2010" d="M473.15,500.006a.9.9,0,0,1-.6.839c-1.108.359-6.525.359-7.931.238a9.928,9.928,0,0,0,.15,2.037,4.3,4.3,0,0,0,3.919,3.651,9.678,9.678,0,0,0,2.005-.21,11.247,11.247,0,0,0,2.185-.779c.062-.03.15.15.15.359,0,.09-.06.12-.12.18a15.891,15.891,0,0,1-3.441,1.5,8.066,8.066,0,0,1-2.633.3c-3.771,0-6.555-1.766-6.555-6.164,0-4.04,2.934-7.931,7.182-7.931a5.717,5.717,0,0,1,5.686,5.956Zm-6.224-5.387c-1.168,0-2.365,1.766-2.3,5.926a14.561,14.561,0,0,0,3.859-.18c.241-.12.421-.328.421-.959,0-1.616-.359-4.816-1.945-4.816Z" transform="translate(-215.976 -487.554)" fill="#f3525d"/>
              <path id="Tracé_2011" data-name="Tracé 2011" d="M485.861,507.55c.09,0,.15.21.15.33,0,.03,0,.06-.06.06-1.017-.03-2.065-.06-3.8-.06-1.707,0-3,.03-3.741.06-.062,0-.09-.03-.09-.06,0-.09.058-.33.15-.33l1.434-.33a.417.417,0,0,0,.359-.418c.062-.629.15-2.964.15-4.34,0-2.6-.36-5.626-2.035-5.626-1.434,0-2.9,2.275-3.8,5.926a20.273,20.273,0,0,0-.449,4.069c0,.271.09.359.268.389l1.468.33c.09,0,.148.21.148.33,0,.03-.028.06-.088.06-1.168-.03-2.125-.06-3.743-.06s-2.751.03-3.649.06c-.06,0-.06-.03-.06-.06,0-.12.06-.33.15-.359l1.526-.27c.18-.06.27-.148.27-.419,0-.9-.06-4.4-.06-5.714-.03-1.019-.12-4.368-.15-5.147-.03-.27-.03-.449-.3-.479l-1.316-.09c-.09,0-.18-.21-.18-.359,0-.058,0-.09.09-.09l5.806-.927c.18-.03.238.06.238.238-.028.421-.178,4.22-.238,5.836,0,.3-.03.689-.062,1.019l.15.03c.092-.3.21-.689.271-.839.837-2.664,3.112-6.284,6.044-6.284,2.395,0,3.621,2.243,3.621,6.4,0,2.215-.21,5-.33,6.254-.03.3.03.449.33.509Z" transform="translate(-209.778 -487.556)" fill="#f3525d"/>
            </g>
          </g>
        </g>
        <g id="Groupe_261" data-name="Groupe 261" transform="translate(66.704 232.005)">
          <path id="Tracé_2012" data-name="Tracé 2012" d="M383.8,519.118c0,.174-.345.347-.52.347-.044,0-.086-.044-.129-.086l-1.9-4.37a1.329,1.329,0,0,0-.867-.865,31.6,31.6,0,0,0-5.277-.691c-.13,2.551-.3,9.863-.389,12.155-.044,2.423-.173,10.513-.173,12.243,0,.432.173.52.474.564l2.164.388c.13,0,.217.261.217.52,0,.086,0,.13-.129.13-.952-.044-3.332-.086-5.841-.086-2.293,0-4.414.042-5.366.086-.129,0-.129-.044-.129-.086,0-.217.086-.564.217-.564l2.206-.432c.3-.042.345-.173.345-.606.044-1.73-.129-10.3-.173-12.329,0-1.73-.173-9.776-.215-11.982a35.643,35.643,0,0,0-5.193.648,1.5,1.5,0,0,0-.952.908l-1.989,4.328c-.044.085-.086.129-.173.129-.13,0-.52-.215-.52-.347l.432-6.358a.274.274,0,0,1,.3-.3c.345,0,1.168.044,2.943.129,1.817.044,4.543.13,8.61.13,3.936,0,6.663-.044,8.477-.13,1.817-.042,2.726-.085,3.029-.085.174,0,.259.085.259.3Z" transform="translate(-359.491 -511.462)" fill="#081d82"/>
          <path id="Tracé_2013" data-name="Tracé 2013" d="M387.7,518.119c-.13,0-.259-.259-.259-.434,0-.086,0-.171.129-.215l7.7-1.082c.217-.042.347.086.347.345-.044,1.6,0,8.22,0,9.951,0,2.033.13,6.879.217,8.005.042.388.13.6.52.691l1.642.432c.13.044.217.389.217.52,0,.044,0,.086-.13.086-1.124-.042-2.509-.042-4.2-.042-1.471,0-2.856,0-3.72.042-.174,0-.261-.129-.261-.432,0-.52-.042-4.111,0-5.755v-1.339h-.217c-.171.474-.259.863-.388,1.122-1.732,4.242-4.284,6.707-7.919,6.707-3.114,0-5.665-2.552-5.665-8.913a78.656,78.656,0,0,1,.6-8.825c.044-.518-.086-.735-.476-.735H374.03c-.173,0-.347-.347-.347-.564,0-.086.044-.128.174-.128l7.658-1.168c.257-.042.345.086.345.389-.042,1.385-.259,6.4-.259,8.479,0,5.926.821,8.523,2.855,8.523,2.6,0,4.759-4.456,5.408-10.3.129-1.124.215-3.5.215-4.326,0-.562-.129-.823-.432-.865Z" transform="translate(-348.675 -508.471)" fill="#081d82"/>
          <path id="Tracé_2014" data-name="Tracé 2014" d="M413.443,535.917c.13,0,.217.3.217.478,0,.042,0,.086-.086.086-1.471-.044-2.985-.086-5.494-.086-2.465,0-4.326.042-5.408.086-.086,0-.13-.044-.13-.086,0-.131.086-.478.215-.478l2.078-.474a.608.608,0,0,0,.52-.606c.086-.909.217-4.284.217-6.273,0-3.764-.52-8.134-2.943-8.134-2.076,0-4.2,3.288-5.494,8.565a29.541,29.541,0,0,0-.648,5.884c0,.389.13.52.389.564l2.12.474c.13,0,.217.3.217.478,0,.042-.044.086-.129.086-1.688-.044-3.073-.086-5.41-.086s-3.981.042-5.277.086c-.086,0-.086-.044-.086-.086,0-.175.086-.478.215-.52l2.206-.389c.261-.086.391-.217.391-.606,0-1.3-.088-6.359-.088-8.262-.042-1.471-.171-6.315-.215-7.441-.042-.388-.042-.648-.433-.691l-1.9-.132c-.129,0-.261-.3-.261-.518,0-.086,0-.13.132-.13l8.391-1.339c.261-.044.347.084.347.345-.044.606-.261,6.1-.347,8.435,0,.434-.042,1-.085,1.471l.215.042c.13-.432.3-.994.389-1.211,1.212-3.85,4.5-9.084,8.738-9.084,3.461,0,5.235,3.242,5.235,9.256,0,3.2-.3,7.224-.476,9.041-.044.434.044.648.476.737Z" transform="translate(-337.597 -508.49)" fill="#081d82"/>
          <path id="Tracé_2015" data-name="Tracé 2015" d="M411.784,519.767a.314.314,0,0,1,.389.345c-.086,1.73-.3,7.7-.345,9.82-.044,1.947-.13,6.749-.13,8.393,0,.388.086.476.389.562l2.164.432c.086,0,.217.3.217.433,0,.086,0,.13-.088.13-1.038-.044-3.071-.086-5.406-.086-2.381,0-4.414.042-5.279.086-.13,0-.13-.044-.13-.086,0-.174.086-.432.217-.478l2.033-.474c.3-.086.476-.174.476-.564,0-.951-.129-6.143-.174-8.262-.042-1.775-.171-6.359-.215-7.441-.042-.345-.086-.648-.476-.648l-1.947-.086c-.13,0-.3-.3-.3-.562,0-.044,0-.086.085-.086Zm-3.158-7.875a2.81,2.81,0,0,1,2.941,2.811,2.937,2.937,0,0,1-2.985,2.987,2.909,2.909,0,1,1,0-5.8Z" transform="translate(-326.199 -511.892)" fill="#081d82"/>
          <path id="Tracé_2016" data-name="Tracé 2016" d="M411.034,523.11c0-3.332,4.414-6.749,10.685-6.749a10.889,10.889,0,0,1,3.938.518c.129.13.215.217.215.389l.389,4.412c0,.174-.389.433-.562.433-.086,0-.13,0-.174-.13-.648-1.08-1.255-2.164-1.9-3.288a3,3,0,0,0-.735-.735,5.573,5.573,0,0,0-2.768-.606c-2.12,0-3.766,1.341-3.766,3.071s1.168,2.64,4.372,3.806c4.065,1.385,6.185,2.814,6.185,5.582,0,4.109-4.5,6.922-11.508,6.922a14.77,14.77,0,0,1-3.892-.52.489.489,0,0,1-.3-.432l-.345-4.5c0-.215.432-.388.56-.388a.174.174,0,0,1,.175.085c.606,1.084,1.255,2.338,1.947,3.42a2.529,2.529,0,0,0,.779.735,5.977,5.977,0,0,0,2.726.648c2.594,0,4.671-1.126,4.671-3.158,0-1.861-1.255-2.768-4.759-3.937-4.282-1.341-5.926-2.943-5.926-5.538Z" transform="translate(-320.342 -508.486)" fill="#081d82"/>
          <path id="Tracé_2017" data-name="Tracé 2017" d="M429.809,519.767a.313.313,0,0,1,.388.345c-.085,1.73-.3,7.7-.345,9.82-.042,1.947-.129,6.749-.129,8.393,0,.388.086.476.389.562l2.162.432c.086,0,.217.3.217.433,0,.086,0,.13-.088.13-1.036-.044-3.071-.086-5.406-.086-2.381,0-4.414.042-5.278.086-.13,0-.13-.044-.13-.086,0-.174.086-.432.217-.478l2.032-.474c.3-.086.478-.174.478-.564,0-.951-.13-6.143-.174-8.262-.042-1.775-.173-6.359-.215-7.441-.044-.345-.088-.648-.477-.648l-1.945-.086c-.13,0-.3-.3-.3-.562,0-.044,0-.086.086-.086Zm-3.158-7.875a2.811,2.811,0,0,1,2.941,2.811,2.937,2.937,0,0,1-2.987,2.987,2.909,2.909,0,1,1,0-5.8Z" transform="translate(-312.464 -511.892)" fill="#081d82"/>
          <path id="Tracé_2018" data-name="Tracé 2018" d="M441.505,524.8a15.514,15.514,0,0,0-.388-2.638c-.52-1.991-1.732-3.635-3.808-3.635s-4.025.909-6.273,2.855c-.042.044-.086.086-.129.086-.13,0-.478-.518-.261-.735a13.353,13.353,0,0,1,10.123-4.368c5.8,0,6.7,4.888,6.7,9.256,0,.823-.086,3.29-.173,4.759-.085,1.947-.173,3.85-.173,4.543,0,.3.088.433.433.52l1.817.432a.478.478,0,0,1,.259.434c0,.086-.044.129-.173.129-.52-.042-2.294-.042-3.981-.042-1.471,0-2.379,0-3.114.042-.132,0-.217-.042-.217-.217-.044-.346-.13-1.9-.13-2.855,0-.217-.042-.865-.042-1.212l-.13-.085c-.173.345-.389.735-.606,1.08a7.957,7.957,0,0,1-6.877,3.591,5.541,5.541,0,0,1-5.755-5.8c0-3.892,2.509-7.915,8.09-7.915a6.6,6.6,0,0,1,4.629,1.815Zm-3.894,9.734c1.688,0,3.246-1.644,4.069-4.023a4.758,4.758,0,0,0,.3-1.558,4.279,4.279,0,0,0-.391-1.646c-.562-1.469-1.9-3.2-3.762-3.2-2.206,0-3.2,2.812-3.2,5.755,0,3.027,1.212,4.671,2.941,4.671Z" transform="translate(-306.813 -508.486)" fill="#081d82"/>
        </g>
      </g>
      <text id="August_10th_2022" data-name="August 10th, 2022" transform="translate(198 5676.363)" fill="#f3525d" font-size="25" font-family="Raleway" font-weight="700"><tspan x="0" y="0">August 10th, 2022</tspan></text>
      <text id="Deadline_to_apply" data-name="Deadline to apply" transform="translate(220 5627.363)" fill="#050f3c" font-size="20" font-family="Raleway" font-weight="700"><tspan x="0" y="0">Deadline to apply</tspan></text>
    </g>
  </g>
</svg>
