<svg xmlns="http://www.w3.org/2000/svg" xmlns:xlink="http://www.w3.org/1999/xlink" width="239" height="142" viewBox="0 0 239 142">
  <defs>
    <clipPath id="clip-Plan_de_travail_22">
      <rect width="239" height="142"/>
    </clipPath>
  </defs>
  <g id="Plan_de_travail_22" data-name="Plan de travail – 22" clip-path="url(#clip-Plan_de_travail_22)">
    <g id="Group_28853" data-name="Group 28853" transform="translate(16.6 23.11)">
      <g id="Group_28799" data-name="Group 28799" transform="translate(0 38.914)">
        <g id="Group_28798" data-name="Group 28798" transform="translate(0 0)">
          <path id="Path_46" data-name="Path 46" d="M504.326,316.639c0,.231-.46.46-.69.46-.057,0-.115-.057-.172-.116l-2.532-5.807a1.765,1.765,0,0,0-1.15-1.15,42,42,0,0,0-7.015-.92c-.172,3.392-.4,13.109-.517,16.157-.057,3.219-.231,13.971-.231,16.272,0,.574.231.689.633.746l2.875.518c.172,0,.288.344.288.689,0,.115,0,.173-.173.173-1.265-.059-4.426-.116-7.761-.116-3.047,0-5.865.057-7.13.116-.172,0-.172-.059-.172-.116,0-.288.115-.746.288-.746l2.932-.576c.4-.057.46-.231.46-.8.059-2.3-.172-13.685-.229-16.386,0-2.3-.231-12.994-.288-15.926a47.534,47.534,0,0,0-6.9.862,2,2,0,0,0-1.265,1.208l-2.644,5.75c-.057.116-.115.173-.229.173-.173,0-.69-.288-.69-.46l.576-8.452a.362.362,0,0,1,.4-.4c.461,0,1.553.057,3.909.173,2.415.057,6.036.172,11.443.172,5.231,0,8.854-.057,11.269-.172,2.415-.059,3.621-.116,4.024-.116.231,0,.345.116.345.4Z" transform="translate(-472.012 -307.79)" fill="#fff"/>
          <path id="Path_47" data-name="Path 47" d="M532.254,308.135c2.013,0,3.565.057,4.83.115a.6.6,0,0,1,.46.231c1.839,6.21,7.761,26.045,10.06,33.118a1.21,1.21,0,0,0,.748.748l2.133.576c.172.057.288.344.288.746,0,.057-.059.116-.173.116-1.208,0-3.967-.116-6.843-.116-3.219,0-6.323.057-7.876.116-.172,0-.172-.059-.172-.116,0-.345.172-.746.345-.8l3.106-.525c.46-.057.517-.46.4-.92-.633-1.9-2.76-7.417-3.392-9.373-2.587.059-9.257.231-12.246.46-.173,0-.345.172-.4.46-.345,1.667-1.438,6.324-1.782,8.4-.059.69.172.862.574.977l2.99.576c.172,0,.345.4.345.746,0,.116-.059.116-.173.116-1.437-.059-3.732-.116-6.038-.116-1.954,0-3.679.057-4.829.116-.115,0-.115-.059-.115-.173,0-.173.115-.689.288-.748l1.437-.46c.46-.115.748-.345,1.034-1.034,2.818-6.9,8.8-24.55,11.385-31.565.517-1.38,1.265-1.667,3.564-1.667Zm-3.1,4.542a19.9,19.9,0,0,0-.576,1.955c-1.438,4.772-3.276,11.441-4.369,15.408a.313.313,0,0,0,.288.4,107.588,107.588,0,0,0,11.269.517c-.977-2.759-3.967-11.1-5.519-16.272-.172-.517-.4-1.208-.746-2.013Z" transform="translate(-486.487 -307.91)" fill="#fff"/>
          <path id="Path_48" data-name="Path 48" d="M582.816,341.083c.173-.632.4-1.265.575-1.839,2.07-7.589,5.233-19.664,7.072-27.713.345-1.667.575-1.782,3.852-2.069a16.426,16.426,0,0,1,2.07-.173.5.5,0,0,1,.517.4c1.9,7.071,5.289,22.135,7.072,29.9a13.173,13.173,0,0,0,.517,1.61h.288c.173-.46.345-1.208.46-1.667,1.667-7.187,4.14-19.836,5.4-28.8q.088-.95-.517-1.034l-2.7-.4c-.231-.057-.345-.517-.345-.8,0-.116,0-.173.115-.173h11.04a.152.152,0,0,1,.172.173c0,.288-.116.689-.288.748l-1.265.4a1.277,1.277,0,0,0-1.036,1.034c-1.609,5.635-7.935,26.217-10.062,31.622-.4,1.265-.748,1.381-5.065,1.5H598.4a.613.613,0,0,1-.517-.4c-1.782-5.691-4.369-13.454-5.693-18.628-.231-.746-.517-2.069-.862-3.276h-.345c-.345,1.265-.8,2.76-1.15,3.852-1.265,3.732-4.312,12.821-6.1,17.019-.517,1.206-.8,1.322-5.806,1.437h-1.79c-.288,0-.4-.115-.517-.46-1.667-5.634-5.693-23-7.935-33-.115-.4-.287-.69-.689-.748l-1.5-.288c-.172-.057-.345-.517-.345-.8a.153.153,0,0,1,.173-.173h15.7c.172,0,.172.057.172.231,0,.231-.172.69-.4.748l-2.875.4a.7.7,0,0,0-.574.862c.92,6.208,3.332,20.87,4.714,28.575.116.46.288,1.265.4,1.955Z" transform="translate(-503.76 -307.967)" fill="#fff"/>
        </g>
      </g>
      <g id="Group_28800" data-name="Group 28800" transform="translate(1.145 0.885)">
        <path id="Path_49" data-name="Path 49" d="M589.39,261.832a1.543,1.543,0,1,1,1.766,1.085A1.466,1.466,0,0,1,589.39,261.832Z" transform="translate(-513.162 -253.586)" fill="#fff"/>
        <path id="Path_50" data-name="Path 50" d="M583.432,262.793a1.541,1.541,0,1,1,1.733,1.144,1.466,1.466,0,0,1-1.733-1.144Z" transform="translate(-511.132 -253.933)" fill="#fff"/>
        <path id="Path_51" data-name="Path 51" d="M577.453,263.556a1.539,1.539,0,1,1,1.686,1.2,1.466,1.466,0,0,1-1.686-1.2Z" transform="translate(-509.094 -254.21)" fill="#fff"/>
        <path id="Path_52" data-name="Path 52" d="M571.457,264.113a1.538,1.538,0,1,1,1.642,1.258,1.466,1.466,0,0,1-1.642-1.258Z" transform="translate(-507.051 -254.418)" fill="#fff"/>
        <path id="Path_53" data-name="Path 53" d="M565.448,264.468a1.537,1.537,0,1,1,1.6,1.313,1.466,1.466,0,0,1-1.6-1.313Z" transform="translate(-505.003 -254.556)" fill="#fff"/>
        <path id="Path_54" data-name="Path 54" d="M559.434,264.627a1.537,1.537,0,1,1,1.553,1.365,1.466,1.466,0,0,1-1.553-1.365Z" transform="translate(-502.953 -254.625)" fill="#fff"/>
        <path id="Path_55" data-name="Path 55" d="M553.417,264.5a1.537,1.537,0,1,1,1.509,1.453A1.539,1.539,0,0,1,553.417,264.5Z" transform="translate(-500.9 -254.556)" fill="#fff"/>
        <path id="Path_56" data-name="Path 56" d="M547.406,264.322a1.537,1.537,0,1,1,1.458,1.466,1.454,1.454,0,0,1-1.458-1.466Z" transform="translate(-498.852 -254.559)" fill="#fff"/>
        <path id="Path_57" data-name="Path 57" d="M541.4,263.789a1.538,1.538,0,1,1,1.409,1.512A1.541,1.541,0,0,1,541.4,263.789Z" transform="translate(-496.804 -254.342)" fill="#fff"/>
        <path id="Path_58" data-name="Path 58" d="M535.416,263.213a1.539,1.539,0,1,1,1.36,1.562A1.466,1.466,0,0,1,535.416,263.213Z" transform="translate(-494.76 -254.215)" fill="#fff"/>
        <path id="Path_59" data-name="Path 59" d="M529.446,262.277a1.541,1.541,0,1,1,1.307,1.613,1.543,1.543,0,0,1-1.307-1.613Z" transform="translate(-492.723 -253.863)" fill="#fff"/>
        <path id="Path_60" data-name="Path 60" d="M523.5,261.216a1.543,1.543,0,1,1,1.254,1.652A1.546,1.546,0,0,1,523.5,261.216Z" transform="translate(-490.693 -253.518)" fill="#fff"/>
        <path id="Path_61" data-name="Path 61" d="M582.616,256.951a1.486,1.486,0,1,1,1.677,1.15,1.427,1.427,0,0,1-1.677-1.15Z" transform="translate(-510.85 -251.929)" fill="#fff"/>
        <path id="Path_62" data-name="Path 62" d="M576.826,257.638a1.485,1.485,0,1,1,1.635,1.206,1.486,1.486,0,0,1-1.635-1.206Z" transform="translate(-508.876 -252.144)" fill="#fff"/>
        <path id="Path_63" data-name="Path 63" d="M571.031,258.175a1.483,1.483,0,1,1,1.593,1.263A1.485,1.485,0,0,1,571.031,258.175Z" transform="translate(-506.902 -252.346)" fill="#fff"/>
        <path id="Path_64" data-name="Path 64" d="M565.221,258.52a1.483,1.483,0,1,1,1.548,1.306A1.485,1.485,0,0,1,565.221,258.52Z" transform="translate(-504.924 -252.479)" fill="#fff"/>
        <path id="Path_65" data-name="Path 65" d="M559.407,258.72a1.482,1.482,0,1,1,1.5,1.366,1.441,1.441,0,0,1-1.5-1.366Z" transform="translate(-502.943 -252.597)" fill="#fff"/>
        <path id="Path_66" data-name="Path 66" d="M553.589,258.625a1.482,1.482,0,1,1,1.456,1.421,1.483,1.483,0,0,1-1.456-1.421Z" transform="translate(-500.96 -252.55)" fill="#fff"/>
        <path id="Path_67" data-name="Path 67" d="M547.776,258.43a1.482,1.482,0,1,1,1.409,1.466A1.441,1.441,0,0,1,547.776,258.43Z" transform="translate(-498.976 -252.532)" fill="#fff"/>
        <path id="Path_68" data-name="Path 68" d="M541.97,257.993a1.483,1.483,0,1,1,1.359,1.51A1.441,1.441,0,0,1,541.97,257.993Z" transform="translate(-496.997 -252.4)" fill="#fff"/>
        <path id="Path_69" data-name="Path 69" d="M536.178,257.309a1.485,1.485,0,1,1,1.309,1.562A1.486,1.486,0,0,1,536.178,257.309Z" transform="translate(-495.02 -252.152)" fill="#fff"/>
        <path id="Path_70" data-name="Path 70" d="M530.4,256.474a1.486,1.486,0,1,1,1.257,1.6A1.489,1.489,0,0,1,530.4,256.474Z" transform="translate(-493.052 -251.88)" fill="#fff"/>
        <path id="Path_71" data-name="Path 71" d="M576.213,251.824a1.433,1.433,0,1,1,1.585,1.213A1.414,1.414,0,0,1,576.213,251.824Z" transform="translate(-508.669 -250.181)" fill="#fff"/>
        <path id="Path_72" data-name="Path 72" d="M570.612,252.344a1.43,1.43,0,1,1,1.542,1.266A1.413,1.413,0,0,1,570.612,252.344Z" transform="translate(-506.762 -250.374)" fill="#fff"/>
        <path id="Path_73" data-name="Path 73" d="M565,252.677a1.43,1.43,0,1,1,1.5,1.317A1.413,1.413,0,0,1,565,252.677Z" transform="translate(-504.849 -250.504)" fill="#fff"/>
        <path id="Path_74" data-name="Path 74" d="M559.381,252.8a1.43,1.43,0,1,1,1.452,1.347,1.43,1.43,0,0,1-1.452-1.347Z" transform="translate(-502.933 -250.545)" fill="#fff"/>
        <path id="Path_75" data-name="Path 75" d="M553.761,252.75a1.43,1.43,0,1,1,1.406,1.395,1.43,1.43,0,0,1-1.406-1.395Z" transform="translate(-501.018 -250.546)" fill="#fff"/>
        <path id="Path_76" data-name="Path 76" d="M548.146,252.514a1.43,1.43,0,1,1,1.357,1.5,1.431,1.431,0,0,1-1.357-1.5Z" transform="translate(-499.103 -250.481)" fill="#fff"/>
        <path id="Path_77" data-name="Path 77" d="M542.537,252.093a1.431,1.431,0,1,1,1.31,1.495A1.432,1.432,0,0,1,542.537,252.093Z" transform="translate(-497.19 -250.356)" fill="#fff"/>
        <path id="Path_78" data-name="Path 78" d="M536.942,251.478A1.433,1.433,0,1,1,538.2,253a1.433,1.433,0,0,1-1.262-1.525Z" transform="translate(-495.281 -250.161)" fill="#fff"/>
        <path id="Path_79" data-name="Path 79" d="M590.3,267.059a1.6,1.6,0,1,1,1.812,1.077A1.5,1.5,0,0,1,590.3,267.059Z" transform="translate(-513.476 -255.384)" fill="#fff"/>
        <path id="Path_80" data-name="Path 80" d="M596.407,265.858a1.6,1.6,0,1,1,1.849,1.014A1.5,1.5,0,0,1,596.407,265.858Z" transform="translate(-515.556 -254.954)" fill="#fff"/>
        <path id="Path_81" data-name="Path 81" d="M584.167,268.048a1.593,1.593,0,1,1,1.771,1.137,1.5,1.5,0,0,1-1.771-1.137Z" transform="translate(-511.385 -255.738)" fill="#fff"/>
        <path id="Path_82" data-name="Path 82" d="M578.011,268.831a1.59,1.59,0,1,1,1.733,1.2,1.5,1.5,0,0,1-1.733-1.2Z" transform="translate(-509.286 -256.023)" fill="#fff"/>
        <path id="Path_83" data-name="Path 83" d="M571.837,269.406a1.589,1.589,0,1,1,1.689,1.254A1.5,1.5,0,0,1,571.837,269.406Z" transform="translate(-507.182 -256.238)" fill="#fff"/>
        <path id="Path_84" data-name="Path 84" d="M565.644,269.67a1.587,1.587,0,1,1,1.644,1.311,1.59,1.59,0,0,1-1.644-1.311Z" transform="translate(-505.067 -256.278)" fill="#fff"/>
        <path id="Path_85" data-name="Path 85" d="M559.458,269.931a1.587,1.587,0,1,1,1.6,1.365A1.5,1.5,0,0,1,559.458,269.931Z" transform="translate(-502.962 -256.452)" fill="#fff"/>
        <path id="Path_86" data-name="Path 86" d="M553.261,269.778a1.587,1.587,0,1,1,1.552,1.415,1.59,1.59,0,0,1-1.552-1.415Z" transform="translate(-500.848 -256.351)" fill="#fff"/>
        <path id="Path_87" data-name="Path 87" d="M547.073,269.524a1.587,1.587,0,1,1,1.5,1.469A1.59,1.59,0,0,1,547.073,269.524Z" transform="translate(-498.737 -256.279)" fill="#fff"/>
        <path id="Path_88" data-name="Path 88" d="M540.893,269.155a1.589,1.589,0,1,1,1.454,1.518A1.5,1.5,0,0,1,540.893,269.155Z" transform="translate(-496.63 -256.243)" fill="#fff"/>
        <path id="Path_89" data-name="Path 89" d="M534.728,268.368a1.59,1.59,0,1,1,1.4,1.566A1.6,1.6,0,0,1,534.728,268.368Z" transform="translate(-494.525 -255.917)" fill="#fff"/>
        <path id="Path_90" data-name="Path 90" d="M528.582,267.487a1.591,1.591,0,1,1,1.351,1.619A1.6,1.6,0,0,1,528.582,267.487Z" transform="translate(-492.428 -255.636)" fill="#fff"/>
        <path id="Path_91" data-name="Path 91" d="M522.461,266.4a1.6,1.6,0,1,1,1.3,1.629A1.6,1.6,0,0,1,522.461,266.4Z" transform="translate(-490.339 -255.285)" fill="#fff"/>
        <path id="Path_92" data-name="Path 92" d="M516.376,265.205a1.6,1.6,0,1,1,1.245,1.7,1.5,1.5,0,0,1-1.245-1.7Z" transform="translate(-488.262 -254.965)" fill="#fff"/>
        <path id="Path_93" data-name="Path 93" d="M591.316,272.865a1.653,1.653,0,1,1,1.866,1.066,1.529,1.529,0,0,1-1.866-1.066Z" transform="translate(-513.824 -257.376)" fill="#fff"/>
        <path id="Path_94" data-name="Path 94" d="M597.617,271.626a1.655,1.655,0,1,1,1.9,1A1.53,1.53,0,0,1,597.617,271.626Z" transform="translate(-515.972 -256.933)" fill="#fff"/>
        <path id="Path_95" data-name="Path 95" d="M603.885,270.174a1.659,1.659,0,1,1,1.934.933,1.533,1.533,0,0,1-1.934-.933Z" transform="translate(-518.107 -256.419)" fill="#fff"/>
        <path id="Path_96" data-name="Path 96" d="M584.984,273.889a1.65,1.65,0,1,1,1.822,1.13,1.529,1.529,0,0,1-1.822-1.13Z" transform="translate(-511.666 -257.743)" fill="#fff"/>
        <path id="Path_97" data-name="Path 97" d="M578.631,274.7a1.647,1.647,0,1,1,1.781,1.19A1.528,1.528,0,0,1,578.631,274.7Z" transform="translate(-509.501 -258.039)" fill="#fff"/>
        <path id="Path_98" data-name="Path 98" d="M572.26,275.291a1.646,1.646,0,1,1,1.733,1.25A1.526,1.526,0,0,1,572.26,275.291Z" transform="translate(-507.328 -258.26)" fill="#fff"/>
        <path id="Path_99" data-name="Path 99" d="M565.876,275.669a1.645,1.645,0,1,1,1.694,1.307,1.526,1.526,0,0,1-1.694-1.307Z" transform="translate(-505.152 -258.408)" fill="#fff"/>
        <path id="Path_100" data-name="Path 100" d="M559.485,275.833a1.645,1.645,0,1,1,1.649,1.364A1.526,1.526,0,0,1,559.485,275.833Z" transform="translate(-502.973 -258.482)" fill="#fff"/>
        <path id="Path_101" data-name="Path 101" d="M553.094,275.781a1.645,1.645,0,1,1,1.6,1.418,1.526,1.526,0,0,1-1.6-1.418Z" transform="translate(-500.792 -258.484)" fill="#fff"/>
        <path id="Path_102" data-name="Path 102" d="M546.7,275.516a1.646,1.646,0,1,1,1.554,1.466A1.526,1.526,0,0,1,546.7,275.516Z" transform="translate(-498.614 -258.413)" fill="#fff"/>
        <path id="Path_103" data-name="Path 103" d="M540.327,274.9a1.646,1.646,0,1,1,1.507,1.52A1.65,1.65,0,0,1,540.327,274.9Z" transform="translate(-496.436 -258.133)" fill="#fff"/>
        <path id="Path_104" data-name="Path 104" d="M533.965,274.334a1.647,1.647,0,1,1,1.454,1.574,1.528,1.528,0,0,1-1.454-1.574Z" transform="translate(-494.266 -258.046)" fill="#fff"/>
        <path id="Path_105" data-name="Path 105" d="M527.625,273.422a1.65,1.65,0,1,1,1.4,1.622A1.529,1.529,0,0,1,527.625,273.422Z" transform="translate(-492.103 -257.752)" fill="#fff"/>
        <path id="Path_106" data-name="Path 106" d="M521.308,272.162a1.653,1.653,0,1,1,1.348,1.667A1.657,1.657,0,0,1,521.308,272.162Z" transform="translate(-489.946 -257.253)" fill="#fff"/>
        <path id="Path_107" data-name="Path 107" d="M515.028,270.952a1.655,1.655,0,1,1,1.294,1.714,1.531,1.531,0,0,1-1.294-1.714Z" transform="translate(-487.803 -256.945)" fill="#fff"/>
        <path id="Path_108" data-name="Path 108" d="M508.782,269.395a1.659,1.659,0,1,1,1.24,1.758A1.534,1.534,0,0,1,508.782,269.395Z" transform="translate(-485.67 -256.432)" fill="#fff"/>
        <path id="Path_109" data-name="Path 109" d="M592.33,278.675a1.713,1.713,0,1,1,1.91,1.058,1.561,1.561,0,0,1-1.91-1.058Z" transform="translate(-514.175 -259.37)" fill="#fff"/>
        <path id="Path_110" data-name="Path 110" d="M598.827,277.4a1.715,1.715,0,1,1,1.947.993A1.562,1.562,0,0,1,598.827,277.4Z" transform="translate(-516.388 -258.914)" fill="#fff"/>
        <path id="Path_111" data-name="Path 111" d="M605.29,275.9a1.719,1.719,0,1,1,1.983.925,1.565,1.565,0,0,1-1.983-.925Z" transform="translate(-518.591 -258.382)" fill="#fff"/>
        <path id="Path_112" data-name="Path 112" d="M611.71,274.176a1.725,1.725,0,1,1,2.017.857,1.567,1.567,0,0,1-2.017-.857Z" transform="translate(-520.778 -257.774)" fill="#fff"/>
        <path id="Path_113" data-name="Path 113" d="M585.8,279.731a1.71,1.71,0,1,1,1.866,1.122A1.561,1.561,0,0,1,585.8,279.731Z" transform="translate(-511.948 -259.751)" fill="#fff"/>
        <path id="Path_114" data-name="Path 114" d="M579.253,280.564a1.707,1.707,0,1,1,1.83,1.185A1.559,1.559,0,0,1,579.253,280.564Z" transform="translate(-509.716 -260.056)" fill="#fff"/>
        <path id="Path_115" data-name="Path 115" d="M572.683,281.176a1.706,1.706,0,1,1,1.789,1.246A1.558,1.558,0,0,1,572.683,281.176Z" transform="translate(-507.476 -260.284)" fill="#fff"/>
        <path id="Path_116" data-name="Path 116" d="M566.1,281.567a1.7,1.7,0,1,1,1.745,1.306A1.557,1.557,0,0,1,566.1,281.567Z" transform="translate(-505.232 -260.436)" fill="#fff"/>
        <path id="Path_117" data-name="Path 117" d="M559.5,281.574a1.7,1.7,0,1,1,1.7,1.362A1.709,1.709,0,0,1,559.5,281.574Z" transform="translate(-502.976 -260.353)" fill="#fff"/>
        <path id="Path_118" data-name="Path 118" d="M552.923,281.682a1.7,1.7,0,1,1,1.653,1.42A1.558,1.558,0,0,1,552.923,281.682Z" transform="translate(-500.736 -260.515)" fill="#fff"/>
        <path id="Path_119" data-name="Path 119" d="M546.338,281.406a1.7,1.7,0,1,1,1.6,1.474,1.558,1.558,0,0,1-1.6-1.474Z" transform="translate(-498.489 -260.44)" fill="#fff"/>
        <path id="Path_120" data-name="Path 120" d="M539.762,280.909a1.706,1.706,0,1,1,1.555,1.527A1.558,1.558,0,0,1,539.762,280.909Z" transform="translate(-496.246 -260.289)" fill="#fff"/>
        <path id="Path_121" data-name="Path 121" d="M533.2,280.19a1.707,1.707,0,1,1,1.5,1.579,1.559,1.559,0,0,1-1.5-1.579Z" transform="translate(-494.008 -260.062)" fill="#fff"/>
        <path id="Path_122" data-name="Path 122" d="M526.665,279.249a1.71,1.71,0,1,1,1.452,1.63A1.561,1.561,0,0,1,526.665,279.249Z" transform="translate(-491.775 -259.761)" fill="#fff"/>
        <path id="Path_123" data-name="Path 123" d="M520.155,278.087a1.713,1.713,0,1,1,1.4,1.678A1.562,1.562,0,0,1,520.155,278.087Z" transform="translate(-489.554 -259.381)" fill="#fff"/>
        <path id="Path_124" data-name="Path 124" d="M513.676,276.539a1.715,1.715,0,1,1,1.343,1.725,1.721,1.721,0,0,1-1.343-1.725Z" transform="translate(-487.342 -258.765)" fill="#fff"/>
        <path id="Path_125" data-name="Path 125" d="M507.238,274.933a1.719,1.719,0,1,1,1.286,1.772A1.725,1.725,0,0,1,507.238,274.933Z" transform="translate(-485.142 -258.234)" fill="#fff"/>
        <path id="Path_126" data-name="Path 126" d="M500.844,273.1a1.725,1.725,0,1,1,1.23,1.814A1.733,1.733,0,0,1,500.844,273.1Z" transform="translate(-482.958 -257.625)" fill="#fff"/>
        <path id="Path_127" data-name="Path 127" d="M593.344,284.485a1.774,1.774,0,1,1,1.959,1.049,1.6,1.6,0,0,1-1.959-1.049Z" transform="translate(-514.524 -261.367)" fill="#fff"/>
        <path id="Path_128" data-name="Path 128" d="M600.042,283.168a1.778,1.778,0,1,1,2,.982,1.6,1.6,0,0,1-2-.982Z" transform="translate(-516.805 -260.896)" fill="#fff"/>
        <path id="Path_129" data-name="Path 129" d="M606.695,281.623a1.782,1.782,0,1,1,2.033.913A1.6,1.6,0,0,1,606.695,281.623Z" transform="translate(-519.074 -260.348)" fill="#fff"/>
        <path id="Path_130" data-name="Path 130" d="M613.309,279.849a1.787,1.787,0,1,1,2.065.842A1.6,1.6,0,0,1,613.309,279.849Z" transform="translate(-521.329 -259.721)" fill="#fff"/>
        <path id="Path_131" data-name="Path 131" d="M619.875,277.847a1.793,1.793,0,1,1,2.1.77A1.6,1.6,0,0,1,619.875,277.847Z" transform="translate(-523.567 -259.016)" fill="#fff"/>
        <path id="Path_132" data-name="Path 132" d="M586.622,285.572a1.771,1.771,0,1,1,1.921,1.116,1.591,1.591,0,0,1-1.921-1.116Z" transform="translate(-512.232 -261.76)" fill="#fff"/>
        <path id="Path_133" data-name="Path 133" d="M579.873,286.432a1.769,1.769,0,1,1,1.881,1.18A1.593,1.593,0,0,1,579.873,286.432Z" transform="translate(-509.93 -262.073)" fill="#fff"/>
        <path id="Path_134" data-name="Path 134" d="M573.107,287.063a1.767,1.767,0,1,1,1.838,1.242A1.59,1.59,0,0,1,573.107,287.063Z" transform="translate(-507.623 -262.308)" fill="#fff"/>
        <path id="Path_135" data-name="Path 135" d="M566.327,287.465a1.766,1.766,0,1,1,1.8,1.3A1.59,1.59,0,0,1,566.327,287.465Z" transform="translate(-505.31 -262.466)" fill="#fff"/>
        <path id="Path_136" data-name="Path 136" d="M559.541,287.642a1.766,1.766,0,1,1,1.75,1.364,1.59,1.59,0,0,1-1.75-1.364Z" transform="translate(-502.995 -262.544)" fill="#fff"/>
        <path id="Path_137" data-name="Path 137" d="M552.754,287.584a1.766,1.766,0,1,1,1.7,1.421A1.59,1.59,0,0,1,552.754,287.584Z" transform="translate(-500.68 -262.547)" fill="#fff"/>
        <path id="Path_138" data-name="Path 138" d="M545.97,287.3a1.766,1.766,0,1,1,1.654,1.477,1.59,1.59,0,0,1-1.654-1.477Z" transform="translate(-498.365 -262.469)" fill="#fff"/>
        <path id="Path_139" data-name="Path 139" d="M539.2,286.787a1.767,1.767,0,1,1,1.6,1.533,1.591,1.591,0,0,1-1.6-1.533Z" transform="translate(-496.054 -262.314)" fill="#fff"/>
        <path id="Path_140" data-name="Path 140" d="M532.441,286.046A1.769,1.769,0,1,1,534,287.632,1.593,1.593,0,0,1,532.441,286.046Z" transform="translate(-493.748 -262.079)" fill="#fff"/>
        <path id="Path_141" data-name="Path 141" d="M525.707,285.078a1.771,1.771,0,1,1,1.5,1.637A1.6,1.6,0,0,1,525.707,285.078Z" transform="translate(-491.45 -261.768)" fill="#fff"/>
        <path id="Path_142" data-name="Path 142" d="M519,283.879a1.774,1.774,0,1,1,1.447,1.689A1.6,1.6,0,0,1,519,283.879Z" transform="translate(-489.161 -261.378)" fill="#fff"/>
        <path id="Path_143" data-name="Path 143" d="M512.331,282.454a1.778,1.778,0,1,1,1.393,1.733A1.6,1.6,0,0,1,512.331,282.454Z" transform="translate(-486.884 -260.91)" fill="#fff"/>
        <path id="Path_144" data-name="Path 144" d="M505.7,280.8a1.782,1.782,0,1,1,1.333,1.783A1.6,1.6,0,0,1,505.7,280.8Z" transform="translate(-484.619 -260.362)" fill="#fff"/>
        <path id="Path_145" data-name="Path 145" d="M499.111,278.723a1.787,1.787,0,1,1,1.279,1.828,1.794,1.794,0,0,1-1.279-1.828Z" transform="translate(-482.368 -259.543)" fill="#fff"/>
        <path id="Path_146" data-name="Path 146" d="M491.834,276.35a1.793,1.793,0,1,1,1.212,1.879,1.8,1.8,0,0,1-1.212-1.879Z" transform="translate(-479.883 -258.754)" fill="#fff"/>
        <path id="Path_147" data-name="Path 147" d="M594.361,290.3a1.838,1.838,0,1,1,2.01,1.04,1.627,1.627,0,0,1-2.01-1.04Z" transform="translate(-514.874 -263.364)" fill="#fff"/>
        <path id="Path_148" data-name="Path 148" d="M601.249,288.941a1.842,1.842,0,1,1,2.046.97A1.63,1.63,0,0,1,601.249,288.941Z" transform="translate(-517.224 -262.88)" fill="#fff"/>
        <path id="Path_149" data-name="Path 149" d="M608.1,287.349a1.846,1.846,0,1,1,2.082.9,1.633,1.633,0,0,1-2.082-.9Z" transform="translate(-519.559 -262.313)" fill="#fff"/>
        <path id="Path_150" data-name="Path 150" d="M614.908,285.524a1.851,1.851,0,1,1,2.114.829A1.635,1.635,0,0,1,614.908,285.524Z" transform="translate(-521.88 -261.667)" fill="#fff"/>
        <path id="Path_151" data-name="Path 151" d="M621.666,283.463a1.858,1.858,0,1,1,2.146.754,1.638,1.638,0,0,1-2.146-.754Z" transform="translate(-524.185 -260.942)" fill="#fff"/>
        <path id="Path_152" data-name="Path 152" d="M629.458,280.769a1.866,1.866,0,1,1,2.181.666A1.644,1.644,0,0,1,629.458,280.769Z" transform="translate(-526.841 -259.995)" fill="#fff"/>
        <path id="Path_153" data-name="Path 153" d="M587.406,291.191a1.842,1.842,0,0,1,3.52-.533c.133.752-.566,1.5-1.55,1.647a1.613,1.613,0,0,1-1.97-1.114Z" transform="translate(-512.479 -263.544)" fill="#fff"/>
        <path id="Path_154" data-name="Path 154" d="M580.467,292.078a1.839,1.839,0,0,1,3.533-.42c.1.756-.614,1.477-1.6,1.6A1.611,1.611,0,0,1,580.467,292.078Z" transform="translate(-510.116 -263.868)" fill="#fff"/>
        <path id="Path_155" data-name="Path 155" d="M573.508,292.727a1.838,1.838,0,0,1,3.543-.3c.076.758-.666,1.454-1.654,1.538a1.61,1.61,0,0,1-1.889-1.238Z" transform="translate(-507.746 -264.111)" fill="#fff"/>
        <path id="Path_156" data-name="Path 156" d="M566.555,293.364a1.829,1.829,0,1,1,1.845,1.3A1.623,1.623,0,0,1,566.555,293.364Z" transform="translate(-505.39 -264.496)" fill="#fff"/>
        <path id="Path_157" data-name="Path 157" d="M559.57,293.543a1.829,1.829,0,1,1,1.8,1.362A1.624,1.624,0,0,1,559.57,293.543Z" transform="translate(-503.008 -264.578)" fill="#fff"/>
        <path id="Path_158" data-name="Path 158" d="M552.584,293.486a1.829,1.829,0,1,1,1.753,1.422A1.623,1.623,0,0,1,552.584,293.486Z" transform="translate(-500.624 -264.579)" fill="#fff"/>
        <path id="Path_159" data-name="Path 159" d="M545.6,293.194a1.829,1.829,0,1,1,1.7,1.481,1.625,1.625,0,0,1-1.7-1.481Z" transform="translate(-498.242 -264.499)" fill="#fff"/>
        <path id="Path_160" data-name="Path 160" d="M538.633,292.667a1.83,1.83,0,1,1,1.655,1.537C539.3,294.121,538.557,293.425,538.633,292.667Z" transform="translate(-495.863 -264.34)" fill="#fff"/>
        <path id="Path_161" data-name="Path 161" d="M531.68,291.9a1.831,1.831,0,1,1,1.6,1.593C532.3,293.384,531.578,292.66,531.68,291.9Z" transform="translate(-493.489 -264.098)" fill="#fff"/>
        <path id="Path_162" data-name="Path 162" d="M524.751,290.683a1.842,1.842,0,0,1,3.521.533,1.611,1.611,0,0,1-1.97,1.109C525.317,292.179,524.624,291.435,524.751,290.683Z" transform="translate(-491.125 -263.555)" fill="#fff"/>
        <path id="Path_163" data-name="Path 163" d="M517.852,289.674a1.838,1.838,0,1,1,1.5,1.7C518.37,291.188,517.7,290.42,517.852,289.674Z" transform="translate(-488.772 -263.375)" fill="#fff"/>
        <path id="Path_164" data-name="Path 164" d="M510.982,287.981a1.842,1.842,0,1,1,1.442,1.745,1.849,1.849,0,0,1-1.442-1.745Z" transform="translate(-486.423 -262.669)" fill="#fff"/>
        <path id="Path_165" data-name="Path 165" d="M504.16,286.5a1.846,1.846,0,1,1,1.385,1.8A1.634,1.634,0,0,1,504.16,286.5Z" transform="translate(-484.095 -262.329)" fill="#fff"/>
        <path id="Path_166" data-name="Path 166" d="M497.383,284.561a1.851,1.851,0,1,1,1.333,1.843A1.637,1.637,0,0,1,497.383,284.561Z" transform="translate(-481.782 -261.687)" fill="#fff"/>
        <path id="Path_167" data-name="Path 167" d="M489.89,281.9a1.858,1.858,0,1,1,1.261,1.892,1.866,1.866,0,0,1-1.261-1.892Z" transform="translate(-479.219 -260.648)" fill="#fff"/>
        <path id="Path_168" data-name="Path 168" d="M482.263,279.083a1.866,1.866,0,1,1,1.192,1.945A1.874,1.874,0,0,1,482.263,279.083Z" transform="translate(-476.614 -259.708)" fill="#fff"/>
        <path id="Path_169" data-name="Path 169" d="M595.332,295.863c-.133-.752.565-1.5,1.549-1.685a1.665,1.665,0,0,1,2.055,1.008c.153.748-.533,1.518-1.545,1.707A1.649,1.649,0,0,1,595.332,295.863Z" transform="translate(-515.18 -265.117)" fill="#fff"/>
        <path id="Path_170" data-name="Path 170" d="M602.406,294.468c-.155-.748.514-1.518,1.494-1.733a1.667,1.667,0,0,1,2.091.933c.177.741-.489,1.537-1.49,1.761A1.65,1.65,0,0,1,602.406,294.468Z" transform="translate(-517.593 -264.618)" fill="#fff"/>
        <path id="Path_171" data-name="Path 171" d="M609.45,292.834c-.18-.742.465-1.535,1.438-1.787a1.669,1.669,0,0,1,2.125.864c.2.736-.437,1.553-1.433,1.811A1.653,1.653,0,0,1,609.45,292.834Z" transform="translate(-519.986 -264.038)" fill="#fff"/>
        <path id="Path_172" data-name="Path 172" d="M616.434,290.942a1.927,1.927,0,0,1,3.537-1.045c.228.728-.387,1.569-1.376,1.866A1.655,1.655,0,0,1,616.434,290.942Z" transform="translate(-522.358 -263.359)" fill="#fff"/>
        <path id="Path_173" data-name="Path 173" d="M623.374,288.821a1.934,1.934,0,0,1,3.509-1.168c.252.721-.335,1.581-1.316,1.907a1.659,1.659,0,0,1-2.194-.74Z" transform="translate(-524.718 -262.61)" fill="#fff"/>
        <path id="Path_174" data-name="Path 174" d="M630.258,286.458a1.941,1.941,0,0,1,3.477-1.292c.276.712-.284,1.593-1.256,1.953A1.663,1.663,0,0,1,630.258,286.458Z" transform="translate(-527.06 -261.78)" fill="#fff"/>
        <path id="Path_175" data-name="Path 175" d="M638.185,283.406a1.95,1.95,0,0,1,3.437-1.434c.3.7-.222,1.6-1.184,2A1.667,1.667,0,0,1,638.185,283.406Z" transform="translate(-529.754 -260.709)" fill="#fff"/>
        <path id="Path_176" data-name="Path 176" d="M588.221,297.013c-.1-.756.615-1.479,1.6-1.631a1.663,1.663,0,0,1,2.018,1.077c.133.752-.588,1.5-1.6,1.654a1.647,1.647,0,0,1-2.018-1.1Z" transform="translate(-512.759 -265.532)" fill="#fff"/>
        <path id="Path_177" data-name="Path 177" d="M581.085,297.922c-.079-.76.666-1.458,1.654-1.575a1.661,1.661,0,0,1,1.978,1.145c.1.757-.637,1.479-1.651,1.6A1.646,1.646,0,0,1,581.085,297.922Z" transform="translate(-510.328 -265.863)" fill="#fff"/>
        <path id="Path_178" data-name="Path 178" d="M573.929,298.588c-.053-.762.712-1.435,1.7-1.52a1.661,1.661,0,0,1,1.937,1.212c.076.76-.687,1.457-1.7,1.543a1.645,1.645,0,0,1-1.938-1.236Z" transform="translate(-507.891 -266.112)" fill="#fff"/>
        <path id="Path_179" data-name="Path 179" d="M566.757,299.015c-.027-.764.758-1.41,1.755-1.466a1.659,1.659,0,0,1,1.894,1.276c.051.761-.734,1.433-1.754,1.485A1.643,1.643,0,0,1,566.757,299.015Z" transform="translate(-505.447 -266.279)" fill="#fff"/>
        <path id="Path_180" data-name="Path 180" d="M559.58,299.192a1.9,1.9,0,0,1,3.652-.063c.025.762-.781,1.408-1.8,1.425S559.581,299.955,559.58,299.192Z" transform="translate(-503.001 -266.356)" fill="#fff"/>
        <path id="Path_181" data-name="Path 181" d="M552.4,299.135a1.9,1.9,0,0,1,3.652.06c0,.762-.829,1.381-1.849,1.364S552.376,299.9,552.4,299.135Z" transform="translate(-500.553 -266.358)" fill="#fff"/>
        <path id="Path_182" data-name="Path 182" d="M545.225,298.839a1.893,1.893,0,1,1,1.755,1.49C545.96,300.271,545.175,299.6,545.225,298.839Z" transform="translate(-498.108 -266.28)" fill="#fff"/>
        <path id="Path_183" data-name="Path 183" d="M538.061,298.3A1.661,1.661,0,0,1,540,297.086c.994.083,1.758.756,1.706,1.517a1.645,1.645,0,0,1-1.937,1.236C538.749,299.753,537.981,299.058,538.061,298.3Z" transform="translate(-495.666 -266.118)" fill="#fff"/>
        <path id="Path_184" data-name="Path 184" d="M530.915,297.515a1.661,1.661,0,0,1,1.977-1.146c.992.116,1.733.814,1.655,1.574a1.646,1.646,0,0,1-1.979,1.17C531.554,298.994,530.814,298.27,530.915,297.515Z" transform="translate(-493.229 -265.87)" fill="#fff"/>
        <path id="Path_185" data-name="Path 185" d="M523.792,296.484a1.663,1.663,0,0,1,2.017-1.078c.988.151,1.706.873,1.6,1.63a1.647,1.647,0,0,1-2.019,1.1C524.382,297.99,523.665,297.244,523.792,296.484Z" transform="translate(-490.799 -265.542)" fill="#fff"/>
        <path id="Path_186" data-name="Path 186" d="M516.7,295.221a1.665,1.665,0,0,1,2.055-1.009c.984.184,1.679.933,1.55,1.683a1.649,1.649,0,0,1-2.058,1.033C517.241,296.74,516.546,295.97,516.7,295.221Z" transform="translate(-488.379 -265.128)" fill="#fff"/>
        <path id="Path_187" data-name="Path 187" d="M509.641,293.711a1.666,1.666,0,0,1,2.09-.933c.978.217,1.649.988,1.5,1.733a1.652,1.652,0,0,1-2.1.962C510.129,295.247,509.463,294.453,509.641,293.711Z" transform="translate(-485.971 -264.632)" fill="#fff"/>
        <path id="Path_188" data-name="Path 188" d="M502.625,291.96a1.67,1.67,0,0,1,2.125-.866c.972.251,1.618,1.044,1.439,1.786a1.653,1.653,0,0,1-2.133.89C503.064,293.514,502.424,292.7,502.625,291.96Z" transform="translate(-483.577 -264.054)" fill="#fff"/>
        <path id="Path_189" data-name="Path 189" d="M495.659,290.208a1.917,1.917,0,1,1,1.377,1.858C496.047,291.775,495.432,290.937,495.659,290.208Z" transform="translate(-481.2 -263.634)" fill="#fff"/>
        <path id="Path_190" data-name="Path 190" d="M487.961,287.444a1.934,1.934,0,0,1,3.507,1.178,1.659,1.659,0,0,1-2.2.732C488.291,289.025,487.706,288.163,487.961,287.444Z" transform="translate(-478.572 -262.542)" fill="#fff"/>
        <path id="Path_191" data-name="Path 191" d="M481.6,285.124a1.941,1.941,0,0,1,3.477,1.293,1.663,1.663,0,0,1-2.223.666C481.89,286.715,481.324,285.834,481.6,285.124Z" transform="translate(-476.401 -261.766)" fill="#fff"/>
        <path id="Path_192" data-name="Path 192" d="M473.835,281.974a1.951,1.951,0,0,1,3.437,1.434,1.667,1.667,0,0,1-2.254.57C474.057,283.573,473.529,282.67,473.835,281.974Z" transform="translate(-473.748 -260.707)" fill="#fff"/>
      </g>
      <g id="Group_28802" data-name="Group 28802" transform="translate(0.136 81.882)">
        <g id="Group_28801" data-name="Group 28801" transform="translate(0 0)">
          <path id="Path_193" data-name="Path 193" d="M479.234,375.988c0,.051-.1.1-.149.1-.012,0-.025-.012-.037-.025l-.549-1.26a.382.382,0,0,0-.249-.249,9.07,9.07,0,0,0-1.522-.2c-.037.736-.088,2.844-.112,3.5-.012.7-.051,3.032-.051,3.529,0,.125.051.149.133.163l.624.112c.037,0,.063.075.063.149,0,.025,0,.037-.037.037-.275-.012-.961-.025-1.683-.025-.666,0-1.273.013-1.546.025-.039,0-.039-.012-.039-.025,0-.061.025-.163.063-.163l.637-.124c.087-.012.1-.049.1-.175.013-.5-.037-2.968-.049-3.555,0-.5-.049-2.819-.063-3.455a10.264,10.264,0,0,0-1.5.187.431.431,0,0,0-.274.267l-.573,1.248c-.013.025-.025.037-.051.037s-.149-.063-.149-.1l.124-1.833a.08.08,0,0,1,.088-.088c.1,0,.337.012.848.039s1.31.037,2.482.037c1.136,0,1.921-.012,2.444-.037s.785-.025.873-.025c.049,0,.075.025.075.088Z" transform="translate(-472.22 -373.349)" fill="#fff"/>
          <path id="Path_194" data-name="Path 194" d="M487.957,379.571a.376.376,0,0,1-.249.349,18,18,0,0,1-3.305.1,4.171,4.171,0,0,0,.063.848,1.793,1.793,0,0,0,1.634,1.521,3.977,3.977,0,0,0,.836-.087,4.735,4.735,0,0,0,.912-.324c.025-.012.063.063.063.149,0,.037-.025.049-.051.075a6.673,6.673,0,0,1-1.434.624,3.377,3.377,0,0,1-1.1.124,2.4,2.4,0,0,1-2.731-2.57,3.171,3.171,0,0,1,2.994-3.305,2.383,2.383,0,0,1,2.37,2.482Zm-2.6-2.245c-.486,0-.985.736-.961,2.47a6.091,6.091,0,0,0,1.61-.075c.1-.049.175-.133.175-.4,0-.673-.149-2.007-.81-2.007Z" transform="translate(-475.754 -374.376)" fill="#fff"/>
          <path id="Path_195" data-name="Path 195" d="M492.054,380.442a3.269,3.269,0,0,1,1.26-2.582,3.687,3.687,0,0,1,2.4-.786,2.877,2.877,0,0,1,1.066.149c.037.012.063.051.063.113l.075,1.346c0,.037-.112.1-.149.1s-.037,0-.051-.025c-.187-.361-.387-.761-.561-1.066a.635.635,0,0,0-.224-.267.716.716,0,0,0-.437-.112c-.449,0-.861.361-1.2,1.085a4.3,4.3,0,0,0-.373,1.846c0,1.46.761,2.145,1.671,2.145a3.055,3.055,0,0,0,.636-.075,3.3,3.3,0,0,0,.824-.288c.025-.012.063.037.063.113,0,.051-.012.087-.051.1a6.365,6.365,0,0,1-1.248.574,2.868,2.868,0,0,1-1.034.124c-1.522,0-2.731-.666-2.731-2.494Z" transform="translate(-478.978 -374.377)" fill="#fff"/>
          <path id="Path_196" data-name="Path 196" d="M502.673,372.989c.075-.012.1.037.1.112,0,.1-.133,4.191-.175,5.177,0,.112-.012.267-.025.412h.063a3.082,3.082,0,0,1,.125-.375c.349-.972,1.3-2.631,2.582-2.631,1.01,0,1.5,1.01,1.5,2.631,0,1.1-.1,2.17-.133,2.6-.013.2.012.249.1.275l.6.124c.025,0,.063.075.063.149,0,.013-.012.025-.037.025-.225-.012-.761-.025-1.483-.025s-1.31.013-1.573.025c-.037,0-.037-.012-.037-.025,0-.049.013-.149.051-.149l.624-.112c.1-.012.125-.061.133-.175.037-.324.063-1.048.063-1.821,0-1.185-.163-2.358-.824-2.358-.7,0-1.409,1.234-1.709,2.731a10.786,10.786,0,0,0-.112,1.458c0,.112.049.133.133.149l.612.124c.024,0,.061.075.061.133,0,.025,0,.037-.037.037-.267-.012-.9-.025-1.6-.025s-1.248.013-1.448.025c-.037,0-.037-.012-.037-.037,0-.049.037-.133.063-.133l.6-.133c.075-.012.087-.049.1-.149.013-.337-.012-2.943-.012-3.655,0-.548-.037-3.28-.051-3.741,0-.112-.025-.163-.133-.175l-.76-.037c-.039,0-.075-.075-.075-.149,0-.012,0-.037.037-.037Z" transform="translate(-481.68 -372.981)" fill="#fff"/>
          <path id="Path_197" data-name="Path 197" d="M518.33,374.145c.436,0,.773.012,1.048.024a.133.133,0,0,1,.1.051c.4,1.346,1.683,5.65,2.182,7.184a.267.267,0,0,0,.163.163l.463.124c.037.012.063.075.063.163,0,.013-.012.025-.037.025-.267,0-.861-.025-1.485-.025-.7,0-1.372.013-1.709.025-.037,0-.037-.012-.037-.025,0-.075.037-.163.075-.175l.666-.112c.1-.012.113-.1.088-.2-.133-.412-.6-1.609-.736-2.033-.562.012-2.009.049-2.658.1-.037,0-.075.037-.087.1-.075.361-.312,1.371-.386,1.822-.012.149.037.187.125.212l.649.124c.037,0,.075.088.075.163,0,.025-.012.025-.037.025-.312-.012-.81-.025-1.309-.025-.424,0-.8.013-1.048.025-.025,0-.025-.012-.025-.037s.025-.149.063-.163l.31-.1c.1-.025.163-.075.225-.224.612-1.5,1.909-5.331,2.47-6.848.112-.3.275-.361.773-.361Zm-.673.985a4.281,4.281,0,0,0-.125.424c-.312,1.036-.71,2.482-.948,3.343a.067.067,0,0,0,.063.087,23.267,23.267,0,0,0,2.444.113c-.212-.6-.861-2.407-1.2-3.529-.037-.112-.088-.267-.163-.436Z" transform="translate(-486.619 -373.376)" fill="#fff"/>
          <path id="Path_198" data-name="Path 198" d="M531.321,375.937a.034.034,0,0,1,.028.01.033.033,0,0,1,.009.028c0,.063-.037.2-.075.212l-2.121.149c-.025.81-.063,2.133-.075,2.345-.012.4-.025,2.046-.025,2.345a.155.155,0,0,0,.151.163l1.1.112c.037,0,.063.1.063.163,0,.013-.013.025-.039.025-.636-.012-1.346-.025-2.033-.025-.71,0-1.271.013-1.634.025-.025,0-.025-.012-.025-.025,0-.037.025-.149.063-.149l.674-.112c.087-.012.124-.061.124-.163,0-.474-.063-1.883-.075-2.482-.012-.5-.063-1.983-.063-2.207l-.973.025c-.025,0-.037-.012-.037-.051a.843.843,0,0,1,.049-.225.225.225,0,0,1,.225-.187h.749a2.874,2.874,0,0,1,3.092-2.919,2.378,2.378,0,0,1,1,.163.078.078,0,0,1,.061.075l.076,1.346c0,.051-.113.125-.163.125-.012,0-.025-.012-.051-.049-.187-.349-.412-.8-.561-1.066a.622.622,0,0,0-.2-.237.58.58,0,0,0-.349-.112c-.624,0-1.1.933-1.122,2.656Z" transform="translate(-490.669 -372.985)" fill="#fff"/>
          <path id="Path_199" data-name="Path 199" d="M536.608,380.058c.025-.133.049-.249.063-.324.287-1.185.933-2.656,2.07-2.656a.7.7,0,0,1,.4.1.11.11,0,0,1,.037.087l.088,1.733c0,.049-.113.112-.133.112s-.025,0-.037-.025c-.149-.287-.349-.624-.5-.86a.442.442,0,0,0-.349-.212c-.686,0-1.272,1.248-1.609,2.943a12.492,12.492,0,0,0-.125,1.466c0,.112.051.133.133.149l.973.133c.025,0,.063.088.063.124s0,.037-.025.037c-.349-.012-1.066-.025-1.921-.025-.737,0-1.385.013-1.535.025-.024,0-.024-.012-.024-.025,0-.063.024-.133.063-.133l.622-.124a.143.143,0,0,0,.113-.163c0-.324-.025-1.866-.037-2.37-.013-.533-.025-1.821-.051-2.17,0-.112-.025-.187-.133-.2l-.561-.037c-.049,0-.075-.1-.075-.149,0-.024,0-.049.037-.049l2.419-.361c.1-.025.125.025.125.112,0,.188-.076,1.809-.125,2.494,0,.113-.012.267-.012.363Z" transform="translate(-493.313 -374.375)" fill="#fff"/>
          <path id="Path_200" data-name="Path 200" d="M545.073,375.9a.092.092,0,0,1,.112.1c-.025.5-.088,2.219-.1,2.831-.012.561-.037,1.945-.037,2.419,0,.112.024.133.112.163l.624.124c.025,0,.063.088.063.124s0,.037-.025.037c-.3-.012-.886-.025-1.559-.025s-1.271.013-1.521.025c-.037,0-.037-.012-.037-.025,0-.049.025-.124.063-.133l.586-.133c.087-.025.133-.049.133-.163,0-.275-.037-1.771-.051-2.382-.012-.512-.049-1.834-.061-2.146-.013-.1-.025-.187-.133-.187l-.561-.025c-.037,0-.087-.087-.087-.163,0-.012,0-.025.025-.025Zm-.91-2.266a.81.81,0,0,1,.849.81.9.9,0,1,1-.861-.81Z" transform="translate(-496.202 -373.202)" fill="#fff"/>
          <path id="Path_201" data-name="Path 201" d="M548.457,380.442a3.268,3.268,0,0,1,1.26-2.582,3.686,3.686,0,0,1,2.4-.786,2.873,2.873,0,0,1,1.066.149c.037.012.063.051.063.113l.075,1.346c0,.037-.112.1-.149.1s-.039,0-.051-.025c-.188-.361-.387-.761-.561-1.066a.63.63,0,0,0-.225-.267.712.712,0,0,0-.436-.112c-.449,0-.86.361-1.2,1.085a4.294,4.294,0,0,0-.374,1.846c0,1.46.761,2.145,1.671,2.145a3.058,3.058,0,0,0,.637-.075,3.284,3.284,0,0,0,.822-.288c.025-.012.063.037.063.113,0,.051-.012.087-.049.1a6.38,6.38,0,0,1-1.247.575,2.866,2.866,0,0,1-1.034.124c-1.522,0-2.731-.666-2.731-2.494Z" transform="translate(-498.201 -374.377)" fill="#fff"/>
          <path id="Path_202" data-name="Path 202" d="M560.783,379.507a4.431,4.431,0,0,0-.112-.761c-.149-.573-.5-1.048-1.1-1.048a2.747,2.747,0,0,0-1.809.824c-.012.012-.025.025-.037.025-.037,0-.133-.149-.075-.212a3.847,3.847,0,0,1,2.918-1.26c1.671,0,1.934,1.409,1.934,2.666,0,.237-.024.948-.049,1.373-.025.561-.051,1.11-.051,1.309,0,.088.025.125.125.149l.524.125a.133.133,0,0,1,.075.125c0,.024-.012.037-.049.037-.151-.013-.666-.013-1.148-.013-.424,0-.685,0-.9.013-.037,0-.061-.013-.061-.063-.012-.1-.037-.549-.037-.824,0-.063-.012-.249-.012-.349l-.037-.025c-.051.1-.113.212-.176.312a2.3,2.3,0,0,1-1.983,1.034,1.6,1.6,0,0,1-1.658-1.671,2.194,2.194,0,0,1,2.332-2.282,1.83,1.83,0,0,1,1.085.324,1.7,1.7,0,0,1,.249.2Zm-1.122,2.806c.486,0,.933-.474,1.173-1.16a1.36,1.36,0,0,0,.087-.449,1.229,1.229,0,0,0-.112-.475,1.3,1.3,0,0,0-1.085-.922c-.636,0-.924.81-.924,1.659,0,.873.349,1.346.849,1.346Z" transform="translate(-501.136 -374.375)" fill="#fff"/>
          <path id="Path_203" data-name="Path 203" d="M574.082,382.709c.037,0,.061.088.061.133,0,.013,0,.025-.024.025-.425-.012-.861-.025-1.585-.025s-1.246.013-1.559.025c-.025,0-.037-.012-.037-.025,0-.037.025-.133.063-.133l.6-.133a.175.175,0,0,0,.149-.175c.025-.267.063-1.234.063-1.809,0-1.085-.149-2.344-.848-2.344-.6,0-1.21.948-1.585,2.47a8.516,8.516,0,0,0-.187,1.7c0,.113.037.149.112.163l.61.133c.037,0,.063.088.063.133,0,.013-.012.025-.037.025-.486-.012-.885-.025-1.559-.025s-1.148.013-1.521.025c-.025,0-.025-.012-.025-.025,0-.049.025-.133.063-.149l.636-.112c.075-.025.112-.063.112-.175,0-.375-.025-1.833-.025-2.382-.012-.424-.049-1.821-.061-2.146-.012-.112-.012-.187-.124-.2l-.549-.037c-.037,0-.075-.087-.075-.149,0-.024,0-.037.037-.037l2.419-.387c.075-.012.1.025.1.1-.013.175-.076,1.758-.1,2.431,0,.124-.012.287-.025.424l.063.012c.037-.124.088-.287.112-.349.349-1.11,1.3-2.619,2.519-2.619,1,0,1.51.933,1.51,2.666,0,.922-.088,2.083-.133,2.607-.012.124.013.187.133.212Z" transform="translate(-504.456 -374.376)" fill="#fff"/>
          <path id="Path_204" data-name="Path 204" d="M585.414,381.292c.037-.133.087-.275.124-.4.449-1.646,1.136-4.265,1.534-6.011.076-.361.125-.387.836-.449a3.58,3.58,0,0,1,.449-.037.109.109,0,0,1,.112.087c.412,1.534,1.148,4.8,1.534,6.486a2.624,2.624,0,0,0,.112.349h.063c.037-.1.075-.267.1-.361.361-1.559.9-4.3,1.172-6.248.012-.133-.025-.212-.112-.225l-.586-.087c-.051-.012-.075-.112-.075-.175,0-.025,0-.037.024-.037h2.4a.033.033,0,0,1,.039.037c0,.063-.025.149-.063.163l-.277.091a.277.277,0,0,0-.225.225c-.349,1.222-1.721,5.687-2.183,6.859-.088.275-.163.3-1.1.325H588.8a.133.133,0,0,1-.112-.088c-.386-1.234-.949-2.919-1.234-4.041-.051-.163-.113-.449-.187-.712h-.075c-.075.275-.175.6-.249.836-.275.81-.933,2.782-1.321,3.692-.113.267-.176.287-1.26.312h-.387c-.061,0-.087-.025-.112-.1-.361-1.222-1.234-4.989-1.722-7.159-.025-.087-.061-.149-.149-.161l-.324-.063c-.037-.012-.075-.112-.075-.175a.033.033,0,0,1,.01-.028.033.033,0,0,1,.029-.009h3.4c.037,0,.037.012.037.051s-.037.149-.088.163l-.624.087a.153.153,0,0,0-.124.188c.2,1.346.724,4.532,1.024,6.2.024.1.061.275.087.424Z" transform="translate(-509.49 -373.389)" fill="#fff"/>
          <path id="Path_205" data-name="Path 205" d="M601.427,382.954a2.494,2.494,0,0,1-2.731-2.666,3.075,3.075,0,0,1,3.355-3.206,2.533,2.533,0,0,1,2.78,2.731,3.087,3.087,0,0,1-3.392,3.143Zm.386-.237c.885,0,1.148-1.148,1.148-2.731,0-1.434-.349-2.666-1.2-2.666-.824,0-1.21,1.1-1.21,2.756,0,1.434.449,2.644,1.247,2.644Z" transform="translate(-515.324 -374.378)" fill="#fff"/>
          <path id="Path_206" data-name="Path 206" d="M620.029,382.707c.037.012.063.088.063.133,0,.025,0,.037-.037.037-.373-.012-.8-.025-1.5-.025s-1.234.013-1.534.025c-.037,0-.037-.012-.037-.025,0-.049.025-.133.063-.149l.561-.133c.075-.012.113-.061.125-.149.037-.324.037-1.422.037-1.771,0-1.222-.2-2.407-.873-2.407-.81,0-1.3,1.434-1.466,2.6a14.259,14.259,0,0,0-.113,1.558c0,.1.037.133.133.163l.673.149c.037.012.063.088.063.133,0,.025,0,.037-.024.037-.4-.012-.873-.025-1.585-.025s-1.2.013-1.521.025c-.037,0-.037-.012-.037-.037s.013-.124.063-.133l.533-.133c.1-.025.125-.061.133-.163.037-.287.025-1.248.025-1.7,0-1.272-.149-2.47-.86-2.47-.748,0-1.272,1.3-1.5,2.519-.049.412-.112,1.185-.112,1.658a.133.133,0,0,0,.112.149l.573.133c.051.012.076.088.076.133,0,.025,0,.037-.037.037-.524-.012-.873-.025-1.547-.025-.648,0-1.01.013-1.422.025-.037,0-.037-.012-.037-.025,0-.049.025-.133.063-.149l.561-.125c.075-.025.124-.049.124-.163,0-.548-.025-1.9-.025-2.456-.012-.412-.037-1.771-.075-2.109-.013-.112-.025-.187-.133-.2l-.533-.024c-.037,0-.075-.075-.075-.149,0-.025,0-.037.051-.051l2.407-.337c.075-.012.087.025.087.088,0,.149-.061,1.583-.113,2.245,0,.1-.024.275-.024.4l.075.024c.037-.149.087-.311.112-.387.336-.933,1.085-2.382,2.431-2.382.91,0,1.41.861,1.448,2.207v.36l.051.012c.025-.088.075-.267.112-.375.287-.836,1.048-2.207,2.382-2.207.91,0,1.466.873,1.466,2.631,0,.948-.113,2.307-.133,2.644,0,.133.024.175.125.2Z" transform="translate(-518.81 -374.377)" fill="#fff"/>
          <path id="Path_207" data-name="Path 207" d="M632.1,379.571a.374.374,0,0,1-.249.349,17.993,17.993,0,0,1-3.305.1,4.089,4.089,0,0,0,.063.848,1.791,1.791,0,0,0,1.634,1.521,4,4,0,0,0,.836-.087,4.717,4.717,0,0,0,.91-.324c.025-.012.063.063.063.149,0,.037-.025.049-.051.075a6.668,6.668,0,0,1-1.434.624,3.381,3.381,0,0,1-1.1.124,2.4,2.4,0,0,1-2.731-2.57,3.171,3.171,0,0,1,2.994-3.305,2.383,2.383,0,0,1,2.368,2.482Zm-2.594-2.245c-.487,0-.985.736-.961,2.47a6.088,6.088,0,0,0,1.609-.075c.1-.049.175-.133.175-.4,0-.673-.151-2.007-.81-2.007Z" transform="translate(-524.882 -374.376)" fill="#fff"/>
          <path id="Path_208" data-name="Path 208" d="M643.069,382.709c.037,0,.063.088.063.133,0,.013,0,.025-.025.025-.424-.012-.861-.025-1.583-.025s-1.248.013-1.559.025c-.024,0-.037-.012-.037-.025,0-.037.025-.133.063-.133l.6-.133a.175.175,0,0,0,.149-.175c.024-.267.063-1.234.063-1.809,0-1.085-.149-2.344-.848-2.344-.6,0-1.21.948-1.583,2.47a8.454,8.454,0,0,0-.188,1.7c0,.113.037.149.112.163l.61.133c.039,0,.063.088.063.133,0,.013-.013.025-.037.025-.487-.012-.886-.025-1.559-.025s-1.148.013-1.522.025c-.024,0-.024-.012-.024-.025,0-.049.024-.133.063-.149l.636-.112c.075-.025.112-.063.112-.175,0-.375-.025-1.833-.025-2.382-.012-.424-.049-1.821-.061-2.146-.013-.112-.013-.187-.125-.2l-.549-.037c-.037,0-.075-.087-.075-.149,0-.024,0-.037.037-.037l2.42-.387c.075-.012.1.025.1.1-.012.175-.075,1.758-.1,2.431,0,.124-.013.287-.025.424l.063.012c.037-.124.088-.287.112-.349.35-1.11,1.3-2.619,2.52-2.619,1,0,1.509.933,1.509,2.666,0,.922-.087,2.083-.133,2.607-.012.124.012.187.133.212Z" transform="translate(-527.968 -374.376)" fill="#fff"/>
        </g>
      </g>
      <g id="Group_28803" data-name="Group 28803" transform="translate(128.236 0)">
        <path id="Path_209" data-name="Path 209" d="M676.718,263.557a.15.15,0,0,1-.167.1c-.147,0-.625-.02-1.666-.063-1.041-.02-2.624-.041-5-.041-.813,0-1.854.021-2.542.041-.063,0-.063-.02-.063-.041,0-.083.041-.229.1-.249l.958-.208c.147-.041.229-.1.229-.333.02-.625-.021-4.854-.021-5.791-.021-.812-.063-4.708-.1-5.4,0-.251-.084-.333-.208-.375l-.853-.167c-.043,0-.1-.145-.1-.292,0-.021,0-.041.041-.041.5,0,.978.02,1.416.02h1.166c4.645,0,6.248-.063,6.5-.063a.111.111,0,0,1,.125.125l.147,2.728c0,.061-.188.167-.249.167-.021,0-.043,0-.063-.041-.292-.645-.584-1.272-.9-1.938a.635.635,0,0,0-.521-.292,25.365,25.365,0,0,0-3.04-.333c-.208.021-.229.083-.229.229-.105,1.27-.229,4.582-.209,5.27,1.438.063,3.771.1,4.312.125.043,0,.043.02.043.041,0,.124-.105.355-.167.355-.813.083-2.875.187-3.957.292-.187.021-.249.063-.249.229-.021.688-.1,4.645-.1,5.229,0,.229.083.267.229.267a19.012,19.012,0,0,0,3.813-.355.708.708,0,0,0,.437-.313c.416-.562.792-1.146,1.146-1.733.02-.041.041-.041.063-.041.083.021.249.167.229.249Z" transform="translate(-666.797 -249.41)" fill="#fff"/>
        <path id="Path_210" data-name="Path 210" d="M688.023,255.137c-.1,1.333-.125,3-.125,4.353,0,2.646.625,3.583,2.083,3.583.187,0,.458-.021.688-.043a5.1,5.1,0,0,0,1.1-.292c.063-.021.084.083.084.229a.15.15,0,0,1-.084.147,8.9,8.9,0,0,1-2.125.729c-.229.02-.541.041-1,.041-2.291,0-3.708-.833-3.732-3.853a43.75,43.75,0,0,1,.354-4.9l-1.791.063a.076.076,0,0,1-.083-.083,1.4,1.4,0,0,1,.061-.355.4.4,0,0,1,.417-.355h1.478c.063-.355.167-1.188.292-1.687.1-.4.312-.666.978-.958a14.042,14.042,0,0,1,1.625-.625c.084,0,.125.063.1.187-.083.688-.249,2.355-.292,3.126l3.645.02c.02,0,.043.021.043.063,0,.145-.084.333-.147.333Z" transform="translate(-672.292 -249.571)" fill="#fff"/>
        <path id="Path_211" data-name="Path 211" d="M700.413,248.765c.124-.021.167.063.167.188,0,.167-.229,7-.292,8.645,0,.188-.02.437-.041.688h.1a5.4,5.4,0,0,1,.208-.625c.584-1.625,2.166-4.4,4.312-4.4,1.687,0,2.5,1.687,2.5,4.4,0,1.833-.167,3.624-.229,4.333-.021.333.021.417.167.458l1,.208c.043,0,.1.125.1.249,0,.021-.02.041-.063.041-.375-.02-1.27-.041-2.479-.041-1.229,0-2.187.021-2.624.041-.063,0-.063-.02-.063-.041,0-.083.02-.249.083-.249l1.041-.188c.167-.021.208-.105.229-.292.063-.542.105-1.75.105-3.042,0-1.978-.267-3.937-1.375-3.937-1.166,0-2.354,2.062-2.854,4.561a17.985,17.985,0,0,0-.188,2.438c0,.188.083.229.229.251l1.021.208c.041,0,.1.125.1.229,0,.043,0,.063-.063.063-.437-.02-1.5-.041-2.666-.041-1.146,0-2.083.021-2.417.041-.063,0-.063-.02-.063-.063,0-.083.063-.229.1-.229l1-.229c.125-.02.145-.083.167-.249.021-.562-.02-4.916-.02-6.1,0-.916-.063-5.478-.083-6.248,0-.188-.041-.267-.229-.292l-1.27-.063c-.063,0-.125-.124-.125-.249,0-.02,0-.063.063-.063Z" transform="translate(-676.556 -248.762)" fill="#fff"/>
        <path id="Path_212" data-name="Path 212" d="M719.9,253.634a.152.152,0,0,1,.188.167c-.041.833-.145,3.708-.167,4.729-.021.933-.063,3.25-.063,4.041,0,.187.041.229.188.267l1.042.208c.041,0,.1.145.1.208s0,.063-.041.063c-.5-.02-1.479-.041-2.6-.041-1.145,0-2.125.021-2.54.041-.063,0-.063-.02-.063-.041,0-.083.043-.208.1-.229l.98-.229c.145-.041.229-.084.229-.267,0-.458-.063-2.958-.084-3.979-.02-.854-.083-3.066-.1-3.583-.02-.167-.041-.312-.229-.312l-.933-.041c-.063,0-.145-.145-.145-.267,0-.02,0-.041.041-.041Zm-1.521-3.792A1.353,1.353,0,0,1,719.8,251.2a1.51,1.51,0,1,1-1.437-1.354Z" transform="translate(-683.319 -249.13)" fill="#fff"/>
        <path id="Path_213" data-name="Path 213" d="M730.123,265.41a4.165,4.165,0,0,1-4.562-4.458,5.136,5.136,0,0,1,5.6-5.353,4.23,4.23,0,0,1,4.645,4.562c0,2.75-1.854,5.249-5.666,5.249Zm.645-.4c1.479,0,1.917-1.917,1.917-4.562,0-2.4-.584-4.458-2-4.458-1.375,0-2.021,1.833-2.021,4.6,0,2.4.75,4.417,2.083,4.417Z" transform="translate(-686.663 -251.095)" fill="#fff"/>
        <path id="Path_214" data-name="Path 214" d="M746.518,264.545c.02.458,0,.933,0,1.25-.043,1.066-.043,2.334-.043,2.542,0,.187.043.229.187.249l1.417.229c.063.02.1.145.1.229,0,.041,0,.063-.041.063-.917-.021-1.834-.041-2.916-.041-1.021,0-1.707.02-2.438.041-.041,0-.041-.021-.041-.041,0-.1.041-.249.1-.249l.854-.188c.147-.021.208-.083.208-.267.041-.666-.041-3.957-.063-5.229,0-1.208-.063-5.582-.1-6.207,0-.208-.021-.292-.188-.312l-1.084-.02c-.1-.021-.167-.167-.167-.267,0-.041,0-.063.063-.084l4.229-.645c.1-.02.145.041.145.145,0,.417-.084,2.375-.1,3.208,0,.208-.041.4-.041.562l.124.02a4.139,4.139,0,0,1,.229-.6c.542-1.313,1.875-3.332,4.041-3.332,1.854,0,2.75,1.833,2.75,3.979,0,3.02-1.5,5.833-4.792,5.833a3.391,3.391,0,0,1-1.979-.562,4.311,4.311,0,0,1-.4-.312Zm2.291.458c1.313,0,1.979-1.687,1.979-4.437,0-1.667-.458-3.4-1.519-3.4-1.188,0-2.291,2.266-2.728,4.416-.02.167-.043.4-.043.521a3.241,3.241,0,0,0,.043.48c.333,1.75,1.354,2.416,2.25,2.416Z" transform="translate(-692.369 -251.085)" fill="#fff"/>
        <path id="Path_215" data-name="Path 215" d="M765.259,253.634a.152.152,0,0,1,.186.167c-.041.833-.145,3.708-.166,4.729-.021.933-.063,3.25-.063,4.041,0,.187.043.229.188.267l1.041.208c.041,0,.1.145.1.208s0,.063-.041.063c-.5-.02-1.479-.041-2.6-.041-1.145,0-2.125.021-2.542.041-.063,0-.063-.02-.063-.041,0-.083.041-.208.1-.229l.978-.229c.145-.041.229-.084.229-.267,0-.458-.063-2.958-.084-3.979-.02-.854-.083-3.066-.1-3.583-.02-.167-.041-.312-.229-.312l-.933-.041c-.063,0-.145-.145-.145-.267,0-.02,0-.041.041-.041Zm-1.521-3.792a1.353,1.353,0,0,1,1.416,1.354,1.51,1.51,0,1,1-1.437-1.354Z" transform="translate(-698.777 -249.13)" fill="#fff"/>
        <path id="Path_216" data-name="Path 216" d="M776.867,259.656a7.463,7.463,0,0,0-.188-1.27c-.249-.958-.833-1.75-1.833-1.75a4.588,4.588,0,0,0-3.02,1.376c-.021.02-.041.041-.063.041-.063,0-.228-.251-.124-.355a6.426,6.426,0,0,1,4.874-2.1c2.792,0,3.229,2.354,3.229,4.458,0,.4-.043,1.582-.083,2.291-.043.933-.084,1.854-.084,2.187,0,.145.041.208.208.249l.874.208a.231.231,0,0,1,.125.208c0,.041-.02.063-.083.063-.251-.021-1.1-.021-1.917-.021-.709,0-1.146,0-1.5.021-.061,0-.1-.021-.1-.1-.02-.167-.063-.917-.063-1.376,0-.1-.021-.417-.021-.582l-.063-.043c-.083.167-.187.355-.292.521a3.833,3.833,0,0,1-3.312,1.733,2.666,2.666,0,0,1-2.771-2.791,3.666,3.666,0,0,1,3.9-3.812,3.066,3.066,0,0,1,1.813.541,2.93,2.93,0,0,1,.417.333Zm-1.875,4.686c.812,0,1.562-.792,1.958-1.938a2.282,2.282,0,0,0,.145-.749,2.07,2.07,0,0,0-.187-.792,2.175,2.175,0,0,0-1.812-1.541c-1.066,0-1.542,1.354-1.542,2.77,0,1.458.584,2.25,1.417,2.25Z" transform="translate(-702.031 -251.09)" fill="#fff"/>
        <path id="Path_217" data-name="Path 217" d="M678.259,291.7c0,.083-.167.167-.249.167-.02,0-.043-.02-.063-.041l-.916-2.1a.638.638,0,0,0-.417-.416,15.248,15.248,0,0,0-2.542-.333c-.063,1.229-.145,4.749-.187,5.854-.02,1.166-.083,5.065-.083,5.9,0,.208.083.249.229.267l1.041.187c.063,0,.1.125.1.249,0,.043,0,.063-.063.063-.458-.02-1.6-.041-2.811-.041-1.1,0-2.125.021-2.583.041-.063,0-.063-.02-.063-.041,0-.1.043-.267.1-.267l1.066-.208c.145-.02.167-.083.167-.292.021-.833-.061-4.958-.083-5.937,0-.833-.084-4.708-.105-5.77a17.306,17.306,0,0,0-2.5.312.725.725,0,0,0-.458.437l-.958,2.083c-.02.041-.041.061-.083.061-.063,0-.249-.1-.249-.167l.208-3.066a.133.133,0,0,1,.147-.145c.167,0,.562.021,1.417.063.874.021,2.187.063,4.145.063,1.9,0,3.208-.021,4.083-.063.874-.021,1.313-.041,1.458-.041.084,0,.124.041.124.145Z" transform="translate(-666.548 -262.304)" fill="#fff"/>
        <path id="Path_218" data-name="Path 218" d="M689.923,297.581a7.434,7.434,0,0,0-.188-1.272c-.249-.958-.833-1.75-1.833-1.75a4.586,4.586,0,0,0-3.02,1.376c-.021.02-.043.041-.063.041-.063,0-.229-.251-.124-.355a6.425,6.425,0,0,1,4.874-2.1c2.791,0,3.228,2.354,3.228,4.457,0,.4-.041,1.583-.083,2.291-.043.933-.084,1.854-.084,2.187,0,.145.041.208.208.249l.874.208a.231.231,0,0,1,.125.208c0,.041-.021.063-.083.063-.251-.021-1.1-.021-1.917-.021-.709,0-1.145,0-1.5.021-.063,0-.1-.021-.1-.1-.02-.167-.063-.917-.063-1.376,0-.1-.021-.417-.021-.584l-.063-.041c-.083.167-.188.355-.292.521a3.833,3.833,0,0,1-3.312,1.733,2.666,2.666,0,0,1-2.771-2.791,3.665,3.665,0,0,1,3.9-3.812,3.058,3.058,0,0,1,1.811.542,2.881,2.881,0,0,1,.417.333Zm-1.875,4.686c.813,0,1.563-.792,1.958-1.938a2.29,2.29,0,0,0,.145-.75,2.069,2.069,0,0,0-.187-.79,2.177,2.177,0,0,0-1.813-1.542c-1.066,0-1.542,1.354-1.542,2.771,0,1.458.584,2.25,1.417,2.25Z" transform="translate(-672.399 -264.016)" fill="#fff"/>
        <path id="Path_219" data-name="Path 219" d="M712.132,302.933c.063,0,.105.147.105.229,0,.021,0,.041-.043.041-.708-.02-1.437-.041-2.646-.041-1.188,0-2.083.021-2.6.041-.041,0-.063-.02-.063-.041,0-.063.041-.229.105-.229l1-.229a.292.292,0,0,0,.249-.292c.043-.437.1-2.062.1-3.02,0-1.813-.249-3.916-1.417-3.916-1,0-2.019,1.583-2.646,4.124a14.2,14.2,0,0,0-.312,2.834c0,.187.061.249.188.267l1.021.229c.063,0,.1.147.1.229,0,.021-.02.041-.063.041-.812-.02-1.479-.041-2.6-.041s-1.917.021-2.542.041c-.041,0-.041-.02-.041-.041,0-.083.041-.229.1-.249l1.066-.188c.124-.041.187-.1.187-.292,0-.625-.043-3.066-.043-3.979-.02-.708-.083-3.04-.1-3.583-.02-.188-.02-.312-.208-.333l-.917-.063c-.063,0-.125-.145-.125-.249,0-.041,0-.063.063-.063l4.041-.645c.125-.021.167.041.167.167-.02.292-.125,2.932-.167,4.061,0,.208-.021.48-.041.708l.1.021c.063-.208.145-.48.188-.584.584-1.854,2.166-4.374,4.208-4.374,1.666,0,2.52,1.562,2.52,4.457,0,1.542-.147,3.479-.229,4.354-.02.208.021.312.229.355Z" transform="translate(-677.947 -264.014)" fill="#fff"/>
        <path id="Path_220" data-name="Path 220" d="M721.689,302.695c.251.021.48,0,.708,0a28.765,28.765,0,0,0,4.5-.542.685.685,0,0,0,.437-.333l.9-1.562c.021-.041.041-.041.063-.041.083,0,.266.1.25.187l-.4,2.73q0,.124-.188.124c-.729,0-2.52-.041-4.77-.041-1.458,0-2.042.021-2.9.021-.292,0-.437-.125-.667-.625a2.3,2.3,0,0,1-.167-.5.3.3,0,0,1,.043-.145c1.77-2.209,4.478-5.415,5.415-6.708.124-.187.312-.4.437-.562v-.056a1.819,1.819,0,0,0-.479-.1,24.689,24.689,0,0,0-3.084-.374.381.381,0,0,0-.375.251l-1.125,2.041c-.021.043-.043.043-.063.043-.083,0-.292-.145-.267-.229l.312-2.416a.148.148,0,0,1,.145-.167c.437.021,1.733.063,3.312.063,1.833,0,3.708-.021,4.1-.021a.133.133,0,0,1,.145.1,3.924,3.924,0,0,1,.4,1.374.846.846,0,0,1-.187.584c-1.563,1.874-4.562,4.932-6,6.354-.125.145-.355.375-.521.541Z" transform="translate(-684.582 -264.068)" fill="#fff"/>
        <path id="Path_221" data-name="Path 221" d="M741.314,297.581a7.416,7.416,0,0,0-.188-1.272c-.249-.958-.833-1.75-1.833-1.75a4.588,4.588,0,0,0-3.02,1.376c-.021.02-.041.041-.063.041-.063,0-.229-.251-.125-.355a6.429,6.429,0,0,1,4.874-2.1c2.791,0,3.228,2.354,3.228,4.457,0,.4-.041,1.583-.083,2.291-.041.933-.084,1.854-.084,2.187,0,.145.043.208.209.249l.874.208a.23.23,0,0,1,.124.208c0,.041-.02.063-.083.063-.25-.021-1.1-.021-1.917-.021-.709,0-1.146,0-1.5.021-.063,0-.105-.021-.105-.1-.02-.167-.061-.917-.061-1.376,0-.1-.021-.417-.021-.584l-.063-.041c-.083.167-.187.355-.292.521a3.832,3.832,0,0,1-3.312,1.733,2.666,2.666,0,0,1-2.771-2.791,3.666,3.666,0,0,1,3.9-3.812,3.058,3.058,0,0,1,1.812.542,2.955,2.955,0,0,1,.417.333Zm-1.875,4.686c.812,0,1.562-.792,1.958-1.938a2.3,2.3,0,0,0,.145-.75,2.058,2.058,0,0,0-.187-.79,2.175,2.175,0,0,0-1.813-1.542c-1.066,0-1.542,1.354-1.542,2.771,0,1.458.584,2.25,1.417,2.25Z" transform="translate(-689.914 -264.016)" fill="#fff"/>
        <path id="Path_222" data-name="Path 222" d="M763.523,302.933c.063,0,.1.147.1.229,0,.021,0,.041-.041.041-.708-.02-1.437-.041-2.646-.041-1.188,0-2.083.021-2.6.041-.043,0-.063-.02-.063-.041,0-.063.041-.229.1-.229l1-.229a.292.292,0,0,0,.249-.292c.041-.437.1-2.062.1-3.02,0-1.813-.249-3.916-1.417-3.916-1,0-2.021,1.583-2.646,4.124a14.268,14.268,0,0,0-.313,2.834c0,.187.063.249.188.267l1.021.229c.063,0,.105.147.105.229,0,.021-.021.041-.063.041-.813-.02-1.479-.041-2.6-.041s-1.917.021-2.542.041c-.041,0-.041-.02-.041-.041,0-.083.041-.229.1-.249l1.066-.188c.125-.041.187-.1.187-.292,0-.625-.041-3.066-.041-3.979-.02-.708-.083-3.04-.1-3.583-.021-.188-.021-.312-.208-.333l-.916-.063c-.063,0-.125-.145-.125-.249,0-.041,0-.063.063-.063l4.041-.645c.125-.021.167.041.167.167-.021.292-.125,2.932-.167,4.061,0,.208-.021.48-.043.708l.1.021c.063-.208.145-.48.188-.584.582-1.854,2.166-4.374,4.207-4.374,1.667,0,2.522,1.562,2.522,4.457,0,1.542-.147,3.479-.229,4.354-.02.208.02.312.229.355Z" transform="translate(-695.459 -264.014)" fill="#fff"/>
        <path id="Path_223" data-name="Path 223" d="M774.772,291.56a.152.152,0,0,1,.188.167c-.041.833-.145,3.708-.167,4.729-.021.933-.063,3.25-.063,4.041,0,.188.041.229.188.267l1.041.208c.041,0,.1.147.1.208s0,.063-.041.063c-.5-.02-1.479-.041-2.6-.041-1.146,0-2.125.021-2.542.041-.063,0-.063-.02-.063-.041,0-.083.043-.208.105-.229l.978-.229c.145-.041.229-.084.229-.267,0-.458-.063-2.958-.084-3.979-.021-.854-.083-3.066-.105-3.583-.02-.167-.041-.312-.229-.312l-.933-.041c-.063,0-.145-.145-.145-.267,0-.021,0-.041.041-.041Zm-1.519-3.792a1.353,1.353,0,0,1,1.415,1.354,1.51,1.51,0,1,1-1.437-1.353Z" transform="translate(-702.019 -262.056)" fill="#fff"/>
        <path id="Path_224" data-name="Path 224" d="M786.381,297.581a7.416,7.416,0,0,0-.188-1.272c-.249-.958-.833-1.75-1.833-1.75a4.585,4.585,0,0,0-3.02,1.376c-.021.02-.043.041-.063.041-.063,0-.229-.251-.125-.355a6.426,6.426,0,0,1,4.874-2.1c2.791,0,3.229,2.354,3.229,4.457,0,.4-.043,1.583-.083,2.291-.043.933-.084,1.854-.084,2.187,0,.145.041.208.208.249l.874.208a.231.231,0,0,1,.125.208c0,.041-.021.063-.083.063-.251-.021-1.1-.021-1.917-.021-.709,0-1.146,0-1.5.021-.063,0-.1-.021-.1-.1-.02-.167-.063-.917-.063-1.376,0-.1-.021-.417-.021-.584l-.063-.041c-.083.167-.188.355-.292.521a3.833,3.833,0,0,1-3.312,1.733,2.666,2.666,0,0,1-2.771-2.791,3.666,3.666,0,0,1,3.9-3.812,3.056,3.056,0,0,1,1.811.542,2.874,2.874,0,0,1,.417.333Zm-1.875,4.686c.813,0,1.563-.792,1.958-1.938a2.289,2.289,0,0,0,.145-.75,2.069,2.069,0,0,0-.188-.79,2.177,2.177,0,0,0-1.811-1.542c-1.066,0-1.542,1.354-1.542,2.771,0,1.458.584,2.25,1.417,2.25Z" transform="translate(-705.274 -264.016)" fill="#fff"/>
        <path id="Path_225" data-name="Path 225" d="M678.262,329.63c0,.083-.167.167-.249.167-.02,0-.043-.021-.063-.041l-.916-2.1a.64.64,0,0,0-.417-.417,15.259,15.259,0,0,0-2.542-.333c-.063,1.229-.145,4.749-.187,5.854-.02,1.166-.083,5.065-.083,5.9,0,.208.083.249.229.267l1.041.188c.063,0,.1.124.1.249,0,.041,0,.061-.063.061-.458-.02-1.6-.041-2.811-.041-1.1,0-2.125.021-2.583.041-.063,0-.063-.02-.063-.041,0-.1.043-.267.1-.267l1.066-.209c.145-.02.167-.083.167-.292.021-.833-.061-4.958-.083-5.937,0-.833-.084-4.708-.105-5.77a17.32,17.32,0,0,0-2.5.312.725.725,0,0,0-.458.437l-.969,2.081c-.02.041-.041.063-.083.063-.063,0-.249-.1-.249-.167l.208-3.066a.133.133,0,0,1,.147-.147c.167,0,.562.021,1.417.063.874.021,2.187.063,4.145.063,1.9,0,3.208-.02,4.083-.063.874-.021,1.313-.041,1.458-.041.084,0,.124.041.124.145Z" transform="translate(-666.551 -275.231)" fill="#fff"/>
        <path id="Path_226" data-name="Path 226" d="M691.571,332.309c-.063,0-.125-.125-.125-.208,0-.043,0-.084.063-.1l3.708-.521c.1-.021.167.041.167.167-.021.77,0,3.957,0,4.79,0,.978.063,3.312.1,3.853.021.187.063.292.25.333l.792.209c.063.02.105.188.105.249,0,.02,0,.041-.063.041-.541-.021-1.208-.021-2.021-.021-.708,0-1.375,0-1.791.021-.083,0-.125-.063-.125-.208,0-.249-.02-1.979,0-2.771v-.646h-.111c-.083.229-.125.417-.187.541-.833,2.042-2.062,3.228-3.812,3.228-1.5,0-2.728-1.229-2.728-4.292a37.871,37.871,0,0,1,.292-4.249c.021-.251-.041-.354-.229-.354h-.874c-.083,0-.167-.167-.167-.267,0-.043.021-.063.084-.063l3.687-.562c.127-.021.167.041.167.187-.02.666-.124,3.083-.124,4.083,0,2.854.4,4.1,1.375,4.1,1.249,0,2.291-2.146,2.6-4.958.063-.541.1-1.687.1-2.083,0-.267-.063-.4-.208-.417Z" transform="translate(-672.776 -276.949)" fill="#fff"/>
        <path id="Path_227" data-name="Path 227" d="M715.674,340.858c.063,0,.105.145.105.229,0,.021,0,.041-.043.041-.708-.02-1.437-.041-2.646-.041-1.188,0-2.083.021-2.6.041-.041,0-.061-.02-.061-.041,0-.063.041-.229.1-.229l1-.229a.292.292,0,0,0,.251-.292c.043-.437.1-2.062.1-3.02,0-1.813-.249-3.916-1.417-3.916-1,0-2.019,1.582-2.646,4.124a14.2,14.2,0,0,0-.312,2.834c0,.187.063.249.188.267l1.021.229c.063,0,.1.145.1.229,0,.021-.02.041-.063.041-.812-.02-1.479-.041-2.6-.041s-1.917.021-2.54.041c-.043,0-.043-.02-.043-.041,0-.083.043-.229.1-.249l1.066-.187c.125-.043.188-.105.188-.292,0-.625-.043-3.066-.043-3.979-.02-.709-.083-3.042-.1-3.583-.02-.188-.02-.312-.208-.333l-.917-.063c-.063,0-.124-.147-.124-.249,0-.043,0-.063.063-.063l4.041-.646c.125-.021.167.041.167.167-.02.292-.124,2.932-.167,4.061,0,.208-.021.48-.041.709l.1.02c.063-.208.145-.48.188-.584.584-1.854,2.166-4.374,4.208-4.374,1.666,0,2.52,1.562,2.52,4.458,0,1.541-.147,3.479-.229,4.353-.02.208.021.312.229.355Z" transform="translate(-679.152 -276.939)" fill="#fff"/>
        <path id="Path_228" data-name="Path 228" d="M726.923,329.485a.152.152,0,0,1,.187.167c-.041.833-.145,3.708-.167,4.728-.021.933-.063,3.25-.063,4.041,0,.187.043.229.188.267l1.041.208c.041,0,.1.145.1.208,0,.041,0,.061-.041.061-.5-.02-1.479-.041-2.6-.041-1.146,0-2.126.021-2.542.041-.063,0-.063-.02-.063-.041,0-.083.041-.208.1-.229l.978-.229c.145-.041.229-.084.229-.267,0-.458-.063-2.958-.084-3.979-.02-.854-.083-3.066-.1-3.583-.02-.167-.041-.312-.229-.312l-.933-.041c-.061,0-.145-.145-.145-.267,0-.02,0-.041.041-.041Zm-1.521-3.792a1.354,1.354,0,0,1,1.417,1.354,1.5,1.5,0,1,1-1.437-1.356Z" transform="translate(-685.712 -274.981)" fill="#fff"/>
        <path id="Path_229" data-name="Path 229" d="M732.752,334.7c0-1.6,2.125-3.25,5.145-3.25a5.218,5.218,0,0,1,1.9.249c.063.063.1.1.1.187l.187,2.125c0,.083-.187.208-.266.208-.041,0-.063,0-.084-.063-.312-.521-.6-1.041-.916-1.583a1.425,1.425,0,0,0-.354-.354,2.685,2.685,0,0,0-1.333-.292,1.647,1.647,0,0,0-1.811,1.479c0,.833.563,1.27,2.1,1.833,1.958.666,2.979,1.354,2.979,2.687,0,1.979-2.167,3.332-5.541,3.332a7.128,7.128,0,0,1-1.875-.249.234.234,0,0,1-.147-.208l-.167-2.167c0-.1.209-.187.267-.187a.083.083,0,0,1,.083.041c.293.521.605,1.125.933,1.646a1.207,1.207,0,0,0,.375.355,2.884,2.884,0,0,0,1.313.312c1.249,0,2.25-.541,2.25-1.521,0-.9-.6-1.333-2.292-1.9-2.062-.645-2.854-1.417-2.854-2.666Z" transform="translate(-689.082 -276.943)" fill="#fff"/>
        <path id="Path_230" data-name="Path 230" d="M750.12,329.485a.152.152,0,0,1,.188.167c-.041.833-.145,3.708-.167,4.728-.021.933-.063,3.25-.063,4.041,0,.187.041.229.188.267l1.041.208c.041,0,.1.145.1.208,0,.041,0,.061-.041.061-.5-.02-1.479-.041-2.6-.041-1.146,0-2.125.021-2.542.041-.063,0-.063-.02-.063-.041,0-.083.041-.208.1-.229l.98-.229c.145-.041.229-.084.229-.267,0-.458-.063-2.958-.084-3.979-.02-.854-.083-3.066-.1-3.583-.02-.167-.041-.312-.229-.312l-.933-.041c-.063,0-.145-.145-.145-.267,0-.02,0-.041.041-.041Zm-1.521-3.792a1.354,1.354,0,0,1,1.417,1.354,1.5,1.5,0,1,1-1.437-1.356Z" transform="translate(-693.617 -274.981)" fill="#fff"/>
        <path id="Path_231" data-name="Path 231" d="M761.728,335.506a7.43,7.43,0,0,0-.188-1.27c-.249-.958-.833-1.75-1.833-1.75a4.592,4.592,0,0,0-3.02,1.376c-.021.02-.041.041-.063.041-.063,0-.229-.249-.125-.354a6.427,6.427,0,0,1,4.874-2.1c2.792,0,3.228,2.354,3.228,4.458,0,.4-.041,1.582-.083,2.291-.041.933-.084,1.854-.084,2.187,0,.145.043.208.209.249l.874.208a.229.229,0,0,1,.125.208c0,.041-.02.063-.083.063-.251-.021-1.1-.021-1.917-.021-.709,0-1.145,0-1.5.021-.063,0-.105-.021-.105-.1-.02-.167-.061-.916-.061-1.375,0-.1-.021-.417-.021-.583l-.063-.043c-.083.167-.188.355-.292.521a3.832,3.832,0,0,1-3.312,1.733,2.666,2.666,0,0,1-2.771-2.791,3.665,3.665,0,0,1,3.9-3.812,3.065,3.065,0,0,1,1.811.541,2.92,2.92,0,0,1,.417.333Zm-1.875,4.686c.813,0,1.562-.79,1.958-1.937a2.293,2.293,0,0,0,.145-.749,2.062,2.062,0,0,0-.188-.792,2.174,2.174,0,0,0-1.813-1.541c-1.066,0-1.542,1.354-1.542,2.77,0,1.458.584,2.25,1.417,2.25Z" transform="translate(-696.871 -276.942)" fill="#fff"/>
        <path id="Path_232" data-name="Path 232" d="M676.688,373.324c0,2.416-2.291,4.124-6.332,4.124a8.513,8.513,0,0,1-2.291-.229.245.245,0,0,1-.188-.208l-.312-2.832c-.02-.063.208-.208.267-.208.041,0,.063.02.083.061.4.709.77,1.458,1.166,2.125a1.241,1.241,0,0,0,.5.48,2.6,2.6,0,0,0,1.417.333c1.791,0,3.146-.874,3.146-2.229,0-1.25-.9-2-3.042-2.812-2.209-.833-3.312-1.854-3.312-3.436,0-2.187,2.583-4.208,6.04-4.208a5.616,5.616,0,0,1,2.062.292c.105.041.145.083.145.188l.251,2.708c0,.063-.188.188-.267.188-.041,0-.063,0-.084-.041-.4-.749-.79-1.5-1.208-2.229a.872.872,0,0,0-.4-.375,2.251,2.251,0,0,0-1.125-.249,2.532,2.532,0,0,0-2.75,2.266c0,1.125.793,1.75,2.562,2.624,1.958.9,3.667,1.833,3.667,3.645Z" transform="translate(-666.894 -288.133)" fill="#fff"/>
        <path id="Path_233" data-name="Path 233" d="M692.8,373.54a.628.628,0,0,1-.417.584,30.035,30.035,0,0,1-5.521.167,6.984,6.984,0,0,0,.1,1.417,2.994,2.994,0,0,0,2.73,2.542,6.647,6.647,0,0,0,1.4-.147,7.779,7.779,0,0,0,1.521-.541c.041-.021.1.1.1.251,0,.063-.041.083-.083.125a11.038,11.038,0,0,1-2.4,1.041,5.63,5.63,0,0,1-1.833.208c-2.624,0-4.562-1.229-4.562-4.292a5.3,5.3,0,0,1,5-5.519,3.98,3.98,0,0,1,3.957,4.145Zm-4.333-3.749c-.813,0-1.645,1.229-1.6,4.124a10.166,10.166,0,0,0,2.687-.125c.167-.083.292-.229.292-.666,0-1.125-.251-3.353-1.354-3.353Z" transform="translate(-672.443 -289.865)" fill="#fff"/>
        <path id="Path_234" data-name="Path 234" d="M711.123,378.784c.063,0,.1.147.1.229,0,.021,0,.041-.043.041-.708-.02-1.437-.041-2.644-.041-1.188,0-2.083.021-2.6.041-.041,0-.063-.02-.063-.041,0-.063.041-.229.1-.229l1-.229a.292.292,0,0,0,.249-.292c.043-.437.105-2.062.105-3.02,0-1.813-.249-3.916-1.417-3.916-1,0-2.019,1.583-2.644,4.124a14.24,14.24,0,0,0-.313,2.834c0,.187.063.249.188.267l1.021.229c.063,0,.1.147.1.229,0,.021-.02.041-.063.041-.812-.02-1.479-.041-2.6-.041s-1.917.021-2.54.041c-.043,0-.043-.02-.043-.041,0-.083.043-.229.105-.249l1.066-.188c.125-.041.188-.1.188-.292,0-.625-.041-3.066-.041-3.979-.021-.708-.083-3.04-.105-3.583-.02-.188-.02-.312-.208-.333l-.917-.063c-.061,0-.124-.145-.124-.249,0-.041,0-.061.063-.061l4.041-.646c.125-.021.167.041.167.167-.02.292-.124,2.932-.167,4.061,0,.208-.021.48-.041.708l.1.021c.063-.208.145-.478.188-.584.584-1.854,2.166-4.375,4.208-4.375,1.666,0,2.52,1.562,2.52,4.457,0,1.542-.145,3.479-.229,4.354-.021.208.02.312.229.354Z" transform="translate(-677.6 -289.865)" fill="#fff"/>
        <path id="Path_235" data-name="Path 235" d="M727.946,373.54a.628.628,0,0,1-.417.584,30.039,30.039,0,0,1-5.521.167,6.871,6.871,0,0,0,.1,1.417,2.994,2.994,0,0,0,2.73,2.542,6.649,6.649,0,0,0,1.4-.147,7.782,7.782,0,0,0,1.521-.541c.041-.021.1.1.1.251,0,.063-.041.083-.083.125a11.072,11.072,0,0,1-2.4,1.041,5.634,5.634,0,0,1-1.833.208c-2.624,0-4.562-1.229-4.562-4.292a5.3,5.3,0,0,1,5-5.519,3.98,3.98,0,0,1,3.957,4.145Zm-4.333-3.749c-.812,0-1.645,1.229-1.6,4.124a10.168,10.168,0,0,0,2.687-.125c.167-.083.292-.229.292-.666,0-1.125-.251-3.353-1.354-3.353Z" transform="translate(-684.421 -289.865)" fill="#fff"/>
        <path id="Path_236" data-name="Path 236" d="M734.631,372.994c0-2.1,2.021-3.624,5.041-3.624a20.121,20.121,0,0,1,2.041.125,3.394,3.394,0,0,0,.646.041l2.771-.021a.055.055,0,0,1,.063.063c0,.1-.041.267-.1.267l-2.1.333a2.567,2.567,0,0,1,.98,2.083c0,2.187-1.979,3.271-4.333,3.625-.229.041-.645.124-1.041.229-.874.208-1.292.417-1.292.688,0,.333.729.458,3.02.709,3.126.333,4.665.833,4.665,2.187,0,1.77-1.833,3.312-6.228,3.312-2.583,0-4.916-.582-4.916-2.021,0-.833.624-1.125,3.457-2.312a10.435,10.435,0,0,1-1.874-.6.976.976,0,0,1-.5-.978.279.279,0,0,1,.187-.292c.978-.333,1.813-.6,2.687-.9a3.136,3.136,0,0,1-3.167-2.9Zm4.916,9.6c1.771,0,2.583-.793,2.6-1.733,0-1.188-1.521-1.542-4.02-2-.313-.041-.375-.063-.5.041a2,2,0,0,0-.812,1.666c0,1.208,1.166,2.021,2.708,2.021Zm-.249-7.042c1.066,0,1.707-.812,1.707-2.916,0-1.583-.458-2.895-1.6-2.895-1.313,0-1.791,1.188-1.791,3.02,0,1.645.728,2.791,1.666,2.791Z" transform="translate(-689.483 -289.867)" fill="#fff"/>
        <path id="Path_237" data-name="Path 237" d="M758.063,373.433a7.393,7.393,0,0,0-.188-1.27c-.249-.96-.833-1.75-1.833-1.75a4.588,4.588,0,0,0-3.02,1.376c-.021.02-.041.041-.063.041-.063,0-.229-.251-.125-.355a6.428,6.428,0,0,1,4.874-2.1c2.791,0,3.228,2.354,3.228,4.457,0,.4-.041,1.583-.083,2.291-.041.933-.084,1.854-.084,2.187,0,.145.043.208.209.249l.874.208a.229.229,0,0,1,.124.208c0,.041-.02.063-.083.063-.251-.021-1.1-.021-1.917-.021-.709,0-1.146,0-1.5.021-.063,0-.105-.021-.105-.1-.02-.167-.061-.917-.061-1.376,0-.1-.021-.417-.021-.584l-.061-.041c-.083.167-.187.355-.292.521a3.833,3.833,0,0,1-3.312,1.733,2.666,2.666,0,0,1-2.771-2.791,3.665,3.665,0,0,1,3.9-3.812,3.057,3.057,0,0,1,1.811.542,2.912,2.912,0,0,1,.417.333Zm-1.875,4.686c.812,0,1.562-.792,1.958-1.937a2.287,2.287,0,0,0,.145-.75,2.057,2.057,0,0,0-.187-.79,2.175,2.175,0,0,0-1.813-1.542c-1.066,0-1.542,1.354-1.542,2.771,0,1.458.584,2.25,1.417,2.25Z" transform="translate(-695.623 -289.867)" fill="#fff"/>
        <path id="Path_238" data-name="Path 238" d="M771.893,362.541c.125-.021.167.021.167.167,0,.267-.146,4.374-.187,6.8-.021,1.5-.105,6.082-.105,6.479,0,.187.063.229.209.267l1.082.188c.063,0,.125.145.125.249,0,.021,0,.041-.041.041-.542-.02-1.542-.041-2.771-.041-1.145,0-2.042.021-2.479.041a.055.055,0,0,1-.062-.063c0-.061.041-.208.125-.229l1.021-.188c.145-.041.229-.083.229-.249.041-.584-.063-5.562-.063-6.291,0-.75-.1-5.166-.125-6.021,0-.188-.063-.292-.249-.292l-1.229-.061c-.083,0-.167-.145-.167-.249,0-.043,0-.084.063-.084Z" transform="translate(-700.91 -287.538)" fill="#fff"/>
      </g>
    </g>
  </g>
</svg>
