<svg xmlns="http://www.w3.org/2000/svg" xmlns:xlink="http://www.w3.org/1999/xlink" width="198" height="198" viewBox="0 0 198 198">
  <defs>
    <clipPath id="clip-Plan_de_travail_13">
      <rect width="198" height="198"/>
    </clipPath>
  </defs>
  <g id="Plan_de_travail_13" data-name="Plan de travail – 13" clip-path="url(#clip-Plan_de_travail_13)">
    <g id="Groupe_442" data-name="Groupe 442" transform="translate(-75.507 -166.423)">
      <g id="Groupe_437" data-name="Groupe 437" transform="translate(96.536 247.166)">
        <g id="Groupe_436" data-name="Groupe 436">
          <path id="Tracé_2634" data-name="Tracé 2634" d="M141.89,285.034c0,.313-.627.626-.94.626-.078,0-.157-.078-.235-.157l-3.446-7.911a2.4,2.4,0,0,0-1.566-1.566,57.172,57.172,0,0,0-9.555-1.253c-.235,4.621-.549,17.856-.706,22.008-.078,4.385-.313,19.031-.313,22.164,0,.783.313.94.862,1.018l3.916.706c.235,0,.391.469.391.94,0,.157,0,.235-.235.235-1.723-.079-6.03-.157-10.574-.157-4.151,0-7.988.079-9.711.157-.235,0-.235-.079-.235-.157,0-.391.157-1.018.392-1.018l3.994-.784c.549-.078.627-.313.627-1.1.079-3.132-.235-18.64-.313-22.321,0-3.132-.313-17.7-.391-21.694a64.656,64.656,0,0,0-9.4,1.175,2.725,2.725,0,0,0-1.723,1.644l-3.6,7.833c-.078.157-.156.235-.313.235-.235,0-.94-.392-.94-.626l.784-11.513a.494.494,0,0,1,.547-.548c.628,0,2.115.078,5.325.235,3.29.078,8.224.235,15.586.235,7.127,0,12.061-.078,15.35-.235,3.29-.079,4.935-.157,5.483-.157.313,0,.47.157.47.548Z" transform="translate(-97.875 -272.973)" fill="#081d82"/>
          <path id="Tracé_2635" data-name="Tracé 2635" d="M179.27,273.442c2.742,0,4.857.079,6.58.157a.815.815,0,0,1,.626.313c2.506,8.458,10.574,35.479,13.706,45.111a1.643,1.643,0,0,0,1.018,1.018l2.9.784c.235.078.392.469.392,1.018,0,.079-.078.157-.235.157-1.645,0-5.4-.157-9.32-.157-4.385,0-8.615.079-10.73.157-.235,0-.235-.079-.235-.157,0-.47.235-1.018.47-1.1l4.229-.7c.627-.078.706-.626.548-1.253-.862-2.585-3.759-10.1-4.621-12.766-3.524.079-12.609.313-16.682.626-.235,0-.47.235-.548.627-.47,2.271-1.959,8.615-2.428,11.434-.079.94.235,1.175.783,1.332l4.072.784c.235,0,.471.547.471,1.018,0,.157-.079.157-.235.157-1.959-.079-5.091-.157-8.224-.157-2.663,0-5.013.079-6.578.157-.157,0-.157-.079-.157-.235,0-.235.157-.94.392-1.018l1.958-.627c.626-.156,1.018-.469,1.41-1.41,3.838-9.4,11.983-33.442,15.507-43,.7-1.881,1.722-2.272,4.855-2.272Zm-4.228,6.188a27.139,27.139,0,0,0-.784,2.663c-1.958,6.5-4.465,15.586-5.952,20.99a.427.427,0,0,0,.391.548,146.337,146.337,0,0,0,15.35.7c-1.331-3.758-5.4-15.115-7.518-22.164-.235-.7-.548-1.644-1.018-2.741Z" transform="translate(-116.929 -273.129)" fill="#081d82"/>
          <path id="Tracé_2636" data-name="Tracé 2636" d="M247.349,318.319c.235-.862.549-1.723.783-2.507,2.82-10.338,7.128-26.785,9.634-37.749.47-2.271.783-2.428,5.247-2.819a22.415,22.415,0,0,1,2.819-.235.686.686,0,0,1,.7.548c2.585,9.633,7.2,30.153,9.633,40.726a17.892,17.892,0,0,0,.7,2.193h.391c.235-.627.47-1.644.626-2.271,2.271-9.79,5.64-27.02,7.362-39.238q.118-1.292-.7-1.41l-3.682-.548c-.313-.078-.469-.7-.469-1.1,0-.156,0-.235.156-.235h15.037a.208.208,0,0,1,.235.235c0,.392-.157.94-.391,1.019l-1.723.547a1.738,1.738,0,0,0-1.41,1.41c-2.193,7.675-10.808,35.714-13.705,43.076-.549,1.723-1.019,1.88-6.892,2.037h-3.132a.837.837,0,0,1-.706-.549c-2.428-7.753-5.952-18.326-7.753-25.375-.313-1.018-.7-2.819-1.175-4.465h-.47c-.47,1.723-1.1,3.76-1.566,5.247-1.723,5.091-5.874,17.465-8.3,23.183-.7,1.644-1.1,1.8-7.91,1.958h-2.428c-.391,0-.548-.157-.7-.627-2.272-7.675-7.754-31.327-10.808-44.955-.157-.548-.391-.94-.94-1.018l-2.037-.391c-.235-.078-.47-.7-.47-1.1a.208.208,0,0,1,.235-.235h21.382c.234,0,.234.079.234.313,0,.313-.234.94-.547,1.018l-3.916.548a.958.958,0,0,0-.783,1.175c1.253,8.458,4.543,28.43,6.422,38.924.157.626.392,1.723.548,2.663Z" transform="translate(-139.662 -273.208)" fill="#081d82"/>
        </g>
      </g>
      <g id="Groupe_438" data-name="Groupe 438" transform="translate(98.368 195.509)">
        <path id="Tracé_2637" data-name="Tracé 2637" d="M256.322,211.015a2.1,2.1,0,1,1,2.406,1.477A2,2,0,0,1,256.322,211.015Z" transform="translate(-152.486 -199.921)" fill="#e3a437"/>
        <path id="Tracé_2638" data-name="Tracé 2638" d="M248.3,212.311a2.1,2.1,0,1,1,2.352,1.558A2,2,0,0,1,248.3,212.311Z" transform="translate(-149.818 -200.377)" fill="#e3a437"/>
        <path id="Tracé_2639" data-name="Tracé 2639" d="M240.254,213.334a2.1,2.1,0,1,1,2.3,1.636A2,2,0,0,1,240.254,213.334Z" transform="translate(-147.139 -200.742)" fill="#e3a437"/>
        <path id="Tracé_2640" data-name="Tracé 2640" d="M232.182,214.085a2.1,2.1,0,0,1,4.156-.352,2.1,2.1,0,0,1-4.156.352Z" transform="translate(-144.451 -201.016)" fill="#e3a437"/>
        <path id="Tracé_2641" data-name="Tracé 2641" d="M224.094,214.564a2.094,2.094,0,1,1,2.178,1.787A2,2,0,0,1,224.094,214.564Z" transform="translate(-141.758 -201.199)" fill="#e3a437"/>
        <path id="Tracé_2642" data-name="Tracé 2642" d="M216,214.77a2.094,2.094,0,1,1,2.117,1.86A2,2,0,0,1,216,214.77Z" transform="translate(-139.06 -201.291)" fill="#e3a437"/>
        <path id="Tracé_2643" data-name="Tracé 2643" d="M207.9,214.7a2.094,2.094,0,1,1,2.053,1.929A2,2,0,0,1,207.9,214.7Z" transform="translate(-136.362 -201.292)" fill="#e3a437"/>
        <path id="Tracé_2644" data-name="Tracé 2644" d="M199.805,214.364a2.094,2.094,0,1,1,1.987,2A2,2,0,0,1,199.805,214.364Z" transform="translate(-133.665 -201.202)" fill="#e3a437"/>
        <path id="Tracé_2645" data-name="Tracé 2645" d="M191.724,213.753a2.1,2.1,0,0,1,4.157.349,2.1,2.1,0,0,1-4.157-.349Z" transform="translate(-130.971 -201.022)" fill="#e3a437"/>
        <path id="Tracé_2646" data-name="Tracé 2646" d="M183.662,212.869A2.1,2.1,0,1,1,185.514,215,2,2,0,0,1,183.662,212.869Z" transform="translate(-128.283 -200.75)" fill="#e3a437"/>
        <path id="Tracé_2647" data-name="Tracé 2647" d="M175.626,211.712a2.1,2.1,0,0,1,4.131.629,2.1,2.1,0,0,1-4.131-.629Z" transform="translate(-125.603 -200.388)" fill="#e3a437"/>
        <path id="Tracé_2648" data-name="Tracé 2648" d="M167.623,210.283a2.106,2.106,0,0,1,4.114.769,2.1,2.1,0,0,1-4.114-.769Z" transform="translate(-122.933 -199.934)" fill="#e3a437"/>
        <path id="Tracé_2649" data-name="Tracé 2649" d="M247.208,204.482a2.025,2.025,0,1,1,2.284,1.568A1.965,1.965,0,0,1,247.208,204.482Z" transform="translate(-149.453 -197.773)" fill="#e3a437"/>
        <path id="Tracé_2650" data-name="Tracé 2650" d="M239.423,205.471a2.025,2.025,0,0,1,4.009-.475,2.023,2.023,0,0,1-4.009.475Z" transform="translate(-146.862 -198.125)" fill="#e3a437"/>
        <path id="Tracé_2651" data-name="Tracé 2651" d="M231.617,206.2a2.021,2.021,0,1,1,2.169,1.718A1.943,1.943,0,0,1,231.617,206.2Z" transform="translate(-144.263 -198.39)" fill="#e3a437"/>
        <path id="Tracé_2652" data-name="Tracé 2652" d="M223.794,206.661a2.02,2.02,0,1,1,2.11,1.79A1.962,1.962,0,0,1,223.794,206.661Z" transform="translate(-141.658 -198.567)" fill="#e3a437"/>
        <path id="Tracé_2653" data-name="Tracé 2653" d="M215.964,206.86a2.019,2.019,0,1,1,2.048,1.86A1.962,1.962,0,0,1,215.964,206.86Z" transform="translate(-139.049 -198.656)" fill="#e3a437"/>
        <path id="Tracé_2654" data-name="Tracé 2654" d="M208.131,206.8a2.02,2.02,0,1,1,1.985,1.928A1.962,1.962,0,0,1,208.131,206.8Z" transform="translate(-136.439 -198.658)" fill="#e3a437"/>
        <path id="Tracé_2655" data-name="Tracé 2655" d="M200.3,206.467a2.02,2.02,0,1,1,1.919,1.994A1.962,1.962,0,0,1,200.3,206.467Z" transform="translate(-133.83 -198.571)" fill="#e3a437"/>
        <path id="Tracé_2656" data-name="Tracé 2656" d="M192.488,205.876a2.023,2.023,0,0,1,4.02.337,2.021,2.021,0,0,1-4.02-.337Z" transform="translate(-131.225 -198.396)" fill="#e3a437"/>
        <path id="Tracé_2657" data-name="Tracé 2657" d="M184.69,205.021a2.024,2.024,0,0,1,4.009.473,2.022,2.022,0,0,1-4.009-.473Z" transform="translate(-128.625 -198.133)" fill="#e3a437"/>
        <path id="Tracé_2658" data-name="Tracé 2658" d="M176.918,203.9a2.025,2.025,0,1,1,1.713,2.178A1.965,1.965,0,0,1,176.918,203.9Z" transform="translate(-126.033 -197.783)" fill="#e3a437"/>
        <path id="Tracé_2659" data-name="Tracé 2659" d="M238.592,197.61a1.952,1.952,0,0,1,3.873-.46,1.951,1.951,0,0,1-3.873.46Z" transform="translate(-146.585 -195.509)" fill="#e3a437"/>
        <path id="Tracé_2660" data-name="Tracé 2660" d="M231.051,198.311a1.95,1.95,0,0,1,3.883-.329,1.949,1.949,0,0,1-3.883.329Z" transform="translate(-144.074 -195.765)" fill="#e3a437"/>
        <path id="Tracé_2661" data-name="Tracé 2661" d="M223.494,198.757a1.949,1.949,0,0,1,3.89-.2,1.948,1.948,0,0,1-3.89.2Z" transform="translate(-141.558 -195.935)" fill="#e3a437"/>
        <path id="Tracé_2662" data-name="Tracé 2662" d="M215.93,198.949a1.949,1.949,0,0,1,3.894-.067,1.948,1.948,0,0,1-3.894.067Z" transform="translate(-139.038 -196.021)" fill="#e3a437"/>
        <path id="Tracé_2663" data-name="Tracé 2663" d="M208.364,198.887a1.948,1.948,0,0,1,3.893.064,1.947,1.947,0,0,1-3.893-.064Z" transform="translate(-136.517 -196.022)" fill="#e3a437"/>
        <path id="Tracé_2664" data-name="Tracé 2664" d="M200.8,198.571a1.949,1.949,0,0,1,3.89.195,1.948,1.948,0,0,1-3.89-.195Z" transform="translate(-133.996 -195.939)" fill="#e3a437"/>
        <path id="Tracé_2665" data-name="Tracé 2665" d="M193.251,198a1.95,1.95,0,0,1,3.884.325,1.949,1.949,0,0,1-3.884-.325Z" transform="translate(-131.479 -195.77)" fill="#e3a437"/>
        <path id="Tracé_2666" data-name="Tracé 2666" d="M185.718,197.175a1.952,1.952,0,0,1,3.873.456,1.951,1.951,0,0,1-3.873-.456Z" transform="translate(-128.967 -195.517)" fill="#e3a437"/>
        <path id="Tracé_2667" data-name="Tracé 2667" d="M257.545,218.017a2.172,2.172,0,1,1,2.467,1.466A2.041,2.041,0,0,1,257.545,218.017Z" transform="translate(-152.894 -202.25)" fill="#e3a437"/>
        <path id="Tracé_2668" data-name="Tracé 2668" d="M265.763,216.4a2.176,2.176,0,1,1,2.518,1.381A2.044,2.044,0,0,1,265.763,216.4Z" transform="translate(-155.628 -201.686)" fill="#e3a437"/>
        <path id="Tracé_2669" data-name="Tracé 2669" d="M249.288,219.352A2.168,2.168,0,1,1,251.7,220.9,2.039,2.039,0,0,1,249.288,219.352Z" transform="translate(-150.146 -202.719)" fill="#e3a437"/>
        <path id="Tracé_2670" data-name="Tracé 2670" d="M241,220.406a2.166,2.166,0,1,1,2.357,1.63A2.038,2.038,0,0,1,241,220.406Z" transform="translate(-147.388 -203.095)" fill="#e3a437"/>
        <path id="Tracé_2671" data-name="Tracé 2671" d="M232.691,221.179a2.164,2.164,0,1,1,2.3,1.708A2.037,2.037,0,0,1,232.691,221.179Z" transform="translate(-144.62 -203.378)" fill="#e3a437"/>
        <path id="Tracé_2672" data-name="Tracé 2672" d="M224.363,221.672a2.163,2.163,0,1,1,2.24,1.784A2.038,2.038,0,0,1,224.363,221.672Z" transform="translate(-141.847 -203.566)" fill="#e3a437"/>
        <path id="Tracé_2673" data-name="Tracé 2673" d="M216.028,221.884a2.162,2.162,0,1,1,2.178,1.859A2.037,2.037,0,0,1,216.028,221.884Z" transform="translate(-139.071 -203.661)" fill="#e3a437"/>
        <path id="Tracé_2674" data-name="Tracé 2674" d="M207.69,221.815a2.162,2.162,0,1,1,2.115,1.931A2.037,2.037,0,0,1,207.69,221.815Z" transform="translate(-136.292 -203.662)" fill="#e3a437"/>
        <path id="Tracé_2675" data-name="Tracé 2675" d="M199.357,221.467a2.167,2.167,0,0,1,4.287.214,2.163,2.163,0,0,1-4.287-.214Z" transform="translate(-133.515 -203.57)" fill="#e3a437"/>
        <path id="Tracé_2676" data-name="Tracé 2676" d="M191.038,220.837a2.164,2.164,0,1,1,1.981,2.069A2.037,2.037,0,0,1,191.038,220.837Z" transform="translate(-130.742 -203.384)" fill="#e3a437"/>
        <path id="Tracé_2677" data-name="Tracé 2677" d="M182.738,219.926a2.166,2.166,0,1,1,1.913,2.135A2.039,2.039,0,0,1,182.738,219.926Z" transform="translate(-127.975 -203.104)" fill="#e3a437"/>
        <path id="Tracé_2678" data-name="Tracé 2678" d="M174.465,218.735a2.173,2.173,0,0,1,4.253.647,2.168,2.168,0,0,1-4.253-.647Z" transform="translate(-125.216 -202.73)" fill="#e3a437"/>
        <path id="Tracé_2679" data-name="Tracé 2679" d="M166.226,217.264a2.176,2.176,0,0,1,4.235.792,2.172,2.172,0,0,1-4.235-.792Z" transform="translate(-122.468 -202.263)" fill="#e3a437"/>
        <path id="Tracé_2680" data-name="Tracé 2680" d="M158.029,215.511a2.18,2.18,0,0,1,4.212.936,2.176,2.176,0,0,1-4.212-.936Z" transform="translate(-119.733 -201.702)" fill="#e3a437"/>
        <path id="Tracé_2681" data-name="Tracé 2681" d="M258.9,225.8a2.251,2.251,0,1,1,2.535,1.454A2.083,2.083,0,0,1,258.9,225.8Z" transform="translate(-153.347 -204.837)" fill="#e3a437"/>
        <path id="Tracé_2682" data-name="Tracé 2682" d="M267.384,224.133a2.255,2.255,0,1,1,2.585,1.367A2.086,2.086,0,0,1,267.384,224.133Z" transform="translate(-156.169 -204.256)" fill="#e3a437"/>
        <path id="Tracé_2683" data-name="Tracé 2683" d="M275.819,222.176a2.26,2.26,0,1,1,2.634,1.278A2.087,2.087,0,0,1,275.819,222.176Z" transform="translate(-158.975 -203.577)" fill="#e3a437"/>
        <path id="Tracé_2684" data-name="Tracé 2684" d="M250.383,227.178a2.248,2.248,0,1,1,2.481,1.539A2.081,2.081,0,0,1,250.383,227.178Z" transform="translate(-150.511 -205.323)" fill="#e3a437"/>
        <path id="Tracé_2685" data-name="Tracé 2685" d="M241.832,228.266a2.245,2.245,0,1,1,2.425,1.622A2.081,2.081,0,0,1,241.832,228.266Z" transform="translate(-147.664 -205.711)" fill="#e3a437"/>
        <path id="Tracé_2686" data-name="Tracé 2686" d="M233.256,229.064a2.243,2.243,0,1,1,2.368,1.7A2.079,2.079,0,0,1,233.256,229.064Z" transform="translate(-144.809 -206.003)" fill="#e3a437"/>
        <path id="Tracé_2687" data-name="Tracé 2687" d="M224.663,229.573a2.241,2.241,0,1,1,2.308,1.781A2.078,2.078,0,0,1,224.663,229.573Z" transform="translate(-141.947 -206.198)" fill="#e3a437"/>
        <path id="Tracé_2688" data-name="Tracé 2688" d="M216.062,229.792a2.24,2.24,0,1,1,2.246,1.859A2.079,2.079,0,0,1,216.062,229.792Z" transform="translate(-139.082 -206.295)" fill="#e3a437"/>
        <path id="Tracé_2689" data-name="Tracé 2689" d="M207.458,229.721a2.241,2.241,0,1,1,2.183,1.933A2.079,2.079,0,0,1,207.458,229.721Z" transform="translate(-136.215 -206.297)" fill="#e3a437"/>
        <path id="Tracé_2690" data-name="Tracé 2690" d="M198.859,229.361a2.241,2.241,0,1,1,2.117,2.005A2.079,2.079,0,0,1,198.859,229.361Z" transform="translate(-133.35 -206.201)" fill="#e3a437"/>
        <path id="Tracé_2691" data-name="Tracé 2691" d="M190.274,228.711a2.243,2.243,0,1,1,2.05,2.075A2.08,2.08,0,0,1,190.274,228.711Z" transform="translate(-130.488 -206.009)" fill="#e3a437"/>
        <path id="Tracé_2692" data-name="Tracé 2692" d="M181.71,227.771a2.245,2.245,0,1,1,1.981,2.143A2.081,2.081,0,0,1,181.71,227.771Z" transform="translate(-127.633 -205.72)" fill="#e3a437"/>
        <path id="Tracé_2693" data-name="Tracé 2693" d="M173.173,226.542a2.253,2.253,0,0,1,4.389.667,2.247,2.247,0,0,1-4.389-.667Z" transform="translate(-124.786 -205.334)" fill="#e3a437"/>
        <path id="Tracé_2694" data-name="Tracé 2694" d="M164.672,225.023a2.251,2.251,0,1,1,1.837,2.273A2.084,2.084,0,0,1,164.672,225.023Z" transform="translate(-121.95 -204.851)" fill="#e3a437"/>
        <path id="Tracé_2695" data-name="Tracé 2695" d="M156.213,223.214a2.261,2.261,0,0,1,4.347.966,2.255,2.255,0,0,1-4.347-.966Z" transform="translate(-119.129 -204.272)" fill="#e3a437"/>
        <path id="Tracé_2696" data-name="Tracé 2696" d="M147.806,221.116a2.26,2.26,0,1,1,1.687,2.394A2.089,2.089,0,0,1,147.806,221.116Z" transform="translate(-116.323 -203.596)" fill="#e3a437"/>
        <path id="Tracé_2697" data-name="Tracé 2697" d="M260.263,233.584a2.333,2.333,0,1,1,2.6,1.442A2.127,2.127,0,0,1,260.263,233.584Z" transform="translate(-153.8 -207.425)" fill="#e3a437"/>
        <path id="Tracé_2698" data-name="Tracé 2698" d="M269.006,231.865a2.338,2.338,0,1,1,2.653,1.352A2.129,2.129,0,0,1,269.006,231.865Z" transform="translate(-156.709 -206.825)" fill="#e3a437"/>
        <path id="Tracé_2699" data-name="Tracé 2699" d="M277.7,229.846a2.343,2.343,0,1,1,2.7,1.26A2.132,2.132,0,0,1,277.7,229.846Z" transform="translate(-159.602 -206.125)" fill="#e3a437"/>
        <path id="Tracé_2700" data-name="Tracé 2700" d="M286.341,227.529a2.349,2.349,0,1,1,2.747,1.167A2.135,2.135,0,0,1,286.341,227.529Z" transform="translate(-162.476 -205.324)" fill="#e3a437"/>
        <path id="Tracé_2701" data-name="Tracé 2701" d="M251.479,235a2.329,2.329,0,1,1,2.549,1.529A2.125,2.125,0,0,1,251.479,235Z" transform="translate(-150.876 -207.926)" fill="#e3a437"/>
        <path id="Tracé_2702" data-name="Tracé 2702" d="M242.663,236.126a2.326,2.326,0,1,1,2.493,1.614A2.123,2.123,0,0,1,242.663,236.126Z" transform="translate(-147.941 -208.327)" fill="#e3a437"/>
        <path id="Tracé_2703" data-name="Tracé 2703" d="M233.822,236.949a2.324,2.324,0,1,1,2.436,1.7A2.122,2.122,0,0,1,233.822,236.949Z" transform="translate(-144.997 -208.628)" fill="#e3a437"/>
        <path id="Tracé_2704" data-name="Tracé 2704" d="M224.964,237.474a2.322,2.322,0,1,1,2.376,1.779A2.121,2.121,0,0,1,224.964,237.474Z" transform="translate(-142.047 -208.829)" fill="#e3a437"/>
        <path id="Tracé_2705" data-name="Tracé 2705" d="M216.1,237.7a2.321,2.321,0,1,1,2.315,1.858A2.121,2.121,0,0,1,216.1,237.7Z" transform="translate(-139.093 -208.93)" fill="#e3a437"/>
        <path id="Tracé_2706" data-name="Tracé 2706" d="M207.226,237.627a2.322,2.322,0,1,1,2.251,1.935A2.122,2.122,0,0,1,207.226,237.627Z" transform="translate(-136.138 -208.931)" fill="#e3a437"/>
        <path id="Tracé_2707" data-name="Tracé 2707" d="M198.362,237.255a2.322,2.322,0,1,1,2.185,2.009A2.122,2.122,0,0,1,198.362,237.255Z" transform="translate(-133.184 -208.832)" fill="#e3a437"/>
        <path id="Tracé_2708" data-name="Tracé 2708" d="M189.511,236.585a2.324,2.324,0,1,1,2.118,2.081A2.123,2.123,0,0,1,189.511,236.585Z" transform="translate(-130.234 -208.634)" fill="#e3a437"/>
        <path id="Tracé_2709" data-name="Tracé 2709" d="M180.682,235.617a2.326,2.326,0,1,1,2.049,2.151A2.125,2.125,0,0,1,180.682,235.617Z" transform="translate(-127.29 -208.336)" fill="#e3a437"/>
        <path id="Tracé_2710" data-name="Tracé 2710" d="M171.882,234.349a2.329,2.329,0,1,1,1.977,2.22A2.126,2.126,0,0,1,171.882,234.349Z" transform="translate(-124.356 -207.938)" fill="#e3a437"/>
        <path id="Tracé_2711" data-name="Tracé 2711" d="M163.118,232.783a2.333,2.333,0,1,1,1.9,2.286A2.127,2.127,0,0,1,163.118,232.783Z" transform="translate(-121.433 -207.44)" fill="#e3a437"/>
        <path id="Tracé_2712" data-name="Tracé 2712" d="M154.4,230.917a2.344,2.344,0,0,1,4.481,1,2.337,2.337,0,0,1-4.481-1Z" transform="translate(-118.524 -206.842)" fill="#e3a437"/>
        <path id="Tracé_2713" data-name="Tracé 2713" d="M145.731,228.754a2.343,2.343,0,1,1,1.754,2.412A2.134,2.134,0,0,1,145.731,228.754Z" transform="translate(-115.633 -206.144)" fill="#e3a437"/>
        <path id="Tracé_2714" data-name="Tracé 2714" d="M137.123,226.291a2.357,2.357,0,0,1,4.423,1.3,2.349,2.349,0,0,1-4.423-1.3Z" transform="translate(-112.76 -205.347)" fill="#e3a437"/>
        <path id="Tracé_2715" data-name="Tracé 2715" d="M261.621,241.367a2.417,2.417,0,1,1,2.669,1.43A2.172,2.172,0,0,1,261.621,241.367Z" transform="translate(-154.253 -210.013)" fill="#e3a437"/>
        <path id="Tracé_2716" data-name="Tracé 2716" d="M270.627,239.6a2.422,2.422,0,1,1,2.72,1.338A2.174,2.174,0,0,1,270.627,239.6Z" transform="translate(-157.25 -209.395)" fill="#e3a437"/>
        <path id="Tracé_2717" data-name="Tracé 2717" d="M279.583,237.517a2.427,2.427,0,1,1,2.768,1.244A2.177,2.177,0,0,1,279.583,237.517Z" transform="translate(-160.23 -208.673)" fill="#e3a437"/>
        <path id="Tracé_2718" data-name="Tracé 2718" d="M288.483,235.129a2.434,2.434,0,1,1,2.813,1.148A2.18,2.18,0,0,1,288.483,235.129Z" transform="translate(-163.19 -207.848)" fill="#e3a437"/>
        <path id="Tracé_2719" data-name="Tracé 2719" d="M297.316,232.435a2.442,2.442,0,1,1,2.857,1.049A2.185,2.185,0,0,1,297.316,232.435Z" transform="translate(-166.128 -206.92)" fill="#e3a437"/>
        <path id="Tracé_2720" data-name="Tracé 2720" d="M252.574,242.831a2.413,2.413,0,1,1,2.617,1.519A2.17,2.17,0,0,1,252.574,242.831Z" transform="translate(-151.241 -210.529)" fill="#e3a437"/>
        <path id="Tracé_2721" data-name="Tracé 2721" d="M243.493,243.986a2.41,2.41,0,1,1,2.562,1.607A2.169,2.169,0,0,1,243.493,243.986Z" transform="translate(-148.218 -210.942)" fill="#e3a437"/>
        <path id="Tracé_2722" data-name="Tracé 2722" d="M234.387,244.834a2.407,2.407,0,1,1,2.5,1.692A2.167,2.167,0,0,1,234.387,244.834Z" transform="translate(-145.186 -211.253)" fill="#e3a437"/>
        <path id="Tracé_2723" data-name="Tracé 2723" d="M225.264,245.375a2.406,2.406,0,1,1,2.445,1.776A2.166,2.166,0,0,1,225.264,245.375Z" transform="translate(-142.147 -211.46)" fill="#e3a437"/>
        <path id="Tracé_2724" data-name="Tracé 2724" d="M216.129,245.608a2.405,2.405,0,1,1,2.383,1.857A2.165,2.165,0,0,1,216.129,245.608Z" transform="translate(-139.104 -211.564)" fill="#e3a437"/>
        <path id="Tracé_2725" data-name="Tracé 2725" d="M206.994,245.532a2.405,2.405,0,1,1,2.319,1.936A2.167,2.167,0,0,1,206.994,245.532Z" transform="translate(-136.06 -211.565)" fill="#e3a437"/>
        <path id="Tracé_2726" data-name="Tracé 2726" d="M197.864,245.15a2.405,2.405,0,1,1,2.254,2.013A2.167,2.167,0,0,1,197.864,245.15Z" transform="translate(-133.018 -211.464)" fill="#e3a437"/>
        <path id="Tracé_2727" data-name="Tracé 2727" d="M188.748,244.46a2.407,2.407,0,1,1,2.187,2.087A2.167,2.167,0,0,1,188.748,244.46Z" transform="translate(-129.98 -211.259)" fill="#e3a437"/>
        <path id="Tracé_2728" data-name="Tracé 2728" d="M179.654,243.461a2.41,2.41,0,1,1,2.117,2.16A2.168,2.168,0,0,1,179.654,243.461Z" transform="translate(-126.948 -210.952)" fill="#e3a437"/>
        <path id="Tracé_2729" data-name="Tracé 2729" d="M170.591,242.155a2.413,2.413,0,1,1,2.045,2.231A2.171,2.171,0,0,1,170.591,242.155Z" transform="translate(-123.926 -210.541)" fill="#e3a437"/>
        <path id="Tracé_2730" data-name="Tracé 2730" d="M161.565,240.542a2.417,2.417,0,1,1,1.972,2.3A2.172,2.172,0,0,1,161.565,240.542Z" transform="translate(-120.916 -210.028)" fill="#e3a437"/>
        <path id="Tracé_2731" data-name="Tracé 2731" d="M152.584,238.62a2.431,2.431,0,0,1,4.616,1.026,2.422,2.422,0,0,1-4.616-1.026Z" transform="translate(-117.92 -209.412)" fill="#e3a437"/>
        <path id="Tracé_2732" data-name="Tracé 2732" d="M143.656,236.391a2.437,2.437,0,0,1,4.588,1.184,2.428,2.428,0,0,1-4.588-1.184Z" transform="translate(-114.942 -208.693)" fill="#e3a437"/>
        <path id="Tracé_2733" data-name="Tracé 2733" d="M134.791,233.853a2.443,2.443,0,0,1,4.555,1.342,2.434,2.434,0,0,1-4.555-1.342Z" transform="translate(-111.984 -207.87)" fill="#e3a437"/>
        <path id="Tracé_2734" data-name="Tracé 2734" d="M125,230.665a2.452,2.452,0,0,1,4.514,1.517A2.442,2.442,0,0,1,125,230.665Z" transform="translate(-108.714 -206.833)" fill="#e3a437"/>
        <path id="Tracé_2735" data-name="Tracé 2735" d="M262.98,249.15a2.5,2.5,0,1,1,2.737,1.417A2.218,2.218,0,0,1,262.98,249.15Z" transform="translate(-154.706 -212.601)" fill="#e3a437"/>
        <path id="Tracé_2736" data-name="Tracé 2736" d="M272.248,247.327a2.508,2.508,0,1,1,2.787,1.323A2.22,2.22,0,0,1,272.248,247.327Z" transform="translate(-157.79 -211.964)" fill="#e3a437"/>
        <path id="Tracé_2737" data-name="Tracé 2737" d="M281.466,245.186a2.514,2.514,0,1,1,2.835,1.227A2.223,2.223,0,0,1,281.466,245.186Z" transform="translate(-160.857 -211.221)" fill="#e3a437"/>
        <path id="Tracé_2738" data-name="Tracé 2738" d="M290.625,242.729a2.522,2.522,0,1,1,2.88,1.129A2.227,2.227,0,0,1,290.625,242.729Z" transform="translate(-163.904 -210.371)" fill="#e3a437"/>
        <path id="Tracé_2739" data-name="Tracé 2739" d="M299.716,239.956a2.53,2.53,0,1,1,2.922,1.028A2.231,2.231,0,0,1,299.716,239.956Z" transform="translate(-166.929 -209.416)" fill="#e3a437"/>
        <path id="Tracé_2740" data-name="Tracé 2740" d="M310.2,236.33a2.541,2.541,0,1,1,2.969.908A2.238,2.238,0,0,1,310.2,236.33Z" transform="translate(-170.414 -208.171)" fill="#e3a437"/>
        <path id="Tracé_2741" data-name="Tracé 2741" d="M253.669,250.657a2.51,2.51,0,0,1,4.8-.734c.173,1.024-.771,2.039-2.111,2.243A2.2,2.2,0,0,1,253.669,250.657Z" transform="translate(-151.606 -213.133)" fill="#e3a437"/>
        <path id="Tracé_2742" data-name="Tracé 2742" d="M244.324,251.846a2.506,2.506,0,0,1,4.813-.571c.138,1.03-.838,2.011-2.183,2.171A2.195,2.195,0,0,1,244.324,251.846Z" transform="translate(-148.495 -213.558)" fill="#e3a437"/>
        <path id="Tracé_2743" data-name="Tracé 2743" d="M234.952,252.719a2.5,2.5,0,0,1,4.825-.409c.1,1.034-.9,1.982-2.253,2.1A2.194,2.194,0,0,1,234.952,252.719Z" transform="translate(-145.374 -213.878)" fill="#e3a437"/>
        <path id="Tracé_2744" data-name="Tracé 2744" d="M225.563,253.276a2.492,2.492,0,1,1,2.513,1.772A2.212,2.212,0,0,1,225.563,253.276Z" transform="translate(-142.247 -214.091)" fill="#e3a437"/>
        <path id="Tracé_2745" data-name="Tracé 2745" d="M216.163,253.516a2.491,2.491,0,1,1,2.452,1.856A2.211,2.211,0,0,1,216.163,253.516Z" transform="translate(-139.116 -214.198)" fill="#e3a437"/>
        <path id="Tracé_2746" data-name="Tracé 2746" d="M206.762,253.438a2.491,2.491,0,1,1,2.388,1.937A2.212,2.212,0,0,1,206.762,253.438Z" transform="translate(-135.983 -214.2)" fill="#e3a437"/>
        <path id="Tracé_2747" data-name="Tracé 2747" d="M197.366,253.044a2.492,2.492,0,1,1,2.322,2.017A2.212,2.212,0,0,1,197.366,253.044Z" transform="translate(-132.852 -214.095)" fill="#e3a437"/>
        <path id="Tracé_2748" data-name="Tracé 2748" d="M187.985,252.333a2.493,2.493,0,1,1,2.255,2.094C188.892,254.315,187.883,253.368,187.985,252.333Z" transform="translate(-129.726 -213.884)" fill="#e3a437"/>
        <path id="Tracé_2749" data-name="Tracé 2749" d="M178.627,251.306a2.5,2.5,0,1,1,2.185,2.169C179.467,253.317,178.489,252.336,178.627,251.306Z" transform="translate(-126.606 -213.568)" fill="#e3a437"/>
        <path id="Tracé_2750" data-name="Tracé 2750" d="M169.3,249.962a2.5,2.5,0,1,1,2.113,2.241C170.072,252,169.127,250.987,169.3,249.962Z" transform="translate(-123.496 -213.145)" fill="#e3a437"/>
        <path id="Tracé_2751" data-name="Tracé 2751" d="M160.01,248.3a2.5,2.5,0,1,1,2.04,2.312C160.716,250.364,159.8,249.318,160.01,248.3Z" transform="translate(-120.398 -212.616)" fill="#e3a437"/>
        <path id="Tracé_2752" data-name="Tracé 2752" d="M150.769,246.323a2.508,2.508,0,1,1,1.965,2.381A2.223,2.223,0,0,1,150.769,246.323Z" transform="translate(-117.316 -211.982)" fill="#e3a437"/>
        <path id="Tracé_2753" data-name="Tracé 2753" d="M141.582,244.028a2.515,2.515,0,1,1,1.888,2.447A2.225,2.225,0,0,1,141.582,244.028Z" transform="translate(-114.251 -211.241)" fill="#e3a437"/>
        <path id="Tracé_2754" data-name="Tracé 2754" d="M132.459,241.417a2.521,2.521,0,1,1,1.808,2.511A2.229,2.229,0,0,1,132.459,241.417Z" transform="translate(-111.207 -210.394)" fill="#e3a437"/>
        <path id="Tracé_2755" data-name="Tracé 2755" d="M122.379,238.134a2.542,2.542,0,0,1,4.645,1.562,2.531,2.531,0,0,1-4.645-1.562Z" transform="translate(-107.843 -209.326)" fill="#e3a437"/>
        <path id="Tracé_2756" data-name="Tracé 2756" d="M112.112,234.346a2.553,2.553,0,0,1,4.6,1.748,2.541,2.541,0,0,1-4.6-1.748Z" transform="translate(-104.416 -208.09)" fill="#e3a437"/>
        <path id="Tracé_2757" data-name="Tracé 2757" d="M264.338,256.933c-.176-1.025.77-2.043,2.11-2.295a2.267,2.267,0,0,1,2.8,1.372c.208,1.019-.734,2.07-2.105,2.327S264.515,257.957,264.338,256.933Z" transform="translate(-155.158 -215.189)" fill="#e3a437"/>
        <path id="Tracé_2758" data-name="Tracé 2758" d="M273.87,255.058c-.211-1.018.7-2.068,2.035-2.365a2.27,2.27,0,0,1,2.849,1.276c.242,1.01-.665,2.093-2.029,2.4S274.08,256.075,273.87,255.058Z" transform="translate(-158.331 -214.533)" fill="#e3a437"/>
        <path id="Tracé_2759" data-name="Tracé 2759" d="M283.348,252.856c-.245-1.01.634-2.091,1.958-2.434a2.274,2.274,0,0,1,2.9,1.178c.276,1-.6,2.115-1.952,2.467S283.592,253.866,283.348,252.856Z" transform="translate(-161.485 -213.768)" fill="#e3a437"/>
        <path id="Tracé_2760" data-name="Tracé 2760" d="M292.766,250.329a2.276,2.276,0,0,1,1.88-2.5c1.315-.389,2.629.084,2.939,1.077s-.527,2.136-1.873,2.533S293.045,251.33,292.766,250.329Z" transform="translate(-164.618 -212.894)" fill="#e3a437"/>
        <path id="Tracé_2761" data-name="Tracé 2761" d="M302.115,247.476c-.313-.992.5-2.131,1.8-2.565s2.637-.007,2.981.974-.457,2.154-1.792,2.6S302.428,248.467,302.115,247.476Z" transform="translate(-167.728 -211.911)" fill="#e3a437"/>
        <path id="Tracé_2762" data-name="Tracé 2762" d="M311.388,244.3c-.347-.981.425-2.148,1.718-2.628s2.643-.1,3.019.87-.386,2.169-1.71,2.66S311.734,245.277,311.388,244.3Z" transform="translate(-170.812 -210.819)" fill="#e3a437"/>
        <path id="Tracé_2763" data-name="Tracé 2763" d="M322.064,240.19c-.385-.966.343-2.164,1.621-2.7s2.645-.209,3.06.745-.3,2.185-1.611,2.729S322.449,241.155,322.064,240.19Z" transform="translate(-174.363 -209.411)" fill="#e3a437"/>
        <path id="Tracé_2764" data-name="Tracé 2764" d="M254.764,258.483c-.141-1.03.837-2.016,2.183-2.222a2.264,2.264,0,0,1,2.749,1.467c.173,1.024-.8,2.043-2.179,2.254S254.906,259.512,254.764,258.483Z" transform="translate(-151.971 -215.736)" fill="#e3a437"/>
        <path id="Tracé_2765" data-name="Tracé 2765" d="M245.154,259.707c-.107-1.035.9-1.987,2.254-2.147a2.264,2.264,0,0,1,2.7,1.56c.138,1.03-.869,2.015-2.251,2.179S245.261,260.74,245.154,259.707Z" transform="translate(-148.771 -216.174)" fill="#e3a437"/>
        <path id="Tracé_2766" data-name="Tracé 2766" d="M235.518,260.6c-.072-1.038.969-1.955,2.323-2.07a2.261,2.261,0,0,1,2.639,1.649c.1,1.034-.935,1.984-2.321,2.1S235.59,261.641,235.518,260.6Z" transform="translate(-145.563 -216.502)" fill="#e3a437"/>
        <path id="Tracé_2767" data-name="Tracé 2767" d="M225.863,261.177c-.037-1.039,1.034-1.921,2.39-1.99a2.26,2.26,0,0,1,2.58,1.737c.069,1.037-1,1.952-2.389,2.023S225.9,262.216,225.863,261.177Z" transform="translate(-142.347 -216.722)" fill="#e3a437"/>
        <path id="Tracé_2768" data-name="Tracé 2768" d="M216.2,261.423a2.591,2.591,0,0,1,4.975-.085c.034,1.038-1.065,1.917-2.455,1.941S216.2,262.463,216.2,261.423Z" transform="translate(-139.127 -216.833)" fill="#e3a437"/>
        <path id="Tracé_2769" data-name="Tracé 2769" d="M206.53,261.344a2.591,2.591,0,0,1,4.975.081c0,1.04-1.129,1.881-2.519,1.857S206.5,262.383,206.53,261.344Z" transform="translate(-135.906 -216.834)" fill="#e3a437"/>
        <path id="Tracé_2770" data-name="Tracé 2770" d="M196.868,260.939a2.261,2.261,0,0,1,2.579-1.74c1.357.069,2.428.95,2.392,1.989s-1.192,1.841-2.58,1.771S196.8,261.976,196.868,260.939Z" transform="translate(-132.686 -216.726)" fill="#e3a437"/>
        <path id="Tracé_2771" data-name="Tracé 2771" d="M187.223,260.208a2.261,2.261,0,0,1,2.637-1.652c1.354.114,2.4,1.03,2.325,2.067s-1.253,1.8-2.639,1.684S187.12,261.242,187.223,260.208Z" transform="translate(-129.472 -216.51)" fill="#e3a437"/>
        <path id="Tracé_2772" data-name="Tracé 2772" d="M177.6,259.151a2.262,2.262,0,0,1,2.693-1.561c1.35.159,2.361,1.11,2.255,2.145s-1.314,1.757-2.7,1.594S177.462,260.181,177.6,259.151Z" transform="translate(-126.264 -216.184)" fill="#e3a437"/>
        <path id="Tracé_2773" data-name="Tracé 2773" d="M168.008,257.768a2.264,2.264,0,0,1,2.747-1.469c1.346.2,2.325,1.189,2.185,2.22s-1.373,1.712-2.751,1.5S167.836,258.793,168.008,257.768Z" transform="translate(-123.066 -215.749)" fill="#e3a437"/>
        <path id="Tracé_2774" data-name="Tracé 2774" d="M158.457,256.06a2.267,2.267,0,0,1,2.8-1.375c1.34.251,2.287,1.268,2.112,2.293s-1.432,1.664-2.8,1.408S158.25,257.078,158.457,256.06Z" transform="translate(-119.881 -215.205)" fill="#e3a437"/>
        <path id="Tracé_2775" data-name="Tracé 2775" d="M148.954,254.026a2.271,2.271,0,0,1,2.848-1.279c1.333.3,2.247,1.345,2.037,2.364s-1.488,1.614-2.853,1.311S148.713,255.037,148.954,254.026Z" transform="translate(-116.712 -214.552)" fill="#e3a437"/>
        <path id="Tracé_2776" data-name="Tracé 2776" d="M139.508,251.665a2.275,2.275,0,0,1,2.894-1.18c1.325.342,2.2,1.422,1.961,2.433s-1.544,1.563-2.9,1.213S139.232,252.667,139.508,251.665Z" transform="translate(-113.561 -213.789)" fill="#e3a437"/>
        <path id="Tracé_2777" data-name="Tracé 2777" d="M130.127,248.979c.309-.993,1.622-1.467,2.938-1.08a2.276,2.276,0,0,1,1.882,2.5c-.278,1-1.6,1.509-2.945,1.112S129.817,249.972,130.127,248.979Z" transform="translate(-110.431 -212.918)" fill="#e3a437"/>
        <path id="Tracé_2778" data-name="Tracé 2778" d="M119.762,245.6c.347-.98,1.68-1.4,2.984-.965s2.109,1.58,1.792,2.571-1.657,1.446-2.992,1S119.415,246.583,119.762,245.6Z" transform="translate(-106.972 -211.819)" fill="#e3a437"/>
        <path id="Tracé_2779" data-name="Tracé 2779" d="M111.2,242.48c.377-.969,1.727-1.348,3.02-.868s2.063,1.648,1.716,2.629-1.705,1.392-3.029.9S110.822,243.448,111.2,242.48Z" transform="translate(-104.114 -210.799)" fill="#e3a437"/>
        <path id="Tracé_2780" data-name="Tracé 2780" d="M100.74,238.237c.415-.954,1.783-1.278,3.061-.745s2.006,1.732,1.621,2.7-1.762,1.323-3.07.777S100.326,239.189,100.74,238.237Z" transform="translate(-100.623 -209.411)" fill="#e3a437"/>
      </g>
      <g id="Groupe_440" data-name="Groupe 440" transform="translate(96.184 305.709)">
        <g id="Groupe_439" data-name="Groupe 439" transform="translate(0 0)">
          <path id="Tracé_2781" data-name="Tracé 2781" d="M106.9,364.838c0,.067-.135.136-.2.136-.017,0-.033-.017-.051-.034l-.748-1.716a.522.522,0,0,0-.34-.34,12.363,12.363,0,0,0-2.073-.271c-.051,1-.119,3.874-.153,4.775-.017.952-.068,4.129-.068,4.809,0,.17.068.2.187.221l.85.153c.051,0,.085.1.085.2,0,.034,0,.051-.051.051-.373-.017-1.308-.034-2.293-.034-.9,0-1.734.017-2.107.034-.051,0-.051-.017-.051-.034,0-.085.033-.221.085-.221l.866-.17c.119-.017.136-.068.136-.237.017-.68-.051-4.044-.068-4.843,0-.68-.068-3.84-.085-4.707a13.946,13.946,0,0,0-2.039.255.592.592,0,0,0-.374.357l-.782,1.7c-.017.033-.034.051-.068.051-.051,0-.2-.085-.2-.136l.17-2.5a.107.107,0,0,1,.118-.119c.136,0,.459.017,1.156.051.714.017,1.784.051,3.381.051,1.546,0,2.617-.017,3.331-.051.714-.017,1.071-.034,1.189-.034.069,0,.1.034.1.119Z" transform="translate(-97.347 -361.249)" fill="#f3525d"/>
          <path id="Tracé_2782" data-name="Tracé 2782" d="M118.616,369.671a.511.511,0,0,1-.34.476,24.455,24.455,0,0,1-4.5.136,5.623,5.623,0,0,0,.085,1.156,2.441,2.441,0,0,0,2.226,2.073,5.442,5.442,0,0,0,1.138-.119,6.441,6.441,0,0,0,1.24-.442c.034-.017.085.085.085.2,0,.051-.034.067-.067.1a9.009,9.009,0,0,1-1.955.85,4.619,4.619,0,0,1-1.5.169c-2.141,0-3.722-1-3.722-3.5a4.32,4.32,0,0,1,4.078-4.5,3.246,3.246,0,0,1,3.229,3.381Zm-3.535-3.059c-.662,0-1.342,1-1.308,3.365a8.263,8.263,0,0,0,2.192-.1c.136-.068.238-.187.238-.544,0-.918-.2-2.735-1.1-2.735Z" transform="translate(-101.998 -362.599)" fill="#f3525d"/>
          <path id="Tracé_2783" data-name="Tracé 2783" d="M124.048,370.86a4.455,4.455,0,0,1,1.716-3.518,5.026,5.026,0,0,1,3.263-1.07,3.9,3.9,0,0,1,1.461.2c.051.017.085.068.085.153l.1,1.835c0,.051-.153.135-.2.135-.034,0-.051,0-.068-.034-.255-.492-.527-1.036-.765-1.444a.874.874,0,0,0-.305-.357.979.979,0,0,0-.6-.153c-.611,0-1.172.493-1.631,1.479a5.861,5.861,0,0,0-.509,2.515c0,1.988,1.036,2.923,2.277,2.923a4.127,4.127,0,0,0,.867-.1,4.458,4.458,0,0,0,1.122-.391c.033-.017.085.051.085.153,0,.067-.018.118-.069.136a8.74,8.74,0,0,1-1.7.782,3.921,3.921,0,0,1-1.41.169c-2.073,0-3.722-.9-3.722-3.4Z" transform="translate(-106.243 -362.599)" fill="#f3525d"/>
          <path id="Tracé_2784" data-name="Tracé 2784" d="M138.394,360.767c.1-.017.135.051.135.153,0,.136-.187,5.71-.238,7.052,0,.153-.017.357-.033.561h.084a4.716,4.716,0,0,1,.17-.509c.476-1.326,1.768-3.585,3.518-3.585,1.376,0,2.039,1.376,2.039,3.585,0,1.5-.136,2.957-.187,3.534-.017.272.017.34.136.374l.816.17c.034,0,.085.1.085.2,0,.017-.018.034-.051.034-.305-.017-1.036-.034-2.023-.034-1,0-1.784.017-2.141.034-.051,0-.051-.017-.051-.034,0-.067.017-.2.068-.2l.85-.153c.136-.017.17-.085.187-.237.051-.442.085-1.428.085-2.481,0-1.614-.221-3.212-1.122-3.212-.952,0-1.92,1.682-2.327,3.722a14.68,14.68,0,0,0-.153,1.988c0,.153.068.187.187.2l.832.17c.035,0,.085.1.085.187,0,.034,0,.051-.051.051-.357-.017-1.224-.034-2.175-.034-.935,0-1.7.017-1.971.034-.051,0-.051-.017-.051-.051,0-.068.051-.187.085-.187l.816-.187c.1-.017.119-.068.136-.2.017-.459-.017-4.01-.017-4.979,0-.747-.051-4.469-.068-5.1,0-.153-.035-.221-.187-.237l-1.037-.051c-.051,0-.1-.1-.1-.2,0-.017,0-.051.051-.051Z" transform="translate(-109.799 -360.764)" fill="#f3525d"/>
          <path id="Tracé_2785" data-name="Tracé 2785" d="M159.489,362.322c.6,0,1.054.017,1.428.034a.175.175,0,0,1,.136.069c.544,1.835,2.295,7.7,2.973,9.787a.355.355,0,0,0,.221.221l.628.17c.051.017.085.1.085.221,0,.017-.017.034-.051.034-.357,0-1.172-.034-2.022-.034-.952,0-1.869.017-2.328.034-.051,0-.051-.017-.051-.034,0-.1.051-.221.1-.237l.918-.153c.135-.017.152-.136.119-.272-.187-.561-.816-2.192-1-2.769-.766.017-2.736.067-3.62.136-.051,0-.1.051-.119.136-.1.492-.424,1.869-.527,2.481-.017.2.051.255.17.289l.884.17c.051,0,.1.119.1.221,0,.034-.017.034-.051.034-.425-.017-1.1-.034-1.784-.034-.577,0-1.088.017-1.428.034-.034,0-.034-.017-.034-.051,0-.051.034-.2.085-.221l.425-.136c.136-.034.221-.1.306-.306.832-2.039,2.6-7.256,3.364-9.328.153-.408.373-.493,1.054-.493Zm-.918,1.342a5.816,5.816,0,0,0-.169.578c-.425,1.41-.969,3.382-1.292,4.554a.093.093,0,0,0,.085.119,31.908,31.908,0,0,0,3.33.153c-.289-.816-1.172-3.28-1.631-4.809-.051-.153-.119-.357-.221-.6Z" transform="translate(-116.3 -361.283)" fill="#f3525d"/>
          <path id="Tracé_2786" data-name="Tracé 2786" d="M177,364.778a.046.046,0,0,1,.051.051c0,.085-.051.272-.1.289l-2.889.2c-.034,1.1-.085,2.906-.1,3.195-.017.543-.033,2.786-.033,3.195a.211.211,0,0,0,.2.221l1.5.153c.051,0,.085.136.085.221,0,.017-.017.034-.051.034-.867-.017-1.835-.034-2.769-.034-.969,0-1.734.017-2.227.034-.034,0-.034-.017-.034-.034,0-.051.034-.2.085-.2l.918-.153c.119-.017.17-.085.17-.221,0-.646-.085-2.565-.1-3.382-.017-.68-.085-2.7-.085-3.007l-1.326.034c-.033,0-.051-.017-.051-.069a1.111,1.111,0,0,1,.068-.305.306.306,0,0,1,.306-.255h1.02a3.916,3.916,0,0,1,4.214-3.976,3.227,3.227,0,0,1,1.359.221.107.107,0,0,1,.085.1l.1,1.835c0,.069-.153.17-.221.17-.017,0-.034-.017-.068-.068-.255-.476-.561-1.088-.764-1.444a.862.862,0,0,0-.272-.323.8.8,0,0,0-.476-.153c-.85,0-1.5,1.275-1.529,3.62Z" transform="translate(-121.631 -360.765)" fill="#f3525d"/>
          <path id="Tracé_2787" data-name="Tracé 2787" d="M184.083,370.333c.034-.187.068-.339.085-.441.391-1.614,1.274-3.619,2.821-3.619a.951.951,0,0,1,.543.135.154.154,0,0,1,.051.119l.119,2.362c0,.068-.153.153-.187.153-.017,0-.034,0-.051-.034-.2-.391-.476-.85-.68-1.173a.605.605,0,0,0-.476-.288c-.934,0-1.732,1.7-2.192,4.01a17.172,17.172,0,0,0-.17,2.005c0,.153.069.187.187.2l1.326.187c.034,0,.085.119.085.17,0,.034,0,.051-.034.051-.476-.017-1.461-.034-2.617-.034-1,0-1.886.017-2.09.034-.033,0-.033-.017-.033-.034,0-.085.033-.187.085-.187l.85-.17a.2.2,0,0,0,.153-.221c0-.442-.033-2.549-.051-3.229-.017-.73-.034-2.481-.067-2.956,0-.153-.034-.255-.187-.272l-.764-.051c-.069,0-.1-.136-.1-.2,0-.034,0-.069.051-.069l3.3-.492c.135-.035.17.034.17.153,0,.255-.1,2.464-.17,3.4,0,.153-.017.357-.017.493Z" transform="translate(-125.111 -362.599)" fill="#f3525d"/>
          <path id="Tracé_2788" data-name="Tracé 2788" d="M195.481,364.728a.123.123,0,0,1,.153.135c-.033.68-.119,3.025-.136,3.858-.017.764-.051,2.65-.051,3.3,0,.153.034.187.153.221l.849.17c.034,0,.085.119.085.17,0,.034,0,.051-.034.051-.408-.017-1.206-.034-2.124-.034-.935,0-1.734.017-2.074.034-.051,0-.051-.017-.051-.034,0-.067.034-.17.085-.187l.8-.187c.119-.034.187-.068.187-.221,0-.374-.051-2.413-.068-3.246-.017-.7-.068-2.5-.085-2.923-.017-.136-.034-.255-.187-.255l-.765-.034c-.051,0-.119-.119-.119-.221,0-.017,0-.034.033-.034Zm-1.24-3.093a1.1,1.1,0,0,1,1.155,1.1,1.153,1.153,0,0,1-1.172,1.172,1.142,1.142,0,1,1,0-2.277Z" transform="translate(-128.914 -361.054)" fill="#f3525d"/>
          <path id="Tracé_2789" data-name="Tracé 2789" d="M200,370.86a4.455,4.455,0,0,1,1.716-3.518,5.027,5.027,0,0,1,3.263-1.07,3.9,3.9,0,0,1,1.461.2c.051.017.085.068.085.153l.1,1.835c0,.051-.153.135-.2.135-.034,0-.051,0-.068-.034-.255-.492-.527-1.036-.765-1.444a.874.874,0,0,0-.305-.357.979.979,0,0,0-.6-.153c-.612,0-1.172.493-1.631,1.479a5.871,5.871,0,0,0-.509,2.515c0,1.988,1.036,2.923,2.277,2.923a4.122,4.122,0,0,0,.867-.1,4.468,4.468,0,0,0,1.122-.391c.034-.017.085.051.085.153,0,.067-.018.118-.069.136a8.72,8.72,0,0,1-1.7.782,3.92,3.92,0,0,1-1.41.169c-2.073,0-3.722-.9-3.722-3.4Z" transform="translate(-131.545 -362.599)" fill="#f3525d"/>
          <path id="Tracé_2790" data-name="Tracé 2790" d="M216.654,369.586a6.089,6.089,0,0,0-.153-1.036c-.2-.782-.68-1.428-1.5-1.428a3.744,3.744,0,0,0-2.464,1.122c-.017.017-.034.034-.051.034-.051,0-.187-.2-.1-.289a5.244,5.244,0,0,1,3.976-1.716c2.277,0,2.634,1.919,2.634,3.636,0,.322-.034,1.291-.068,1.868-.034.765-.068,1.512-.068,1.784,0,.119.034.17.17.2l.714.17a.186.186,0,0,1,.1.17c0,.033-.017.051-.068.051-.2-.017-.9-.017-1.564-.017-.577,0-.934,0-1.223.017-.051,0-.085-.017-.085-.085-.017-.136-.051-.748-.051-1.122,0-.085-.017-.339-.017-.475l-.051-.033c-.068.135-.153.288-.238.424a3.124,3.124,0,0,1-2.7,1.41A2.175,2.175,0,0,1,211.59,372a2.989,2.989,0,0,1,3.178-3.11,2.494,2.494,0,0,1,1.478.441,2.319,2.319,0,0,1,.34.273Zm-1.53,3.824c.663,0,1.274-.646,1.6-1.58a1.866,1.866,0,0,0,.119-.612,1.684,1.684,0,0,0-.153-.646,1.774,1.774,0,0,0-1.478-1.258c-.867,0-1.258,1.1-1.258,2.261,0,1.189.475,1.835,1.155,1.835Z" transform="translate(-135.408 -362.599)" fill="#f3525d"/>
          <path id="Tracé_2791" data-name="Tracé 2791" d="M234.617,373.951c.051,0,.085.119.085.187,0,.017,0,.034-.034.034-.578-.017-1.172-.034-2.158-.034-.969,0-1.7.017-2.124.034-.034,0-.051-.017-.051-.034,0-.051.033-.187.085-.187l.816-.187a.239.239,0,0,0,.2-.238c.034-.357.085-1.682.085-2.464,0-1.478-.2-3.195-1.156-3.195-.816,0-1.648,1.292-2.158,3.365a11.612,11.612,0,0,0-.255,2.311c0,.153.051.2.153.221l.833.187c.051,0,.085.119.085.187,0,.017-.017.034-.051.034-.664-.017-1.207-.034-2.125-.034s-1.563.017-2.073.034c-.034,0-.034-.017-.034-.034,0-.067.034-.187.085-.2l.867-.153c.1-.034.153-.085.153-.237,0-.51-.034-2.5-.034-3.246-.017-.578-.068-2.481-.085-2.923-.017-.153-.017-.255-.17-.272l-.748-.051c-.051,0-.1-.119-.1-.2,0-.034,0-.051.051-.051l3.3-.527c.1-.018.136.033.136.135-.017.238-.1,2.4-.136,3.314,0,.17-.017.391-.034.578l.085.017c.051-.17.119-.391.153-.476.476-1.512,1.768-3.568,3.433-3.568,1.36,0,2.056,1.274,2.056,3.636,0,1.257-.119,2.837-.187,3.551-.017.17.017.255.187.289Z" transform="translate(-139.779 -362.598)" fill="#f3525d"/>
          <path id="Tracé_2792" data-name="Tracé 2792" d="M249.825,372.06c.051-.187.119-.374.17-.544.612-2.243,1.546-5.812,2.089-8.19.1-.493.17-.527,1.139-.612a4.86,4.86,0,0,1,.611-.051.15.15,0,0,1,.153.118c.561,2.091,1.563,6.543,2.09,8.836a4.07,4.07,0,0,0,.153.476h.085c.051-.136.1-.357.135-.493.493-2.125,1.224-5.862,1.6-8.514.017-.187-.034-.288-.153-.306l-.8-.118c-.068-.017-.1-.153-.1-.238,0-.034,0-.051.034-.051h3.263a.045.045,0,0,1,.051.051c0,.085-.034.2-.085.221l-.373.119a.378.378,0,0,0-.305.306c-.476,1.665-2.345,7.749-2.974,9.347-.119.373-.221.407-1.5.441h-.68a.182.182,0,0,1-.153-.119c-.526-1.682-1.291-3.976-1.682-5.505-.068-.221-.153-.612-.255-.968h-.1c-.1.374-.238.816-.34,1.138-.373,1.1-1.274,3.79-1.8,5.03-.153.357-.238.391-1.716.425h-.527c-.085,0-.119-.034-.153-.136-.493-1.665-1.682-6.8-2.345-9.753-.034-.119-.085-.2-.2-.221l-.441-.085c-.051-.017-.1-.153-.1-.238a.046.046,0,0,1,.051-.051H249.3c.051,0,.051.017.051.069,0,.067-.051.2-.119.221l-.85.118a.208.208,0,0,0-.17.255c.271,1.835.985,6.168,1.394,8.445.033.136.085.375.118.579Z" transform="translate(-146.408 -361.3)" fill="#f3525d"/>
          <path id="Tracé_2793" data-name="Tracé 2793" d="M271.364,374.276a3.4,3.4,0,0,1-3.722-3.636,4.189,4.189,0,0,1,4.571-4.367,3.451,3.451,0,0,1,3.79,3.721c0,2.243-1.513,4.282-4.623,4.282Zm.527-.323c1.206,0,1.563-1.564,1.563-3.722,0-1.954-.475-3.636-1.631-3.636-1.122,0-1.648,1.5-1.648,3.756,0,1.954.612,3.6,1.7,3.6Z" transform="translate(-154.081 -362.599)" fill="#f3525d"/>
          <path id="Tracé_2794" data-name="Tracé 2794" d="M296.549,373.936c.051.017.085.119.085.187,0,.034,0,.051-.051.051-.509-.017-1.088-.034-2.039-.034s-1.683.017-2.091.034c-.051,0-.051-.017-.051-.034,0-.067.034-.187.085-.2l.765-.187c.1-.017.153-.085.17-.2.051-.442.051-1.937.051-2.413,0-1.665-.272-3.28-1.19-3.28-1.1,0-1.767,1.954-2.005,3.534a19.508,19.508,0,0,0-.153,2.125c0,.135.051.187.187.221l.918.2c.051.017.085.119.085.187,0,.034,0,.051-.034.051-.543-.017-1.19-.034-2.158-.034s-1.631.017-2.074.034c-.051,0-.051-.017-.051-.051,0-.051.017-.17.085-.187l.731-.187c.135-.033.17-.085.187-.221.051-.391.034-1.7.034-2.311,0-1.734-.2-3.365-1.173-3.365-1.019,0-1.732,1.767-2.039,3.432-.068.561-.153,1.614-.153,2.261a.175.175,0,0,0,.153.2l.781.187c.069.017.1.119.1.187,0,.034,0,.051-.051.051-.714-.017-1.19-.034-2.108-.034-.884,0-1.376.017-1.937.034-.051,0-.051-.017-.051-.034,0-.067.034-.187.085-.2l.764-.17c.1-.034.17-.068.17-.221,0-.748-.034-2.583-.034-3.348-.017-.561-.051-2.413-.1-2.871-.017-.153-.034-.255-.187-.272l-.731-.033c-.051,0-.1-.1-.1-.2,0-.035,0-.051.068-.069l3.28-.458c.1-.017.119.034.119.119,0,.2-.085,2.158-.152,3.059,0,.136-.035.373-.035.543l.1.034c.051-.2.119-.425.153-.527.458-1.274,1.478-3.245,3.313-3.245,1.241,0,1.921,1.172,1.971,3.007v.493l.068.017c.035-.119.1-.357.153-.51.39-1.138,1.427-3.007,3.246-3.007,1.24,0,2.005,1.189,2.005,3.585,0,1.292-.153,3.144-.187,3.6,0,.187.034.238.17.272Z" transform="translate(-158.673 -362.599)" fill="#f3525d"/>
          <path id="Tracé_2795" data-name="Tracé 2795" d="M312.707,369.671a.511.511,0,0,1-.339.476,24.457,24.457,0,0,1-4.5.136,5.579,5.579,0,0,0,.085,1.156,2.441,2.441,0,0,0,2.226,2.073,5.443,5.443,0,0,0,1.138-.119,6.456,6.456,0,0,0,1.24-.442c.034-.017.085.085.085.2,0,.051-.034.067-.068.1a9.016,9.016,0,0,1-1.954.85,4.619,4.619,0,0,1-1.5.169c-2.141,0-3.722-1-3.722-3.5a4.32,4.32,0,0,1,4.079-4.5,3.246,3.246,0,0,1,3.228,3.381Zm-3.534-3.059c-.662,0-1.342,1-1.308,3.365a8.263,8.263,0,0,0,2.192-.1c.136-.068.237-.187.237-.544,0-.918-.2-2.735-1.1-2.735Z" transform="translate(-166.661 -362.599)" fill="#f3525d"/>
          <path id="Tracé_2796" data-name="Tracé 2796" d="M327.512,373.951c.051,0,.085.119.085.187,0,.017,0,.034-.035.034-.577-.017-1.172-.034-2.157-.034-.969,0-1.7.017-2.125.034-.034,0-.051-.017-.051-.034,0-.051.034-.187.085-.187l.816-.187a.238.238,0,0,0,.2-.238c.034-.357.085-1.682.085-2.464,0-1.478-.2-3.195-1.155-3.195-.816,0-1.648,1.292-2.158,3.365a11.516,11.516,0,0,0-.255,2.311c0,.153.051.2.153.221l.833.187c.051,0,.085.119.085.187,0,.017-.017.034-.051.034-.663-.017-1.207-.034-2.125-.034s-1.562.017-2.073.034c-.034,0-.034-.017-.034-.034,0-.067.034-.187.085-.2l.867-.153c.1-.034.153-.085.153-.237,0-.51-.034-2.5-.034-3.246-.017-.578-.069-2.481-.085-2.923-.017-.153-.017-.255-.17-.272l-.748-.051c-.051,0-.1-.119-.1-.2,0-.034,0-.051.051-.051l3.3-.527c.1-.018.136.033.136.135-.017.238-.1,2.4-.136,3.314,0,.17-.017.391-.034.578l.085.017c.051-.17.119-.391.153-.476.476-1.512,1.767-3.568,3.432-3.568,1.36,0,2.056,1.274,2.056,3.636,0,1.257-.119,2.837-.187,3.551-.017.17.017.255.187.289Z" transform="translate(-170.727 -362.598)" fill="#f3525d"/>
        </g>
      </g>
      <g id="Groupe_441" data-name="Groupe 441" transform="translate(93.856 327.558)">
        <path id="Tracé_2797" data-name="Tracé 2797" d="M98.228,400.375c-.009.029-.029.049-.077.049-.067,0-.289-.01-.772-.029s-1.216-.019-2.317-.019c-.377,0-.859.01-1.178.019-.029,0-.029-.009-.029-.019,0-.038.019-.106.048-.115l.444-.1c.067-.019.106-.048.106-.155.01-.289-.009-2.249-.009-2.683-.01-.377-.029-2.181-.049-2.5,0-.115-.039-.154-.1-.173l-.4-.077c-.019,0-.048-.067-.048-.135,0-.009,0-.019.019-.019.231,0,.453.009.656.009h.54c2.153,0,2.9-.029,3.011-.029a.051.051,0,0,1,.058.057l.067,1.264c0,.029-.087.077-.116.077-.009,0-.019,0-.029-.019-.135-.3-.27-.589-.415-.9a.3.3,0,0,0-.241-.135A11.752,11.752,0,0,0,96,394.594c-.1.009-.106.039-.106.106-.049.589-.107,2.123-.1,2.442.666.029,1.746.048,2,.058.019,0,.019.009.019.019,0,.058-.049.165-.077.165-.377.039-1.332.087-1.834.135-.087.01-.116.029-.116.107-.009.318-.048,2.152-.048,2.422,0,.106.039.125.106.125a8.794,8.794,0,0,0,1.766-.164.328.328,0,0,0,.2-.145c.193-.26.367-.531.531-.8.009-.019.019-.019.029-.019.039.009.116.077.106.116Z" transform="translate(-93.856 -393.819)" fill="#081d82"/>
        <path id="Tracé_2798" data-name="Tracé 2798" d="M103.381,396.47c-.048.618-.058,1.39-.058,2.017,0,1.226.289,1.66.965,1.66.087,0,.213-.01.319-.019a2.392,2.392,0,0,0,.511-.135c.029-.009.039.039.039.106a.071.071,0,0,1-.039.068,4.127,4.127,0,0,1-.984.337c-.106.01-.251.019-.463.019-1.062,0-1.718-.386-1.728-1.785a20.131,20.131,0,0,1,.165-2.269l-.83.029a.036.036,0,0,1-.039-.039.644.644,0,0,1,.029-.164.185.185,0,0,1,.193-.164h.685c.029-.164.077-.55.135-.782.048-.184.145-.309.453-.444a6.4,6.4,0,0,1,.753-.289c.039,0,.058.029.049.087-.039.318-.116,1.09-.135,1.448l1.689.009c.009,0,.019.01.019.029,0,.067-.039.154-.068.154Z" transform="translate(-96.315 -393.892)" fill="#081d82"/>
        <path id="Tracé_2799" data-name="Tracé 2799" d="M109.055,393.531c.058-.009.077.029.077.087,0,.077-.107,3.243-.135,4.006,0,.087-.009.2-.019.318h.048a2.547,2.547,0,0,1,.1-.289c.27-.753,1-2.037,2-2.037.782,0,1.158.782,1.158,2.037,0,.85-.077,1.679-.106,2.008-.01.154.009.193.077.212l.463.1c.019,0,.049.058.049.115,0,.01-.01.019-.029.019-.173-.009-.589-.019-1.148-.019s-1.014.01-1.216.019c-.029,0-.029-.009-.029-.019,0-.038.009-.115.039-.115l.482-.087c.077-.009.1-.048.107-.135.029-.251.048-.811.048-1.409,0-.917-.125-1.825-.637-1.825-.541,0-1.091.956-1.322,2.114a8.414,8.414,0,0,0-.087,1.129c0,.087.039.106.106.116l.473.1c.019,0,.048.058.048.106,0,.019,0,.029-.029.029-.2-.009-.695-.019-1.236-.019s-.965.01-1.119.019c-.029,0-.029-.009-.029-.029,0-.039.029-.106.048-.106l.463-.107c.058-.009.068-.038.077-.115.009-.261-.009-2.278-.009-2.828,0-.425-.029-2.538-.039-2.9,0-.087-.019-.125-.107-.135l-.588-.029c-.029,0-.058-.058-.058-.115,0-.01,0-.029.029-.029Z" transform="translate(-98.225 -393.529)" fill="#081d82"/>
        <path id="Tracé_2800" data-name="Tracé 2800" d="M117.98,395.78a.071.071,0,0,1,.087.077c-.019.386-.068,1.718-.077,2.191-.009.435-.029,1.506-.029,1.873,0,.087.019.106.087.125l.483.1c.019,0,.048.068.048.1s0,.029-.019.029c-.231-.009-.686-.019-1.206-.019s-.984.01-1.178.019c-.029,0-.029-.009-.029-.019,0-.038.019-.1.048-.106l.453-.106c.068-.019.106-.039.106-.125,0-.212-.029-1.37-.038-1.844-.01-.4-.039-1.418-.049-1.66-.009-.077-.019-.145-.106-.145l-.434-.019c-.029,0-.068-.067-.068-.125,0-.01,0-.019.019-.019Zm-.7-1.757a.627.627,0,0,1,.656.628.655.655,0,0,1-.666.666.649.649,0,1,1,0-1.294Z" transform="translate(-101.253 -393.694)" fill="#081d82"/>
        <path id="Tracé_2801" data-name="Tracé 2801" d="M122.66,401.2a1.93,1.93,0,0,1-2.113-2.065,2.379,2.379,0,0,1,2.6-2.481,1.96,1.96,0,0,1,2.152,2.114,2.389,2.389,0,0,1-2.625,2.432Zm.3-.183c.685,0,.888-.888.888-2.113,0-1.11-.27-2.066-.926-2.066-.637,0-.936.85-.936,2.133,0,1.11.347,2.046.965,2.046Z" transform="translate(-102.748 -394.571)" fill="#081d82"/>
        <path id="Tracé_2802" data-name="Tracé 2802" d="M130.168,400.808c.009.212,0,.434,0,.579-.019.492-.019,1.081-.019,1.178s.019.106.087.116l.656.106c.029.009.049.067.049.106,0,.019,0,.029-.02.029-.424-.009-.849-.019-1.351-.019-.473,0-.791.01-1.129.019-.019,0-.019-.009-.019-.019,0-.048.019-.115.048-.115l.4-.087c.067-.01.1-.039.1-.126.019-.309-.02-1.834-.029-2.422,0-.56-.029-2.587-.048-2.876,0-.1-.01-.135-.087-.145l-.5-.01c-.049-.01-.077-.077-.077-.125,0-.019,0-.029.029-.039l1.96-.3c.048-.009.067.019.067.067,0,.193-.039,1.1-.049,1.486,0,.1-.019.183-.019.261l.057.01a2,2,0,0,1,.106-.28,2.244,2.244,0,0,1,1.872-1.544c.859,0,1.274.85,1.274,1.844,0,1.4-.695,2.7-2.22,2.7a1.57,1.57,0,0,1-.917-.261,1.93,1.93,0,0,1-.183-.145Zm1.062.212c.607,0,.917-.782.917-2.055,0-.773-.213-1.574-.7-1.574-.55,0-1.062,1.052-1.264,2.046-.009.077-.019.184-.019.241a1.5,1.5,0,0,0,.019.222c.155.811.628,1.12,1.042,1.12Z" transform="translate(-105.304 -394.57)" fill="#081d82"/>
        <path id="Tracé_2803" data-name="Tracé 2803" d="M138.751,395.78a.071.071,0,0,1,.087.077c-.019.386-.068,1.718-.077,2.191-.009.435-.029,1.506-.029,1.873,0,.087.019.106.087.125l.483.1c.019,0,.048.068.048.1s0,.029-.019.029c-.231-.009-.686-.019-1.206-.019s-.984.01-1.178.019c-.029,0-.029-.009-.029-.019,0-.038.019-.1.048-.106l.453-.106c.068-.019.106-.039.106-.125,0-.212-.029-1.37-.038-1.844-.01-.4-.039-1.418-.049-1.66-.009-.077-.019-.145-.106-.145l-.434-.019c-.029,0-.068-.067-.068-.125,0-.01,0-.019.019-.019Zm-.7-1.757a.627.627,0,0,1,.656.628.655.655,0,0,1-.666.666.649.649,0,1,1,0-1.294Z" transform="translate(-108.173 -393.694)" fill="#081d82"/>
        <path id="Tracé_2804" data-name="Tracé 2804" d="M144.078,398.54a3.458,3.458,0,0,0-.087-.589c-.115-.444-.386-.811-.849-.811a2.129,2.129,0,0,0-1.4.637c-.009.01-.019.019-.029.019-.029,0-.106-.116-.058-.164a2.978,2.978,0,0,1,2.259-.975c1.293,0,1.5,1.091,1.5,2.066,0,.183-.019.733-.039,1.062-.019.434-.039.859-.039,1.013,0,.068.019.1.1.116l.405.1a.106.106,0,0,1,.058.1c0,.019-.01.029-.039.029-.116-.01-.511-.01-.888-.01-.328,0-.531,0-.695.01-.029,0-.048-.01-.048-.048-.01-.077-.029-.425-.029-.638,0-.048-.009-.193-.009-.27l-.029-.019c-.038.077-.087.164-.135.241a1.776,1.776,0,0,1-1.534.8,1.236,1.236,0,0,1-1.284-1.293,1.7,1.7,0,0,1,1.8-1.766,1.42,1.42,0,0,1,.84.251,1.357,1.357,0,0,1,.193.155Zm-.869,2.171c.377,0,.724-.367.908-.9a1.075,1.075,0,0,0,.067-.347.968.968,0,0,0-.087-.367,1.009,1.009,0,0,0-.84-.714c-.493,0-.715.627-.715,1.284,0,.676.271,1.042.657,1.042Z" transform="translate(-109.63 -394.571)" fill="#081d82"/>
        <path id="Tracé_2805" data-name="Tracé 2805" d="M217.891,401.926a.511.511,0,0,1,.5.531.5.5,0,0,1-.521.492.482.482,0,0,1-.511-.492.52.52,0,0,1,.521-.531Z" transform="translate(-135.002 -396.326)" fill="#081d82"/>
        <path id="Tracé_2806" data-name="Tracé 2806" d="M226.938,395.843c0,.039-.077.077-.116.077-.009,0-.019-.01-.029-.019l-.425-.975a.3.3,0,0,0-.193-.193,7.088,7.088,0,0,0-1.178-.154c-.029.569-.067,2.2-.087,2.712-.01.541-.039,2.345-.039,2.731,0,.1.039.115.106.125l.483.087c.029,0,.048.058.048.116,0,.019,0,.029-.029.029-.213-.009-.744-.019-1.3-.019-.511,0-.985.01-1.2.019-.029,0-.029-.009-.029-.019,0-.048.019-.125.048-.125l.492-.1c.067-.009.077-.038.077-.135.009-.386-.029-2.3-.039-2.751,0-.386-.039-2.181-.048-2.673a7.966,7.966,0,0,0-1.158.145.334.334,0,0,0-.212.2l-.444.965c-.01.019-.019.029-.039.029s-.116-.049-.116-.077l.1-1.419a.061.061,0,0,1,.067-.067c.077,0,.261.009.656.029s1.014.029,1.921.029c.879,0,1.486-.009,1.892-.029s.608-.02.676-.02c.039,0,.058.02.058.068Z" transform="translate(-136.386 -393.805)" fill="#081d82"/>
        <path id="Tracé_2807" data-name="Tracé 2807" d="M232.25,398.54a3.53,3.53,0,0,0-.087-.589c-.116-.444-.386-.811-.85-.811a2.129,2.129,0,0,0-1.4.637c-.009.01-.019.019-.029.019-.029,0-.106-.116-.058-.164a2.978,2.978,0,0,1,2.259-.975c1.293,0,1.5,1.091,1.5,2.066,0,.183-.019.733-.039,1.062-.019.434-.039.859-.039,1.013,0,.068.019.1.1.116l.405.1a.106.106,0,0,1,.058.1c0,.019-.01.029-.039.029-.116-.01-.511-.01-.888-.01-.328,0-.531,0-.695.01-.029,0-.048-.01-.048-.048-.01-.077-.029-.425-.029-.638,0-.048-.009-.193-.009-.27l-.029-.019c-.038.077-.087.164-.135.241a1.776,1.776,0,0,1-1.534.8,1.236,1.236,0,0,1-1.284-1.293,1.7,1.7,0,0,1,1.8-1.766,1.42,1.42,0,0,1,.84.251,1.357,1.357,0,0,1,.193.155Zm-.869,2.171c.377,0,.724-.367.908-.9a1.075,1.075,0,0,0,.067-.347.968.968,0,0,0-.087-.367,1.009,1.009,0,0,0-.84-.714c-.493,0-.714.627-.714,1.284,0,.676.27,1.042.656,1.042Z" transform="translate(-139.004 -394.571)" fill="#081d82"/>
        <path id="Tracé_2808" data-name="Tracé 2808" d="M242.455,401.02c.029,0,.048.068.048.106,0,.01,0,.019-.019.019-.329-.009-.666-.019-1.226-.019s-.965.01-1.206.019c-.019,0-.029-.009-.029-.019,0-.029.019-.106.048-.106l.463-.106a.136.136,0,0,0,.116-.135c.019-.2.048-.956.048-1.4,0-.84-.116-1.815-.656-1.815-.463,0-.936.734-1.226,1.911a6.543,6.543,0,0,0-.145,1.312c0,.087.029.115.087.125l.473.106c.029,0,.048.068.048.106,0,.01-.009.019-.029.019-.376-.009-.685-.019-1.206-.019s-.888.01-1.178.019c-.019,0-.019-.009-.019-.019,0-.038.019-.106.049-.115l.492-.087c.058-.019.087-.048.087-.135,0-.289-.019-1.419-.019-1.844-.009-.328-.039-1.409-.048-1.66-.01-.087-.01-.145-.1-.154l-.425-.029c-.029,0-.058-.067-.058-.116,0-.019,0-.029.029-.029l1.872-.3c.058-.009.077.019.077.077-.009.135-.057,1.361-.077,1.882,0,.1-.009.222-.019.328l.048.01c.029-.1.067-.222.087-.27.271-.86,1-2.027,1.95-2.027.772,0,1.168.724,1.168,2.066,0,.714-.067,1.612-.106,2.017-.01.1.009.145.106.164Z" transform="translate(-141.488 -394.57)" fill="#081d82"/>
        <path id="Tracé_2809" data-name="Tracé 2809" d="M246.777,400.909c.116.01.222,0,.329,0a13.255,13.255,0,0,0,2.085-.251.319.319,0,0,0,.2-.154l.415-.724c.01-.019.019-.019.029-.019.038,0,.125.049.115.087l-.183,1.265c0,.038-.029.057-.087.057-.338,0-1.168-.019-2.21-.019-.676,0-.946.01-1.342.01-.135,0-.2-.058-.309-.289a1.066,1.066,0,0,1-.077-.232.136.136,0,0,1,.019-.067c.82-1.023,2.075-2.509,2.509-3.107.058-.087.145-.183.2-.261v-.029a.828.828,0,0,0-.222-.048,11.351,11.351,0,0,0-1.428-.173.177.177,0,0,0-.174.115l-.521.946c-.01.019-.019.019-.029.019-.039,0-.135-.068-.125-.107l.145-1.119a.069.069,0,0,1,.068-.077c.2.009.8.029,1.534.029.849,0,1.718-.01,1.9-.01a.064.064,0,0,1,.067.049,1.806,1.806,0,0,1,.183.637.388.388,0,0,1-.087.27c-.724.869-2.114,2.288-2.779,2.944-.058.067-.164.173-.241.251Z" transform="translate(-144.458 -394.596)" fill="#081d82"/>
        <path id="Tracé_2810" data-name="Tracé 2810" d="M255.786,398.54a3.463,3.463,0,0,0-.087-.589c-.115-.444-.385-.811-.849-.811a2.129,2.129,0,0,0-1.4.637c-.009.01-.019.019-.029.019-.029,0-.106-.116-.058-.164a2.977,2.977,0,0,1,2.259-.975c1.293,0,1.5,1.091,1.5,2.066,0,.183-.019.733-.039,1.062-.019.434-.039.859-.039,1.013,0,.068.019.1.1.116l.405.1a.106.106,0,0,1,.058.1c0,.019-.01.029-.039.029-.116-.01-.512-.01-.888-.01-.328,0-.531,0-.695.01-.029,0-.048-.01-.048-.048-.01-.077-.029-.425-.029-.638,0-.048-.009-.193-.009-.27l-.029-.019c-.038.077-.087.164-.135.241a1.776,1.776,0,0,1-1.534.8,1.236,1.236,0,0,1-1.284-1.293,1.7,1.7,0,0,1,1.8-1.766,1.42,1.42,0,0,1,.84.251,1.357,1.357,0,0,1,.193.155Zm-.869,2.171c.377,0,.724-.367.908-.9a1.075,1.075,0,0,0,.067-.347.968.968,0,0,0-.087-.367,1.008,1.008,0,0,0-.84-.714c-.492,0-.714.627-.714,1.284,0,.676.271,1.042.656,1.042Z" transform="translate(-146.845 -394.571)" fill="#081d82"/>
        <path id="Tracé_2811" data-name="Tracé 2811" d="M265.991,401.02c.029,0,.048.068.048.106,0,.01,0,.019-.019.019-.328-.009-.666-.019-1.226-.019s-.965.01-1.206.019c-.019,0-.029-.009-.029-.019,0-.029.019-.106.048-.106l.464-.106a.136.136,0,0,0,.116-.135c.019-.2.048-.956.048-1.4,0-.84-.116-1.815-.656-1.815-.463,0-.936.734-1.226,1.911a6.543,6.543,0,0,0-.145,1.312c0,.087.029.115.087.125l.473.106c.029,0,.048.068.048.106,0,.01-.009.019-.029.019-.376-.009-.686-.019-1.206-.019s-.888.01-1.178.019c-.019,0-.019-.009-.019-.019,0-.038.019-.106.049-.115l.492-.087c.057-.019.087-.048.087-.135,0-.289-.019-1.419-.019-1.844-.01-.328-.039-1.409-.048-1.66-.01-.087-.01-.145-.1-.154l-.425-.029c-.029,0-.058-.067-.058-.116,0-.019,0-.029.029-.029l1.872-.3c.057-.009.077.019.077.077-.009.135-.058,1.361-.077,1.882,0,.1-.01.222-.02.328l.049.01c.029-.1.067-.222.087-.27.27-.86,1-2.027,1.95-2.027.772,0,1.168.724,1.168,2.066,0,.714-.067,1.612-.106,2.017-.01.1.009.145.106.164Z" transform="translate(-149.329 -394.57)" fill="#081d82"/>
        <path id="Tracé_2812" data-name="Tracé 2812" d="M271.1,395.78a.071.071,0,0,1,.087.077c-.019.386-.067,1.718-.077,2.191-.009.435-.029,1.506-.029,1.873,0,.087.02.106.087.125l.483.1c.019,0,.048.068.048.1s0,.029-.019.029c-.232-.009-.686-.019-1.206-.019s-.984.01-1.178.019c-.029,0-.029-.009-.029-.019,0-.038.019-.1.048-.106l.453-.106c.067-.019.107-.039.107-.125,0-.212-.029-1.37-.039-1.844-.009-.4-.038-1.418-.048-1.66-.009-.077-.019-.145-.106-.145l-.434-.019c-.029,0-.068-.067-.068-.125,0-.01,0-.019.019-.019Zm-.7-1.757a.627.627,0,0,1,.656.628.655.655,0,0,1-.665.666.649.649,0,1,1,0-1.294Z" transform="translate(-152.266 -393.694)" fill="#081d82"/>
        <path id="Tracé_2813" data-name="Tracé 2813" d="M276.427,398.54a3.462,3.462,0,0,0-.087-.589c-.115-.444-.386-.811-.849-.811a2.129,2.129,0,0,0-1.4.637c-.009.01-.019.019-.029.019-.029,0-.105-.116-.057-.164a2.976,2.976,0,0,1,2.258-.975c1.294,0,1.5,1.091,1.5,2.066,0,.183-.019.733-.039,1.062-.019.434-.039.859-.039,1.013,0,.068.019.1.1.116l.405.1a.107.107,0,0,1,.057.1c0,.019-.009.029-.038.029-.116-.01-.511-.01-.888-.01-.328,0-.531,0-.695.01-.029,0-.048-.01-.048-.048-.01-.077-.029-.425-.029-.638,0-.048-.009-.193-.009-.27l-.029-.019c-.039.077-.087.164-.135.241a1.776,1.776,0,0,1-1.534.8,1.236,1.236,0,0,1-1.284-1.293,1.7,1.7,0,0,1,1.805-1.766,1.419,1.419,0,0,1,.84.251,1.357,1.357,0,0,1,.193.155Zm-.869,2.171c.377,0,.724-.367.907-.9a1.058,1.058,0,0,0,.068-.347.967.967,0,0,0-.087-.367,1.009,1.009,0,0,0-.84-.714c-.492,0-.714.627-.714,1.284,0,.676.27,1.042.656,1.042Z" transform="translate(-153.722 -394.571)" fill="#081d82"/>
        <path id="Tracé_2814" data-name="Tracé 2814" d="M284.677,401.926a.511.511,0,0,1,.5.531.5.5,0,0,1-.521.492.482.482,0,0,1-.511-.492.52.52,0,0,1,.521-.531Z" transform="translate(-157.252 -396.326)" fill="#081d82"/>
        <path id="Tracé_2815" data-name="Tracé 2815" d="M293.724,395.843c0,.039-.077.077-.115.077-.01,0-.02-.01-.029-.019l-.425-.975a.3.3,0,0,0-.193-.193,7.071,7.071,0,0,0-1.178-.154c-.029.569-.067,2.2-.087,2.712-.01.541-.039,2.345-.039,2.731,0,.1.039.115.106.125l.483.087c.029,0,.048.058.048.116,0,.019,0,.029-.029.029-.213-.009-.744-.019-1.3-.019-.511,0-.984.01-1.2.019-.029,0-.029-.009-.029-.019,0-.048.019-.125.048-.125l.492-.1c.068-.009.077-.038.077-.135.009-.386-.029-2.3-.039-2.751,0-.386-.039-2.181-.048-2.673a7.966,7.966,0,0,0-1.158.145.337.337,0,0,0-.213.2l-.443.965c-.01.019-.019.029-.039.029s-.116-.049-.116-.077l.1-1.419a.061.061,0,0,1,.067-.067c.077,0,.261.009.656.029s1.014.029,1.921.029c.878,0,1.486-.009,1.891-.029s.608-.02.676-.02c.038,0,.057.02.057.068Z" transform="translate(-158.636 -393.805)" fill="#081d82"/>
        <path id="Tracé_2816" data-name="Tracé 2816" d="M299.794,397.058c-.029,0-.058-.058-.058-.1,0-.019,0-.039.029-.048l1.718-.241c.048-.01.077.019.077.077-.01.357,0,1.833,0,2.22,0,.453.029,1.534.048,1.785.009.087.029.135.115.154l.367.1c.029.01.049.087.049.116,0,.009,0,.019-.029.019-.251-.01-.56-.01-.936-.01-.329,0-.638,0-.83.01-.039,0-.058-.029-.058-.1,0-.116-.01-.917,0-1.284v-.3h-.048c-.039.107-.058.193-.087.251-.386.946-.955,1.5-1.766,1.5-.695,0-1.264-.569-1.264-1.988a17.5,17.5,0,0,1,.135-1.969c.01-.115-.019-.164-.106-.164h-.405c-.039,0-.077-.077-.077-.125,0-.019.009-.029.038-.029l1.708-.261c.058-.01.077.019.077.087-.009.309-.058,1.428-.058,1.892,0,1.322.183,1.9.637,1.9.579,0,1.061-.994,1.206-2.3.029-.251.049-.782.049-.965,0-.125-.029-.183-.1-.193Z" transform="translate(-161.423 -394.575)" fill="#081d82"/>
        <path id="Tracé_2817" data-name="Tracé 2817" d="M310.862,401.02c.029,0,.048.068.048.106,0,.01,0,.019-.019.019-.328-.009-.666-.019-1.226-.019s-.965.01-1.206.019c-.019,0-.029-.009-.029-.019,0-.029.019-.106.048-.106l.463-.106a.136.136,0,0,0,.116-.135c.019-.2.048-.956.048-1.4,0-.84-.116-1.815-.656-1.815-.463,0-.936.734-1.226,1.911a6.54,6.54,0,0,0-.145,1.312c0,.087.029.115.087.125l.473.106c.029,0,.048.068.048.106,0,.01-.009.019-.029.019-.376-.009-.686-.019-1.206-.019s-.888.01-1.178.019c-.019,0-.019-.009-.019-.019,0-.038.019-.106.049-.115l.492-.087c.057-.019.087-.048.087-.135,0-.289-.019-1.419-.019-1.844-.01-.328-.039-1.409-.048-1.66-.01-.087-.01-.145-.1-.154l-.425-.029c-.029,0-.058-.067-.058-.116,0-.019,0-.029.029-.029l1.872-.3c.057-.009.077.019.077.077-.009.135-.058,1.361-.077,1.882,0,.1-.01.222-.02.328l.049.01c.029-.1.067-.222.087-.27.27-.86,1-2.027,1.95-2.027.772,0,1.168.724,1.168,2.066,0,.714-.067,1.612-.106,2.017-.01.1.009.145.106.164Z" transform="translate(-164.278 -394.57)" fill="#081d82"/>
        <path id="Tracé_2818" data-name="Tracé 2818" d="M315.971,395.78a.071.071,0,0,1,.087.077c-.019.386-.067,1.718-.077,2.191-.009.435-.029,1.506-.029,1.873,0,.087.019.106.087.125l.483.1c.019,0,.048.068.048.1s0,.029-.019.029c-.232-.009-.686-.019-1.206-.019s-.984.01-1.178.019c-.029,0-.029-.009-.029-.019,0-.038.019-.1.048-.106l.453-.106c.068-.019.107-.039.107-.125,0-.212-.029-1.37-.039-1.844-.01-.4-.039-1.418-.049-1.66-.009-.077-.019-.145-.106-.145l-.434-.019c-.029,0-.068-.067-.068-.125,0-.01,0-.019.019-.019Zm-.7-1.757a.627.627,0,0,1,.656.628.655.655,0,0,1-.665.666.649.649,0,1,1,0-1.294Z" transform="translate(-167.215 -393.694)" fill="#081d82"/>
        <path id="Tracé_2819" data-name="Tracé 2819" d="M318.62,398.164c0-.743.984-1.506,2.384-1.506a2.418,2.418,0,0,1,.878.116c.029.029.048.048.048.087l.087.984c0,.039-.087.1-.126.1-.019,0-.029,0-.038-.029-.145-.241-.28-.483-.425-.734a.661.661,0,0,0-.164-.164,1.246,1.246,0,0,0-.618-.135.764.764,0,0,0-.84.686c0,.386.261.589.975.849.907.309,1.38.628,1.38,1.245,0,.918-1,1.544-2.567,1.544a3.33,3.33,0,0,1-.869-.115.109.109,0,0,1-.067-.1l-.077-1c0-.049.1-.087.125-.087a.038.038,0,0,1,.039.019c.135.241.28.521.434.762a.575.575,0,0,0,.174.165,1.338,1.338,0,0,0,.608.145c.579,0,1.042-.251,1.042-.7,0-.415-.28-.617-1.062-.878-.956-.3-1.322-.656-1.322-1.235Z" transform="translate(-168.724 -394.571)" fill="#081d82"/>
        <path id="Tracé_2820" data-name="Tracé 2820" d="M326.6,395.78a.071.071,0,0,1,.087.077c-.019.386-.067,1.718-.077,2.191-.01.435-.029,1.506-.029,1.873,0,.087.019.106.087.125l.483.1c.019,0,.048.068.048.1s0,.029-.019.029c-.231-.009-.685-.019-1.206-.019s-.984.01-1.177.019c-.029,0-.029-.009-.029-.019,0-.038.019-.1.049-.106l.453-.106c.067-.019.106-.039.106-.125,0-.212-.029-1.37-.039-1.844-.009-.4-.039-1.418-.048-1.66-.01-.077-.019-.145-.107-.145l-.434-.019c-.029,0-.067-.067-.067-.125,0-.01,0-.019.019-.019Zm-.7-1.757a.627.627,0,0,1,.656.628.656.656,0,0,1-.666.666.649.649,0,1,1,0-1.294Z" transform="translate(-170.754 -393.694)" fill="#081d82"/>
        <path id="Tracé_2821" data-name="Tracé 2821" d="M331.922,398.54a3.464,3.464,0,0,0-.087-.589c-.116-.444-.386-.811-.85-.811a2.126,2.126,0,0,0-1.4.637c-.01.01-.02.019-.029.019-.029,0-.106-.116-.058-.164a2.979,2.979,0,0,1,2.259-.975c1.293,0,1.5,1.091,1.5,2.066,0,.183-.019.733-.039,1.062-.019.434-.038.859-.038,1.013,0,.068.019.1.1.116l.405.1a.106.106,0,0,1,.058.1c0,.019-.01.029-.039.029-.116-.01-.511-.01-.888-.01-.329,0-.531,0-.7.01-.029,0-.048-.01-.048-.048-.009-.077-.029-.425-.029-.638,0-.048-.009-.193-.009-.27l-.029-.019c-.039.077-.087.164-.135.241a1.776,1.776,0,0,1-1.534.8,1.236,1.236,0,0,1-1.284-1.293,1.7,1.7,0,0,1,1.805-1.766,1.421,1.421,0,0,1,.84.251,1.391,1.391,0,0,1,.193.155Zm-.868,2.171c.376,0,.724-.367.907-.9a1.057,1.057,0,0,0,.067-.347.955.955,0,0,0-.087-.367,1.008,1.008,0,0,0-.84-.714c-.492,0-.714.627-.714,1.284,0,.676.27,1.042.656,1.042Z" transform="translate(-172.21 -394.571)" fill="#081d82"/>
        <path id="Tracé_2822" data-name="Tracé 2822" d="M155.636,401.926a.512.512,0,0,1,.5.531.5.5,0,0,1-.521.492.482.482,0,0,1-.511-.492.521.521,0,0,1,.521-.531Z" transform="translate(-114.261 -396.326)" fill="#081d82"/>
        <path id="Tracé_2823" data-name="Tracé 2823" d="M167.119,398.516c0,1.12-1.061,1.911-2.933,1.911a3.943,3.943,0,0,1-1.062-.106.114.114,0,0,1-.087-.1l-.145-1.312c-.009-.029.1-.1.125-.1s.029.01.039.029c.183.327.357.676.541.984a.577.577,0,0,0,.231.222,1.2,1.2,0,0,0,.656.154c.83,0,1.458-.4,1.458-1.033,0-.579-.415-.926-1.409-1.3-1.023-.386-1.534-.859-1.534-1.592,0-1.014,1.2-1.95,2.8-1.95a2.6,2.6,0,0,1,.955.135c.049.019.068.039.068.087l.116,1.254c0,.029-.087.087-.126.087-.019,0-.029,0-.039-.019-.183-.347-.367-.695-.559-1.033a.4.4,0,0,0-.183-.173,1.037,1.037,0,0,0-.521-.116,1.172,1.172,0,0,0-1.274,1.052c0,.521.367.81,1.187,1.216.908.415,1.7.85,1.7,1.689Z" transform="translate(-116.855 -393.795)" fill="#081d82"/>
        <path id="Tracé_2824" data-name="Tracé 2824" d="M174.5,398.589a.291.291,0,0,1-.193.27,13.874,13.874,0,0,1-2.558.077,3.185,3.185,0,0,0,.049.656,1.387,1.387,0,0,0,1.264,1.178,3.134,3.134,0,0,0,.646-.067,3.674,3.674,0,0,0,.7-.251c.019-.009.048.049.048.116,0,.029-.019.039-.039.058a5.109,5.109,0,0,1-1.11.482,2.592,2.592,0,0,1-.85.1,1.853,1.853,0,0,1-2.113-1.988,2.454,2.454,0,0,1,2.316-2.558,1.844,1.844,0,0,1,1.834,1.921Zm-2.007-1.737c-.377,0-.763.569-.744,1.91a4.681,4.681,0,0,0,1.245-.058c.077-.038.135-.105.135-.309,0-.521-.116-1.554-.628-1.554Z" transform="translate(-119.339 -394.571)" fill="#081d82"/>
        <path id="Tracé_2825" data-name="Tracé 2825" d="M182.907,401.02c.029,0,.048.068.048.106,0,.01,0,.019-.019.019-.328-.009-.666-.019-1.226-.019s-.965.01-1.206.019c-.019,0-.029-.009-.029-.019,0-.029.019-.106.048-.106l.463-.106a.135.135,0,0,0,.115-.135c.019-.2.049-.956.049-1.4,0-.84-.116-1.815-.657-1.815-.463,0-.936.734-1.226,1.911a6.642,6.642,0,0,0-.145,1.312c0,.087.029.115.087.125l.473.106c.029,0,.048.068.048.106,0,.01-.009.019-.029.019-.377-.009-.686-.019-1.206-.019s-.888.01-1.178.019c-.019,0-.019-.009-.019-.019,0-.038.019-.106.048-.115l.493-.087c.057-.019.087-.048.087-.135,0-.289-.019-1.419-.019-1.844-.01-.328-.039-1.409-.049-1.66-.009-.087-.009-.145-.1-.154l-.425-.029c-.029,0-.058-.067-.058-.116,0-.019,0-.029.029-.029l1.872-.3c.058-.009.077.019.077.077-.01.135-.058,1.361-.077,1.882,0,.1-.009.222-.019.328l.049.01c.029-.1.067-.222.087-.27.27-.86,1-2.027,1.949-2.027.772,0,1.168.724,1.168,2.066,0,.714-.068,1.612-.106,2.017-.01.1.009.145.106.164Z" transform="translate(-121.649 -394.57)" fill="#081d82"/>
        <path id="Tracé_2826" data-name="Tracé 2826" d="M190.593,398.589a.291.291,0,0,1-.193.27,13.876,13.876,0,0,1-2.558.077,3.188,3.188,0,0,0,.049.656,1.387,1.387,0,0,0,1.264,1.178,3.134,3.134,0,0,0,.646-.067,3.674,3.674,0,0,0,.7-.251c.019-.009.048.049.048.116,0,.029-.019.039-.039.058a5.124,5.124,0,0,1-1.11.482,2.594,2.594,0,0,1-.85.1,1.853,1.853,0,0,1-2.113-1.988,2.454,2.454,0,0,1,2.316-2.558,1.845,1.845,0,0,1,1.834,1.921Zm-2.007-1.737c-.377,0-.763.569-.744,1.91a4.681,4.681,0,0,0,1.245-.058c.077-.038.135-.105.135-.309,0-.521-.116-1.554-.628-1.554Z" transform="translate(-124.702 -394.571)" fill="#081d82"/>
        <path id="Tracé_2827" data-name="Tracé 2827" d="M193.613,398.337c0-.974.936-1.679,2.335-1.679a9.4,9.4,0,0,1,.946.058,1.558,1.558,0,0,0,.3.019l1.284-.01a.026.026,0,0,1,.029.029c0,.048-.019.125-.048.125l-.975.155a1.189,1.189,0,0,1,.454.965c0,1.014-.918,1.515-2.008,1.679-.106.019-.3.058-.483.107-.4.1-.6.193-.6.318,0,.155.338.212,1.4.328,1.448.155,2.162.386,2.162,1.014,0,.82-.85,1.534-2.886,1.534-1.2,0-2.277-.27-2.277-.936,0-.386.289-.521,1.6-1.071a4.893,4.893,0,0,1-.869-.28.452.452,0,0,1-.231-.453.129.129,0,0,1,.087-.135c.454-.155.84-.28,1.245-.415a1.452,1.452,0,0,1-1.466-1.342Zm2.277,4.45c.821,0,1.2-.367,1.206-.8,0-.549-.7-.714-1.862-.926-.145-.019-.174-.029-.231.019a.925.925,0,0,0-.377.772c0,.559.541.936,1.255.936Zm-.115-3.262c.492,0,.791-.377.791-1.351,0-.734-.212-1.342-.743-1.342-.608,0-.83.55-.83,1.4,0,.762.338,1.293.772,1.293Z" transform="translate(-126.968 -394.571)" fill="#081d82"/>
        <path id="Tracé_2828" data-name="Tracé 2828" d="M204.372,398.54a3.463,3.463,0,0,0-.087-.589c-.116-.444-.386-.811-.85-.811a2.126,2.126,0,0,0-1.4.637c-.01.01-.02.019-.029.019-.029,0-.106-.116-.058-.164a2.979,2.979,0,0,1,2.259-.975c1.293,0,1.5,1.091,1.5,2.066,0,.183-.019.733-.039,1.062-.019.434-.038.859-.038,1.013,0,.068.019.1.1.116l.405.1a.106.106,0,0,1,.058.1c0,.019-.01.029-.039.029-.116-.01-.511-.01-.888-.01-.329,0-.531,0-.7.01-.029,0-.048-.01-.048-.048-.009-.077-.029-.425-.029-.638,0-.048-.009-.193-.009-.27l-.029-.019c-.039.077-.087.164-.135.241a1.775,1.775,0,0,1-1.534.8,1.236,1.236,0,0,1-1.284-1.293,1.7,1.7,0,0,1,1.8-1.766,1.422,1.422,0,0,1,.84.251,1.39,1.39,0,0,1,.193.155Zm-.868,2.171c.376,0,.724-.367.907-.9a1.058,1.058,0,0,0,.067-.347.955.955,0,0,0-.087-.367,1.008,1.008,0,0,0-.84-.714c-.492,0-.714.627-.714,1.284,0,.676.27,1.042.656,1.042Z" transform="translate(-129.717 -394.571)" fill="#081d82"/>
        <path id="Tracé_2829" data-name="Tracé 2829" d="M210.7,393.531c.058-.009.077.01.077.077,0,.125-.068,2.027-.087,3.146-.009.695-.048,2.818-.048,3,0,.087.029.106.1.125l.5.087c.029,0,.058.067.058.115,0,.01,0,.019-.019.019-.251-.009-.714-.019-1.284-.019-.531,0-.946.01-1.148.019a.025.025,0,0,1-.029-.029c0-.029.019-.1.058-.106l.472-.087c.068-.019.107-.039.107-.115.019-.271-.029-2.577-.029-2.915s-.048-2.394-.057-2.789c0-.087-.029-.135-.116-.135l-.569-.029c-.039,0-.077-.067-.077-.116,0-.019,0-.038.029-.038Z" transform="translate(-132.084 -393.529)" fill="#081d82"/>
      </g>
    </g>
  </g>
</svg>
