<svg xmlns="http://www.w3.org/2000/svg" xmlns:xlink="http://www.w3.org/1999/xlink" width="411" height="289" viewBox="0 0 411 289">
  <defs>
    <clipPath id="clip-Plan_de_travail_7">
      <rect width="411" height="289"/>
    </clipPath>
  </defs>
  <g id="Plan_de_travail_7" data-name="Plan de travail – 7" clip-path="url(#clip-Plan_de_travail_7)">
    <rect width="411" height="289" fill="#fff"/>
    <g id="Groupe_407" data-name="Groupe 407" transform="translate(-1244 -1413)">
      <text id="What_do_we_aim_for_" data-name="What do we aim for?" transform="translate(1244 1610)" fill="#081d82" font-size="224" font-family="Raleway" font-weight="700"><tspan x="0" y="0">3</tspan></text>
      <text id="Immersive_days_and_Final_Ceremony_in_Rwanda_" data-name="Immersive days and Final Ceremony in Rwanda
" transform="translate(1389 1582)" fill="#050f3c" font-size="20" font-family="Raleway-Regular, Raleway"><tspan x="0" y="19">Immersive days and Final </tspan><tspan x="0" y="43">Ceremony in Rwanda</tspan><tspan x="0" y="67"></tspan></text>
      <g id="Groupe_330" data-name="Groupe 330" transform="translate(495.627 1377.38)">
        <g id="Groupe_325" data-name="Groupe 325" transform="translate(985.632 132.354)">
          <circle id="Ellipse_16" data-name="Ellipse 16" cx="12.535" cy="12.535" r="12.535" transform="translate(8.06)" fill="#f3525d"/>
          <path id="Tracé_2580" data-name="Tracé 2580" d="M986.436,182.259a20.6,20.6,0,1,1,41.19-.039v.039" transform="translate(-986.436 -134.63)" fill="#f3525d"/>
        </g>
        <g id="Groupe_326" data-name="Groupe 326" transform="translate(1032.008 138.528)">
          <circle id="Ellipse_18" data-name="Ellipse 18" cx="9.285" cy="9.285" r="9.285" transform="translate(5.971)" fill="#f3525d"/>
          <path id="Tracé_2582" data-name="Tracé 2582" d="M1033.97,176.065a15.256,15.256,0,1,1,30.512-.028v.028" transform="translate(-1033.97 -140.784)" fill="#f3525d"/>
        </g>
        <g id="Groupe_327" data-name="Groupe 327" transform="translate(953.44 138.528)">
          <circle id="Ellipse_20" data-name="Ellipse 20" cx="9.285" cy="9.285" r="9.285" transform="translate(5.97)" fill="#f3525d"/>
          <path id="Tracé_2584" data-name="Tracé 2584" d="M953.44,176.065a15.256,15.256,0,1,1,30.512-.028v.028" transform="translate(-953.44 -140.784)" fill="#f3525d"/>
        </g>
        <g id="Groupe_328" data-name="Groupe 328" transform="translate(995.03 89.685)">
          <path id="Tracé_2587" data-name="Tracé 2587" d="M1015.158,101.915a3.983,3.983,0,0,0-.9-.683,16.576,16.576,0,0,0-1.567-.824,16.254,16.254,0,0,0-1.989-.763,11.39,11.39,0,0,0-2.251-.462v6.952l1,.241q2.088.563,3.8,1.207a10.277,10.277,0,0,1,2.893,1.607,6.641,6.641,0,0,1,1.828,2.31,7.675,7.675,0,0,1,.644,3.316,8.36,8.36,0,0,1-.784,3.778,7.138,7.138,0,0,1-2.13,2.573,9.467,9.467,0,0,1-3.135,1.506,16.329,16.329,0,0,1-3.757.582v4.421H1006.4v-4.461a20.838,20.838,0,0,1-5.485-1.145,19.79,19.79,0,0,1-4.843-2.471l2.451-4.783a7.729,7.729,0,0,0,1.105.844,13.582,13.582,0,0,0,1.889,1.025,23.922,23.922,0,0,0,2.452.944,13.832,13.832,0,0,0,2.793.6V111.32q-.361-.08-.723-.181c-.242-.066-.483-.14-.724-.22a26.047,26.047,0,0,1-3.557-1.226,9.322,9.322,0,0,1-2.511-1.568,5.863,5.863,0,0,1-1.507-2.089,7.23,7.23,0,0,1-.5-2.834,8.783,8.783,0,0,1,.7-3.6,8.046,8.046,0,0,1,1.929-2.712,9.006,9.006,0,0,1,2.914-1.769,13.2,13.2,0,0,1,3.617-.8v-4.1h2.412V94.28a16.645,16.645,0,0,1,4.883,1.085,19.637,19.637,0,0,1,3.918,2.05Zm-12.217.4a2.414,2.414,0,0,0,.944,2.069,9.218,9.218,0,0,0,2.873,1.266v-6.51Q1002.941,99.384,1002.941,102.317Zm9.765,13.062a2.434,2.434,0,0,0-1.125-2.131,12.431,12.431,0,0,0-3.135-1.406v6.47Q1012.706,118.192,1012.706,115.379Z" transform="translate(-996.069 -90.221)" fill="#3dc9a5"/>
        </g>
        <g id="Groupe_329" data-name="Groupe 329" transform="translate(970.983 68.236)">
          <rect id="Rectangle_35" data-name="Rectangle 35" width="1.463" height="18.899" rx="0.732" transform="translate(35.159)" fill="#e3a437" stroke="#e3a437" stroke-miterlimit="10" stroke-width="2"/>
          <rect id="Rectangle_36" data-name="Rectangle 36" width="1.463" height="18.899" rx="0.732" transform="matrix(0.707, 0.707, -0.707, 0.707, 62.304, 9.145)" fill="#e3a437" stroke="#e3a437" stroke-miterlimit="10" stroke-width="2"/>
          <rect id="Rectangle_37" data-name="Rectangle 37" width="1.463" height="18.899" rx="0.732" transform="translate(71.866 30.663) rotate(90)" fill="#e3a437" stroke="#e3a437" stroke-miterlimit="10" stroke-width="2"/>
          <rect id="Rectangle_38" data-name="Rectangle 38" width="1.463" height="18.899" rx="0.732" transform="matrix(-0.707, 0.707, -0.707, -0.707, 22.925, 22.509)" fill="#e3a437" stroke="#e3a437" stroke-miterlimit="10" stroke-width="2"/>
          <rect id="Rectangle_39" data-name="Rectangle 39" width="1.463" height="18.899" rx="0.732" transform="translate(18.899 30.663) rotate(90)" fill="#e3a437" stroke="#e3a437" stroke-miterlimit="10" stroke-width="2"/>
        </g>
      </g>
    </g>
  </g>
</svg>
