<svg xmlns="http://www.w3.org/2000/svg" xmlns:xlink="http://www.w3.org/1999/xlink" width="471" height="649" viewBox="0 0 471 649">
  <defs>
    <filter id="Rectangle_23" x="28" y="21" width="416" height="601" filterUnits="userSpaceOnUse">
      <feOffset dy="3" input="SourceAlpha"/>
      <feGaussianBlur stdDeviation="3" result="blur"/>
      <feFlood flood-opacity="0.161"/>
      <feComposite operator="in" in2="blur"/>
      <feComposite in="SourceGraphic"/>
    </filter>
    <clipPath id="clip-Plan_de_travail_12">
      <rect width="471" height="649"/>
    </clipPath>
  </defs>
  <g id="Plan_de_travail_12" data-name="Plan de travail – 12" clip-path="url(#clip-Plan_de_travail_12)">
    <rect width="471" height="649" fill="#fff"/>
    <g id="Groupe_434" data-name="Groupe 434" transform="translate(-1310 -5544.619)">
      <g transform="matrix(1, 0, 0, 1, 1310, 5544.62)" filter="url(#Rectangle_23)">
        <g id="Rectangle_23-2" data-name="Rectangle 23" transform="translate(37 27)" fill="#fff" stroke="#d5d5d5" stroke-width="1">
          <rect width="398" height="583" rx="14" stroke="none"/>
          <rect x="0.5" y="0.5" width="397" height="582" rx="13.5" fill="none"/>
        </g>
      </g>
      <g id="Groupe_286" data-name="Groupe 286" transform="translate(1408 5729.012)">
        <g id="Groupe_284" data-name="Groupe 284" transform="translate(0 0)">
          <g id="Groupe_280" data-name="Groupe 280" transform="translate(1.117 90.965)">
            <g id="Groupe_279" data-name="Groupe 279">
              <path id="Tracé_2361" data-name="Tracé 2361" d="M658.5,460.2c0,.552-1.1,1.1-1.656,1.1-.138,0-.275-.138-.412-.277L650.36,447.1a4.223,4.223,0,0,0-2.758-2.758c-4.689-1.38-14.343-2.069-16.825-2.206-.414,8.136-.966,31.441-1.242,38.75-.138,7.723-.55,33.512-.55,39.027,0,1.38.55,1.656,1.516,1.794l6.9,1.24c.414,0,.691.828.691,1.656,0,.275,0,.412-.414.412-3.032-.138-10.618-.275-18.616-.275-7.311,0-14.069.137-17.1.275-.414,0-.414-.138-.414-.275,0-.691.277-1.794.691-1.794l7.033-1.378c.966-.137,1.1-.553,1.1-1.931.138-5.517-.412-32.823-.552-39.3,0-5.515-.552-31.166-.689-38.2-2.345.137-11.859.826-16.55,2.069a4.792,4.792,0,0,0-3.033,2.9l-6.345,13.79c-.137.277-.275.414-.55.414-.416,0-1.656-.689-1.656-1.1l1.378-20.271a.872.872,0,0,1,.966-.966c1.1,0,3.725.137,9.38.412,5.792.138,14.479.414,27.443.414,12.55,0,21.238-.138,27.029-.414,5.792-.137,8.687-.275,9.653-.275.553,0,.828.275.828.966Z" transform="translate(-580.994 -438.968)" fill="#081d82"/>
              <path id="Tracé_2362" data-name="Tracé 2362" d="M661.721,439.28c4.826,0,8.551.139,11.584.277a1.434,1.434,0,0,1,1.1.552c4.412,14.893,18.618,62.472,24.134,79.434a2.893,2.893,0,0,0,1.792,1.794l5.1,1.378c.412.137.687.828.687,1.794,0,.137-.137.275-.412.275-2.9,0-9.515-.275-16.412-.275-7.721,0-15.168.137-18.891.275-.416,0-.416-.138-.416-.275,0-.828.416-1.794.828-1.931l7.448-1.24c1.1-.137,1.241-1.1.966-2.206-1.519-4.551-6.62-17.792-8.139-22.479-6.2.137-22.2.552-29.372,1.1-.414,0-.827.412-.964,1.1-.828,4-3.448,15.168-4.277,20.134-.138,1.655.414,2.069,1.38,2.345l7.17,1.378c.414,0,.828.966.828,1.794,0,.275-.138.275-.414.275-3.447-.138-8.964-.275-14.479-.275-4.689,0-8.826.137-11.584.275-.277,0-.277-.138-.277-.412,0-.416.277-1.656.689-1.794l3.448-1.1c1.1-.275,1.794-.828,2.481-2.483,6.758-16.55,21.1-58.886,27.305-75.71,1.242-3.309,3.034-4,8.552-4Zm-7.447,10.9a48.331,48.331,0,0,0-1.38,4.689c-3.448,11.447-7.861,27.443-10.481,36.96a.753.753,0,0,0,.691.966,258.639,258.639,0,0,0,27.031,1.241c-2.347-6.62-9.517-26.616-13.24-39.029-.414-1.241-.966-2.9-1.794-4.826Z" transform="translate(-551.948 -438.73)" fill="#081d82"/>
              <path id="Tracé_2363" data-name="Tracé 2363" d="M706.917,518.044c.414-1.517.964-3.036,1.38-4.414,4.964-18.2,12.55-47.162,16.962-66.472.826-4,1.378-4.273,9.239-4.964a39.658,39.658,0,0,1,4.964-.412,1.207,1.207,0,0,1,1.242.966c4.55,16.962,12.689,53.092,16.962,71.71a32.04,32.04,0,0,0,1.24,3.861h.691c.412-1.1.828-2.9,1.1-4,4-17.239,9.929-47.578,12.962-69.092.141-1.517-.275-2.344-1.241-2.481l-6.479-.966c-.553-.137-.828-1.241-.828-1.931,0-.275,0-.414.275-.414h26.479a.366.366,0,0,1,.412.414c0,.691-.275,1.655-.689,1.794l-3.033.964a3.058,3.058,0,0,0-2.484,2.483c-3.861,13.515-19.029,62.884-24.134,75.848-.966,3.034-1.79,3.311-12.135,3.586h-5.515a1.476,1.476,0,0,1-1.242-.966c-4.273-13.653-10.481-32.271-13.653-44.681-.55-1.792-1.24-4.964-2.067-7.859H726.5c-.828,3.033-1.931,6.617-2.759,9.239-3.033,8.964-10.342,30.752-14.617,40.821-1.242,2.9-1.929,3.172-13.929,3.447h-4.275c-.689,0-.964-.275-1.24-1.1-4-13.515-13.653-55.162-19.031-79.159-.277-.966-.689-1.655-1.655-1.794l-3.586-.687c-.412-.137-.828-1.241-.828-1.931a.367.367,0,0,1,.416-.414h37.647c.412,0,.412.139.412.551,0,.553-.412,1.656-.966,1.794l-6.9.966a1.685,1.685,0,0,0-1.378,2.067c2.206,14.895,8,50.061,11.307,68.54.277,1.1.691,3.034.966,4.689Z" transform="translate(-517.295 -438.611)" fill="#081d82"/>
            </g>
          </g>
          <g id="Groupe_281" data-name="Groupe 281" transform="translate(3.862)">
            <path id="Tracé_2364" data-name="Tracé 2364" d="M686.334,400.154a3.7,3.7,0,1,1,4.238,2.6A3.5,3.5,0,0,1,686.334,400.154Z" transform="translate(-503.493 -380.619)" fill="#e3a437"/>
            <path id="Tracé_2365" data-name="Tracé 2365" d="M680.982,400.939a3.7,3.7,0,1,1,4.141,2.744A3.527,3.527,0,0,1,680.982,400.939Z" transform="translate(-507.561 -379.924)" fill="#e3a437"/>
            <path id="Tracé_2366" data-name="Tracé 2366" d="M675.61,401.542a3.692,3.692,0,1,1,4.042,2.881A3.523,3.523,0,0,1,675.61,401.542Z" transform="translate(-511.645 -379.368)" fill="#e3a437"/>
            <path id="Tracé_2367" data-name="Tracé 2367" d="M670.225,401.963a3.689,3.689,0,1,1,3.94,3.017A3.489,3.489,0,0,1,670.225,401.963Z" transform="translate(-515.742 -378.95)" fill="#e3a437"/>
            <path id="Tracé_2368" data-name="Tracé 2368" d="M664.832,402.205a3.687,3.687,0,1,1,3.836,3.147A3.522,3.522,0,0,1,664.832,402.205Z" transform="translate(-519.848 -378.671)" fill="#e3a437"/>
            <path id="Tracé_2369" data-name="Tracé 2369" d="M659.435,402.265a3.686,3.686,0,1,1,3.727,3.276A3.523,3.523,0,0,1,659.435,402.265Z" transform="translate(-523.959 -378.531)" fill="#e3a437"/>
            <path id="Tracé_2370" data-name="Tracé 2370" d="M654.04,402.144a3.686,3.686,0,1,1,3.614,3.4A3.521,3.521,0,0,1,654.04,402.144Z" transform="translate(-528.072 -378.529)" fill="#e3a437"/>
            <path id="Tracé_2371" data-name="Tracé 2371" d="M648.649,401.842a3.687,3.687,0,1,1,3.5,3.517A3.523,3.523,0,0,1,648.649,401.842Z" transform="translate(-532.184 -378.665)" fill="#e3a437"/>
            <path id="Tracé_2372" data-name="Tracé 2372" d="M643.269,401.359a3.694,3.694,0,0,1,7.318.613,3.688,3.688,0,0,1-7.318-.613Z" transform="translate(-536.29 -378.941)" fill="#e3a437"/>
            <path id="Tracé_2373" data-name="Tracé 2373" d="M637.9,400.694a3.7,3.7,0,0,1,7.3.86,3.692,3.692,0,0,1-7.3-.86Z" transform="translate(-540.388 -379.355)" fill="#e3a437"/>
            <path id="Tracé_2374" data-name="Tracé 2374" d="M632.558,399.85a3.7,3.7,0,1,1,3.137,3.854A3.529,3.529,0,0,1,632.558,399.85Z" transform="translate(-544.473 -379.908)" fill="#e3a437"/>
            <path id="Tracé_2375" data-name="Tracé 2375" d="M627.237,398.823a3.7,3.7,0,1,1,3.008,3.959A3.532,3.532,0,0,1,627.237,398.823Z" transform="translate(-548.543 -380.599)" fill="#e3a437"/>
            <path id="Tracé_2376" data-name="Tracé 2376" d="M680.252,395.709a3.565,3.565,0,1,1,4.021,2.761A3.426,3.426,0,0,1,680.252,395.709Z" transform="translate(-508.117 -383.894)" fill="#e3a437"/>
            <path id="Tracé_2377" data-name="Tracé 2377" d="M675.056,396.292a3.562,3.562,0,1,1,3.923,2.9A3.457,3.457,0,0,1,675.056,396.292Z" transform="translate(-512.067 -383.356)" fill="#e3a437"/>
            <path id="Tracé_2378" data-name="Tracé 2378" d="M669.848,396.7a3.559,3.559,0,1,1,3.82,3.027A3.456,3.456,0,0,1,669.848,396.7Z" transform="translate(-516.029 -382.953)" fill="#e3a437"/>
            <path id="Tracé_2379" data-name="Tracé 2379" d="M664.632,396.935a3.56,3.56,0,0,1,7.091-.361,3.557,3.557,0,0,1-7.091.361Z" transform="translate(-520 -382.683)" fill="#e3a437"/>
            <path id="Tracé_2380" data-name="Tracé 2380" d="M659.413,396.993a3.555,3.555,0,1,1,3.605,3.276A3.454,3.454,0,0,1,659.413,396.993Z" transform="translate(-523.976 -382.547)" fill="#e3a437"/>
            <path id="Tracé_2381" data-name="Tracé 2381" d="M654.194,396.877a3.559,3.559,0,0,1,7.1.115,3.556,3.556,0,0,1-7.1-.115Z" transform="translate(-527.955 -382.546)" fill="#e3a437"/>
            <path id="Tracé_2382" data-name="Tracé 2382" d="M648.981,396.584a3.56,3.56,0,0,1,7.091.354,3.557,3.557,0,0,1-7.091-.354Z" transform="translate(-531.931 -382.678)" fill="#e3a437"/>
            <path id="Tracé_2383" data-name="Tracé 2383" d="M643.778,396.116a3.563,3.563,0,0,1,7.08.594,3.559,3.559,0,0,1-7.08-.594Z" transform="translate(-535.903 -382.944)" fill="#e3a437"/>
            <path id="Tracé_2384" data-name="Tracé 2384" d="M638.589,395.473a3.565,3.565,0,0,1,7.061.833,3.562,3.562,0,0,1-7.061-.833Z" transform="translate(-539.866 -383.344)" fill="#e3a437"/>
            <path id="Tracé_2385" data-name="Tracé 2385" d="M633.419,394.656a3.569,3.569,0,0,1,7.036,1.071,3.566,3.566,0,0,1-7.036-1.071Z" transform="translate(-543.818 -383.879)" fill="#e3a437"/>
            <path id="Tracé_2386" data-name="Tracé 2386" d="M674.5,391.044a3.436,3.436,0,1,1,3.8,2.909A3.394,3.394,0,0,1,674.5,391.044Z" transform="translate(-512.489 -387.345)" fill="#e3a437"/>
            <path id="Tracé_2387" data-name="Tracé 2387" d="M669.471,391.438a3.434,3.434,0,0,1,6.839-.578,3.433,3.433,0,0,1-6.839.578Z" transform="translate(-516.316 -386.956)" fill="#e3a437"/>
            <path id="Tracé_2388" data-name="Tracé 2388" d="M664.433,391.664a3.432,3.432,0,0,1,6.849-.349,3.43,3.43,0,0,1-6.849.349Z" transform="translate(-520.152 -386.695)" fill="#e3a437"/>
            <path id="Tracé_2389" data-name="Tracé 2389" d="M659.39,391.722a3.431,3.431,0,0,1,6.856-.12,3.43,3.43,0,0,1-6.856.12Z" transform="translate(-523.993 -386.564)" fill="#e3a437"/>
            <path id="Tracé_2390" data-name="Tracé 2390" d="M654.349,391.607a3.431,3.431,0,0,1,6.856.113,3.43,3.43,0,0,1-6.856-.113Z" transform="translate(-527.836 -386.563)" fill="#e3a437"/>
            <path id="Tracé_2391" data-name="Tracé 2391" d="M649.313,391.326a3.433,3.433,0,0,1,6.851.342,3.431,3.431,0,0,1-6.851-.342Z" transform="translate(-531.678 -386.69)" fill="#e3a437"/>
            <path id="Tracé_2392" data-name="Tracé 2392" d="M644.287,390.873a3.434,3.434,0,0,1,6.839.574,3.433,3.433,0,0,1-6.839-.574Z" transform="translate(-535.516 -386.947)" fill="#e3a437"/>
            <path id="Tracé_2393" data-name="Tracé 2393" d="M639.275,390.253a3.436,3.436,0,0,1,6.819.8,3.435,3.435,0,0,1-6.819-.8Z" transform="translate(-539.344 -387.333)" fill="#e3a437"/>
            <path id="Tracé_2394" data-name="Tracé 2394" d="M687.149,404.835a3.824,3.824,0,1,1,4.344,2.581A3.595,3.595,0,0,1,687.149,404.835Z" transform="translate(-502.871 -377.07)" fill="#e3a437"/>
            <path id="Tracé_2395" data-name="Tracé 2395" d="M692.637,403.843a3.831,3.831,0,1,1,4.435,2.432A3.6,3.6,0,0,1,692.637,403.843Z" transform="translate(-498.703 -377.929)" fill="#e3a437"/>
            <path id="Tracé_2396" data-name="Tracé 2396" d="M681.637,405.641a3.818,3.818,0,1,1,4.248,2.728A3.59,3.59,0,0,1,681.637,405.641Z" transform="translate(-507.06 -376.354)" fill="#e3a437"/>
            <path id="Tracé_2397" data-name="Tracé 2397" d="M676.107,406.263a3.815,3.815,0,1,1,4.151,2.869A3.59,3.59,0,0,1,676.107,406.263Z" transform="translate(-511.266 -375.78)" fill="#e3a437"/>
            <path id="Tracé_2398" data-name="Tracé 2398" d="M670.564,406.7a3.81,3.81,0,1,1,4.049,3.008A3.587,3.587,0,0,1,670.564,406.7Z" transform="translate(-515.483 -375.35)" fill="#e3a437"/>
            <path id="Tracé_2399" data-name="Tracé 2399" d="M665.012,406.944a3.808,3.808,0,1,1,3.944,3.143A3.587,3.587,0,0,1,665.012,406.944Z" transform="translate(-519.71 -375.062)" fill="#e3a437"/>
            <path id="Tracé_2400" data-name="Tracé 2400" d="M659.455,407.007a3.807,3.807,0,1,1,3.836,3.272A3.586,3.586,0,0,1,659.455,407.007Z" transform="translate(-523.944 -374.918)" fill="#e3a437"/>
            <path id="Tracé_2401" data-name="Tracé 2401" d="M653.9,406.882a3.806,3.806,0,1,1,3.722,3.4A3.584,3.584,0,0,1,653.9,406.882Z" transform="translate(-528.178 -374.916)" fill="#e3a437"/>
            <path id="Tracé_2402" data-name="Tracé 2402" d="M648.351,406.57a3.808,3.808,0,1,1,3.607,3.524A3.587,3.587,0,0,1,648.351,406.57Z" transform="translate(-532.411 -375.057)" fill="#e3a437"/>
            <path id="Tracé_2403" data-name="Tracé 2403" d="M642.811,406.074a3.81,3.81,0,1,1,3.489,3.644A3.589,3.589,0,0,1,642.811,406.074Z" transform="translate(-536.639 -375.341)" fill="#e3a437"/>
            <path id="Tracé_2404" data-name="Tracé 2404" d="M637.287,405.39a3.821,3.821,0,0,1,7.515.886,3.813,3.813,0,0,1-7.515-.886Z" transform="translate(-540.857 -375.768)" fill="#e3a437"/>
            <path id="Tracé_2405" data-name="Tracé 2405" d="M631.783,404.52a3.818,3.818,0,1,1,3.242,3.871A3.592,3.592,0,0,1,631.783,404.52Z" transform="translate(-545.063 -376.337)" fill="#e3a437"/>
            <path id="Tracé_2406" data-name="Tracé 2406" d="M626.3,403.465a3.832,3.832,0,0,1,7.457,1.394,3.824,3.824,0,0,1-7.457-1.394Z" transform="translate(-549.252 -377.05)" fill="#e3a437"/>
            <path id="Tracé_2407" data-name="Tracé 2407" d="M620.854,402.222a3.839,3.839,0,0,1,7.418,1.648,3.831,3.831,0,0,1-7.418-1.648Z" transform="translate(-553.421 -377.905)" fill="#e3a437"/>
            <path id="Tracé_2408" data-name="Tracé 2408" d="M688.053,410.039a3.974,3.974,0,0,1,7.7-1.445c.365,1.792-1.08,3.6-3.232,4.005S688.363,411.842,688.053,410.039Z" transform="translate(-502.181 -373.125)" fill="#e3a437"/>
            <path id="Tracé_2409" data-name="Tracé 2409" d="M693.716,409.014a3.982,3.982,0,0,1,7.654-1.707c.425,1.78-.96,3.637-3.1,4.115S694.088,410.806,693.716,409.014Z" transform="translate(-497.879 -374.012)" fill="#e3a437"/>
            <path id="Tracé_2410" data-name="Tracé 2410" d="M699.35,407.8a3.99,3.99,0,0,1,7.605-1.97c.486,1.764-.839,3.667-2.967,4.219S699.78,409.577,699.35,407.8Z" transform="translate(-493.602 -375.047)" fill="#e3a437"/>
            <path id="Tracé_2411" data-name="Tracé 2411" d="M682.367,410.871a3.968,3.968,0,0,1,7.729-1.184c.3,1.8-1.2,3.563-3.36,3.892S682.615,412.683,682.367,410.871Z" transform="translate(-506.504 -372.385)" fill="#e3a437"/>
            <path id="Tracé_2412" data-name="Tracé 2412" d="M676.661,411.511a3.962,3.962,0,0,1,7.755-.922c.243,1.813-1.314,3.519-3.484,3.778S676.848,413.331,676.661,411.511Z" transform="translate(-510.843 -371.793)" fill="#e3a437"/>
            <path id="Tracé_2413" data-name="Tracé 2413" d="M670.941,411.958a3.958,3.958,0,0,1,7.774-.659c.183,1.822-1.431,3.473-3.605,3.658S671.066,413.784,670.941,411.958Z" transform="translate(-515.196 -371.349)" fill="#e3a437"/>
            <path id="Tracé_2414" data-name="Tracé 2414" d="M665.212,412.214a3.956,3.956,0,0,1,7.789-.4c.122,1.825-1.545,3.422-3.725,3.533S665.275,414.042,665.212,412.214Z" transform="translate(-519.558 -371.052)" fill="#e3a437"/>
            <path id="Tracé_2415" data-name="Tracé 2415" d="M659.478,412.278a3.955,3.955,0,0,1,7.8-.136c.06,1.829-1.66,3.369-3.839,3.406S659.482,414.107,659.478,412.278Z" transform="translate(-523.926 -370.902)" fill="#e3a437"/>
            <path id="Tracé_2416" data-name="Tracé 2416" d="M653.746,412.149a3.955,3.955,0,0,1,7.8.127c0,1.831-1.771,3.311-3.952,3.276S653.687,413.976,653.746,412.149Z" transform="translate(-528.296 -370.9)" fill="#e3a437"/>
            <path id="Tracé_2417" data-name="Tracé 2417" d="M648.019,411.828a3.955,3.955,0,0,1,7.788.389c-.062,1.829-1.882,3.251-4.06,3.142S647.9,413.654,648.019,411.828Z" transform="translate(-532.664 -371.046)" fill="#e3a437"/>
            <path id="Tracé_2418" data-name="Tracé 2418" d="M642.3,411.316a3.959,3.959,0,0,1,7.776.652c-.123,1.824-1.991,3.184-4.166,3S642.122,413.136,642.3,411.316Z" transform="translate(-537.026 -371.339)" fill="#e3a437"/>
            <path id="Tracé_2419" data-name="Tracé 2419" d="M636.6,410.611a3.963,3.963,0,0,1,7.757.913c-.187,1.822-2.1,3.115-4.27,2.86S636.36,412.424,636.6,410.611Z" transform="translate(-541.379 -371.78)" fill="#e3a437"/>
            <path id="Tracé_2420" data-name="Tracé 2420" d="M630.922,409.714a3.967,3.967,0,0,1,7.729,1.175c-.247,1.813-2.2,3.043-4.367,2.714S630.619,411.518,630.922,409.714Z" transform="translate(-545.718 -372.368)" fill="#e3a437"/>
            <path id="Tracé_2421" data-name="Tracé 2421" d="M625.267,408.624a3.974,3.974,0,0,1,7.7,1.438c-.308,1.8-2.306,2.967-4.46,2.564S624.9,410.418,625.267,408.624Z" transform="translate(-550.041 -373.103)" fill="#e3a437"/>
            <path id="Tracé_2422" data-name="Tracé 2422" d="M619.643,407.344a3.982,3.982,0,0,1,7.656,1.7c-.37,1.792-2.409,2.886-4.552,2.411S619.219,409.124,619.643,407.344Z" transform="translate(-554.342 -373.987)" fill="#e3a437"/>
            <path id="Tracé_2423" data-name="Tracé 2423" d="M614.055,405.871a3.99,3.99,0,0,1,7.607,1.961c-.43,1.78-2.507,2.8-4.636,2.254S613.571,407.635,614.055,405.871Z" transform="translate(-558.619 -375.018)" fill="#e3a437"/>
            <path id="Tracé_2424" data-name="Tracé 2424" d="M688.957,415.241c-.31-1.8,1.2-3.568,3.359-3.975s4.208.693,4.574,2.486-1.131,3.612-3.35,4.028S689.269,417.045,688.957,415.241Z" transform="translate(-501.491 -369.18)" fill="#e3a437"/>
            <path id="Tracé_2425" data-name="Tracé 2425" d="M694.795,414.186c-.37-1.792,1.077-3.609,3.228-4.088s4.236.548,4.663,2.328-1.013,3.649-3.219,4.141S695.167,415.978,694.795,414.186Z" transform="translate(-497.055 -370.095)" fill="#e3a437"/>
            <path id="Tracé_2426" data-name="Tracé 2426" d="M700.6,412.933c-.432-1.78.957-3.644,3.094-4.2s4.261.4,4.747,2.167-.891,3.683-3.085,4.25S701.033,414.713,700.6,412.933Z" transform="translate(-492.645 -371.163)" fill="#e3a437"/>
            <path id="Tracé_2427" data-name="Tracé 2427" d="M706.375,411.483c-.492-1.764.837-3.676,2.958-4.3s4.28.254,4.826,2-.77,3.713-2.948,4.356S706.865,413.245,706.375,411.483Z" transform="translate(-488.264 -372.382)" fill="#e3a437"/>
            <path id="Tracé_2428" data-name="Tracé 2428" d="M683.1,416.1c-.248-1.813,1.315-3.528,3.485-3.861s4.178.835,4.483,2.641-1.251,3.572-3.478,3.912S683.345,417.911,683.1,416.1Z" transform="translate(-505.947 -368.417)" fill="#e3a437"/>
            <path id="Tracé_2429" data-name="Tracé 2429" d="M677.213,416.759c-.187-1.822,1.429-3.482,3.609-3.741s4.143.976,4.388,2.791-1.369,3.526-3.605,3.792S677.4,418.577,677.213,416.759Z" transform="translate(-510.422 -367.806)" fill="#e3a437"/>
            <path id="Tracé_2430" data-name="Tracé 2430" d="M671.317,417.22c-.127-1.827,1.545-3.431,3.73-3.618s4.1,1.115,4.285,2.937-1.484,3.478-3.725,3.669S671.444,419.046,671.317,417.22Z" transform="translate(-514.909 -367.348)" fill="#e3a437"/>
            <path id="Tracé_2431" data-name="Tracé 2431" d="M665.411,417.483c-.065-1.831,1.658-3.376,3.848-3.489s4.06,1.253,4.181,3.08-1.6,3.427-3.845,3.54S665.476,419.312,665.411,417.483Z" transform="translate(-519.407 -367.041)" fill="#e3a437"/>
            <path id="Tracé_2432" data-name="Tracé 2432" d="M659.5,417.547c0-1.831,1.769-3.318,3.961-3.357s4.014,1.389,4.076,3.219-1.714,3.371-3.961,3.41S659.5,419.378,659.5,417.547Z" transform="translate(-523.909 -366.887)" fill="#e3a437"/>
            <path id="Tracé_2433" data-name="Tracé 2433" d="M653.591,417.414c.058-1.829,1.882-3.258,4.072-3.221s3.966,1.522,3.965,3.353-1.825,3.311-4.072,3.274S653.532,419.243,653.591,417.414Z" transform="translate(-528.414 -366.885)" fill="#e3a437"/>
            <path id="Tracé_2434" data-name="Tracé 2434" d="M647.687,417.085c.12-1.827,1.991-3.193,4.18-3.084s3.913,1.655,3.85,3.485-1.935,3.247-4.182,3.135S647.567,418.911,647.687,417.085Z" transform="translate(-532.917 -367.035)" fill="#e3a437"/>
            <path id="Tracé_2435" data-name="Tracé 2435" d="M641.794,416.556c.181-1.822,2.1-3.122,4.284-2.941s3.857,1.787,3.732,3.612-2.046,3.182-4.287,2.994S641.612,418.378,641.794,416.556Z" transform="translate(-537.414 -367.337)" fill="#e3a437"/>
            <path id="Tracé_2436" data-name="Tracé 2436" d="M635.916,415.83c.243-1.815,2.2-3.05,4.384-2.795s3.8,1.915,3.612,3.737-2.153,3.11-4.389,2.846S635.675,417.643,635.916,415.83Z" transform="translate(-541.901 -367.792)" fill="#e3a437"/>
            <path id="Tracé_2437" data-name="Tracé 2437" d="M630.06,414.906c.3-1.806,2.308-2.974,4.481-2.645s3.736,2.042,3.487,3.857-2.257,3.036-4.486,2.7S629.757,416.71,630.06,414.906Z" transform="translate(-546.374 -368.399)" fill="#e3a437"/>
            <path id="Tracé_2438" data-name="Tracé 2438" d="M624.231,413.783c.365-1.794,2.411-2.893,4.573-2.49s3.67,2.167,3.36,3.974-2.359,2.957-4.578,2.543S623.867,415.577,624.231,413.783Z" transform="translate(-550.83 -369.158)" fill="#e3a437"/>
            <path id="Tracé_2439" data-name="Tracé 2439" d="M618.433,412.464c.425-1.781,2.507-2.811,4.659-2.333s3.6,2.293,3.232,4.086-2.462,2.876-4.67,2.384S618.008,414.243,618.433,412.464Z" transform="translate(-555.263 -370.069)" fill="#e3a437"/>
            <path id="Tracé_2440" data-name="Tracé 2440" d="M612.671,410.946c.484-1.766,2.606-2.722,4.743-2.173s3.529,2.416,3.1,4.2-2.56,2.789-4.754,2.224S612.186,412.71,612.671,410.946Z" transform="translate(-559.671 -371.133)" fill="#e3a437"/>
            <path id="Tracé_2441" data-name="Tracé 2441" d="M606.951,409.229c.543-1.748,2.7-2.631,4.823-2.007s3.454,2.536,2.964,4.3-2.659,2.7-4.835,2.058S606.407,410.977,606.951,409.229Z" transform="translate(-564.05 -372.349)" fill="#e3a437"/>
            <path id="Tracé_2442" data-name="Tracé 2442" d="M689.863,420.445c-.31-1.8,1.248-3.579,3.477-4s4.328.67,4.692,2.463-1.186,3.623-3.469,4.051S690.173,422.249,689.863,420.445Z" transform="translate(-500.8 -365.235)" fill="#e3a437"/>
            <path id="Tracé_2443" data-name="Tracé 2443" d="M695.874,419.358c-.37-1.792,1.131-3.619,3.346-4.114s4.354.522,4.781,2.3-1.064,3.662-3.337,4.167S696.246,421.15,695.874,419.358Z" transform="translate(-496.232 -366.178)" fill="#e3a437"/>
            <path id="Tracé_2444" data-name="Tracé 2444" d="M701.856,418.069c-.432-1.78,1.01-3.656,3.212-4.227s4.377.372,4.863,2.136-.944,3.7-3.2,4.282S702.286,419.847,701.856,418.069Z" transform="translate(-491.689 -367.278)" fill="#e3a437"/>
            <path id="Tracé_2445" data-name="Tracé 2445" d="M707.8,416.576c-.492-1.764.89-3.69,3.077-4.337s4.4.22,4.943,1.966-.823,3.729-3.064,4.391S708.292,418.338,707.8,416.576Z" transform="translate(-487.176 -368.536)" fill="#e3a437"/>
            <path id="Tracé_2446" data-name="Tracé 2446" d="M713.7,414.879c-.552-1.746.768-3.718,2.937-4.442s4.412.067,5.017,1.8-.7,3.755-2.923,4.5S714.255,416.625,713.7,414.879Z" transform="translate(-482.697 -369.95)" fill="#e3a437"/>
            <path id="Tracé_2447" data-name="Tracé 2447" d="M683.825,421.327c-.249-1.815,1.367-3.535,3.605-3.877s4.3.816,4.6,2.62-1.3,3.58-3.6,3.931S684.073,423.14,683.825,421.327Z" transform="translate(-505.391 -364.448)" fill="#e3a437"/>
            <path id="Tracé_2448" data-name="Tracé 2448" d="M677.767,422c-.188-1.82,1.484-3.485,3.729-3.753s4.263.96,4.506,2.775-1.422,3.535-3.723,3.808S677.954,423.825,677.767,422Z" transform="translate(-509.999 -363.819)" fill="#e3a437"/>
            <path id="Tracé_2449" data-name="Tracé 2449" d="M671.694,422.48c-.127-1.827,1.6-3.434,3.85-3.625s4.224,1.1,4.407,2.925-1.54,3.484-3.847,3.679S671.821,424.305,671.694,422.48Z" transform="translate(-514.622 -363.345)" fill="#e3a437"/>
            <path id="Tracé_2450" data-name="Tracé 2450" d="M665.611,422.751c-.065-1.829,1.713-3.378,3.968-3.494s4.181,1.246,4.3,3.073-1.655,3.431-3.966,3.547S665.676,424.58,665.611,422.751Z" transform="translate(-519.254 -363.03)" fill="#e3a437"/>
            <path id="Tracé_2451" data-name="Tracé 2451" d="M659.523,422.818c0-1.831,1.824-3.318,4.083-3.359s4.136,1.387,4.2,3.216-1.767,3.373-4.081,3.413S659.527,424.649,659.523,422.818Z" transform="translate(-523.892 -362.871)" fill="#e3a437"/>
            <path id="Tracé_2452" data-name="Tracé 2452" d="M653.436,422.682c.058-1.829,1.937-3.256,4.194-3.219s4.086,1.524,4.084,3.355-1.878,3.311-4.194,3.272S653.377,424.511,653.436,422.682Z" transform="translate(-528.532 -362.869)" fill="#e3a437"/>
            <path id="Tracé_2453" data-name="Tracé 2453" d="M647.354,422.341c.12-1.827,2.046-3.189,4.3-3.077s4.033,1.66,3.97,3.491-1.99,3.246-4.3,3.129S647.235,424.167,647.354,422.341Z" transform="translate(-533.17 -363.024)" fill="#e3a437"/>
            <path id="Tracé_2454" data-name="Tracé 2454" d="M641.285,421.8c.182-1.82,2.151-3.117,4.4-2.929s3.979,1.8,3.854,3.621-2.1,3.177-4.407,2.983S641.1,423.619,641.285,421.8Z" transform="translate(-537.801 -363.335)" fill="#e3a437"/>
            <path id="Tracé_2455" data-name="Tracé 2455" d="M635.231,421.049c.243-1.815,2.257-3.043,4.5-2.779s3.919,1.928,3.732,3.75-2.206,3.1-4.509,2.833S634.99,422.864,635.231,421.049Z" transform="translate(-542.422 -363.804)" fill="#e3a437"/>
            <path id="Tracé_2456" data-name="Tracé 2456" d="M629.2,420.1c.3-1.806,2.359-2.966,4.6-2.626s3.854,2.06,3.607,3.875-2.31,3.029-4.6,2.678S628.9,421.9,629.2,420.1Z" transform="translate(-547.029 -364.43)" fill="#e3a437"/>
            <path id="Tracé_2457" data-name="Tracé 2457" d="M623.2,418.942c.363-1.794,2.462-2.883,4.691-2.467s3.789,2.19,3.48,3.995-2.414,2.948-4.7,2.522S622.83,420.736,623.2,418.942Z" transform="translate(-551.618 -365.212)" fill="#e3a437"/>
            <path id="Tracé_2458" data-name="Tracé 2458" d="M617.222,417.584c.425-1.78,2.56-2.8,4.777-2.3s3.72,2.317,3.35,4.111-2.514,2.865-4.786,2.359S616.8,419.363,617.222,417.584Z" transform="translate(-556.184 -366.151)" fill="#e3a437"/>
            <path id="Tracé_2459" data-name="Tracé 2459" d="M611.287,416.021c.485-1.766,2.659-2.708,4.862-2.141s3.646,2.446,3.216,4.225-2.613,2.777-4.872,2.194S610.8,417.787,611.287,416.021Z" transform="translate(-560.724 -367.248)" fill="#e3a437"/>
            <path id="Tracé_2460" data-name="Tracé 2460" d="M605.395,414.256c.544-1.748,2.752-2.617,4.941-1.972s3.57,2.569,3.08,4.333-2.712,2.685-4.953,2.025S604.85,416,605.395,414.256Z" transform="translate(-565.234 -368.501)" fill="#e3a437"/>
            <path id="Tracé_2461" data-name="Tracé 2461" d="M598.886,412.047c.61-1.725,2.856-2.506,5.024-1.778s3.48,2.707,2.925,4.451-2.816,2.58-5.038,1.833S598.276,413.773,598.886,412.047Z" transform="translate(-570.218 -370.082)" fill="#e3a437"/>
            <path id="Tracé_2462" data-name="Tracé 2462" d="M690.768,425.648c-.31-1.8,1.3-3.589,3.6-4.019s4.446.645,4.811,2.44-1.237,3.633-3.588,4.074S691.078,427.451,690.768,425.648Z" transform="translate(-500.11 -361.289)" fill="#e3a437"/>
            <path id="Tracé_2463" data-name="Tracé 2463" d="M696.954,424.53c-.37-1.792,1.184-3.63,3.466-4.139s4.472.493,4.9,2.275-1.119,3.674-3.456,4.2S697.325,426.322,696.954,424.53Z" transform="translate(-495.408 -362.261)" fill="#e3a437"/>
            <path id="Tracé_2464" data-name="Tracé 2464" d="M703.108,423.205c-.43-1.78,1.064-3.67,3.332-4.257s4.493.34,4.98,2.1-1,3.713-3.32,4.314S703.54,424.983,703.108,423.205Z" transform="translate(-490.732 -363.394)" fill="#e3a437"/>
            <path id="Tracé_2465" data-name="Tracé 2465" d="M709.226,421.669c-.492-1.764.941-3.7,3.193-4.37s4.514.185,5.059,1.931-.874,3.746-3.18,4.426S709.717,423.431,709.226,421.669Z" transform="translate(-486.088 -364.689)" fill="#e3a437"/>
            <path id="Tracé_2466" data-name="Tracé 2466" d="M715.3,419.924c-.55-1.746.821-3.736,3.054-4.479s4.527.026,5.133,1.755-.752,3.774-3.04,4.534S715.851,421.67,715.3,419.924Z" transform="translate(-481.478 -366.146)" fill="#e3a437"/>
            <path id="Tracé_2467" data-name="Tracé 2467" d="M722.305,417.629c-.62-1.722.677-3.766,2.886-4.6s4.539-.159,5.212,1.544-.608,3.8-2.872,4.657S722.924,419.352,722.305,417.629Z" transform="translate(-476.164 -368.044)" fill="#e3a437"/>
            <path id="Tracé_2468" data-name="Tracé 2468" d="M684.555,426.555c-.25-1.813,1.42-3.542,3.723-3.894s4.416.8,4.721,2.6-1.357,3.589-3.716,3.949S684.8,428.368,684.555,426.555Z" transform="translate(-504.834 -360.479)" fill="#e3a437"/>
            <path id="Tracé_2469" data-name="Tracé 2469" d="M678.32,427.252c-.187-1.82,1.536-3.491,3.85-3.766s4.381.944,4.626,2.759-1.477,3.542-3.845,3.822S678.509,429.073,678.32,427.252Z" transform="translate(-509.578 -359.831)" fill="#e3a437"/>
            <path id="Tracé_2470" data-name="Tracé 2470" d="M672.071,427.742c-.127-1.827,1.651-3.44,3.97-3.635s4.344,1.092,4.527,2.915-1.593,3.489-3.966,3.69S672.2,429.567,672.071,427.742Z" transform="translate(-514.334 -359.344)" fill="#e3a437"/>
            <path id="Tracé_2471" data-name="Tracé 2471" d="M665.811,428.02c-.065-1.829,1.766-3.38,4.088-3.5s4.3,1.239,4.423,3.066-1.707,3.434-4.086,3.554S665.876,429.849,665.811,428.02Z" transform="translate(-519.102 -359.019)" fill="#e3a437"/>
            <path id="Tracé_2472" data-name="Tracé 2472" d="M659.546,428.088c0-1.831,1.877-3.318,4.2-3.359s4.255,1.381,4.315,3.212-1.822,3.374-4.2,3.415S659.55,429.919,659.546,428.088Z" transform="translate(-523.875 -358.855)" fill="#e3a437"/>
            <path id="Tracé_2473" data-name="Tracé 2473" d="M653.282,427.949c.058-1.831,1.989-3.255,4.314-3.218s4.208,1.526,4.2,3.357-1.933,3.311-4.314,3.272S653.223,429.778,653.282,427.949Z" transform="translate(-528.65 -358.854)" fill="#e3a437"/>
            <path id="Tracé_2474" data-name="Tracé 2474" d="M647.023,427.6c.12-1.827,2.1-3.186,4.419-3.07s4.155,1.665,4.092,3.494-2.044,3.246-4.423,3.126S646.9,429.424,647.023,427.6Z" transform="translate(-533.422 -359.012)" fill="#e3a437"/>
            <path id="Tracé_2475" data-name="Tracé 2475" d="M640.777,427.039c.182-1.822,2.2-3.114,4.523-2.92s4.1,1.8,3.974,3.632-2.153,3.174-4.527,2.974S640.6,428.859,640.777,427.039Z" transform="translate(-538.188 -359.334)" fill="#e3a437"/>
            <path id="Tracé_2476" data-name="Tracé 2476" d="M634.546,426.269c.243-1.815,2.312-3.036,4.624-2.765s4.039,1.942,3.852,3.764-2.259,3.1-4.627,2.821S634.3,428.084,634.546,426.269Z" transform="translate(-542.944 -359.817)" fill="#e3a437"/>
            <path id="Tracé_2477" data-name="Tracé 2477" d="M628.338,425.29c.3-1.8,2.414-2.957,4.719-2.606s3.974,2.077,3.727,3.892-2.365,3.022-4.724,2.661S628.035,427.1,628.338,425.29Z" transform="translate(-547.685 -360.461)" fill="#e3a437"/>
            <path id="Tracé_2478" data-name="Tracé 2478" d="M622.158,424.1c.365-1.8,2.515-2.874,4.809-2.446s3.908,2.211,3.6,4.018-2.467,2.939-4.818,2.5S621.794,425.9,622.158,424.1Z" transform="translate(-552.407 -361.267)" fill="#e3a437"/>
            <path id="Tracé_2479" data-name="Tracé 2479" d="M616.011,422.7c.425-1.78,2.613-2.784,4.9-2.278s3.836,2.344,3.468,4.138-2.567,2.853-4.906,2.335S615.587,424.484,616.011,422.7Z" transform="translate(-557.105 -362.234)" fill="#e3a437"/>
            <path id="Tracé_2480" data-name="Tracé 2480" d="M609.9,421.1c.485-1.766,2.712-2.7,4.98-2.111s3.764,2.476,3.334,4.255-2.666,2.765-4.99,2.164S609.418,422.862,609.9,421.1Z" transform="translate(-561.777 -363.363)" fill="#e3a437"/>
            <path id="Tracé_2481" data-name="Tracé 2481" d="M603.838,419.281c.544-1.748,2.805-2.6,5.057-1.937s3.686,2.6,3.2,4.368-2.761,2.671-5.07,1.991S603.294,421.029,603.838,419.281Z" transform="translate(-566.417 -364.654)" fill="#e3a437"/>
            <path id="Tracé_2482" data-name="Tracé 2482" d="M597.139,417.01c.611-1.727,2.907-2.488,5.14-1.739s3.6,2.745,3.041,4.49-2.867,2.562-5.154,1.794S596.53,418.735,597.139,417.01Z" transform="translate(-571.546 -366.282)" fill="#e3a437"/>
            <path id="Tracé_2483" data-name="Tracé 2483" d="M590.32,414.4c.678-1.7,3.01-2.372,5.217-1.533s3.5,2.89,2.878,4.61-2.971,2.448-5.233,1.588S589.643,416.1,590.32,414.4Z" transform="translate(-576.77 -368.167)" fill="#e3a437"/>
            <path id="Tracé_2484" data-name="Tracé 2484" d="M691.672,430.851c-.31-1.8,1.357-3.6,3.716-4.041s4.564.624,4.93,2.418-1.292,3.644-3.707,4.1S691.982,432.655,691.672,430.851Z" transform="translate(-499.42 -357.345)" fill="#e3a437"/>
            <path id="Tracé_2485" data-name="Tracé 2485" d="M698.033,429.7c-.37-1.794,1.237-3.642,3.584-4.166s4.59.465,5.016,2.247-1.172,3.686-3.573,4.222S698.4,431.5,698.033,429.7Z" transform="translate(-494.584 -358.345)" fill="#e3a437"/>
            <path id="Tracé_2486" data-name="Tracé 2486" d="M704.361,428.34c-.43-1.78,1.117-3.681,3.448-4.285s4.613.308,5.1,2.074-1.05,3.725-3.438,4.342S704.793,430.12,704.361,428.34Z" transform="translate(-489.776 -359.511)" fill="#e3a437"/>
            <path id="Tracé_2487" data-name="Tracé 2487" d="M710.652,426.762c-.492-1.764.994-3.718,3.309-4.4s4.631.148,5.177,1.9-.929,3.76-3.3,4.46S711.143,428.526,710.652,426.762Z" transform="translate(-484.999 -360.843)" fill="#e3a437"/>
            <path id="Tracé_2488" data-name="Tracé 2488" d="M716.9,424.969c-.552-1.746.871-3.751,3.168-4.518s4.643-.012,5.249,1.716-.8,3.792-3.156,4.574S717.447,426.713,716.9,424.969Z" transform="translate(-480.258 -362.342)" fill="#e3a437"/>
            <path id="Tracé_2489" data-name="Tracé 2489" d="M723.092,422.96c-.61-1.727.749-3.781,3.025-4.627s4.654-.176,5.316,1.531-.679,3.818-3.01,4.684S723.7,424.685,723.092,422.96Z" transform="translate(-475.558 -364.007)" fill="#e3a437"/>
            <path id="Tracé_2490" data-name="Tracé 2490" d="M730.23,420.352c-.678-1.7.6-3.811,2.854-4.751s4.659-.367,5.39,1.311-.534,3.848-2.839,4.807S730.908,422.053,730.23,420.352Z" transform="translate(-470.146 -366.154)" fill="#e3a437"/>
            <path id="Tracé_2491" data-name="Tracé 2491" d="M685.284,431.784c-.25-1.815,1.473-3.551,3.843-3.914s4.536.779,4.841,2.583-1.412,3.6-3.838,3.97S685.533,433.6,685.284,431.784Z" transform="translate(-504.278 -356.511)" fill="#e3a437"/>
            <path id="Tracé_2492" data-name="Tracé 2492" d="M678.874,432.5c-.188-1.822,1.591-3.5,3.968-3.78s4.5.93,4.745,2.745-1.529,3.549-3.963,3.836S679.061,434.321,678.874,432.5Z" transform="translate(-509.155 -355.844)" fill="#e3a437"/>
            <path id="Tracé_2493" data-name="Tracé 2493" d="M672.448,433c-.127-1.827,1.706-3.441,4.09-3.644s4.464,1.082,4.647,2.9-1.646,3.494-4.086,3.7S672.573,434.828,672.448,433Z" transform="translate(-514.047 -355.343)" fill="#e3a437"/>
            <path id="Tracé_2494" data-name="Tracé 2494" d="M666.01,433.287c-.063-1.829,1.82-3.382,4.21-3.5s4.423,1.232,4.543,3.059-1.76,3.436-4.206,3.561S666.075,435.118,666.01,433.287Z" transform="translate(-518.95 -355.008)" fill="#e3a437"/>
            <path id="Tracé_2495" data-name="Tracé 2495" d="M659.568,433.359c0-1.831,1.933-3.32,4.324-3.36s4.375,1.38,4.435,3.211-1.875,3.374-4.322,3.417S659.572,435.19,659.568,433.359Z" transform="translate(-523.858 -354.84)" fill="#e3a437"/>
            <path id="Tracé_2496" data-name="Tracé 2496" d="M653.127,433.215c.058-1.831,2.042-3.253,4.434-3.214s4.329,1.526,4.326,3.357-1.986,3.311-4.433,3.27S653.069,435.044,653.127,433.215Z" transform="translate(-528.768 -354.837)" fill="#e3a437"/>
            <path id="Tracé_2497" data-name="Tracé 2497" d="M646.691,432.855c.12-1.827,2.151-3.182,4.541-3.063s4.275,1.67,4.211,3.5-2.1,3.242-4.543,3.119S646.571,434.682,646.691,432.855Z" transform="translate(-533.675 -355.002)" fill="#e3a437"/>
            <path id="Tracé_2498" data-name="Tracé 2498" d="M640.267,432.279c.181-1.822,2.259-3.107,4.645-2.907s4.217,1.813,4.093,3.64-2.206,3.17-4.648,2.966S640.088,434.1,640.267,432.279Z" transform="translate(-538.576 -355.332)" fill="#e3a437"/>
            <path id="Tracé_2499" data-name="Tracé 2499" d="M633.861,431.49c.243-1.815,2.365-3.031,4.744-2.751s4.158,1.956,3.972,3.778-2.314,3.092-4.747,2.805S633.619,433.3,633.861,431.49Z" transform="translate(-543.466 -355.829)" fill="#e3a437"/>
            <path id="Tracé_2500" data-name="Tracé 2500" d="M627.477,430.484c.3-1.806,2.469-2.948,4.839-2.589s4.093,2.1,3.847,3.91-2.419,3.013-4.844,2.643S627.174,432.289,627.477,430.484Z" transform="translate(-548.34 -356.492)" fill="#e3a437"/>
            <path id="Tracé_2501" data-name="Tracé 2501" d="M621.122,429.262c.365-1.794,2.569-2.862,4.929-2.421s4.026,2.233,3.718,4.037-2.52,2.93-4.936,2.479S620.759,431.056,621.122,429.262Z" transform="translate(-553.195 -357.321)" fill="#e3a437"/>
            <path id="Tracé_2502" data-name="Tracé 2502" d="M614.8,427.826c.425-1.781,2.668-2.774,5.015-2.252s3.956,2.368,3.586,4.162-2.62,2.842-5.024,2.308S614.376,429.606,614.8,427.826Z" transform="translate(-558.027 -358.316)" fill="#e3a437"/>
            <path id="Tracé_2503" data-name="Tracé 2503" d="M608.519,426.174c.485-1.766,2.765-2.68,5.1-2.079s3.88,2.5,3.45,4.284-2.719,2.752-5.107,2.136S608.034,427.938,608.519,426.174Z" transform="translate(-562.83 -359.479)" fill="#e3a437"/>
            <path id="Tracé_2504" data-name="Tracé 2504" d="M602.282,424.307c.544-1.748,2.858-2.583,5.174-1.9s3.8,2.636,3.314,4.4-2.814,2.657-5.186,1.958S601.737,426.053,602.282,424.307Z" transform="translate(-567.601 -360.806)" fill="#e3a437"/>
            <path id="Tracé_2505" data-name="Tracé 2505" d="M595.394,421.972c.61-1.727,2.959-2.47,5.255-1.7s3.713,2.782,3.156,4.527-2.918,2.546-5.269,1.755S594.784,423.7,595.394,421.972Z" transform="translate(-572.873 -362.482)" fill="#e3a437"/>
            <path id="Tracé_2506" data-name="Tracé 2506" d="M589.7,419.823c.666-1.706,3.041-2.374,5.318-1.528s3.633,2.9,3.024,4.629-3,2.451-5.334,1.584S589.04,421.529,589.7,419.823Z" transform="translate(-577.23 -364.037)" fill="#e3a437"/>
            <path id="Tracé_2507" data-name="Tracé 2507" d="M582.759,416.913c.731-1.678,3.138-2.248,5.388-1.311s3.533,3.05,2.855,4.751-3.1,2.329-5.406,1.367S582.027,418.59,582.759,416.913Z" transform="translate(-582.551 -366.154)" fill="#e3a437"/>
          </g>
          <g id="Groupe_283" data-name="Groupe 283" transform="translate(0 194.046)">
            <g id="Groupe_282" data-name="Groupe 282">
              <path id="Tracé_2508" data-name="Tracé 2508" d="M597.177,503.046c0,.12-.238.24-.358.24-.03,0-.06-.03-.09-.06l-1.318-3.022a.916.916,0,0,0-.6-.6,21.854,21.854,0,0,0-3.651-.479c-.088,1.766-.21,6.823-.27,8.411-.03,1.676-.118,7.272-.118,8.467,0,.3.118.361.328.389l1.5.27c.092,0,.15.18.15.361,0,.058,0,.088-.09.088-.657-.03-2.3-.06-4.039-.06-1.586,0-3.052.03-3.711.06-.09,0-.09-.03-.09-.06,0-.15.06-.389.15-.389l1.526-.3c.21-.03.24-.122.24-.419.028-1.2-.09-7.122-.122-8.53,0-1.195-.118-6.763-.15-8.289a24.709,24.709,0,0,0-3.589.449,1.042,1.042,0,0,0-.659.629l-1.376,2.992c-.03.06-.06.09-.12.09-.09,0-.36-.15-.36-.24l.3-4.4a.189.189,0,0,1,.21-.21c.238,0,.809.028,2.035.088,1.256.032,3.142.09,5.956.09,2.722,0,4.608-.028,5.864-.09,1.258-.028,1.885-.06,2.1-.06.12,0,.18.06.18.21Z" transform="translate(-580.36 -496.727)" fill="#f3525d"/>
              <path id="Tracé_2509" data-name="Tracé 2509" d="M602.533,507.122a.9.9,0,0,1-.6.839c-1.108.359-6.525.359-7.931.24a9.919,9.919,0,0,0,.15,2.035,4.3,4.3,0,0,0,3.921,3.651,9.668,9.668,0,0,0,2-.21,11.4,11.4,0,0,0,2.187-.777c.06-.032.15.15.15.358,0,.092-.062.12-.122.18a15.78,15.78,0,0,1-3.441,1.5,8.07,8.07,0,0,1-2.633.3c-3.771,0-6.555-1.766-6.555-6.164,0-4.04,2.934-7.931,7.182-7.931a5.717,5.717,0,0,1,5.686,5.956Zm-6.224-5.385c-1.166,0-2.365,1.766-2.3,5.924a14.562,14.562,0,0,0,3.859-.18c.241-.12.421-.328.421-.959,0-1.614-.359-4.816-1.945-4.816Z" transform="translate(-573.27 -494.67)" fill="#f3525d"/>
              <path id="Tracé_2510" data-name="Tracé 2510" d="M598.153,509.219a7.85,7.85,0,0,1,3.024-6.2,8.848,8.848,0,0,1,5.746-1.885,6.893,6.893,0,0,1,2.574.359c.09.03.148.118.148.268l.18,3.233c0,.09-.27.24-.359.24-.06,0-.088,0-.118-.06-.449-.867-.929-1.826-1.348-2.544a1.555,1.555,0,0,0-.537-.629,1.732,1.732,0,0,0-1.048-.268c-1.077,0-2.065.867-2.872,2.6a10.314,10.314,0,0,0-.9,4.43c0,3.5,1.826,5.147,4.01,5.147a7.244,7.244,0,0,0,1.526-.18,8.021,8.021,0,0,0,1.975-.687c.06-.032.15.088.15.268,0,.12-.03.21-.12.24a15.287,15.287,0,0,1-2.994,1.376,6.854,6.854,0,0,1-2.483.3c-3.651,0-6.555-1.588-6.555-5.986Z" transform="translate(-566.8 -494.67)" fill="#f3525d"/>
              <path id="Tracé_2511" data-name="Tracé 2511" d="M611.733,497.472c.178-.032.238.09.238.268,0,.24-.329,10.056-.419,12.419,0,.27-.03.631-.058.988h.148a8.216,8.216,0,0,1,.3-.9c.837-2.335,3.112-6.315,6.194-6.315,2.425,0,3.591,2.425,3.591,6.315,0,2.633-.238,5.207-.328,6.224-.032.479.03.6.24.657l1.436.3c.058,0,.15.182.15.359,0,.03-.03.06-.092.06-.537-.03-1.824-.06-3.56-.06-1.766,0-3.142.03-3.771.06-.09,0-.09-.03-.09-.06,0-.12.03-.359.12-.359l1.5-.268c.24-.032.3-.15.33-.421.09-.777.15-2.511.15-4.368,0-2.842-.389-5.656-1.975-5.656-1.676,0-3.381,2.964-4.1,6.555a25.915,25.915,0,0,0-.271,3.5c0,.268.122.329.329.358l1.468.3c.058,0,.15.182.15.331,0,.058,0,.088-.092.088-.627-.03-2.155-.06-3.831-.06-1.644,0-2.992.03-3.471.06-.088,0-.088-.03-.088-.088,0-.122.088-.331.15-.331l1.436-.328c.18-.03.208-.122.24-.361.028-.807-.032-7.061-.032-8.766,0-1.316-.09-7.871-.118-8.978,0-.27-.06-.389-.331-.419l-1.824-.09c-.092,0-.18-.18-.18-.36,0-.03,0-.09.088-.09Z" transform="translate(-561.378 -497.467)" fill="#f3525d"/>
              <path id="Tracé_2512" data-name="Tracé 2512" d="M627.52,498.506c1.045,0,1.854.03,2.511.058a.309.309,0,0,1,.241.122c.957,3.232,4.039,13.556,5.237,17.237a.638.638,0,0,0,.388.389l1.107.3c.092.03.15.18.15.389,0,.03-.028.06-.088.06-.629,0-2.065-.06-3.561-.06-1.676,0-3.292.03-4.1.06-.09,0-.09-.03-.09-.06,0-.178.09-.389.18-.418l1.618-.27c.238-.03.268-.24.208-.479-.33-.989-1.436-3.861-1.766-4.879-1.346.03-4.818.122-6.374.24-.09,0-.18.09-.21.24-.18.869-.747,3.292-.929,4.368-.028.361.09.449.3.511l1.556.3c.092,0,.18.211.18.389,0,.06-.03.06-.088.06-.749-.03-1.947-.06-3.144-.06-1.018,0-1.914.03-2.513.06-.06,0-.06-.03-.06-.088,0-.092.06-.361.15-.389l.747-.241c.24-.058.389-.178.539-.539,1.466-3.589,4.578-12.777,5.924-16.428.271-.717.659-.867,1.855-.867Zm-1.616,2.363a9.876,9.876,0,0,0-.3,1.018c-.749,2.483-1.707,5.954-2.275,8.019a.163.163,0,0,0,.15.21,56.422,56.422,0,0,0,5.864.27c-.508-1.436-2.063-5.776-2.872-8.469-.09-.27-.21-.629-.389-1.048Z" transform="translate(-551.467 -496.675)" fill="#f3525d"/>
              <path id="Tracé_2513" data-name="Tracé 2513" d="M640.843,504.533c.062,0,.092.028.092.088,0,.15-.092.479-.18.511l-5.087.358c-.06,1.945-.15,5.117-.182,5.626-.028.957-.058,4.908-.058,5.625.03.271.15.361.358.389l2.634.27c.09,0,.15.24.15.389,0,.03-.03.06-.088.06-1.528-.03-3.234-.06-4.879-.06-1.706,0-3.052.03-3.921.06-.06,0-.06-.03-.06-.06,0-.09.06-.36.15-.36l1.616-.268c.21-.032.3-.15.3-.389,0-1.138-.15-4.518-.178-5.956-.032-1.2-.15-4.758-.15-5.3l-2.336.06c-.06,0-.088-.03-.088-.12a2.035,2.035,0,0,1,.118-.539.539.539,0,0,1,.539-.448h1.8c.18-3.531,2.275-7,7.422-7a5.7,5.7,0,0,1,2.395.389.188.188,0,0,1,.15.178l.178,3.232c0,.12-.268.3-.39.3-.028,0-.06-.03-.118-.118-.449-.839-.989-1.915-1.348-2.544a1.514,1.514,0,0,0-.477-.569,1.4,1.4,0,0,0-.839-.268c-1.5,0-2.633,2.243-2.693,6.374Z" transform="translate(-543.341 -497.465)" fill="#f3525d"/>
              <path id="Tracé_2514" data-name="Tracé 2514" d="M641.88,508.289c.06-.328.12-.6.15-.777.689-2.842,2.243-6.373,4.967-6.373a1.661,1.661,0,0,1,.957.24.268.268,0,0,1,.092.21l.208,4.159c0,.12-.268.27-.328.27-.03,0-.06,0-.09-.06-.359-.687-.839-1.5-1.2-2.065a1.061,1.061,0,0,0-.837-.509c-1.646,0-3.052,3-3.861,7.064a30.106,30.106,0,0,0-.3,3.531c0,.268.121.33.329.358l2.335.331c.06,0,.15.208.15.3,0,.058,0,.088-.06.088-.839-.03-2.574-.06-4.608-.06-1.766,0-3.323.03-3.681.06-.06,0-.06-.03-.06-.06,0-.15.06-.328.15-.328l1.5-.3a.344.344,0,0,0,.268-.389c0-.777-.06-4.49-.088-5.688-.032-1.285-.06-4.368-.122-5.205,0-.27-.058-.449-.328-.479l-1.348-.09c-.118,0-.178-.24-.178-.359,0-.058,0-.118.088-.118l5.806-.869c.24-.06.3.06.3.27,0,.449-.178,4.34-.3,5.984,0,.271-.028.629-.028.867Z" transform="translate(-538.036 -494.67)" fill="#f3525d"/>
              <path id="Tracé_2515" data-name="Tracé 2515" d="M649.458,503.494a.218.218,0,0,1,.268.24c-.058,1.2-.208,5.327-.238,6.793-.03,1.348-.09,4.668-.09,5.806,0,.268.06.33.27.389l1.5.3c.06,0,.15.208.15.3,0,.058,0,.088-.062.088-.717-.03-2.123-.06-3.741-.06-1.644,0-3.05.03-3.649.06-.09,0-.09-.03-.09-.06,0-.12.06-.3.15-.328l1.406-.331c.21-.058.329-.118.329-.389,0-.657-.09-4.248-.12-5.715-.03-1.226-.12-4.4-.15-5.147-.03-.24-.06-.449-.329-.449l-1.346-.06c-.09,0-.21-.21-.21-.388,0-.032,0-.062.06-.062Zm-2.185-5.447a1.943,1.943,0,0,1,2.035,1.945,2.03,2.03,0,0,1-2.065,2.063,2.012,2.012,0,1,1,0-4.009Z" transform="translate(-532.24 -497.025)" fill="#f3525d"/>
              <path id="Tracé_2516" data-name="Tracé 2516" d="M648.765,509.219a7.845,7.845,0,0,1,3.024-6.2,8.843,8.843,0,0,1,5.744-1.885,6.886,6.886,0,0,1,2.574.359c.09.03.148.118.148.268l.181,3.233c0,.09-.271.24-.359.24-.062,0-.09,0-.12-.06-.449-.867-.928-1.826-1.346-2.544a1.574,1.574,0,0,0-.539-.629,1.729,1.729,0,0,0-1.048-.268c-1.077,0-2.065.867-2.872,2.6a10.314,10.314,0,0,0-.9,4.43c0,3.5,1.826,5.147,4.009,5.147a7.244,7.244,0,0,0,1.526-.18,7.97,7.97,0,0,0,1.975-.687c.06-.032.15.088.15.268,0,.12-.028.21-.12.24a15.211,15.211,0,0,1-2.992,1.376,6.865,6.865,0,0,1-2.484.3c-3.651,0-6.553-1.588-6.553-5.986Z" transform="translate(-528.229 -494.67)" fill="#f3525d"/>
              <path id="Tracé_2517" data-name="Tracé 2517" d="M665.41,506.972a10.88,10.88,0,0,0-.27-1.826c-.359-1.374-1.2-2.513-2.634-2.513a6.6,6.6,0,0,0-4.338,1.975c-.03.03-.062.06-.09.06-.09,0-.33-.358-.18-.507a9.232,9.232,0,0,1,7-3.024c4.009,0,4.64,3.381,4.64,6.405,0,.567-.062,2.273-.122,3.292-.06,1.345-.118,2.663-.118,3.142,0,.208.058.3.3.358l1.258.3a.333.333,0,0,1,.178.3c0,.06-.028.09-.118.09-.359-.03-1.588-.03-2.754-.03-1.018,0-1.646,0-2.153.03-.092,0-.15-.03-.15-.15-.032-.24-.092-1.316-.092-1.974,0-.15-.03-.6-.03-.839l-.088-.06c-.121.24-.271.509-.421.749a5.5,5.5,0,0,1-4.758,2.483,3.834,3.834,0,0,1-3.981-4.011,5.267,5.267,0,0,1,5.6-5.477,4.4,4.4,0,0,1,2.6.777,4.1,4.1,0,0,1,.6.481Zm-2.693,6.735c1.167,0,2.243-1.138,2.811-2.782a3.242,3.242,0,0,0,.21-1.078,2.954,2.954,0,0,0-.268-1.136,3.13,3.13,0,0,0-2.6-2.215c-1.526,0-2.213,1.944-2.213,3.981,0,2.093.837,3.232,2.034,3.232Z" transform="translate(-522.342 -494.67)" fill="#f3525d"/>
              <path id="Tracé_2518" data-name="Tracé 2518" d="M682.682,514.668c.09,0,.15.208.15.328,0,.03,0,.06-.06.06-1.018-.03-2.065-.06-3.8-.06-1.706,0-2.994.03-3.741.06-.06,0-.088-.03-.088-.06,0-.09.058-.328.148-.328l1.436-.331a.417.417,0,0,0,.359-.418c.06-.629.15-2.964.15-4.34,0-2.6-.359-5.625-2.035-5.625-1.436,0-2.9,2.275-3.8,5.924a20.405,20.405,0,0,0-.448,4.069c0,.271.088.361.268.39l1.468.331c.09,0,.148.208.148.328,0,.03-.03.06-.09.06-1.167-.03-2.123-.06-3.741-.06s-2.751.03-3.649.06c-.06,0-.06-.03-.06-.06,0-.12.06-.328.15-.36l1.526-.268c.178-.06.268-.15.268-.421,0-.9-.058-4.4-.058-5.714-.032-1.018-.12-4.368-.15-5.147-.032-.27-.032-.449-.3-.479l-1.316-.09c-.092,0-.181-.21-.181-.359,0-.058,0-.09.09-.09l5.806-.927c.181-.03.24.06.24.24-.03.419-.18,4.218-.24,5.834,0,.3-.028.689-.06,1.018l.15.03c.092-.3.21-.689.27-.839.839-2.663,3.114-6.284,6.046-6.284,2.393,0,3.621,2.243,3.621,6.405,0,2.213-.212,5-.33,6.252-.03.3.03.449.33.511Z" transform="translate(-515.678 -494.672)" fill="#f3525d"/>
              <path id="Tracé_2519" data-name="Tracé 2519" d="M687.682,515.6c.09-.33.21-.659.3-.957,1.077-3.951,2.724-10.236,3.681-14.426.18-.867.3-.927,2.005-1.077a8.561,8.561,0,0,1,1.077-.09.261.261,0,0,1,.27.21c.988,3.681,2.754,11.522,3.681,15.561a6.843,6.843,0,0,0,.27.839h.15c.09-.24.18-.627.24-.869.867-3.739,2.155-10.322,2.812-14.992.03-.329-.058-.509-.269-.539l-1.4-.21c-.122-.028-.182-.27-.182-.418,0-.06,0-.092.06-.092h5.746a.081.081,0,0,1,.09.092c0,.148-.06.358-.15.389l-.657.208a.662.662,0,0,0-.539.539c-.837,2.934-4.13,13.647-5.239,16.458-.21.659-.388.721-2.633.779h-1.2a.32.32,0,0,1-.269-.208c-.927-2.964-2.275-7-2.962-9.7-.122-.389-.272-1.078-.449-1.706h-.18c-.18.657-.419,1.436-.6,2.005-.659,1.944-2.243,6.673-3.17,8.858-.271.627-.421.689-3.024.747h-.929c-.15,0-.21-.058-.27-.24-.867-2.932-2.962-11.97-4.129-17.177-.06-.21-.15-.359-.359-.389l-.777-.15c-.09-.028-.182-.27-.182-.418a.082.082,0,0,1,.092-.092h8.169c.09,0,.09.032.09.122,0,.118-.09.36-.21.388l-1.5.21a.367.367,0,0,0-.3.449c.478,3.232,1.736,10.862,2.453,14.874.062.238.15.657.211,1.017Z" transform="translate(-505.573 -496.65)" fill="#f3525d"/>
              <path id="Tracé_2520" data-name="Tracé 2520" d="M700.4,515.233c-4.22,0-6.555-2.573-6.555-6.4,0-4.011,2.515-7.691,8.051-7.691,4.7,0,6.673,2.992,6.673,6.555,0,3.949-2.663,7.54-8.141,7.54Zm.927-.567c2.125,0,2.753-2.754,2.753-6.555,0-3.441-.837-6.4-2.871-6.4-1.977,0-2.9,2.633-2.9,6.613,0,3.441,1.077,6.345,2.992,6.345Z" transform="translate(-493.875 -494.67)" fill="#f3525d"/>
              <path id="Tracé_2521" data-name="Tracé 2521" d="M729.663,514.634c.088.032.15.21.15.331,0,.058,0,.088-.09.088-.9-.03-1.915-.06-3.591-.06s-2.964.03-3.681.06c-.09,0-.09-.03-.09-.06,0-.12.06-.328.15-.359l1.346-.328c.18-.03.269-.15.3-.361.088-.777.088-3.41.088-4.249,0-2.932-.477-5.776-2.093-5.776-1.945,0-3.114,3.441-3.531,6.225a33.948,33.948,0,0,0-.27,3.741c0,.24.092.33.329.389l1.616.358c.09.032.15.21.15.331,0,.058,0,.088-.06.088-.957-.03-2.093-.06-3.8-.06s-2.872.03-3.649.06c-.09,0-.09-.03-.09-.088,0-.092.028-.3.15-.331l1.284-.328c.24-.062.3-.15.331-.389.088-.689.058-2.992.058-4.07,0-3.052-.358-5.926-2.065-5.926-1.8,0-3.05,3.114-3.589,6.046-.12.987-.27,2.842-.27,3.979a.311.311,0,0,0,.27.361l1.376.328c.12.032.18.21.18.331,0,.058,0,.088-.09.088-1.258-.03-2.1-.06-3.713-.06-1.554,0-2.423.03-3.41.06-.09,0-.09-.03-.09-.06,0-.12.058-.328.15-.359l1.346-.3c.178-.058.3-.118.3-.389,0-1.316-.06-4.548-.06-5.894-.03-.989-.09-4.248-.18-5.057-.03-.27-.06-.448-.329-.479l-1.286-.06c-.09,0-.182-.18-.182-.358,0-.06,0-.092.122-.122l5.774-.807c.182-.03.21.06.21.21,0,.36-.15,3.8-.268,5.387,0,.24-.06.657-.06.957l.178.06c.09-.359.21-.747.271-.927.807-2.245,2.6-5.716,5.834-5.716,2.183,0,3.381,2.065,3.471,5.3v.869l.12.028c.06-.21.18-.627.27-.9.687-2.005,2.513-5.3,5.716-5.3,2.183,0,3.531,2.093,3.531,6.315,0,2.273-.271,5.535-.329,6.342,0,.331.058.421.3.481Z" transform="translate(-486.876 -494.67)" fill="#f3525d"/>
              <path id="Tracé_2522" data-name="Tracé 2522" d="M731.874,507.122a.9.9,0,0,1-.6.839c-1.108.359-6.525.359-7.931.24a9.91,9.91,0,0,0,.15,2.035,4.3,4.3,0,0,0,3.919,3.651,9.673,9.673,0,0,0,2.005-.21,11.343,11.343,0,0,0,2.185-.777c.062-.032.15.15.15.358,0,.092-.06.12-.12.18a15.816,15.816,0,0,1-3.441,1.5,8.07,8.07,0,0,1-2.633.3c-3.771,0-6.555-1.766-6.555-6.164,0-4.04,2.934-7.931,7.182-7.931a5.717,5.717,0,0,1,5.686,5.956Zm-6.225-5.385c-1.167,0-2.363,1.766-2.3,5.924a14.561,14.561,0,0,0,3.859-.18c.241-.12.421-.328.421-.959,0-1.614-.361-4.816-1.945-4.816Z" transform="translate(-474.7 -494.67)" fill="#f3525d"/>
              <path id="Tracé_2523" data-name="Tracé 2523" d="M744.584,514.668c.09,0,.15.208.15.328,0,.03,0,.06-.06.06-1.017-.03-2.065-.06-3.8-.06-1.708,0-3,.03-3.741.06-.062,0-.09-.03-.09-.06,0-.09.058-.328.15-.328l1.434-.331a.416.416,0,0,0,.359-.418c.062-.629.15-2.964.15-4.34,0-2.6-.359-5.625-2.035-5.625-1.434,0-2.9,2.275-3.8,5.924a20.273,20.273,0,0,0-.449,4.069c0,.271.09.361.268.39l1.468.331c.09,0,.148.208.148.328,0,.03-.028.06-.09.06-1.167-.03-2.123-.06-3.741-.06s-2.751.03-3.649.06c-.06,0-.06-.03-.06-.06,0-.12.06-.328.15-.36l1.526-.268c.18-.06.268-.15.268-.421,0-.9-.058-4.4-.058-5.714-.03-1.018-.12-4.368-.15-5.147-.03-.27-.03-.449-.3-.479l-1.316-.09c-.09,0-.18-.21-.18-.359,0-.058,0-.09.09-.09l5.8-.927c.182-.03.24.06.24.24-.028.419-.178,4.218-.24,5.834,0,.3-.028.689-.06,1.018l.15.03c.092-.3.21-.689.271-.839.837-2.663,3.112-6.284,6.044-6.284,2.395,0,3.621,2.243,3.621,6.405,0,2.213-.21,5-.33,6.252-.03.3.03.449.33.511Z" transform="translate(-468.501 -494.672)" fill="#f3525d"/>
            </g>
          </g>
        </g>
        <g id="Groupe_285" data-name="Groupe 285" transform="translate(63.757 230.523)">
          <path id="Tracé_2524" data-name="Tracé 2524" d="M635.495,538.3c0,5.02-4.758,8.565-13.152,8.565a17.749,17.749,0,0,1-4.758-.474.512.512,0,0,1-.389-.433l-.65-5.884c-.042-.13.433-.432.564-.432.086,0,.13.042.173.129.823,1.471,1.6,3.029,2.423,4.412a2.56,2.56,0,0,0,1.038,1,5.392,5.392,0,0,0,2.943.692c3.72,0,6.532-1.819,6.532-4.629,0-2.6-1.861-4.155-6.317-5.841-4.585-1.73-6.878-3.85-6.878-7.137,0-4.544,5.364-8.74,12.546-8.74a11.728,11.728,0,0,1,4.284.6c.215.088.3.174.3.389l.518,5.625c0,.13-.388.389-.56.389-.088,0-.13,0-.174-.086-.821-1.556-1.642-3.114-2.507-4.629a1.809,1.809,0,0,0-.823-.779,4.665,4.665,0,0,0-2.335-.52c-3.073,0-5.713,1.991-5.713,4.717,0,2.335,1.644,3.634,5.321,5.452,4.069,1.859,7.614,3.806,7.614,7.568Z" transform="translate(-616.543 -517.135)" fill="#081d82"/>
          <path id="Tracé_2525" data-name="Tracé 2525" d="M647.793,532.129a1.3,1.3,0,0,1-.865,1.211c-1.6.52-9.431.52-11.464.347a14.4,14.4,0,0,0,.215,2.943c.737,3.242,3.16,5.278,5.669,5.278a14.007,14.007,0,0,0,2.9-.3,16.251,16.251,0,0,0,3.158-1.126c.088-.042.217.217.217.52,0,.129-.086.173-.173.261a23.05,23.05,0,0,1-4.976,2.162,11.675,11.675,0,0,1-3.806.432c-5.452,0-9.475-2.552-9.475-8.911,0-5.841,4.24-11.464,10.382-11.464,5.8,0,8.22,4.974,8.22,8.608Zm-9-7.787c-1.686,0-3.417,2.552-3.33,8.565a21.185,21.185,0,0,0,5.581-.259c.347-.174.606-.477.606-1.385,0-2.337-.52-6.964-2.812-6.964Z" transform="translate(-606.903 -514.122)" fill="#081d82"/>
          <path id="Tracé_2526" data-name="Tracé 2526" d="M666.175,543.033c.13,0,.217.3.217.478,0,.042,0,.086-.086.086-1.471-.044-2.985-.086-5.494-.086-2.465,0-4.326.042-5.408.086-.086,0-.13-.044-.13-.086,0-.129.086-.478.217-.478l2.076-.474a.607.607,0,0,0,.52-.606c.086-.909.217-4.284.217-6.271,0-3.766-.52-8.136-2.943-8.136-2.076,0-4.2,3.29-5.494,8.567a29.645,29.645,0,0,0-.648,5.884c0,.388.13.518.389.562l2.12.474c.13,0,.217.3.217.478,0,.042-.044.086-.129.086-1.688-.044-3.073-.086-5.41-.086s-3.981.042-5.278.086c-.086,0-.086-.044-.086-.086,0-.174.086-.478.215-.52l2.206-.389c.261-.086.391-.217.391-.6,0-1.3-.088-6.361-.088-8.264-.042-1.471-.171-6.315-.215-7.441-.042-.388-.042-.649-.433-.691l-1.9-.13c-.129,0-.259-.3-.259-.518,0-.088,0-.132.13-.132l8.391-1.339c.261-.044.347.086.347.345-.044.606-.261,6.1-.347,8.435,0,.434-.042,1-.084,1.471l.215.042c.13-.432.3-.994.389-1.21,1.212-3.85,4.5-9.084,8.738-9.084,3.461,0,5.235,3.244,5.235,9.258,0,3.2-.3,7.223-.474,9.04-.046.435.042.65.474.736Z" transform="translate(-597.939 -514.125)" fill="#081d82"/>
          <path id="Tracé_2527" data-name="Tracé 2527" d="M675.1,532.129a1.3,1.3,0,0,1-.865,1.211c-1.6.52-9.432.52-11.464.347a14.379,14.379,0,0,0,.215,2.943c.737,3.242,3.159,5.278,5.669,5.278a13.988,13.988,0,0,0,2.9-.3,16.168,16.168,0,0,0,3.158-1.126c.088-.042.217.217.217.52,0,.129-.085.173-.171.261a23.127,23.127,0,0,1-4.976,2.162,11.681,11.681,0,0,1-3.808.432c-5.45,0-9.475-2.552-9.475-8.911,0-5.841,4.241-11.464,10.384-11.464,5.8,0,8.22,4.974,8.22,8.608Zm-9-7.787c-1.686,0-3.418,2.552-3.33,8.565a21.189,21.189,0,0,0,5.581-.259c.345-.174.606-.477.606-1.385,0-2.337-.52-6.964-2.812-6.964Z" transform="translate(-586.094 -514.122)" fill="#081d82"/>
          <path id="Tracé_2528" data-name="Tracé 2528" d="M669.682,531c0-4.368,4.2-7.526,10.469-7.526a41.742,41.742,0,0,1,4.241.259,7,7,0,0,0,1.339.086l5.755-.042a.114.114,0,0,1,.13.129c0,.217-.086.562-.217.562l-4.368.693a5.326,5.326,0,0,1,2.032,4.326c0,4.543-4.109,6.793-9,7.528-.476.086-1.341.261-2.164.476-1.817.433-2.682.865-2.682,1.427,0,.692,1.514.951,6.273,1.471,6.49.693,9.69,1.73,9.69,4.543,0,3.677-3.806,6.879-12.935,6.879-5.364,0-10.21-1.212-10.21-4.2,0-1.73,1.3-2.335,7.182-4.8a21.661,21.661,0,0,1-3.893-1.255,2.023,2.023,0,0,1-1.04-2.034.578.578,0,0,1,.391-.606c2.032-.691,3.762-1.255,5.581-1.859-3.938-.347-6.578-2.943-6.578-6.014Zm10.211,19.945c3.676,0,5.364-1.644,5.406-3.591,0-2.465-3.158-3.2-8.349-4.153-.648-.086-.779-.129-1.038.086a4.152,4.152,0,0,0-1.688,3.462c0,2.509,2.423,4.2,5.625,4.2Zm-.52-14.622c2.206,0,3.547-1.688,3.547-6.058,0-3.288-.952-6.014-3.33-6.014-2.726,0-3.721,2.467-3.721,6.275,0,3.417,1.514,5.8,3.462,5.8Z" transform="translate(-577.298 -514.122)" fill="#081d82"/>
          <path id="Tracé_2529" data-name="Tracé 2529" d="M694.927,531.912a15.333,15.333,0,0,0-.389-2.638c-.52-1.991-1.73-3.635-3.808-3.635s-4.023.909-6.271,2.855c-.044.044-.086.086-.13.086-.13,0-.476-.518-.259-.735a13.35,13.35,0,0,1,10.123-4.368c5.8,0,6.7,4.888,6.7,9.258,0,.821-.086,3.288-.173,4.758-.086,1.947-.174,3.85-.174,4.542,0,.3.088.434.434.52l1.818.432a.479.479,0,0,1,.257.433c0,.086-.042.129-.171.129-.52-.042-2.294-.042-3.981-.042-1.471,0-2.381,0-3.115.042-.13,0-.217-.042-.217-.217-.042-.345-.129-1.9-.129-2.855,0-.217-.044-.865-.044-1.211l-.13-.086c-.171.345-.388.735-.6,1.08a7.957,7.957,0,0,1-6.879,3.591,5.538,5.538,0,0,1-5.753-5.8c0-3.893,2.507-7.915,8.088-7.915a6.358,6.358,0,0,1,3.765,1.124,6.086,6.086,0,0,1,.864.691Zm-3.894,9.734c1.688,0,3.246-1.642,4.069-4.023a4.806,4.806,0,0,0,.3-1.558,4.293,4.293,0,0,0-.389-1.644c-.564-1.469-1.9-3.2-3.764-3.2-2.206,0-3.2,2.812-3.2,5.755,0,3.029,1.211,4.671,2.941,4.671Z" transform="translate(-566.631 -514.122)" fill="#081d82"/>
          <path id="Tracé_2530" data-name="Tracé 2530" d="M703.479,518.179c.261-.044.349.042.349.345,0,.562-.3,9.085-.391,14.1-.042,3.117-.215,12.634-.215,13.455,0,.389.129.476.432.562l2.248.389c.132,0,.261.3.261.52,0,.042,0,.086-.086.086-1.126-.044-3.2-.086-5.755-.086-2.379,0-4.24.042-5.149.086a.115.115,0,0,1-.129-.13c0-.13.086-.433.261-.476l2.12-.389c.3-.086.474-.173.474-.52.088-1.211-.129-11.549-.129-13.064,0-1.556-.217-10.729-.259-12.5,0-.389-.13-.606-.52-.606l-2.553-.129c-.173,0-.345-.3-.345-.52,0-.086,0-.173.129-.173Z" transform="translate(-557.443 -518.168)" fill="#081d82"/>
        </g>
      </g>
      <text id="August_17th_2022" data-name="August 17th, 2022" transform="translate(1440 5676.363)" fill="#f3525d" font-size="25" font-family="Raleway" font-weight="700"><tspan x="0" y="0">August 17th, 2022</tspan></text>
      <text id="Deadline_to_apply" data-name="Deadline to apply" transform="translate(1462 5627.363)" fill="#050f3c" font-size="20" font-family="Raleway" font-weight="700"><tspan x="0" y="0">Deadline to apply</tspan></text>
    </g>
  </g>
</svg>
