<svg xmlns="http://www.w3.org/2000/svg" xmlns:xlink="http://www.w3.org/1999/xlink" width="471" height="649" viewBox="0 0 471 649">
  <defs>
    <filter id="Rectangle_21" x="28" y="21" width="416" height="601" filterUnits="userSpaceOnUse">
      <feOffset dy="3" input="SourceAlpha"/>
      <feGaussianBlur stdDeviation="3" result="blur"/>
      <feFlood flood-opacity="0.161"/>
      <feComposite operator="in" in2="blur"/>
      <feComposite in="SourceGraphic"/>
    </filter>
    <clipPath id="clip-Plan_de_travail_12">
      <rect width="471" height="649"/>
    </clipPath>
  </defs>
  <g id="Plan_de_travail_12" data-name="Plan de travail – 12" clip-path="url(#clip-Plan_de_travail_12)">
    <rect width="471" height="649" fill="#fff"/>
    <g id="Groupe_432" data-name="Groupe 432" transform="translate(-482 -5544.619)">
      <g transform="matrix(1, 0, 0, 1, 482, 5544.62)" filter="url(#Rectangle_21)">
        <g id="Rectangle_21-2" data-name="Rectangle 21" transform="translate(37 27)" fill="#fff" stroke="#d5d5d5" stroke-width="1">
          <rect width="398" height="583" rx="14" stroke="none"/>
          <rect x="0.5" y="0.5" width="397" height="582" rx="13.5" fill="none"/>
        </g>
      </g>
      <g id="Groupe_270" data-name="Groupe 270" transform="translate(580 5733.012)">
        <g id="Groupe_268" data-name="Groupe 268" transform="translate(0 0)">
          <g id="Groupe_264" data-name="Groupe 264" transform="translate(1.117 90.965)">
            <g id="Groupe_263" data-name="Groupe 263">
              <path id="Tracé_2019" data-name="Tracé 2019" d="M650.753,218.633c0,.553-1.1,1.1-1.656,1.1-.138,0-.275-.137-.412-.275l-6.069-13.928a4.226,4.226,0,0,0-2.758-2.759c-4.689-1.378-14.343-2.067-16.824-2.206-.414,8.137-.966,31.443-1.242,38.752-.138,7.722-.55,33.51-.55,39.027,0,1.378.55,1.656,1.515,1.794l6.9,1.241c.414,0,.691.826.691,1.655,0,.275,0,.414-.414.414-3.032-.139-10.618-.277-18.616-.277-7.311,0-14.068.137-17.1.277-.414,0-.414-.139-.414-.277,0-.689.277-1.792.691-1.792L601.52,280c.966-.139,1.1-.553,1.1-1.931.137-5.517-.412-32.823-.552-39.3,0-5.517-.552-31.166-.689-38.2-2.345.139-11.859.828-16.55,2.069a4.8,4.8,0,0,0-3.033,2.9l-6.345,13.79c-.137.275-.275.412-.55.412-.416,0-1.656-.687-1.656-1.1l1.378-20.271a.871.871,0,0,1,.966-.964c1.1,0,3.725.137,9.38.412,5.792.137,14.479.412,27.443.412,12.55,0,21.238-.137,27.029-.412,5.792-.137,8.687-.275,9.653-.275.553,0,.828.275.828.966Z" transform="translate(-573.249 -197.398)" fill="#081d82"/>
              <path id="Tracé_2020" data-name="Tracé 2020" d="M653.976,197.71c4.826,0,8.551.137,11.584.275a1.435,1.435,0,0,1,1.1.553c4.412,14.893,18.618,62.472,24.134,79.434a2.9,2.9,0,0,0,1.792,1.794l5.1,1.378c.412.137.687.826.687,1.792,0,.137-.137.277-.412.277-2.9,0-9.515-.277-16.412-.277-7.722,0-15.168.137-18.891.277-.416,0-.416-.139-.416-.277,0-.826.416-1.792.828-1.93l7.448-1.241c1.1-.139,1.241-1.1.966-2.206-1.519-4.551-6.62-17.792-8.139-22.479-6.2.137-22.2.55-29.372,1.1-.414,0-.826.412-.964,1.1-.828,4-3.448,15.168-4.277,20.132-.137,1.656.414,2.069,1.38,2.347l7.17,1.378c.414,0,.828.966.828,1.792,0,.277-.137.277-.414.277-3.447-.139-8.964-.277-14.479-.277-4.689,0-8.826.137-11.584.277-.277,0-.277-.139-.277-.414,0-.414.277-1.655.689-1.792l3.448-1.1c1.1-.277,1.794-.828,2.481-2.485,6.757-16.548,21.1-58.884,27.305-75.708,1.242-3.309,3.034-4,8.551-4Zm-7.447,10.9a48.325,48.325,0,0,0-1.38,4.689c-3.448,11.447-7.861,27.443-10.481,36.958a.752.752,0,0,0,.691.966,257.693,257.693,0,0,0,27.031,1.241c-2.345-6.618-9.517-26.615-13.24-39.027-.412-1.241-.966-2.9-1.794-4.826Z" transform="translate(-544.203 -197.16)" fill="#081d82"/>
              <path id="Tracé_2021" data-name="Tracé 2021" d="M699.172,276.475c.414-1.519.964-3.036,1.38-4.414,4.964-18.2,12.55-47.164,16.962-66.472.828-4,1.378-4.275,9.239-4.964a39.711,39.711,0,0,1,4.964-.414,1.208,1.208,0,0,1,1.242.966c4.55,16.962,12.689,53.094,16.962,71.712a32.039,32.039,0,0,0,1.24,3.861h.691c.412-1.1.828-2.9,1.1-4,4-17.239,9.929-47.578,12.964-69.092q.209-2.273-1.242-2.481l-6.479-.966c-.553-.137-.828-1.241-.828-1.929,0-.277,0-.416.275-.416h26.479a.366.366,0,0,1,.412.416c0,.689-.275,1.653-.689,1.792l-3.033.966a3.056,3.056,0,0,0-2.484,2.481c-3.861,13.515-19.029,62.886-24.134,75.848-.966,3.036-1.79,3.311-12.135,3.586h-5.515a1.473,1.473,0,0,1-1.242-.964c-4.273-13.653-10.481-32.271-13.653-44.681-.55-1.792-1.241-4.964-2.067-7.861h-.828c-.828,3.034-1.931,6.618-2.759,9.239-3.033,8.964-10.342,30.754-14.615,40.821-1.244,2.9-1.931,3.172-13.931,3.447h-4.275c-.689,0-.964-.275-1.241-1.1-4-13.514-13.653-55.161-19.031-79.157-.277-.966-.689-1.655-1.655-1.794l-3.586-.689c-.412-.137-.828-1.241-.828-1.929a.367.367,0,0,1,.416-.416H694.9c.412,0,.412.139.412.553,0,.552-.412,1.655-.966,1.792l-6.895.966a1.686,1.686,0,0,0-1.378,2.069c2.206,14.893,8,50.059,11.307,68.54.277,1.1.691,3.033.966,4.689Z" transform="translate(-509.55 -197.041)" fill="#081d82"/>
            </g>
          </g>
          <g id="Groupe_265" data-name="Groupe 265" transform="translate(3.861)">
            <path id="Tracé_2022" data-name="Tracé 2022" d="M678.589,158.584a3.7,3.7,0,1,1,4.238,2.6A3.532,3.532,0,0,1,678.589,158.584Z" transform="translate(-495.748 -139.049)" fill="#e3a437"/>
            <path id="Tracé_2023" data-name="Tracé 2023" d="M673.236,159.369a3.7,3.7,0,1,1,4.141,2.742A3.526,3.526,0,0,1,673.236,159.369Z" transform="translate(-499.815 -138.354)" fill="#e3a437"/>
            <path id="Tracé_2024" data-name="Tracé 2024" d="M667.865,159.972a3.692,3.692,0,1,1,4.042,2.881A3.49,3.49,0,0,1,667.865,159.972Z" transform="translate(-503.899 -137.798)" fill="#e3a437"/>
            <path id="Tracé_2025" data-name="Tracé 2025" d="M662.48,160.393a3.689,3.689,0,1,1,3.94,3.017A3.524,3.524,0,0,1,662.48,160.393Z" transform="translate(-507.997 -137.38)" fill="#e3a437"/>
            <path id="Tracé_2026" data-name="Tracé 2026" d="M657.087,160.634a3.687,3.687,0,1,1,3.836,3.149A3.521,3.521,0,0,1,657.087,160.634Z" transform="translate(-512.103 -137.101)" fill="#e3a437"/>
            <path id="Tracé_2027" data-name="Tracé 2027" d="M651.69,160.695a3.687,3.687,0,1,1,3.727,3.274A3.488,3.488,0,0,1,651.69,160.695Z" transform="translate(-516.214 -136.961)" fill="#e3a437"/>
            <path id="Tracé_2028" data-name="Tracé 2028" d="M646.295,160.575a3.686,3.686,0,1,1,3.614,3.4A3.523,3.523,0,0,1,646.295,160.575Z" transform="translate(-520.327 -136.959)" fill="#e3a437"/>
            <path id="Tracé_2029" data-name="Tracé 2029" d="M640.9,160.272a3.687,3.687,0,1,1,3.5,3.517A3.523,3.523,0,0,1,640.9,160.272Z" transform="translate(-524.439 -137.095)" fill="#e3a437"/>
            <path id="Tracé_2030" data-name="Tracé 2030" d="M635.525,159.789a3.688,3.688,0,1,1,3.38,3.633A3.524,3.524,0,0,1,635.525,159.789Z" transform="translate(-528.545 -137.371)" fill="#e3a437"/>
            <path id="Tracé_2031" data-name="Tracé 2031" d="M630.158,159.124a3.692,3.692,0,1,1,3.26,3.746A3.527,3.527,0,0,1,630.158,159.124Z" transform="translate(-532.643 -137.785)" fill="#e3a437"/>
            <path id="Tracé_2032" data-name="Tracé 2032" d="M624.813,158.28a3.7,3.7,0,1,1,3.137,3.854A3.529,3.529,0,0,1,624.813,158.28Z" transform="translate(-536.728 -138.338)" fill="#e3a437"/>
            <path id="Tracé_2033" data-name="Tracé 2033" d="M619.492,157.253a3.7,3.7,0,1,1,3.008,3.958A3.5,3.5,0,0,1,619.492,157.253Z" transform="translate(-540.797 -139.029)" fill="#e3a437"/>
            <path id="Tracé_2034" data-name="Tracé 2034" d="M672.507,154.139a3.569,3.569,0,0,1,7.034-1.077,3.565,3.565,0,0,1-7.034,1.077Z" transform="translate(-500.372 -142.324)" fill="#e3a437"/>
            <path id="Tracé_2035" data-name="Tracé 2035" d="M667.311,154.722a3.561,3.561,0,1,1,3.922,2.9A3.456,3.456,0,0,1,667.311,154.722Z" transform="translate(-504.322 -141.786)" fill="#e3a437"/>
            <path id="Tracé_2036" data-name="Tracé 2036" d="M662.1,155.131a3.559,3.559,0,1,1,3.82,3.026A3.456,3.456,0,0,1,662.1,155.131Z" transform="translate(-508.284 -141.383)" fill="#e3a437"/>
            <path id="Tracé_2037" data-name="Tracé 2037" d="M656.887,155.365a3.56,3.56,0,0,1,7.091-.361,3.557,3.557,0,0,1-7.091.361Z" transform="translate(-512.255 -141.113)" fill="#e3a437"/>
            <path id="Tracé_2038" data-name="Tracé 2038" d="M651.668,155.424a3.555,3.555,0,1,1,3.605,3.276A3.421,3.421,0,0,1,651.668,155.424Z" transform="translate(-516.231 -140.978)" fill="#e3a437"/>
            <path id="Tracé_2039" data-name="Tracé 2039" d="M646.449,155.3a3.56,3.56,0,0,1,7.1.116,3.556,3.556,0,0,1-7.1-.116Z" transform="translate(-520.21 -140.975)" fill="#e3a437"/>
            <path id="Tracé_2040" data-name="Tracé 2040" d="M641.236,155.012a3.56,3.56,0,0,1,7.091.356,3.557,3.557,0,0,1-7.091-.356Z" transform="translate(-524.186 -141.108)" fill="#e3a437"/>
            <path id="Tracé_2041" data-name="Tracé 2041" d="M636.033,154.546a3.559,3.559,0,1,1,3.262,3.623A3.457,3.457,0,0,1,636.033,154.546Z" transform="translate(-528.158 -141.374)" fill="#e3a437"/>
            <path id="Tracé_2042" data-name="Tracé 2042" d="M630.844,153.9a3.565,3.565,0,0,1,7.061.832,3.562,3.562,0,0,1-7.061-.832Z" transform="translate(-532.121 -141.774)" fill="#e3a437"/>
            <path id="Tracé_2043" data-name="Tracé 2043" d="M625.674,153.086a3.569,3.569,0,0,1,7.036,1.071,3.566,3.566,0,0,1-7.036-1.071Z" transform="translate(-536.073 -142.309)" fill="#e3a437"/>
            <path id="Tracé_2044" data-name="Tracé 2044" d="M666.758,149.474a3.436,3.436,0,1,1,3.8,2.909A3.394,3.394,0,0,1,666.758,149.474Z" transform="translate(-504.744 -145.775)" fill="#e3a437"/>
            <path id="Tracé_2045" data-name="Tracé 2045" d="M661.727,149.868a3.433,3.433,0,1,1,3.7,3.036A3.393,3.393,0,0,1,661.727,149.868Z" transform="translate(-508.571 -145.386)" fill="#e3a437"/>
            <path id="Tracé_2046" data-name="Tracé 2046" d="M656.688,150.094a3.432,3.432,0,0,1,6.849-.349,3.43,3.43,0,0,1-6.849.349Z" transform="translate(-512.407 -145.125)" fill="#e3a437"/>
            <path id="Tracé_2047" data-name="Tracé 2047" d="M651.645,150.15a3.432,3.432,0,0,1,6.856-.118,3.43,3.43,0,0,1-6.856.118Z" transform="translate(-516.248 -144.994)" fill="#e3a437"/>
            <path id="Tracé_2048" data-name="Tracé 2048" d="M646.6,150.037a3.431,3.431,0,0,1,6.856.113,3.43,3.43,0,0,1-6.856-.113Z" transform="translate(-520.091 -144.992)" fill="#e3a437"/>
            <path id="Tracé_2049" data-name="Tracé 2049" d="M641.568,149.754a3.431,3.431,0,1,1,3.258,3.5A3.39,3.39,0,0,1,641.568,149.754Z" transform="translate(-523.933 -145.12)" fill="#e3a437"/>
            <path id="Tracé_2050" data-name="Tracé 2050" d="M636.542,149.3a3.434,3.434,0,0,1,6.839.573,3.433,3.433,0,0,1-6.839-.573Z" transform="translate(-527.77 -145.377)" fill="#e3a437"/>
            <path id="Tracé_2051" data-name="Tracé 2051" d="M631.53,148.681a3.436,3.436,0,0,1,6.819.805,3.435,3.435,0,0,1-6.819-.805Z" transform="translate(-531.599 -145.763)" fill="#e3a437"/>
            <path id="Tracé_2052" data-name="Tracé 2052" d="M679.4,163.265a3.824,3.824,0,1,1,4.343,2.581A3.594,3.594,0,0,1,679.4,163.265Z" transform="translate(-495.126 -135.5)" fill="#e3a437"/>
            <path id="Tracé_2053" data-name="Tracé 2053" d="M684.892,162.273a3.831,3.831,0,1,1,4.435,2.432A3.6,3.6,0,0,1,684.892,162.273Z" transform="translate(-490.958 -136.359)" fill="#e3a437"/>
            <path id="Tracé_2054" data-name="Tracé 2054" d="M673.892,164.072a3.818,3.818,0,1,1,4.249,2.728A3.593,3.593,0,0,1,673.892,164.072Z" transform="translate(-499.315 -134.784)" fill="#e3a437"/>
            <path id="Tracé_2055" data-name="Tracé 2055" d="M668.362,164.693a3.822,3.822,0,0,1,7.517-.893,3.815,3.815,0,0,1-7.517.893Z" transform="translate(-503.52 -134.211)" fill="#e3a437"/>
            <path id="Tracé_2056" data-name="Tracé 2056" d="M662.819,165.126a3.81,3.81,0,1,1,4.049,3.008A3.586,3.586,0,0,1,662.819,165.126Z" transform="translate(-507.738 -133.78)" fill="#e3a437"/>
            <path id="Tracé_2057" data-name="Tracé 2057" d="M657.267,165.374a3.808,3.808,0,1,1,3.944,3.144A3.586,3.586,0,0,1,657.267,165.374Z" transform="translate(-511.965 -133.492)" fill="#e3a437"/>
            <path id="Tracé_2058" data-name="Tracé 2058" d="M651.71,165.436a3.807,3.807,0,1,1,3.836,3.274A3.586,3.586,0,0,1,651.71,165.436Z" transform="translate(-516.199 -133.348)" fill="#e3a437"/>
            <path id="Tracé_2059" data-name="Tracé 2059" d="M646.156,165.312a3.806,3.806,0,1,1,3.721,3.4A3.584,3.584,0,0,1,646.156,165.312Z" transform="translate(-520.433 -133.346)" fill="#e3a437"/>
            <path id="Tracé_2060" data-name="Tracé 2060" d="M640.606,165a3.808,3.808,0,1,1,3.607,3.524A3.586,3.586,0,0,1,640.606,165Z" transform="translate(-524.666 -133.487)" fill="#e3a437"/>
            <path id="Tracé_2061" data-name="Tracé 2061" d="M635.066,164.5a3.817,3.817,0,0,1,7.535.633,3.81,3.81,0,0,1-7.535-.633Z" transform="translate(-528.894 -133.771)" fill="#e3a437"/>
            <path id="Tracé_2062" data-name="Tracé 2062" d="M629.542,163.82a3.821,3.821,0,0,1,7.515.886,3.813,3.813,0,0,1-7.515-.886Z" transform="translate(-533.112 -134.198)" fill="#e3a437"/>
            <path id="Tracé_2063" data-name="Tracé 2063" d="M624.038,162.95a3.818,3.818,0,1,1,3.242,3.871A3.591,3.591,0,0,1,624.038,162.95Z" transform="translate(-537.318 -134.767)" fill="#e3a437"/>
            <path id="Tracé_2064" data-name="Tracé 2064" d="M618.559,161.9a3.824,3.824,0,1,1,3.115,3.979A3.6,3.6,0,0,1,618.559,161.9Z" transform="translate(-541.507 -135.48)" fill="#e3a437"/>
            <path id="Tracé_2065" data-name="Tracé 2065" d="M613.109,160.652a3.839,3.839,0,0,1,7.418,1.648,3.831,3.831,0,0,1-7.418-1.648Z" transform="translate(-545.676 -136.335)" fill="#e3a437"/>
            <path id="Tracé_2066" data-name="Tracé 2066" d="M680.308,168.467A3.974,3.974,0,0,1,688,167.022c.365,1.794-1.08,3.6-3.232,4.005S680.618,170.272,680.308,168.467Z" transform="translate(-494.436 -131.555)" fill="#e3a437"/>
            <path id="Tracé_2067" data-name="Tracé 2067" d="M685.971,167.444a3.982,3.982,0,0,1,7.655-1.707c.425,1.78-.96,3.637-3.1,4.115S686.343,169.236,685.971,167.444Z" transform="translate(-490.134 -132.442)" fill="#e3a437"/>
            <path id="Tracé_2068" data-name="Tracé 2068" d="M691.605,166.227a3.99,3.99,0,0,1,7.605-1.968c.486,1.764-.839,3.667-2.967,4.218S692.035,168.007,691.605,166.227Z" transform="translate(-485.857 -133.477)" fill="#e3a437"/>
            <path id="Tracé_2069" data-name="Tracé 2069" d="M674.622,169.3a3.968,3.968,0,0,1,7.729-1.182c.3,1.8-1.2,3.563-3.36,3.892S674.87,171.113,674.622,169.3Z" transform="translate(-498.759 -130.815)" fill="#e3a437"/>
            <path id="Tracé_2070" data-name="Tracé 2070" d="M668.916,169.939a3.962,3.962,0,0,1,7.755-.92c.243,1.813-1.314,3.519-3.484,3.776S669.1,171.759,668.916,169.939Z" transform="translate(-503.098 -130.223)" fill="#e3a437"/>
            <path id="Tracé_2071" data-name="Tracé 2071" d="M663.2,170.388a3.958,3.958,0,0,1,7.774-.659c.183,1.822-1.431,3.473-3.605,3.656S663.321,172.214,663.2,170.388Z" transform="translate(-507.451 -129.779)" fill="#e3a437"/>
            <path id="Tracé_2072" data-name="Tracé 2072" d="M657.467,170.642a3.956,3.956,0,0,1,7.788-.4c.122,1.826-1.545,3.424-3.725,3.535S657.53,172.472,657.467,170.642Z" transform="translate(-511.813 -129.482)" fill="#e3a437"/>
            <path id="Tracé_2073" data-name="Tracé 2073" d="M651.733,170.706a3.955,3.955,0,0,1,7.8-.134c.06,1.829-1.66,3.369-3.84,3.406S651.737,172.537,651.733,170.706Z" transform="translate(-516.181 -129.332)" fill="#e3a437"/>
            <path id="Tracé_2074" data-name="Tracé 2074" d="M646,170.578a3.955,3.955,0,0,1,7.8.129c0,1.829-1.771,3.311-3.952,3.276S645.942,172.407,646,170.578Z" transform="translate(-520.551 -129.331)" fill="#e3a437"/>
            <path id="Tracé_2075" data-name="Tracé 2075" d="M640.274,170.258a3.956,3.956,0,0,1,7.788.389c-.062,1.829-1.882,3.249-4.06,3.14S640.154,172.084,640.274,170.258Z" transform="translate(-524.919 -129.476)" fill="#e3a437"/>
            <path id="Tracé_2076" data-name="Tracé 2076" d="M634.557,169.744a3.959,3.959,0,0,1,7.776.652c-.123,1.826-1.991,3.186-4.166,3S634.377,171.566,634.557,169.744Z" transform="translate(-529.281 -129.769)" fill="#e3a437"/>
            <path id="Tracé_2077" data-name="Tracé 2077" d="M628.857,169.039a3.963,3.963,0,0,1,7.757.915c-.187,1.82-2.1,3.115-4.269,2.86S628.615,170.854,628.857,169.039Z" transform="translate(-533.634 -130.21)" fill="#e3a437"/>
            <path id="Tracé_2078" data-name="Tracé 2078" d="M623.177,168.142a3.967,3.967,0,0,1,7.729,1.177c-.247,1.813-2.2,3.043-4.366,2.714S622.874,169.948,623.177,168.142Z" transform="translate(-537.973 -130.798)" fill="#e3a437"/>
            <path id="Tracé_2079" data-name="Tracé 2079" d="M617.522,167.054a3.973,3.973,0,0,1,7.7,1.438c-.308,1.8-2.306,2.967-4.46,2.564S617.159,168.848,617.522,167.054Z" transform="translate(-542.296 -131.534)" fill="#e3a437"/>
            <path id="Tracé_2080" data-name="Tracé 2080" d="M611.9,165.772a3.982,3.982,0,0,1,7.656,1.7c-.37,1.792-2.409,2.888-4.551,2.411S611.473,167.553,611.9,165.772Z" transform="translate(-546.597 -132.417)" fill="#e3a437"/>
            <path id="Tracé_2081" data-name="Tracé 2081" d="M606.31,164.3a3.99,3.99,0,0,1,7.607,1.963c-.43,1.778-2.507,2.8-4.636,2.254S605.826,166.065,606.31,164.3Z" transform="translate(-550.874 -133.448)" fill="#e3a437"/>
            <path id="Tracé_2082" data-name="Tracé 2082" d="M681.213,173.671c-.31-1.8,1.2-3.57,3.359-3.975s4.208.693,4.574,2.486-1.131,3.612-3.35,4.028S681.524,175.475,681.213,173.671Z" transform="translate(-493.746 -127.61)" fill="#e3a437"/>
            <path id="Tracé_2083" data-name="Tracé 2083" d="M687.05,172.616c-.37-1.794,1.076-3.609,3.228-4.088s4.236.548,4.663,2.328-1.013,3.649-3.219,4.141S687.422,174.408,687.05,172.616Z" transform="translate(-489.31 -128.525)" fill="#e3a437"/>
            <path id="Tracé_2084" data-name="Tracé 2084" d="M692.858,171.363c-.432-1.78.957-3.644,3.094-4.2s4.261.4,4.747,2.167-.892,3.683-3.085,4.25S693.288,173.141,692.858,171.363Z" transform="translate(-484.9 -129.593)" fill="#e3a437"/>
            <path id="Tracé_2085" data-name="Tracé 2085" d="M698.63,169.913c-.492-1.764.837-3.676,2.959-4.3s4.28.254,4.826,2-.77,3.713-2.948,4.356S699.12,171.675,698.63,169.913Z" transform="translate(-480.519 -130.812)" fill="#e3a437"/>
            <path id="Tracé_2086" data-name="Tracé 2086" d="M675.35,174.529c-.248-1.815,1.315-3.528,3.485-3.861s4.178.835,4.483,2.641-1.251,3.57-3.478,3.912S675.6,176.34,675.35,174.529Z" transform="translate(-498.202 -126.847)" fill="#e3a437"/>
            <path id="Tracé_2087" data-name="Tracé 2087" d="M669.468,175.187c-.187-1.82,1.429-3.48,3.609-3.739s4.143.976,4.388,2.791-1.369,3.526-3.605,3.792S669.657,177.007,669.468,175.187Z" transform="translate(-502.676 -126.236)" fill="#e3a437"/>
            <path id="Tracé_2088" data-name="Tracé 2088" d="M663.572,175.648c-.127-1.826,1.545-3.429,3.73-3.616s4.1,1.115,4.285,2.937-1.484,3.478-3.725,3.669S663.7,177.476,663.572,175.648Z" transform="translate(-507.164 -125.777)" fill="#e3a437"/>
            <path id="Tracé_2089" data-name="Tracé 2089" d="M657.666,175.913c-.065-1.831,1.658-3.376,3.848-3.489s4.06,1.253,4.181,3.08-1.6,3.427-3.845,3.54S657.731,177.74,657.666,175.913Z" transform="translate(-511.661 -125.471)" fill="#e3a437"/>
            <path id="Tracé_2090" data-name="Tracé 2090" d="M651.756,175.977c0-1.831,1.769-3.318,3.961-3.357s4.014,1.389,4.076,3.219-1.715,3.371-3.961,3.408S651.758,177.808,651.756,175.977Z" transform="translate(-516.164 -125.317)" fill="#e3a437"/>
            <path id="Tracé_2091" data-name="Tracé 2091" d="M645.846,175.844c.058-1.829,1.882-3.258,4.072-3.221s3.967,1.522,3.965,3.353-1.826,3.311-4.072,3.274S645.788,177.673,645.846,175.844Z" transform="translate(-520.669 -125.314)" fill="#e3a437"/>
            <path id="Tracé_2092" data-name="Tracé 2092" d="M639.942,175.514c.12-1.826,1.991-3.191,4.18-3.082s3.914,1.655,3.85,3.484-1.935,3.249-4.181,3.137S639.822,177.341,639.942,175.514Z" transform="translate(-525.172 -125.465)" fill="#e3a437"/>
            <path id="Tracé_2093" data-name="Tracé 2093" d="M634.049,174.986c.181-1.822,2.1-3.124,4.284-2.941s3.857,1.787,3.732,3.612-2.046,3.181-4.287,2.994S633.867,176.807,634.049,174.986Z" transform="translate(-529.669 -125.767)" fill="#e3a437"/>
            <path id="Tracé_2094" data-name="Tracé 2094" d="M628.171,174.26c.243-1.815,2.2-3.052,4.384-2.795s3.8,1.915,3.612,3.736-2.153,3.112-4.389,2.848S627.93,176.074,628.171,174.26Z" transform="translate(-534.156 -126.222)" fill="#e3a437"/>
            <path id="Tracé_2095" data-name="Tracé 2095" d="M622.315,173.336c.3-1.806,2.308-2.974,4.481-2.645s3.736,2.042,3.487,3.857-2.257,3.036-4.486,2.7S622.012,175.14,622.315,173.336Z" transform="translate(-538.629 -126.829)" fill="#e3a437"/>
            <path id="Tracé_2096" data-name="Tracé 2096" d="M616.485,172.213c.365-1.794,2.409-2.893,4.573-2.49s3.67,2.167,3.36,3.974-2.359,2.957-4.578,2.543S616.122,174.007,616.485,172.213Z" transform="translate(-543.084 -127.588)" fill="#e3a437"/>
            <path id="Tracé_2097" data-name="Tracé 2097" d="M610.688,170.894c.425-1.781,2.507-2.811,4.659-2.333s3.6,2.293,3.232,4.085-2.462,2.877-4.67,2.386S610.264,172.673,610.688,170.894Z" transform="translate(-547.518 -128.499)" fill="#e3a437"/>
            <path id="Tracé_2098" data-name="Tracé 2098" d="M604.926,169.376c.485-1.766,2.606-2.724,4.744-2.173s3.529,2.416,3.1,4.2-2.56,2.789-4.754,2.224S604.441,171.14,604.926,169.376Z" transform="translate(-551.926 -129.563)" fill="#e3a437"/>
            <path id="Tracé_2099" data-name="Tracé 2099" d="M599.206,167.66c.543-1.748,2.7-2.633,4.823-2.007s3.454,2.536,2.964,4.3-2.659,2.7-4.835,2.06S598.662,169.408,599.206,167.66Z" transform="translate(-556.305 -130.779)" fill="#e3a437"/>
            <path id="Tracé_2100" data-name="Tracé 2100" d="M682.118,178.875c-.31-1.8,1.248-3.579,3.477-4s4.328.67,4.693,2.463-1.186,3.623-3.47,4.051S682.428,180.677,682.118,178.875Z" transform="translate(-493.055 -123.665)" fill="#e3a437"/>
            <path id="Tracé_2101" data-name="Tracé 2101" d="M688.129,177.788c-.37-1.794,1.131-3.619,3.346-4.114s4.354.522,4.78,2.3-1.064,3.663-3.337,4.169S688.5,179.58,688.129,177.788Z" transform="translate(-488.487 -124.608)" fill="#e3a437"/>
            <path id="Tracé_2102" data-name="Tracé 2102" d="M694.111,176.5c-.432-1.78,1.01-3.656,3.212-4.227s4.377.37,4.864,2.136-.945,3.7-3.2,4.282S694.541,178.277,694.111,176.5Z" transform="translate(-483.944 -125.708)" fill="#e3a437"/>
            <path id="Tracé_2103" data-name="Tracé 2103" d="M700.055,175.006c-.492-1.764.89-3.69,3.077-4.337s4.4.218,4.943,1.966-.823,3.729-3.064,4.391S700.547,176.768,700.055,175.006Z" transform="translate(-479.431 -126.966)" fill="#e3a437"/>
            <path id="Tracé_2104" data-name="Tracé 2104" d="M705.958,173.309c-.552-1.746.768-3.718,2.938-4.442s4.412.067,5.017,1.8-.7,3.755-2.923,4.5S706.51,175.055,705.958,173.309Z" transform="translate(-474.952 -128.38)" fill="#e3a437"/>
            <path id="Tracé_2105" data-name="Tracé 2105" d="M676.08,179.757c-.248-1.815,1.367-3.535,3.605-3.878s4.3.818,4.6,2.622-1.3,3.581-3.6,3.931S676.328,181.57,676.08,179.757Z" transform="translate(-497.646 -122.878)" fill="#e3a437"/>
            <path id="Tracé_2106" data-name="Tracé 2106" d="M670.022,180.435c-.188-1.82,1.484-3.485,3.729-3.753s4.262.96,4.506,2.775-1.422,3.535-3.723,3.808S670.209,182.255,670.022,180.435Z" transform="translate(-502.254 -122.249)" fill="#e3a437"/>
            <path id="Tracé_2107" data-name="Tracé 2107" d="M663.949,180.91c-.127-1.827,1.6-3.434,3.85-3.626s4.224,1.1,4.407,2.927-1.54,3.484-3.847,3.679S664.076,182.736,663.949,180.91Z" transform="translate(-506.877 -121.776)" fill="#e3a437"/>
            <path id="Tracé_2108" data-name="Tracé 2108" d="M657.866,181.181c-.065-1.829,1.713-3.378,3.968-3.494s4.181,1.246,4.3,3.073-1.655,3.431-3.967,3.547S657.931,183.01,657.866,181.181Z" transform="translate(-511.509 -121.46)" fill="#e3a437"/>
            <path id="Tracé_2109" data-name="Tracé 2109" d="M651.778,181.248c0-1.831,1.824-3.318,4.083-3.359s4.136,1.387,4.2,3.216-1.767,3.373-4.081,3.413S651.782,183.079,651.778,181.248Z" transform="translate(-516.147 -121.301)" fill="#e3a437"/>
            <path id="Tracé_2110" data-name="Tracé 2110" d="M645.691,181.112c.058-1.831,1.937-3.256,4.194-3.219s4.086,1.524,4.085,3.355-1.878,3.311-4.194,3.272S645.633,182.941,645.691,181.112Z" transform="translate(-520.787 -121.299)" fill="#e3a437"/>
            <path id="Tracé_2111" data-name="Tracé 2111" d="M639.609,180.771c.12-1.827,2.046-3.189,4.3-3.077s4.034,1.66,3.97,3.491-1.99,3.246-4.3,3.129S639.49,182.6,639.609,180.771Z" transform="translate(-525.425 -121.454)" fill="#e3a437"/>
            <path id="Tracé_2112" data-name="Tracé 2112" d="M633.54,180.227c.181-1.822,2.151-3.117,4.4-2.929s3.979,1.8,3.854,3.621-2.1,3.177-4.407,2.983S633.358,182.047,633.54,180.227Z" transform="translate(-530.056 -121.765)" fill="#e3a437"/>
            <path id="Tracé_2113" data-name="Tracé 2113" d="M627.486,179.479c.243-1.815,2.257-3.045,4.5-2.779s3.919,1.928,3.732,3.75-2.206,3.1-4.509,2.833S627.245,181.293,627.486,179.479Z" transform="translate(-534.677 -122.234)" fill="#e3a437"/>
            <path id="Tracé_2114" data-name="Tracé 2114" d="M621.455,178.528c.3-1.806,2.359-2.966,4.6-2.626s3.854,2.06,3.607,3.875-2.312,3.027-4.6,2.678S621.15,180.333,621.455,178.528Z" transform="translate(-539.284 -122.86)" fill="#e3a437"/>
            <path id="Tracé_2115" data-name="Tracé 2115" d="M615.45,177.372c.363-1.794,2.462-2.883,4.691-2.467s3.789,2.19,3.48,3.995-2.414,2.948-4.7,2.522S615.085,179.166,615.45,177.372Z" transform="translate(-543.873 -123.642)" fill="#e3a437"/>
            <path id="Tracé_2116" data-name="Tracé 2116" d="M609.477,176.014c.425-1.78,2.56-2.8,4.777-2.307s3.72,2.319,3.35,4.113-2.515,2.865-4.786,2.359S609.053,177.794,609.477,176.014Z" transform="translate(-548.439 -124.582)" fill="#e3a437"/>
            <path id="Tracé_2117" data-name="Tracé 2117" d="M603.542,174.451c.485-1.766,2.659-2.708,4.862-2.141s3.646,2.444,3.216,4.225-2.613,2.777-4.872,2.194S603.057,176.217,603.542,174.451Z" transform="translate(-552.979 -125.678)" fill="#e3a437"/>
            <path id="Tracé_2118" data-name="Tracé 2118" d="M597.65,172.684c.544-1.748,2.752-2.615,4.941-1.97s3.57,2.567,3.08,4.333-2.712,2.685-4.953,2.025S597.105,174.432,597.65,172.684Z" transform="translate(-557.489 -126.931)" fill="#e3a437"/>
            <path id="Tracé_2119" data-name="Tracé 2119" d="M591.141,170.477c.61-1.727,2.856-2.507,5.024-1.778s3.48,2.707,2.925,4.451-2.816,2.58-5.038,1.833S590.531,172.2,591.141,170.477Z" transform="translate(-562.472 -128.512)" fill="#e3a437"/>
            <path id="Tracé_2120" data-name="Tracé 2120" d="M683.023,184.077c-.31-1.8,1.3-3.588,3.6-4.019s4.446.647,4.81,2.44-1.237,3.633-3.587,4.076S683.333,185.882,683.023,184.077Z" transform="translate(-492.365 -119.72)" fill="#e3a437"/>
            <path id="Tracé_2121" data-name="Tracé 2121" d="M689.209,182.96c-.37-1.792,1.184-3.63,3.466-4.139s4.472.493,4.9,2.275-1.119,3.674-3.455,4.194S689.58,184.753,689.209,182.96Z" transform="translate(-487.663 -120.691)" fill="#e3a437"/>
            <path id="Tracé_2122" data-name="Tracé 2122" d="M695.363,181.634c-.43-1.778,1.064-3.669,3.332-4.255s4.493.338,4.98,2.1-1,3.713-3.32,4.312S695.795,183.413,695.363,181.634Z" transform="translate(-482.987 -121.824)" fill="#e3a437"/>
            <path id="Tracé_2123" data-name="Tracé 2123" d="M701.481,180.1c-.492-1.764.941-3.7,3.193-4.37s4.515.183,5.059,1.931-.874,3.746-3.181,4.426S701.972,181.861,701.481,180.1Z" transform="translate(-478.342 -123.119)" fill="#e3a437"/>
            <path id="Tracé_2124" data-name="Tracé 2124" d="M707.555,178.354c-.55-1.746.821-3.736,3.054-4.479s4.527.026,5.133,1.755-.753,3.773-3.04,4.534S708.106,180.1,707.555,178.354Z" transform="translate(-473.733 -124.576)" fill="#e3a437"/>
            <path id="Tracé_2125" data-name="Tracé 2125" d="M714.56,176.059c-.62-1.723.677-3.767,2.886-4.6s4.539-.159,5.212,1.544-.608,3.8-2.872,4.657S715.179,177.783,714.56,176.059Z" transform="translate(-468.419 -126.474)" fill="#e3a437"/>
            <path id="Tracé_2126" data-name="Tracé 2126" d="M676.81,184.985c-.25-1.813,1.42-3.542,3.723-3.894s4.416.8,4.721,2.6-1.357,3.591-3.716,3.951S677.058,186.8,676.81,184.985Z" transform="translate(-497.089 -118.909)" fill="#e3a437"/>
            <path id="Tracé_2127" data-name="Tracé 2127" d="M670.575,185.683c-.187-1.82,1.537-3.492,3.85-3.767s4.38.946,4.625,2.761-1.477,3.542-3.845,3.822S670.764,187.5,670.575,185.683Z" transform="translate(-501.832 -118.261)" fill="#e3a437"/>
            <path id="Tracé_2128" data-name="Tracé 2128" d="M664.326,186.17c-.127-1.826,1.651-3.438,3.97-3.633s4.344,1.092,4.527,2.915-1.593,3.489-3.967,3.69S664.453,188,664.326,186.17Z" transform="translate(-506.589 -117.774)" fill="#e3a437"/>
            <path id="Tracé_2129" data-name="Tracé 2129" d="M658.066,186.45c-.065-1.829,1.766-3.38,4.088-3.5s4.3,1.239,4.423,3.066-1.707,3.434-4.086,3.554S658.131,188.279,658.066,186.45Z" transform="translate(-511.356 -117.449)" fill="#e3a437"/>
            <path id="Tracé_2130" data-name="Tracé 2130" d="M651.8,186.519c0-1.831,1.877-3.32,4.2-3.36s4.256,1.383,4.315,3.214-1.822,3.374-4.2,3.415S651.8,188.349,651.8,186.519Z" transform="translate(-516.129 -117.286)" fill="#e3a437"/>
            <path id="Tracé_2131" data-name="Tracé 2131" d="M645.537,186.379c.058-1.831,1.989-3.255,4.314-3.218s4.208,1.526,4.2,3.357-1.933,3.311-4.314,3.272S645.478,188.208,645.537,186.379Z" transform="translate(-520.904 -117.283)" fill="#e3a437"/>
            <path id="Tracé_2132" data-name="Tracé 2132" d="M639.278,186.028c.12-1.826,2.1-3.184,4.419-3.07s4.155,1.665,4.092,3.5-2.044,3.244-4.423,3.126S639.159,187.855,639.278,186.028Z" transform="translate(-525.677 -117.443)" fill="#e3a437"/>
            <path id="Tracé_2133" data-name="Tracé 2133" d="M633.032,185.469c.18-1.822,2.2-3.114,4.523-2.92s4.1,1.8,3.974,3.632-2.153,3.174-4.527,2.974S632.85,187.289,633.032,185.469Z" transform="translate(-530.443 -117.764)" fill="#e3a437"/>
            <path id="Tracé_2134" data-name="Tracé 2134" d="M626.8,184.7c.243-1.815,2.312-3.036,4.624-2.765s4.039,1.942,3.852,3.764-2.259,3.1-4.629,2.819S626.559,186.514,626.8,184.7Z" transform="translate(-535.199 -118.247)" fill="#e3a437"/>
            <path id="Tracé_2135" data-name="Tracé 2135" d="M620.594,183.72c.3-1.8,2.414-2.957,4.719-2.606s3.974,2.077,3.727,3.892-2.365,3.02-4.724,2.661S620.29,185.525,620.594,183.72Z" transform="translate(-539.94 -118.891)" fill="#e3a437"/>
            <path id="Tracé_2136" data-name="Tracé 2136" d="M614.413,182.533c.365-1.8,2.514-2.874,4.809-2.446s3.908,2.211,3.6,4.016-2.467,2.941-4.818,2.5S614.049,184.325,614.413,182.533Z" transform="translate(-544.662 -119.697)" fill="#e3a437"/>
            <path id="Tracé_2137" data-name="Tracé 2137" d="M608.266,181.134c.425-1.781,2.613-2.784,4.9-2.278s3.836,2.344,3.468,4.137-2.567,2.853-4.906,2.333S607.842,182.914,608.266,181.134Z" transform="translate(-549.36 -120.664)" fill="#e3a437"/>
            <path id="Tracé_2138" data-name="Tracé 2138" d="M602.158,179.527c.485-1.766,2.712-2.694,4.98-2.109s3.764,2.474,3.334,4.254-2.666,2.765-4.99,2.166S601.673,181.292,602.158,179.527Z" transform="translate(-554.032 -121.793)" fill="#e3a437"/>
            <path id="Tracé_2139" data-name="Tracé 2139" d="M596.093,177.711c.544-1.748,2.805-2.6,5.057-1.937s3.686,2.6,3.2,4.366-2.763,2.671-5.07,1.993S595.549,179.457,596.093,177.711Z" transform="translate(-558.672 -123.084)" fill="#e3a437"/>
            <path id="Tracé_2140" data-name="Tracé 2140" d="M589.394,175.44c.612-1.727,2.907-2.488,5.14-1.739s3.6,2.745,3.041,4.49-2.867,2.562-5.154,1.794S588.785,177.165,589.394,175.44Z" transform="translate(-563.801 -124.712)" fill="#e3a437"/>
            <path id="Tracé_2141" data-name="Tracé 2141" d="M582.574,172.831c.678-1.7,3.01-2.37,5.218-1.531s3.5,2.89,2.878,4.61-2.971,2.448-5.233,1.588S581.9,174.532,582.574,172.831Z" transform="translate(-569.025 -126.597)" fill="#e3a437"/>
            <path id="Tracé_2142" data-name="Tracé 2142" d="M683.927,189.281c-.31-1.8,1.357-3.6,3.716-4.04s4.564.624,4.93,2.418-1.292,3.644-3.708,4.1S684.237,191.085,683.927,189.281Z" transform="translate(-491.675 -115.775)" fill="#e3a437"/>
            <path id="Tracé_2143" data-name="Tracé 2143" d="M690.288,188.133c-.37-1.792,1.237-3.64,3.584-4.166s4.59.467,5.016,2.248-1.172,3.686-3.573,4.222S690.66,189.925,690.288,188.133Z" transform="translate(-486.839 -116.775)" fill="#e3a437"/>
            <path id="Tracé_2144" data-name="Tracé 2144" d="M696.616,186.77c-.43-1.78,1.117-3.683,3.448-4.287s4.613.308,5.1,2.074-1.05,3.727-3.438,4.344S697.048,188.548,696.616,186.77Z" transform="translate(-482.031 -117.941)" fill="#e3a437"/>
            <path id="Tracé_2145" data-name="Tracé 2145" d="M702.907,185.192c-.492-1.764.994-3.718,3.309-4.4s4.631.148,5.177,1.9-.929,3.762-3.3,4.462S703.4,186.956,702.907,185.192Z" transform="translate(-477.254 -119.273)" fill="#e3a437"/>
            <path id="Tracé_2146" data-name="Tracé 2146" d="M709.152,183.4c-.552-1.746.87-3.753,3.168-4.518s4.643-.012,5.249,1.716-.8,3.792-3.156,4.574S709.7,185.143,709.152,183.4Z" transform="translate(-472.513 -120.772)" fill="#e3a437"/>
            <path id="Tracé_2147" data-name="Tracé 2147" d="M715.347,181.39c-.61-1.727.749-3.781,3.026-4.627s4.654-.176,5.316,1.531-.678,3.818-3.01,4.684S715.959,183.115,715.347,181.39Z" transform="translate(-467.813 -122.437)" fill="#e3a437"/>
            <path id="Tracé_2148" data-name="Tracé 2148" d="M722.485,178.782c-.678-1.7.6-3.811,2.855-4.751s4.659-.367,5.39,1.311-.534,3.847-2.839,4.807S723.163,180.481,722.485,178.782Z" transform="translate(-462.4 -124.584)" fill="#e3a437"/>
            <path id="Tracé_2149" data-name="Tracé 2149" d="M677.539,190.213c-.25-1.813,1.473-3.549,3.843-3.912s4.536.777,4.84,2.583-1.411,3.6-3.838,3.97S677.788,192.026,677.539,190.213Z" transform="translate(-496.533 -114.941)" fill="#e3a437"/>
            <path id="Tracé_2150" data-name="Tracé 2150" d="M671.129,190.93c-.189-1.822,1.591-3.5,3.968-3.78s4.5.93,4.745,2.745-1.529,3.547-3.963,3.836S671.316,192.751,671.129,190.93Z" transform="translate(-501.41 -114.274)" fill="#e3a437"/>
            <path id="Tracé_2151" data-name="Tracé 2151" d="M664.7,191.432c-.127-1.827,1.706-3.441,4.09-3.644s4.463,1.082,4.647,2.9-1.646,3.494-4.086,3.7S664.828,193.258,664.7,191.432Z" transform="translate(-506.302 -113.773)" fill="#e3a437"/>
            <path id="Tracé_2152" data-name="Tracé 2152" d="M658.265,191.718c-.063-1.829,1.82-3.381,4.21-3.5s4.423,1.233,4.543,3.059-1.76,3.438-4.206,3.561S658.33,193.547,658.265,191.718Z" transform="translate(-511.205 -113.438)" fill="#e3a437"/>
            <path id="Tracé_2153" data-name="Tracé 2153" d="M651.823,191.789c0-1.831,1.933-3.32,4.324-3.36s4.375,1.38,4.435,3.209-1.875,3.376-4.322,3.418S651.827,193.62,651.823,191.789Z" transform="translate(-516.113 -113.27)" fill="#e3a437"/>
            <path id="Tracé_2154" data-name="Tracé 2154" d="M645.382,191.644c.058-1.829,2.042-3.251,4.433-3.214s4.329,1.528,4.326,3.359-1.986,3.311-4.433,3.27S645.323,193.473,645.382,191.644Z" transform="translate(-521.023 -113.268)" fill="#e3a437"/>
            <path id="Tracé_2155" data-name="Tracé 2155" d="M638.946,191.285c.12-1.827,2.152-3.182,4.541-3.063s4.275,1.671,4.211,3.5-2.1,3.242-4.543,3.119S638.826,193.11,638.946,191.285Z" transform="translate(-525.93 -113.432)" fill="#e3a437"/>
            <path id="Tracé_2156" data-name="Tracé 2156" d="M632.522,190.709c.181-1.822,2.259-3.107,4.645-2.907s4.217,1.813,4.093,3.64-2.206,3.17-4.648,2.964S632.341,192.531,632.522,190.709Z" transform="translate(-530.831 -113.762)" fill="#e3a437"/>
            <path id="Tracé_2157" data-name="Tracé 2157" d="M626.116,189.92c.243-1.815,2.365-3.031,4.743-2.751s4.159,1.956,3.972,3.776-2.314,3.094-4.747,2.807S625.874,191.733,626.116,189.92Z" transform="translate(-535.721 -114.259)" fill="#e3a437"/>
            <path id="Tracé_2158" data-name="Tracé 2158" d="M619.732,188.914c.3-1.806,2.469-2.948,4.839-2.589s4.093,2.1,3.847,3.908-2.419,3.015-4.844,2.645S619.429,190.718,619.732,188.914Z" transform="translate(-540.595 -114.922)" fill="#e3a437"/>
            <path id="Tracé_2159" data-name="Tracé 2159" d="M613.377,187.692c.365-1.794,2.569-2.862,4.929-2.421s4.026,2.233,3.718,4.037-2.52,2.93-4.936,2.478S613.014,189.486,613.377,187.692Z" transform="translate(-545.45 -115.751)" fill="#e3a437"/>
            <path id="Tracé_2160" data-name="Tracé 2160" d="M607.056,186.256c.425-1.781,2.668-2.774,5.015-2.252s3.956,2.368,3.586,4.162-2.62,2.842-5.024,2.308S606.631,188.036,607.056,186.256Z" transform="translate(-550.282 -116.746)" fill="#e3a437"/>
            <path id="Tracé_2161" data-name="Tracé 2161" d="M600.774,184.6c.485-1.766,2.765-2.68,5.1-2.079s3.88,2.5,3.45,4.284-2.719,2.752-5.107,2.136S600.289,186.368,600.774,184.6Z" transform="translate(-555.085 -117.909)" fill="#e3a437"/>
            <path id="Tracé_2162" data-name="Tracé 2162" d="M594.537,182.736c.545-1.748,2.858-2.583,5.174-1.9s3.8,2.636,3.314,4.4-2.814,2.657-5.186,1.958S593.992,184.484,594.537,182.736Z" transform="translate(-559.856 -119.237)" fill="#e3a437"/>
            <path id="Tracé_2163" data-name="Tracé 2163" d="M587.649,180.4c.61-1.727,2.959-2.47,5.254-1.7s3.713,2.782,3.156,4.529-2.918,2.546-5.269,1.755S587.039,182.128,587.649,180.4Z" transform="translate(-565.128 -120.912)" fill="#e3a437"/>
            <path id="Tracé_2164" data-name="Tracé 2164" d="M581.959,178.253c.666-1.706,3.041-2.374,5.318-1.528s3.633,2.9,3.024,4.629-3,2.451-5.334,1.584S581.3,179.957,581.959,178.253Z" transform="translate(-569.484 -122.467)" fill="#e3a437"/>
            <path id="Tracé_2165" data-name="Tracé 2165" d="M575.014,175.343c.731-1.679,3.138-2.248,5.388-1.311s3.533,3.05,2.855,4.751-3.1,2.329-5.406,1.367S574.282,177.02,575.014,175.343Z" transform="translate(-574.806 -124.584)" fill="#e3a437"/>
          </g>
          <g id="Groupe_267" data-name="Groupe 267" transform="translate(0 194.046)">
            <g id="Groupe_266" data-name="Groupe 266">
              <path id="Tracé_2166" data-name="Tracé 2166" d="M589.432,261.477c0,.12-.238.238-.358.238-.03,0-.06-.028-.09-.058l-1.318-3.024a.916.916,0,0,0-.6-.6,22.013,22.013,0,0,0-3.651-.478c-.088,1.766-.21,6.823-.269,8.409-.03,1.678-.118,7.272-.118,8.469,0,.3.118.359.328.389l1.5.27c.092,0,.15.18.15.359,0,.058,0,.09-.09.09-.657-.032-2.3-.06-4.039-.06-1.586,0-3.052.028-3.711.06-.09,0-.09-.032-.09-.06,0-.15.06-.389.15-.389l1.526-.3c.21-.028.24-.12.24-.418.028-1.2-.09-7.122-.122-8.53,0-1.2-.118-6.763-.15-8.289a24.712,24.712,0,0,0-3.589.449,1.039,1.039,0,0,0-.659.627l-1.376,2.994c-.03.06-.06.088-.12.088-.09,0-.359-.15-.359-.238l.3-4.4a.189.189,0,0,1,.21-.21c.238,0,.809.03,2.035.09,1.256.032,3.142.09,5.956.09,2.722,0,4.608-.03,5.864-.09,1.258-.028,1.885-.06,2.1-.06.12,0,.18.06.18.21Z" transform="translate(-572.615 -255.158)" fill="#f3525d"/>
              <path id="Tracé_2167" data-name="Tracé 2167" d="M594.788,265.552a.9.9,0,0,1-.6.839c-1.108.359-6.525.359-7.931.238a9.949,9.949,0,0,0,.15,2.037,4.3,4.3,0,0,0,3.921,3.651,9.674,9.674,0,0,0,2-.21,11.3,11.3,0,0,0,2.187-.779c.06-.03.15.15.15.358,0,.092-.062.122-.122.181a15.818,15.818,0,0,1-3.441,1.5,8.066,8.066,0,0,1-2.633.3c-3.771,0-6.555-1.766-6.555-6.164,0-4.04,2.934-7.931,7.182-7.931a5.717,5.717,0,0,1,5.686,5.954Zm-6.224-5.387c-1.166,0-2.365,1.766-2.3,5.926a14.579,14.579,0,0,0,3.861-.18c.24-.12.419-.328.419-.959,0-1.616-.359-4.816-1.945-4.816Z" transform="translate(-565.525 -253.1)" fill="#f3525d"/>
              <path id="Tracé_2168" data-name="Tracé 2168" d="M590.408,267.647a7.844,7.844,0,0,1,3.024-6.194,8.848,8.848,0,0,1,5.746-1.885,6.893,6.893,0,0,1,2.574.359c.09.028.148.118.148.268l.18,3.233c0,.09-.27.24-.359.24-.06,0-.088,0-.118-.06-.449-.869-.929-1.827-1.348-2.544a1.532,1.532,0,0,0-.537-.629,1.733,1.733,0,0,0-1.048-.27c-1.077,0-2.065.869-2.872,2.6a10.315,10.315,0,0,0-.9,4.43c0,3.5,1.826,5.145,4.011,5.145a7.351,7.351,0,0,0,1.526-.178,8.015,8.015,0,0,0,1.975-.689c.06-.03.15.09.15.27,0,.12-.03.21-.12.238a15.274,15.274,0,0,1-2.994,1.378,6.852,6.852,0,0,1-2.483.3c-3.651,0-6.555-1.588-6.555-5.986Z" transform="translate(-559.055 -253.1)" fill="#f3525d"/>
              <path id="Tracé_2169" data-name="Tracé 2169" d="M603.988,255.9c.178-.032.238.088.238.268,0,.24-.33,10.056-.419,12.419,0,.27-.028.629-.058.987h.148a8.278,8.278,0,0,1,.3-.9c.837-2.337,3.112-6.315,6.194-6.315,2.425,0,3.593,2.425,3.593,6.315,0,2.633-.24,5.207-.33,6.224-.032.477.03.6.24.657l1.436.3c.058,0,.15.18.15.359,0,.028-.03.06-.092.06-.537-.032-1.824-.06-3.559-.06-1.766,0-3.142.028-3.771.06-.09,0-.09-.032-.09-.06,0-.122.03-.359.12-.359l1.5-.27c.24-.03.3-.15.33-.419.09-.777.15-2.513.15-4.368,0-2.844-.389-5.656-1.975-5.656-1.676,0-3.382,2.962-4.1,6.553a25.964,25.964,0,0,0-.271,3.5c0,.268.122.328.329.358l1.468.3c.058,0,.15.18.15.33,0,.058,0,.09-.092.09-.627-.032-2.155-.06-3.831-.06-1.644,0-2.992.028-3.47.06-.09,0-.09-.032-.09-.09,0-.12.09-.33.15-.33l1.436-.329c.18-.028.208-.12.24-.359.028-.807-.032-7.062-.032-8.766,0-1.318-.088-7.871-.118-8.978,0-.271-.06-.389-.331-.419l-1.824-.09c-.092,0-.18-.18-.18-.359,0-.03,0-.09.088-.09Z" transform="translate(-553.633 -255.897)" fill="#f3525d"/>
              <path id="Tracé_2170" data-name="Tracé 2170" d="M619.776,256.936c1.045,0,1.854.028,2.511.058a.312.312,0,0,1,.241.12c.957,3.232,4.039,13.558,5.237,17.237a.629.629,0,0,0,.389.389l1.1.3c.092.03.15.18.15.389,0,.028-.028.06-.088.06-.629,0-2.065-.06-3.561-.06-1.676,0-3.292.028-4.1.06-.09,0-.09-.032-.09-.06,0-.18.09-.389.18-.418l1.618-.271c.238-.028.268-.24.208-.478-.329-.989-1.436-3.863-1.766-4.879-1.346.03-4.818.122-6.373.24-.09,0-.18.09-.21.24-.18.869-.747,3.292-.929,4.368-.028.359.09.449.3.509l1.556.3c.092,0,.182.21.182.389,0,.06-.032.06-.09.06-.749-.032-1.947-.06-3.142-.06-1.02,0-1.915.028-2.515.06-.06,0-.06-.032-.06-.09,0-.092.06-.359.15-.388l.747-.241c.24-.058.389-.18.539-.539,1.466-3.589,4.578-12.777,5.924-16.428.271-.717.659-.867,1.855-.867ZM618.16,259.3a9.628,9.628,0,0,0-.3,1.019c-.749,2.483-1.708,5.954-2.275,8.017a.164.164,0,0,0,.15.211,56.947,56.947,0,0,0,5.864.27c-.507-1.438-2.063-5.776-2.872-8.47-.09-.268-.21-.627-.389-1.047Z" transform="translate(-543.722 -255.105)" fill="#f3525d"/>
              <path id="Tracé_2171" data-name="Tracé 2171" d="M633.1,262.961a.08.08,0,0,1,.092.09c0,.15-.092.479-.18.509l-5.087.358c-.06,1.947-.15,5.119-.181,5.628-.028.957-.058,4.907-.058,5.625.03.27.15.359.358.389l2.634.27c.09,0,.15.24.15.389,0,.028-.03.06-.088.06-1.528-.032-3.233-.06-4.879-.06-1.706,0-3.052.028-3.919.06-.062,0-.062-.032-.062-.06,0-.09.062-.36.15-.36l1.616-.27c.21-.03.3-.15.3-.388,0-1.138-.15-4.52-.178-5.956-.032-1.2-.15-4.758-.15-5.3l-2.337.06c-.06,0-.088-.03-.088-.12a2.021,2.021,0,0,1,.118-.539.541.541,0,0,1,.539-.449h1.8c.18-3.531,2.275-7,7.422-7a5.733,5.733,0,0,1,2.395.388.192.192,0,0,1,.15.18l.178,3.232c0,.12-.268.3-.389.3-.028,0-.06-.03-.118-.12-.449-.837-.989-1.915-1.348-2.543a1.5,1.5,0,0,0-.477-.569,1.4,1.4,0,0,0-.839-.27c-1.5,0-2.633,2.245-2.693,6.375Z" transform="translate(-535.596 -255.895)" fill="#f3525d"/>
              <path id="Tracé_2172" data-name="Tracé 2172" d="M634.135,266.719c.06-.328.12-.6.15-.777.689-2.844,2.245-6.374,4.967-6.374a1.661,1.661,0,0,1,.957.238.27.27,0,0,1,.092.21l.208,4.16c0,.12-.268.27-.328.27-.03,0-.06,0-.09-.06-.359-.689-.839-1.5-1.2-2.065a1.061,1.061,0,0,0-.837-.509c-1.646,0-3.052,2.994-3.861,7.064a30.02,30.02,0,0,0-.3,3.531c0,.268.121.328.329.358l2.335.329c.06,0,.15.208.15.3,0,.058,0,.09-.06.09-.839-.032-2.574-.06-4.608-.06-1.766,0-3.323.028-3.681.06-.06,0-.06-.032-.06-.06,0-.15.06-.33.15-.33l1.5-.3a.344.344,0,0,0,.27-.388c0-.779-.062-4.49-.09-5.688-.032-1.285-.06-4.368-.121-5.205,0-.27-.058-.449-.328-.479l-1.348-.09c-.118,0-.178-.24-.178-.359,0-.06,0-.12.088-.12l5.806-.867c.24-.06.3.058.3.268,0,.449-.178,4.34-.3,5.986,0,.27-.028.627-.028.867Z" transform="translate(-530.291 -253.1)" fill="#f3525d"/>
              <path id="Tracé_2173" data-name="Tracé 2173" d="M641.713,261.924a.216.216,0,0,1,.268.238c-.058,1.2-.208,5.329-.238,6.795-.03,1.346-.09,4.668-.09,5.806,0,.268.06.328.27.388l1.5.3c.06,0,.15.208.15.3,0,.058,0,.09-.06.09-.719-.032-2.125-.06-3.743-.06-1.644,0-3.05.028-3.649.06-.09,0-.09-.032-.09-.06,0-.122.06-.3.15-.33l1.406-.329c.21-.058.33-.12.33-.389,0-.657-.09-4.248-.12-5.714-.03-1.226-.12-4.4-.15-5.147-.03-.241-.06-.449-.33-.449l-1.346-.06c-.09,0-.21-.21-.21-.389,0-.03,0-.06.06-.06Zm-2.185-5.447a1.943,1.943,0,0,1,2.035,1.944,2.031,2.031,0,0,1-2.065,2.065,2.012,2.012,0,1,1,0-4.009Z" transform="translate(-524.495 -255.455)" fill="#f3525d"/>
              <path id="Tracé_2174" data-name="Tracé 2174" d="M641.02,267.647a7.838,7.838,0,0,1,3.024-6.194,8.843,8.843,0,0,1,5.744-1.885,6.886,6.886,0,0,1,2.574.359c.09.028.148.118.148.268l.181,3.233c0,.09-.271.24-.359.24-.06,0-.09,0-.12-.06-.449-.869-.929-1.827-1.346-2.544a1.551,1.551,0,0,0-.539-.629,1.73,1.73,0,0,0-1.049-.27c-1.077,0-2.065.869-2.872,2.6a10.315,10.315,0,0,0-.9,4.43c0,3.5,1.825,5.145,4.009,5.145a7.349,7.349,0,0,0,1.526-.178,7.963,7.963,0,0,0,1.975-.689c.062-.03.15.09.15.27,0,.12-.028.21-.12.238a15.189,15.189,0,0,1-2.992,1.378,6.86,6.86,0,0,1-2.483.3c-3.653,0-6.555-1.588-6.555-5.986Z" transform="translate(-520.484 -253.1)" fill="#f3525d"/>
              <path id="Tracé_2175" data-name="Tracé 2175" d="M657.665,265.4a10.876,10.876,0,0,0-.27-1.826c-.359-1.374-1.2-2.513-2.634-2.513a6.6,6.6,0,0,0-4.338,1.974c-.03.032-.062.06-.09.06-.09,0-.329-.358-.18-.508a9.231,9.231,0,0,1,7-3.022c4.009,0,4.64,3.38,4.64,6.4,0,.569-.062,2.273-.122,3.292-.06,1.346-.118,2.663-.118,3.144,0,.208.058.3.3.358l1.258.3a.331.331,0,0,1,.178.3c0,.06-.028.088-.118.088-.359-.028-1.588-.028-2.754-.028-1.018,0-1.646,0-2.153.028-.092,0-.15-.028-.15-.15-.032-.238-.092-1.316-.092-1.974,0-.15-.03-.6-.03-.837l-.088-.06c-.122.238-.271.509-.421.747a5.5,5.5,0,0,1-4.758,2.484,3.834,3.834,0,0,1-3.981-4.01,5.267,5.267,0,0,1,5.6-5.477,4.4,4.4,0,0,1,2.6.777,4.218,4.218,0,0,1,.6.481Zm-2.692,6.733c1.166,0,2.243-1.137,2.81-2.782a3.223,3.223,0,0,0,.21-1.077,2.963,2.963,0,0,0-.268-1.138,3.129,3.129,0,0,0-2.6-2.213c-1.528,0-2.215,1.944-2.215,3.979,0,2.1.837,3.232,2.033,3.232Z" transform="translate(-514.597 -253.1)" fill="#f3525d"/>
              <path id="Tracé_2176" data-name="Tracé 2176" d="M674.937,273.1c.09,0,.15.208.15.33,0,.028,0,.06-.06.06-1.017-.032-2.065-.06-3.8-.06-1.706,0-2.994.028-3.741.06-.06,0-.088-.032-.088-.06,0-.09.058-.33.148-.33l1.436-.329a.419.419,0,0,0,.359-.419c.06-.627.15-2.962.15-4.338,0-2.6-.359-5.626-2.035-5.626-1.436,0-2.9,2.275-3.8,5.926a20.271,20.271,0,0,0-.449,4.069c0,.27.088.359.268.389l1.468.329c.09,0,.148.208.148.33,0,.028-.03.06-.09.06-1.167-.032-2.123-.06-3.741-.06s-2.751.028-3.649.06c-.06,0-.06-.032-.06-.06,0-.122.06-.33.15-.36l1.526-.27c.178-.06.268-.15.268-.419,0-.9-.058-4.4-.058-5.715-.032-1.018-.12-4.37-.15-5.147-.032-.27-.032-.449-.3-.479l-1.316-.09c-.092,0-.18-.21-.18-.359,0-.06,0-.09.088-.09l5.806-.927c.182-.03.24.06.24.238-.03.421-.18,4.22-.24,5.836,0,.3-.028.687-.06,1.018l.15.03c.092-.3.21-.689.27-.839.839-2.664,3.114-6.284,6.046-6.284,2.393,0,3.621,2.243,3.621,6.4,0,2.215-.21,5-.329,6.254-.03.3.03.449.329.509Z" transform="translate(-507.932 -253.102)" fill="#f3525d"/>
              <path id="Tracé_2177" data-name="Tracé 2177" d="M679.937,274.028c.09-.329.21-.659.3-.957,1.077-3.952,2.724-10.236,3.681-14.426.18-.867.3-.927,2.005-1.077a8.565,8.565,0,0,1,1.077-.09.261.261,0,0,1,.269.21c.989,3.681,2.754,11.521,3.681,15.561a6.961,6.961,0,0,0,.27.839h.15c.09-.24.18-.629.24-.869.867-3.739,2.155-10.324,2.812-14.992.03-.331-.058-.509-.268-.539l-1.406-.21c-.122-.03-.181-.27-.181-.418,0-.062,0-.092.06-.092h5.746a.08.08,0,0,1,.09.092c0,.148-.06.358-.15.388l-.657.21a.662.662,0,0,0-.539.537c-.837,2.934-4.13,13.647-5.237,16.46-.211.659-.389.719-2.634.777h-1.2a.318.318,0,0,1-.27-.208c-.927-2.962-2.275-7-2.962-9.7-.122-.388-.271-1.077-.449-1.7h-.18c-.18.657-.419,1.436-.6,2-.659,1.945-2.243,6.673-3.17,8.86-.271.627-.421.687-3.024.745h-.929c-.15,0-.21-.058-.269-.238-.867-2.932-2.962-11.97-4.129-17.177-.06-.211-.15-.359-.359-.389l-.777-.15c-.09-.03-.181-.27-.181-.418a.081.081,0,0,1,.092-.092h8.169c.09,0,.09.03.09.12,0,.12-.09.359-.21.389l-1.5.21a.366.366,0,0,0-.3.449c.478,3.232,1.736,10.862,2.453,14.872.062.24.15.657.212,1.018Z" transform="translate(-497.828 -255.08)" fill="#f3525d"/>
              <path id="Tracé_2178" data-name="Tracé 2178" d="M692.653,273.663c-4.22,0-6.555-2.573-6.555-6.4,0-4.012,2.515-7.692,8.051-7.692,4.7,0,6.673,2.992,6.673,6.553,0,3.949-2.663,7.542-8.141,7.542Zm.927-.569c2.125,0,2.752-2.752,2.752-6.553,0-3.443-.837-6.4-2.87-6.4-1.975,0-2.9,2.633-2.9,6.613,0,3.441,1.077,6.343,2.992,6.343Z" transform="translate(-486.13 -253.1)" fill="#f3525d"/>
              <path id="Tracé_2179" data-name="Tracé 2179" d="M721.918,273.064c.088.03.15.21.15.33,0,.058,0,.09-.09.09-.9-.032-1.915-.06-3.591-.06s-2.964.028-3.681.06c-.09,0-.09-.032-.09-.06,0-.122.06-.33.15-.359l1.346-.329c.18-.028.269-.15.3-.36.088-.777.088-3.41.088-4.248,0-2.932-.477-5.776-2.093-5.776-1.945,0-3.114,3.441-3.531,6.225a33.893,33.893,0,0,0-.27,3.741c0,.24.092.328.329.389l1.616.358c.09.03.15.21.15.33,0,.058,0,.09-.06.09-.957-.032-2.093-.06-3.8-.06s-2.872.028-3.649.06c-.09,0-.09-.032-.09-.09,0-.092.028-.3.15-.33l1.285-.329c.24-.06.3-.15.331-.389.088-.687.058-2.992.058-4.069,0-3.052-.358-5.926-2.065-5.926-1.8,0-3.05,3.112-3.589,6.044-.12.989-.27,2.844-.27,3.981a.31.31,0,0,0,.27.36l1.376.329c.12.03.18.21.18.33,0,.058,0,.09-.09.09-1.258-.032-2.1-.06-3.711-.06-1.556,0-2.423.028-3.411.06-.09,0-.09-.032-.09-.06,0-.122.058-.33.15-.359l1.346-.3a.347.347,0,0,0,.3-.389c0-1.316-.06-4.548-.06-5.9-.03-.987-.09-4.248-.18-5.057-.03-.268-.06-.448-.33-.478l-1.286-.06c-.09,0-.181-.18-.181-.359,0-.06,0-.09.122-.12l5.774-.807c.182-.03.21.058.21.208,0,.359-.15,3.8-.268,5.388,0,.24-.06.657-.06.957l.178.06c.09-.36.21-.749.271-.927.807-2.247,2.6-5.716,5.834-5.716,2.183,0,3.381,2.063,3.471,5.3v.87l.12.028c.06-.21.18-.627.27-.9.687-2,2.513-5.3,5.716-5.3,2.183,0,3.531,2.093,3.531,6.315,0,2.273-.271,5.535-.329,6.342,0,.331.058.419.3.481Z" transform="translate(-479.131 -253.1)" fill="#f3525d"/>
              <path id="Tracé_2180" data-name="Tracé 2180" d="M724.129,265.552a.9.9,0,0,1-.6.839c-1.108.359-6.525.359-7.931.238a9.919,9.919,0,0,0,.15,2.037,4.3,4.3,0,0,0,3.919,3.651,9.679,9.679,0,0,0,2.005-.21,11.245,11.245,0,0,0,2.185-.779c.062-.03.15.15.15.358,0,.092-.06.122-.12.181a15.9,15.9,0,0,1-3.441,1.5,8.068,8.068,0,0,1-2.633.3c-3.771,0-6.555-1.766-6.555-6.164,0-4.04,2.934-7.931,7.182-7.931a5.717,5.717,0,0,1,5.686,5.954Zm-6.224-5.387c-1.168,0-2.365,1.766-2.3,5.926a14.557,14.557,0,0,0,3.859-.18c.241-.12.421-.328.421-.959,0-1.616-.359-4.816-1.945-4.816Z" transform="translate(-466.955 -253.1)" fill="#f3525d"/>
              <path id="Tracé_2181" data-name="Tracé 2181" d="M736.84,273.1c.09,0,.15.208.15.33,0,.028,0,.06-.06.06-1.017-.032-2.065-.06-3.8-.06-1.708,0-2.994.028-3.741.06-.062,0-.09-.032-.09-.06,0-.09.058-.33.15-.33l1.434-.329a.417.417,0,0,0,.359-.419c.062-.627.15-2.962.15-4.338,0-2.6-.359-5.626-2.035-5.626-1.434,0-2.9,2.275-3.8,5.926a20.257,20.257,0,0,0-.449,4.069c0,.27.09.359.268.389l1.468.329c.09,0,.148.208.148.33,0,.028-.028.06-.088.06-1.168-.032-2.125-.06-3.743-.06s-2.751.028-3.649.06c-.06,0-.06-.032-.06-.06,0-.122.06-.33.15-.36l1.526-.27c.18-.06.27-.15.27-.419,0-.9-.06-4.4-.06-5.715-.03-1.018-.12-4.37-.15-5.147-.03-.27-.03-.449-.3-.479l-1.316-.09c-.09,0-.18-.21-.18-.359,0-.06,0-.09.09-.09l5.806-.927c.18-.03.238.06.238.238-.028.421-.178,4.22-.238,5.836,0,.3-.03.687-.062,1.018l.15.03c.092-.3.21-.689.271-.839.837-2.664,3.112-6.284,6.044-6.284,2.395,0,3.621,2.243,3.621,6.4,0,2.215-.21,5-.329,6.254-.03.3.03.449.329.509Z" transform="translate(-460.757 -253.102)" fill="#f3525d"/>
            </g>
          </g>
        </g>
        <g id="Groupe_269" data-name="Groupe 269" transform="translate(49.828 232.003)">
          <path id="Tracé_2182" data-name="Tracé 2182" d="M625.206,284.664c0,.174-.347.347-.52.347-.044,0-.086-.044-.129-.086l-1.9-4.37a1.326,1.326,0,0,0-.865-.865A31.6,31.6,0,0,0,616.51,279c-.13,2.552-.3,9.862-.391,12.155-.042,2.423-.171,10.513-.171,12.243,0,.432.171.52.474.564l2.166.388c.129,0,.215.261.215.52,0,.086,0,.129-.129.129-.952-.042-3.332-.085-5.841-.085-2.294,0-4.414.042-5.366.085-.129,0-.129-.042-.129-.085,0-.217.086-.564.217-.564l2.206-.432c.3-.042.345-.173.345-.606.044-1.73-.129-10.3-.173-12.329,0-1.73-.173-9.778-.215-11.982a35.64,35.64,0,0,0-5.193.648,1.5,1.5,0,0,0-.952.907l-1.991,4.326c-.042.086-.085.13-.171.13-.13,0-.52-.215-.52-.347l.432-6.358a.274.274,0,0,1,.3-.3c.347,0,1.168.044,2.943.129,1.817.044,4.543.13,8.608.13,3.938,0,6.664-.044,8.479-.13,1.817-.042,2.726-.085,3.029-.085.173,0,.259.085.259.3Z" transform="translate(-600.893 -277.007)" fill="#081d82"/>
          <path id="Tracé_2183" data-name="Tracé 2183" d="M627.117,290.343a15.543,15.543,0,0,0-.388-2.64c-.52-1.989-1.732-3.633-3.81-3.633s-4.023.909-6.271,2.855c-.044.042-.086.086-.129.086-.132,0-.478-.518-.261-.735a13.354,13.354,0,0,1,10.123-4.37c5.8,0,6.7,4.89,6.7,9.258,0,.823-.086,3.29-.173,4.759-.086,1.947-.173,3.85-.173,4.543,0,.3.086.434.433.52l1.817.432a.474.474,0,0,1,.257.433c0,.086-.042.129-.171.129-.52-.042-2.294-.042-3.981-.042-1.471,0-2.38,0-3.115.042-.13,0-.217-.042-.217-.217-.042-.345-.129-1.9-.129-2.855,0-.217-.042-.865-.042-1.212l-.13-.085c-.173.345-.389.735-.606,1.08a7.961,7.961,0,0,1-6.879,3.591,5.54,5.54,0,0,1-5.753-5.8c0-3.892,2.509-7.915,8.09-7.915a6.358,6.358,0,0,1,3.764,1.123,6.2,6.2,0,0,1,.865.692Zm-3.894,9.734c1.688,0,3.246-1.644,4.069-4.023a4.766,4.766,0,0,0,.3-1.558,4.271,4.271,0,0,0-.391-1.646c-.562-1.47-1.9-3.2-3.764-3.2-2.206,0-3.2,2.812-3.2,5.755,0,3.027,1.211,4.671,2.941,4.671Z" transform="translate(-590.732 -274.033)" fill="#081d82"/>
          <path id="Tracé_2184" data-name="Tracé 2184" d="M652.094,301.463c.13,0,.217.3.217.478,0,.042,0,.085-.086.085-1.471-.042-2.985-.085-5.494-.085-2.467,0-4.326.042-5.408.085-.086,0-.13-.042-.13-.085,0-.13.086-.478.217-.478l2.076-.474a.608.608,0,0,0,.52-.606c.086-.909.217-4.284.217-6.273,0-3.764-.52-8.134-2.943-8.134-2.077,0-4.2,3.288-5.494,8.566a29.542,29.542,0,0,0-.648,5.884c0,.389.13.52.388.564l2.122.474c.13,0,.217.3.217.478,0,.042-.044.085-.13.085-1.688-.042-3.071-.085-5.408-.085s-3.981.042-5.278.085c-.086,0-.086-.042-.086-.085,0-.174.086-.478.215-.52l2.206-.389c.261-.086.391-.217.391-.606,0-1.3-.088-6.359-.088-8.262-.042-1.471-.173-6.315-.215-7.441-.042-.389-.042-.648-.434-.691l-1.9-.132c-.129,0-.261-.3-.261-.518,0-.086,0-.13.132-.13l8.391-1.341c.261-.042.347.086.347.347-.044.6-.261,6.1-.347,8.435,0,.433-.042,1-.086,1.471l.215.042c.132-.432.3-.994.391-1.211,1.212-3.85,4.5-9.085,8.738-9.085,3.461,0,5.235,3.244,5.235,9.258,0,3.2-.3,7.225-.476,9.041-.044.434.044.648.476.737Z" transform="translate(-581.094 -274.036)" fill="#081d82"/>
          <path id="Tracé_2185" data-name="Tracé 2185" d="M646.628,300.76c.52.046,1,0,1.471,0a59.737,59.737,0,0,0,9.344-1.122,1.425,1.425,0,0,0,.909-.693l1.859-3.246c.044-.086.086-.086.129-.086.175,0,.564.217.52.389l-.821,5.667c0,.174-.13.259-.39.259-1.515,0-5.235-.085-9.906-.085-3.029,0-4.24.042-6.014.042-.606,0-.909-.259-1.383-1.3a4.843,4.843,0,0,1-.347-1.038.635.635,0,0,1,.086-.3c3.678-4.587,9.3-11.249,11.249-13.931.259-.389.648-.821.909-1.168v-.13a3.788,3.788,0,0,0-1-.217,51.09,51.09,0,0,0-6.4-.777.793.793,0,0,0-.779.52l-2.337,4.238c-.044.088-.086.088-.13.088-.173,0-.6-.3-.562-.478l.648-5.017a.311.311,0,0,1,.3-.347c.909.044,3.591.13,6.879.13,3.808,0,7.7-.044,8.521-.044a.287.287,0,0,1,.3.217,8.112,8.112,0,0,1,.823,2.855,1.753,1.753,0,0,1-.39,1.212c-3.244,3.892-9.475,10.252-12.46,13.195-.259.3-.735.779-1.08,1.124Z" transform="translate(-569.566 -273.939)" fill="#081d82"/>
          <path id="Tracé_2186" data-name="Tracé 2186" d="M667.047,290.343a15.372,15.372,0,0,0-.389-2.64c-.52-1.989-1.73-3.633-3.808-3.633s-4.023.909-6.271,2.855c-.044.042-.086.086-.13.086-.13,0-.476-.518-.259-.735a13.351,13.351,0,0,1,10.123-4.37c5.8,0,6.7,4.89,6.7,9.258,0,.823-.086,3.29-.173,4.759-.086,1.947-.174,3.85-.174,4.543,0,.3.088.434.434.52l1.818.432a.477.477,0,0,1,.257.433c0,.086-.042.129-.171.129-.52-.042-2.294-.042-3.981-.042-1.471,0-2.38,0-3.115.042-.13,0-.217-.042-.217-.217-.042-.345-.129-1.9-.129-2.855,0-.217-.044-.865-.044-1.212l-.13-.085a12.253,12.253,0,0,1-.606,1.08,7.955,7.955,0,0,1-6.877,3.591,5.539,5.539,0,0,1-5.753-5.8c0-3.892,2.507-7.915,8.088-7.915a6.365,6.365,0,0,1,3.766,1.123,6.086,6.086,0,0,1,.863.692Zm-3.894,9.734c1.688,0,3.246-1.644,4.069-4.023a4.817,4.817,0,0,0,.3-1.558,4.3,4.3,0,0,0-.389-1.646c-.564-1.47-1.9-3.2-3.764-3.2-2.206,0-3.2,2.812-3.2,5.755,0,3.027,1.211,4.671,2.941,4.671Z" transform="translate(-560.302 -274.033)" fill="#081d82"/>
          <path id="Tracé_2187" data-name="Tracé 2187" d="M692.023,301.463c.13,0,.217.3.217.478,0,.042,0,.085-.086.085-1.471-.042-2.987-.085-5.494-.085-2.467,0-4.326.042-5.41.085-.086,0-.129-.042-.129-.085,0-.13.086-.478.217-.478l2.076-.474a.61.61,0,0,0,.52-.606c.086-.909.217-4.284.217-6.273,0-3.764-.52-8.134-2.943-8.134-2.078,0-4.2,3.288-5.494,8.566a29.425,29.425,0,0,0-.648,5.884c0,.389.13.52.388.564l2.12.474c.132,0,.217.3.217.478,0,.042-.042.085-.129.085-1.688-.042-3.071-.085-5.408-.085s-3.981.042-5.278.085c-.086,0-.086-.042-.086-.085,0-.174.086-.478.215-.52l2.206-.389c.259-.086.391-.217.391-.606,0-1.3-.088-6.359-.088-8.262-.044-1.471-.173-6.315-.215-7.441-.044-.389-.044-.648-.433-.691l-1.9-.132c-.13,0-.261-.3-.261-.518,0-.086,0-.13.13-.13l8.393-1.341c.259-.042.345.086.345.347-.042.6-.259,6.1-.345,8.435,0,.433-.042,1-.086,1.471l.215.042c.13-.432.3-.994.391-1.211,1.211-3.85,4.5-9.085,8.738-9.085,3.461,0,5.235,3.244,5.235,9.258,0,3.2-.3,7.225-.476,9.041-.044.434.042.648.476.737Z" transform="translate(-550.666 -274.036)" fill="#081d82"/>
          <path id="Tracé_2188" data-name="Tracé 2188" d="M690.365,285.311a.316.316,0,0,1,.389.347c-.086,1.73-.3,7.7-.347,9.82-.042,1.945-.129,6.749-.129,8.393,0,.388.086.476.389.562l2.162.432c.086,0,.217.3.217.433,0,.086,0,.129-.086.129-1.038-.042-3.073-.085-5.408-.085-2.379,0-4.414.042-5.277.085-.13,0-.13-.042-.13-.085,0-.174.086-.433.217-.478l2.032-.474c.3-.086.477-.174.477-.564,0-.952-.13-6.143-.174-8.262-.042-1.774-.173-6.359-.215-7.441-.042-.345-.088-.648-.477-.648l-1.945-.086c-.13,0-.3-.3-.3-.562,0-.044,0-.086.086-.086Zm-3.158-7.873a2.811,2.811,0,0,1,2.941,2.811,2.937,2.937,0,0,1-2.987,2.987,2.909,2.909,0,1,1,0-5.8Z" transform="translate(-539.269 -277.438)" fill="#081d82"/>
          <path id="Tracé_2189" data-name="Tracé 2189" d="M702.063,290.343a15.541,15.541,0,0,0-.389-2.64c-.52-1.989-1.732-3.633-3.808-3.633s-4.023.909-6.273,2.855c-.042.042-.086.086-.129.086-.13,0-.477-.518-.261-.735a13.354,13.354,0,0,1,10.125-4.37c5.8,0,6.7,4.89,6.7,9.258,0,.823-.086,3.29-.171,4.759-.086,1.947-.174,3.85-.174,4.543,0,.3.088.434.434.52l1.817.432a.476.476,0,0,1,.259.433c0,.086-.044.129-.173.129-.52-.042-2.294-.042-3.981-.042-1.471,0-2.379,0-3.113.042-.13,0-.217-.042-.217-.217-.044-.345-.13-1.9-.13-2.855,0-.217-.042-.865-.042-1.212l-.13-.085c-.173.345-.389.735-.606,1.08a7.958,7.958,0,0,1-6.878,3.591,5.541,5.541,0,0,1-5.755-5.8c0-3.892,2.509-7.915,8.09-7.915a6.369,6.369,0,0,1,3.766,1.123,6.293,6.293,0,0,1,.863.692Zm-3.894,9.734c1.688,0,3.244-1.644,4.067-4.023a4.771,4.771,0,0,0,.3-1.558,4.273,4.273,0,0,0-.391-1.646c-.562-1.47-1.9-3.2-3.762-3.2-2.206,0-3.2,2.812-3.2,5.755,0,3.027,1.212,4.671,2.941,4.671Z" transform="translate(-533.618 -274.033)" fill="#081d82"/>
        </g>
      </g>
      <text id="August_17th_2022" data-name="August 17th, 2022" transform="translate(612 5676.363)" fill="#f3525d" font-size="25" font-family="Raleway" font-weight="700"><tspan x="0" y="0">August 17th, 2022</tspan></text>
      <text id="Deadline_to_apply" data-name="Deadline to apply" transform="translate(634 5627.363)" fill="#050f3c" font-size="20" font-family="Raleway" font-weight="700"><tspan x="0" y="0">Deadline to apply</tspan></text>
    </g>
  </g>
</svg>
