<svg xmlns="http://www.w3.org/2000/svg" xmlns:xlink="http://www.w3.org/1999/xlink" width="1938" height="547" viewBox="0 0 1938 547">
  <defs>
    <clipPath id="clip-Plan_de_travail_29">
      <rect width="1938" height="547"/>
    </clipPath>
  </defs>
  <g id="Plan_de_travail_29" data-name="Plan de travail – 29" clip-path="url(#clip-Plan_de_travail_29)">
    <path id="Tracé_2831" data-name="Tracé 2831" d="M344,4819.632c167.9-52.689,69.321,9.918,156.189,0s194.293-92.236,307.172-48.351,287.233,87.984,351.494,57.266,161.916-100.823,238.151-82.677,195.265,91.938,297.494,51.13" transform="translate(1 -4520)" fill="none" stroke="#fff" stroke-width="3"/>
    <path id="Path_7" data-name="Path 7" d="M178.377,0S129.033,43.024,90.1,20.421,195.96-24.947,42.466,165.852,200.94,398.388,200.94,398.388" transform="matrix(0, 1, -1, 0, 333.543, 107.984)" fill="none" stroke="#fff" stroke-width="3"/>
    <g id="Groupe_461" data-name="Groupe 461" transform="translate(110 -4098.969)">
      <g id="Groupe_18" data-name="Groupe 18" transform="translate(197 4483.583)">
        <text id="Call_For_Application" data-name="Call For Application" transform="translate(0 17)" fill="#fff" font-size="18" font-family="Raleway" font-weight="700"><tspan x="0" y="0">Call For Application</tspan></text>
      </g>
      <circle id="Ellipse_3" data-name="Ellipse 3" cx="62.5" cy="62.5" r="62.5" transform="translate(219 4331.969)" fill="#fff"/>
      <g id="Line" transform="translate(252 4368.958)">
        <path id="Path_16" data-name="Path 16" d="M20.66,16H6a4,4,0,0,0-4,4v9.33a4,4,0,0,0,4,4H20.66Z" transform="translate(-2 -1.344)" fill="#f3525d"/>
        <path id="Path_17" data-name="Path 17" d="M48.243,5.692a4,4,0,0,0-3.825-.36L18,18.82V37.84L44.4,51.409a5.052,5.052,0,0,0,3.839-.36,4,4,0,0,0,1.746-3.306V9a4,4,0,0,0-1.746-3.306Z" transform="translate(3.326 -5.004)" fill="#f3525d"/>
        <path id="Path_18" data-name="Path 18" d="M19.24,31H8.47L12.2,44.089a4,4,0,0,0,3.852,2.906h2.452A4.132,4.132,0,0,0,22.345,41.9Z" transform="translate(0.154 3.648)" fill="#f3525d"/>
        <path id="Path_19" data-name="Path 19" d="M44,19.18v8.85a4,4,0,0,0,2.666-3.759V22.939A4,4,0,0,0,44,19.18Z" transform="translate(11.98 -0.286)" fill="#f3525d"/>
      </g>
      <text id="July_27th" data-name="July 27th" transform="translate(243 4291.234)" fill="#050f3c" font-size="18" font-family="Raleway" font-weight="700"><tspan x="0" y="0">July 27th</tspan></text>
      <text id="_2022" data-name="2022" transform="translate(260 4317.969)" fill="#050f3c" font-size="18" font-family="Raleway" font-weight="700"><tspan x="0" y="0">2022</tspan></text>
    </g>
    <g id="Groupe_462" data-name="Groupe 462" transform="translate(82 -4119.969)">
      <g id="Groupe_17" data-name="Groupe 17" transform="translate(650 4479.656)">
        <text id="Bootcamps_In_Each_" data-name="Bootcamps In Each " transform="translate(0 17)" fill="#fff" font-size="18" font-family="Raleway" font-weight="700"><tspan x="0" y="0">Bootcamps In Each </tspan></text>
        <text id="Country" transform="translate(53.331 43.657)" fill="#fff" font-size="18" font-family="Raleway" font-weight="700"><tspan x="0" y="0">Country</tspan></text>
      </g>
      <g id="Groupe_306" data-name="Groupe 306" transform="translate(-93 -3.927)">
        <circle id="Ellipse_1" data-name="Ellipse 1" cx="62.5" cy="62.5" r="62.5" transform="translate(765 4331.969)" fill="#fff"/>
        <g id="south-africa" transform="translate(794.055 4358.295)">
          <path id="Path_8" data-name="Path 8" d="M3.136,24.341c-.8-6.356,3.513-15.071,8.6-19.068,1.506-1.182,6.58.183,7.9-.521C22.741,3.086,27.83.9,30.884,2.667c1.891,1.1.828,3.724,2.7,4.853,3.607,2.173,13.006-1.37,16.674.694,3.25,1.827,5.154,16.593,8.238,18.683,1.719,1.165,9.9-2.976,10.987-.432,2.077,4.845-12.056,12.859-13.523,17.042-1.146,3.264,3.488,6.616.72,8.693-4.152,3.115-2.638,7.832-3.892,8.737-3.969,2.86-2.431,4.554-5.133,8.637-3,4.532-7.731,4.5-11.3,4.377-3.457-.116-7.544-9.907-8.13-13.318-.6-3.477,3.084-8.166,2.6-11.6s-3.693-2.257-5.537-5.706-.111-8.13-2.187-10.9c-1.357-1.81-11.619,1.1-13.349-.391-2.516-2.165-6.2-4.478-6.614-7.7Z" transform="translate(-3.04 -2.01)" fill="#f3525d"/>
          <path id="Path_9" data-name="Path 9" d="M32.826,19.746a1.1,1.1,0,0,1,2,.133c1.8,4.886,1.016,16.114-2.37,18.443-2.242,1.542-8.664,1.412-7.676-1.293,1.232-3.347,2.532-3.765,2.932-5.589.316-1.431-1.309-5.128-.285-6.1,1.938-1.833,3.363-2.293,5.4-5.6Z" transform="translate(30.941 24.926)" fill="#f3525d"/>
        </g>
      </g>
      <text id="August_-_September" data-name="August - September" transform="translate(648 4292.234)" fill="#050f3c" font-size="18" font-family="Raleway" font-weight="700"><tspan x="0" y="0">August - September</tspan></text>
      <text id="_2022-2" data-name="2022" transform="translate(714 4313.542)" fill="#050f3c" font-size="18" font-family="Raleway" font-weight="700"><tspan x="0" y="0">2022</tspan></text>
    </g>
    <g id="Groupe_463" data-name="Groupe 463" transform="translate(73 -4119.969)">
      <text id="Lunch_Of_The_" data-name="Lunch Of The " transform="translate(1128 4519.168)" fill="#fff" font-size="18" font-family="Raleway" font-weight="700"><tspan x="0" y="0">Lunch Of The </tspan></text>
      <text id="Online" transform="translate(1160 4548.168)" fill="#fff" font-size="18" font-family="Raleway" font-weight="700"><tspan x="0" y="0">Online</tspan></text>
      <text id="Incubation_Phase" data-name="Incubation Phase" transform="translate(1113 4569.168)" fill="#fff" font-size="18" font-family="Raleway" font-weight="700"><tspan x="0" y="0">Incubation Phase</tspan></text>
      <g id="Groupe_311" data-name="Groupe 311" transform="translate(104.657 -6.832)">
        <ellipse id="Ellipse_5" data-name="Ellipse 5" cx="62.5" cy="63" rx="62.5" ry="63" transform="translate(1020.343 4357)" fill="#fff"/>
        <g id="rocket" transform="translate(1056.534 4393.316)">
          <path id="Path_21" data-name="Path 21" d="M51.535,0C40.95-.188,28.877,5.345,21.237,13.928A28.671,28.671,0,0,0,1.589,22.3a1.13,1.13,0,0,0,.633,1.923l8.708,1.248-1.076,1.2A1.129,1.129,0,0,0,9.9,28.225L24.421,42.749a1.133,1.133,0,0,0,1.553.037l1.2-1.076,1.248,8.708a1.125,1.125,0,0,0,.8.872,1.038,1.038,0,0,0,.323.049,1.276,1.276,0,0,0,.874-.364,28.611,28.611,0,0,0,8.3-19.569C47.309,23.749,52.887,11.68,52.64,1.11A1.134,1.134,0,0,0,51.535,0ZM41.124,19.51a5.631,5.631,0,1,1,1.662-3.995A5.649,5.649,0,0,1,41.124,19.51Z" transform="translate(1.578 0.004)" fill="#f3525d"/>
          <path id="Path_22" data-name="Path 22" d="M6.155,18.044C3.732,20.462.418,31.383.048,32.619A1.13,1.13,0,0,0,1.13,34.075a1.157,1.157,0,0,0,.325-.048c1.236-.371,12.158-3.689,14.575-6.107a6.984,6.984,0,0,0-9.877-9.877Z" transform="translate(0 20.155)" fill="#f3525d"/>
        </g>
      </g>
      <text id="September_-_November" data-name="September - November" transform="translate(1086 4300.138)" fill="#050f3c" font-size="18" font-family="Raleway" font-weight="700"><tspan x="0" y="0">September - November</tspan></text>
      <text id="_2022-3" data-name="2022" transform="translate(1167 4324.051)" fill="#050f3c" font-size="18" font-family="Raleway" font-weight="700"><tspan x="0" y="0">2022</tspan></text>
    </g>
    <g id="Groupe_464" data-name="Groupe 464" transform="translate(0 -4119.969)">
      <circle id="Ellipse_6" data-name="Ellipse 6" cx="63" cy="63" r="63" transform="translate(1626 4325.454)" fill="#fff"/>
      <g id="Groupe_14" data-name="Groupe 14" transform="translate(1600.703 4477.735)">
        <text id="Final_ceremony_" data-name="Final ceremony " transform="translate(22.297 17)" fill="#fff" font-size="18" font-family="Raleway" font-weight="700"><tspan x="0" y="0">Final ceremony </tspan></text>
        <text id="Selection_Of_The" data-name="Selection Of The" transform="translate(16.297 43.657)" fill="#fff" font-size="18" font-family="Raleway" font-weight="700"><tspan x="0" y="0">Selection Of The</tspan></text>
        <text id="Winning_Startup_-_Rwanda-_" data-name="Winning Startup
- Rwanda-
" transform="translate(87.297 70.315)" fill="#fff" font-size="18" font-family="Raleway" font-weight="700"><tspan x="-70.479" y="0">Winning Startup</tspan><tspan x="-44.64" y="21">- Rwanda-</tspan><tspan x="0" y="42"></tspan></text>
      </g>
      <g id="trophy-shape" transform="translate(1661 4353.779)">
        <path id="Path_20" data-name="Path 20" d="M50.027,0,50.1,1.6a2.723,2.723,0,0,1-.7,2.149,5.149,5.149,0,0,1-2.758,1.228c.035-.817.068-1.641.095-2.494H15.2c.027.853.061,1.677.1,2.494a5.158,5.158,0,0,1-2.76-1.229,2.707,2.707,0,0,1-.7-2.147L11.91,0H3.558l.028,1.551c.464,26.681,11.757,33.14,16.929,34.7l-.848,1.2,2.49,1.755.85-1.214c1.7,3.168,3.183,5.19,3.816,6.807H25.669v2.416h1.4c-.57,3.732-8.116,8.054-8.116,8.054v2.281H17.112V70.5h27.71V57.553H42.976V55.275s-7.548-4.322-8.118-8.054h1.412V44.8H35.118c.632-1.615,2.115-3.633,3.816-6.807l.848,1.214,2.486-1.758-.85-1.2c5.173-1.558,16.468-8.017,16.927-34.7L58.38,0ZM6.672,3.047H8.9a5.453,5.453,0,0,0,1.466,2.835A8.409,8.409,0,0,0,15.476,8.05c.813,11.743,2.979,19.584,5.227,25.058C16.276,31.484,7.446,25.458,6.672,3.047ZM41.237,33.106c2.25-5.473,4.414-13.313,5.227-25.058a8.4,8.4,0,0,0,5.1-2.167,5.425,5.425,0,0,0,1.466-2.835H55.26C54.493,25.458,45.666,31.484,41.237,33.106Z" transform="translate(-3.558)" fill="#f3525d"/>
      </g>
      <text id="December" transform="translate(1644 4280.734)" fill="#050f3c" font-size="18" font-family="Raleway" font-weight="700"><tspan x="0" y="0">December</tspan></text>
      <text id="_2022-4" data-name="2022" transform="translate(1668 4306.969)" fill="#050f3c" font-size="18" font-family="Raleway" font-weight="700"><tspan x="0" y="0">2022</tspan></text>
    </g>
  </g>
</svg>
