<svg xmlns="http://www.w3.org/2000/svg" xmlns:xlink="http://www.w3.org/1999/xlink" width="472" height="472" viewBox="0 0 472 472">
  <defs>
    <clipPath id="clip-Plan_de_travail_31">
      <rect width="472" height="472"/>
    </clipPath>
  </defs>
  <g id="Plan_de_travail_31" data-name="Plan de travail – 31" clip-path="url(#clip-Plan_de_travail_31)">
    <g id="Groupe_474" data-name="Groupe 474" transform="translate(33.016 38.908)">
      <g id="Groupe_260" data-name="Groupe 260" transform="translate(0 0)">
        <g id="Groupe_256" data-name="Groupe 256" transform="translate(1.642 133.69)">
          <g id="Groupe_255" data-name="Groupe 255">
            <path id="Tracé_1849" data-name="Tracé 1849" d="M436.174,463.06c0,.813-1.621,1.621-2.434,1.621-.2,0-.4-.2-.606-.4l-8.919-20.469c-1.013-2.23-2.028-3.447-4.053-4.055-6.891-2.025-21.08-3.038-24.726-3.24-.609,11.957-1.419,46.208-1.826,56.95-.2,11.351-.808,49.248-.808,57.356,0,2.025.808,2.434,2.227,2.636l10.133,1.823c.609,0,1.015,1.217,1.015,2.432,0,.407,0,.609-.609.609-4.457-.2-15.605-.407-27.36-.407-10.745,0-20.676.2-25.133.407-.609,0-.609-.2-.609-.407,0-1.013.407-2.634,1.015-2.634l10.335-2.025c1.419-.2,1.621-.813,1.621-2.838.2-8.108-.606-48.238-.811-57.763,0-8.108-.811-45.8-1.013-56.139-3.447.2-17.428,1.214-24.322,3.038-2.028.609-3.24,1.823-4.457,4.257l-9.325,20.267c-.2.4-.4.606-.808.606-.611,0-2.434-1.01-2.434-1.621l2.025-29.789a1.282,1.282,0,0,1,1.419-1.419c1.621,0,5.474.2,13.785.606,8.512.2,21.279.606,40.332.606,18.444,0,31.213-.2,39.723-.606,8.512-.2,12.767-.4,14.186-.4.813,0,1.217.4,1.217,1.419Z" transform="translate(-322.27 -431.852)" fill="#081d82"/>
            <path id="Tracé_1850" data-name="Tracé 1850" d="M423.01,432.164c7.093,0,12.568.2,17.025.4a2.109,2.109,0,0,1,1.621.813c6.484,21.888,27.363,91.812,35.468,116.74a4.259,4.259,0,0,0,2.634,2.636l7.5,2.025c.606.2,1.01,1.217,1.01,2.634,0,.2-.2.406-.606.406-4.257,0-13.984-.406-24.12-.406-11.348,0-22.292.2-27.764.406-.611,0-.611-.2-.611-.406,0-1.215.611-2.634,1.217-2.836l10.947-1.823c1.621-.2,1.823-1.621,1.419-3.242-2.232-6.689-9.729-26.148-11.962-33.037-9.118.2-32.627.808-43.167,1.621-.609,0-1.215.606-1.417,1.621-1.217,5.876-5.068,22.292-6.285,29.59-.2,2.432.609,3.038,2.028,3.447l10.537,2.025c.609,0,1.217,1.419,1.217,2.634,0,.406-.2.406-.609.406-5.065-.2-13.174-.406-21.279-.406-6.891,0-12.972.2-17.025.406-.406,0-.406-.2-.406-.609,0-.608.406-2.432,1.012-2.634l5.068-1.621c1.621-.4,2.636-1.217,3.646-3.649,9.931-24.32,31.011-86.542,40.13-111.268,1.826-4.863,4.459-5.879,12.568-5.879Zm-10.944,16.012a70.967,70.967,0,0,0-2.028,6.891c-5.068,16.823-11.553,40.332-15.4,54.319a1.1,1.1,0,0,0,1.015,1.417c9.32,1.215,31.006,2.028,39.726,1.826-3.45-9.73-13.987-39.117-19.459-57.359-.606-1.823-1.419-4.255-2.636-7.093Z" transform="translate(-261.681 -431.356)" fill="#081d82"/>
            <path id="Tracé_1851" data-name="Tracé 1851" d="M468.077,547.848c.609-2.232,1.417-4.462,2.028-6.487,7.3-26.754,18.444-69.315,24.928-97.69,1.215-5.876,2.025-6.28,13.578-7.3a58.273,58.273,0,0,1,7.3-.606,1.774,1.774,0,0,1,1.826,1.417c6.687,24.928,18.648,78.03,24.928,105.392a47.13,47.13,0,0,0,1.823,5.674H545.5c.606-1.621,1.217-4.255,1.621-5.876,5.879-25.337,14.593-69.924,19.05-101.541.207-2.23-.4-3.444-1.823-3.649l-9.522-1.417c-.813-.2-1.217-1.828-1.217-2.838,0-.4,0-.611.4-.611h38.915a.539.539,0,0,1,.606.611c0,1.01-.4,2.429-1.013,2.634l-4.457,1.419a4.5,4.5,0,0,0-3.651,3.646c-5.674,19.863-27.966,92.42-35.468,111.47-1.419,4.462-2.631,4.866-17.835,5.273H523a2.168,2.168,0,0,1-1.826-1.419c-6.28-20.065-15.4-47.427-20.065-65.666-.808-2.634-1.823-7.3-3.038-11.553h-1.217c-1.217,4.459-2.838,9.727-4.055,13.578-4.457,13.174-15.2,45.2-21.479,60-1.828,4.255-2.838,4.659-20.474,5.065h-6.283c-1.013,0-1.417-.407-1.823-1.621-5.876-19.863-20.065-81.07-27.969-116.336-.406-1.419-1.013-2.432-2.432-2.636l-5.27-1.01c-.606-.2-1.217-1.828-1.217-2.838a.541.541,0,0,1,.611-.611h55.329c.606,0,.606.207.606.813,0,.808-.606,2.432-1.419,2.636l-10.133,1.417a2.479,2.479,0,0,0-2.025,3.04c3.242,21.888,11.755,73.57,16.618,100.731.407,1.621,1.015,4.457,1.419,6.891Z" transform="translate(-189.397 -431.108)" fill="#081d82"/>
          </g>
        </g>
        <g id="Groupe_257" data-name="Groupe 257" transform="translate(5.673)">
          <path id="Tracé_1852" data-name="Tracé 1852" d="M427.631,394.908a5.449,5.449,0,0,1,10.643-2c.539,2.636-1.437,5.265-4.418,5.824A5.139,5.139,0,0,1,427.631,394.908Z" transform="translate(-158.914 -366.199)" fill="#e3a437"/>
          <path id="Tracé_1853" data-name="Tracé 1853" d="M422.27,395.633a5.433,5.433,0,1,1,6.088,4.032A5.186,5.186,0,0,1,422.27,395.633Z" transform="translate(-167.4 -364.749)" fill="#e3a437"/>
          <path id="Tracé_1854" data-name="Tracé 1854" d="M416.893,396.176a5.427,5.427,0,1,1,5.943,4.234A5.18,5.18,0,0,1,416.893,396.176Z" transform="translate(-175.919 -363.587)" fill="#e3a437"/>
          <path id="Tracé_1855" data-name="Tracé 1855" d="M411.5,396.54a5.431,5.431,0,0,1,10.757-.911,5.423,5.423,0,0,1-10.757.911Z" transform="translate(-184.465 -362.716)" fill="#e3a437"/>
          <path id="Tracé_1856" data-name="Tracé 1856" d="M406.109,396.722a5.419,5.419,0,1,1,5.635,4.625A5.176,5.176,0,0,1,406.109,396.722Z" transform="translate(-193.029 -362.134)" fill="#e3a437"/>
          <path id="Tracé_1857" data-name="Tracé 1857" d="M400.711,396.725a5.424,5.424,0,0,1,10.783-.186,5.417,5.417,0,0,1-10.783.186Z" transform="translate(-201.605 -361.842)" fill="#e3a437"/>
          <path id="Tracé_1858" data-name="Tracé 1858" d="M395.315,396.544a5.418,5.418,0,1,1,5.314,4.993A5.176,5.176,0,0,1,395.315,396.544Z" transform="translate(-210.186 -361.837)" fill="#e3a437"/>
          <path id="Tracé_1859" data-name="Tracé 1859" d="M389.928,396.185a5.427,5.427,0,0,1,10.776.539,5.419,5.419,0,0,1-10.776-.539Z" transform="translate(-218.762 -362.123)" fill="#e3a437"/>
          <path id="Tracé_1860" data-name="Tracé 1860" d="M384.551,395.643a5.422,5.422,0,1,1,4.97,5.34A5.179,5.179,0,0,1,384.551,395.643Z" transform="translate(-227.328 -362.697)" fill="#e3a437"/>
          <path id="Tracé_1861" data-name="Tracé 1861" d="M379.192,394.923a5.427,5.427,0,1,1,4.791,5.505A5.18,5.18,0,0,1,379.192,394.923Z" transform="translate(-235.875 -363.562)" fill="#e3a437"/>
          <path id="Tracé_1862" data-name="Tracé 1862" d="M373.853,394.022a5.432,5.432,0,1,1,4.607,5.664A5.184,5.184,0,0,1,373.853,394.022Z" transform="translate(-244.396 -364.715)" fill="#e3a437"/>
          <path id="Tracé_1863" data-name="Tracé 1863" d="M368.539,392.939a5.45,5.45,0,0,1,10.646,1.989,5.441,5.441,0,0,1-10.646-1.989Z" transform="translate(-252.885 -366.157)" fill="#e3a437"/>
          <path id="Tracé_1864" data-name="Tracé 1864" d="M421.541,390.394a5.246,5.246,0,0,1,10.341-1.582,5.241,5.241,0,0,1-10.341,1.582Z" transform="translate(-168.561 -373.03)" fill="#e3a437"/>
          <path id="Tracé_1865" data-name="Tracé 1865" d="M416.34,390.921a5.234,5.234,0,1,1,5.765,4.255A5.081,5.081,0,0,1,416.34,390.921Z" transform="translate(-176.799 -371.908)" fill="#e3a437"/>
          <path id="Tracé_1866" data-name="Tracé 1866" d="M411.128,391.273a5.23,5.23,0,1,1,5.614,4.446A5.08,5.08,0,0,1,411.128,391.273Z" transform="translate(-185.063 -371.066)" fill="#e3a437"/>
          <path id="Tracé_1867" data-name="Tracé 1867" d="M405.909,391.449a5.232,5.232,0,0,1,10.421-.531,5.227,5.227,0,0,1-10.421.531Z" transform="translate(-193.347 -370.504)" fill="#e3a437"/>
          <path id="Tracé_1868" data-name="Tracé 1868" d="M400.688,391.45a5.231,5.231,0,0,1,10.431-.179,5.226,5.226,0,0,1-10.431.179Z" transform="translate(-201.641 -370.22)" fill="#e3a437"/>
          <path id="Tracé_1869" data-name="Tracé 1869" d="M395.47,391.279a5.226,5.226,0,1,1,5.135,4.988A5.077,5.077,0,0,1,395.47,391.279Z" transform="translate(-209.939 -370.217)" fill="#e3a437"/>
          <path id="Tracé_1870" data-name="Tracé 1870" d="M390.26,390.93a5.227,5.227,0,1,1,4.964,5.159A5.078,5.078,0,0,1,390.26,390.93Z" transform="translate(-218.234 -370.492)" fill="#e3a437"/>
          <path id="Tracé_1871" data-name="Tracé 1871" d="M385.061,390.406a5.235,5.235,0,0,1,10.4.873,5.23,5.23,0,0,1-10.4-.873Z" transform="translate(-226.519 -371.048)" fill="#e3a437"/>
          <path id="Tracé_1872" data-name="Tracé 1872" d="M379.878,389.71a5.235,5.235,0,1,1,4.615,5.482A5.079,5.079,0,0,1,379.878,389.71Z" transform="translate(-234.787 -371.882)" fill="#e3a437"/>
          <path id="Tracé_1873" data-name="Tracé 1873" d="M374.716,388.835a5.241,5.241,0,1,1,4.434,5.638A5.085,5.085,0,0,1,374.716,388.835Z" transform="translate(-243.029 -372.996)" fill="#e3a437"/>
          <path id="Tracé_1874" data-name="Tracé 1874" d="M415.787,385.664a5.051,5.051,0,0,1,10.022-1.189,5.048,5.048,0,0,1-10.022,1.189Z" transform="translate(-177.68 -380.228)" fill="#e3a437"/>
          <path id="Tracé_1875" data-name="Tracé 1875" d="M410.751,386.005a5.044,5.044,0,1,1,5.438,4.459A4.981,4.981,0,0,1,410.751,386.005Z" transform="translate(-185.663 -379.414)" fill="#e3a437"/>
          <path id="Tracé_1876" data-name="Tracé 1876" d="M405.709,386.176a5.043,5.043,0,1,1,5.283,4.643A4.984,4.984,0,0,1,405.709,386.176Z" transform="translate(-193.665 -378.873)" fill="#e3a437"/>
          <path id="Tracé_1877" data-name="Tracé 1877" d="M400.666,386.179a5.043,5.043,0,0,1,10.076-.174,5.041,5.041,0,0,1-10.076.174Z" transform="translate(-201.676 -378.599)" fill="#e3a437"/>
          <path id="Tracé_1878" data-name="Tracé 1878" d="M395.625,386.01a5.043,5.043,0,0,1,10.076.166,5.041,5.041,0,0,1-10.076-.166Z" transform="translate(-209.693 -378.596)" fill="#e3a437"/>
          <path id="Tracé_1879" data-name="Tracé 1879" d="M390.592,385.675a5.041,5.041,0,1,1,4.788,5.148A4.93,4.93,0,0,1,390.592,385.675Z" transform="translate(-217.706 -378.862)" fill="#e3a437"/>
          <path id="Tracé_1880" data-name="Tracé 1880" d="M385.57,385.168a5.046,5.046,0,0,1,10.048.844,5.044,5.044,0,0,1-10.048-.844Z" transform="translate(-225.71 -379.398)" fill="#e3a437"/>
          <path id="Tracé_1881" data-name="Tracé 1881" d="M380.563,384.495a5.051,5.051,0,0,1,10.025,1.181,5.049,5.049,0,0,1-10.025-1.181Z" transform="translate(-233.698 -380.203)" fill="#e3a437"/>
          <path id="Tracé_1882" data-name="Tracé 1882" d="M428.445,399.6c-.456-2.652,1.6-5.218,4.584-5.78s5.837,1.085,6.373,3.721-1.507,5.278-4.576,5.853S428.9,402.252,428.445,399.6Z" transform="translate(-157.617 -358.794)" fill="#e3a437"/>
          <path id="Tracé_1883" data-name="Tracé 1883" d="M433.942,398.67c-.546-2.636,1.427-5.27,4.395-5.933s5.879.886,6.505,3.5-1.334,5.327-4.384,6.005S434.486,401.3,433.942,398.67Z" transform="translate(-148.923 -360.586)" fill="#e3a437"/>
          <path id="Tracé_1884" data-name="Tracé 1884" d="M422.926,400.344c-.368-2.665,1.771-5.161,4.77-5.62s5.788,1.282,6.236,3.936-1.681,5.221-4.762,5.692S423.291,403.008,422.926,400.344Z" transform="translate(-166.355 -357.3)" fill="#e3a437"/>
          <path id="Tracé_1885" data-name="Tracé 1885" d="M417.39,400.9c-.274-2.678,1.942-5.1,4.952-5.456s5.736,1.479,6.094,4.143-1.852,5.164-4.944,5.529S417.667,403.579,417.39,400.9Z" transform="translate(-175.127 -356.105)" fill="#e3a437"/>
          <path id="Tracé_1886" data-name="Tracé 1886" d="M411.842,401.278c-.184-2.686,2.113-5.032,5.13-5.288s5.677,1.67,5.946,4.348-2.025,5.1-5.125,5.361S412.029,403.961,411.842,401.278Z" transform="translate(-183.926 -355.207)" fill="#e3a437"/>
          <path id="Tracé_1887" data-name="Tracé 1887" d="M406.288,401.465c-.1-2.691,2.279-4.957,5.3-5.112s5.614,1.862,5.793,4.545-2.194,5.027-5.3,5.185S406.383,404.151,406.288,401.465Z" transform="translate(-192.744 -354.607)" fill="#e3a437"/>
          <path id="Tracé_1888" data-name="Tracé 1888" d="M400.731,401.466c-.005-2.691,2.445-4.879,5.469-4.931s5.547,2.048,5.635,4.739-2.359,4.949-5.469,5S400.736,404.154,400.731,401.466Z" transform="translate(-201.573 -354.306)" fill="#e3a437"/>
          <path id="Tracé_1889" data-name="Tracé 1889" d="M395.176,401.282c.086-2.691,2.608-4.793,5.63-4.744s5.477,2.235,5.475,4.926-2.525,4.869-5.633,4.817S395.091,403.97,395.176,401.282Z" transform="translate(-210.406 -354.302)" fill="#e3a437"/>
          <path id="Tracé_1890" data-name="Tracé 1890" d="M389.629,400.913c.176-2.686,2.768-4.7,5.791-4.553s5.4,2.419,5.3,5.107-2.686,4.778-5.791,4.623S389.453,403.6,389.629,400.913Z" transform="translate(-219.237 -354.596)" fill="#e3a437"/>
          <path id="Tracé_1891" data-name="Tracé 1891" d="M384.094,400.355c.264-2.678,2.924-4.6,5.941-4.353s5.317,2.6,5.133,5.283-2.846,4.685-5.946,4.426S383.827,403.033,384.094,400.355Z" transform="translate(-228.054 -355.188)" fill="#e3a437"/>
          <path id="Tracé_1892" data-name="Tracé 1892" d="M378.575,399.613c.355-2.665,3.079-4.5,6.088-4.149s5.231,2.773,4.957,5.451-3,4.589-6.1,4.224S378.218,402.28,378.575,399.613Z" transform="translate(-236.854 -356.077)" fill="#e3a437"/>
          <path id="Tracé_1893" data-name="Tracé 1893" d="M373.077,398.689c.448-2.655,3.235-4.4,6.233-3.944s5.138,2.952,4.775,5.617-3.159,4.485-6.241,4.014S372.632,401.34,373.077,398.689Z" transform="translate(-245.627 -357.266)" fill="#e3a437"/>
          <path id="Tracé_1894" data-name="Tracé 1894" d="M367.606,397.575c.536-2.636,3.385-4.286,6.371-3.729s5.045,3.126,4.592,5.778-3.315,4.374-6.381,3.8S367.072,400.211,367.606,397.575Z" transform="translate(-254.366 -358.752)" fill="#e3a437"/>
          <path id="Tracé_1895" data-name="Tracé 1895" d="M362.167,396.276c.624-2.618,3.53-4.169,6.5-3.509s4.944,3.294,4.4,5.93-3.462,4.258-6.513,3.579S361.543,398.892,362.167,396.276Z" transform="translate(-263.061 -360.536)" fill="#e3a437"/>
          <path id="Tracé_1896" data-name="Tracé 1896" d="M429.349,404.817c-.456-2.652,1.678-5.234,4.76-5.814s6.011,1.054,6.547,3.69-1.585,5.291-4.749,5.886S429.8,407.466,429.349,404.817Z" transform="translate(-156.177 -350.566)" fill="#e3a437"/>
          <path id="Tracé_1897" data-name="Tracé 1897" d="M435.02,403.858c-.546-2.634,1.5-5.288,4.568-5.972s6.052.847,6.679,3.462-1.409,5.345-4.558,6.047S435.564,406.491,435.02,403.858Z" transform="translate(-147.204 -352.416)" fill="#e3a437"/>
          <path id="Tracé_1898" data-name="Tracé 1898" d="M440.663,402.709c-.632-2.616,1.331-5.337,4.377-6.127s6.088.637,6.8,3.232-1.233,5.392-4.361,6.2S441.3,405.322,440.663,402.709Z" transform="translate(-138.283 -354.575)" fill="#e3a437"/>
          <path id="Tracé_1899" data-name="Tracé 1899" d="M423.654,405.584c-.365-2.667,1.852-5.174,4.946-5.648s5.964,1.256,6.412,3.908-1.761,5.236-4.936,5.723S424.022,408.246,423.654,405.584Z" transform="translate(-165.195 -349.023)" fill="#e3a437"/>
          <path id="Tracé_1900" data-name="Tracé 1900" d="M417.944,406.159c-.277-2.678,2.02-5.107,5.128-5.477s5.91,1.455,6.27,4.123-1.932,5.174-5.122,5.552S418.218,408.834,417.944,406.159Z" transform="translate(-174.246 -347.788)" fill="#e3a437"/>
          <path id="Tracé_1901" data-name="Tracé 1901" d="M412.219,406.543c-.187-2.683,2.191-5.037,5.306-5.3s5.853,1.657,6.122,4.332-2.1,5.107-5.3,5.376S412.406,409.226,412.219,406.543Z" transform="translate(-183.327 -346.861)" fill="#e3a437"/>
          <path id="Tracé_1902" data-name="Tracé 1902" d="M406.488,406.736c-.1-2.691,2.359-4.959,5.477-5.12s5.793,1.852,5.972,4.537-2.274,5.029-5.475,5.192S406.584,409.424,406.488,406.736Z" transform="translate(-192.426 -346.241)" fill="#e3a437"/>
          <path id="Tracé_1903" data-name="Tracé 1903" d="M400.754,406.738c-.005-2.691,2.522-4.879,5.643-4.933s5.726,2.046,5.814,4.734-2.44,4.951-5.646,5.006S400.759,409.426,400.754,406.738Z" transform="translate(-201.536 -345.93)" fill="#e3a437"/>
          <path id="Tracé_1904" data-name="Tracé 1904" d="M395.021,406.547c.088-2.691,2.686-4.791,5.809-4.739s5.653,2.235,5.651,4.926-2.605,4.866-5.809,4.814S394.936,409.235,395.021,406.547Z" transform="translate(-210.653 -345.925)" fill="#e3a437"/>
          <path id="Tracé_1905" data-name="Tracé 1905" d="M389.3,406.166c.173-2.686,2.846-4.7,5.964-4.542s5.576,2.426,5.482,5.115-2.766,4.778-5.969,4.617S389.121,408.848,389.3,406.166Z" transform="translate(-219.763 -346.23)" fill="#e3a437"/>
          <path id="Tracé_1906" data-name="Tracé 1906" d="M383.585,405.592c.267-2.678,3-4.6,6.119-4.338s5.493,2.61,5.309,5.3-2.926,4.68-6.125,4.41S383.318,408.267,383.585,405.592Z" transform="translate(-228.863 -346.84)" fill="#e3a437"/>
          <path id="Tracé_1907" data-name="Tracé 1907" d="M377.89,404.829c.355-2.667,3.159-4.5,6.264-4.13s5.407,2.8,5.133,5.472-3.084,4.579-6.272,4.2S377.532,407.494,377.89,404.829Z" transform="translate(-237.942 -347.76)" fill="#e3a437"/>
          <path id="Tracé_1908" data-name="Tracé 1908" d="M372.216,403.873c.445-2.654,3.312-4.384,6.407-3.916s5.314,2.978,4.951,5.643-3.24,4.473-6.417,3.988S371.768,406.525,372.216,403.873Z" transform="translate(-246.994 -348.987)" fill="#e3a437"/>
          <path id="Tracé_1909" data-name="Tracé 1909" d="M366.57,402.724c.536-2.636,3.462-4.268,6.544-3.693s5.218,3.154,4.765,5.806-3.392,4.361-6.554,3.771S366.034,405.36,366.57,402.724Z" transform="translate(-256.01 -350.521)" fill="#e3a437"/>
          <path id="Tracé_1910" data-name="Tracé 1910" d="M360.955,401.387c.624-2.618,3.61-4.149,6.676-3.47s5.117,3.333,4.573,5.969-3.54,4.242-6.687,3.543S360.331,404,360.955,401.387Z" transform="translate(-264.983 -352.364)" fill="#e3a437"/>
          <path id="Tracé_1911" data-name="Tracé 1911" d="M355.377,399.857c.712-2.595,3.755-4.024,6.8-3.237s5.014,3.5,4.382,6.119-3.688,4.12-6.813,3.312S354.665,402.449,355.377,399.857Z" transform="translate(-273.904 -354.514)" fill="#e3a437"/>
          <path id="Tracé_1912" data-name="Tracé 1912" d="M430.253,410.03c-.456-2.652,1.756-5.244,4.936-5.842s6.184,1.018,6.723,3.654-1.665,5.309-4.926,5.92S430.708,412.682,430.253,410.03Z" transform="translate(-154.738 -342.336)" fill="#e3a437"/>
          <path id="Tracé_1913" data-name="Tracé 1913" d="M436.1,409.044c-.546-2.634,1.582-5.3,4.744-6.008s6.223.805,6.852,3.424-1.489,5.361-4.731,6.086S436.642,411.678,436.1,409.044Z" transform="translate(-145.486 -344.245)" fill="#e3a437"/>
          <path id="Tracé_1914" data-name="Tracé 1914" d="M441.915,407.861c-.634-2.613,1.406-5.353,4.55-6.169s6.259.59,6.974,3.185-1.31,5.412-4.532,6.246S442.549,410.477,441.915,407.861Z" transform="translate(-136.287 -346.473)" fill="#e3a437"/>
          <path id="Tracé_1915" data-name="Tracé 1915" d="M447.7,406.482c-.723-2.592,1.23-5.4,4.351-6.324s6.29.373,7.093,2.942-1.134,5.456-4.335,6.4S448.421,409.072,447.7,406.482Z" transform="translate(-127.149 -349.017)" fill="#e3a437"/>
          <path id="Tracé_1916" data-name="Tracé 1916" d="M424.383,410.822c-.365-2.665,1.929-5.184,5.122-5.674s6.137,1.228,6.585,3.882-1.836,5.249-5.112,5.749S424.749,413.486,424.383,410.822Z" transform="translate(-164.034 -340.745)" fill="#e3a437"/>
          <path id="Tracé_1917" data-name="Tracé 1917" d="M418.5,411.415c-.277-2.678,2.1-5.117,5.3-5.5s6.088,1.435,6.446,4.1-2.01,5.182-5.3,5.573S418.774,414.09,418.5,411.415Z" transform="translate(-173.366 -339.47)" fill="#e3a437"/>
          <path id="Tracé_1918" data-name="Tracé 1918" d="M412.6,411.809c-.187-2.686,2.269-5.042,5.482-5.314s6.029,1.639,6.3,4.314-2.183,5.115-5.477,5.392S412.782,414.492,412.6,411.809Z" transform="translate(-182.727 -338.513)" fill="#e3a437"/>
          <path id="Tracé_1919" data-name="Tracé 1919" d="M406.688,412.007c-.1-2.691,2.437-4.962,5.653-5.128s5.969,1.841,6.148,4.527-2.351,5.037-5.651,5.2S406.783,414.7,406.688,412.007Z" transform="translate(-192.108 -337.875)" fill="#e3a437"/>
          <path id="Tracé_1920" data-name="Tracé 1920" d="M400.776,412.01c-.005-2.691,2.6-4.879,5.822-4.936s5.9,2.041,5.99,4.731-2.517,4.954-5.822,5.011S400.781,414.7,400.776,412.01Z" transform="translate(-201.501 -337.554)" fill="#e3a437"/>
          <path id="Tracé_1921" data-name="Tracé 1921" d="M394.867,411.813c.085-2.691,2.763-4.788,5.985-4.737s5.829,2.238,5.827,4.928-2.683,4.869-5.987,4.812S394.782,414.5,394.867,411.813Z" transform="translate(-210.898 -337.549)" fill="#e3a437"/>
          <path id="Tracé_1922" data-name="Tracé 1922" d="M388.965,411.419c.176-2.685,2.924-4.692,6.143-4.532s5.752,2.432,5.658,5.122-2.846,4.773-6.145,4.607S388.789,414.1,388.965,411.419Z" transform="translate(-220.29 -337.862)" fill="#e3a437"/>
          <path id="Tracé_1923" data-name="Tracé 1923" d="M383.075,410.829c.267-2.678,3.084-4.589,6.3-4.322s5.671,2.626,5.488,5.311-3.007,4.674-6.3,4.4S382.811,413.506,383.075,410.829Z" transform="translate(-229.671 -338.493)" fill="#e3a437"/>
          <path id="Tracé_1924" data-name="Tracé 1924" d="M377.2,410.042c.355-2.667,3.237-4.483,6.44-4.107s5.583,2.815,5.309,5.493-3.162,4.571-6.448,4.182S376.846,412.706,377.2,410.042Z" transform="translate(-239.03 -339.441)" fill="#e3a437"/>
          <path id="Tracé_1925" data-name="Tracé 1925" d="M371.354,409.057c.445-2.654,3.39-4.371,6.583-3.887s5.49,3,5.128,5.669-3.317,4.462-6.593,3.962S370.909,411.709,371.354,409.057Z" transform="translate(-248.361 -340.708)" fill="#e3a437"/>
          <path id="Tracé_1926" data-name="Tracé 1926" d="M365.532,407.874c.536-2.636,3.54-4.252,6.72-3.659s5.392,3.188,4.939,5.84-3.47,4.345-6.73,3.737S365,410.511,365.532,407.874Z" transform="translate(-257.655 -342.291)" fill="#e3a437"/>
          <path id="Tracé_1927" data-name="Tracé 1927" d="M359.743,406.5c.624-2.618,3.688-4.131,6.85-3.429s5.291,3.369,4.749,6.006-3.618,4.226-6.863,3.5S359.119,409.113,359.743,406.5Z" transform="translate(-266.904 -344.192)" fill="#e3a437"/>
          <path id="Tracé_1928" data-name="Tracé 1928" d="M353.993,404.921c.712-2.595,3.827-4,6.971-3.191s5.185,3.548,4.553,6.163-3.763,4.1-6.987,3.268S353.278,407.513,353.993,404.921Z" transform="translate(-276.099 -346.41)" fill="#e3a437"/>
          <path id="Tracé_1929" data-name="Tracé 1929" d="M348.284,403.149c.8-2.569,3.97-3.866,7.091-2.95s5.073,3.729,4.353,6.321-3.905,3.97-7.106,3.025S347.484,405.718,348.284,403.149Z" transform="translate(-285.234 -348.947)" fill="#e3a437"/>
          <path id="Tracé_1930" data-name="Tracé 1930" d="M431.156,415.247c-.456-2.652,1.836-5.26,5.112-5.876s6.358.984,6.9,3.62-1.743,5.324-5.1,5.956S431.612,417.9,431.156,415.247Z" transform="translate(-153.298 -334.107)" fill="#e3a437"/>
          <path id="Tracé_1931" data-name="Tracé 1931" d="M437.177,414.232c-.546-2.634,1.66-5.319,4.918-6.047s6.4.767,7.026,3.385-1.567,5.381-4.9,6.125S437.721,416.866,437.177,414.232Z" transform="translate(-143.768 -336.076)" fill="#e3a437"/>
          <path id="Tracé_1932" data-name="Tracé 1932" d="M443.167,413.015c-.634-2.616,1.484-5.374,4.721-6.213s6.435.546,7.15,3.139-1.388,5.436-4.708,6.293S443.8,415.631,443.167,413.015Z" transform="translate(-134.292 -338.37)" fill="#e3a437"/>
          <path id="Tracé_1933" data-name="Tracé 1933" d="M449.123,411.6c-.723-2.592,1.308-5.423,4.522-6.373s6.461.324,7.264,2.89-1.209,5.48-4.5,6.453S449.845,414.185,449.123,411.6Z" transform="translate(-124.878 -340.993)" fill="#e3a437"/>
          <path id="Tracé_1934" data-name="Tracé 1934" d="M455.038,409.973c-.811-2.566,1.126-5.464,4.317-6.526s6.482.1,7.373,2.636-1.028,5.519-4.3,6.606S455.846,412.539,455.038,409.973Z" transform="translate(-115.535 -343.943)" fill="#e3a437"/>
          <path id="Tracé_1935" data-name="Tracé 1935" d="M425.113,416.059c-.368-2.667,2.007-5.192,5.3-5.7s6.314,1.2,6.764,3.851-1.916,5.262-5.288,5.778S425.478,418.724,425.113,416.059Z" transform="translate(-162.873 -332.466)" fill="#e3a437"/>
          <path id="Tracé_1936" data-name="Tracé 1936" d="M419.049,416.667c-.275-2.675,2.18-5.122,5.482-5.516s6.262,1.414,6.622,4.081-2.09,5.192-5.474,5.594S419.326,419.345,419.049,416.667Z" transform="translate(-172.487 -331.153)" fill="#e3a437"/>
          <path id="Tracé_1937" data-name="Tracé 1937" d="M412.973,417.074c-.187-2.683,2.349-5.047,5.658-5.327s6.2,1.621,6.474,4.3-2.261,5.122-5.653,5.407S413.157,419.757,412.973,417.074Z" transform="translate(-182.127 -330.166)" fill="#e3a437"/>
          <path id="Tracé_1938" data-name="Tracé 1938" d="M406.888,417.279c-.1-2.688,2.515-4.964,5.829-5.135s6.145,1.834,6.324,4.517-2.429,5.042-5.827,5.213S406.981,419.967,406.888,417.279Z" transform="translate(-191.79 -329.509)" fill="#e3a437"/>
          <path id="Tracé_1939" data-name="Tracé 1939" d="M400.8,417.28c-.005-2.693,2.68-4.879,6-4.936s6.081,2.036,6.166,4.726-2.595,4.957-6,5.014S400.8,419.968,400.8,417.28Z" transform="translate(-201.465 -329.176)" fill="#e3a437"/>
          <path id="Tracé_1940" data-name="Tracé 1940" d="M394.712,417.077c.085-2.688,2.843-4.783,6.163-4.731s6.006,2.24,6,4.931-2.763,4.866-6.163,4.812S394.627,419.765,394.712,417.077Z" transform="translate(-211.144 -329.173)" fill="#e3a437"/>
          <path id="Tracé_1941" data-name="Tracé 1941" d="M388.633,416.673c.176-2.685,3-4.687,6.319-4.522s5.93,2.442,5.837,5.13-2.924,4.77-6.324,4.6S388.457,419.355,388.633,416.673Z" transform="translate(-220.818 -329.496)" fill="#e3a437"/>
          <path id="Tracé_1942" data-name="Tracé 1942" d="M382.567,416.066c.267-2.678,3.162-4.584,6.472-4.307s5.845,2.639,5.664,5.322-3.084,4.672-6.477,4.387S382.3,418.741,382.567,416.066Z" transform="translate(-230.479 -330.146)" fill="#e3a437"/>
          <path id="Tracé_1943" data-name="Tracé 1943" d="M376.518,415.254c.355-2.668,3.317-4.472,6.617-4.084s5.759,2.833,5.485,5.511-3.24,4.563-6.625,4.164S376.161,417.922,376.518,415.254Z" transform="translate(-240.119 -331.123)" fill="#e3a437"/>
          <path id="Tracé_1944" data-name="Tracé 1944" d="M370.492,414.242c.445-2.654,3.47-4.359,6.759-3.859s5.666,3.027,5.3,5.695-3.4,4.452-6.769,3.936S370.047,416.894,370.492,414.242Z" transform="translate(-249.729 -332.429)" fill="#e3a437"/>
          <path id="Tracé_1945" data-name="Tracé 1945" d="M364.494,413.028c.536-2.639,3.62-4.239,6.894-3.628s5.568,3.219,5.115,5.871-3.548,4.335-6.9,3.706S363.961,415.662,364.494,413.028Z" transform="translate(-259.3 -334.061)" fill="#e3a437"/>
          <path id="Tracé_1946" data-name="Tracé 1946" d="M358.531,411.607c.624-2.616,3.766-4.112,7.023-3.387s5.467,3.405,4.923,6.042-3.7,4.211-7.036,3.468S357.907,414.226,358.531,411.607Z" transform="translate(-268.826 -336.02)" fill="#e3a437"/>
          <path id="Tracé_1947" data-name="Tracé 1947" d="M352.607,409.986c.712-2.595,3.905-3.978,7.145-3.144s5.358,3.592,4.726,6.207-3.843,4.081-7.16,3.224S351.895,412.581,352.607,409.986Z" transform="translate(-278.295 -338.306)" fill="#e3a437"/>
          <path id="Tracé_1948" data-name="Tracé 1948" d="M346.725,408.165c.8-2.569,4.048-3.846,7.261-2.9s5.247,3.776,4.527,6.368-3.983,3.947-7.277,2.978S345.927,410.731,346.725,408.165Z" transform="translate(-287.702 -340.921)" fill="#e3a437"/>
          <path id="Tracé_1949" data-name="Tracé 1949" d="M340.233,405.892c.9-2.535,4.2-3.683,7.383-2.613s5.115,3.978,4.3,6.542-4.136,3.791-7.4,2.693S339.335,408.43,340.233,405.892Z" transform="translate(-298.098 -344.219)" fill="#e3a437"/>
          <path id="Tracé_1950" data-name="Tracé 1950" d="M432.062,420.463c-.458-2.652,1.911-5.275,5.283-5.907s6.534.951,7.072,3.587-1.82,5.34-5.273,5.987S432.515,423.113,432.062,420.463Z" transform="translate(-151.857 -325.878)" fill="#e3a437"/>
          <path id="Tracé_1951" data-name="Tracé 1951" d="M438.256,419.422c-.546-2.636,1.738-5.337,5.091-6.086s6.573.725,7.2,3.343-1.642,5.4-5.078,6.166S438.8,422.055,438.256,419.422Z" transform="translate(-142.049 -327.905)" fill="#e3a437"/>
          <path id="Tracé_1952" data-name="Tracé 1952" d="M444.419,418.17c-.634-2.616,1.562-5.394,4.894-6.257s6.606.5,7.321,3.095-1.466,5.454-4.879,6.337S445.053,420.783,444.419,418.17Z" transform="translate(-132.297 -330.269)" fill="#e3a437"/>
          <path id="Tracé_1953" data-name="Tracé 1953" d="M450.547,416.71c-.722-2.59,1.383-5.443,4.693-6.422s6.632.272,7.435,2.841-1.287,5.5-4.674,6.5S451.267,419.3,450.547,416.71Z" transform="translate(-122.607 -332.97)" fill="#e3a437"/>
          <path id="Tracé_1954" data-name="Tracé 1954" d="M456.633,415.043c-.811-2.566,1.2-5.49,4.488-6.583s6.653.039,7.544,2.579-1.106,5.547-4.47,6.663S457.441,417.609,456.633,415.043Z" transform="translate(-112.992 -336.008)" fill="#e3a437"/>
          <path id="Tracé_1955" data-name="Tracé 1955" d="M463.653,412.843c-.912-2.533.995-5.537,4.242-6.764s6.674-.233,7.663,2.269-.9,5.591-4.221,6.845S464.564,415.373,463.653,412.843Z" transform="translate(-101.91 -339.966)" fill="#e3a437"/>
          <path id="Tracé_1956" data-name="Tracé 1956" d="M425.841,421.3c-.365-2.665,2.087-5.205,5.475-5.723s6.49,1.171,6.938,3.825-1.994,5.275-5.464,5.806S426.209,423.961,425.841,421.3Z" transform="translate(-161.713 -324.188)" fill="#e3a437"/>
          <path id="Tracé_1957" data-name="Tracé 1957" d="M419.6,421.922c-.277-2.675,2.258-5.13,5.656-5.534s6.441,1.388,6.8,4.055-2.167,5.205-5.648,5.617S419.877,424.6,419.6,421.922Z" transform="translate(-171.606 -322.836)" fill="#e3a437"/>
          <path id="Tracé_1958" data-name="Tracé 1958" d="M413.349,422.341c-.184-2.686,2.429-5.053,5.837-5.343s6.384,1.606,6.65,4.283-2.339,5.127-5.829,5.423S413.535,425.024,413.349,422.341Z" transform="translate(-181.53 -321.82)" fill="#e3a437"/>
          <path id="Tracé_1959" data-name="Tracé 1959" d="M407.086,422.548c-.093-2.688,2.6-4.967,6.008-5.141s6.324,1.821,6.5,4.5-2.509,5.047-6.006,5.226S407.182,425.236,407.086,422.548Z" transform="translate(-191.474 -321.141)" fill="#e3a437"/>
          <path id="Tracé_1960" data-name="Tracé 1960" d="M400.821,422.549c-.005-2.691,2.761-4.876,6.176-4.936s6.257,2.033,6.345,4.721-2.678,4.959-6.176,5.019S400.826,425.239,400.821,422.549Z" transform="translate(-201.43 -320.8)" fill="#e3a437"/>
          <path id="Tracé_1961" data-name="Tracé 1961" d="M394.557,422.344c.085-2.688,2.924-4.783,6.339-4.729s6.184,2.243,6.182,4.933-2.841,4.866-6.34,4.809S394.472,425.032,394.557,422.344Z" transform="translate(-211.39 -320.797)" fill="#e3a437"/>
          <path id="Tracé_1962" data-name="Tracé 1962" d="M388.3,421.927c.176-2.685,3.084-4.682,6.5-4.511s6.1,2.447,6.013,5.135-3,4.77-6.5,4.594S388.125,424.61,388.3,421.927Z" transform="translate(-221.346 -321.128)" fill="#e3a437"/>
          <path id="Tracé_1963" data-name="Tracé 1963" d="M382.057,421.3c.267-2.678,3.242-4.576,6.65-4.291s6.021,2.652,5.837,5.337-3.162,4.664-6.653,4.371S381.791,423.98,382.057,421.3Z" transform="translate(-231.288 -321.799)" fill="#e3a437"/>
          <path id="Tracé_1964" data-name="Tracé 1964" d="M375.833,420.47c.355-2.67,3.395-4.465,6.8-4.063s5.933,2.854,5.661,5.529-3.322,4.555-6.8,4.146S375.475,423.135,375.833,420.47Z" transform="translate(-241.207 -322.805)" fill="#e3a437"/>
          <path id="Tracé_1965" data-name="Tracé 1965" d="M369.631,419.429c.445-2.654,3.545-4.345,6.933-3.833s5.842,3.053,5.477,5.721-3.473,4.441-6.943,3.91S369.183,422.081,369.631,419.429Z" transform="translate(-251.095 -324.149)" fill="#e3a437"/>
          <path id="Tracé_1966" data-name="Tracé 1966" d="M363.459,418.177c.534-2.639,3.7-4.221,7.067-3.592s5.744,3.247,5.291,5.9-3.628,4.319-7.08,3.672S362.923,420.811,363.459,418.177Z" transform="translate(-260.945 -325.829)" fill="#e3a437"/>
          <path id="Tracé_1967" data-name="Tracé 1967" d="M357.32,416.721c.624-2.618,3.841-4.094,7.194-3.351s5.64,3.444,5.1,6.081-3.776,4.2-7.21,3.431S356.7,419.337,357.32,416.721Z" transform="translate(-270.746 -327.848)" fill="#e3a437"/>
          <path id="Tracé_1968" data-name="Tracé 1968" d="M351.222,415.054c.712-2.595,3.983-3.96,7.316-3.1s5.532,3.638,4.9,6.254-3.918,4.063-7.331,3.18S350.51,417.647,351.222,415.054Z" transform="translate(-280.491 -330.203)" fill="#e3a437"/>
          <path id="Tracé_1969" data-name="Tracé 1969" d="M345.169,413.179c.8-2.569,4.123-3.82,7.432-2.846s5.418,3.825,4.7,6.42-4.061,3.926-7.45,2.926S344.369,415.748,345.169,413.179Z" transform="translate(-290.17 -332.896)" fill="#e3a437"/>
          <path id="Tracé_1970" data-name="Tracé 1970" d="M338.484,410.844c.9-2.535,4.273-3.656,7.552-2.556s5.288,4.035,4.47,6.6-4.213,3.768-7.572,2.636S337.588,413.379,338.484,410.844Z" transform="translate(-300.867 -336.292)" fill="#e3a437"/>
          <path id="Tracé_1971" data-name="Tracé 1971" d="M331.681,408.175c.994-2.5,4.421-3.486,7.668-2.25s5.143,4.244,4.226,6.775-4.366,3.594-7.689,2.331S330.686,410.671,331.681,408.175Z" transform="translate(-311.764 -340.224)" fill="#e3a437"/>
          <path id="Tracé_1972" data-name="Tracé 1972" d="M432.966,425.681c-.456-2.654,1.991-5.288,5.459-5.941s6.71.917,7.246,3.553-1.9,5.355-5.446,6.023S433.421,428.33,432.966,425.681Z" transform="translate(-150.417 -317.65)" fill="#e3a437"/>
          <path id="Tracé_1973" data-name="Tracé 1973" d="M439.334,424.609c-.544-2.636,1.815-5.353,5.268-6.122s6.746.686,7.373,3.3-1.722,5.42-5.252,6.2S439.878,427.243,439.334,424.609Z" transform="translate(-140.331 -319.735)" fill="#e3a437"/>
          <path id="Tracé_1974" data-name="Tracé 1974" d="M445.671,423.323c-.634-2.613,1.639-5.41,5.068-6.3s6.78.453,7.492,3.048-1.541,5.475-5.05,6.384S446.306,425.939,445.671,423.323Z" transform="translate(-130.301 -322.167)" fill="#e3a437"/>
          <path id="Tracé_1975" data-name="Tracé 1975" d="M451.971,421.827c-.723-2.592,1.463-5.467,4.866-6.474s6.8.22,7.606,2.789-1.362,5.526-4.845,6.555S452.693,424.417,451.971,421.827Z" transform="translate(-120.338 -324.947)" fill="#e3a437"/>
          <path id="Tracé_1976" data-name="Tracé 1976" d="M458.228,420.114c-.81-2.566,1.282-5.513,4.659-6.64s6.824-.018,7.712,2.522-1.181,5.573-4.635,6.723S459.039,422.68,458.228,420.114Z" transform="translate(-110.448 -328.074)" fill="#e3a437"/>
          <path id="Tracé_1977" data-name="Tracé 1977" d="M464.437,418.187c-.9-2.538,1.1-5.557,4.447-6.8s6.839-.259,7.813,2.25-1,5.612-4.423,6.883S465.332,420.723,464.437,418.187Z" transform="translate(-100.642 -331.547)" fill="#e3a437"/>
          <path id="Tracé_1978" data-name="Tracé 1978" d="M471.591,415.677c-1-2.5.888-5.6,4.2-6.979s6.845-.541,7.919,1.927-.785,5.653-4.169,7.065S472.588,418.176,471.591,415.677Z" transform="translate(-89.353 -336.023)" fill="#e3a437"/>
          <path id="Tracé_1979" data-name="Tracé 1979" d="M426.57,426.537c-.365-2.667,2.165-5.216,5.648-5.752s6.666,1.145,7.114,3.8-2.074,5.291-5.638,5.835S426.938,429.2,426.57,426.537Z" transform="translate(-160.552 -315.911)" fill="#e3a437"/>
          <path id="Tracé_1980" data-name="Tracé 1980" d="M420.155,427.178c-.275-2.675,2.338-5.14,5.835-5.555s6.614,1.367,6.974,4.035-2.248,5.215-5.827,5.64S420.432,429.853,420.155,427.178Z" transform="translate(-170.726 -314.519)" fill="#e3a437"/>
          <path id="Tracé_1981" data-name="Tracé 1981" d="M413.726,427.606c-.187-2.686,2.507-5.058,6.013-5.355s6.56,1.59,6.826,4.268-2.419,5.135-6.005,5.441S413.912,430.289,413.726,427.606Z" transform="translate(-180.93 -313.474)" fill="#e3a437"/>
          <path id="Tracé_1982" data-name="Tracé 1982" d="M407.286,427.822c-.1-2.691,2.675-4.972,6.184-5.151s6.5,1.81,6.679,4.5-2.587,5.05-6.182,5.234S407.382,430.51,407.286,427.822Z" transform="translate(-191.156 -312.775)" fill="#e3a437"/>
          <path id="Tracé_1983" data-name="Tracé 1983" d="M400.844,427.82c-.005-2.691,2.838-4.876,6.352-4.938s6.433,2.028,6.521,4.718-2.755,4.962-6.352,5.021S400.849,430.511,400.844,427.82Z" transform="translate(-201.393 -312.424)" fill="#e3a437"/>
          <path id="Tracé_1984" data-name="Tracé 1984" d="M394.4,427.608c.085-2.691,3-4.781,6.516-4.724s6.36,2.243,6.358,4.933-2.921,4.866-6.518,4.806S394.318,430.3,394.4,427.608Z" transform="translate(-211.635 -312.419)" fill="#e3a437"/>
          <path id="Tracé_1985" data-name="Tracé 1985" d="M387.969,427.179c.176-2.686,3.165-4.674,6.674-4.5s6.285,2.458,6.192,5.146-3.084,4.765-6.679,4.584S387.8,429.865,387.969,427.179Z" transform="translate(-221.873 -312.762)" fill="#e3a437"/>
          <path id="Tracé_1986" data-name="Tracé 1986" d="M381.549,426.537c.267-2.678,3.32-4.566,6.824-4.273s6.2,2.665,6.016,5.35-3.242,4.659-6.829,4.358S381.282,429.215,381.549,426.537Z" transform="translate(-232.095 -313.451)" fill="#e3a437"/>
          <path id="Tracé_1987" data-name="Tracé 1987" d="M375.147,425.683c.355-2.667,3.475-4.452,6.971-4.042s6.109,2.874,5.837,5.552-3.4,4.545-6.979,4.123S374.792,428.348,375.147,425.683Z" transform="translate(-242.295 -314.488)" fill="#e3a437"/>
          <path id="Tracé_1988" data-name="Tracé 1988" d="M368.769,424.614c.445-2.654,3.626-4.333,7.109-3.8s6.018,3.079,5.653,5.747-3.553,4.428-7.119,3.884S368.324,427.266,368.769,424.614Z" transform="translate(-252.463 -315.87)" fill="#e3a437"/>
          <path id="Tracé_1989" data-name="Tracé 1989" d="M362.421,423.329c.536-2.636,3.773-4.206,7.243-3.558s5.917,3.281,5.464,5.933-3.706,4.307-7.254,3.644S361.885,425.965,362.421,423.329Z" transform="translate(-262.59 -317.6)" fill="#e3a437"/>
          <path id="Tracé_1990" data-name="Tracé 1990" d="M356.109,421.832c.624-2.618,3.918-4.076,7.37-3.31s5.814,3.481,5.27,6.117-3.853,4.18-7.383,3.392S355.485,424.447,356.109,421.832Z" transform="translate(-272.668 -319.677)" fill="#e3a437"/>
          <path id="Tracé_1991" data-name="Tracé 1991" d="M349.837,420.119c.712-2.595,4.061-3.939,7.489-3.053s5.705,3.677,5.073,6.293-4,4.045-7.5,3.139S349.124,422.712,349.837,420.119Z" transform="translate(-282.687 -322.1)" fill="#e3a437"/>
          <path id="Tracé_1992" data-name="Tracé 1992" d="M343.611,418.194c.8-2.569,4.2-3.8,7.6-2.794s5.591,3.874,4.871,6.466-4.138,3.905-7.624,2.877S342.811,420.761,343.611,418.194Z" transform="translate(-292.639 -324.87)" fill="#e3a437"/>
          <path id="Tracé_1993" data-name="Tracé 1993" d="M336.736,415.8c.9-2.535,4.348-3.631,7.722-2.5s5.456,4.089,4.641,6.653-4.291,3.742-7.743,2.582S335.839,418.331,336.736,415.8Z" transform="translate(-303.638 -328.365)" fill="#e3a437"/>
          <path id="Tracé_1994" data-name="Tracé 1994" d="M331.06,413.6c.976-2.507,4.47-3.488,7.816-2.245s5.34,4.265,4.441,6.8-4.413,3.6-7.836,2.328S330.084,416.1,331.06,413.6Z" transform="translate(-312.724 -331.608)" fill="#e3a437"/>
          <path id="Tracé_1995" data-name="Tracé 1995" d="M324.131,410.625c1.075-2.468,4.615-3.307,7.922-1.927s5.19,4.48,4.2,6.979-4.563,3.424-7.948,2.01S323.056,413.09,324.131,410.625Z" transform="translate(-323.826 -336.023)" fill="#e3a437"/>
        </g>
        <g id="Groupe_259" data-name="Groupe 259" transform="translate(0 285.184)">
          <g id="Groupe_258" data-name="Groupe 258">
            <path id="Tracé_1996" data-name="Tracé 1996" d="M346.352,498.1c0,.176-.349.35-.526.35-.044,0-.088-.042-.132-.086l-1.937-4.444a1.337,1.337,0,0,0-.878-.878,32.11,32.11,0,0,0-5.366-.7c-.129,2.595-.308,10.027-.4,12.36-.044,2.463-.173,10.685-.173,12.443,0,.44.173.528.482.572l2.2.4c.135,0,.22.264.22.528,0,.088,0,.132-.132.132-.966-.044-3.387-.088-5.936-.088-2.331,0-4.485.044-5.454.088-.132,0-.132-.044-.132-.088,0-.22.088-.572.22-.572l2.243-.44c.308-.041.352-.176.352-.614.041-1.761-.132-10.467-.179-12.537,0-1.758-.173-9.939-.22-12.182a36.314,36.314,0,0,0-5.275.66,1.528,1.528,0,0,0-.969.922l-2.022,4.4c-.044.088-.088.13-.176.13-.132,0-.528-.22-.528-.35l.44-6.464a.279.279,0,0,1,.308-.311c.35,0,1.189.044,2.991.132,1.846.047,4.617.132,8.753.132,4,0,6.772-.044,8.618-.132,1.849-.041,2.771-.088,3.079-.088.176,0,.264.088.264.308Z" transform="translate(-321.636 -488.809)" fill="#f3525d"/>
            <path id="Tracé_1997" data-name="Tracé 1997" d="M349.852,502.817a1.326,1.326,0,0,1-.878,1.233c-1.629.528-9.59.528-11.656.35a14.579,14.579,0,0,0,.22,2.994c.748,3.3,3.211,5.366,5.762,5.366a14.214,14.214,0,0,0,2.944-.308,16.611,16.611,0,0,0,3.214-1.145c.088-.044.22.22.22.528,0,.132-.091.176-.179.264a23.235,23.235,0,0,1-5.058,2.2,11.853,11.853,0,0,1-3.869.44c-5.542,0-9.634-2.595-9.634-9.059,0-5.938,4.312-11.656,10.556-11.656,5.9,0,8.357,5.058,8.357,8.753Zm-9.147-7.917c-1.714,0-3.475,2.595-3.387,8.709a21.431,21.431,0,0,0,5.674-.264c.352-.176.616-.482.616-1.409,0-2.375-.528-7.078-2.859-7.078Z" transform="translate(-306.846 -484.516)" fill="#f3525d"/>
            <path id="Tracé_1998" data-name="Tracé 1998" d="M339.429,505.9a11.533,11.533,0,0,1,4.444-9.105,13,13,0,0,1,8.445-2.771,10.126,10.126,0,0,1,3.783.528c.132.041.218.173.218.393l.264,4.752c0,.132-.4.352-.528.352-.088,0-.129,0-.173-.088-.66-1.277-1.365-2.685-1.981-3.739a2.266,2.266,0,0,0-.79-.925,2.547,2.547,0,0,0-1.541-.4c-1.582,0-3.035,1.277-4.221,3.828a15.158,15.158,0,0,0-1.321,6.51c0,5.143,2.683,7.564,5.894,7.564a10.812,10.812,0,0,0,2.243-.264,11.791,11.791,0,0,0,2.9-1.013c.088-.044.22.132.22.4,0,.176-.044.308-.176.35a22.292,22.292,0,0,1-4.4,2.025,10.071,10.071,0,0,1-3.649.44c-5.366,0-9.634-2.333-9.634-8.8Z" transform="translate(-293.351 -484.516)" fill="#f3525d"/>
            <path id="Tracé_1999" data-name="Tracé 1999" d="M356.046,490.359c.262-.047.349.129.349.394,0,.352-.484,14.779-.616,18.252,0,.4-.041.925-.085,1.45h.218a12.209,12.209,0,0,1,.44-1.316c1.23-3.434,4.573-9.281,9.1-9.281,3.563,0,5.28,3.563,5.28,9.281,0,3.869-.352,7.653-.484,9.147-.047.7.044.88.352.966l2.111.44c.086,0,.22.264.22.528,0,.044-.044.088-.135.088-.79-.044-2.68-.088-5.231-.088-2.595,0-4.617.044-5.542.088-.132,0-.132-.044-.132-.088,0-.176.044-.528.176-.528l2.2-.4c.352-.044.44-.218.484-.616.132-1.142.22-3.693.22-6.42,0-4.18-.572-8.313-2.9-8.313-2.463,0-4.97,4.353-6.024,9.631a38.148,38.148,0,0,0-.4,5.148c0,.394.179.482.484.526l2.157.44c.085,0,.22.264.22.484,0,.088,0,.132-.135.132-.922-.044-3.167-.088-5.63-.088-2.416,0-4.4.044-5.1.088-.132,0-.132-.044-.132-.132,0-.176.132-.484.22-.484l2.111-.484c.264-.041.306-.176.352-.528.042-1.186-.047-10.379-.047-12.884,0-1.935-.132-11.568-.174-13.195,0-.4-.088-.572-.487-.616l-2.68-.132c-.135,0-.264-.264-.264-.528,0-.044,0-.132.13-.132Z" transform="translate(-282.04 -490.351)" fill="#f3525d"/>
            <path id="Tracé_2000" data-name="Tracé 2000" d="M373.14,491.39c1.536,0,2.724.042,3.69.086a.459.459,0,0,1,.355.176c1.406,4.75,5.936,19.925,7.7,25.335a.925.925,0,0,0,.572.57l1.624.44c.135.044.22.264.22.572,0,.044-.041.088-.129.088-.925,0-3.035-.088-5.234-.088-2.463,0-4.838.044-6.026.088-.132,0-.132-.044-.132-.088,0-.264.132-.572.264-.614l2.377-.4c.35-.041.394-.35.306-.7-.484-1.453-2.111-5.677-2.595-7.171-1.978.044-7.08.179-9.367.352-.132,0-.264.132-.308.352-.264,1.277-1.1,4.837-1.365,6.42-.041.528.132.66.44.748l2.287.44c.135,0,.267.308.267.572,0,.088-.047.088-.132.088-1.1-.044-2.862-.088-4.617-.088-1.5,0-2.815.044-3.7.088-.088,0-.088-.044-.088-.132,0-.132.088-.528.22-.57l1.1-.355c.352-.085.572-.264.792-.792,2.155-5.278,6.728-18.778,8.707-24.144.4-1.054.969-1.274,2.727-1.274Zm-2.375,3.473a14.425,14.425,0,0,0-.44,1.5c-1.1,3.649-2.509,8.75-3.343,11.786a.24.24,0,0,0,.22.308,82.209,82.209,0,0,0,8.618.4c-.746-2.111-3.033-8.489-4.221-12.449-.132-.394-.308-.922-.572-1.538Z" transform="translate(-261.367 -488.7)" fill="#f3525d"/>
            <path id="Tracé_2001" data-name="Tracé 2001" d="M387.712,500.731a.118.118,0,0,1,.135.132c0,.22-.135.7-.264.748l-7.476.526c-.088,2.862-.22,7.523-.267,8.271-.041,1.406-.086,7.212-.086,8.266.044.4.22.528.526.572l3.872.4c.132,0,.22.352.22.572,0,.044-.044.088-.129.088-2.245-.044-4.752-.088-7.171-.088-2.507,0-4.485.044-5.762.088-.088,0-.088-.044-.088-.088,0-.132.088-.528.22-.528l2.375-.4c.308-.044.44-.218.44-.57,0-1.673-.22-6.643-.262-8.753-.047-1.761-.22-6.992-.22-7.785l-3.434.088c-.088,0-.129-.044-.129-.176a2.943,2.943,0,0,1,.174-.792.794.794,0,0,1,.792-.66h2.639c.264-5.19,3.343-10.289,10.908-10.289a8.424,8.424,0,0,1,3.519.57.282.282,0,0,1,.22.264l.262,4.749c0,.176-.394.44-.572.44-.041,0-.088-.044-.174-.176-.66-1.23-1.453-2.812-1.981-3.737a2.208,2.208,0,0,0-.7-.836,2.057,2.057,0,0,0-1.233-.394c-2.2,0-3.869,3.3-3.957,9.367Z" transform="translate(-244.417 -490.347)" fill="#f3525d"/>
            <path id="Tracé_2002" data-name="Tracé 2002" d="M385.967,504.534c.088-.484.176-.88.22-1.145,1.013-4.177,3.3-9.367,7.3-9.367a2.441,2.441,0,0,1,1.406.35.4.4,0,0,1,.135.311l.306,6.112c0,.176-.394.4-.482.4-.044,0-.088,0-.132-.088-.528-1.013-1.233-2.2-1.761-3.035a1.559,1.559,0,0,0-1.23-.748c-2.419,0-4.485,4.4-5.674,10.382a44.188,44.188,0,0,0-.44,5.19c0,.394.179.482.484.526l3.431.484c.088,0,.22.308.22.44,0,.088,0,.132-.088.132-1.233-.044-3.784-.088-6.772-.088-2.595,0-4.884.044-5.41.088-.088,0-.088-.044-.088-.088,0-.22.088-.484.22-.484l2.2-.44a.5.5,0,0,0,.4-.57c0-1.145-.091-6.6-.132-8.357-.047-1.89-.088-6.422-.179-7.652,0-.4-.086-.66-.482-.7l-1.981-.132c-.174,0-.262-.352-.262-.528,0-.085,0-.176.13-.176l8.533-1.274c.352-.088.44.085.44.4,0,.658-.262,6.376-.44,8.794,0,.4-.041.922-.041,1.277Z" transform="translate(-233.352 -484.516)" fill="#f3525d"/>
            <path id="Tracé_2003" data-name="Tracé 2003" d="M393.531,498.936a.318.318,0,0,1,.394.35c-.086,1.761-.306,7.831-.35,9.986-.044,1.981-.132,6.86-.132,8.533,0,.394.088.482.4.57l2.2.44c.088,0,.22.308.22.44,0,.088,0,.132-.088.132-1.057-.044-3.123-.088-5.5-.088-2.416,0-4.483.044-5.363.088-.132,0-.132-.044-.132-.088,0-.176.088-.44.22-.484l2.067-.484c.308-.085.484-.173.484-.572,0-.966-.132-6.244-.176-8.4-.044-1.8-.176-6.466-.22-7.564-.044-.355-.088-.66-.484-.66l-1.979-.088c-.132,0-.308-.308-.308-.572,0-.044,0-.088.088-.088Zm-3.211-8a2.855,2.855,0,0,1,2.991,2.856,2.984,2.984,0,0,1-3.035,3.035,2.957,2.957,0,1,1,0-5.891Z" transform="translate(-221.261 -489.429)" fill="#f3525d"/>
            <path id="Tracé_2004" data-name="Tracé 2004" d="M390.041,505.9a11.525,11.525,0,0,1,4.444-9.105,13,13,0,0,1,8.442-2.771,10.117,10.117,0,0,1,3.784.528c.132.041.217.173.217.393l.267,4.752c0,.132-.4.352-.528.352-.088,0-.132,0-.176-.088-.66-1.277-1.365-2.685-1.979-3.739a2.3,2.3,0,0,0-.792-.925,2.542,2.542,0,0,0-1.541-.4c-1.582,0-3.035,1.277-4.221,3.828a15.156,15.156,0,0,0-1.318,6.51c0,5.143,2.683,7.564,5.892,7.564a10.813,10.813,0,0,0,2.243-.264,11.716,11.716,0,0,0,2.9-1.013c.088-.044.22.132.22.4,0,.176-.041.308-.176.35a22.186,22.186,0,0,1-4.4,2.025,10.088,10.088,0,0,1-3.651.44c-5.366,0-9.631-2.333-9.631-8.8Z" transform="translate(-212.894 -484.516)" fill="#f3525d"/>
            <path id="Tracé_2005" data-name="Tracé 2005" d="M410.875,502.6a15.968,15.968,0,0,0-.4-2.683c-.528-2.02-1.758-3.693-3.872-3.693s-4.089.924-6.376,2.9c-.044.047-.091.091-.132.091-.132,0-.484-.528-.264-.748a13.576,13.576,0,0,1,10.291-4.441c5.891,0,6.819,4.97,6.819,9.411,0,.836-.091,3.341-.179,4.84-.088,1.976-.173,3.91-.173,4.617,0,.306.085.44.438.526l1.849.44a.487.487,0,0,1,.261.44c0,.088-.041.132-.173.132-.528-.044-2.333-.044-4.048-.044-1.5,0-2.419,0-3.165.044-.135,0-.22-.044-.22-.22-.047-.352-.135-1.937-.135-2.9,0-.22-.044-.878-.044-1.23l-.129-.088c-.179.35-.4.748-.619,1.1a8.081,8.081,0,0,1-6.992,3.651,5.635,5.635,0,0,1-5.85-5.894c0-3.957,2.554-8.049,8.225-8.049a6.467,6.467,0,0,1,3.828,1.142,6.2,6.2,0,0,1,.88.707Zm-3.957,9.9c1.714,0,3.3-1.67,4.131-4.089a4.748,4.748,0,0,0,.308-1.582,4.342,4.342,0,0,0-.394-1.67c-.575-1.5-1.937-3.255-3.825-3.255-2.245,0-3.255,2.856-3.255,5.847,0,3.079,1.23,4.749,2.988,4.749Z" transform="translate(-200.614 -484.516)" fill="#f3525d"/>
            <path id="Tracé_2006" data-name="Tracé 2006" d="M432.153,513.906c.132,0,.22.308.22.484,0,.044,0,.088-.088.088-1.5-.044-3.035-.088-5.586-.088-2.507,0-4.4.044-5.5.088-.088,0-.13-.044-.13-.088,0-.132.085-.484.218-.484l2.111-.484a.615.615,0,0,0,.528-.614c.088-.925.22-4.356.22-6.378,0-3.828-.528-8.269-2.991-8.269-2.111,0-4.268,3.343-5.583,8.709a29.77,29.77,0,0,0-.66,5.98c0,.4.129.528.394.572l2.157.484c.132,0,.218.308.218.484,0,.044-.044.088-.132.088-1.714-.044-3.121-.088-5.5-.088s-4.043.044-5.363.088c-.088,0-.088-.044-.088-.088,0-.176.088-.484.22-.528l2.243-.4c.261-.088.394-.218.394-.616,0-1.318-.086-6.464-.086-8.4-.047-1.5-.176-6.42-.22-7.564-.047-.4-.047-.66-.44-.7l-1.934-.132c-.135,0-.267-.308-.267-.528,0-.086,0-.132.132-.132l8.533-1.362c.267-.044.352.088.352.35-.044.619-.264,6.2-.352,8.577,0,.44-.042,1.013-.088,1.5l.22.044c.135-.44.308-1.012.4-1.233,1.233-3.916,4.576-9.235,8.885-9.235,3.517,0,5.322,3.3,5.322,9.411,0,3.255-.308,7.344-.484,9.191-.044.44.044.66.484.748Z" transform="translate(-186.714 -484.521)" fill="#f3525d"/>
            <path id="Tracé_2007" data-name="Tracé 2007" d="M433.273,516.494c.132-.484.308-.969.44-1.406,1.582-5.806,4-15.043,5.41-21.2.264-1.274.44-1.362,2.947-1.582a12.575,12.575,0,0,1,1.582-.132.384.384,0,0,1,.4.308c1.453,5.41,4.048,16.931,5.41,22.869a10.121,10.121,0,0,0,.4,1.233h.22c.132-.352.264-.924.352-1.277,1.274-5.5,3.167-15.173,4.133-22.033.044-.487-.086-.748-.394-.792l-2.067-.308c-.179-.044-.267-.394-.267-.614,0-.088,0-.135.088-.135h8.445a.119.119,0,0,1,.132.135c0,.22-.088.526-.22.57l-.966.308a.974.974,0,0,0-.793.79c-1.23,4.312-6.07,20.057-7.7,24.19-.308.969-.57,1.057-3.869,1.145h-1.758a.47.47,0,0,1-.4-.308c-1.362-4.353-3.343-10.291-4.353-14.251-.179-.57-.4-1.582-.66-2.5h-.264c-.264.966-.616,2.111-.88,2.945-.968,2.859-3.3,9.807-4.659,13.021-.4.922-.619,1.01-4.444,1.1h-1.365c-.22,0-.308-.088-.4-.352-1.274-4.309-4.353-17.592-6.068-25.244-.088-.308-.22-.528-.528-.572l-1.142-.22c-.132-.044-.267-.394-.267-.614a.12.12,0,0,1,.135-.135h12.006c.132,0,.132.047.132.176,0,.179-.132.528-.308.572l-2.2.308a.537.537,0,0,0-.44.66c.7,4.749,2.551,15.963,3.6,21.86.091.35.22.966.311,1.494Z" transform="translate(-165.635 -488.647)" fill="#f3525d"/>
            <path id="Tracé_2008" data-name="Tracé 2008" d="M444.753,514.737c-6.2,0-9.634-3.781-9.634-9.411,0-5.894,3.7-11.3,11.832-11.3,6.9,0,9.807,4.4,9.807,9.631,0,5.806-3.913,11.084-11.964,11.084Zm1.362-.837c3.123,0,4.045-4.045,4.045-9.631,0-5.058-1.23-9.411-4.219-9.411-2.9,0-4.268,3.869-4.268,9.719,0,5.058,1.582,9.323,4.4,9.323Z" transform="translate(-141.235 -484.516)" fill="#f3525d"/>
            <path id="Tracé_2009" data-name="Tracé 2009" d="M483.448,513.856c.13.044.22.308.22.484,0,.088,0,.132-.132.132-1.321-.044-2.815-.088-5.278-.088s-4.356.044-5.41.088c-.132,0-.132-.044-.132-.088,0-.176.088-.484.22-.528l1.979-.484c.264-.041.4-.22.44-.528.129-1.142.129-5.011.129-6.244,0-4.309-.7-8.489-3.077-8.489-2.859,0-4.576,5.058-5.19,9.149a49.822,49.822,0,0,0-.4,5.5c0,.352.135.484.484.572l2.375.526c.132.044.22.308.22.484,0,.088,0,.132-.088.132-1.406-.044-3.077-.088-5.586-.088s-4.221.044-5.363.088c-.132,0-.132-.044-.132-.132,0-.132.042-.44.22-.484l1.888-.484c.352-.088.44-.22.487-.57.129-1.013.085-4.4.085-5.982,0-4.485-.526-8.709-3.035-8.709-2.639,0-4.483,4.573-5.275,8.883-.176,1.453-.4,4.18-.4,5.85a.455.455,0,0,0,.4.528l2.022.484c.176.044.264.308.264.484,0,.088,0,.132-.132.132-1.849-.044-3.079-.088-5.454-.088-2.287,0-3.561.044-5.014.088-.132,0-.132-.044-.132-.088,0-.176.085-.484.22-.528l1.979-.44c.261-.085.44-.173.44-.572,0-1.934-.088-6.684-.088-8.665-.044-1.45-.132-6.244-.264-7.432-.044-.394-.088-.66-.484-.7l-1.89-.088c-.132,0-.267-.264-.267-.526,0-.091,0-.135.179-.179l8.486-1.186c.267-.044.308.085.308.306,0,.528-.22,5.589-.394,7.919,0,.352-.088.966-.088,1.406l.262.088c.132-.528.308-1.1.4-1.362,1.186-3.3,3.825-8.4,8.574-8.4,3.208,0,4.969,3.035,5.1,7.785v1.277l.176.042c.088-.308.264-.922.4-1.318,1.01-2.947,3.693-7.785,8.4-7.785,3.209,0,5.19,3.077,5.19,9.281,0,3.341-.4,8.134-.484,9.32,0,.487.086.619.44.707Z" transform="translate(-126.635 -484.516)" fill="#f3525d"/>
            <path id="Tracé_2010" data-name="Tracé 2010" d="M479.193,502.817a1.326,1.326,0,0,1-.878,1.233c-1.629.528-9.59.528-11.656.35a14.6,14.6,0,0,0,.22,2.994c.748,3.3,3.211,5.366,5.759,5.366a14.22,14.22,0,0,0,2.947-.308,16.53,16.53,0,0,0,3.211-1.145c.091-.044.22.22.22.528,0,.132-.088.176-.176.264a23.352,23.352,0,0,1-5.058,2.2,11.853,11.853,0,0,1-3.869.44c-5.542,0-9.634-2.595-9.634-9.059,0-5.938,4.312-11.656,10.555-11.656,5.9,0,8.357,5.058,8.357,8.753Zm-9.147-7.917c-1.717,0-3.475,2.595-3.387,8.709a21.4,21.4,0,0,0,5.671-.264c.355-.176.619-.482.619-1.409,0-2.375-.528-7.078-2.859-7.078Z" transform="translate(-101.235 -484.516)" fill="#f3525d"/>
            <path id="Tracé_2011" data-name="Tracé 2011" d="M494.054,513.906c.132,0,.22.308.22.484,0,.044,0,.088-.088.088-1.494-.044-3.035-.088-5.583-.088-2.509,0-4.4.044-5.5.088-.091,0-.132-.044-.132-.088,0-.132.085-.484.22-.484l2.108-.484a.612.612,0,0,0,.528-.614c.091-.925.22-4.356.22-6.378,0-3.828-.528-8.269-2.991-8.269-2.108,0-4.265,3.343-5.583,8.709a29.792,29.792,0,0,0-.66,5.98c0,.4.132.528.394.572l2.157.484c.132,0,.217.308.217.484,0,.044-.041.088-.129.088-1.717-.044-3.123-.088-5.5-.088s-4.043.044-5.363.088c-.088,0-.088-.044-.088-.088,0-.176.088-.484.22-.528l2.243-.4c.264-.088.4-.218.4-.616,0-1.318-.088-6.464-.088-8.4-.044-1.5-.176-6.42-.22-7.564-.044-.4-.044-.66-.44-.7l-1.935-.132c-.132,0-.264-.308-.264-.528,0-.086,0-.132.132-.132l8.533-1.362c.264-.044.35.088.35.35-.041.619-.261,6.2-.35,8.577,0,.44-.044,1.013-.091,1.5l.22.044c.135-.44.308-1.012.4-1.233,1.23-3.916,4.573-9.235,8.883-9.235,3.519,0,5.322,3.3,5.322,9.411,0,3.255-.308,7.344-.484,9.191-.044.44.044.66.484.748Z" transform="translate(-88.306 -484.521)" fill="#f3525d"/>
          </g>
        </g>
      </g>
      <g id="Groupe_261" data-name="Groupe 261" transform="translate(98.032 340.968)">
        <path id="Tracé_2012" data-name="Tracé 2012" d="M395.223,522.246c0,.256-.508.51-.764.51-.065,0-.127-.065-.189-.127l-2.8-6.422a1.953,1.953,0,0,0-1.274-1.272,46.437,46.437,0,0,0-7.756-1.015c-.192,3.75-.445,14.495-.572,17.863-.065,3.561-.254,15.45-.254,17.993,0,.634.254.764.7.829l3.18.57c.192,0,.318.383.318.764,0,.127,0,.192-.189.192-1.4-.065-4.9-.127-8.585-.127-3.369,0-6.487.062-7.886.127-.189,0-.189-.065-.189-.127,0-.319.127-.829.319-.829l3.242-.635c.445-.062.508-.254.508-.891.065-2.543-.189-15.132-.254-18.12,0-2.543-.254-14.368-.316-17.61a52.377,52.377,0,0,0-7.632.953,2.21,2.21,0,0,0-1.4,1.334l-2.924,6.36c-.065.124-.127.189-.254.189-.192,0-.764-.316-.764-.51l.634-9.343a.4.4,0,0,1,.445-.446c.508,0,1.717.065,4.325.189,2.67.065,6.676.192,12.653.192,5.785,0,9.792-.065,12.459-.192,2.67-.062,4.006-.124,4.452-.124.256,0,.381.124.381.443Z" transform="translate(-359.491 -510.994)" fill="#081d82"/>
        <path id="Tracé_2013" data-name="Tracé 2013" d="M394.284,518.935c-.192,0-.381-.381-.381-.637,0-.127,0-.251.189-.316l11.317-1.59c.319-.062.51.127.51.508-.065,2.352,0,12.081,0,14.624,0,2.988.192,10.11.318,11.765.062.57.192.886.764,1.015l2.414.635c.192.065.318.572.318.764,0,.065,0,.127-.192.127-1.652-.062-3.688-.062-6.166-.062-2.162,0-4.2,0-5.467.062-.256,0-.383-.189-.383-.635,0-.764-.062-6.042,0-8.458v-1.968h-.319c-.251.7-.381,1.269-.57,1.649-2.546,6.234-6.3,9.857-11.638,9.857-4.576,0-8.326-3.75-8.326-13.1a115.589,115.589,0,0,1,.888-12.969c.065-.761-.127-1.08-.7-1.08h-2.67c-.254,0-.51-.51-.51-.829,0-.127.065-.189.256-.189l11.255-1.717c.378-.062.508.127.508.572-.062,2.036-.381,9.408-.381,12.462,0,8.709,1.207,12.526,4.2,12.526,3.814,0,6.995-6.549,7.948-15.134.189-1.652.316-5.148.316-6.358,0-.826-.189-1.209-.634-1.271Z" transform="translate(-336.93 -504.757)" fill="#081d82"/>
        <path id="Tracé_2014" data-name="Tracé 2014" d="M425.289,545.1c.192,0,.319.445.319.7,0,.062,0,.127-.127.127-2.162-.065-4.387-.127-8.075-.127-3.623,0-6.358.062-7.948.127-.127,0-.192-.065-.192-.127,0-.192.127-.7.316-.7l3.053-.7a.894.894,0,0,0,.764-.891c.127-1.336.318-6.3.318-9.219,0-5.532-.764-11.954-4.325-11.954-3.051,0-6.168,4.832-8.075,12.588a43.411,43.411,0,0,0-.953,8.647c0,.572.192.764.572.829l3.115.7c.192,0,.318.445.318.7,0,.062-.065.127-.189.127-2.481-.065-4.516-.127-7.95-.127s-5.85.062-7.756.127c-.127,0-.127-.065-.127-.127,0-.257.127-.7.316-.764l3.242-.572c.383-.127.575-.318.575-.891,0-1.906-.129-9.346-.129-12.143-.062-2.163-.251-9.282-.316-10.936-.062-.57-.062-.953-.637-1.015l-2.8-.194c-.189,0-.383-.443-.383-.762,0-.127,0-.192.194-.192l12.332-1.968c.383-.065.51.124.51.508-.065.891-.383,8.965-.51,12.4,0,.637-.062,1.463-.124,2.163l.316.062c.192-.635.443-1.461.572-1.779,1.782-5.659,6.612-13.35,12.842-13.35,5.086,0,7.694,4.765,7.694,13.6,0,4.705-.445,10.617-.7,13.288-.065.637.065.953.7,1.083Z" transform="translate(-313.821 -504.796)" fill="#081d82"/>
        <path id="Tracé_2015" data-name="Tracé 2015" d="M415.827,523.465a.462.462,0,0,1,.572.508c-.127,2.543-.445,11.317-.508,14.432-.065,2.862-.192,9.919-.192,12.335,0,.57.127.7.572.826l3.18.635c.127,0,.319.446.319.637,0,.127,0,.192-.13.192-1.525-.065-4.514-.127-7.945-.127-3.5,0-6.487.062-7.759.127-.192,0-.192-.065-.192-.127,0-.256.127-.635.319-.7l2.988-.7c.443-.127.7-.256.7-.829,0-1.4-.189-9.028-.256-12.143-.062-2.608-.251-9.346-.316-10.936-.062-.508-.127-.953-.7-.953l-2.862-.127c-.192,0-.443-.445-.443-.826,0-.065,0-.127.124-.127Zm-4.641-11.573a4.129,4.129,0,0,1,4.322,4.131,4.316,4.316,0,0,1-4.387,4.39c-2.224,0-4.641-1.587-4.641-4.2a4.483,4.483,0,0,1,4.641-4.325Z" transform="translate(-290.046 -511.892)" fill="#081d82"/>
        <path id="Tracé_2016" data-name="Tracé 2016" d="M411.115,526.279c0-4.9,6.487-9.918,15.7-9.918a16,16,0,0,1,5.788.761c.189.191.316.318.316.572l.572,6.485c0,.256-.572.637-.826.637-.127,0-.192,0-.256-.192-.953-1.587-1.844-3.18-2.8-4.832a4.414,4.414,0,0,0-1.08-1.08,8.19,8.19,0,0,0-4.068-.891c-3.115,0-5.534,1.971-5.534,4.514s1.717,3.879,6.425,5.594c5.974,2.036,9.09,4.136,9.09,8.2,0,6.039-6.611,10.172-16.913,10.172a21.7,21.7,0,0,1-5.721-.764.718.718,0,0,1-.445-.635l-.508-6.614c0-.316.634-.57.823-.57a.255.255,0,0,1,.257.125c.891,1.593,1.844,3.436,2.862,5.026a3.718,3.718,0,0,0,1.145,1.08,8.785,8.785,0,0,0,4.006.953c3.812,0,6.865-1.655,6.865-4.641,0-2.735-1.844-4.068-6.995-5.785-6.293-1.971-8.709-4.325-8.709-8.139Z" transform="translate(-277.829 -504.788)" fill="#081d82"/>
        <path id="Tracé_2017" data-name="Tracé 2017" d="M433.852,523.465a.461.461,0,0,1,.57.508c-.124,2.543-.443,11.317-.507,14.432-.062,2.862-.189,9.919-.189,12.335,0,.57.127.7.572.826l3.178.635c.127,0,.318.446.318.637,0,.127,0,.192-.129.192-1.523-.065-4.514-.127-7.945-.127-3.5,0-6.487.062-7.756.127-.192,0-.192-.065-.192-.127,0-.256.127-.635.319-.7l2.986-.7c.445-.127.7-.256.7-.829,0-1.4-.192-9.028-.256-12.143-.062-2.608-.254-9.346-.316-10.936-.065-.508-.129-.953-.7-.953l-2.859-.127c-.192,0-.445-.445-.445-.826,0-.065,0-.127.127-.127Zm-4.641-11.573a4.131,4.131,0,0,1,4.322,4.131,4.317,4.317,0,0,1-4.389,4.39c-2.225,0-4.641-1.587-4.641-4.2a4.483,4.483,0,0,1,4.641-4.325Z" transform="translate(-261.395 -511.892)" fill="#081d82"/>
        <path id="Tracé_2018" data-name="Tracé 2018" d="M447.56,528.758a22.8,22.8,0,0,0-.57-3.877c-.764-2.926-2.546-5.342-5.6-5.342s-5.915,1.336-9.219,4.2c-.062.065-.127.127-.189.127-.192,0-.7-.761-.383-1.08a19.624,19.624,0,0,1,14.878-6.42c8.517,0,9.854,7.184,9.854,13.6,0,1.209-.127,4.835-.254,6.995-.124,2.862-.254,5.659-.254,6.676,0,.445.129.637.637.764l2.67.634a.7.7,0,0,1,.381.637c0,.127-.065.189-.254.189-.764-.062-3.372-.062-5.85-.062-2.162,0-3.5,0-4.576.062-.194,0-.319-.062-.319-.318-.065-.508-.192-2.8-.192-4.2,0-.318-.062-1.271-.062-1.782l-.191-.124c-.254.507-.572,1.08-.891,1.588a11.7,11.7,0,0,1-10.107,5.278,8.143,8.143,0,0,1-8.458-8.52c0-5.721,3.688-11.633,11.889-11.633a9.7,9.7,0,0,1,6.8,2.667Zm-5.723,14.305c2.481,0,4.77-2.416,5.979-5.912a6.992,6.992,0,0,0,.445-2.289,6.288,6.288,0,0,0-.575-2.419c-.826-2.16-2.8-4.7-5.529-4.7-3.242,0-4.705,4.133-4.705,8.458,0,4.449,1.782,6.865,4.322,6.865Z" transform="translate(-249.608 -504.788)" fill="#081d82"/>
      </g>
    </g>
  </g>
</svg>
